<svg width="346" height="255" viewBox="0 0 346 255" fill="none" xmlns="http://www.w3.org/2000/svg">
<path d="M118.193 61.153C118.193 61.5762 117.997 63.103 117.186 64.3897C116.359 65.7006 115.451 67.0024 114.625 68.4901C113.582 70.366 112.936 71.907 112.276 73.6429C111.693 75.1754 111.495 76.7841 111.329 78.8383C111.183 80.6504 110.88 88.2732 111.056 92.9516C111.122 94.7146 112.118 97.5506 113.071 101.487C113.576 103.575 114.379 105.193 115.391 107.139C116.212 108.718 116.677 110.269 117.271 111.85C117.874 113.455 118.618 115.185 119.187 116.735C119.794 118.388 121.43 118.954 122.367 120.263C123.411 121.721 124.403 123.31 125.203 125.062C126.346 127.566 128.643 130.973 130.376 132.998C131.707 134.553 133.622 135.473 135.058 136.641C136.616 137.909 137.641 140.36 139.565 142.574C140.246 143.358 141.469 144.855 144.637 147.699C149.573 152.129 153.387 157.372 155.339 158.94C158.163 161.207 160.49 163.58 162.307 164.717C164.123 165.855 164.356 166.917 164.891 166.717C165.132 166.628 165.083 163.542 164.891 163.229C164.386 162.709 165.308 162.421 164.891 161.773C163.567 159.717 164.699 161.055 165.49 161.221M165.49 161.418C165.911 161.449 167.895 162.142 172.727 165.784C176.013 168.261 177.284 170.069 178.92 171.321C181.052 172.952 182.976 174.006 184.519 174.986C186.017 175.937 187.946 176.488 190.556 177.085C195.923 178.312 200.572 178.603 203.5 178.877C205.717 179.084 208.202 180.751 210.65 182.279C212.587 183.489 214.224 184.1 214.968 184.16C215.344 184.19 215.721 184.075 215.916 183.568C216.438 182.213 216.349 180.86 216.893 180.466C217.155 180.276 217.59 180.528 217.934 180.822C219.372 182.052 219.584 183.628 220.105 184.301C220.303 184.557 220.703 184.251 220.875 183.501C221.047 182.751 221.064 181.467 221.285 180.841C221.507 180.216 221.931 180.287 222.321 180.422C223.078 180.686 224.174 181.34 225.467 181.764C225.963 181.927 226.232 181.501 226.358 181.03C226.484 180.558 226.484 179.932 226.676 179.663C226.868 179.395 227.251 179.505 227.62 179.75C229.306 180.87 230.482 181.995 231.349 182.334C231.767 182.497 232.204 182.452 232.466 182.206C233.783 180.97 232.705 178.913 232.582 178.2C232.26 176.328 236.811 180.591 238.695 180.653C240.201 180.702 239.766 178.237 240.103 177.756C241.243 176.127 245.733 179.565 248.682 179.641C249.076 179.651 249.18 179.101 249.259 178.656C249.338 178.21 249.339 177.68 249.202 177.271C249.066 176.861 248.792 176.587 248.45 176.422C246.837 175.641 244.426 175.48 242.014 174.474C238.959 173.2 230.995 170.833 224.87 168.338C221.652 167.027 217.508 165.243 213.811 163.229C210.299 161.315 208.649 160.137 206.611 158.94C203.834 157.309 199.515 155.314 194.686 152.142C189.107 148.477 184.035 145.251 181.131 143.791C179.291 142.866 174.46 139.971 167.97 135.691C164.075 133.122 162.646 131.606 160.809 129.92C157.327 126.724 156.733 125.022 155.339 123.121C153.973 121.256 151.789 118.702 149.408 116.867C148.939 116.573 148.577 116.349 148.154 116.135C147.731 115.92 147.258 115.722 146.721 115.473M148.083 116.117C148.014 115.639 146.7 112.204 145.419 109.26C144.76 107.745 143.812 106.314 143.148 104.745C142.448 103.093 141.417 101.095 140.218 98.9804C138.771 96.4288 138.535 93.7248 137.856 90.8281C137.046 87.3751 136.577 84.5789 135.987 82.2591C135.417 80.0193 131.437 80.1938 131.095 79.5539C130.377 78.2104 132.914 76.5394 134.115 75.2091C134.579 74.6955 133.629 73.9788 133.266 73.5098C132.777 72.8786 134.481 71.9222 135.145 71.2338C135.472 70.8946 133.639 70.6979 132.408 70.5047C131.067 70.2942 134.105 68.0468 136.385 66.7555C136.974 66.4842 137.459 66.3095 137.959 66.1717C138.459 66.0339 137.861 64.627 139.307 64.3897C139.307 63.3681 140.758 61.2292 141.15 58.9526C141.229 58.4895 141.279 58.102 141.307 57.7175C141.335 57.3331 141.328 56.9615 140.506 56.7701C136.054 55.7335 134.253 57.0148 132.501 57.5167C129.88 58.2677 127.784 58.6741 124.885 59.1264C122.778 59.5569 120.972 60.1525 119.461 60.5534C119.071 60.6308 118.683 60.6892 117.174 60.8781" stroke="black" stroke-linecap="round"/>
<path d="M172.383 37.6518C172.701 37.6518 173.06 37.653 173.452 37.6555M173.452 37.6555C177.395 37.6808 184.655 37.8394 187.52 38.2497C191.155 38.7702 194.015 39.2346 197.529 39.8899C200.593 40.4611 203.448 41.0849 206.401 41.5872C209.715 42.151 212.491 43.9804 215.179 46.3053C215.831 46.8694 216.221 47.5273 215.965 47.7883C213.891 49.9051 205.338 47.279 199.971 47.6095C197.07 47.7881 194.006 48.7264 190.817 49.3269C187.656 49.9222 184.752 50.3551 181.753 50.6793C178.608 51.0193 175.753 51.8403 172.856 52.7531C171.414 53.2073 169.986 53.6812 168.671 53.7637C165.947 53.9347 165.968 48.646 164.892 46.1298C163.82 43.6229 168.36 41.3567 170.642 39.4064C171.261 38.9943 171.911 38.607 172.542 38.2152C172.823 38.0409 173.097 37.868 173.452 37.6555ZM173.452 37.6555C173.895 37.3903 174.464 37.0634 175.333 36.595M118.312 60.1412C118.545 60.1412 118.838 60.137 119.174 60.1286M119.174 60.1286C120.911 60.0852 123.784 59.9294 125.341 59.6598C127.098 59.3556 128.895 58.589 130.584 58.0479C131.367 57.797 132.098 57.4318 132.437 56.9233C133.235 55.7253 129.457 55.5063 127.791 54.8739C126.149 54.2505 124.44 53.8392 122.681 53.0908C120.516 52.1695 118.263 51.9874 116.442 51.5805C114.671 51.1849 112.711 50.6721 110.489 50.4355C108.495 50.2231 106.717 49.7185 105.06 49.2923C103.26 48.8292 101.204 48.8086 97.6489 48.6168C91.5584 48.2882 89.8187 49.1257 88.5578 49.5859C87.0984 50.1187 92.0105 50.4295 94.7378 50.9382C96.7028 51.3047 98.4104 51.9733 100.044 52.5385C101.756 53.1308 104.57 54.2087 107.49 55.2152C110.507 56.2554 113.892 57.816 115.772 58.8628C116.948 59.4856 118.03 59.9041 119.174 60.1286ZM119.174 60.1286C119.974 60.2858 120.804 60.3479 121.716 60.3186C122.249 60.2501 122.672 60.1491 123.98 59.9392" stroke="black" stroke-linecap="round"/>
<path d="M206.549 40.4733C207.462 40.4733 210.368 40.9198 212.861 41.3574C213.338 41.4411 213.393 40.3608 213.19 39.6843C212.771 38.2859 211.002 37.3241 210.017 36.5594C209.396 36.0776 212.226 36.4098 213.033 36.4271C215.332 36.4763 209.819 32.2415 207.427 29.7493C206.792 29.0874 204.888 30.0802 205.307 29.7493C205.726 29.4183 208.462 27.8082 208.889 27.5625C211.025 26.3328 204.788 24.0979 203.914 22.7997C203.578 22.3006 206.443 22.749 206.507 22.2175C206.649 21.0387 196.944 17.7175 202.648 17.7175C203.914 17.7175 197.586 14.1079 197.807 13.7175C198.299 12.8453 204.807 13.2175 199.303 11.8401C198.269 11.5811 201.462 10.4688 202.648 10.2753C205.303 9.84195 195.686 6.51402 192.447 4.46434C189.523 2.61369 190.571 3.44082 187.307 2.61388C178.44 0.367717 169.973 -0.724535 152.938 2.61386C147.307 3.71747 143.64 2.85331 139.746 4.54434C135.012 6.59979 131.409 7.79716 125.541 9.92281C119.993 11.9328 115.956 13.5796 112.537 14.8105C109.218 16.0054 108.08 18.2788 105.307 19.7175C104.024 20.4491 101.536 22.0023 100.307 22.7997C95.8066 25.7175 98.9102 24.4737 97.3066 25.7175M96.3066 25.6064C97.1177 25.7149 97.8025 27.1158 100.802 27.5731C103.807 28.0311 102.003 28.3004 102.572 28.2163C105.154 27.8343 112.88 26.5553 118.345 27.4889C120.078 27.785 121.504 28.7628 122.746 28.7995C124.074 28.8387 125.044 26.7512 126.45 25.6064C130.006 22.7109 138.239 25.2197 139.489 25.7551C140.789 26.3115 140.289 28.3861 140.706 33.2275C140.976 36.3561 148.171 32.5623 151.807 32.2175C155.211 31.8945 159.916 30.9697 164.307 30.7175C167.12 30.5558 172.727 28.7995 177.307 30.7175C178.631 31.2721 173.063 31.8679 172.525 32.2175C170.973 33.2275 175.307 34.5889 172.727 34.5889C172.093 34.5889 171.945 35.5717 172.525 35.9135C176.149 38.0468 179.991 36.7683 183.199 37.0582C186.093 37.3197 188.96 38.2977 192.001 38.6965C195.802 39.1949 198.592 39.6284 201.823 39.957C203.31 40.1594 205.867 40.3354 209.037 40.451C210.367 40.5079 211.129 40.5613 212.073 40.5354" stroke="black" stroke-linecap="round"/>
<path d="M166.294 48.9977C165.853 48.9637 164.068 48.4104 162.523 47.5364C161.052 46.7039 159.172 46.4148 157.652 45.8656C156.184 45.3358 154.673 44.855 153.038 44.5412C151.179 44.1844 149.581 43.9968 146.718 43.8087C141.893 43.4917 139.616 43.5115 137.639 43.2599C131.671 42.5003 124.197 44.284 120.307 44.5412C116.416 44.7985 116.303 44.4213 114.701 44.7778C114.302 44.8665 113.911 44.9254 113.558 45.092C113.204 45.2586 112.899 45.5247 112.914 45.8412C112.994 47.502 115.257 48.2145 116.327 49.7067C116.599 50.0864 116.807 50.4912 117.13 50.7445C118.608 51.9007 121.566 51.6856 123.504 52.1655C125.618 52.689 127.467 53.9399 129.49 54.9622C131.001 55.7255 132.957 56.2412 134.839 56.5795C138.714 57.2766 144.232 56.6601 145.968 56.4028C147.574 56.165 149.277 55.9873 152.212 55.8491C155.604 55.6895 158.522 55.5462 162.312 55.3956C165.142 55.2831 166.354 54.8651 166.935 54.456C167.219 53.7893 166.674 52.6681 166.104 50.9158C166.051 50.2979 166.051 49.4574 166.05 48.6324" stroke="black" stroke-linecap="round"/>
<path d="M115.932 50.4734C115.331 50.2069 112.854 49.5576 110.386 49.1222C107.932 48.6894 105.462 48.2699 101.445 48.0997C96.5595 47.8927 89.9857 47.9376 87.5633 48.508C85.0195 49.107 82.3963 49.2532 79.6969 49.7082C77.0134 50.1605 74.1597 50.5095 71.0303 50.8312C68.9362 51.0466 66.5401 51.0841 61.7928 51.1586L61.408 51.1646C42.8661 51.4558 37.9858 51.5559 35.3066 51.1646C32.4013 50.7403 27.1101 50.5482 23.9197 50.1169C21.1958 49.7487 18.2698 49.4745 14.8066 49.1229C11.4178 48.7788 6.96137 48.9016 3.80664 48.508C2.07738 48.2923 1.54735 46.863 0.806666 46.7054M0.806666 46.7054C-0.953615 46.331 5.32529 45.0055 8.06166 44.274C10.5743 43.6024 13.1504 43.1583 16.3023 42.4949C19.6752 41.7849 23.3722 41.4788 26.5378 40.8105C31.8328 39.6926 39.4813 36.5794 45.3066 35.4571C48.805 34.7832 56.0168 32.9816 62.8066 31.301C67.7347 30.0812 70.7403 30.6334 74.1655 29.7626C79.2157 28.4786 83.7508 29.2838 87.6931 28.6128C90.9716 28.0548 93.6756 27.4461 96.6705 27.0407C97.799 26.8879 99.4607 26.9859 100.324 27.3841C101.188 27.7823 101.212 28.5788 100.683 29.0007C100.154 29.4227 99.0717 29.446 98.4201 29.7626C97.7684 30.0792 97.5804 30.6884 97.5193 31.301C97.4581 31.9136 97.5296 32.5111 97.8679 32.9444C99.3997 34.9063 102.61 34.7736 105.125 35.242C107.651 35.7125 110.282 36.6147 113.083 37.1342C117.634 37.9788 121.187 36.6764 122.87 35.4571C123.521 34.9859 123.933 37.1438 124.966 37.7973C126.003 38.4528 127.433 39.3752 128.001 39.3752M0.806666 46.7054C2.33167 46.0382 8.24327 45.3481 8.86992 45.2708C10.1104 45.1221 11.3527 45.0026 12.6672 44.907C16.4381 44.729 21.201 44.6388 23.9197 44.3155C26.4852 44.0104 29.7835 44.5921 32.3066 44.1573C34.9457 43.7024 37.3489 43.2931 40.3066 43.0602C43.8335 42.7825 46.871 43.2902 51.8066 43.0257C56.8165 42.7573 64.0994 41.8224 66.8066 41.4655C69.6137 41.0954 72.5476 41.1025 75.134 41.0752C81.7677 41.0052 92.4039 40.7017 97.8679 41.4655C101 41.9032 102.587 40.3865 105 40.908C106.416 41.2139 107.881 41.5705 109.189 42.1908M128.001 39.3752C130.688 39.3752 130.446 39.1638 128.001 39.3752ZM128.001 39.3752C125.576 39.585 116.989 41.409 114.269 41.6797C113.009 41.8051 110.461 41.0724 109.515 41.4655C109.272 41.5665 109.189 41.8555 109.189 42.1908M109.189 42.1908C109.189 42.4639 109.245 42.7677 109.316 43.0257C109.936 45.2967 112.93 46.8934 114.538 49.1229C114.902 49.6289 115.194 50.1624 115.313 50.1169C117.047 49.4551 113.485 46.1808 111.809 44.1573C111.087 43.2868 110.184 42.6626 109.189 42.1908ZM135.636 23.8924C135.301 23.8924 134.899 23.9047 134.452 23.9293M134.452 23.9293C132.073 24.0603 128.413 24.5423 126.651 25.4014C124.736 26.3361 123.666 28.3759 123.185 30.4957C122.601 33.0665 125.078 34.8442 126.542 36.6199C127.442 37.7116 128.455 38.5352 129.371 39.0146C131.362 40.0556 133.104 39.1344 135.636 39.0146C137.955 38.9049 139.771 36.0989 140.817 34.2342C141.329 33.3219 141.722 32.3588 141.861 31.2267C142.157 28.8161 140.334 27.0889 138.713 25.6962C137.154 24.7254 135.767 24.1638 134.452 23.9293ZM134.452 23.9293C134.204 23.8852 133.96 23.8527 133.717 23.8312C132.717 23.785 131.27 23.785 129.521 24.0303" stroke="black" stroke-linecap="round"/>
<path d="M123.6 28.6713C123.036 28.4695 121.116 27.586 119.191 26.8266C115.202 25.2535 108.29 26.5479 105.257 26.8227C102.996 27.0275 101.008 27.6133 98.9935 28.533C98.0278 28.9738 97.8492 30.321 97.802 31.539C97.7794 32.1226 97.8284 32.6378 98.1029 32.9779C99.3358 34.5053 101.939 34.1263 103.887 34.8371C105.841 35.5503 108.372 36.1104 110.6 36.793C112.575 37.3982 114.661 37.4867 119.562 37.5491C121.15 37.5694 122.051 36.6325 122.871 35.985C123.674 35.351 123.752 34.1158 123.854 33.0442C123.83 31.9804 123.557 30.9901 122.972 30.2178C122.613 29.8941 122.128 29.7086 121.328 29.4622" stroke="black" stroke-linecap="round"/>
<path d="M296.031 159.665C296.831 159.665 299.691 160.182 302.174 161.098C304.922 162.112 307.193 163.561 309.752 164.787C312.689 166.195 316.548 168.614 319.211 169.923M319.211 169.923C322.631 171.604 327.927 173.823 330.871 174.863C333.033 175.628 335.853 175.461 338.714 175.635C341.122 175.782 343.069 175.505 343.803 175.437C346.897 175.147 344.097 183.439 344.313 186.087C344.495 188.317 344.17 188.74 344.424 190.891C344.488 191.431 345.329 193.695 344.424 193.987C339.422 195.603 336.939 194.917 334.674 195.577C332.496 196.212 329.998 196.261 327.269 196.536C323.814 196.883 318.786 197.293 316.112 197.567C312.905 197.897 306.049 197.886 301.997 198.105C300.912 198.164 298.828 198.326 293.475 198.458C283.536 198.703 275.547 198.708 272.637 198.898C269.366 199.111 266.884 199.353 264.222 199.913C261.21 200.545 257.459 201.382 254.564 201.636C252.052 201.856 250.038 202.295 247.899 202.64C245.345 203.051 243.398 203.72 241.46 204.711C239.445 205.74 237.517 206.558 235.907 207.935C234.168 209.421 232.588 210.773 230.044 212.734C228.124 214.215 226.54 215.511 224.709 216.676C222.763 217.915 220.517 219.006 218.532 220.298C216.251 221.782 214.83 223.641 212.477 225.219C210.485 226.553 208.913 229.421 207.699 231.617C206.637 233.537 205.392 234.621 204.666 235.185C202.748 236.672 199.269 235.507 197.573 235.623C195.007 235.8 200.099 230.76 201.562 227.646C202.64 225.352 203.533 223.532 204.912 220.908C206.333 218.202 207.542 216.061 208.701 214.116C210.153 211.681 211.948 209.428 212.627 207.7C212.917 206.963 204.852 207.006 194.437 207.029C188.875 207.041 185.996 207.565 181.752 208.284C177.844 208.946 173.419 209.336 167.614 209.478C159.678 209.672 156.53 210.489 150.797 210.768C149.498 210.831 148.83 210.857 148.358 210.594C146.35 209.476 145.247 206.701 143.482 204.974C142.602 204.113 141.76 203.232 141.243 202.471C140.773 201.78 144.094 200.518 147.679 199.162C150.185 198.214 152.794 197.605 155.518 197.012C158.432 196.378 161.819 196.356 164.268 195.738C166.416 195.196 168.453 193.412 170.362 191.873C171.422 191.018 172.711 190.709 173.8 190.604C175.869 190.404 177.364 192.221 178.814 193.817C180.242 195.388 185.375 195.107 195.775 194.969C200.354 194.908 202.826 195.285 206.328 195.601C207.28 195.687 208.174 195.688 208.643 195.445C209.112 195.202 209.131 194.675 208.896 194.307C207.655 192.369 203.868 192.99 202.068 191.72C199.922 190.206 197.023 189.168 194.807 187.779C194.308 187.466 194.185 186.903 194.318 186.591C195.063 184.849 206.661 185.891 213.207 186.18C213.815 186.206 214.382 186.303 220.865 186.344C227.347 186.385 239.722 186.427 246.612 186.381C256.799 186.313 260.35 185.739 264.242 184.894C267.925 184.095 270.664 183.741 273.151 183.299C275.298 182.917 281.767 182.611 287.586 182.998C291.613 183.265 295.883 185.333 298.726 186.091C302.844 187.188 306.714 189.337 309.281 190.446C310.266 190.872 311.36 190.532 312.325 190.446C312.778 190.406 313.032 190.297 313.134 189.824C313.556 187.868 312.76 185.355 311.307 183.717C309.409 181.579 306.213 178.304 304.502 175.387C303.178 173.129 301.725 170.749 299.726 168.135C298.361 166.351 298.414 164.036 297.568 162.136C297.331 161.604 296.823 161.147 296.867 160.845C296.966 160.168 299.098 160.977 302.297 161.938C307.874 163.612 308.12 165.227 312.325 166.717C314.97 167.655 316.765 168.366 319.211 169.923ZM319.211 169.923C320.286 170.607 323.688 171.961 324.415 172.664C327.481 175.631 335.216 177.21 341.592 175.635C345.307 174.717 345.807 178.176 345.807 178.717C345.807 180.717 344.196 181.405 344.335 186.377C344.15 187.973 344.615 188.719 344.335 189.824C344.203 190.365 349.307 195.577 333.807 194.717" stroke="black" stroke-linecap="round"/>
<path d="M112.537 45.2577C112.537 45.2577 112.537 45.2577 112.537 45.2577ZM112.537 45.2577C112.615 45.2576 118.951 44.3275 127.145 44.1563M112.537 45.2577C112.099 45.2538 111.664 45.2449 111.237 45.2304C110.232 44.622 109.286 43.8505 108.991 42.8316C108.848 42.3387 108.834 41.6872 109.233 41.5003C110.082 41.1019 111.288 40.9934 112.537 40.8664C115.325 40.5827 118.643 40.2126 120.895 39.8262C123.379 39.3997 125.526 38.804 127.74 38.6344C131.159 38.3724 135.443 37.6469 137.322 36.3951C139.13 35.1903 140.695 34.8298 142.69 33.9422C144.678 33.0577 147.105 33.2217 151.073 32.6297C154.003 32.1925 156.48 30.8375 159.307 30.8442C164.599 30.8567 173.554 30.2513 175.807 30.8441C177.831 31.3767 172.259 32.8753 173.225 34.7615C173.459 35.2191 173.582 35.8023 173.363 36.3055C172.919 37.3288 171.933 38.0027 170.915 38.9243C168.703 40.929 165.578 41.9647 165.082 44.1475C164.856 45.14 166.839 48.4118 164.938 48.7287C164.119 48.8652 161.006 48.3436 157.047 46.5554C154.721 45.5047 152.372 44.6312 150.05 44.1869C147.552 43.7087 137.64 44.0329 128.35 44.1369C127.944 44.1414 127.543 44.148 127.145 44.1563M112.537 45.2577C116.703 45.2952 121.214 44.8817 123.778 44.543C124.465 44.4528 125.023 44.3238 127.145 44.1563M127.145 44.1563C127.164 44.1548 127.182 44.1533 127.201 44.1519" stroke="black" stroke-linecap="round"/>
<path d="M168.828 54.106C168.841 54.106 168.854 54.106 171.164 54.0921C172.31 54.0852 174.021 53.4842 175.807 52.8672M175.807 52.8672C176.807 52.5215 177.831 52.1708 178.792 51.9166M175.807 52.8672C169.993 52.105 175.118 53.5097 171.164 53.496C169.728 53.3161 168.866 54.0277 168.161 53.496C167.424 52.9399 166.725 52.4374 166.339 51.5431C166.019 50.8022 165.5 45.9929 166.074 43.323C166.251 42.5017 166.433 41.4695 167.2 40.6406C167.958 39.8225 168.325 39.521 173.307 39.0052C175.901 38.7365 179.366 39.1352 181.807 39.2175C184.981 39.3245 186.078 38.8332 187.307 39.0052C188.517 39.1746 191.419 38.1281 195.287 39.0052C198.005 39.6214 202.167 40.5582 204.61 41.0342C207.732 41.6425 208.861 41.7245 209.687 42.0739C211.063 42.6566 211.778 43.5992 212.928 44.6988C214.135 45.852 215.088 46.2779 215.176 47.0244C215.197 47.2033 215.201 47.4014 215.096 47.5414C214.884 47.8239 213.567 47.7247 211.716 48.0018C209.996 48.2592 208.872 48.1169 203.18 48.5264C200.636 48.7094 200.055 47.991 197.307 48.5264C196.102 48.7612 194.765 48.3335 193.807 48.5264C192.499 48.7896 190.073 47.8448 189.307 48.5264C188.571 49.1807 186.659 51.3298 180.964 51.5431C180.316 51.5673 179.582 51.7084 178.807 51.9128C178.802 51.9141 178.797 51.9153 178.792 51.9166M175.807 52.8672C177.233 53.0542 178.359 52.0393 178.792 51.9166" stroke="black" stroke-linecap="round"/>
<path d="M276.025 106.566C276.295 106.949 278.121 108.878 279.584 110.545C280.704 111.821 281.19 113.503 281.624 115.087C282.083 116.763 283.919 117.604 284.576 119.43C284.661 119.668 284.747 119.901 284.831 120.128M284.831 120.128C285.537 122.023 286.205 123.564 286.759 125.052C287.363 126.672 287.467 128.462 288.072 130.182C288.456 131.275 288.755 132.492 288.566 133.663C288.209 135.868 285.484 135.485 284.32 135.664C283.832 135.74 283.665 136.204 283.604 136.592C283.349 138.218 284.406 139.436 284.38 140.235C284.352 141.098 283.648 141.785 283.724 142.581C283.801 143.379 284.225 144.138 284.428 144.85C284.619 145.522 286.109 145.278 287.122 145.546C291.059 146.59 290.393 155.401 291.637 156.906C292.936 158.477 294.515 160.435 295.438 162.491C297.15 166.307 300.178 170.187 304.354 175.151C307.593 179 308.752 180.714 310.307 182.07C311.872 183.435 312.239 185.972 312.828 186.6C314.749 188.649 313.286 190.278 312.828 190.717C311.482 192.009 309.211 189.109 306.422 188.025C304.426 187.249 302.566 187.05 300.818 186.6C298.843 186.091 297.091 185.318 295.441 184.687C293.675 184.011 291.749 183.859 289.499 183.711C287.389 183.573 285.504 183.331 283.669 183.127C281.637 182.9 278.158 182.524 275.088 182.07C272.373 181.669 270.095 181.04 267.857 180.509C265.852 180.033 264.022 179.778 261.31 179.169C258.889 178.625 256.327 178.33 253.862 177.879C252.882 177.708 251.903 177.563 250.737 177.435C250.25 177.392 248.628 176.089 247.567 175.47M284.831 120.128C284.665 119.868 284.511 119.637 284.354 119.41C282.894 117.354 281.457 115.126 279.769 113.127C277.955 111.173 277.16 107.861 274.836 106.535C274.314 106.238 273.536 106.047 273.336 106.514C272.858 107.629 272.243 109.959 271.152 109.502C270.207 109.106 268.186 105.161 266.899 106.944C266.311 107.759 266.72 110.692 265.126 110.874C263.898 111.014 257.819 107.382 258.96 109.577C259.271 110.175 259.963 111.718 259.498 113.574C259.284 114.429 258.869 115.072 258.292 115.439C257.714 115.806 256.99 116.037 256.122 115.933C252.722 115.524 249.559 109.974 247.799 112.227C246.327 114.113 245.656 116.956 244.556 116.588C243.566 116.257 241.544 112.239 238.72 113.158C237.549 113.539 236.175 114.043 235.478 115.136C235.144 115.659 234.93 116.403 235.337 116.794C236.209 117.633 239.291 118.17 239.387 120.948C239.483 123.733 239.331 126.91 238.057 126.898C236.723 126.885 233.012 123.634 229.464 123.64C228.872 123.641 228.128 123.809 227.868 124.34C227.339 125.42 227.518 131.899 225.29 130.512C222.277 128.637 218.603 124.452 216.02 124.486C215.366 124.494 214.496 124.741 214.711 125.069C215.349 126.045 216.674 127.068 216.825 128.311C216.991 129.668 217.591 132.103 216.467 132.223C215.556 132.321 213.966 130.336 211.016 129.299C210.38 129.076 209.771 129.093 209.427 129.875C209.084 130.658 209.331 132.539 208.696 132.752C207.848 133.036 202.808 125.168 195.116 120.747C194.116 120.173 193.22 120.131 193.212 120.653C193.172 123.395 195.717 126.661 194.326 131.317C194.026 132.322 193.425 133.04 192.968 132.769C191.928 132.155 187.838 124.094 186.307 123.64C183.059 122.678 182.281 126.44 180.807 128.311C177.307 132.752 167.307 113.158 169.307 123.64C170.055 127.561 162.335 123.86 160.834 125.937C160.487 126.417 160.308 127.104 160.686 127.634C161.51 128.786 163.057 130.178 165.625 132.264C170.631 136.331 175.655 139.409 179.294 142.325C186.005 147.703 193.581 154.248 196.3 155.479C200.09 157.194 204.861 158.628 212.185 161.118C218.33 163.207 221.465 164.571 224.436 165.779C227.872 167.176 234.203 169.592 238.6 171.467C241.449 172.682 244.411 174.106 246.822 175.152M284.831 120.128C285.05 120.472 285.29 120.867 285.582 121.37M247.567 175.47C247.256 175.289 246.994 175.167 246.822 175.152M247.567 175.47C250.13 176.543 252.784 177.33 253.467 177.443M247.567 175.47C247.538 175.458 247.51 175.446 247.482 175.434C247.267 175.344 247.047 175.249 246.822 175.152M246.822 175.152C246.817 175.151 246.812 175.151 246.807 175.151M262.761 112.226C263.54 112.226 266.282 112.822 268.986 114.265C271.803 115.767 274.323 117.962 277.45 120.867C281.177 124.329 283.414 127.051 285.566 128.972C286.104 129.457 286.588 129.915 287.05 130.426C287.513 130.936 287.939 131.485 289.36 133.288M254.048 116.827C255.063 116.827 257.656 116.973 261.452 118.401C268.002 120.865 274.179 125.003 277.474 127.196C279.69 129.117 281.41 130.714 282.439 131.816C283.019 132.465 283.715 133.296 285.363 135.559M284.131 139.876C283.321 139.823 280.134 138.794 260.022 125.778C254.464 122.186 252.651 120.986 251.498 120.098C250.945 119.654 250.457 119.224 249.179 117.474M243.225 123.467C244.053 123.564 247.599 124.226 256.606 128.305C264.142 131.718 270.666 135.232 274.083 137.262C276.983 138.986 278.738 140.994 280.314 143.352C280.693 143.92 280.791 144.576 280.596 145.092C279.136 148.95 269.616 146.101 259.836 143.086C250.855 138.273 242.419 131.495 238.415 127.902C237.891 127.395 237.331 126.836 235.897 124.883C237.994 124.883 243.823 125.37 247.059 127.026C256.646 131.934 267.855 141.587 271.412 144.215C273.738 145.933 274.265 148.621 274.837 151.002C275.159 152.338 275.088 154.023 273.478 154.863C265.249 159.161 258 153.949 249.778 150.569C243.348 147.927 239.742 143.877 232.571 136.502C227.709 130.667 226.492 129.103 226.072 128.007C226.066 127.472 226.48 126.982 227.675 126.477C227.765 126.477 235.86 132.513 248.377 141.976C255.247 147.169 259.005 153.018 262.966 158.814C264.427 160.952 264.671 161.529 262.368 161.357C255.122 160.815 244.601 157.325 235.684 154.08C229.207 151.724 225.974 149.5 222.443 146.404C219.963 144.229 218.539 142.034 217.854 140.785C217.184 139.562 217.112 136.719 217.372 133.433C217.647 132.239 218.215 132.005 218.969 131.854C219.723 131.704 220.647 131.643 221.599 131.581M218.764 135.545C219.7 135.577 223.927 137.12 235.535 145.779C239.567 148.786 241.172 150.675 241.922 151.885C242.719 153.171 242.769 155.131 242.56 157.133C242.379 158.864 240.952 159.788 239.74 160.293C236.687 161.565 227.8 157.014 217.888 152.041C216.385 151.287 215.004 150.45 213.731 149.558M213.731 149.558C209.028 146.264 205.807 142.225 203.372 138.858C201.71 136.559 201.943 133.845 202.231 131.974C202.351 131.196 203.095 130.949 203.776 130.793C204.458 130.637 205.227 130.626 205.894 130.839C211.351 132.584 216.685 140.359 217.81 143.202C218.21 144.214 217.963 145.781 217.655 146.626C217.069 148.233 215.632 149.135 213.731 149.558ZM213.731 149.558C212.026 149.938 209.948 149.933 207.776 149.707M207.776 149.707C201.806 149.084 195.123 146.789 193.513 146.206C190.835 145.236 189.407 142.607 187.829 137.856C187.47 136.774 187.372 136.146 187.507 135.548C187.641 134.95 188.063 134.385 188.62 134.094C192.369 132.137 198.727 140.095 201.7 143.09C204.211 145.62 206.138 147.826 207.776 149.707ZM207.776 149.707C210.237 152.534 212.041 154.627 214.183 155.981C219.06 159.063 228.317 161.719 239.755 164.863C258.25 169.948 261.041 170.331 262.922 169.772C264.656 169.257 263.308 166.243 262.637 164.943C260.832 162.744 258.185 160.819 255.48 160.211C254.585 160.155 253.415 160.155 252.108 160.686M259.481 171.09L259.574 171.094C262.272 171.193 268.769 171.431 275.812 173.733C282.625 175.961 286.371 179.747 289.375 182.248C289.885 182.673 290.56 182.724 291.086 182.537C291.613 182.349 292.041 181.819 292.226 181.225C292.975 178.809 290.587 176.345 288.538 172.485C286.93 169.455 285.13 166.077 283.205 163.517C281.492 161.152 280.297 158.769 278.743 156.07L278.725 156.04C278.284 155.279 277.802 154.448 276.114 152.714M263.396 157.625C265.418 157.719 271.133 158.252 274.697 159.446C276.086 159.835 277.245 160.267 278.577 161.013C279.361 161.471 280.363 162.089 282.342 164.107M264.243 161.817C265.864 161.817 270.66 162.472 273.884 163.343C276.815 164.195 278.972 165.224 280.584 166.15C281.311 166.548 281.852 166.801 282.805 167.166M261.464 168.408C264.388 168.505 272.242 168.878 275.343 169.73C278.339 170.689 280.796 171.228 282.977 171.394C284.203 171.45 285.671 171.45 287.428 170.947M172.828 129.044C173.68 129.567 177.819 132.869 181.399 135.553C184.348 137.316 186.996 138.894 188.491 139.892C189.182 140.39 189.732 140.871 190.3 141.367M222.805 139.434C223.527 139.737 226.147 141.009 228.304 142.465C230.595 144.011 233.397 146.794 236.997 149.859C237.798 150.532 238.409 151.092 238.986 151.542C239.563 151.992 240.089 152.315 241.542 153.379M248.172 131.626C249.132 131.813 252.896 133.587 256.758 136.32C258.116 137.225 260.058 138.462 261.312 139.349C262.566 140.236 263.073 140.734 263.961 142.18" stroke="black" stroke-linecap="round"/>
<path d="M186.242 181.919C187.995 180.17 190.318 177.978 191.278 177.165C192.63 177.483 193.056 177.589 193.52 177.695C194.47 177.908 197.207 178.013 199.253 178.598C198.966 180.04 197.58 181.226 197.103 182.833C196.588 184.572 194.934 186.31 195.619 187.828C195.947 188.553 196.734 189.626 199.246 190.781C204.679 193.278 207.066 193.461 207.779 195.022C207.938 195.369 207.934 195.971 207.154 195.997C203.124 196.131 196.143 195.436 188.886 195.4C183.768 195.375 180.093 195.634 179.55 195.062C179.03 194.514 177.853 191.732 175.568 191.648C174.001 191.591 172.598 191.63 171.929 192.111C170.482 193.151 169.357 194.829 167.449 195.673C166.358 196.156 164.728 196.778 164.468 195.965C164.21 195.155 163.97 193.089 165.473 191.664C166.986 190.23 168.278 189.139 171.645 187.96C174.805 186.852 177.273 185.745 179.823 184.943C181.912 184.286 184.502 183.654 186.242 181.919Z" stroke="black" stroke-linecap="round"/>
<path d="M198.852 179.006C198.781 179.308 198.383 180.27 197.88 181.2C197.434 182.024 196.904 182.84 196.342 183.941C196.039 184.535 195.948 185.141 195.938 185.584C195.933 185.795 196.186 185.942 196.494 186.023C197.837 186.374 199.69 186.254 201.215 186.356C202.262 186.427 203.371 186.561 207.658 186.626C209.764 186.658 211.331 186.796 212.965 186.866C213.624 186.893 214.211 186.942 214.596 186.881C215.507 186.738 213.09 185.198 212.218 184.614C211.388 184.057 210.32 183.956 209.389 183.726C208.386 183.479 207.415 183.322 206.176 183.231C205.201 183.159 204.148 182.911 202.847 182.753C201.672 182.61 200.684 182.66 200.357 182.542C199.669 182.293 201.156 181.058 201.724 180.235C201.862 180.036 202.026 179.881 202.168 179.705C202.31 179.529 202.44 179.348 202.208 179.254C200.66 178.624 199.893 178.834 199.573 178.848C198.569 178.891 198.781 180.549 198.17 181.253C197.563 181.951 197.193 182.819 196.764 183.678C196.558 184.09 196.427 184.533 196.358 185.036C196.329 185.309 196.309 185.617 196.685 185.78C197.061 185.944 197.833 185.953 198.628 185.963" stroke="black" stroke-linecap="round"/>
<path d="M219.379 49.3912C220.912 50.241 224.347 52.1908 225.602 53.0908C226.724 53.8949 227.537 54.7952 228.648 55.647C230.292 56.907 231.223 57.8424 232.476 59.0091C233.34 59.8142 234.089 60.5984 234.999 61.5942C236.333 63.0558 238.534 65.196 239.681 66.3089C240.522 67.1255 241.444 68.2489 242.517 69.4846C243.265 70.3462 244.116 71.1363 244.847 71.7759C245.502 72.3497 247.783 74.7551 250.927 78.2319C253.707 81.3064 255.481 84.6087 256.408 86.0816C257.518 87.8459 258.662 89.4091 259.961 91.0198C261.364 92.759 263.869 93.9081 264.878 94.7021C266.549 96.0178 269.98 99.9457 272.415 102.911C273.835 104.639 273.482 107.149 273.041 108.516C272.769 109.358 270.307 109.66 270.307 108.516C270.307 106.217 266.071 109.976 264.878 110.081C263.675 110.186 263.848 108.16 263.108 109.115C262.938 109.336 262.913 109.605 262.746 109.749C261.887 110.487 261.626 110.645 260.807 110.081C258.537 108.516 258.743 114.945 258.537 115.322C257.902 116.483 253.203 114.786 250.927 113.188C250.124 112.624 251.105 111.161 250.643 111.106C249.233 110.94 248.353 113.926 247.36 114.628C246.217 115.436 244.849 116.436 243.807 116.086C242.237 115.559 240.2 113.148 239.732 113.188C238.414 113.3 236.954 115.283 235.524 116.086C235.172 116.284 237.899 115.842 237.725 116.086C236.95 117.175 242.455 120.591 240.579 122.655C239.681 123.644 238.807 126.407 237.725 126.282C236.22 126.108 233.683 123.683 232.306 123.644C230.86 123.603 229.672 125.709 227.801 126.282C226.832 126.579 226.81 130.992 225.807 130.95C222.395 130.805 218.296 125.287 217.307 124.34C216.791 123.848 219.463 125.444 218.307 128.598C217.842 129.865 213.715 136.956 213.261 134.263C212.307 128.598 209.221 131.521 208.312 131.733C207.753 131.864 206.973 131.942 205.789 130.95C200.28 126.329 200.172 124.636 199.063 124.34C197.204 123.845 195.841 120.594 195.434 120.296C194.2 119.392 195.007 124.499 195.178 125.899C195.334 127.177 195.106 128.214 194.831 128.598C194.546 128.998 194.257 132.775 193.307 132.717C192.116 132.645 190.491 127.266 188.976 126.301C187.94 125.641 186.756 125.663 185.617 125.317C184.946 125.114 184.287 125.165 183.747 125.382C182.155 126.023 181.369 128.607 179.807 128.766C179.414 128.806 178.737 128.049 177.359 127.108C174.529 125.176 172.285 121.043 171.252 120.771C169.921 120.42 169.649 121.452 168.491 122.331C167.448 123.123 170.307 126.282 164.863 124.674C163.593 124.299 160.846 127.394 158.807 127.217C157.615 127.114 156.758 123.99 155.911 122.801C154.833 121.288 152.431 119.885 151.307 118.065C148.899 114.168 144.386 111.069 142.914 108.526C141.504 106.089 141.578 102.948 140.98 100.796C140.235 98.1154 138.661 97.0328 138.304 95.0201C137.602 91.0563 138.332 87.0676 136.307 85.7175C130.307 81.7175 131.807 70.4261 133.307 72.7175C134.329 74.2794 130.489 69.4846 137.807 65.2212C140.794 63.4808 140.664 60.4769 140.98 59.1032C141.114 58.5224 141.52 58.1055 141.917 57.7098C143.263 56.3652 146.687 57.1439 149.252 56.3253C151.531 55.5978 155.17 54.9196 158.092 54.6292C159.884 54.451 165.294 54.4434 168.555 54.3315C169.934 54.2841 173.142 53.2585 176.807 52.3409C177.965 52.0511 179.635 51.6547 182.061 51.1189C184.487 50.5831 187.618 49.9188 189.651 49.4504C191.684 48.9819 192.525 48.7294 194.801 48.3697C197.077 48.01 200.762 47.5508 203.041 47.2264C207.89 46.536 210.788 46.6386 214.289 46.9919C216.426 47.2076 218.135 48.8397 219.151 49.4303C219.672 49.665 220.177 49.8261 220.65 49.9515C220.89 50.0199 221.128 50.0978 221.637 50.265" stroke="black" stroke-linecap="round"/>
<path d="M179.228 184.193C178.498 184.298 175.355 185.358 173.144 186.621C171.383 187.626 169.416 188.367 166.385 188.805C158.853 189.894 156.506 188.302 153.929 187.919C150.278 187.376 147.513 187.136 144.194 186.494C141.842 186.039 140.319 185.333 138.307 185.172C135.863 184.977 132.485 183.735 129.307 183.403C126.392 183.099 124.01 182.653 121.651 181.988C118.964 181.23 115.465 181.293 113.515 180.485C113.044 180.289 112.599 180.077 112.317 179.736C111.164 178.335 112.461 176.447 113.029 175.552C113.301 175.123 115.265 176.198 115.807 176.202C118.079 176.221 118.917 175.887 121.651 176.202C124.069 176.482 126.221 176.81 128.257 177.221C130.396 177.652 132.885 178.151 136.368 178.562C139.493 178.93 143.288 180.958 147.418 181.526C150.112 181.897 152.722 182.343 157.845 183.403C161.604 184.181 165.177 184.059 168.84 185.172C172.069 186.153 175.656 185.149 176.227 185.172C174.421 185.409 170.693 187.181 169.01 188.217C168.569 188.418 168.084 188.513 166.637 188.735" stroke="black" stroke-linecap="round"/>
<path d="M144.989 204.974C145.02 204.974 151.31 204.974 161.075 204.934C166.188 204.913 168.24 204.216 174.768 202.793C177.6 202.176 179.532 202.131 182.48 201.817C185.104 201.536 192.963 200.88 199.059 200.357C207.662 199.618 213.284 200.165 213.796 200.383C215.421 201.074 208.322 202.098 205.861 202.701C203.7 203.231 201.233 203.421 197.246 204.074C193.242 204.73 187.685 205.013 183.307 205.172C179.984 205.294 177.166 205.945 175.307 206.217C173.043 206.55 169.498 206.631 167.73 206.952C163.027 207.808 155.95 208.921 154.088 209.12C152.319 209.309 150.413 209.658 147.765 209.669C145.999 209.677 145.702 206.721 144.617 205.172M144.617 205.172C144.357 204.801 144.385 205.474 144.617 205.172ZM144.617 205.172C145.11 204.532 147.233 204.825 148.307 204.971C149.934 205.905 150.393 204.955 151.492 205.103C152.084 205.154 152.745 205.156 153.426 205.158" stroke="black" stroke-linecap="round"/>
<path d="M344.818 182.678C344.818 182.753 344.818 184.952 344.604 188.048C344.492 189.664 339.151 188.093 335.929 188.698C332.398 189.362 330.709 190.996 328.427 191.141C327.323 191.212 322.639 190.671 315.379 192.413C310.304 193.631 306.778 194.113 300.174 194.862C295.03 195.446 286.978 195.462 281.307 196.035C268.451 197.333 259.788 198.553 256.307 198.717C253.336 198.858 244.562 201.353 236.695 203.397C230.101 205.111 227.742 209.744 224.963 211.239C221.839 212.92 218.338 216.603 214.807 219.717C212.151 222.059 207.694 224.941 206.807 225.217C205.116 225.745 209.835 220.663 211.307 218.717C212.838 216.695 215.956 213.956 218.307 212.217C220.157 210.849 221.207 209.641 223.807 206.217C225.979 203.357 228.902 201.334 231.307 199.717C233.346 198.347 235.014 196.983 238.136 196.035C240.665 195.267 244.426 195.166 248.192 194.862C257.371 194.12 265.23 192.252 268.44 192.006C272.82 191.67 279.98 190.233 283.807 189.936C288.68 189.559 292.731 189.505 295.418 188.33C297.55 187.398 299.744 186.8 301.84 187.034C303.868 187.261 305.426 187.45 307.307 188.732C308.425 189.495 309.569 191.2 311.307 191.141C312.545 191.1 313.735 190.869 314.272 189.936C314.877 188.885 312.906 186.905 313.876 186.568C318.307 185.026 330.628 185.374 332.87 185.026C335.113 184.679 337.44 184.425 339.841 184.003C340.979 183.803 342.216 183.517 343.2 183.508C343.468 184.184 343.303 185.229 343.133 186.399C343.076 187.049 343.076 187.814 343.91 188.732" stroke="black" stroke-linecap="round"/>
<path d="M215.749 224.016C216.745 224.016 220.099 223.931 224.651 223.873C227.195 223.841 228.867 225.631 230.889 225.325C231.552 225.224 232.408 225.152 232.951 225.367C233.494 225.582 233.695 226.055 233.605 226.469C233.223 228.219 230.206 228.292 228.705 229.92C228.347 230.307 228.152 230.769 227.773 231.012C227.393 231.254 226.889 231.308 226.383 231.135C223.942 230.299 221.121 228.715 217.26 227.603C215.922 227.217 215.014 226.697 214.406 226.652C212.314 226.495 215.822 230.997 215.917 233.548C216.018 236.286 214.544 235.245 214.406 238.717C214.189 244.186 214.743 246.152 215.917 248.217C216.5 249.244 218.757 251.467 219.835 252.031C220.824 252.548 220.828 254.611 221.729 254.194C224.263 253.022 222.123 247.773 221.402 245.549C220.485 242.722 221.482 239.043 222.141 237.081C222.307 236.59 222.069 236.056 221.808 235.631C220.743 233.897 218.552 232.9 217.199 230.998C215.668 228.844 214.903 227.422 214.288 226.543C213.997 226.128 214.164 225.55 214.403 225.146C215.939 224.038 217.855 223.457 219.835 223C220.368 222.934 220.947 222.934 221.543 222.934" stroke="black" stroke-linecap="round"/>
<path d="M119.728 181.863C119.685 182.199 119.436 183.46 118.371 185.258C117.638 186.494 116.777 187.957 116.073 189.328C115.398 190.643 114.698 191.677 113.763 192.708C112.875 193.685 111.332 194.076 110.104 194.683C108.848 195.302 107.635 195.697 106.268 195.898C104.991 196.086 103.68 196.157 102.195 196.108C101.869 196.097 101.68 195.828 101.571 195.551C101.462 195.273 101.451 194.914 101.574 194.613C102.06 193.428 103.257 192.916 104.198 192.15C105.088 191.426 106.113 190.434 106.905 189.344C107.927 187.935 109.004 186.016 110.069 185.263C111.207 184.458 112.493 183.872 114.31 182.996C115.435 182.423 116.219 182.043 117.141 181.911C117.77 181.86 118.728 181.843 119.748 181.921" stroke="black" stroke-linecap="round"/>
<path d="M111.716 178.803C111.716 178.762 111.716 177.803 111.632 176.267C111.555 174.857 110.035 174.196 109.169 173.301C108.345 172.451 107.674 171.56 106.914 170.77C106.129 169.954 104.711 169.461 103.489 169.113C102.397 168.802 101.199 168.626 97.9271 168.497C96.7545 168.45 96.0646 168.351 95.5235 168.167C94.417 167.792 94.0276 166.564 93.3654 165.721C93.0031 165.26 92.1352 165.275 91.4149 165.423C89.8198 165.753 91.1784 169.158 91.8393 170.517C92.3763 171.621 92.7435 172.737 93.3352 173.66C93.9729 174.655 94.9441 175.303 95.9031 176.054C96.8062 176.761 97.8479 177.15 98.8942 177.588C99.9391 178.025 101.108 178.37 102.358 178.706C103.75 179.08 104.991 179.306 106.118 179.498C107.231 179.689 109.94 179.818 111.49 179.172C111.842 178.119 111.933 176.953 111.882 175.872C111.832 175.415 111.73 175.144 111.153 174.418" stroke="black" stroke-linecap="round"/>
<ellipse cx="128.307" cy="31.7175" rx="2" ry="4" fill="#D9D9D9" stroke="black"/>
<path d="M97.2877 35.8992C95.2329 35.8992 90.4803 35.8833 89.6246 35.8488C88.3212 35.7961 93.4868 35.8877 94.5874 36.0301C95.0919 36.0953 95.6151 36.1571 95.884 36.1893C95.8887 36.2046 95.6261 36.2182 95.2086 36.2172C94.7911 36.2162 94.2267 36.2003 93.3266 36.1385" stroke="black" stroke-linecap="round"/>
</svg>
