<svg width="306" height="265" viewBox="0 0 306 265" fill="none" xmlns="http://www.w3.org/2000/svg">
<path d="M144.455 112.866C143.645 112.726 141.955 111.246 141.685 111.286C133.195 114.886 124.665 118.376 116.655 122.956C116.205 123.346 115.905 124.496 116.155 125.096C117.705 124.536 119.315 124.116 120.955 123.896C124.545 123.406 132.455 122.656 133.435 127.476C134.155 131.026 130.365 132.196 128.185 133.766C126.715 134.826 125.295 135.976 123.945 137.196C127.685 137.556 130.975 137.726 133.165 141.166C135.025 144.096 133.715 147.506 130.755 149.036C128.685 150.106 126.045 150.946 123.715 150.746L126.955 153.616C131.255 158.306 129.505 163.176 122.915 163.126C117.265 163.086 112.305 158.256 107.565 155.976C105.155 154.816 102.465 156.046 99.6155 155.776C98.2955 155.656 96.0955 154.586 95.2855 154.606C94.7155 154.616 93.5155 155.486 92.8355 155.726C91.6255 156.146 89.8655 156.446 88.5855 156.506C86.9955 156.586 85.9155 155.866 84.7255 156.966C77.9055 163.236 77.5355 179.216 78.4055 187.766C79.2755 196.316 80.2555 206.546 83.7755 214.526C86.8155 221.426 91.6955 229.446 95.9255 235.716C101.015 243.256 109.305 253.556 116.665 258.866C117.485 259.456 121.565 261.646 121.755 261.926C123.545 264.616 117.905 264.696 116.615 264.676C100.035 264.426 88.0155 259.206 74.2255 250.706C59.3755 241.556 39.7755 223.996 36.9055 205.996C36.4055 202.846 35.9155 199.576 35.4755 196.396C35.3855 195.746 35.5855 194.786 35.4155 194.296C35.3055 193.966 34.5555 193.836 34.1355 193.416C32.7355 191.996 27.8055 183.486 26.7655 181.356C24.3255 176.336 22.1255 168.626 20.5155 163.146C15.9755 147.716 15.9955 132.446 19.6255 116.806C12.5255 107.856 12.1055 95.296 15.2855 84.686L14.9055 84.336C8.54548 84.046 2.52548 81.556 0.375476 75.116C-0.644524 72.046 0.505476 70.996 2.71548 69.196C11.7455 61.816 23.3855 63.686 33.5155 60.666C38.5155 59.176 45.9655 55.416 50.9555 53.166C59.1555 49.456 67.1455 45.296 75.3355 41.566L96.1255 33.216C94.4455 31.876 94.2355 31.236 94.4755 29.046C95.1755 22.646 101.435 19.296 107.405 20.866C109.375 21.386 111.245 22.616 112.905 23.766C113.385 24.106 113.975 25.076 114.625 24.956C115.165 24.856 118.145 23.326 118.845 22.956C125.485 19.386 133.625 15.756 139.725 11.696C149.985 4.85601 157.505 -1.78399 171.025 0.436006C180.805 2.03601 184.665 13.666 181.085 22.116C178.775 27.566 171.765 34.866 167.135 38.626C165.275 40.136 163.145 41.206 161.375 42.816C163.595 43.166 166.255 43.776 168.175 45.016C168.605 45.296 170.545 47.006 170.835 47.396C171.215 47.906 171.475 48.936 171.765 49.226C172.745 50.216 177.375 52.076 178.845 52.336C187.045 53.776 202.785 48.896 211.465 47.206C226.765 44.236 245.385 40.736 260.725 44.086C266.935 45.446 271.385 47.786 274.775 53.356C280.645 54.236 285.905 53.636 290.655 57.796C296.315 62.756 298.205 70.356 297.605 77.706C297.315 81.306 295.385 84.686 294.775 88.206C297.765 92.966 300.835 97.756 303.085 102.926C306.595 110.986 307.875 118.476 300.355 124.586C298.555 126.046 297.175 125.926 295.855 126.736C295.605 126.896 295.225 127.676 294.715 128.056C288.005 132.986 280.615 129.546 273.435 128.266C267.525 127.206 261.535 126.506 255.635 125.416L250.365 135.146C252.405 134.776 253.775 137.196 255.155 138.386C256.535 139.576 260.255 142.096 260.625 143.706C262.275 150.976 250.495 144.686 248.045 143.336C247.585 143.086 245.735 141.746 245.575 141.856L240.325 150.336C240.965 151.066 241.615 151.776 242.165 152.576C244.215 155.596 247.985 162.846 247.695 166.416C247.505 168.726 246.335 171.836 243.645 169.806C240.735 166.046 236.915 163.116 233.695 159.616C233.095 159.616 229.195 166.486 228.185 167.296C227.255 168.036 225.835 167.536 225.655 166.436C225.325 164.376 229.576 159.196 229.945 156.906C228.156 154.606 220.065 152.306 219.285 149.796C219.005 148.876 219.025 146.836 219.655 146.056C220.285 145.276 223.455 144.816 224.585 144.746C227.945 144.526 232.195 145.836 235.015 147.616L247.975 122.676C243.705 121.806 239.195 120.796 235.075 119.376C231.685 118.206 228.375 116.556 225.015 115.286C214.385 111.286 204.575 108.166 194.935 101.946C193.695 101.146 192.945 100.176 191.495 99.626C187.795 98.226 182.955 99.366 179.185 100.166L177.455 103.946C181.985 102.426 188.225 100.876 191.565 105.306C194.905 109.736 191.965 112.136 187.535 112.826L190.505 114.766C192.405 117.296 193.315 121.356 191.125 123.976C190.785 124.386 190.295 124.416 190.165 124.816C194.745 125.156 199.375 125.046 203.975 125.296C208.575 125.546 213.535 126.246 218.335 126.496C220.575 126.606 222.835 126.376 225.075 126.506C226.275 126.576 229.885 126.906 230.435 127.836C231.845 130.216 229.165 131.356 227.675 132.816C220.205 140.136 204.885 153.676 194.785 155.686C190.465 156.546 188.205 154.606 184.825 152.346C180.755 149.626 176.665 146.506 173.625 142.666C168.155 144.306 163.155 146.056 157.965 142.756C150.695 138.136 148.895 134.086 148.205 125.656C147.855 121.326 148.205 116.946 149.165 112.706C149.035 112.336 148.625 112.826 148.565 112.826C147.395 112.826 145.535 112.996 144.485 112.826L144.455 112.866ZM133.065 50.986C133.265 51.306 134.145 53.386 134.405 53.396C141.675 51.346 147.925 47.726 154.245 43.746C160.995 39.486 166.915 35.136 172.405 29.286C175.795 25.676 178.675 21.706 179.115 16.686C179.315 14.366 179.255 13.286 178.445 11.006C176.555 5.69601 174.095 3.71601 168.445 3.25601C155.445 2.21601 148.895 9.96601 138.985 16.006C133.075 19.606 125.475 22.986 119.165 26.406C118.525 26.756 117.535 26.916 117.005 27.366C116.635 27.676 116.805 27.566 117.005 27.836C117.985 29.276 119.605 30.836 120.705 32.296C125.175 38.256 129.215 44.676 133.085 50.976L133.065 50.986ZM114.355 29.636C111.235 25.246 104.165 20.986 99.3655 25.566C98.0955 26.776 98.0655 27.936 97.5655 29.516C98.5455 29.716 99.1555 28.896 100.285 28.936C102.045 28.996 104.115 30.786 104.875 30.816C105.635 30.846 108.615 29.566 109.945 29.426C111.405 29.266 112.925 29.376 114.355 29.636ZM117.675 33.256C116.295 33.876 115.405 32.926 114.165 32.586C112.185 32.046 110.035 32.126 108.125 32.876C112.445 36.206 115.785 40.466 118.915 44.886C121.215 44.536 123.315 44.386 125.625 44.746L117.675 33.256ZM4.74548 76.646C6.79548 79.936 9.73548 80.436 13.3255 81.136C25.2555 83.446 38.8155 83.836 50.9055 83.866C55.9955 83.876 68.3455 79.036 73.6955 77.136C89.4955 71.526 105.005 64.936 120.175 57.906C121.025 57.516 122.035 57.106 122.975 56.986C123.155 56.016 122.135 55.416 121.775 54.826C118.795 49.916 115.625 44.766 111.825 40.436C109.445 37.726 106.235 34.556 102.765 33.516C93.7255 37.556 84.3755 40.936 75.3255 44.956C61.7455 50.986 48.5755 58.036 34.7855 63.656C25.8755 65.746 14.9555 65.376 6.91548 70.086C6.28548 70.456 3.65548 72.326 3.42548 72.826C2.96548 73.846 4.16548 75.746 4.73548 76.656L4.74548 76.646ZM216.525 49.306C216.335 49.336 216.305 49.546 216.285 49.546C216.205 49.556 216.125 49.536 216.045 49.546C214.285 49.866 212.535 50.156 210.765 50.506C202.385 52.156 194.055 54.066 185.675 55.756C182.395 55.776 178.385 55.956 175.265 54.826C174.755 54.646 172.175 52.856 171.905 53.146C171.695 55.666 171.195 58.816 170.225 61.186C169.755 62.336 168.075 65.406 167.345 66.336C162.465 72.556 152.205 74.836 148.185 66.426C147.785 65.596 147.275 63.016 147.085 62.736C146.905 62.486 146.355 62.496 146.115 62.266C145.315 61.506 144.985 61.096 144.085 60.336C142.085 58.656 139.035 56.526 136.485 55.826C136.125 55.726 135.845 55.646 135.925 56.146C142.025 66.986 146.005 78.856 149.365 90.796C149.915 90.876 150.185 90.286 150.565 90.076C151.805 89.366 152.885 88.706 154.175 89.706C155.855 91.016 154.435 92.656 154.045 94.396C152.965 99.186 152.425 106.436 152.965 111.306C153.185 113.276 154.745 114.146 156.245 115.216C158.715 116.986 160.445 117.766 163.465 118.316C164.705 118.536 168.165 118.256 168.325 119.946C168.375 120.476 167.945 120.806 167.895 121.176C167.785 122.066 171.025 126.836 171.785 127.736C172.755 128.886 173.895 129.736 175.025 130.616C175.215 130.766 175.385 131.216 175.755 131.446C179.705 133.916 179.495 125.156 178.875 124.726C178.535 124.486 177.925 124.716 177.665 124.626C177.585 124.596 176.865 123.896 176.805 123.686C176.055 121.126 178.585 121.446 180.305 121.506C181.305 121.536 182.425 121.466 183.305 121.506C184.335 121.546 188.285 122.366 188.905 121.956C189.735 120.196 189.315 117.796 187.725 116.606C186.425 115.626 185.445 115.566 183.905 115.506C183.125 115.476 181.905 115.396 181.195 115.556C180.575 115.696 180.145 116.386 179.445 116.466C177.725 116.646 177.105 114.796 178.265 113.586C178.345 113.506 179.735 112.436 179.825 112.386C180.805 111.856 183.255 111.066 184.435 110.646C185.335 110.326 189.705 109.396 189.885 108.646C188.765 105.806 186.875 105.256 183.995 105.416C183.555 105.436 183.295 105.656 183.185 105.676C179.285 106.146 178.295 107.296 175.095 108.496C174.715 108.636 174.175 108.446 173.885 108.606C173.685 108.716 172.365 111.236 171.575 111.686C170.875 112.086 170.435 111.826 169.765 111.916C169.305 111.266 168.765 110.646 169.225 109.816C172.075 106.136 175.485 102.586 176.845 98.006C177.685 95.166 178.195 90.536 177.615 87.636C177.305 86.106 175.455 83.096 177.685 82.416C178.225 82.686 178.945 82.126 179.485 83.376C179.875 84.286 180.655 87.316 180.775 88.326C180.875 89.146 180.775 89.996 180.805 90.816C181.675 90.846 182.575 90.766 183.445 90.816C184.315 90.866 186.025 90.876 186.805 91.056C187.685 91.266 188.985 92.556 189.685 93.216C191.635 95.036 192.725 96.566 194.965 98.256C198.055 100.586 204.055 104.386 207.675 105.456C214.065 107.336 219.755 105.056 225.355 102.146C226.315 101.646 226.165 101.166 227.585 101.136C229.415 101.096 230.085 102.546 231.715 103.126C234.255 104.016 236.945 103.166 238.975 104.976C240.015 105.896 240.535 106.986 241.995 107.706C243.455 108.426 244.625 108.266 246.045 108.566C248.935 109.186 251.765 111.246 254.675 112.406C260.675 114.786 267.065 117.256 273.145 119.366C279.225 121.476 287.685 124.296 294.375 123.936C296.935 123.796 298.805 122.196 300.365 120.336C305.095 114.686 301.986 108.296 299.285 102.586C298.365 100.636 297.485 98.756 296.405 96.826C294.805 93.976 292.925 90.576 290.985 87.976C289.205 85.586 286.855 83.796 285.325 81.156C284.705 80.086 283.265 77.426 285.605 77.396C287.405 77.376 287.755 79.526 288.615 80.736C288.915 81.166 292.335 85.006 292.555 84.826C292.935 83.516 293.495 82.286 293.835 80.946C295.865 72.966 293.765 61.646 285.365 58.206C285.225 58.146 285.105 58.036 284.885 57.966C283.175 57.416 281.775 57.446 280.085 57.246C279.915 57.226 279.645 57.036 279.365 57.006C278.415 56.906 277.445 56.806 276.485 56.766L276.265 58.766C274.395 59.916 273.875 58.676 273.125 57.246C268.725 48.786 264.145 47.386 254.895 46.216C252.535 45.916 250.555 45.776 248.175 45.736C237.715 45.546 226.795 47.476 216.515 49.336L216.525 49.306ZM159.205 68.256C165.175 66.136 168.245 59.766 168.795 53.746C169.185 49.486 167.795 47.566 163.765 46.436C155.885 44.216 150.525 52.536 150.085 59.496C149.725 65.146 152.955 70.476 159.205 68.256ZM135.695 62.256C133.785 57.636 130.865 53.556 128.515 49.176C126.735 48.396 125.085 47.526 123.105 47.396C122.445 47.356 120.845 47.136 121.165 48.126L129.245 61.766C131.485 61.236 133.555 61.616 135.695 62.256ZM149.845 50.026C149.635 49.816 146.385 51.896 145.855 52.146C144.345 52.876 142.505 53.346 141.075 54.076C140.825 54.206 140.625 53.956 140.735 54.576C143.145 55.486 145.105 57.246 147.205 58.656C147.435 55.606 148.635 52.776 149.845 50.026ZM103.805 68.496C101.555 69.386 99.1555 70.116 97.0855 71.376C88.3455 74.806 79.6755 78.396 70.7055 81.216L72.1655 85.026C74.7955 85.236 77.7155 84.656 80.2455 85.456C84.2955 86.736 85.6155 88.626 86.4155 92.716C87.2855 97.156 86.0855 102.476 83.4055 106.156C80.3155 110.396 75.0855 112.466 69.9655 111.556C63.9855 110.496 59.4055 107.306 59.8755 100.656L47.8055 97.026C47.6255 97.046 47.3955 97.956 47.1855 98.236C45.5755 100.406 43.9655 101.536 41.1855 101.596C37.0455 101.686 31.5455 99.646 28.9555 96.316C25.4555 104.426 23.1855 113.036 21.6355 121.736C18.6255 138.576 19.7655 150.946 24.8755 167.076C25.6055 169.366 26.4755 171.756 27.2755 174.036C28.1555 176.536 28.7555 178.606 30.0255 180.996C30.9555 182.746 33.7655 187.746 34.9455 189.026C35.1655 189.266 35.2855 189.466 35.6655 189.386C34.9055 187.116 38.0655 185.636 38.7355 187.876C39.0455 188.936 38.3255 192.306 38.3255 193.606C39.4355 199.866 39.6855 207.406 42.0955 213.286C49.9855 232.526 78.7255 253.196 98.2655 258.936C103.765 260.546 109.285 261.746 115.055 261.456C112.445 259.526 110.145 257.266 107.855 254.986C97.5055 244.676 89.3955 232.406 82.7955 219.366C78.4055 210.696 77.8655 205.916 76.6555 196.486C75.1655 184.876 73.5055 175.236 77.2855 163.716C78.3055 160.586 80.3355 157.906 81.9655 155.086C78.5155 153.886 75.0455 151.596 72.6155 148.846C71.1855 147.236 67.4655 141.466 68.7555 139.416C69.4155 138.786 70.8955 138.836 71.2855 139.746C71.4855 140.206 71.3455 140.726 71.5255 141.186C73.2055 145.606 74.8555 147.226 78.6055 149.816C85.7055 154.706 91.0055 154.776 97.7655 149.196C98.0655 148.946 98.1855 148.506 98.5155 148.266C100.175 147.076 101.805 148.866 100.535 150.766C100.295 151.136 98.4555 152.446 98.7455 152.696C99.6155 152.676 100.375 152.966 101.265 152.956C105.865 152.876 105.285 151.316 110.085 153.946C113.535 155.836 119.035 160.316 123.075 160.136C127.445 159.946 126.385 157.566 124.175 155.206C122.315 153.236 120.065 152.506 118.315 150.036C117.645 149.096 117.155 148.246 117.745 147.106C118.875 144.956 121.555 147.346 123.145 147.596C125.445 147.956 132.165 146.496 130.705 143.156C129.805 141.106 127.655 140.766 125.695 140.486C124.315 140.296 120.005 140.416 119.355 139.396C118.345 137.796 120.645 136.106 121.765 135.056C123.005 133.896 124.505 132.746 125.875 131.726C126.805 131.036 129.675 129.506 130.145 128.786C130.865 127.676 129.455 127.096 128.545 126.846C126.025 126.156 119.945 126.866 117.535 127.936C116.705 128.306 116.155 129.016 115.205 129.206C114.355 131.076 110.805 138.566 109.085 139.156C108.535 139.346 107.575 139.406 107.275 138.786C106.545 137.306 108.965 134.886 109.745 133.586C113.395 127.476 114.205 120.286 113.085 113.316C112.435 109.296 111.455 106.806 107.385 105.336C101.175 103.106 97.6055 103.856 92.0455 106.886C90.1555 107.916 84.6455 111.336 83.6455 112.996C83.3655 113.456 83.3955 113.976 83.1455 114.416C82.2855 115.936 79.1955 114.876 80.4455 112.186C82.1255 108.546 92.5055 102.676 96.3755 101.496C101.725 99.876 109.055 101.776 113.265 105.376C116.365 103.506 119.905 102.626 123.215 101.246C126.525 99.866 129.795 98.096 133.295 96.816C135.465 96.016 137.755 95.496 139.915 94.666C140.225 94.226 138.795 91.676 138.575 91.056C135.475 82.236 131.985 73.526 127.785 65.156C127.385 64.356 127.005 63.546 126.585 62.756C126.425 62.456 126.215 62.246 126.105 62.036C125.875 61.616 124.835 59.166 124.545 59.166C124.265 59.456 124.005 59.746 123.635 59.926C117.195 63.146 110.505 65.846 103.805 68.516V68.496ZM138.095 67.536C137.925 67.166 137.995 66.486 137.615 66.216C135.565 65.706 133.465 64.116 131.255 64.416C130.975 64.456 130.775 64.316 130.905 64.766C131.435 66.536 133.005 69.126 133.815 70.966C135.355 74.466 136.805 78.016 138.305 81.536C138.555 81.856 139.185 81.656 139.525 81.686C140.965 81.816 141.935 81.906 143.365 82.296C143.655 82.376 143.685 82.566 143.605 82.056C142.905 77.556 140.035 71.706 138.085 67.546L138.095 67.536ZM61.5855 94.156C63.1455 90.016 65.3255 87.856 69.2455 85.846L67.8055 82.426L56.5555 86.006C58.0855 87.816 62.5955 90.296 60.3955 92.956C59.9655 92.796 59.2155 93.196 58.5755 92.736C58.2655 92.516 56.9255 90.296 56.3255 89.706C55.2155 88.626 53.6455 88.016 52.7855 86.716L41.3555 86.996L40.9955 87.356C40.7255 88.176 41.1655 90.316 41.7555 90.966C42.1255 91.376 45.5555 92.926 46.3155 93.236C50.8955 95.126 55.9155 96.266 60.6255 97.746C60.7555 96.576 61.1755 95.236 61.5855 94.146V94.156ZM143.545 85.596C142.945 85.126 140.675 84.556 139.905 84.556C139.535 84.556 139.485 84.496 139.555 84.916L144.995 99.196L149.135 100.636L145.305 86.896C144.215 86.746 144.035 85.986 143.545 85.606V85.596ZM28.2455 85.766L18.5755 85.036C15.8555 91.206 15.7955 100.126 17.6255 106.586C17.8755 107.456 19.8955 112.116 20.4555 112.396C20.9155 112.626 20.7955 112.016 20.8455 111.836C22.0055 107.286 23.9355 99.076 26.2755 95.196C26.6055 94.646 27.6455 93.866 27.7255 93.516C27.8255 93.106 27.0755 91.296 27.0655 90.476C27.0655 90.036 27.2755 88.646 27.3855 88.156C27.5855 87.256 27.9055 86.596 28.2355 85.776L28.2455 85.766ZM37.8455 86.956L31.4155 86.286C28.4755 90.916 31.1555 95.826 36.0355 97.516C38.9355 98.516 43.4055 99.606 44.7655 95.946C43.2255 94.776 40.7255 94.406 39.4155 92.936C38.1055 91.466 37.7455 88.886 37.8455 86.956ZM72.6255 108.786C78.7355 108.616 83.3555 102.456 83.6555 96.676C83.7355 95.196 83.1655 91.316 82.2255 90.196C80.5055 88.146 77.2755 87.776 74.7855 87.926C69.8655 88.216 66.2455 90.326 64.4655 94.996C63.0655 98.666 61.6455 103.866 65.3055 106.636C66.7455 107.726 70.8355 108.846 72.6155 108.796L72.6255 108.786ZM187.745 96.076C188.035 95.816 186.225 94.146 185.895 93.966L180.555 93.436L180.315 96.796L187.745 96.076ZM141.205 97.526L132.045 100.456L114.835 107.836C116.225 111.576 116.565 115.606 116.515 119.586L143.575 107.076C144.175 106.126 141.565 98.996 141.205 97.526ZM144.815 109.746C146.525 109.996 148.375 110.176 149.605 108.666C150.065 108.106 149.965 104.886 149.475 104.246C148.915 103.516 146.865 103.256 146.125 102.556C145.825 104.256 147.455 106.756 146.345 108.296C146.035 108.736 145.015 109.066 144.805 109.746H144.815ZM252.255 114.546C250.245 114.216 248.575 112.416 246.735 111.796C243.515 110.716 241.815 111.546 238.715 109.026C238.135 108.556 236.735 106.826 236.265 106.686C235.615 106.496 234.695 106.716 233.945 106.606C231.615 106.276 229.735 105.746 227.865 104.266C224.095 105.996 220.545 108.176 216.285 108.556L216.695 109.226C227.595 112.696 237.845 118.536 249.355 119.806C249.815 118.696 250.555 115.656 251.405 115.026C251.735 114.786 252.285 114.966 252.255 114.566V114.546ZM151.765 132.776C152.125 133.686 152.385 133.846 152.725 134.456C154.435 137.556 154.485 137.216 157.285 139.256C157.665 139.536 158.005 139.896 158.485 140.216C162.535 142.886 164.775 142.896 169.515 141.536C170.555 141.236 173.215 139.826 173.945 139.966C174.495 140.066 175.205 141.376 175.665 141.866C176.295 142.536 177.015 143.166 177.665 143.816C178.315 144.466 178.555 144.536 179.105 145.016C179.165 145.076 179.245 145.706 179.695 145.996C180.145 146.286 180.705 146.166 180.785 146.216C180.845 146.256 181.385 146.856 181.745 147.176C183.605 148.776 183.985 149.206 186.305 150.296C186.395 150.336 187.065 151.076 187.745 151.496C189.735 152.736 190.415 153.686 193.115 153.626C201.255 153.456 216.115 140.426 222.335 134.926C224.375 133.126 226.145 131.006 228.285 129.306C224.205 128.306 219.965 128.926 215.815 128.706C215.785 128.706 215.545 128.476 215.235 128.456C214.395 128.406 213.535 128.536 212.695 128.456C212.645 128.456 212.505 128.246 212.315 128.236C208.525 127.936 204.765 127.306 200.945 127.496L199.025 127.256C197.985 127.226 196.945 127.296 195.905 127.256C195.265 127.236 194.625 127.276 193.985 127.256C190.075 127.146 186.135 126.986 182.235 126.776C182.405 131.126 180.305 136.856 174.875 134.496C173.785 134.016 171.135 131.566 170.245 130.616C169.895 130.246 169.275 129.696 169.045 129.416C167.665 127.706 166.175 124.676 164.965 122.696C164.745 122.326 164.615 121.916 164.435 121.536C164.215 121.376 163.765 121.556 163.525 121.496C157.495 120.116 156.215 119.106 151.535 115.376C151.275 115.166 151.235 114.836 150.935 115.256C150.505 118.156 150.205 121.086 150.325 124.026C150.435 126.636 150.825 130.376 151.775 132.766L151.765 132.776ZM257.055 116.226L253.455 115.266C253.415 115.616 253.635 115.976 253.615 116.306C253.495 117.846 249.415 126.366 248.465 128.376C245.615 134.366 242.095 139.956 239.315 145.956L248.855 131.636C250.395 129.046 251.655 126.276 253.085 123.636C253.575 122.746 257.395 116.596 257.055 116.216V116.226ZM290.875 126.536C283.865 126.126 276.705 123.876 270.125 121.506C266.796 120.306 263.676 118.606 260.285 117.646L259.975 117.706L257.295 122.346C257.225 122.856 257.335 122.646 257.655 122.696C263.055 123.526 268.515 124.456 273.895 125.406C278.915 126.296 285.325 128.886 290.215 126.956C290.465 126.856 290.935 126.886 290.875 126.546V126.536ZM249.135 137.086L248.645 137.236C248.625 138.036 247.125 138.916 247.685 139.616C248.795 141.016 254.925 143.206 256.815 143.806C254.615 142.086 252.645 140.016 250.465 138.286C250.125 138.016 249.725 137.916 249.385 137.676C249.165 137.516 249.175 137.126 249.135 137.096V137.086ZM233.285 150.076C229.925 148.176 226.115 147.406 222.285 148.126C222.135 148.966 222.925 149.306 223.505 149.666C225.945 151.196 229.275 152.106 231.525 154.126L233.295 150.086L233.285 150.076ZM244.585 166.106C244.755 165.076 244.405 164.286 244.115 163.346C243.565 161.586 242.326 158.776 241.445 157.146C241.085 156.476 238.845 152.776 238.245 152.916L235.505 157.066L244.585 166.106Z" fill="#020201"/>
<path d="M138.576 91.036C137.636 93.616 134.976 94.796 133.296 96.796C129.796 98.076 126.586 99.816 123.216 101.226C119.846 102.636 116.366 103.486 113.266 105.356C109.046 101.756 101.726 99.856 96.3756 101.476C92.4956 102.646 82.1256 108.516 80.4456 112.166C79.2056 114.856 82.2956 115.906 83.1456 114.396C83.3956 113.956 83.3656 113.436 83.6456 112.976C84.6556 111.316 90.1556 107.896 92.0456 106.866C93.7156 108.816 95.7356 110.396 97.0856 112.626C97.0256 112.766 97.1356 113.146 97.0856 113.346C96.8056 114.536 96.4756 116.406 98.0456 116.946C98.0756 117.176 98.0256 117.426 98.0456 117.666C98.8556 126.336 97.0756 133.406 92.3856 140.666C89.1256 145.716 84.8256 149.276 78.6156 149.796C74.8656 147.216 73.2156 145.586 71.5356 141.166C71.3656 140.706 71.4956 140.186 71.2956 139.726C70.9056 138.816 69.4256 138.766 68.7656 139.396C67.4756 141.446 71.1956 147.216 72.6256 148.826C71.3856 152.056 69.6056 155.386 68.5456 158.656C66.6356 156.156 62.3356 157.036 61.6956 160.086C60.9256 163.766 62.5056 166.566 66.3856 166.816L66.1156 168.706L64.8056 168.956C62.5256 182.046 63.9156 196.086 68.0556 208.666C74.3356 227.746 84.5956 244.756 100.056 257.726L100.436 258.666C100.336 258.766 98.5456 257.896 98.2756 258.906C78.7356 253.176 50.0056 232.496 42.1056 213.256C39.6956 207.376 39.4456 199.826 38.3356 193.576C38.3356 192.266 39.0556 188.896 38.7456 187.846C38.0756 185.606 34.9156 187.086 35.6756 189.356C35.2956 189.436 35.1756 189.236 34.9556 188.996C33.7756 187.716 30.9656 182.716 30.0356 180.966C28.7656 178.576 28.1656 176.506 27.2856 174.006C33.1156 173.236 30.3156 163.576 24.8856 167.046C19.7756 150.926 18.6356 138.556 21.6456 121.706C23.1956 113.006 25.4656 104.406 28.9656 96.286C31.5556 99.606 37.0556 101.646 41.1956 101.566C39.6356 106.806 44.8856 109.506 48.8756 106.246C52.2156 103.516 51.5856 98.936 47.1956 98.206C47.4056 97.926 47.6356 97.016 47.8156 96.996L59.8856 100.626C59.4156 107.276 63.9956 110.456 69.9756 111.526C75.0856 112.436 80.3256 110.366 83.4156 106.126C85.4756 105.906 88.0056 105.806 89.2756 103.956C89.7856 103.206 89.8356 102.426 90.1956 101.756C92.1656 98.146 94.2256 95.046 92.4956 90.696C91.5356 88.286 88.6056 85.826 86.3756 84.586C85.4956 84.096 82.7756 83.486 82.4556 83.236C82.1956 83.036 81.8756 81.236 82.0856 80.946C88.6556 78.236 95.5656 76.496 102.186 73.936C104.976 72.856 107.616 71.526 110.356 70.356C113.716 68.926 117.366 68.016 120.356 65.836C121.176 68.016 125.006 69.126 126.726 67.286C127.356 66.616 127.376 65.846 127.796 65.116C131.996 73.486 135.486 82.196 138.586 91.016L138.576 91.036ZM102.296 85.576C99.6556 86.166 99.0456 92.466 102.956 92.246C106.866 92.026 107.796 84.336 102.296 85.576ZM56.7256 113.886C54.4056 114.316 54.1056 117.296 54.4056 119.216C54.6356 120.686 56.6056 121.806 58.0356 121.696C62.6956 121.336 62.3256 112.856 56.7256 113.886ZM79.9956 116.046C76.6556 116.446 75.6356 118.496 75.4956 121.626C75.3156 125.776 78.0856 130.466 82.7556 129.606C84.0056 129.376 85.3256 128.006 85.7556 126.856C86.1856 125.706 86.2756 121.996 85.9856 120.726C85.3856 118.016 82.8556 115.706 79.9956 116.056V116.046ZM28.3356 126.616C23.5956 130.826 32.1756 136.916 35.3156 131.796C38.0356 127.366 31.9556 123.386 28.3356 126.616ZM83.3556 138.826C81.5456 139.056 79.4356 139.836 79.5656 141.996C79.8556 146.906 88.4556 145.626 88.2156 141.536C88.0656 138.936 85.4456 138.566 83.3556 138.826ZM37.9256 162.666C41.7756 166.676 47.5756 162.276 44.0756 157.596C40.5756 152.916 33.6156 158.176 37.9256 162.666ZM55.7656 203.576C53.0656 204.196 53.0456 209.546 56.8556 208.996C60.2956 208.496 60.0856 202.586 55.7656 203.576ZM73.5156 229.476C70.8156 230.086 71.6756 234.636 74.6756 234.716C78.1556 234.806 78.1656 228.426 73.5156 229.476Z" fill="#D8DF75"/>
<path d="M248.185 45.706C246.485 51.496 255.875 52.896 254.905 46.186C264.155 47.356 268.725 48.756 273.135 57.216C274.135 62.526 276.605 67.396 278.425 72.446C278.565 72.836 278.555 73.256 278.655 73.526L274.095 75.686C273.385 73.676 270.885 72.866 269.175 74.246C268.495 74.796 268.435 75.586 267.865 76.166C265.985 71.036 260.405 65.986 255.385 64.056C251.475 62.546 247.525 62.456 243.395 62.966C246.515 60.446 251.205 58.326 253.835 55.296C254.435 54.596 255.645 53.006 254.435 52.296C252.835 51.356 251.635 53.746 250.595 54.696C247.175 57.846 242.105 60.956 238.045 63.246C236.245 64.256 233.285 65.336 231.795 66.356C231.555 66.526 231.435 66.756 231.395 67.036C231.165 67.096 231.095 67.046 230.925 66.936C230.555 66.696 229.495 65.176 228.905 64.646C227.335 63.226 222.315 59.486 220.275 59.856C219.225 60.046 218.585 61.566 219.425 62.376C219.775 62.706 221.225 62.936 221.895 63.256C224.995 64.756 228.015 67.546 229.945 70.346L227.215 75.436C223.455 72.756 218.705 71.476 214.195 72.976C212.805 73.436 211.265 73.986 211.795 75.756C212.285 77.386 215.825 75.336 217.145 75.206C219.525 74.976 224.235 76.156 225.795 78.066C226.335 78.726 225.985 79.006 225.895 79.756C222.895 79.606 220.335 81.476 217.375 81.666C211.985 82.026 208.245 77.476 203.455 76.166C193.775 73.526 184.335 81.136 183.445 90.786C182.575 90.736 181.675 90.826 180.805 90.786C180.775 89.966 180.875 89.116 180.775 88.296C180.655 87.286 179.885 84.256 179.485 83.346C178.945 82.096 178.225 82.666 177.685 82.386C177.625 82.356 177.735 81.526 176.655 81.706C174.755 82.016 175.435 85.026 175.275 86.336C174.965 88.926 174.225 92.486 173.305 94.916C171.265 100.296 166.595 104.366 163.575 109.176C162.825 112.366 167.805 112.136 169.765 111.886C170.435 111.796 170.875 112.056 171.575 111.656C172.375 111.206 173.685 108.686 173.885 108.576C174.175 108.416 174.715 108.616 175.095 108.466C178.305 107.266 179.285 106.116 183.185 105.646C183.215 106.406 184.505 107.826 184.105 108.486C184.045 108.586 183.595 108.636 183.425 108.876C183.095 109.316 183.135 109.736 182.595 110.216C181.685 111.026 179.785 110.836 179.835 112.366C179.745 112.416 178.355 113.486 178.275 113.566C177.115 114.766 177.735 116.626 179.455 116.446C180.155 116.376 180.585 115.676 181.205 115.536C181.915 115.376 183.135 115.456 183.915 115.486C183.955 116.696 184.025 118.406 183.215 119.396C182.635 120.096 180.295 119.656 180.325 121.486C178.605 121.436 176.075 121.116 176.825 123.666C176.885 123.876 177.605 124.576 177.685 124.606C177.225 125.066 176.675 125.876 176.575 126.516C176.475 127.156 176.815 127.576 176.625 128.206C176.395 129.016 175.015 129.556 175.045 130.596C173.915 129.716 172.775 128.866 171.805 127.716C171.035 126.806 167.805 122.046 167.915 121.156C167.955 120.786 168.395 120.466 168.345 119.926C168.195 118.236 164.725 118.516 163.485 118.296C160.465 117.756 158.735 116.966 156.265 115.196C154.765 114.126 153.205 113.256 152.985 111.286C152.445 106.416 152.985 99.166 154.065 94.376C154.455 92.636 155.885 90.996 154.195 89.686C152.915 88.686 151.825 89.346 150.585 90.056C152.315 79.546 146.955 70.046 144.105 60.316C145.005 61.076 145.335 61.486 146.135 62.246C146.375 62.476 146.925 62.456 147.105 62.716C147.305 63.006 147.815 65.576 148.205 66.406C152.225 74.816 162.485 72.536 167.365 66.316C171.125 68.056 175.015 60.906 175.275 58.036V54.796C178.395 55.926 182.405 55.746 185.685 55.726C194.065 54.036 202.395 52.126 210.775 50.476C212.185 52.496 215.245 51.696 216.055 49.516C216.135 49.506 216.215 49.526 216.295 49.516L216.535 49.276C226.815 47.416 237.735 45.496 248.195 45.676L248.185 45.706ZM183.605 72.386C180.475 73.026 180.445 77.726 183.895 78.456C189.265 79.586 189.575 71.156 183.605 72.386ZM164.895 91.096C161.085 91.746 161.055 97.106 165.075 97.516C170.625 98.076 169.995 90.236 164.895 91.096Z" fill="#D7DF75"/>
<path d="M121.786 54.826L119.716 56.226C96.9357 65.516 74.1157 74.966 50.4157 81.906C40.1257 82.596 29.1657 81.996 18.8057 80.696C15.8657 80.326 9.51571 79.586 7.07571 78.276C6.25571 77.836 5.8357 76.786 4.7457 76.656C4.1757 75.736 2.96571 73.836 3.43571 72.826C3.66571 72.326 6.29571 70.446 6.92571 70.086C14.9657 65.386 25.8857 65.746 34.7957 63.656C48.5857 58.036 61.7557 50.996 75.3357 44.956C84.3857 40.936 93.7357 37.566 102.776 33.516C106.246 34.556 109.456 37.726 111.836 40.436C115.636 44.766 118.806 49.916 121.786 54.826Z" fill="#BC48A0"/>
<path d="M179.116 16.686C178.486 16.546 178.656 17.016 178.506 17.386C174.626 26.796 160.466 36.476 151.696 41.436C149.476 42.686 147.136 43.736 144.896 44.946C141.016 47.046 137.336 49.676 133.066 50.986C129.196 44.686 125.166 38.256 120.686 32.306C119.586 30.846 117.966 29.286 116.986 27.846C116.796 27.566 116.626 27.686 116.986 27.376C117.526 26.926 118.506 26.766 119.146 26.416C125.456 22.996 133.056 19.616 138.966 16.016C148.866 9.97603 155.416 2.22603 168.426 3.26603C174.076 3.71603 176.536 5.69603 178.426 11.016C179.236 13.296 179.306 14.376 179.096 16.696L179.116 16.686Z" fill="#BC48A0"/>
<path d="M92.0455 106.866C97.6155 103.826 101.185 103.076 107.385 105.316C111.455 106.776 112.435 109.266 113.085 113.296C114.205 120.276 113.395 127.456 109.745 133.566C108.965 134.866 106.545 137.296 107.275 138.766C107.585 139.386 108.545 139.326 109.085 139.136C110.805 138.546 114.355 131.056 115.205 129.186C116.155 128.996 116.705 128.286 117.535 127.916C119.945 126.846 126.025 126.136 128.545 126.826C129.455 127.076 130.865 127.656 130.145 128.766C129.675 129.486 126.805 131.006 125.875 131.706C124.515 132.726 123.005 133.876 121.765 135.036C120.645 136.076 118.345 137.776 119.355 139.376C120.005 140.396 124.315 140.276 125.695 140.466C127.655 140.746 129.805 141.086 130.705 143.136C132.165 146.466 125.445 147.936 123.145 147.576C121.555 147.326 118.875 144.936 117.745 147.086C117.145 148.226 117.645 149.076 118.315 150.016C120.075 152.486 122.325 153.216 124.175 155.186C126.395 157.536 127.445 159.916 123.075 160.116C119.045 160.296 113.545 155.816 110.085 153.926C105.275 151.296 105.855 152.856 101.265 152.936C100.375 152.956 99.6155 152.656 98.7455 152.676C98.4555 152.436 100.285 151.116 100.535 150.746C101.795 148.836 100.175 147.056 98.5155 148.246C98.1855 148.486 98.0655 148.926 97.7655 149.176C91.0055 154.756 85.7055 154.696 78.6055 149.796C84.8155 149.266 89.1155 145.716 92.3755 140.666C97.0655 133.406 98.8455 126.336 98.0355 117.666C99.9055 118.446 102.045 118.996 103.685 117.436C107.065 114.196 103.145 108.906 99.0655 110.896C98.8455 111.006 97.1355 112.506 97.0755 112.626C95.7355 110.396 93.7055 108.826 92.0355 106.866H92.0455ZM102.785 126.826C99.0355 127.336 98.8255 132.736 102.505 133.236C108.035 133.976 107.265 126.216 102.785 126.826Z" fill="#C1CB49"/>
<path d="M72.6255 148.836C75.0655 151.586 78.5255 153.876 81.9755 155.076C80.3455 157.896 78.3255 160.576 77.2955 163.706C73.5155 175.226 75.1755 184.866 76.6655 196.476C77.8755 205.906 78.4155 210.686 82.8055 219.356C89.4055 232.396 97.5155 244.666 107.866 254.976C110.156 257.256 112.456 259.516 115.066 261.446C109.296 261.736 103.776 260.536 98.2755 258.926C98.5455 257.916 100.336 258.786 100.436 258.686L100.056 257.746C84.5955 244.776 74.3355 227.756 68.0555 208.686C63.9155 196.106 62.5255 182.066 64.8055 168.976L66.1155 168.726L66.3855 166.836L66.6255 166.596C70.4455 166.256 71.9255 161.076 68.5455 158.926C68.5655 158.856 68.5255 158.756 68.5455 158.686C69.6055 155.416 71.3855 152.076 72.6255 148.856V148.836ZM70.4055 200.936C65.1855 201.616 68.7955 211.596 74.3055 209.896C77.2455 208.986 76.6055 202.736 73.8755 201.426C73.3255 201.166 71.0155 200.856 70.3955 200.936H70.4055ZM91.5055 239.786C89.8055 240.166 89.9855 242.926 91.5055 243.286C95.0555 244.126 94.2855 239.176 91.5055 239.786Z" fill="#C1CB49"/>
<path d="M287.276 105.186C287.506 111.776 284.936 118.056 277.746 119.276C276.086 119.556 274.596 118.856 273.126 119.336C267.046 117.236 260.656 114.766 254.656 112.376C254.636 111.136 253.856 110.246 253.956 108.936C254.126 106.516 257.676 101.276 259.876 100.206C262.546 98.9061 263.846 99.1761 266.536 100.146C268.356 100.796 269.516 101.856 271.146 102.496C276.226 104.506 281.856 104.966 287.286 105.186H287.276Z" fill="#8DDD9D"/>
<path d="M126.106 62.016L123.346 61.516C121.176 61.756 119.776 63.456 120.346 65.616C120.366 65.696 120.326 65.786 120.346 65.856C117.356 68.036 113.706 68.946 110.346 70.376C107.606 71.546 104.966 72.876 102.176 73.956C95.5556 76.516 88.6356 78.246 82.0756 80.966C81.8656 81.256 82.1856 83.056 82.4456 83.256C82.7656 83.506 85.4856 84.126 86.3656 84.606C88.6056 85.846 91.5256 88.296 92.4856 90.716C94.2156 95.066 92.1556 98.166 90.1856 101.776C89.8256 102.446 89.7756 103.226 89.2656 103.976C87.9956 105.836 85.4656 105.926 83.4056 106.146C86.0756 102.476 87.2856 97.156 86.4156 92.706C85.6156 88.616 84.2956 86.726 80.2456 85.446C77.7056 84.646 74.7856 85.226 72.1656 85.016L70.7056 81.206C79.6756 78.386 88.3456 74.796 97.0856 71.366C99.2456 70.596 102.156 70.126 103.806 68.486C110.506 65.816 117.196 63.116 123.636 59.896C124.006 59.706 124.266 59.426 124.546 59.136C124.826 59.136 125.876 61.586 126.106 62.006V62.016Z" fill="#C1CB49"/>
<path d="M215.326 89.836C213.966 90.306 212.586 90.936 213.326 92.656C213.576 93.226 214.376 93.216 214.896 93.146C216.416 92.936 218.726 91.936 220.546 91.586C222.856 91.136 225.276 90.836 227.626 90.786C230.006 95.466 234.466 98.416 239.436 99.896C242.996 100.956 249.166 101.576 252.736 100.626C252.826 101.366 252.236 101.746 251.776 102.186C249.826 104.066 245.846 105.506 246.016 108.536C244.596 108.226 243.366 108.366 241.966 107.676C240.566 106.986 239.976 105.866 238.946 104.946C236.916 103.136 234.226 103.986 231.686 103.096C230.056 102.526 229.386 101.076 227.556 101.106C227.586 100.636 227.496 100.206 227.326 99.776C227.146 99.316 224.846 95.956 224.436 95.466C221.866 92.416 221.046 96.416 219.836 98.066C219.376 98.686 218.896 98.956 218.436 99.426C217.896 97.116 217.006 96.376 215.056 95.256C212.656 93.876 205.046 90.576 202.486 90.316C196.466 89.706 194.976 92.686 194.936 98.226C192.696 96.536 191.606 95.016 189.656 93.186C190.386 90.896 190.766 89.276 192.416 87.426C199.226 79.796 207.866 88.196 215.326 89.826V89.836Z" fill="#A7DD8E"/>
<path d="M299.276 102.556C301.976 108.266 305.086 114.666 300.356 120.306C298.796 122.176 296.926 123.776 294.366 123.906C287.676 124.266 279.416 121.506 273.136 119.336C274.606 118.856 276.096 119.566 277.756 119.276C284.946 118.046 287.516 111.766 287.286 105.186C287.256 104.336 287.126 103.766 287.046 103.026C288.756 102.876 291.006 102.376 292.686 102.546C293.886 102.666 296.466 103.946 297.376 103.166C298.186 102.466 297.406 102.106 299.276 102.546V102.556Z" fill="#7CCA63"/>
<path d="M215.806 128.696C219.956 128.916 224.196 128.296 228.276 129.296C226.136 130.996 224.366 133.116 222.326 134.916C216.106 140.416 201.246 153.446 193.106 153.616C190.406 153.676 189.726 152.726 187.736 151.486C190.016 149.416 192.166 147.186 194.446 145.126C198.866 141.136 203.596 137.636 208.386 134.116C210.846 132.306 213.456 130.686 215.796 128.696H215.806Z" fill="#3A3A3A"/>
<path d="M141.205 97.526C141.565 98.996 144.175 106.126 143.575 107.076L116.515 119.586C116.555 115.616 116.225 111.576 114.835 107.836L132.045 100.456L141.205 97.526Z" fill="#CDC44D"/>
<path d="M279.366 56.986C280.096 59.646 283.746 60.716 285.366 58.186C293.766 61.626 295.866 72.946 293.836 80.926C293.496 82.266 292.936 83.496 292.556 84.806C292.336 84.986 288.916 81.146 288.616 80.716C287.756 79.506 287.396 77.356 285.606 77.376V76.656C288.676 76.076 288.896 69.866 285.126 69.936C284.826 68.726 282.756 63.806 281.766 63.346C280.626 62.826 279.626 63.856 279.856 65.006C280.756 66.676 281.406 68.446 282.136 70.196C282.276 70.546 282.186 70.996 282.256 71.146C280.996 71.966 281.056 74.386 281.776 75.466L279.856 75.946C279.656 75.366 278.926 74.306 278.656 73.546C278.556 73.276 278.566 72.846 278.426 72.466C276.606 67.426 274.136 62.546 273.136 57.236C273.876 58.666 274.406 59.906 276.276 58.756L276.496 56.756C277.456 56.806 278.426 56.896 279.376 56.996L279.366 56.986Z" fill="#C1CB49"/>
<path d="M121.786 54.826C122.136 55.406 123.166 56.016 122.986 56.986C122.046 57.106 121.036 57.516 120.186 57.906C105.006 64.936 89.5059 71.536 73.7059 77.136C68.3559 79.036 56.0059 83.876 50.9159 83.866C38.8159 83.836 25.2559 83.446 13.3359 81.136C9.74586 80.446 6.80586 79.936 4.75586 76.646C5.85586 76.786 6.27586 77.826 7.08586 78.266C9.52586 79.576 15.8759 80.316 18.8159 80.686C29.1659 81.986 40.1359 82.586 50.4259 81.896C74.1259 74.956 96.9459 65.506 119.726 56.216L121.796 54.816L121.786 54.826Z" fill="#DE61C4"/>
<path d="M193.986 127.256L177.676 143.806C177.026 143.156 176.306 142.536 175.676 141.856C175.216 141.366 174.506 140.056 173.956 139.956C173.226 139.816 170.566 141.226 169.526 141.526C164.776 142.886 162.536 142.876 158.496 140.206L170.246 130.616C171.136 131.566 173.786 134.026 174.876 134.496C180.306 136.856 182.396 131.126 182.236 126.776C186.136 126.986 190.076 127.146 193.986 127.256Z" fill="#3A3A3A"/>
<path d="M252.256 114.546C252.286 114.946 251.736 114.766 251.406 115.006C250.546 115.636 249.816 118.676 249.356 119.786C237.846 118.516 227.596 112.676 216.696 109.206L216.286 108.536C220.536 108.156 224.096 105.976 227.866 104.246C229.736 105.726 231.616 106.256 233.946 106.586C234.696 106.696 235.606 106.476 236.266 106.666C236.746 106.806 238.136 108.536 238.716 109.006C241.816 111.526 243.516 110.696 246.736 111.776C248.576 112.396 250.246 114.196 252.256 114.526V114.546Z" fill="#C8B548"/>
<path d="M218.446 99.436C217.126 100.806 216.146 101.806 214.376 102.686C212.126 103.806 209.376 103.776 207.646 105.436C204.016 104.376 198.016 100.566 194.936 98.236C194.986 92.696 196.466 89.716 202.486 90.326C205.046 90.586 212.646 93.886 215.056 95.266C217.016 96.386 217.906 97.126 218.436 99.436H218.446Z" fill="#99DD96"/>
<path d="M225.876 79.766C225.646 81.696 225.656 83.336 225.876 85.286C222.196 85.556 218.446 86.606 214.786 85.946C210.216 85.126 206.656 81.746 202.266 80.486C194.966 78.386 187.726 83.706 186.786 91.046C186.006 90.866 184.316 90.856 183.426 90.806C184.316 81.156 193.756 73.546 203.436 76.186C208.226 77.496 211.966 82.036 217.356 81.686C220.306 81.496 222.876 79.626 225.876 79.776V79.766Z" fill="#C9DF7D"/>
<path d="M212.686 128.456C212.286 129.386 210.876 130.336 210.026 130.956C205.786 134.056 201.366 136.966 197.226 140.216L186.306 150.286C183.996 149.206 183.606 148.776 181.746 147.166L192.896 136.606L200.936 127.506C204.756 127.316 208.516 127.946 212.306 128.246C212.496 128.266 212.646 128.466 212.686 128.466V128.456Z" fill="#989898"/>
<path d="M28.2457 85.766C27.9157 86.596 27.5857 87.256 27.3957 88.146C27.2857 88.636 27.0757 90.016 27.0757 90.466C27.0757 91.296 27.8357 93.096 27.7357 93.506C27.6457 93.846 26.6157 94.636 26.2857 95.186C23.9457 99.066 22.0157 107.266 20.8557 111.826C20.8057 112.006 20.9357 112.616 20.4657 112.386C19.9057 112.106 17.8857 107.446 17.6357 106.576C15.8057 100.116 15.8657 91.206 18.5857 85.026L28.2557 85.756L28.2457 85.766ZM22.4357 91.556C20.2757 92.006 19.5357 97.046 22.7457 96.206C25.6357 95.446 25.1257 91.006 22.4357 91.556Z" fill="#D7DF75"/>
<path d="M74.7758 87.926C74.3058 90.256 76.5158 89.856 77.2958 90.566C77.7958 91.026 77.9958 92.576 78.3758 93.206C73.2058 90.456 68.3158 99.446 73.0958 103.166C74.3658 104.156 75.6458 104.266 77.1758 103.756C76.4558 105.626 74.7058 106.666 73.2658 107.876C72.9458 108.146 72.6058 108.256 72.6258 108.796C70.8358 108.846 66.7558 107.726 65.3158 106.636C61.6558 103.876 63.0758 98.666 64.4758 94.996C66.2558 90.326 69.8658 88.216 74.7958 87.926H74.7758Z" fill="#AC3332"/>
<path d="M163.766 46.426C163.796 49.266 165.346 51.906 164.966 54.816C164.316 53.646 161.736 51.916 160.346 51.996C158.336 52.106 155.766 54.616 155.296 56.536C154.376 60.306 157.206 65.856 161.606 64.166C162.056 64.246 161.476 64.866 161.366 65.006C160.556 66.016 159.906 67.156 159.216 68.246C152.956 70.466 149.736 65.136 150.096 59.486C150.536 52.526 155.896 44.206 163.776 46.426H163.766Z" fill="#AC3332"/>
<path d="M179.115 16.686C178.675 21.706 175.795 25.666 172.405 29.286C166.915 35.136 160.995 39.486 154.245 43.746C147.925 47.736 141.675 51.356 134.405 53.396C134.145 53.376 133.265 51.306 133.065 50.986C137.335 49.676 141.015 47.046 144.895 44.946C147.135 43.736 149.475 42.686 151.695 41.436C160.465 36.486 174.635 26.796 178.505 17.386C178.655 17.016 178.475 16.546 179.115 16.686Z" fill="#DE61C4"/>
<path d="M225.876 85.286C225.916 85.666 226.546 87.736 226.356 87.926C222.956 88.456 218.556 88.736 215.326 89.846C207.866 88.216 199.226 79.816 192.416 87.446C190.766 89.296 190.396 90.916 189.656 93.206C188.956 92.546 187.656 91.256 186.776 91.046C187.716 83.706 194.946 78.376 202.256 80.486C206.656 81.756 210.216 85.126 214.776 85.946C218.436 86.606 222.186 85.566 225.866 85.286H225.876Z" fill="#BBDE84"/>
<path d="M261.856 95.836C263.386 96.476 265.246 96.046 266.726 96.606C268.056 97.116 268.316 98.306 269.366 99.006C269.956 99.396 271.016 99.776 271.706 100.026C276.306 101.716 281.936 102.836 286.806 102.316C286.816 102.396 287.006 102.666 287.046 103.036C287.126 103.776 287.256 104.346 287.286 105.196C281.866 104.966 276.236 104.506 271.146 102.506C269.516 101.866 268.356 100.816 266.536 100.156C263.846 99.186 262.546 98.916 259.876 100.216C257.676 101.286 254.126 106.526 253.956 108.946C253.866 110.266 254.636 111.146 254.656 112.386C251.736 111.226 248.906 109.166 246.026 108.546C245.856 105.506 249.836 104.076 251.786 102.196C252.246 101.756 252.836 101.366 252.746 100.636C255.016 100.036 260.016 97.326 261.856 95.836Z" fill="#99DD96"/>
<path d="M281.765 75.446C282.475 76.506 284.415 76.866 285.605 76.646V77.366C283.265 77.386 284.705 80.056 285.325 81.126C286.855 83.756 289.195 85.556 290.985 87.946C292.925 90.546 294.805 93.946 296.405 96.796C294.735 96.086 293.485 98.086 292.685 98.226C290.845 98.566 288.405 98.196 286.575 98.946C285.275 92.286 282.285 84.136 280.095 77.596C279.965 77.206 280.015 76.376 279.855 75.916L281.775 75.436L281.765 75.446Z" fill="#ADCA61"/>
<path d="M144.096 60.336C146.936 70.066 152.296 79.566 150.576 90.076C150.206 90.286 149.926 90.876 149.376 90.796C146.026 78.846 142.036 66.986 135.936 56.146C135.856 55.646 136.136 55.736 136.496 55.826C139.046 56.526 142.096 58.656 144.096 60.336Z" fill="#C1CB49"/>
<path d="M169.756 111.906C167.806 112.156 162.826 112.386 163.566 109.196C166.576 104.396 171.256 100.316 173.296 94.936C174.216 92.496 174.956 88.946 175.266 86.356C175.426 85.046 174.736 82.036 176.646 81.726C177.726 81.546 177.606 82.376 177.676 82.406C175.456 83.096 177.306 86.106 177.606 87.626C178.186 90.516 177.676 95.156 176.836 97.996C175.486 102.576 172.066 106.126 169.216 109.806C168.756 110.636 169.296 111.256 169.756 111.906Z" fill="#C1CB49"/>
<path d="M61.5854 94.156C61.1754 95.246 60.7554 96.586 60.6254 97.756C55.9154 96.276 50.8954 95.136 46.3154 93.246C45.5554 92.926 42.1254 91.386 41.7554 90.976C41.1654 90.316 40.7254 88.186 40.9954 87.366L41.3554 87.006L52.7854 86.726C53.6454 88.026 55.2154 88.636 56.3254 89.716C56.9254 90.306 58.2654 92.516 58.5754 92.746C59.2154 93.206 59.9654 92.806 60.3954 92.966C60.5854 93.036 60.9554 94.336 61.5954 94.166L61.5854 94.156Z" fill="#917D8B"/>
<path d="M169.036 129.416L157.286 139.246C154.486 137.216 154.446 137.546 152.726 134.446C154.206 133.466 154.986 131.846 156.196 130.606L164.956 122.696C166.156 124.676 167.656 127.706 169.036 129.416Z" fill="#989898"/>
<path d="M163.525 121.496L151.775 132.766C150.825 130.376 150.435 126.636 150.325 124.026C150.205 121.086 150.505 118.156 150.935 115.256C151.245 114.846 151.285 115.176 151.535 115.376C156.225 119.106 157.505 120.116 163.525 121.496Z" fill="#3A3A3A"/>
<path d="M37.8458 86.956C37.7458 88.886 38.0758 91.436 39.4158 92.936C40.7558 94.436 43.2258 94.776 44.7658 95.946C43.4058 99.616 38.9358 98.526 36.0358 97.516C31.1558 95.826 28.4658 90.926 31.4158 86.286L37.8458 86.956Z" fill="#AC3332"/>
<path d="M290.876 126.536C290.936 126.886 290.476 126.846 290.216 126.946C285.326 128.886 278.916 126.296 273.896 125.396C268.516 124.436 263.056 123.506 257.656 122.686C257.336 122.636 257.226 122.846 257.296 122.336L259.976 117.696L260.286 117.636C263.676 118.596 266.796 120.296 270.126 121.496C276.706 123.866 283.866 126.116 290.876 126.526V126.536Z" fill="#C8B548"/>
<path d="M117.675 33.256L125.625 44.746C123.305 44.386 121.205 44.536 118.915 44.886C115.775 40.466 112.435 36.216 108.125 32.876C110.035 32.126 112.185 32.046 114.165 32.586C115.405 32.926 116.295 33.876 117.675 33.256Z" fill="#7D4D2F"/>
<path d="M227.556 101.116C226.136 101.146 226.276 101.626 225.326 102.126C219.726 105.036 214.046 107.316 207.646 105.436C209.376 103.776 212.126 103.816 214.376 102.686C216.136 101.806 217.126 100.806 218.446 99.4361C218.906 98.9661 219.386 98.6961 219.846 98.0761C221.056 96.4361 221.876 92.436 224.446 95.476C224.856 95.966 227.156 99.3261 227.336 99.7861C227.506 100.216 227.596 100.646 227.566 101.116H227.556Z" fill="#94CA5A"/>
<path d="M135.696 62.256C133.556 61.606 131.486 61.236 129.246 61.766L121.166 48.126C120.846 47.136 122.436 47.356 123.106 47.396C125.086 47.526 126.736 48.396 128.516 49.176C130.866 53.566 133.786 57.636 135.696 62.256Z" fill="#7D4D2F"/>
<path d="M72.6257 108.786C72.6057 108.256 72.9457 108.146 73.2657 107.866C74.7057 106.656 76.4557 105.616 77.1757 103.746C81.1857 102.416 82.2657 95.266 78.3757 93.196C77.9957 92.566 77.7957 91.016 77.2957 90.556C76.5157 89.846 74.3057 90.256 74.7757 87.916C77.2657 87.766 80.4957 88.136 82.2157 90.186C83.1557 91.306 83.7257 95.176 83.6457 96.666C83.3457 102.456 78.7257 108.616 72.6157 108.776L72.6257 108.786Z" fill="#851717"/>
<path d="M114.355 29.636C112.925 29.376 111.405 29.276 109.945 29.426C108.605 29.566 105.645 30.856 104.875 30.816C104.105 30.776 102.055 28.996 100.285 28.936C99.1454 28.896 98.5354 29.716 97.5654 29.516C98.0654 27.936 98.1054 26.776 99.3654 25.566C104.155 20.996 111.225 25.256 114.355 29.636Z" fill="#7D4D2F"/>
<path d="M41.2055 101.596C43.9855 101.536 45.5855 100.406 47.2055 98.236C51.5955 98.966 52.2255 103.546 48.8855 106.276C44.9055 109.536 39.6455 106.836 41.2055 101.596Z" fill="#C8B867"/>
<path d="M215.806 128.696C213.456 130.676 210.856 132.306 208.396 134.116C203.606 137.636 198.886 141.136 194.456 145.126C192.176 147.186 190.016 149.416 187.746 151.486C187.076 151.066 186.396 150.326 186.306 150.286L197.226 140.216C201.376 136.966 205.786 134.056 210.026 130.956C210.876 130.336 212.286 129.396 212.686 128.456C213.516 128.526 214.386 128.396 215.226 128.456C215.536 128.476 215.776 128.706 215.806 128.706V128.696Z" fill="#1E1E1E"/>
<path d="M143.546 85.596C144.036 85.976 144.216 86.736 145.306 86.886L149.136 100.626L144.996 99.186L139.556 84.906C139.486 84.496 139.546 84.546 139.906 84.546C140.676 84.546 142.946 85.126 143.546 85.586V85.596Z" fill="#522715"/>
<path d="M199.015 127.256C198.955 127.646 198.745 127.996 198.495 128.296C196.645 130.496 194.375 133.076 192.395 135.146C188.755 138.946 184.425 142.356 180.785 146.206C180.705 146.156 180.145 146.266 179.695 145.986C179.245 145.706 179.175 145.066 179.105 145.006C180.095 142.846 182.415 141.566 184.025 139.966C186.135 137.876 188.055 135.476 190.135 133.366C191.695 131.786 194.155 129.926 195.425 128.346C195.715 127.986 195.985 127.806 195.895 127.256C196.925 127.296 197.975 127.226 199.015 127.256Z" fill="#989898"/>
<path d="M159.206 68.256C159.906 67.166 160.546 66.026 161.356 65.016C161.466 64.876 162.056 64.266 161.596 64.176C164.776 62.956 166.576 57.706 164.956 54.826C165.336 51.906 163.786 49.276 163.756 46.436C167.796 47.576 169.186 49.486 168.786 53.746C168.226 59.766 165.166 66.136 159.196 68.256H159.206Z" fill="#851717"/>
<path d="M60.3859 92.956C62.5959 90.296 58.0759 87.816 56.5459 86.006L67.7959 82.426L69.2359 85.846C65.3159 87.856 63.1459 90.016 61.5759 94.156C60.9359 94.326 60.5659 93.026 60.3759 92.956H60.3859Z" fill="#7D4D2F"/>
<path d="M138.096 67.536C137.406 67.396 137.596 67.926 137.606 68.376C137.656 70.036 138.306 71.976 138.546 73.686C138.916 76.346 139.036 79.046 139.536 81.686C139.186 81.656 138.556 81.856 138.316 81.536C136.816 78.016 135.366 74.466 133.826 70.966C133.016 69.116 131.446 66.536 130.916 64.766C130.786 64.316 130.986 64.456 131.266 64.416C133.476 64.116 135.576 65.706 137.626 66.216C138.006 66.486 137.936 67.166 138.106 67.536H138.096Z" fill="#7D4D2F"/>
<path d="M257.055 116.226C257.395 116.606 253.575 122.756 253.085 123.646C251.655 126.276 250.395 129.046 248.855 131.646L239.315 145.966C242.105 139.966 245.625 134.366 248.465 128.386C249.425 126.376 253.495 117.856 253.615 116.316C253.645 115.986 253.415 115.626 253.455 115.276L257.055 116.236V116.226Z" fill="#7D4D2F"/>
<path d="M296.396 96.796C297.476 98.726 298.356 100.606 299.276 102.556C297.406 102.116 298.186 102.476 297.376 103.176C296.466 103.956 293.876 102.676 292.686 102.556C291.006 102.386 288.756 102.886 287.046 103.036C287.006 102.666 286.816 102.396 286.806 102.316C286.706 101.476 286.726 100.556 286.566 99.676C286.526 99.456 286.606 99.176 286.566 98.956C288.406 98.206 290.836 98.566 292.676 98.236C293.476 98.086 294.726 96.086 296.396 96.806V96.796ZM297.356 102.306C297.256 101.826 296.866 101.896 296.516 101.836C295.456 101.636 294.316 101.456 293.286 101.836L297.366 102.306H297.356Z" fill="#94CA5A"/>
<path d="M175.276 54.826V58.066C175.016 60.936 171.126 68.086 167.366 66.346C168.096 65.416 169.786 62.346 170.246 61.196C171.206 58.826 171.716 55.676 171.926 53.156C172.186 52.856 174.776 54.646 175.286 54.836L175.276 54.826Z" fill="#C1CB49"/>
<path d="M244.586 166.106L235.506 157.066L238.246 152.916C238.846 152.766 241.086 156.466 241.446 157.146C242.326 158.786 243.566 161.596 244.116 163.346C244.406 164.286 244.756 165.076 244.586 166.106Z" fill="#34694A"/>
<path d="M195.896 127.256C195.986 127.806 195.716 127.986 195.426 128.346C194.146 129.926 191.696 131.786 190.136 133.366C188.056 135.486 186.136 137.876 184.026 139.966C182.416 141.556 180.096 142.836 179.106 145.006C178.556 144.526 178.286 144.436 177.666 143.806L193.976 127.256C194.616 127.276 195.256 127.236 195.896 127.256Z" fill="#1E1E1E"/>
<path d="M200.936 127.496L192.896 136.596L181.746 147.156C181.386 146.846 180.846 146.236 180.786 146.196C184.426 142.356 188.756 138.936 192.396 135.136C194.376 133.066 196.656 130.486 198.496 128.286C198.746 127.986 198.946 127.636 199.016 127.246L200.936 127.486V127.496Z" fill="#1E1E1E"/>
<path d="M138.096 67.536C140.046 71.696 142.916 77.5461 143.616 82.0461C143.696 82.5661 143.666 82.366 143.376 82.286C141.946 81.906 140.976 81.806 139.536 81.676C139.026 79.036 138.916 76.336 138.546 73.676C138.306 71.966 137.656 70.0261 137.606 68.3661C137.596 67.9161 137.406 67.3861 138.096 67.5261V67.536Z" fill="#522715"/>
<path d="M183.905 115.506C185.445 115.566 186.425 115.626 187.725 116.606C189.315 117.796 189.745 120.196 188.905 121.956C188.275 122.366 184.335 121.556 183.305 121.506C182.425 121.466 181.315 121.536 180.305 121.506C180.275 119.676 182.615 120.126 183.195 119.416C184.015 118.426 183.935 116.716 183.895 115.506H183.905Z" fill="#C1CB49"/>
<path d="M233.285 150.076L231.515 154.116C229.265 152.096 225.945 151.186 223.495 149.656C222.915 149.296 222.125 148.956 222.275 148.116C226.105 147.396 229.925 148.176 233.275 150.066L233.285 150.076Z" fill="#34694A"/>
<path d="M163.526 121.496C163.776 121.556 164.216 121.376 164.436 121.536C164.616 121.926 164.736 122.326 164.966 122.696L156.206 130.606C154.996 131.846 154.216 133.466 152.736 134.446C152.396 133.836 152.136 133.676 151.776 132.766L163.526 121.496Z" fill="#1E1E1E"/>
<path d="M149.846 50.026C148.636 52.776 147.436 55.606 147.206 58.656C145.106 57.246 143.146 55.486 140.736 54.576C140.626 53.956 140.826 54.206 141.076 54.076C142.516 53.346 144.356 52.876 145.856 52.146C146.386 51.886 149.636 49.816 149.846 50.026Z" fill="#917D8B"/>
<path d="M179.825 112.386C179.775 110.856 181.675 111.036 182.585 110.236C183.125 109.756 183.085 109.336 183.415 108.896C183.595 108.656 184.035 108.606 184.095 108.506C184.495 107.846 183.205 106.436 183.175 105.666C183.285 105.656 183.545 105.436 183.985 105.406C186.865 105.246 188.755 105.796 189.875 108.636C189.695 109.386 185.325 110.306 184.425 110.636C183.245 111.066 180.795 111.856 179.815 112.376L179.825 112.386Z" fill="#C1CB49"/>
<path d="M27.2955 174.026C26.4955 171.746 25.6255 169.366 24.8955 167.066C30.3155 163.596 33.1255 173.256 27.2955 174.026Z" fill="#C8B867"/>
<path d="M254.896 46.1861C255.866 52.9061 246.476 51.4961 248.176 45.7061C250.556 45.7461 252.536 45.8861 254.896 46.1861Z" fill="#C8B867"/>
<path d="M170.236 130.616L158.486 140.206C158.006 139.886 157.666 139.526 157.286 139.246L169.036 129.416C169.266 129.696 169.886 130.246 170.236 130.616Z" fill="#1E1E1E"/>
<path d="M126.586 62.736C127.006 63.526 127.386 64.336 127.786 65.136C127.366 65.866 127.346 66.636 126.716 67.306C124.996 69.146 121.166 68.036 120.346 65.856C120.326 65.786 120.366 65.696 120.346 65.616C122.176 64.426 124.496 63.486 126.586 62.736Z" fill="#C8B867"/>
<path d="M144.815 109.746C145.025 109.066 146.045 108.726 146.355 108.296C147.465 106.766 145.835 104.256 146.135 102.556C146.865 103.256 148.925 103.516 149.485 104.246C149.975 104.886 150.075 108.106 149.615 108.666C148.385 110.176 146.535 110.006 144.825 109.746H144.815Z" fill="#522715"/>
<path d="M175.036 130.616C175.016 129.566 176.386 129.026 176.616 128.226C176.796 127.596 176.466 127.176 176.566 126.536C176.666 125.896 177.216 125.086 177.676 124.626C177.946 124.716 178.546 124.496 178.886 124.726C179.506 125.166 179.716 133.916 175.766 131.446C175.396 131.216 175.236 130.766 175.036 130.616Z" fill="#C1CB49"/>
<path d="M249.136 137.086C249.136 137.086 249.166 137.506 249.386 137.666C249.716 137.916 250.126 138.006 250.466 138.276C252.656 140.006 254.626 142.066 256.816 143.796C254.926 143.206 248.796 141.016 247.686 139.606C247.136 138.906 248.636 138.026 248.646 137.226L249.136 137.076V137.086Z" fill="#34694A"/>
<path d="M187.745 96.076L180.315 96.796L180.555 93.436L185.895 93.966C186.225 94.146 188.035 95.806 187.745 96.076Z" fill="#C1CB49"/>
<path d="M126.105 62.016C126.215 62.226 126.425 62.436 126.585 62.736C124.495 63.476 122.175 64.426 120.345 65.616C119.775 63.466 121.165 61.756 123.345 61.516L126.105 62.016Z" fill="#B2A740"/>
<path d="M133.306 96.796C134.986 94.796 137.646 93.616 138.586 91.036C138.806 91.656 140.236 94.206 139.926 94.646C137.766 95.476 135.476 95.996 133.306 96.796Z" fill="#C1CB49"/>
<path d="M216.046 49.546C215.236 51.726 212.186 52.526 210.766 50.506C212.526 50.156 214.276 49.866 216.046 49.546Z" fill="#C8B867"/>
<path d="M284.876 57.946C283.496 59.826 281.006 59.096 280.076 57.226C281.766 57.426 283.166 57.396 284.876 57.946Z" fill="#C8B867"/>
<path d="M280.086 57.226C281.016 59.096 283.506 59.826 284.886 57.946C285.106 58.016 285.226 58.126 285.366 58.186C283.756 60.716 280.096 59.646 279.366 56.986C279.646 57.016 279.916 57.206 280.086 57.226Z" fill="#B2A740"/>
<path d="M97.0854 71.376C99.1554 70.116 101.555 69.396 103.805 68.496C102.155 70.136 99.2554 70.606 97.0854 71.376Z" fill="#D7DF75"/>
<path d="M216.286 49.546C216.286 49.546 216.336 49.346 216.526 49.306L216.286 49.546Z" fill="#C8B867"/>
<path d="M79.9957 116.046C82.8657 115.696 85.3857 118.016 85.9857 120.716C86.2657 121.986 86.1857 125.696 85.7557 126.846C85.3257 127.996 83.9957 129.366 82.7557 129.596C78.0857 130.456 75.3257 125.776 75.4957 121.616C75.6257 118.486 76.6557 116.436 79.9957 116.036V116.046Z" fill="#C8B867"/>
<path d="M28.3358 126.616C31.9658 123.396 38.0458 127.376 35.3158 131.796C32.1658 136.906 23.5958 130.826 28.3358 126.616Z" fill="#C8B867"/>
<path d="M37.9257 162.666C33.6157 158.176 40.5657 152.906 44.0757 157.596C47.5857 162.286 41.7757 166.676 37.9257 162.666Z" fill="#C8B867"/>
<path d="M68.5458 158.676C68.5258 158.746 68.5658 158.846 68.5458 158.916C67.7558 161.426 67.2158 164.026 66.6258 166.586L66.3858 166.826C62.5058 166.576 60.9258 163.786 61.6958 160.096C62.3358 157.046 66.6358 156.176 68.5458 158.666V158.676Z" fill="#C8B867"/>
<path d="M98.0458 117.666C98.0258 117.426 98.0758 117.176 98.0458 116.946C97.9058 115.786 97.8358 114.296 97.0858 113.346C97.1358 113.146 97.0258 112.766 97.0858 112.626C97.1358 112.506 98.8558 111.006 99.0758 110.896C103.146 108.906 107.076 114.196 103.696 117.436C102.066 118.996 99.9258 118.446 98.0458 117.666Z" fill="#B2A740"/>
<path d="M83.3558 138.826C85.4558 138.566 88.0758 138.936 88.2158 141.536C88.4458 145.626 79.8558 146.916 79.5658 141.996C79.4358 139.836 81.5458 139.056 83.3558 138.826Z" fill="#C8B867"/>
<path d="M56.7257 113.886C62.3357 112.846 62.6957 121.336 58.0357 121.696C56.5957 121.806 54.6357 120.676 54.4057 119.216C54.1057 117.306 54.4057 114.316 56.7257 113.886Z" fill="#C8B867"/>
<path d="M55.7657 203.576C60.0757 202.586 60.2957 208.496 56.8557 208.996C53.0557 209.546 53.0757 204.196 55.7657 203.576Z" fill="#C8B867"/>
<path d="M73.5157 229.476C78.1657 228.416 78.1557 234.806 74.6757 234.716C71.6757 234.636 70.8157 230.096 73.5157 229.476Z" fill="#C8B867"/>
<path d="M98.0459 116.946C96.4759 116.406 96.8058 114.536 97.0858 113.346C97.8358 114.286 97.9059 115.786 98.0459 116.946Z" fill="#C8B867"/>
<path d="M225.875 79.766C225.965 79.016 226.315 78.736 225.775 78.076C224.215 76.166 219.505 74.986 217.125 75.216C215.805 75.346 212.265 77.396 211.775 75.766C211.245 73.996 212.785 73.456 214.175 72.986C218.685 71.486 223.435 72.766 227.195 75.446L229.925 70.356C227.995 67.556 224.975 64.766 221.875 63.266C221.205 62.936 219.755 62.716 219.405 62.386C218.565 61.586 219.205 60.066 220.255 59.866C222.305 59.496 227.315 63.236 228.885 64.656C229.475 65.196 230.545 66.706 230.905 66.946C231.075 67.066 231.155 67.106 231.375 67.046C231.415 66.766 231.525 66.536 231.775 66.366C233.275 65.356 236.225 64.276 238.025 63.256C242.095 60.966 247.155 57.846 250.575 54.706C251.615 53.746 252.815 51.366 254.415 52.306C255.625 53.016 254.415 54.616 253.815 55.306C251.185 58.336 246.495 60.456 243.375 62.976C247.505 62.466 251.455 62.556 255.365 64.066C260.375 65.996 265.965 71.036 267.845 76.176C268.105 76.896 268.455 78.726 268.565 79.536C269.105 83.486 268.905 86.376 266.885 89.846C266.335 90.796 264.765 92.846 264.005 93.686C263.595 94.146 262.275 95.506 261.845 95.846C260.005 97.336 254.995 100.036 252.735 100.646C249.175 101.596 242.995 100.966 239.435 99.916C234.465 98.446 230.005 95.486 227.625 90.806C225.275 90.856 222.855 91.156 220.545 91.606C218.725 91.956 216.415 92.956 214.895 93.166C214.375 93.236 213.565 93.246 213.325 92.676C212.575 90.946 213.965 90.316 215.325 89.856C218.555 88.746 222.965 88.466 226.355 87.936C226.545 87.756 225.915 85.676 225.875 85.296C225.655 83.356 225.645 81.706 225.875 79.776V79.766ZM244.105 97.516C250.315 98.196 253.285 97.876 258.495 94.156C259.645 93.336 259.935 92.966 260.895 91.996C263.835 88.996 265.915 86.506 265.685 82.046C265.505 78.526 264.525 76.076 262.425 73.306C260.025 70.146 257.465 68.136 253.695 66.806C254.035 67.516 254.095 68.576 254.415 69.206C254.735 71.176 254.145 77.806 251.235 77.556C248.325 77.306 250.445 73.726 250.585 72.216C250.705 70.846 250.305 67.536 249.815 66.256C249.325 64.976 243.855 65.926 242.655 66.206C237.745 67.346 233.885 69.686 231.345 74.086C224.735 85.576 231.525 96.136 244.095 97.516H244.105Z" fill="#020201"/>
<path d="M278.646 73.536C278.916 74.296 279.646 75.356 279.846 75.936C280.006 76.396 279.956 77.226 280.086 77.616C279.016 78.196 277.906 78.646 276.886 79.336C275.236 80.456 270.866 84.016 269.956 85.596C269.196 86.936 268.866 90.916 266.886 89.846C268.906 86.366 269.106 83.486 268.566 79.536C271.236 81.576 275.196 78.876 274.086 75.696L278.646 73.536Z" fill="#C9DF7D"/>
<path d="M164.896 91.096C170.006 90.226 170.626 98.076 165.076 97.516C161.056 97.106 161.086 91.746 164.896 91.096Z" fill="#C8B867"/>
<path d="M183.605 72.386C189.575 71.156 189.265 79.596 183.895 78.456C180.435 77.726 180.475 73.026 183.605 72.386Z" fill="#C8B867"/>
<path d="M274.086 75.686C275.196 78.856 271.246 81.566 268.566 79.526C268.456 78.716 268.106 76.886 267.846 76.166C268.416 75.586 268.476 74.786 269.156 74.246C270.866 72.876 273.376 73.676 274.076 75.686H274.086Z" fill="#C8B867"/>
<path d="M102.296 85.576C107.796 84.336 106.926 92.026 102.956 92.246C98.9857 92.466 99.6557 86.166 102.296 85.576Z" fill="#C8B867"/>
<path d="M102.786 126.826C107.256 126.216 108.036 133.976 102.506 133.236C98.8257 132.736 99.0357 127.346 102.786 126.826Z" fill="#B2A740"/>
<path d="M70.4058 200.936C71.0158 200.856 73.3358 201.156 73.8858 201.426C76.6158 202.746 77.2558 208.996 74.3158 209.896C68.7958 211.596 65.1858 201.616 70.4158 200.936H70.4058Z" fill="#B2A740"/>
<path d="M66.6255 166.586C67.2155 164.026 67.7555 161.416 68.5455 158.916C71.9255 161.076 70.4455 166.246 66.6255 166.586Z" fill="#B2A740"/>
<path d="M91.5056 239.786C94.2856 239.166 95.0556 244.116 91.5056 243.286C89.9956 242.926 89.8056 240.166 91.5056 239.786Z" fill="#B2A740"/>
<path d="M285.596 76.646C284.406 76.866 282.466 76.506 281.756 75.446C281.046 74.386 280.976 71.956 282.236 71.126C283.176 73.356 285.906 73.106 285.116 69.926C288.886 69.846 288.666 76.056 285.596 76.646Z" fill="#B2A740"/>
<path d="M285.115 69.936C285.905 73.116 283.175 73.366 282.235 71.136C282.175 70.986 282.265 70.536 282.115 70.186C281.395 68.436 280.735 66.676 279.835 64.996C279.605 63.846 280.605 62.816 281.745 63.336C282.745 63.796 284.805 68.716 285.105 69.926L285.115 69.936Z" fill="#020201"/>
<path d="M22.4357 91.556C25.1257 90.996 25.6357 95.446 22.7457 96.206C19.5357 97.046 20.2757 92.006 22.4357 91.556Z" fill="#C8B867"/>
<path d="M78.3755 93.196C82.2655 95.266 81.1855 102.426 77.1755 103.746C75.6455 104.256 74.3655 104.136 73.0955 103.156C68.3155 99.436 73.2055 90.446 78.3755 93.196ZM75.9155 95.876C74.1455 96.136 73.2655 100.826 75.4155 101.056C77.0855 101.226 78.5955 97.836 77.5355 96.566C77.2655 96.246 76.3555 95.806 75.9155 95.876Z" fill="#020201"/>
<path d="M164.956 54.826C166.576 57.706 164.776 62.956 161.596 64.176C157.196 65.866 154.366 60.316 155.286 56.546C155.756 54.626 158.326 52.116 160.336 52.006C161.726 51.926 164.296 53.656 164.956 54.826ZM159.036 60.986C161.226 62.786 163.786 57.616 161.966 56.016C158.956 53.376 156.606 58.996 159.036 60.986Z" fill="#020201"/>
<path d="M286.556 99.676C286.716 100.556 286.696 101.476 286.796 102.316C281.926 102.846 276.296 101.716 271.696 100.026C271.006 99.776 269.946 99.396 269.356 99.006C268.306 98.306 268.046 97.116 266.716 96.606C265.246 96.046 263.376 96.476 261.846 95.836C262.266 95.496 263.596 94.136 264.006 93.676C264.936 94.266 266.086 94.296 267.096 94.776C268.216 95.316 269.276 96.456 270.386 97.006C272.496 98.046 280.946 99.416 283.576 99.646C284.566 99.726 285.556 99.646 286.546 99.676H286.556Z" fill="#A7DD8E"/>
<path d="M286.556 98.956C286.596 99.176 286.516 99.456 286.556 99.676C285.566 99.656 284.576 99.726 283.586 99.646C280.956 99.416 272.496 98.056 270.396 97.006C269.286 96.456 268.226 95.316 267.106 94.776C266.086 94.286 264.946 94.256 264.016 93.676C264.766 92.836 266.336 90.796 266.896 89.836C268.876 90.906 269.206 86.926 269.966 85.586C270.866 83.996 275.246 80.446 276.896 79.326C277.916 78.636 279.016 78.186 280.096 77.606C282.276 84.136 285.276 92.286 286.576 98.956H286.556Z" fill="#C2DD9C"/>
<path d="M297.356 102.306L293.276 101.836C294.306 101.446 295.456 101.626 296.506 101.836C296.856 101.906 297.246 101.836 297.346 102.306H297.356Z" fill="#A7DD8E"/>
<path d="M254.426 69.216C254.916 70.176 255.676 70.746 256.176 72.146C260.036 83.116 255.686 91.966 245.636 96.996C245.136 97.246 244.616 97.286 244.116 97.516C231.536 96.146 224.746 85.586 231.366 74.086C233.896 69.676 237.766 67.336 242.676 66.206C243.876 65.926 249.346 64.966 249.836 66.256C250.326 67.546 250.736 70.856 250.606 72.216C250.466 73.726 248.356 77.306 251.256 77.556C254.156 77.806 254.756 71.176 254.436 69.206L254.426 69.216Z" fill="#E8D57E"/>
<path d="M260.896 91.996C260.686 91.426 260.246 92.056 260.056 92.236C259.456 92.786 258.816 93.376 258.506 94.156C253.296 97.876 250.326 98.186 244.116 97.516C244.616 97.286 245.136 97.246 245.636 96.996C255.686 91.956 260.036 83.116 256.176 72.146C255.686 70.746 254.916 70.176 254.426 69.216C254.106 68.586 254.046 67.536 253.706 66.816C257.476 68.136 260.036 70.156 262.436 73.316C264.536 76.076 265.516 78.536 265.696 82.056C265.926 86.516 263.846 89.0061 260.906 92.0061L260.896 91.996Z" fill="#DBBD53"/>
<path d="M260.896 91.996C259.946 92.966 259.646 93.336 258.496 94.156C258.806 93.376 259.446 92.786 260.046 92.236C260.236 92.056 260.686 91.436 260.886 91.996H260.896Z" fill="#E8D57E"/>
<path d="M75.9155 95.876C76.3455 95.806 77.2656 96.246 77.5356 96.566C78.6056 97.836 77.0855 101.226 75.4155 101.056C73.2655 100.826 74.1455 96.146 75.9155 95.876Z" fill="#917D8B"/>
<path d="M159.036 60.986C156.606 58.996 158.966 53.376 161.966 56.016C163.786 57.616 161.226 62.776 159.036 60.986Z" fill="#917D8B"/>
</svg>
