<svg width="360" height="360" viewBox="0 0 360 360" fill="none" xmlns="http://www.w3.org/2000/svg">
<path d="M336.26 189.12C327.74 190.48 321.04 189.08 314.56 183.35C310.62 179.86 307.98 174.26 305.07 169.92C302.81 171.22 299.75 173.42 297.17 173.89C291.42 174.93 281.21 173.81 275.25 173C266.62 171.83 257.91 169.73 249.43 167.76C249.35 168.2 249.88 167.89 250.08 168.06C250.42 168.35 250.94 169.22 251.46 169.69C253.59 171.59 256.02 172.7 256.12 176.07C256.26 180.8 248.39 176.55 246.54 175.57C245.82 175.19 242.53 172.94 242.14 173.06L235.75 182.53C236.14 182.75 236.52 182.73 236.94 183.02C239.3 184.65 243.13 191.66 243.42 194.53C243.59 196.18 243.88 199.36 241.62 199.46C239.76 199.55 238.6 197.28 237.31 196.08C236.51 195.34 230.71 190.73 230.14 190.83C229.28 191.56 228.54 192.46 227.83 193.33C226.44 195.03 224.53 198.56 223.01 199.79C221.66 200.89 219.82 199.7 220.5 198L226.16 186.64C222.64 183.97 217.79 182.71 216.02 178.26C215.52 177.01 215.53 175.49 217.16 175.23C221.26 174.56 227.03 176.36 230.34 178.81L236.75 166.75L236.95 165.53C231.51 163.54 225.73 162.14 220.7 159.18C219.09 158.23 216.12 156.25 214.76 155.04C212.73 153.24 209.92 149.23 207.79 147.85C204.83 145.93 198.43 147.48 195.12 148.08L193.27 151.93C196.39 150.78 199.87 150.08 203.23 150.49C206.92 150.94 211.39 157.57 206.54 159.81L203.35 161.05C207.63 161.96 209.83 168.87 206.94 171.97C204.77 174.3 200.49 172.04 197.86 172.84C198.83 179.59 195.53 186.7 188.36 180.72C184.74 177.7 182.4 173.66 180.26 169.5C176.18 169.12 172.77 167.69 169.54 165.22C167.86 163.93 165.91 162.43 165.92 160.08C163.32 161.23 159.79 161.35 157.65 159.19C149.05 162.78 140.43 166.33 132.36 171.01C131.78 171.53 131.84 172.33 131.87 173.04L136.33 171.87C139.26 171.82 141.88 171.07 144.78 171.76C147.68 172.45 149.65 173.88 149.12 177.23C148.78 179.39 145.5 180.67 143.89 181.83C142.46 182.86 141.09 183.98 139.79 185.16C143.53 185.52 146.82 185.69 149.01 189.13C152.75 195.03 144.46 199.13 139.55 198.72L142.79 201.59C147.09 206.4 145.37 211.1 138.71 211.06C132.97 211.02 128.19 206.25 123.4 203.95C120.86 202.73 118.37 204.02 115.45 203.75C114.13 203.63 111.93 202.56 111.12 202.58C110.54 202.59 108.16 203.95 106.99 204.17C106.29 204.31 104.93 204.44 104.18 204.48C102.13 204.6 101.83 203.66 100.21 205.3C95.6702 209.92 93.9802 220.18 93.7302 226.42C93.4802 232.66 94.8202 239.25 95.6502 245.63C96.6102 253.01 97.4602 257.9 100.81 264.71C107.68 278.69 117.62 293.52 129.23 303.95C131.67 306.15 134.36 308.12 137.38 309.47C139 311.87 135.99 312.36 134.16 312.47C107.31 314.08 71.8802 290.54 58.2902 268.13C53.7702 260.68 52.4302 252.72 51.3202 244.15C51.2302 243.48 51.4202 242.57 51.3002 242.06C51.2702 241.94 50.3602 241.56 49.9802 241.17C48.6202 239.72 45.8602 234.95 44.7102 233C40.8402 226.48 38.2302 217.75 36.1102 210.4C31.7502 195.27 31.9502 180.05 35.4602 164.75C28.3602 155.8 27.9402 143.22 31.1202 132.61L30.7402 132.26C25.6402 131.88 20.6302 130.61 17.7502 126.06C16.4602 124.02 14.9402 120.96 16.6402 118.81C19.6802 114.95 27.1902 112.47 31.8502 111.47C37.2902 110.29 44.2802 110.1 49.3502 108.58C54.4202 107.06 61.8002 103.33 66.7902 101.07C74.9902 97.36 82.9802 93.2 91.1702 89.47L111.96 81.11C110.28 79.76 110.07 79.13 110.31 76.94C111.01 70.54 117.27 67.19 123.24 68.75C125.21 69.27 127.08 70.5 128.74 71.65C129.22 71.99 129.81 72.96 130.46 72.84C131 72.74 133.98 71.21 134.68 70.83C140.29 67.81 146.16 65.05 151.71 61.95C160.67 56.93 168.19 48.72 179.25 47.99C188.53 47.38 194.35 49.01 197.47 58.32C201.45 70.2 190.61 79.28 182.97 86.51L176.97 90.7C179.27 90.99 182.04 91.62 184 92.9C184.34 93.12 186.45 94.95 186.67 95.26C187.02 95.75 187.29 96.82 187.58 97.11C187.85 97.39 191.46 99.28 192.02 99.51C195.54 100.92 199.75 100.55 203.44 100.03C206.63 99.58 207.32 99.55 209.83 97.54C212.17 95.66 214.04 93.23 216.54 91.54C214.38 91.02 214.44 88 216.88 88.31C217.63 88.4 218.41 89.27 218.82 89.27C219.28 89.27 219.98 88.5 219.86 88.01C219.56 86.81 217.03 83.76 216.34 82.39C215.91 81.53 215.76 81.27 216.12 80.34C217.29 77.36 219.94 78.12 222.63 78.5C224.02 78.7 229.01 80.25 229.79 80.11C230.13 80.05 230.46 79.8 230.68 79.55C229.76 78.63 226.82 76.21 228.46 74.86C230.31 73.33 231.92 76.55 232.96 77.75C236.05 75.75 238.81 73.27 242.04 71.47C243.39 70.72 247.65 68.51 248.98 68.92C249.33 69.03 249.57 69.5 249.94 69.65C257.33 72.59 265.04 77.52 270.39 83.51C271.69 84.96 275.1 90.34 276.26 90.84C276.82 91.08 277.58 91.09 278.16 91.33C281.72 88.95 284.94 85.43 288.65 83.32C291.02 81.97 293.1 82.8 295.45 83.87C298.35 85.18 300.72 87.37 303.22 89.27L309.68 87.34C310.62 86.72 310.15 84.11 312.33 84.48C313.52 84.68 313.39 86.16 313.54 86.16C317.24 85.07 320.98 84.13 324.63 82.86C327.3 81.93 331.4 79.74 333.98 79.25C335.44 78.97 336.23 79.54 336.45 80.99C336.3 89.48 335.83 97.68 333.15 105.78C332.89 106.57 332.26 107.63 332.12 108.35C332 108.98 332.95 108.3 333.63 108.51C334.78 108.86 334.79 110.92 333.88 111.79C332.97 112.66 330.49 113.35 329.78 114.05C329.64 114.19 328.01 117.49 328.02 117.69C329.86 118.8 331.6 120.61 332.53 122.57C333.98 125.62 333.53 131.52 332.58 134.73C331.14 139.61 326.99 144.28 321.59 144.25C319.59 148.78 317.66 153.42 314.89 157.54C318.22 161.91 322.85 164.96 327.87 167.06C331.58 168.61 336.07 170.4 340.07 169.35C344.8 168.11 348.45 162.97 353.53 166.82C354.48 167.54 355.28 168.55 355.73 169.66C359.12 177.98 347 184.91 340.74 187.42C339.25 188.02 337.62 188.34 336.18 189.1L336.26 189.12ZM148.94 98.88C149.14 99.2 150.02 101.28 150.28 101.29C157.55 99.24 163.8 95.62 170.12 91.63C176.92 87.34 182.86 82.91 188.4 77.05C191.7 73.56 194.57 69.41 194.99 64.56C195.19 62.22 195.12 61.14 194.32 58.87C192.43 53.56 189.97 51.57 184.32 51.12C171.33 50.08 164.76 57.83 154.86 63.88C148.95 67.49 141.35 70.87 135.04 74.29C134.4 74.64 133.41 74.8 132.88 75.25C132.51 75.56 132.68 75.45 132.88 75.72C133.86 77.16 135.48 78.72 136.58 80.18C141.05 86.14 145.09 92.57 148.96 98.88H148.94ZM130.23 77.52C127.09 73.15 120.04 68.87 115.24 73.44C113.97 74.65 113.94 75.81 113.44 77.39C114.56 77.51 115.19 76.72 116.41 76.81C117.94 76.92 120.06 78.66 120.75 78.7C121.53 78.74 124.49 77.45 125.82 77.31C127.28 77.15 128.8 77.26 130.23 77.52ZM264.3 86.88C265.2 88.55 269.25 89.51 271.01 89.4C270.46 88.6 269.95 87.75 269.33 87.01C266.77 83.96 263.02 80.51 259.74 78.24C256.24 75.82 252.25 73.72 248.36 72.02C243.32 73.5 239.37 77 235.16 79.93L234.9 80.42C235.65 82.33 237.59 82.28 239.36 82.69C243.25 83.59 247.56 84.46 251.47 84.48C256.09 84.5 260.19 84.52 264.31 86.89L264.3 86.88ZM133.56 81.14C132.18 81.76 131.29 80.81 130.05 80.47C128.07 79.93 125.92 80.01 124.01 80.76C128.33 84.09 131.67 88.35 134.8 92.77C137.1 92.42 139.2 92.27 141.51 92.63L133.56 81.13V81.14ZM20.6302 124.56C22.6802 127.85 25.6202 128.36 29.2102 129.05C41.1402 131.36 54.7002 131.75 66.7902 131.78C71.8802 131.79 84.2302 126.95 89.5802 125.05C105.38 119.44 120.89 112.84 136.06 105.8C136.91 105.4 137.92 104.99 138.86 104.88C139.04 103.91 138.02 103.31 137.66 102.72C134.68 97.81 131.51 92.65 127.71 88.32C125.33 85.61 122.12 82.43 118.65 81.4C109.61 85.45 100.26 88.83 91.2102 92.85C77.6202 98.88 64.4602 105.95 50.6702 111.56C41.7802 113.65 30.8302 113.29 22.8002 117.99C22.1702 118.36 19.5402 120.24 19.3102 120.74C18.8502 121.76 20.0502 123.66 20.6202 124.58L20.6302 124.56ZM222.57 86.16C223.05 86.99 223.47 87.92 224.01 88.8C225.39 91.07 226.54 93.67 228.57 95.52C228.48 96.06 228.79 96.26 229.03 96.62C230.04 98.11 231.16 99.54 232.17 101.04C235.6 106.12 244.11 119.73 249.2 122.16C249.44 122.97 250.37 123.77 251.01 124.31C254.4 127.25 259.96 130.77 264.55 129.36C265.99 128.92 266 128.14 266.71 126.96C267.07 126.35 267.86 125.75 267.91 124.8L270.07 127.58C270.4 127.83 270.49 127.45 270.54 127.44C272.79 126.86 274.9 125.86 277.02 125.04C277.22 124.96 277.37 124.85 277.5 124.8C277.93 124.63 278.66 124.54 279.18 124.32C279.34 124.25 279.5 124.15 279.66 124.08C280.41 123.76 280.94 123.42 281.58 123.12C281.75 123.04 281.9 122.96 282.06 122.88C282.98 122.43 283.49 122.22 284.46 121.68C285.68 121 286.71 120.22 287.82 119.52C287.96 119.43 288.33 119.43 288.62 119.25C289.17 118.9 289.93 118.06 290.46 117.84C291.54 117.4 291.94 117.86 292.62 118.56C295.91 121.95 303.13 125.87 308.1 125.53C308.55 125.5 309 125.59 309.17 125.04C311.15 125.12 311.09 124.63 312.53 124.08C313.36 123.76 314.11 123.35 314.69 123.12C316.11 122.56 316.9 122.51 318.53 121.68C319.69 121.09 321.71 120.27 322.37 119.04C322.93 117.99 322.02 117.52 321.61 116.56C321.27 115.77 321.03 114.69 320.7 114C321.26 114.06 322.15 113.83 322.62 114.12C323.73 114.78 323.38 120.01 326.1 114.73C326.5 113.95 326.64 112.95 326.93 112.32C326.97 112.23 327.28 112.12 327.38 111.88C331.46 102.74 333.63 93.13 333.16 83.04C330.06 83.73 327.23 85.23 324.23 86.22C320.31 87.52 316.05 88.6 312.05 89.76C309.97 90.36 307.89 91.1 305.81 91.68C304.71 91.99 303.53 92.34 302.45 92.64C300.03 93.31 297.45 93.67 295.01 94.32C294.85 94.36 294.69 94.52 294.53 94.56C293.65 94.79 292.77 95.03 291.89 95.28C291.22 95.47 290.6 95.86 289.89 96.04C286.36 96.91 282.69 95.62 279.18 94.8C277.52 94.41 275.79 94 274.14 93.6C272.88 93.29 271.61 92.92 270.3 92.64C269.95 92.56 267.76 91.81 267.66 91.92C267.62 92.34 267.66 92.72 267.77 93.13C268.16 94.49 270.67 97.67 271.54 99.2C272.59 101.07 273.39 103.34 274.49 105.13C274.72 105.5 274.77 105.87 275.34 105.84C275.41 107 275.49 108.65 275.1 109.68C273.86 107.4 272.61 105.73 271.74 103.2C271.65 102.94 271.52 102.76 271.5 102.72C271.47 102.65 271.53 102.55 271.5 102.48C271.28 101.87 271.16 101.04 270.9 100.32C269.77 97.29 268.06 94.42 265.51 92.4L264.9 91.2C264.75 90.96 264.48 91.03 264.31 90.96C263.48 90.65 262.33 90.46 261.43 90.24C261.29 90.21 261.09 90.27 260.95 90.24C260.08 90.02 259.2 89.73 258.31 89.52C258.11 89.47 257.8 89.57 257.59 89.52C255.15 88.97 252.27 87.61 249.68 87.84C247.06 86.96 244.24 86.69 241.53 86.16C240.41 85.94 239.29 85.68 238.17 85.44C236.91 85.17 235.58 85.01 234.33 84.72C232.93 84.39 231.49 83.87 230.01 83.52C228.81 83.23 227.64 82.83 226.41 82.56C224.19 82.06 221.98 81.48 219.7 81.36C219.51 81.53 221.89 85.33 222.14 85.76C222.27 85.98 222.54 86.09 222.58 86.15L222.57 86.16ZM294.28 86.88C293.31 86.42 291.77 85.49 290.68 85.78C289.94 85.98 285.46 89.29 284.57 90C283.74 90.67 282.92 91.6 282.05 92.27L287.48 93.58C288.07 93.86 288.58 93.16 288.77 93.11C289.84 92.82 290.72 92.42 291.65 92.15C293.39 91.65 295.4 91.15 297.17 90.71C297.59 90.61 298.21 90.65 298.77 90.5C299.1 90.41 299.44 90.65 299.33 90.11C297.8 88.77 296.13 87.73 294.29 86.87L294.28 86.88ZM191.87 102.96C190.42 102.53 189.29 101.36 187.79 101.04C187.54 106.82 184.92 113.64 180.11 117.12C174.79 120.96 167.87 121.22 164.42 114.94C163.79 113.8 163.24 111.02 162.97 110.64C162.79 110.39 162.24 110.4 162 110.17C159.93 108.19 159.23 107.36 156.61 105.84C155.1 104.97 153.57 103.99 151.81 103.68C151.44 104.06 153.22 106.53 153.49 107.04C158.69 117.02 162.15 127.93 165.24 138.72C165.64 139.08 167.93 136.09 169.92 137.52C171.8 138.87 170.29 140.63 169.88 142.51C168.83 147.25 168.31 154.43 168.84 159.23C169.06 161.2 170.62 162.07 172.12 163.14C174.59 164.91 176.32 165.69 179.34 166.24C180.58 166.46 184.04 166.18 184.2 167.88C184.28 168.74 183.46 168.68 184.07 170.15C185.09 172.6 189.63 178.61 192.1 179.51C195.5 180.75 195.1 175.05 194.95 172.94C194.78 172.42 193.75 172.52 193.3 172.31C192.55 171.96 192.33 170.69 192.81 170.01C193.51 168.84 196.27 169.66 197.5 169.68C198.27 169.7 198.95 169.4 199.77 169.42C200.43 169.44 201.76 169.86 202.53 169.9C203.23 169.94 203.95 169.89 204.65 169.91C205.75 168.26 205.12 165.66 203.59 164.51C202.06 163.36 200.66 163.35 198.81 163.41C198.24 163.43 197.62 163.33 197.06 163.46C196.12 163.68 195.31 165.12 194.02 164C191.58 161.89 197.04 159.85 198.33 159.33C200.39 158.49 202.71 158.11 204.56 157.28C204.9 157.13 205.82 156.84 205.74 156.36C205.58 155.34 203.57 153.58 202.47 153.38C200.06 152.94 198.1 153.62 195.93 154.28C193.76 154.94 192.72 155.72 190.95 156.38C190.57 156.52 190.03 156.33 189.74 156.49C189.42 156.66 188.13 159.45 187.13 159.75C186.33 159.99 185.11 159.68 184.9 158.84C184.8 158.46 184.98 157.9 185.17 157.55C185.92 156.15 188.28 153.85 189.32 152.34C192.38 147.91 193.84 143.29 193.8 137.84C193.78 135.34 192.21 133.17 192.58 130.76C192.74 130.72 192.98 130.39 193.23 130.34C194.03 130.17 194.87 130.29 195.27 131.07C195.63 131.78 196.52 135.31 196.62 136.2C196.72 137.03 196.62 137.87 196.65 138.69C200.15 138.66 203.4 138.31 205.76 141.33C205.48 135.89 206.59 130.47 208.77 125.5C211.62 119.01 218.61 113.17 225.91 113.01L226.12 108.48C225.86 108.08 219.1 107.11 218.11 107.01C216.95 106.9 215.68 107.09 214.51 107.01C213.22 106.93 211.35 106.92 211.28 105.32C212.7 105.84 212.67 104.2 213.61 103.93C214.25 103.74 216.6 103.82 217.41 103.87C220.4 104.05 224 104.73 226.87 105.56L228.5 101.16C228.47 100.81 225.3 96.61 224.83 96.21C223.37 94.99 221.02 94.21 219.32 93.34C218.39 93.34 213.41 98.48 212.25 99.45C210 101.33 209.08 102.33 206.07 102.86C201.93 103.6 195.89 104.12 191.86 102.92L191.87 102.96ZM178.92 113.76C182.68 110.64 185.26 104 184.65 99.03C184.21 95.48 179.68 93.68 176.52 93.84C168.28 94.27 162.78 108.45 168.03 114.7C171.26 118.54 175.8 116.36 178.92 113.76ZM151.58 110.16C150.68 108.08 149.62 105.97 148.5 104C147.99 103.1 144.57 97.23 144.26 96.97C144.08 96.82 141.43 95.74 141.04 95.63C140.3 95.43 137.75 95.04 137.19 95.39C136.93 95.55 136.9 95.75 137.06 96.01L145.14 109.66C147.38 109.13 149.45 109.51 151.59 110.15L151.58 110.16ZM165.73 97.92C164.26 98.49 163 99.44 161.58 100.12C160.16 100.8 158.46 101.31 156.96 101.97C156.67 102.1 156.53 101.86 156.63 102.47C159.04 103.38 161 105.14 163.1 106.55C163.33 103.5 164.53 100.67 165.74 97.91L165.73 97.92ZM229.06 113.03C233.04 113.38 236.19 116.03 239.84 117.24L230.61 104.4C229.87 104.4 228.67 112.06 229.06 113.02V113.03ZM141.99 109.92C141.75 109.49 140.68 107.05 140.43 107.04C140.18 107.26 139.97 107.57 139.68 107.72C131.8 111.82 123.37 114.85 115.14 118.2C105.7 122.04 96.3702 126.15 86.5902 129.12L88.0502 132.93C90.6802 133.14 93.6002 132.56 96.1302 133.36C100.24 134.66 101.58 136.65 102.35 140.82C103.04 144.55 102.36 147.74 100.98 151.19C100.37 151.89 100.07 152.87 99.5002 153.67C95.1502 159.76 88.7502 161.02 81.9102 158.4C77.8202 156.83 75.3202 152.98 75.7702 148.58L63.7002 144.95C63.5402 144.95 63.2802 145.89 63.0802 146.16C61.4702 148.33 59.8602 149.46 57.0802 149.52C52.9302 149.61 47.4502 147.59 44.8502 144.24C41.3602 152.36 39.1002 160.97 37.5302 169.67C34.4902 186.48 35.6902 198.94 40.7702 215.04C41.4902 217.32 42.3702 219.73 43.1702 222C44.0502 224.5 44.6502 226.57 45.9202 228.97C46.8402 230.71 49.6402 235.46 50.8402 236.77C51.0602 237.01 51.1802 237.21 51.5602 237.13C50.8302 234.16 54.7802 233.29 54.7002 236.53C54.6402 239.17 54.1902 241.43 54.4702 244.18C54.8402 247.85 55.8302 253.24 56.6702 256.85C60.2902 272.31 79.7702 288.79 92.8902 296.69C102.06 302.21 112.02 307.33 122.79 308.65C124.41 309.32 126.25 309.05 127.94 309.13C128.89 309.18 129.96 309.67 130.94 309.25C128.33 307.32 126.03 305.06 123.74 302.78C114.78 293.85 108.02 284.12 101.88 273.06C98.0602 266.17 94.2002 258.84 93.0802 250.91C91.3002 238.32 89.1602 223.93 93.1702 211.7C94.1902 208.57 96.2202 205.88 97.8502 203.06C94.0302 201.79 89.6602 198.63 87.3002 195.38C86.2502 193.93 83.5902 189.03 84.6402 187.38C85.1802 186.53 86.7602 186.77 87.1702 187.7C87.3702 188.16 87.2302 188.69 87.4102 189.14C88.7802 192.73 90.1302 194.44 93.0502 196.81C100.15 202.56 106.47 203.07 113.65 197.15C113.95 196.9 114.07 196.45 114.4 196.22C116.06 195.03 117.69 196.82 116.42 198.72C116.18 199.09 114.34 200.41 114.63 200.65C117.64 201.54 120.56 199.58 123.43 200.61C128.03 202.26 134.04 208.44 139.18 208.07C143.18 207.78 142.33 205.72 140.28 203.42C138.67 201.61 133.23 198.72 133.35 195.99C133.5 192.39 137.52 195.31 139.03 195.55C141.34 195.91 147.7 194.55 146.67 191.28C146.56 190.93 145.37 189.54 145.03 189.31C144.25 188.8 142.54 188.57 141.59 188.44C139.82 188.19 133.34 188.71 135.25 185.4C135.65 184.7 138.76 182 139.58 181.33C141.58 179.69 143.84 178.4 145.92 176.88L146.23 176.26L146.07 175.63C145.81 175.25 143.95 174.69 143.43 174.61C140.93 174.21 135.41 174.96 133.09 176.05C132.82 176.18 130.91 177.29 130.83 177.39C130.4 177.95 129.39 180.84 128.82 181.86C128.16 183.07 126.47 185.86 125.52 186.72C124.2 187.91 122.56 187.16 123.08 185.24C123.24 184.65 125.12 182.37 125.61 181.54C129.21 175.51 130.06 168.36 128.99 161.45C128.34 157.25 127.35 154.68 123.08 153.21C117.35 151.24 114.85 151.6 109.59 154.1C107.2 155.24 100.83 158.75 99.5102 160.93C98.9102 161.91 99.0002 163.81 96.8802 162.85C93.8902 161.49 98.5002 157.38 99.7702 156.39C107.94 150.08 116.94 145.81 126.83 151.59C127.65 152.07 128.42 152.67 129.12 153.31C132.28 151.41 135.87 150.51 139.24 149.1C140.65 148.51 141.98 147.6 143.4 147.02C147.46 145.37 151.6 143.93 155.77 142.58C155.95 142.34 155.77 142.13 155.71 141.9C154.83 138.39 152.53 133.17 151.12 129.68C148.87 124.13 146.31 118.62 143.64 113.28C143.07 112.14 142.58 111.05 141.96 109.92H141.99ZM154.22 129.12C154.27 129.2 154.08 129.56 154.37 129.61C156.13 129.42 157.81 129.86 159.5 130.2C158.58 125.39 156.5 121.02 154.46 116.64C154.23 116.15 153.92 114.43 153.5 114.12C151.29 113.53 149.19 111.89 146.78 112.44L154.22 129.12ZM208.9 138.48C208.82 141.53 209.42 142.57 210.58 145.2C210.85 145.81 210.74 146.22 211.3 147C211.58 147.38 214.65 150.46 214.91 150.59C219.03 152.59 225.17 148.22 227.6 145.08C230.03 141.94 230.87 137.77 232.6 134.24C233.84 131.71 236.38 127.73 239.6 129.96C244.52 137.48 250.52 146.15 259.1 149.81C264.07 151.93 271.62 149.69 276.03 146.99C276.39 146.77 276.66 146.23 276.77 146.17C282.94 142.48 290.22 141.05 297.4 140.89C302.53 140.78 307.88 141.05 312.58 143.26C315.66 140.86 318.78 137.54 320.23 133.85C320.75 132.51 320.73 130.17 322.22 130.06C323.52 129.97 323.7 130.52 323.79 131.63C324.06 134.85 323.17 137.77 322.58 140.88C326.03 140.53 328.77 136.84 329.66 133.69C330.36 131.22 330.82 126.3 329.75 123.99C329.42 123.28 326.71 120.01 326.06 120.06C324.66 121.36 323.24 122.69 321.61 123.7C320.22 124.56 317.67 125.33 316.6 126.12C316.08 126.51 315.83 127.31 315.39 127.79C313.04 130.33 307.53 133.63 303.99 133.33C302.84 133.23 302.82 132.04 302.49 131.35C301.22 128.72 300.71 126.49 297.41 126L291.78 122.24C289.39 123.78 287.13 125.85 284.68 127.3C279.61 130.32 268.46 132.64 262.51 132.96C257.69 133.21 253.47 130.01 249.81 127.2C248.85 126.46 247.58 124.93 246.65 124.36C244.66 123.14 241.38 121.86 239.13 120.73C236.52 119.41 231.89 116.51 229.15 116.2C216.46 114.73 209.21 127.33 208.91 138.49L208.9 138.48ZM309.15 128.64L304.59 128.4L305.69 130.29C306.39 130.1 307.13 129.88 307.79 129.57C308.17 129.39 308.95 129.01 309.14 128.64H309.15ZM76.9902 143.52C77.9302 140.59 79.1002 137.94 81.5702 135.98C82.3502 135.36 84.5602 134.41 84.9102 134.04C85.5502 133.37 83.9202 131.1 83.5602 130.3L72.4402 133.92C73.5802 135.18 77.1102 137.71 76.9902 139.54C76.9402 140.38 76.0702 140.78 76.0302 140.88C74.1102 141.29 73.4402 138.84 72.2002 137.63C71.3502 136.79 70.1302 136.11 69.1802 135.36C68.9502 135.18 68.9002 134.7 68.6602 134.64C67.9802 134.46 67.2902 134.88 66.7602 134.86C65.5902 134.83 64.4602 134.6 63.1802 134.63C61.2702 134.67 59.2102 135.08 57.2302 134.92C56.2702 135.24 57.0602 138.33 57.7302 138.98C58.1002 139.34 61.4602 140.87 62.1902 141.17C66.7302 143.06 71.8102 144.2 76.5002 145.69C76.5002 144.94 76.7602 144.22 76.9802 143.53L76.9902 143.52ZM159.42 133.52C158.65 132.92 156.4 132.42 155.42 132.6L160.87 147.13L165.01 148.57L161.18 134.82C160.09 134.67 159.91 133.91 159.42 133.53V133.52ZM236.48 133.68C234.24 136.85 233.31 141.46 231.33 144.96C229.6 148.03 225.54 151.85 222.26 153.16C221.95 153.28 218.49 153.95 218.73 154.31C224.76 158.44 231.76 161.03 238.88 162.61L247.05 145.54C247.02 144.42 245.31 143.26 244.64 142.42C243.09 140.48 241.55 138.31 240.08 136.31C239.7 135.79 237.56 132.47 237.32 132.47C236.85 132.75 236.74 133.29 236.48 133.67V133.68ZM43.8902 133.68L34.4602 132.94C31.7002 139.35 31.6202 148.79 33.8202 155.4C34.0502 156.1 35.9502 160.12 36.3502 160.31C36.8102 160.54 36.6902 159.93 36.7402 159.75C37.9002 155.2 39.8302 146.99 42.1702 143.1C42.5002 142.55 43.5402 141.76 43.6202 141.42C43.7202 141.01 42.9702 139.2 42.9602 138.37C42.9502 136.87 43.6402 135.14 43.8902 133.67V133.68ZM53.7302 134.88L47.3002 134.21C44.3602 138.85 47.0402 143.76 51.9202 145.45C54.8202 146.46 59.2902 147.55 60.6502 143.88C59.1102 142.71 56.6102 142.34 55.3002 140.87C53.9902 139.4 53.6302 136.82 53.7302 134.88ZM89.7002 156.48C96.5602 155.5 100.53 147.8 99.2202 141.31C99.0702 140.54 98.5702 138.67 98.1002 138.11C96.3802 136.06 93.1502 135.69 90.6602 135.84C85.7402 136.13 82.1202 138.24 80.3402 142.92C79.4002 145.38 78.2902 149.48 79.2002 151.99C80.5102 155.61 86.3102 156.96 89.7002 156.48ZM203.62 144C203.92 143.74 202.1 142.07 201.77 141.89L196.43 141.36L196.19 144.72L203.62 144ZM305.08 144.48L313.11 154.79C315.72 150.64 317.75 146.05 319.22 141.36C317.7 142.44 315.03 145.98 313.29 146.34C311.08 146.8 310.76 145.63 309.1 145.12C308.64 144.98 305.22 144.35 305.07 144.48H305.08ZM348.01 169.2C344.52 170.52 341.7 172.99 337.56 173.05C333.42 173.11 324.84 169.36 321.31 167.24C312.48 161.92 309.05 153.2 302.32 145.92C300.34 143.78 299.46 143.64 296.56 143.76C293.16 143.91 289.71 144.89 286.37 145.44L291 147.64C306.08 155.27 309.58 184.85 328.22 186.23C330.23 186.38 334.83 186.52 336.49 185.51H336.73C336.91 185.48 337.07 185.4 337.21 185.27C341.79 183.81 346.08 181.67 349.69 178.43C350.81 177.42 352.43 175.87 352.88 174.42C353.82 171.41 352.35 168.16 348.85 168.72C348.3 168.81 348.19 169.12 348.01 169.19V169.2ZM157.08 145.45L147.92 148.38L130.71 155.76C132.1 159.5 132.44 163.54 132.39 167.51L159.45 154.99C160.05 154.04 157.44 146.91 157.08 145.44V145.45ZM249.45 147.61L230.61 185.03L252.95 150.24L253.01 149.91C252.59 149.44 249.84 147.35 249.46 147.61H249.45ZM290.69 151.2C287.69 149.31 284.53 147.98 280.96 147.62C278.74 148.61 277.08 150.35 274.85 151.31C271.09 152.93 265.18 154.32 261.13 153.77C259.05 153.49 257.43 152.14 255.45 151.69L247.76 164.15C256.08 166.49 264.62 168.4 273.18 169.67C279.5 170.61 287.57 171.51 293.92 171.11C297.18 170.9 300.97 169.53 303.06 167.02C300.01 161.27 296.29 154.72 290.68 151.19L290.69 151.2ZM160.69 157.68C162.4 157.93 164.25 158.11 165.48 156.6C165.94 156.04 165.84 152.82 165.35 152.18C164.79 151.45 162.74 151.19 162 150.49C161.7 152.19 163.33 154.7 162.22 156.23C161.91 156.67 160.89 157 160.68 157.69L160.69 157.68ZM252.55 174.72C251.72 173.86 245.45 168.25 244.87 168.59L243.94 170.08C243.87 170.31 244.04 170.38 244.16 170.51C244.78 171.21 248.41 173.17 249.43 173.64C250.4 174.08 251.49 174.59 252.55 174.71V174.72ZM227.84 183.84L228.78 181.61C228.4 180.16 221.3 177.99 219.69 178.33L220.57 179.49L227.85 183.85L227.84 183.84ZM234.56 184.8L234.07 184.95L231.94 188.28L240.32 194.64C239.52 191.22 237.48 187.65 234.82 185.38C234.6 185.19 234.59 184.83 234.56 184.81V184.8ZM230.37 185.28V185.52C230.53 185.44 230.53 185.36 230.37 185.28Z" fill="#020201"/>
<path d="M340.81 187.44C339.76 188.99 337.8 188.87 336.25 189.12C337.68 188.36 339.32 188.04 340.81 187.44Z" fill="#C38FD6"/>
<path d="M109.61 154.08C110.65 154.45 111.53 153.98 112.59 154.1C114.79 154.35 117.64 156.44 118.25 158.64C114.72 157.37 111.2 161.33 113.34 164.63C114.63 166.61 117.6 166.85 119.44 165.6C119.52 169.15 119.16 171.34 118.24 174.72C118.18 174.93 118.03 175.09 118 175.2C116.44 175.16 115.45 177.02 115.61 178.42C115.69 179.1 116.23 179.48 116.32 179.76C116.34 179.81 116.32 179.94 116.32 180C116.26 180.39 114.77 182.98 114.44 183.52C112.85 186.13 110.47 188.66 108.17 190.68C106.17 192.44 100.23 196.59 97.7402 196.81C96.2402 196.94 94.5702 196.7 93.0502 196.81C90.1202 194.44 88.7802 192.73 87.4102 189.14C87.2402 188.68 87.3702 188.15 87.1702 187.7C86.7602 186.76 85.1802 186.53 84.6402 187.38C83.5902 189.03 86.2402 193.93 87.3002 195.38C85.3602 198.31 84.2302 202.08 83.2202 205.46C76.6502 203.33 75.0702 213.29 81.0602 214.58C81.0502 214.66 81.0702 214.74 81.0602 214.82C79.5602 226.4 80.4802 239.83 83.4602 251.06C83.8702 252.59 84.1802 254.1 84.6602 255.62C88.1402 266.7 93.9002 276.63 100.15 286.32C104.74 293.44 114.92 305.41 122.79 308.66C112.02 307.34 102.06 302.23 92.8902 296.7C79.7702 288.8 60.2902 272.32 56.6702 256.86C55.8202 253.24 54.8402 247.86 54.4702 244.19C54.1902 241.44 54.6402 239.18 54.7002 236.54C54.7802 233.3 50.8302 234.17 51.5602 237.14C51.1802 237.22 51.0602 237.02 50.8402 236.78C49.6402 235.47 46.8402 230.72 45.9202 228.98C44.6502 226.59 44.0502 224.51 43.1702 222.01C49.0002 221.24 46.2002 211.58 40.7702 215.05C35.6802 198.96 34.4902 186.5 37.5302 169.68C39.1002 160.98 41.3702 152.37 44.8502 144.25C47.4402 147.6 52.9302 149.62 57.0802 149.53C55.5202 154.78 60.7702 157.47 64.7602 154.21C68.1002 151.48 67.4702 146.89 63.0802 146.17C63.2802 145.9 63.5402 144.96 63.7002 144.96L75.7702 148.59C75.3202 152.99 77.8102 156.84 81.9102 158.41C88.7602 161.03 95.1502 159.77 99.5002 153.68C100.07 152.88 100.37 151.9 100.98 151.2C101.74 150.33 103.7 149.25 104.69 148.31C109.78 143.5 107.6 136.77 104.93 131.29L102.42 129.36C111.6 127.37 120.36 123.98 128.96 120.28C130.66 119.55 137.26 116.01 138.39 115.92C139.01 115.87 139.58 116.17 140.19 116.18C141.86 116.21 143.1 115.14 143.43 113.52C143.48 113.5 143.56 113.31 143.67 113.28C146.34 118.62 148.89 124.13 151.15 129.68C152.57 133.17 154.86 138.39 155.74 141.9C155.8 142.13 155.98 142.34 155.8 142.58C151.63 143.93 147.49 145.37 143.43 147.02C142.01 147.6 140.68 148.5 139.27 149.1C135.9 150.51 132.31 151.41 129.15 153.31C128.44 152.67 127.68 152.08 126.86 151.59C116.97 145.81 107.97 150.08 99.8002 156.39C98.5302 157.37 93.9102 161.49 96.9102 162.85C99.0202 163.81 98.9402 161.91 99.5402 160.93C100.86 158.75 107.23 155.24 109.62 154.1L109.61 154.08ZM118.17 133.49C115.53 134.08 114.92 140.39 118.83 140.17C122.74 139.95 123.67 132.25 118.17 133.49ZM72.6102 161.82C70.2902 162.25 69.9902 165.23 70.2902 167.15C70.5202 168.62 72.4902 169.75 73.9202 169.63C78.5802 169.27 78.2102 160.78 72.6102 161.82ZM96.1302 163.98C92.5502 164.29 91.4502 166.44 91.3702 169.79C91.2702 173.86 94.0802 178.38 98.6402 177.54C99.8902 177.31 101.21 175.94 101.64 174.79C102.07 173.64 102.16 169.92 101.87 168.66C101.29 166.05 98.8902 163.74 96.1202 163.98H96.1302ZM44.2102 174.56C39.4702 178.77 48.0502 184.86 51.1902 179.75C53.9102 175.32 47.8302 171.34 44.2102 174.56ZM99.2402 186.78C92.3702 187.64 95.7502 195.05 101.59 192.73C103.4 192.01 104.82 190.12 103.72 188.18C102.83 186.61 100.8 186.59 99.2402 186.78ZM53.8102 210.63C57.6602 214.64 63.4602 210.24 59.9602 205.56C56.4602 200.88 49.5002 206.14 53.8102 210.63ZM71.6402 251.33C68.9402 251.95 68.9202 257.3 72.7302 256.75C76.1702 256.25 75.9602 250.33 71.6402 251.33ZM89.3902 277.25C86.6902 277.86 87.5502 282.41 90.5502 282.49C94.0302 282.58 94.0402 276.19 89.3902 277.25Z" fill="#D8DF75"/>
<path d="M137.67 102.72L135.6 104.13C112.81 113.42 90 122.88 66.3 129.83C56.01 130.52 45.05 129.92 34.69 128.62C31.75 128.25 25.4 127.51 22.96 126.2C22.14 125.76 21.72 124.71 20.63 124.58C20.06 123.66 18.85 121.76 19.32 120.74C19.55 120.24 22.18 118.36 22.81 117.99C30.84 113.29 41.79 113.65 50.68 111.56C64.48 105.95 77.64 98.88 91.22 92.85C100.27 88.83 109.62 85.46 118.66 81.4C122.13 82.44 125.34 85.61 127.72 88.32C131.52 92.65 134.69 97.81 137.67 102.72Z" fill="#BC48A0"/>
<path d="M191.87 102.96C195.9 104.16 201.94 103.63 206.08 102.9C209.09 102.36 210.01 101.37 212.26 99.49C213.42 98.52 218.4 93.38 219.33 93.38C221.03 94.25 223.38 95.03 224.84 96.25C225.31 96.65 228.48 100.85 228.51 101.2L226.88 105.6C224.01 104.77 220.41 104.09 217.42 103.91C216.61 103.86 214.26 103.78 213.62 103.97C212.68 104.24 212.71 105.88 211.29 105.36C211.36 106.96 213.23 106.97 214.52 107.05C215.69 107.13 216.96 106.93 218.12 107.05C219.11 107.14 225.87 108.12 226.13 108.52L225.92 113.05C218.62 113.2 211.63 119.04 208.78 125.54C206.6 130.51 205.49 135.93 205.77 141.37C203.41 138.35 200.16 138.7 196.66 138.73C196.63 137.9 196.73 137.06 196.63 136.24C196.53 135.35 195.64 131.83 195.28 131.11C194.88 130.33 194.04 130.21 193.24 130.38C192.99 130.43 192.75 130.76 192.59 130.8C191.92 130.96 191.06 130.52 190.56 131.53C190.51 137.86 187.67 143.79 184.21 148.93C181.45 153.02 173.4 160.03 184.92 158.88C185.13 159.72 186.35 160.03 187.15 159.79C188.16 159.49 189.45 156.7 189.76 156.53C190.05 156.37 190.59 156.57 190.97 156.42C192.73 155.76 193.84 154.96 195.95 154.32C196.23 155.82 198.07 156.18 199.31 156.72C199.08 157.65 198.17 158.27 198.35 159.36C197.06 159.89 191.6 161.92 194.04 164.03C195.33 165.15 196.14 163.71 197.08 163.49C197.64 163.36 198.26 163.46 198.83 163.44C199.06 163.97 199.27 165.05 199.57 165.46C200 166.04 200.83 165.7 200.98 166.94C201.17 168.41 200.1 168.24 199.79 169.44C198.97 169.42 198.29 169.71 197.52 169.7C196.29 169.68 193.53 168.86 192.83 170.03C192.35 170.71 192.57 171.98 193.32 172.33C193.73 174.96 192.54 177.05 192.12 179.53C189.64 178.63 185.11 172.62 184.09 170.17C183.48 168.7 184.3 168.76 184.22 167.9C184.07 166.21 180.6 166.49 179.36 166.26C176.34 165.71 174.61 164.93 172.14 163.16C170.64 162.09 169.08 161.21 168.86 159.25C168.33 154.44 168.85 147.26 169.9 142.53C170.32 140.65 171.83 138.89 169.94 137.54C167.95 136.11 165.66 139.1 165.26 138.74C162.17 127.95 158.71 117.04 153.51 107.06L156.63 105.86C159.24 107.38 159.94 108.21 162.02 110.19C162.26 110.42 162.82 110.4 162.99 110.66C163.26 111.05 163.82 113.83 164.44 114.96C167.89 121.24 174.81 120.98 180.13 117.14C180.36 117.54 181.02 117.42 181.39 117.32C182.19 117.1 185.05 115.65 185.97 115.18C188.52 113.87 190.79 112.46 191.57 109.5C191.81 108.57 192.36 105.89 192.38 105.01C192.4 104.13 192.11 103.72 191.88 102.97L191.87 102.96ZM199.24 117.89C197.02 118.35 195.93 121.05 198.22 122.4C203.47 125.52 204.14 116.88 199.24 117.89ZM180.78 139.02C176.97 139.67 176.94 145.03 180.96 145.44C186.48 146 185.89 138.15 180.78 139.02Z" fill="#D8DE75"/>
<path d="M194.99 64.56C194.36 64.42 194.53 64.89 194.38 65.26C190.5 74.67 176.34 84.37 167.57 89.32C165.35 90.57 163.01 91.62 160.77 92.84C156.89 94.94 153.21 97.58 148.94 98.88C145.07 92.57 141.04 86.15 136.56 80.18C135.46 78.72 133.84 77.16 132.86 75.72C132.67 75.44 132.5 75.56 132.86 75.25C133.4 74.8 134.38 74.64 135.02 74.29C141.33 70.87 148.93 67.49 154.84 63.88C164.74 57.83 171.31 50.08 184.3 51.12C189.95 51.57 192.41 53.56 194.3 58.87C195.11 61.14 195.18 62.22 194.97 64.56H194.99Z" fill="#BC48A0"/>
<path d="M87.3 195.36C89.66 198.61 94.04 201.77 97.85 203.04C96.22 205.86 94.2 208.55 93.17 211.68C89.16 223.91 91.3 238.3 93.08 250.89C94.2 258.83 98.06 266.16 101.88 273.04C108.02 284.1 114.78 293.83 123.74 302.76C126.03 305.04 128.33 307.3 130.94 309.23C129.96 309.65 128.89 309.16 127.94 309.11C126.25 309.02 124.4 309.3 122.79 308.63C114.92 305.38 104.74 293.41 100.15 286.29C93.9 276.6 88.14 266.67 84.66 255.59C85.83 255.92 86.29 257.31 87.53 257.64C93.75 259.27 93.11 249.83 89.04 248.93C87.61 248.62 85.6 248.41 84.53 249.58C84 250.16 84.19 251.05 83.46 251.03C80.48 239.8 79.56 226.37 81.06 214.79C86.69 214.98 88.27 208.47 83.22 205.91C83.26 205.78 83.18 205.56 83.22 205.43C84.23 202.05 85.36 198.28 87.3 195.35V195.36ZM107.38 287.57C105.68 287.95 105.86 290.71 107.38 291.07C110.93 291.91 110.16 286.95 107.38 287.57Z" fill="#C1CB4A"/>
<path d="M109.61 154.08C114.87 151.58 117.37 151.21 123.1 153.19C127.37 154.66 128.36 157.23 129.01 161.43C130.09 168.33 129.24 175.48 125.63 181.52C125.13 182.35 123.25 184.64 123.1 185.22C122.58 187.14 124.22 187.89 125.54 186.7C126.49 185.84 128.18 183.05 128.84 181.84C129.4 180.82 130.42 177.93 130.85 177.37C130.93 177.27 132.84 176.15 133.11 176.03C135.43 174.94 140.95 174.19 143.45 174.59C143.97 174.67 145.84 175.23 146.09 175.61L146.25 176.24L145.94 176.86C143.85 178.38 141.6 179.67 139.6 181.31C138.78 181.98 135.67 184.68 135.27 185.38C133.36 188.7 139.84 188.17 141.61 188.42C142.57 188.56 144.27 188.79 145.05 189.29C145.39 189.51 146.58 190.9 146.69 191.26C147.73 194.53 141.36 195.9 139.05 195.53C137.54 195.29 133.52 192.37 133.37 195.97C133.26 198.7 138.7 201.59 140.3 203.4C142.34 205.7 143.19 207.75 139.2 208.05C134.06 208.42 128.05 202.24 123.45 200.59C120.59 199.57 117.66 201.53 114.65 200.63C114.36 200.39 116.19 199.07 116.44 198.7C117.7 196.79 116.08 195.01 114.42 196.2C114.09 196.44 113.97 196.88 113.67 197.13C106.49 203.06 100.17 202.54 93.0698 196.79C94.5898 196.69 96.2598 196.93 97.7598 196.79C100.24 196.57 106.19 192.42 108.19 190.66C110.49 188.63 112.87 186.11 114.46 183.5C114.79 182.96 116.28 180.37 116.34 179.98C121.99 184.6 125.49 174.83 118.26 174.7C119.18 171.32 119.54 169.13 119.46 165.58C119.46 165.5 119.46 165.42 119.46 165.34C121.77 163.28 121.2 160.24 118.5 158.86C118.45 158.83 118.39 158.67 118.26 158.62C117.65 156.41 114.8 154.33 112.6 154.08C111.55 153.96 110.66 154.44 109.62 154.06L109.61 154.08Z" fill="#C1CB4A"/>
<path d="M348.01 169.2C348.89 173.95 345.82 178.88 342.26 181.8C340.62 183.14 338.62 183.94 337.22 185.28C337.09 185.41 336.92 185.49 336.74 185.52L336.62 185.28C336.55 185.34 336.55 185.49 336.5 185.52C334.84 186.52 330.24 186.39 328.23 186.24C309.59 184.86 306.09 155.28 291.01 147.65L286.38 145.45C289.73 144.9 293.17 143.92 296.57 143.77C299.47 143.64 300.35 143.79 302.33 145.93C309.07 153.21 312.5 161.93 321.32 167.25C324.85 169.37 333.58 173.12 337.57 173.06C341.56 173 344.52 170.54 348.02 169.21L348.01 169.2Z" fill="#C38FD6"/>
<path d="M239.12 120.72C239.1 122.38 241.34 122 242.36 122.87C244.02 124.28 245.34 126.49 246.91 127.92C247.86 128.78 249.17 129.53 250.16 130.43C254.48 134.34 257.37 139.44 263.58 141C272.32 143.2 277.11 138.31 284.93 136.43C286.42 136.07 287.97 135.81 289.49 135.59C289.92 136.17 290.93 137.11 291.71 136.99C292.54 136.87 293.29 135.67 293.08 134.87C294.07 135.05 295.04 134.68 295.96 134.63C296.68 134.59 298.06 135.35 298.6 133.91H299.32C299.34 135.41 299.08 135.93 298.6 137.27C294.84 136.86 290.8 137.52 287.09 138.35C280.02 139.92 275.47 143.54 267.79 143.53C260.11 143.52 252.27 136.97 247.04 132.11C244.45 129.7 242.52 125.29 238.47 124.6C230.4 123.23 228.66 131.07 224.38 135.83C221.83 138.66 218.76 140.73 214.79 140.38C212.64 140.19 212.66 139.39 211.27 138.87C210.61 138.62 209.63 138.55 208.91 138.47C209.21 127.3 216.46 114.71 229.15 116.18C231.89 116.5 236.51 119.39 239.13 120.71L239.12 120.72Z" fill="#9EDA94"/>
<path d="M290.69 151.2C290.55 155.72 287.13 159.86 284.1 162.96C282.13 164.98 278.25 167.82 275.67 168.93C274.78 169.31 274.03 169.35 273.18 169.68C264.61 168.41 256.08 166.49 247.76 164.16L255.45 151.7C257.43 152.16 259.05 153.5 261.13 153.78C265.19 154.33 271.1 152.94 274.85 151.32C277.08 150.36 278.73 148.62 280.96 147.63C284.53 147.98 287.69 149.32 290.69 151.21V151.2Z" fill="#E7D47E"/>
<path d="M252.07 104.4C251.72 106.52 251.08 111.16 251.14 113.17C251.19 114.73 252.96 115.32 253.99 114.12C255.08 112.84 255.43 111.05 255.67 109.44L266.7 126.96C265.99 128.14 265.98 128.92 264.54 129.36C263.53 128.18 261.93 127.41 260.55 126.75C256.97 125.05 252.7 123.83 249.19 122.16C244.1 119.73 235.59 106.12 232.16 101.04C233.09 99.76 233.71 98.23 234.7 96.98C236.6 94.57 239 92.68 241.52 90.96L252.07 104.4Z" fill="#5F593F"/>
<path d="M141.99 109.92L139.93 109.46C136.87 109.03 134.85 112.44 136.98 114.82C137.2 115.07 138.06 115.68 138.4 115.68V115.92C137.27 116.01 130.67 119.55 128.97 120.28C120.37 123.98 111.61 127.37 102.43 129.36L104.94 131.29C107.61 136.78 109.79 143.5 104.7 148.31C103.71 149.25 101.74 150.33 100.99 151.2C102.38 147.75 103.05 144.55 102.36 140.83C101.59 136.66 100.26 134.67 96.1401 133.37C93.6001 132.57 90.6801 133.15 88.0601 132.94L86.6001 129.13C96.3801 126.17 105.71 122.06 115.15 118.21C123.38 114.86 131.81 111.83 139.69 107.73C139.99 107.58 140.2 107.27 140.44 107.05C140.69 107.05 141.76 109.49 142 109.93L141.99 109.92Z" fill="#C1CB4A"/>
<path d="M276.78 146.16C276.67 146.22 276.4 146.76 276.04 146.98C271.63 149.69 264.08 151.92 259.11 149.8C250.53 146.15 244.53 137.47 239.61 129.95C236.39 127.73 233.85 131.7 232.61 134.23C230.88 137.75 230.05 141.92 227.61 145.07C225.17 148.22 219.03 152.59 214.92 150.58C214.66 150.45 211.59 147.38 211.31 146.99C210.75 146.21 210.86 145.8 210.59 145.19C214.06 143.7 218.23 142.68 221.55 140.91C223.69 139.77 226.89 136.42 228.2 134.37C230.46 130.82 231.38 125.82 236.86 125.98C242.34 126.14 243.55 131.51 246.8 134.52C251.88 139.21 260.49 145 267.54 145.21C270.58 145.3 274.12 144.07 276.78 146.16Z" fill="#BBD085"/>
<path d="M297.4 126C297.34 126.44 297.48 127.03 297.4 127.44C296.96 129.61 294.81 132.04 295.96 134.64C295.04 134.69 294.08 135.06 293.08 134.88C293.03 134.69 292.14 133.86 291.92 133.52C291.37 132.69 290.18 130.21 289.35 130.08C287.85 129.84 287.39 130.73 287.57 132.11L289.48 135.6C287.96 135.82 286.41 136.08 284.92 136.44C277.1 138.33 272.3 143.22 263.57 141.01C257.36 139.44 254.47 134.35 250.15 130.44C249.16 129.54 247.85 128.79 246.9 127.93C245.33 126.5 244.02 124.29 242.35 122.88C241.32 122.01 239.09 122.39 239.11 120.73C241.36 121.87 244.64 123.15 246.63 124.36C247.56 124.93 248.82 126.46 249.79 127.2C253.45 130.01 257.67 133.22 262.49 132.96C268.44 132.65 279.59 130.32 284.66 127.3C287.1 125.85 289.36 123.78 291.76 122.24L297.39 126H297.4Z" fill="#93DA99"/>
<path d="M312.03 89.76C316.02 88.6 320.28 87.52 324.21 86.22C327.21 85.23 330.04 83.73 333.14 83.04C333.6 93.13 331.43 102.74 327.36 111.88C327.25 112.12 326.95 112.23 326.91 112.32L323.08 113.76C322.31 110.81 320.01 108.49 318.76 105.84C319.49 105.7 320.16 105.26 320.76 104.84C321.64 104.21 324.42 102.09 324.52 101.14C324.64 99.97 323.74 99.11 322.59 99.46C321.7 99.73 318.08 103.81 317.08 103.34L310.44 93.49L312.05 89.77L312.03 89.76Z" fill="#3A3A3A"/>
<path d="M240.08 136.32C241.55 138.33 243.1 140.5 244.64 142.43C245.31 143.26 247.01 144.43 247.05 145.55L238.88 162.62C231.76 161.04 224.77 158.45 218.73 154.32C218.48 153.96 221.94 153.3 222.26 153.17C225.54 151.86 229.6 148.04 231.33 144.97C233.31 141.47 234.24 136.86 236.48 133.69C237.68 134.41 238.68 136.07 240.08 136.33V136.32Z" fill="#E7D47E"/>
<path d="M297.4 126C300.7 126.49 301.21 128.72 302.48 131.35C302.81 132.04 302.83 133.23 303.98 133.33C307.52 133.63 313.03 130.33 315.38 127.79C315.82 127.31 316.07 126.51 316.59 126.12C317.66 125.33 320.21 124.55 321.6 123.7C323.24 122.69 324.65 121.36 326.05 120.06C326.7 120.01 329.42 123.28 329.74 123.99C330.82 126.3 330.35 131.22 329.65 133.69C328.76 136.84 326.02 140.53 322.57 140.88C323.16 137.77 324.05 134.85 323.78 131.63C323.69 130.52 323.51 129.97 322.21 130.06C320.72 130.16 320.74 132.51 320.22 133.85C318.78 137.54 315.65 140.86 312.57 143.26C307.87 141.05 302.52 140.78 297.39 140.89C297.3 139.59 298.15 138.51 298.59 137.29C299.07 135.95 299.33 135.43 299.31 133.93C299.31 133.16 299.11 132.52 299.07 131.77C299.66 129.63 300.87 127.12 297.39 127.45C297.47 127.04 297.33 126.45 297.39 126.01L297.4 126Z" fill="#68C56F"/>
<path d="M157.08 145.45C157.44 146.92 160.05 154.05 159.45 155L132.39 167.52C132.43 163.55 132.1 159.51 130.71 155.77L147.92 148.39L157.08 145.46V145.45Z" fill="#D8BE50"/>
<path d="M257.59 89.52C258.85 92.18 260.34 94.71 261.63 97.35C263.79 101.78 265.61 105.75 268.1 110.08C268.75 111.2 270.91 114.05 271.16 114.96C271.46 116.03 269.37 122.43 268.68 123.54C268.53 123.79 268.69 123.96 268.14 123.85C266.57 120.57 264.45 117.36 262.48 114.27C260.41 111.02 258.36 107.72 256.03 104.64C255.79 103.76 256 102.91 255.43 102.12C254.8 101.26 254.23 101.71 253.51 101.4C252.52 100.98 248.29 94.81 247.26 93.49C246.69 92.76 244.38 90.42 244.18 89.84C244.12 89.66 244.11 89.47 244.16 89.29C244.5 89.23 244.79 89.05 245.11 88.93C246.03 88.59 248.73 87.92 249.66 87.84C252.26 87.61 255.14 88.97 257.57 89.52H257.59Z" fill="#ACA68C"/>
<path d="M273.18 169.68C274.03 169.35 274.78 169.31 275.67 168.93C278.25 167.83 282.13 164.98 284.1 162.96C287.13 159.86 290.56 155.72 290.69 151.2C296.3 154.73 300.01 161.28 303.07 167.03C300.98 169.54 297.18 170.91 293.93 171.12C287.58 171.53 279.51 170.62 273.19 169.68H273.18Z" fill="#D8BE50"/>
<path d="M296.2 100.32L300.04 106.32C298.84 106.25 298.09 106.16 297.7 107.46C297.18 109.2 296.74 113.28 296.95 115.05C297.19 117.03 298.71 117.85 299.93 116.17L300.76 107.28C304.57 112.95 308.39 118.64 312.51 124.08C311.08 124.63 311.13 125.12 309.15 125.04C308.14 125 305.57 124.96 304.72 124.8C304.15 124.69 303.91 124.11 303.41 123.95C302.94 123.8 302.27 123.95 302 123.8C301.9 123.74 301.06 122.18 300.75 121.82C298.71 119.42 295.88 117.31 292.6 118.57C291.92 117.87 291.52 117.41 290.44 117.85C287.88 115.16 287.51 111.96 287.81 108.37C288.26 102.9 291.04 101.02 296.2 100.33V100.32Z" fill="#5F593F"/>
<path d="M137.67 102.72C138.02 103.31 139.05 103.91 138.87 104.88C137.93 105 136.92 105.41 136.07 105.8C120.89 112.84 105.39 119.44 89.5901 125.05C84.2401 126.95 71.8901 131.8 66.8001 131.78C54.7001 131.75 41.1401 131.36 29.2201 129.05C25.6301 128.36 22.6901 127.85 20.6401 124.56C21.7401 124.7 22.1601 125.74 22.9701 126.18C25.4101 127.49 31.7601 128.23 34.7001 128.6C45.0501 129.91 56.0201 130.5 66.3101 129.81C90.0101 122.87 112.83 113.4 135.61 104.11L137.68 102.7L137.67 102.72Z" fill="#DE61C4"/>
<path d="M298.6 137.28C298.16 138.5 297.31 139.58 297.4 140.88C290.22 141.04 282.95 142.47 276.77 146.16C274.11 144.07 270.56 145.3 267.53 145.21C260.48 145 251.87 139.22 246.79 134.52C243.54 131.51 242.18 126.14 236.85 125.98C231.52 125.82 230.45 130.83 228.19 134.37C226.88 136.43 223.68 139.77 221.54 140.91C218.23 142.68 214.05 143.7 210.58 145.19C209.42 142.56 208.82 141.52 208.9 138.47C209.62 138.55 210.59 138.63 211.26 138.87C212.66 139.39 212.63 140.2 214.78 140.38C218.75 140.73 221.83 138.66 224.37 135.83C228.65 131.08 230.39 123.24 238.46 124.6C242.51 125.28 244.44 129.7 247.03 132.11C252.26 136.97 260.38 143.53 267.78 143.53C275.18 143.53 280.02 139.91 287.08 138.35C290.8 137.53 294.84 136.86 298.59 137.27L298.6 137.28Z" fill="#A9D68F"/>
<path d="M274.14 93.6C274.85 94.84 274.77 96.42 276.48 96.67C277.76 96.86 278.97 96.14 279.17 94.8C282.68 95.62 286.35 96.91 289.88 96.04C290.59 95.86 291.22 95.47 291.88 95.28C292.14 96.18 293.09 96.84 293.56 97.68C287.54 99.14 285.1 102.46 284.69 108.6C284.42 112.72 285.05 116.35 287.81 119.52C286.7 120.22 285.67 121 284.45 121.68L275.34 105.6C275 101.07 272.83 96.34 270.3 92.64C271.61 92.92 272.88 93.29 274.14 93.6Z" fill="#5A5C3C"/>
<path d="M259.75 78.24C259.36 79.99 260.52 79.99 261.32 80.87C263.03 82.75 263.28 84.99 264.31 86.88C260.19 84.51 256.09 84.49 251.47 84.47C247.57 84.45 243.26 83.58 239.36 82.68C237.59 82.27 235.65 82.32 234.9 80.41L235.16 79.92C239.38 76.99 243.32 73.5 248.36 72.01C252.26 73.71 256.24 75.81 259.74 78.23L259.75 78.24Z" fill="#D8DE75"/>
<path d="M90.6602 135.84C91.7902 137.81 93.9802 138.91 94.5002 141.36C89.1302 137.97 84.0902 147.52 89.1002 151.2C90.4902 152.22 92.0302 152.15 93.5402 151.44C93.0602 152.83 92.5902 154.22 91.3702 155.14C90.8002 155.57 89.7502 155.61 89.7102 156.48C86.3102 156.96 80.5202 155.61 79.2102 151.99C78.3002 149.48 79.4202 145.38 80.3502 142.92C82.1302 138.25 85.7402 136.14 90.6702 135.84H90.6602Z" fill="#AC3332"/>
<path d="M43.8898 133.68C43.6398 135.16 42.9498 136.88 42.9598 138.38C42.9598 139.21 43.7198 141.02 43.6198 141.43C43.5298 141.77 42.4998 142.56 42.1698 143.11C39.8298 146.99 37.8998 155.2 36.7398 159.76C36.6898 159.94 36.8198 160.55 36.3498 160.32C35.9498 160.12 34.0598 156.11 33.8198 155.41C31.6198 148.8 31.6998 139.36 34.4598 132.95L43.8898 133.69V133.68ZM38.3098 139.48C36.1498 139.93 35.4098 144.97 38.6198 144.13C41.5098 143.37 40.9998 138.92 38.3098 139.48Z" fill="#D8DE75"/>
<path d="M305.8 91.68C306.06 92.32 306.86 92.69 307.24 93.12C307.76 93.71 308.63 94.83 309.16 95.52C310.53 97.31 312.01 99.6 313.24 101.52C314.47 103.44 315.86 105.73 317.08 107.76C318.3 109.79 319.65 111.86 320.68 114C321.01 114.69 321.26 115.78 321.59 116.56C322 117.52 322.92 117.98 322.35 119.04C321.73 117.99 320.09 118.19 318.99 118.08L318.51 121.68C316.88 122.51 316.1 122.56 314.67 123.12C313.03 120.45 310.98 118.08 309.2 115.52C305.63 110.39 302.42 105.02 298.6 100.08C297.73 98.95 297.1 98.25 296.2 97.2C295.6 96.5 294.62 95.41 294.52 94.56C294.68 94.52 294.84 94.36 295 94.32C295.22 95.53 296.45 96.34 297.31 97.14C298.97 96.35 307.08 98.88 304.46 95.05C303.89 94.21 302.69 93.67 302.44 92.63C303.52 92.33 304.69 91.98 305.8 91.67V91.68ZM311.31 100.08L309.51 97.2C309.87 98.61 309.66 99.65 311.31 100.08ZM315.15 122.64C316.17 118.74 316.29 114.5 315.03 110.65C313.22 105.13 310.89 102.44 305.21 100.8C303.26 100.24 301.74 100.43 299.81 100.09L315.16 122.65L315.15 122.64ZM319.95 114L318.51 111.6L319.01 113.97L319.94 113.99L319.95 114Z" fill="#696968"/>
<path d="M194.99 64.56C194.57 69.41 191.7 73.56 188.4 77.05C182.86 82.92 176.92 87.34 170.12 91.63C163.8 95.62 157.55 99.24 150.28 101.29C150.02 101.27 149.14 99.19 148.94 98.88C153.21 97.57 156.89 94.94 160.77 92.84C163.01 91.63 165.35 90.58 167.57 89.32C176.34 84.37 190.51 74.67 194.38 65.26C194.53 64.89 194.35 64.42 194.99 64.56Z" fill="#DE61C4"/>
<path d="M176.52 93.84C178.28 96.16 179.84 98.76 180.12 101.76C179.8 101.42 178.02 100.31 177.54 100.14C174.8 99.19 171.39 102.37 171.03 105.02C170.44 109.42 174.15 114.54 178.68 111.36C178.36 112.04 178.12 113.39 178.92 113.76C175.79 116.36 171.26 118.54 168.03 114.7C162.78 108.45 168.28 94.27 176.52 93.84Z" fill="#AC3332"/>
<path d="M192.59 130.8C192.22 133.21 193.79 135.38 193.81 137.88C193.85 143.33 192.39 147.96 189.33 152.38C188.29 153.89 185.94 156.19 185.18 157.59C184.99 157.94 184.81 158.5 184.91 158.88C173.38 160.03 181.44 153.02 184.2 148.93C187.66 143.79 190.5 137.86 190.55 131.53C191.05 130.53 191.91 130.97 192.58 130.8H192.59Z" fill="#C1CB4A"/>
<path d="M76.9899 143.52C76.7699 144.21 76.5099 144.93 76.5099 145.68C71.8199 144.2 66.7399 143.05 62.1999 141.16C61.4699 140.86 58.1099 139.32 57.7399 138.97C57.0699 138.32 56.2699 135.23 57.2399 134.91C59.2199 135.07 61.2799 134.67 63.1899 134.62C64.4699 134.59 65.5999 134.81 66.7699 134.85C67.2999 134.87 67.9799 134.45 68.6699 134.63C68.9099 134.69 68.9599 135.17 69.1899 135.35C70.1399 136.1 71.3499 136.78 72.2099 137.62C73.4499 138.83 74.1099 141.29 76.0399 140.87C75.8199 141.47 75.9999 143.6 76.9999 143.51L76.9899 143.52Z" fill="#917D8C"/>
<path d="M234.32 84.72L237.1 90.25C235.62 91.46 234.01 92.89 232.76 94.32C232.38 94.75 231.02 96.88 230.81 96.95C230.5 97.05 228.89 95.82 228.56 95.52C226.53 93.67 225.38 91.07 224 88.8L230 83.52C231.48 83.87 232.92 84.39 234.32 84.72Z" fill="#5A5C3C"/>
<path d="M53.7301 134.88C53.6301 136.81 53.9601 139.36 55.3001 140.87C56.6401 142.38 59.1101 142.71 60.6501 143.88C59.2901 147.55 54.8201 146.46 51.9201 145.45C47.0401 143.76 44.3501 138.85 47.3001 134.21L53.7301 134.88Z" fill="#AC3332"/>
<path d="M249.67 87.84C248.74 87.92 246.04 88.59 245.12 88.93C244.8 89.05 244.51 89.23 244.17 89.29C244.12 89.47 244.13 89.66 244.19 89.84C244.39 90.41 246.7 92.75 247.27 93.49C248.29 94.81 252.53 100.98 253.52 101.4C254.24 101.71 254.81 101.26 255.44 102.12C256.02 102.91 255.8 103.76 256.04 104.64C258.37 107.72 260.41 111.01 262.49 114.27C264.57 117.53 266.58 120.57 268.15 123.85C268.7 123.97 268.53 123.79 268.69 123.54C269.39 122.43 271.47 116.03 271.17 114.96C270.92 114.06 268.75 111.21 268.11 110.08C265.62 105.75 263.8 101.78 261.64 97.35C260.35 94.7 258.86 92.17 257.6 89.52C257.81 89.57 258.11 89.47 258.32 89.52C259.2 91.75 260.61 93.76 261.64 95.91C264.11 101.08 266.13 105.74 269.16 110.71C269.89 111.91 270.76 113.05 271.51 114.24C271.56 115.19 273.14 117.16 273.67 118.08C274.95 120.32 276.22 122.57 277.51 124.8C277.38 124.85 277.23 124.96 277.03 125.04L273.43 119.04C273.04 121.66 271.73 124.07 270.63 126.45C270.46 126.82 270.15 126.97 270.55 127.43C270.5 127.44 270.41 127.82 270.08 127.57L267.92 124.79C267.97 123.88 266.41 121.64 265.86 120.73C262.85 115.7 259.44 110.25 255.93 105.59C254.91 104.23 253.64 103.05 252.81 101.99C250.55 99.08 248.46 95.87 246.09 93C245.57 92.37 243.79 89.99 243.22 89.99C243.46 89.04 241.7 87.83 241.54 87.35C241.45 87.08 241.6 86.49 241.54 86.15C244.26 86.68 247.08 86.95 249.69 87.83L249.67 87.84Z" fill="#696968"/>
<path d="M312.03 89.76L310.42 93.48L317.06 103.33C318.06 103.81 321.68 99.73 322.57 99.45C323.71 99.1 324.62 99.96 324.5 101.13C324.4 102.08 321.63 104.2 320.74 104.83C320.15 105.26 319.47 105.7 318.74 105.83C319.99 108.48 322.29 110.8 323.06 113.75L326.89 112.31C326.6 112.94 326.46 113.94 326.06 114.72C323.34 119.99 323.68 114.76 322.58 114.11C322.1 113.83 321.21 114.06 320.66 113.99C319.63 111.85 318.29 109.78 317.06 107.75L316.82 106.55L318.02 106.19L316.55 103.71L315.18 103.89C314.91 103.14 314.38 102.54 313.9 101.91C313.81 101.79 313.37 100.99 313.23 101.5C312 99.58 310.53 97.29 309.15 95.5C311.1 93.83 308.94 93.16 308.07 91.66L307.23 93.1C306.85 92.67 306.05 92.3 305.79 91.66C307.87 91.08 309.94 90.34 312.03 89.74V89.76Z" fill="#1A1A19"/>
<path d="M133.56 81.14L141.51 92.64C139.19 92.28 137.09 92.43 134.8 92.78C131.66 88.36 128.32 84.1 124.01 80.77C125.92 80.02 128.07 79.94 130.05 80.48C131.29 80.82 132.18 81.77 133.56 81.15V81.14Z" fill="#7D4D2F"/>
<path d="M249.45 147.61C249.83 147.35 252.58 149.44 253 149.91L252.94 150.24L230.6 185.03L249.44 147.61H249.45Z" fill="#7D4D2F"/>
<path d="M151.58 110.16C149.44 109.51 147.37 109.14 145.13 109.67L137.05 96.02C136.89 95.76 136.92 95.56 137.18 95.4C137.75 95.05 140.29 95.43 141.03 95.64C141.42 95.75 144.07 96.83 144.25 96.98C144.57 97.24 147.99 103.11 148.49 104.01C149.6 105.98 150.66 108.09 151.57 110.17L151.58 110.16Z" fill="#7D4D2F"/>
<path d="M294.76 97.44C294.85 98.74 296.4 99.12 296.68 100.32C296.52 100.34 296.36 100.3 296.2 100.32C291.04 101.02 288.26 102.9 287.81 108.36C287.51 111.95 287.88 115.14 290.44 117.84C289.91 118.05 289.15 118.9 288.6 119.25C288.32 119.43 287.94 119.43 287.8 119.52C285.05 116.35 284.41 112.72 284.68 108.6C285.09 102.46 287.53 99.13 293.55 97.68C293.96 97.58 294.33 97.5 294.75 97.44H294.76Z" fill="#1A1A19"/>
<path d="M191.87 102.96C192.1 103.7 192.38 104.16 192.37 105C192.36 105.84 191.81 108.56 191.56 109.49C190.79 112.45 188.51 113.86 185.96 115.17C185.04 115.64 182.18 117.09 181.38 117.31C181.01 117.41 180.35 117.53 180.12 117.13C184.93 113.65 187.54 106.83 187.8 101.05C189.3 101.37 190.43 102.54 191.88 102.97L191.87 102.96Z" fill="#C1CB4A"/>
<path d="M130.23 77.52C128.8 77.26 127.28 77.16 125.82 77.31C124.48 77.45 121.52 78.74 120.75 78.7C120.06 78.67 117.94 76.92 116.41 76.81C115.19 76.72 114.56 77.51 113.44 77.39C113.94 75.81 113.98 74.65 115.24 73.44C120.04 68.86 127.09 73.15 130.23 77.52Z" fill="#7D4D2F"/>
<path d="M89.6999 156.48C89.7499 155.61 90.7899 155.57 91.3599 155.14C92.5899 154.22 93.0599 152.82 93.5299 151.44C97.0699 149.77 97.9799 143.57 94.4899 141.36C93.9699 138.91 91.7799 137.81 90.6499 135.84C93.1399 135.69 96.3699 136.06 98.0899 138.11C98.5599 138.67 99.0599 140.54 99.2099 141.31C100.51 147.8 96.5499 155.5 89.6899 156.48H89.6999Z" fill="#861717"/>
<path d="M298.6 100.08C302.41 105.02 305.63 110.39 309.2 115.52C310.98 118.08 313.04 120.46 314.67 123.12C314.1 123.35 313.34 123.76 312.51 124.08C308.38 118.64 304.57 112.95 300.76 107.28C300.62 107.08 299.95 106.91 300.04 106.32L296.2 100.32C296.36 100.3 296.52 100.34 296.68 100.32C297.32 100.24 297.97 100.25 298.6 100.08Z" fill="#413C27"/>
<path d="M178.92 113.76C178.12 113.39 178.36 112.04 178.68 111.36C181.37 109.47 182.48 104.28 180.12 101.76C179.85 98.76 178.29 96.16 176.52 93.84C179.68 93.67 184.21 95.48 184.65 99.03C185.26 104.01 182.68 110.64 178.92 113.76Z" fill="#861717"/>
<path d="M337.22 185.28C338.62 183.94 340.62 183.14 342.26 181.8C345.83 178.88 348.89 173.95 348.01 169.2C348.2 169.13 348.31 168.82 348.85 168.73C352.35 168.18 353.82 171.42 352.88 174.43C352.43 175.88 350.81 177.43 349.69 178.44C346.08 181.67 341.8 183.82 337.21 185.28H337.22Z" fill="#A263BF"/>
<path d="M57.08 149.52C59.86 149.46 61.47 148.33 63.08 146.16C67.47 146.89 68.1 151.47 64.76 154.2C60.78 157.46 55.52 154.76 57.08 149.52Z" fill="#C8B867"/>
<path d="M159.42 133.52C159.91 133.9 160.09 134.66 161.18 134.81L165.01 148.56L160.87 147.12L155.42 132.59C156.4 132.41 158.65 132.91 159.42 133.51V133.52Z" fill="#522715"/>
<path d="M76.0299 140.88C76.0699 140.78 76.9399 140.38 76.9899 139.54C77.0999 137.71 73.5699 135.18 72.4399 133.92L83.5599 130.3C83.9199 131.1 85.5499 133.37 84.9099 134.04C84.5599 134.41 82.3499 135.36 81.5699 135.98C79.0999 137.94 77.9399 140.59 76.9899 143.52C75.9899 143.61 75.8099 141.48 76.0299 140.88Z" fill="#696968"/>
<path d="M305.08 144.48C305.24 144.35 308.65 144.98 309.11 145.12C310.76 145.63 311.09 146.8 313.3 146.34C315.03 145.98 317.7 142.44 319.23 141.36C317.76 146.06 315.73 150.64 313.12 154.79L305.09 144.48H305.08Z" fill="#D8BE50"/>
<path d="M238.16 85.44C238.36 86 238.88 87.5 239.24 87.84C239.57 88.16 239.99 88.02 240.08 88.08C240.46 88.34 241.32 90.03 241.76 90.48C241.68 90.53 241.61 90.9 241.52 90.96C239 92.68 236.61 94.57 234.7 96.98C233.71 98.23 233.09 99.75 232.16 101.04C231.15 99.54 230.04 98.11 229.02 96.62C228.78 96.26 228.47 96.06 228.56 95.52C228.89 95.82 230.49 97.04 230.81 96.95C231.02 96.89 232.38 94.75 232.76 94.32C234.01 92.89 235.62 91.45 237.1 90.25L234.32 84.72C235.57 85.01 236.9 85.17 238.16 85.44Z" fill="#1A1A19"/>
<path d="M154.46 116.64L154.22 129.12L146.78 112.44C149.19 111.89 151.29 113.53 153.5 114.12C153.92 114.42 154.23 116.15 154.46 116.64Z" fill="#7D4D2F"/>
<path d="M294.28 86.88C294.45 88.39 296.17 89.61 297.16 90.72C295.4 91.16 293.38 91.66 291.64 92.16C290.97 89.94 288.37 91.01 288.76 93.12C288.57 93.17 288.06 93.87 287.47 93.59L282.04 92.28C282.92 91.61 283.73 90.67 284.56 90.01C285.45 89.3 289.92 85.98 290.67 85.79C291.76 85.5 293.3 86.43 294.27 86.89L294.28 86.88Z" fill="#D8DE75"/>
<path d="M261.43 90.24C262.19 92.35 263.4 94.29 264.35 96.32C264.99 97.69 265.42 99.21 266.1 100.57C267.78 103.95 270.2 107.16 271.75 110.64C272.13 110.6 272.2 109.61 272.22 109.32C272.53 105.51 270.96 102.91 269.15 99.68C267.53 96.8 265.2 94.23 264.31 90.96C264.49 91.03 264.76 90.96 264.9 91.2L265.51 92.4L271.51 102.48C271.54 102.55 271.48 102.65 271.51 102.72L271.75 103.2C272.62 105.73 273.87 107.4 275.11 109.68C275.78 110.9 276.3 112.23 276.99 113.44C278.72 116.5 281.3 119.36 282.07 122.88C281.91 122.96 281.76 123.04 281.59 123.12L280.76 120.71L275.12 111.12C275.09 112.48 274.35 113.9 274.7 115.26C275.03 116.53 278.36 121.33 279.25 122.94C279.46 123.31 279.75 123.58 279.67 124.08C279.51 124.15 279.35 124.25 279.19 124.32L274.15 115.92C274.06 114.76 272.61 112.88 271.99 111.84C268.74 106.32 266.27 101.72 263.56 95.91C262.69 94.04 261.28 92.23 260.96 90.24C261.1 90.27 261.3 90.21 261.44 90.24H261.43Z" fill="#696968"/>
<path d="M267.9 124.8C267.85 125.75 267.06 126.35 266.7 126.96L255.67 109.44C255.73 109 255.62 108.46 255.67 108C255.75 107.2 255.96 106.41 255.91 105.6C259.42 110.26 262.83 115.71 265.84 120.74C266.39 121.65 267.94 123.89 267.9 124.8Z" fill="#413C27"/>
<path d="M264.3 90.96C265.19 94.23 267.52 96.8 269.14 99.68C270.96 102.91 272.52 105.5 272.21 109.32C272.19 109.61 272.12 110.6 271.74 110.64C270.19 107.16 267.77 103.95 266.09 100.57C265.41 99.21 264.99 97.69 264.34 96.32C263.39 94.29 262.18 92.36 261.42 90.24C262.32 90.46 263.47 90.65 264.3 90.96Z" fill="#ACA68C"/>
<path d="M260.95 90.24C261.27 92.23 262.68 94.04 263.55 95.91C266.26 101.72 268.73 106.32 271.98 111.84C271.75 112.39 271.47 113.69 271.5 114.24C270.74 113.05 269.88 111.92 269.15 110.71C266.13 105.74 264.11 101.08 261.63 95.91C260.6 93.75 259.19 91.75 258.31 89.52C259.19 89.73 260.07 90.02 260.95 90.24Z" fill="#413C27"/>
<path d="M284.45 121.68C283.48 122.22 282.97 122.43 282.05 122.88C281.28 119.36 278.71 116.5 276.97 113.44C276.28 112.23 275.76 110.9 275.09 109.68C275.48 108.65 275.4 107 275.33 105.84C275.33 105.76 275.33 105.68 275.33 105.6L284.44 121.68H284.45Z" fill="#413C27"/>
<path d="M154.46 116.64C156.49 121.01 158.58 125.39 159.5 130.2C157.81 129.86 156.13 129.42 154.37 129.61C154.08 129.55 154.27 129.2 154.22 129.12L154.46 116.64Z" fill="#522715"/>
<path d="M198.35 159.36C198.17 158.28 199.08 157.66 199.31 156.72C198.08 156.18 196.23 155.82 195.95 154.32C198.12 153.66 200.08 152.98 202.49 153.42C203.58 153.62 205.6 155.39 205.76 156.4C205.84 156.88 204.92 157.16 204.58 157.32C202.73 158.15 200.41 158.53 198.35 159.37V159.36Z" fill="#C1CB4A"/>
<path d="M264.54 129.36C259.95 130.77 254.39 127.25 251 124.31C250.37 123.76 249.43 122.96 249.19 122.16C252.7 123.83 256.97 125.05 260.55 126.75C261.93 127.41 263.54 128.18 264.54 129.36Z" fill="#1A1A19"/>
<path d="M141.99 109.92C142.6 111.05 143.1 112.14 143.67 113.28C143.56 113.31 143.48 113.5 143.43 113.52C142.64 113.84 138.73 115.69 138.39 115.68C138.05 115.67 137.19 115.06 136.97 114.82C134.84 112.44 136.87 109.03 139.92 109.46L141.98 109.92H141.99Z" fill="#B7B143"/>
<path d="M259.75 78.24C263.03 80.51 266.78 83.96 269.34 87.01C269.96 87.75 270.47 88.61 271.02 89.4C269.25 89.51 265.21 88.54 264.31 86.88C263.29 84.99 263.03 82.75 261.32 80.87C260.52 79.99 259.36 79.98 259.75 78.24Z" fill="#C1CB4A"/>
<path d="M302.44 92.64C302.69 93.68 303.89 94.22 304.46 95.06C307.08 98.89 298.97 96.36 297.31 97.15C296.46 96.35 295.22 95.54 295 94.33C297.44 93.68 300.01 93.32 302.44 92.65V92.64Z" fill="#ACA68C"/>
<path d="M165.73 97.92C164.52 100.68 163.32 103.51 163.09 106.56C160.99 105.14 159.03 103.39 156.62 102.48C156.52 101.87 156.67 102.11 156.95 101.98C158.45 101.31 160.08 100.84 161.57 100.13C163.06 99.42 164.25 98.5 165.72 97.93L165.73 97.92Z" fill="#917D8C"/>
<path d="M270.3 92.64C272.83 96.34 275 101.07 275.34 105.6C275.34 105.68 275.34 105.76 275.34 105.84C274.77 105.87 274.72 105.5 274.49 105.13C273.39 103.34 272.6 101.07 271.54 99.2C270.68 97.67 268.17 94.49 267.77 93.13C267.65 92.73 267.62 92.34 267.66 91.92C267.76 91.81 269.95 92.56 270.3 92.64Z" fill="#1A1A19"/>
<path d="M281.57 123.12C280.93 123.42 280.4 123.76 279.65 124.08C279.73 123.58 279.43 123.32 279.23 122.94C278.34 121.33 275 116.52 274.68 115.26C274.33 113.9 275.07 112.48 275.1 111.12L280.74 120.71L281.57 123.12Z" fill="#ACA68C"/>
<path d="M43.17 222C42.37 219.73 41.49 217.32 40.77 215.04C46.19 211.57 49 221.23 43.17 222Z" fill="#C8B867"/>
<path d="M234.56 184.8C234.56 184.8 234.6 185.19 234.82 185.37C237.48 187.64 239.52 191.22 240.32 194.63L231.94 188.27L234.07 184.94L234.56 184.79V184.8Z" fill="#366A4A"/>
<path d="M198.83 163.44C200.68 163.37 202.07 163.38 203.61 164.54C205.15 165.7 205.77 168.28 204.67 169.94C203.97 169.91 203.25 169.96 202.55 169.93C201.78 169.89 200.45 169.47 199.79 169.45C200.1 168.26 201.17 168.43 200.98 166.95C200.82 165.71 199.99 166.05 199.57 165.47C199.27 165.06 199.06 163.98 198.83 163.45V163.44Z" fill="#C1CB4A"/>
<path d="M292.6 118.56C295.88 117.3 298.71 119.4 300.75 121.81C301.06 122.17 301.9 123.74 302 123.79C302.27 123.94 302.94 123.79 303.41 123.94C303.91 124.1 304.14 124.68 304.72 124.79C305.57 124.95 308.14 124.99 309.15 125.03C308.98 125.58 308.53 125.49 308.08 125.52C303.11 125.85 295.88 121.94 292.6 118.55V118.56Z" fill="#1A1A19"/>
<path d="M277.02 125.04C274.91 125.86 272.79 126.86 270.54 127.44C270.14 126.97 270.45 126.83 270.62 126.46C271.72 124.07 273.03 121.66 273.42 119.05L277.02 125.05V125.04Z" fill="#ACA68C"/>
<path d="M160.69 157.68C160.9 157 161.92 156.66 162.23 156.22C163.34 154.69 161.71 152.18 162.01 150.48C162.74 151.18 164.8 151.44 165.36 152.17C165.85 152.81 165.95 156.03 165.49 156.59C164.26 158.1 162.41 157.93 160.7 157.67L160.69 157.68Z" fill="#522715"/>
<path d="M230.01 83.52L224.01 88.8C223.47 87.92 223.05 86.99 222.57 86.16L226.41 82.56C227.63 82.83 228.81 83.23 230.01 83.52Z" fill="#1A1A19"/>
<path d="M227.84 183.84L220.56 179.48L219.68 178.32C221.29 177.99 228.39 180.16 228.77 181.6L227.83 183.83L227.84 183.84Z" fill="#366A4A"/>
<path d="M203.62 144L196.19 144.72L196.43 141.36L201.77 141.89C202.09 142.06 203.91 143.74 203.62 144Z" fill="#D8BE50"/>
<path d="M279.17 124.32C278.65 124.54 277.92 124.63 277.49 124.8C276.2 122.57 274.93 120.32 273.65 118.08C274.05 117.54 274.18 116.59 274.13 115.92L279.17 124.32Z" fill="#413C27"/>
<path d="M226.41 82.56L222.57 86.16C222.53 86.1 222.26 85.99 222.13 85.77C221.88 85.33 219.5 81.53 219.69 81.37C221.97 81.49 224.19 82.07 226.4 82.57L226.41 82.56Z" fill="#3A3A3A"/>
<path d="M252.55 174.72C251.49 174.6 250.39 174.09 249.43 173.65C248.41 173.18 244.78 171.22 244.16 170.52C244.04 170.39 243.87 170.32 243.94 170.09L244.87 168.6C245.45 168.26 251.72 173.87 252.55 174.73V174.72Z" fill="#366A4A"/>
<path d="M192.11 179.52C192.53 177.04 193.72 174.95 193.31 172.32C193.76 172.53 194.79 172.43 194.96 172.95C195.11 175.06 195.51 180.76 192.11 179.52Z" fill="#C1CB4A"/>
<path d="M279.17 94.8C278.96 96.15 277.76 96.86 276.48 96.67C274.77 96.42 274.84 94.84 274.14 93.6C275.79 94 277.52 94.41 279.18 94.8H279.17Z" fill="#1A1A19"/>
<path d="M265.5 92.4C268.05 94.42 269.76 97.29 270.89 100.32C271.16 101.04 271.27 101.86 271.49 102.48L265.49 92.4H265.5Z" fill="#413C27"/>
<path d="M322.35 119.04C321.69 120.27 319.67 121.09 318.51 121.68L318.99 118.08C320.08 118.19 321.72 117.99 322.35 119.04Z" fill="#ACA68C"/>
<path d="M156.62 105.84L153.5 107.04C153.23 106.53 151.45 104.06 151.82 103.68C153.57 103.99 155.11 104.96 156.62 105.84Z" fill="#C1CB4A"/>
<path d="M294.28 86.88C296.11 87.74 297.79 88.78 299.32 90.12C299.43 90.66 299.09 90.42 298.76 90.51C298.2 90.66 297.58 90.61 297.16 90.72C296.17 89.61 294.45 88.39 294.28 86.88Z" fill="#C1CB4A"/>
<path d="M294.52 94.56C294.62 95.41 295.6 96.5 296.2 97.2C295.74 97.41 295.24 97.37 294.76 97.44C294.34 97.5 293.97 97.58 293.56 97.68C293.09 96.84 292.14 96.18 291.88 95.28C292.76 95.03 293.64 94.79 294.52 94.56Z" fill="#413C27"/>
<path d="M241.52 86.16C241.58 86.5 241.43 87.09 241.52 87.36L240.08 88.08C240 88.02 239.58 88.16 239.24 87.84C238.88 87.5 238.36 85.99 238.16 85.44C239.28 85.68 240.39 85.94 241.52 86.16Z" fill="#413C27"/>
<path d="M309.15 128.64C308.96 129.01 308.18 129.39 307.8 129.57C307.14 129.88 306.4 130.1 305.7 130.29L304.6 128.4L309.16 128.64H309.15Z" fill="#D8DE75"/>
<path d="M291.65 92.16C290.72 92.43 289.84 92.83 288.77 93.12C288.38 91.01 290.97 89.94 291.65 92.16Z" fill="#C8B867"/>
<path d="M240.08 136.32C238.69 136.06 237.68 134.4 236.48 133.68C236.74 133.31 236.85 132.77 237.32 132.48C237.56 132.48 239.7 135.8 240.08 136.32Z" fill="#BBD085"/>
<path d="M271.74 103.2L271.5 102.72C271.5 102.72 271.65 102.94 271.74 103.2Z" fill="#413C27"/>
<path d="M229.06 113.03C228.67 112.07 229.86 104.4 230.61 104.41L239.84 117.25C236.19 116.04 233.04 113.39 229.06 113.04V113.03Z" fill="#E7D47E"/>
<path d="M230.37 185.28C230.53 185.36 230.53 185.44 230.37 185.52V185.28Z" fill="#7D4D2F"/>
<path d="M336.74 185.52H336.5C336.5 185.52 336.54 185.35 336.62 185.28L336.74 185.52Z" fill="#A263BF"/>
<path d="M96.13 163.98C98.89 163.74 101.3 166.05 101.88 168.66C102.16 169.93 102.08 173.65 101.65 174.79C101.22 175.93 99.89 177.31 98.65 177.54C94.09 178.38 91.28 173.86 91.38 169.79C91.46 166.44 92.56 164.29 96.14 163.98H96.13Z" fill="#C8B867"/>
<path d="M84.66 255.6C84.18 254.08 83.87 252.57 83.46 251.04C84.19 251.06 83.99 250.17 84.53 249.59C85.6 248.42 87.62 248.62 89.04 248.94C93.11 249.84 93.75 259.28 87.53 257.65C86.29 257.33 85.83 255.94 84.66 255.6Z" fill="#B7B143"/>
<path d="M44.2098 174.56C47.8398 171.34 53.9198 175.32 51.1898 179.75C48.0398 184.87 39.4698 178.77 44.2098 174.56Z" fill="#C8B867"/>
<path d="M53.81 210.63C49.5 206.14 56.45 200.87 59.96 205.56C63.47 210.25 57.66 214.64 53.81 210.63Z" fill="#C8B867"/>
<path d="M99.2398 186.78C100.8 186.59 102.83 186.61 103.72 188.18C104.82 190.12 103.41 192.01 101.59 192.73C95.7498 195.05 92.3698 187.64 99.2398 186.78Z" fill="#C8B867"/>
<path d="M72.61 161.82C78.22 160.78 78.58 169.27 73.92 169.63C72.48 169.74 70.52 168.61 70.29 167.15C69.99 165.24 70.29 162.25 72.61 161.82Z" fill="#C8B867"/>
<path d="M118.24 158.64C118.37 158.69 118.43 158.85 118.48 158.88C119.13 160.98 119.36 163.16 119.44 165.36C119.44 165.44 119.44 165.52 119.44 165.6C117.6 166.85 114.62 166.61 113.34 164.63C111.2 161.33 114.71 157.37 118.25 158.64H118.24Z" fill="#C8B867"/>
<path d="M83.22 205.44C83.18 205.57 83.26 205.79 83.22 205.92C82.36 208.87 81.49 211.44 81.06 214.56C75.07 213.27 76.65 203.31 83.22 205.44Z" fill="#C8B867"/>
<path d="M118.17 133.49C123.67 132.25 122.8 139.95 118.83 140.17C114.86 140.39 115.53 134.09 118.17 133.49Z" fill="#C8B867"/>
<path d="M81.0698 214.8C81.0798 214.72 81.0598 214.64 81.0698 214.56C81.4998 211.44 82.3698 208.87 83.2298 205.92C88.2798 208.48 86.6998 214.99 81.0698 214.8Z" fill="#B7B143"/>
<path d="M116.32 180C116.32 179.94 116.34 179.81 116.32 179.76C117.42 178.48 117.55 176.74 118 175.2C118.03 175.09 118.18 174.93 118.24 174.72C125.47 174.85 121.97 184.62 116.32 180Z" fill="#B7B143"/>
<path d="M71.6402 251.33C75.9502 250.34 76.1702 256.26 72.7302 256.75C68.9302 257.3 68.9502 251.95 71.6402 251.33Z" fill="#C8B867"/>
<path d="M89.3898 277.25C94.0398 276.19 94.0298 282.58 90.5498 282.49C87.5498 282.41 86.6898 277.86 89.3898 277.25Z" fill="#C8B867"/>
<path d="M118 175.2C117.55 176.74 117.42 178.48 116.32 179.76C116.23 179.48 115.68 179.1 115.61 178.42C115.45 177.03 116.44 175.16 118 175.2Z" fill="#C8B867"/>
<path d="M143.42 113.52C143.09 115.14 141.85 116.21 140.18 116.18C139.57 116.17 139 115.87 138.38 115.92V115.68C138.72 115.68 142.62 113.84 143.42 113.52Z" fill="#C8B867"/>
<path d="M180.78 139.02C185.89 138.15 186.48 146 180.96 145.44C176.94 145.03 176.97 139.67 180.78 139.02Z" fill="#C8B867"/>
<path d="M199.24 117.89C204.13 116.88 203.47 125.53 198.22 122.4C195.94 121.04 197.03 118.34 199.24 117.89Z" fill="#C8B867"/>
<path d="M107.38 287.57C110.16 286.95 110.93 291.91 107.38 291.07C105.87 290.71 105.68 287.95 107.38 287.57Z" fill="#B7B143"/>
<path d="M119.44 165.36C119.36 163.16 119.13 160.98 118.48 158.88C121.18 160.26 121.75 163.3 119.44 165.36Z" fill="#B7B143"/>
<path d="M293.08 134.88C293.29 135.68 292.54 136.88 291.71 137C290.93 137.11 289.92 136.17 289.49 135.6L287.58 132.11C287.4 130.73 287.86 129.84 289.36 130.08C290.19 130.21 291.38 132.69 291.93 133.52C292.15 133.86 293.04 134.69 293.09 134.88H293.08Z" fill="#020201"/>
<path d="M299.08 131.76C298.9 132.41 298.75 133.51 298.6 133.92C298.06 135.36 296.68 134.6 295.96 134.64C294.81 132.04 296.95 129.61 297.4 127.44C300.88 127.11 299.67 129.62 299.08 131.76Z" fill="#020201"/>
<path d="M299.32 133.92H298.6C298.75 133.51 298.9 132.41 299.08 131.76C299.12 132.51 299.31 133.15 299.32 133.92Z" fill="#93DA99"/>
<path d="M243.2 90C243.77 90 245.55 92.37 246.07 93.01C248.44 95.88 250.53 99.09 252.79 102C252.23 102.59 252.45 103.35 252.31 103.92C252.29 104.02 252.11 104.18 252.07 104.4L241.52 90.96C241.61 90.9 241.68 90.53 241.76 90.48C241.93 90.38 243.02 90 243.2 90Z" fill="#413C27"/>
<path d="M255.67 108C255.62 108.46 255.73 109 255.67 109.44C255.44 111.06 255.09 112.85 253.99 114.12C252.96 115.32 251.19 114.72 251.14 113.17C251.07 111.16 251.72 106.52 252.07 104.4C252.11 104.18 252.29 104.02 252.31 103.92L255.67 108Z" fill="#1A1A19"/>
<path d="M300.04 106.32C299.95 106.91 300.62 107.08 300.76 107.28L299.93 116.17C298.71 117.85 297.18 117.03 296.95 115.05C296.74 113.28 297.19 109.19 297.7 107.46C298.09 106.16 298.84 106.25 300.04 106.32Z" fill="#1A1A19"/>
<path d="M94.5 141.36C98 143.57 97.08 149.77 93.54 151.44C92.03 152.15 90.49 152.22 89.1 151.2C84.09 147.52 89.12 137.97 94.5 141.36ZM91.79 143.8C90.02 144.06 89.14 148.75 91.29 148.98C92.96 149.16 94.47 145.76 93.41 144.49C93.14 144.17 92.23 143.73 91.79 143.8Z" fill="#020201"/>
<path d="M38.3102 139.48C41.0002 138.92 41.5102 143.37 38.6202 144.13C35.4102 144.97 36.1502 139.93 38.3102 139.48Z" fill="#C8B867"/>
<path d="M315.15 122.64L299.8 100.08C301.73 100.43 303.25 100.23 305.2 100.79C310.88 102.43 313.21 105.12 315.02 110.64C316.28 114.49 316.17 118.73 315.14 122.63L315.15 122.64Z" fill="#ACA68C"/>
<path d="M313.23 101.52C313.38 101.01 313.81 101.81 313.9 101.93C314.37 102.55 314.9 103.16 315.18 103.91L316.55 103.73L318.02 106.21L316.82 106.57L317.06 107.77C315.84 105.74 314.51 103.53 313.22 101.53L313.23 101.52Z" fill="#020201"/>
<path d="M296.2 97.2C297.1 98.25 297.73 98.95 298.6 100.08C297.97 100.25 297.32 100.24 296.68 100.32C296.4 99.12 294.85 98.74 294.76 97.44C295.24 97.37 295.74 97.41 296.2 97.2Z" fill="#020201"/>
<path d="M309.15 95.52C308.62 94.83 307.75 93.71 307.23 93.12L308.07 91.68C308.94 93.18 311.1 93.84 309.15 95.52Z" fill="#020201"/>
<path d="M311.31 100.08C309.66 99.65 309.87 98.62 309.51 97.2L311.31 100.08Z" fill="#ACA68C"/>
<path d="M319.95 114L319.01 113.97L318.51 111.6L319.95 114Z" fill="#ACA68C"/>
<path d="M180.12 101.76C182.48 104.28 181.37 109.47 178.68 111.36C174.14 114.54 170.43 109.42 171.03 105.02C171.39 102.38 174.8 99.19 177.54 100.14C178.02 100.31 179.8 101.41 180.12 101.76ZM174.91 108.89C177.1 110.69 179.66 105.52 177.84 103.92C174.83 101.27 172.48 106.9 174.91 108.89Z" fill="#020201"/>
<path d="M255.91 105.6C255.96 106.41 255.75 107.2 255.67 108L252.31 103.92C252.45 103.35 252.23 102.59 252.79 102C253.62 103.06 254.88 104.24 255.91 105.6Z" fill="#020201"/>
<path d="M274.14 115.92C274.19 116.59 274.06 117.54 273.66 118.08C273.13 117.16 271.55 115.19 271.5 114.24C271.47 113.69 271.75 112.39 271.98 111.84C272.59 112.88 274.05 114.76 274.14 115.92Z" fill="#020201"/>
<path d="M241.52 87.36C241.68 87.84 243.44 89.05 243.2 90C243.02 90 241.93 90.38 241.76 90.48C241.32 90.03 240.46 88.34 240.08 88.08L241.52 87.36Z" fill="#020201"/>
<path d="M91.7901 143.8C92.2201 143.73 93.1401 144.17 93.4101 144.49C94.4801 145.76 92.9601 149.16 91.2901 148.98C89.1401 148.75 90.0201 144.06 91.7901 143.8Z" fill="#917D8C"/>
<path d="M174.91 108.89C172.48 106.9 174.84 101.27 177.84 103.92C179.66 105.52 177.1 110.69 174.91 108.89Z" fill="#917D8C"/>
</svg>
