<svg width="360" height="360" viewBox="0 0 360 360" fill="none" xmlns="http://www.w3.org/2000/svg">
<path d="M177.24 90.9C179.46 91.25 182.12 91.86 184.04 93.1C184.47 93.38 186.41 95.09 186.7 95.48C187.08 95.99 187.34 97.02 187.63 97.31C187.92 97.6 191.51 99.48 192.07 99.71C197.73 101.98 208.12 99.9 213.56 97.34C219.7 94.44 224.65 89.59 230.98 87.06C226.63 81.28 223.16 74.96 219.35 68.83C218.56 67.65 219.99 65.21 221.28 65.01C225.69 64.32 234.72 67.62 239.37 68.72C245.48 70.16 251.71 71 257.84 72.31C266.61 74.19 275.24 76.76 283.98 78.79C285.31 79.1 290.1 80.4 291.05 80.34C291.83 80.29 294.42 79.09 295.5 78.79C309.51 74.92 323.73 71.62 337.17 66.01C340.56 65.59 339.42 68.64 339.38 70.62C339.14 82.2 337.92 90.35 332.96 100.89C330.6 105.91 327.22 109.6 322.11 111.9L325.01 121.11C326.82 119.99 333.21 118.82 334.02 121.34C334.96 124.29 330.19 122.82 328.51 123.05C328.08 123.11 325.26 124.19 325.25 124.37C325.8 128.29 325.6 132.39 324.65 136.24C325.97 137.24 331.93 139.45 332.36 140.77C332.2 145.79 325.97 139.23 323.5 139.32C322.23 142.71 318.94 144.41 315.43 143.9C315.58 146.33 315.58 148.78 315.67 151.21C315.85 155.88 317 161.86 314.99 166.13C313.1 170.15 304.78 175.38 300.47 176.32C294.58 177.6 283.43 174.5 277.14 173.68C275.82 173.51 274.22 173.65 272.87 173.4C272.42 173.32 272.15 172.78 271.77 173.04L266.26 183.25C268.3 182.88 269.67 185.3 271.05 186.49C272.43 187.68 276.15 190.2 276.52 191.81C278.17 199.08 266.4 192.79 263.94 191.44C263.48 191.19 261.63 189.85 261.47 189.96L256.22 198.27C258.59 201.1 260.4 204.31 261.82 207.71C262.65 209.7 263.76 212.11 263.62 214.29C263.48 216.47 262.4 219.9 259.67 218.01C256.69 214.22 252.87 211.23 249.6 207.7C249 207.7 245.1 214.57 244.09 215.38C243.16 216.12 241.74 215.62 241.56 214.52C241.23 212.46 245.48 207.28 245.85 204.99C244.06 202.69 235.97 200.39 235.19 197.88C234.91 196.96 234.93 194.92 235.56 194.14C236.19 193.36 239.36 192.9 240.49 192.83C243.85 192.61 248.1 193.92 250.92 195.7C252.14 193.34 253.12 190.82 254.39 188.49C257.09 183.54 260.36 178.89 262.48 173.55C262.61 173.22 263.03 172.48 262.81 172.18C251.78 170.46 240.58 170.03 229.65 167.68C221.95 161.48 214.46 155.12 207.76 147.84C203.73 146.31 199.29 147.42 195.21 148.2L193.37 151.93L198.77 150.61C202.16 150.48 204.75 150.27 207.16 153C210.8 157.13 208.17 160.27 203.44 160.92L206.29 162.74C208.08 164.92 208.98 168.46 207.71 171.07C205.82 174.93 201.1 172.13 197.92 172.91C199.05 179.66 195.57 186.75 188.45 180.82C184.8 177.78 182.52 173.77 180.34 169.62C176.26 169.21 172.87 167.81 169.63 165.34C167.95 164.05 166 162.55 166.01 160.2C163.26 161.43 159.97 161.34 157.61 159.34C149.07 162.97 140.48 166.46 132.44 171.11L131.96 173.15C134.32 172.35 136.79 171.92 139.27 171.71C142.52 171.44 148.51 171.37 149.36 175.53C150.08 179.08 146.29 180.25 144.11 181.82C142.64 182.88 141.22 184.03 139.87 185.25C143.61 185.61 146.9 185.78 149.09 189.22C150.95 192.15 149.64 195.56 146.68 197.09C144.61 198.16 141.97 199 139.64 198.8L142.88 201.67C145.06 204.22 146.8 208 143.16 210.11C136.48 213.98 129.07 206.71 123.5 204.03C121.09 202.87 118.4 204.1 115.55 203.83C114.23 203.71 112.03 202.64 111.22 202.66C110.65 202.67 109.45 203.54 108.77 203.78C107.56 204.2 105.8 204.5 104.52 204.56C102.93 204.64 101.85 203.92 100.66 205.02C95.1798 210.06 93.4998 223.72 93.8398 230.81C94.2698 239.84 96.1898 254.53 99.8698 262.68C106.3 276.91 117.71 293.54 129.33 303.97C131.77 306.16 134.46 308.14 137.48 309.49C139.42 312.61 134.25 312.52 132.32 312.49C123.22 312.33 115.01 310.77 106.62 307.25C88.0498 299.46 64.5998 282.07 55.8098 263.57C53.3798 258.44 52.2198 249.97 51.4098 244.22C51.3198 243.57 51.5198 242.61 51.3498 242.12C51.2198 241.74 50.5398 241.71 50.1698 241.38C49.1498 240.45 44.8498 233.24 43.8998 231.58C40.7098 225.96 38.2398 217.35 36.3898 211.03C31.8998 195.67 31.9398 180.44 35.5598 164.87C28.4598 155.92 28.0398 143.36 31.2198 132.75L30.8398 132.4C24.4898 132.11 18.4598 129.62 16.3098 123.18C15.1198 119.63 17.2198 118.18 19.8898 116.34C29.1098 109.96 39.6398 111.66 49.4498 108.73C54.4498 107.24 61.8998 103.48 66.8898 101.23C75.0898 97.52 83.0798 93.36 91.2698 89.63L112.06 81.28C110.38 79.94 110.17 79.3 110.41 77.11C111.11 70.71 117.37 67.36 123.34 68.93C125.31 69.45 127.18 70.68 128.84 71.83C129.32 72.17 129.91 73.14 130.56 73.02C131.1 72.92 134.08 71.39 134.78 71.02C140.39 68 146.26 65.25 151.81 62.15C157.36 59.05 162.46 54.38 168.43 51.43C175.95 47.72 190.18 45.39 195.34 53.79C203.19 66.57 194.27 76.62 184.99 85.01C182.55 87.21 179.87 88.87 177.31 90.88L177.24 90.9ZM148.94 99.05C149.14 99.37 150.02 101.45 150.28 101.46C157.55 99.41 163.8 95.79 170.12 91.81C176.87 87.55 182.79 83.2 188.28 77.35C191.67 73.74 194.55 69.77 194.99 64.75C195.19 62.43 195.13 61.35 194.32 59.07C192.43 53.76 189.97 51.78 184.32 51.32C171.32 50.28 164.77 58.03 154.86 64.07C148.95 67.67 141.35 71.05 135.04 74.47C134.4 74.82 133.41 74.98 132.88 75.43C132.51 75.74 132.68 75.63 132.88 75.9C133.86 77.34 135.48 78.9 136.58 80.36C141.05 86.32 145.09 92.74 148.96 99.04L148.94 99.05ZM234.08 85.86C234.63 86.67 235.24 87.5 235.76 88.26C237.73 91.13 239.7 94.06 241.76 96.89C242.38 97.74 242.91 98.75 243.68 99.77C248.03 105.51 257.35 116 264.94 116.54C266.11 116.62 268.18 115.96 269.34 115.59C269.89 115.42 270.46 115.27 271.01 115.1L270.91 114.38L264.06 102.64L267.42 105.28C269.29 108.29 271.32 111.21 272.96 114.37C273.3 114.59 273.55 114.18 273.65 114.15C275.87 113.58 278.04 112.56 280.13 111.75C280.33 111.67 280.48 111.56 280.61 111.51C281.04 111.34 281.77 111.25 282.29 111.03C282.45 110.96 282.61 110.86 282.77 110.79C283.52 110.47 284.05 110.13 284.69 109.83C284.86 109.75 285.01 109.67 285.17 109.59C286.09 109.14 286.61 108.93 287.57 108.39C289.55 107.29 291.62 105.6 293.35 104.7C295.18 103.74 295.12 104.99 295.9 105.77C298.37 108.22 304.32 111.06 307.72 111.75C308.89 111.99 309.54 112.26 310.84 112.23C313.07 112.18 313.81 111.53 315.64 110.79C316.12 110.59 317.08 110.64 317.56 110.19C316.29 108.71 313.15 104.51 311.33 104.07L308.69 99.87L311.09 100.47C313.23 103.55 315.6 106.47 317.67 109.6C318.46 110.19 319.46 109.39 320.2 109.1C322.49 108.2 323.41 107.57 325.24 105.98C325.65 105.63 325.67 105.3 325.72 105.26C326.41 104.6 327.08 104.38 327.88 103.34C329.23 101.59 330.23 99.15 331.11 97.1C334.85 88.41 336.68 79.28 336.27 69.77C333.17 70.46 330.34 71.96 327.34 72.95C322.31 74.61 316.68 76.21 311.57 77.68C310.71 77.93 309.8 78.15 308.93 78.4C308.79 78.44 308.59 78.36 308.45 78.4C305.02 79.36 301.54 80.36 298.14 81.28C298 81.32 297.8 81.24 297.66 81.28C296.79 81.52 295.89 81.75 295.02 82C292.99 82.58 292.07 83.38 289.65 83.17C284.47 82.71 276.4 79.94 271.03 78.64C270.17 78.43 268.97 78.36 268.15 78.16C268.11 78.15 268.02 77.82 267.43 77.68C266.47 77.45 265.51 77.19 264.55 76.96C264.41 76.93 264.21 76.99 264.07 76.96C263.14 76.74 262.21 76.66 261.43 76.48C261.27 76.44 261.02 76.31 260.71 76.24C255.39 75.02 250.42 74.19 245.12 73.12C245.04 73.1 244.86 72.93 244.64 72.88C243.3 72.61 241.89 72.46 240.56 72.16C234.64 70.84 228.91 68.58 222.81 68.08L227.5 76.45C229.48 79.71 231.95 82.67 234.08 85.82V85.86ZM130.23 77.71C127.09 73.34 120.05 69.05 115.24 73.64C113.97 74.85 113.94 76.01 113.44 77.59C114.42 77.79 115.03 76.97 116.16 77.01C117.92 77.07 119.99 78.86 120.75 78.89C121.51 78.92 124.49 77.64 125.82 77.5C127.28 77.34 128.8 77.45 130.23 77.71ZM133.56 81.33C132.18 81.95 131.29 81 130.05 80.66C128.07 80.12 125.92 80.2 124.01 80.95C128.33 84.28 131.67 88.54 134.8 92.96C137.1 92.61 139.2 92.46 141.51 92.82L133.56 81.33ZM20.6298 124.72C22.6798 128.01 25.6198 128.51 29.2098 129.21C41.1398 131.52 54.6998 131.91 66.7898 131.94C71.8798 131.95 84.2298 127.11 89.5798 125.21C105.38 119.6 120.89 113.01 136.06 105.98C136.91 105.59 137.92 105.18 138.86 105.06C139.04 104.09 138.02 103.49 137.66 102.9C134.68 97.99 131.51 92.84 127.71 88.51C125.33 85.8 122.12 82.63 118.65 81.59C109.61 85.63 100.26 89.01 91.2098 93.03C77.6298 99.06 64.4598 106.11 50.6698 111.73C41.7598 113.82 30.8398 113.45 22.7998 118.16C22.1698 118.53 19.5398 120.4 19.3098 120.9C18.8498 121.92 20.0498 123.82 20.6198 124.73L20.6298 124.72ZM211.06 101.93C207.54 103.02 202.03 103.81 198.35 103.85C196.69 103.87 194.45 103.74 192.83 103.37C190.95 102.94 189.57 101.77 187.79 101.21C187.5 106.32 185.56 112.23 181.79 115.84C176.38 121.02 167.76 122.21 164.07 114.49C163.54 113.38 163.44 112.23 163.07 111.17C162.86 110.56 162.77 110.51 162.12 110.56C161.55 108.96 157.99 106.7 156.44 105.81C155.38 105.2 153.5 104.2 152.36 103.89C151.98 103.79 151.74 103.71 151.8 104.21C151.9 104.99 154.2 108.58 154.72 109.68C158.73 118.1 161.4 126.52 164.34 135.32C164.72 136.46 165.01 137.68 165.23 138.87C165.47 139.09 167.26 137.57 167.63 137.43C168.27 137.19 169 137.19 169.61 137.49C171.94 138.63 170.32 140.64 169.91 142.47C168.83 147.26 168.29 154.51 168.83 159.38C169.05 161.35 170.61 162.22 172.11 163.29C174.58 165.06 176.31 165.84 179.33 166.39C180.57 166.61 184.03 166.33 184.19 168.02C184.24 168.55 183.81 168.88 183.76 169.25C183.69 169.86 185.32 172.47 185.76 173.15C187.26 175.48 188.88 177.34 191.14 178.92C191.39 179.09 191.48 179.58 192.09 179.77C195.46 180.81 195.13 175.15 194.95 173.07L192.82 172.2C192.84 171.7 192.41 171.21 192.63 170.45C193.09 168.86 196.25 169.79 197.51 169.82C198.35 169.83 199.1 169.52 200.02 169.56C200.62 169.59 201.82 170 202.54 170.04C203.26 170.08 203.96 170.02 204.66 170.05C205.76 168.41 205.13 165.81 203.6 164.66C202.07 163.51 201.02 163.57 199.3 163.56C198.6 163.56 197.72 163.46 197.07 163.61C196.38 163.76 196 164.53 195.1 164.53C193.49 164.53 193.07 162.76 194.14 161.64C194.77 160.98 197.63 159.61 198.58 159.24C199.64 158.83 205.58 157.46 205.76 156.7C204.38 153.14 201.63 153.2 198.34 153.73C195.05 154.26 193.63 155.55 190.96 156.55C190.58 156.69 190.04 156.5 189.75 156.66C189.43 156.83 188.14 159.61 187.14 159.92C185.95 160.28 185.06 159.76 184.91 158.53C184.95 158.49 185.03 157.89 185.28 157.58C190.54 151.03 195.32 144.86 193.48 135.69C193.14 134 191.69 132.02 193.07 130.47C193.93 130.5 194.81 130.32 195.28 131.25C195.64 131.97 196.53 135.48 196.63 136.37C196.73 137.19 196.63 138.03 196.66 138.86C200.06 138.89 202.41 138.41 205.06 140.78C205.5 141.17 205.99 141.75 206.5 142.22C207.62 143.26 208.76 144.39 209.86 145.45C210.5 146.06 210.9 147.44 212.01 147.16C213.12 146.88 218.15 142.98 218.61 141.97C219.01 141.1 217.76 138.87 217.53 137.9C217.4 137.34 217.4 136.56 217.29 135.98C217.1 134.99 216.92 134.11 216.81 133.1C216.65 131.67 216.43 130.25 216.57 128.78C215.09 128.92 213.33 128.28 211.9 128.29C210.85 128.3 209.06 128.71 207.97 128.94C206.88 129.17 204.28 130.6 203.89 128.36C203.57 126.52 205.89 126.26 207.17 125.98C210.42 125.25 213.28 125.41 216.57 125.66C217.1 120.9 218.26 116.17 219.89 111.67C219.76 110.97 215.64 108.03 214.81 107.63C213.32 106.92 211.42 107.52 211.3 105.6C211.26 104.87 211.5 104.18 212.24 103.94C214.54 103.18 219.73 107.33 221.49 108.86L225.08 105.02C227.81 102.51 234.23 98.68 237.8 97.83C238.08 97.76 238.23 98.01 238.16 97.47L232.57 89.71C227.21 91.83 222.92 95.8 217.93 98.59C216.11 99.6 212.96 101.31 211.05 101.91L211.06 101.93ZM174.6 116.56C180.71 114.99 184.14 107.6 184.67 101.81C185.08 97.32 183.57 95.6 179.4 94.5C174.77 93.28 172.08 95.06 169.2 98.57C164.45 104.38 164.25 119.23 174.6 116.56ZM151.58 110.33C149.67 105.71 146.75 101.63 144.4 97.25C142.62 96.47 140.97 95.6 138.99 95.47C138.33 95.43 136.73 95.21 137.05 96.2L145.13 109.84C147.37 109.31 149.44 109.69 151.58 110.33ZM165.73 98.1C165.52 97.89 162.27 99.97 161.74 100.22C160.23 100.95 158.39 101.42 156.96 102.15C156.71 102.28 156.51 102.03 156.62 102.65C159.03 103.56 160.99 105.32 163.09 106.73C163.32 103.68 164.52 100.85 165.73 98.1ZM243.44 153.02C254.56 152.99 262.3 148.54 267.15 138.48C270.08 132.4 270.61 125.38 270.06 118.73C266.58 119.73 262.89 120.2 259.51 118.49C257.76 117.6 254.52 115.21 252.92 113.93C248.22 110.17 243.98 105.6 240.46 100.73L239.96 100.51C238.79 100.72 237.47 100.97 236.42 101.53C228.71 105.68 223.75 108.15 221.25 117.3C218.69 126.64 218.49 137.52 224.74 145.48C229.96 152.13 235.26 153.07 243.44 153.04V153.02ZM141.99 110.09C141.76 109.67 140.71 107.22 140.43 107.22C140.18 107.44 139.97 107.75 139.68 107.9C127.37 114.29 113.91 118.42 101.28 124.19L86.5898 129.29L88.0498 133.1C90.6798 133.31 93.5998 132.73 96.1298 133.53C100.18 134.81 101.5 136.7 102.3 140.79C103.26 145.68 101.89 150.1 99.2898 154.23C98.4198 154.77 97.0698 156.63 95.9098 157.45C92.8198 159.62 89.5398 160.29 85.8498 159.64C79.8698 158.58 75.2898 155.39 75.7598 148.74L63.6898 145.11C63.5098 145.13 63.2798 146.04 63.0698 146.32C61.4598 148.49 59.8498 149.62 57.0698 149.68C52.9298 149.77 47.4298 147.73 44.8398 144.4C41.3398 152.51 39.0698 161.12 37.5198 169.82C34.5098 186.66 35.6498 199.03 40.7598 215.16C41.4898 217.45 42.3598 219.84 43.1598 222.12C44.0398 224.62 44.6398 226.69 45.9098 229.08C46.8298 230.81 49.6298 235.57 50.8298 236.87C51.0498 237.11 51.1698 237.31 51.5498 237.23C50.7898 234.96 53.9498 233.48 54.6198 235.72C54.9298 236.78 54.2098 240.15 54.2098 241.45C55.3198 247.71 55.5698 255.25 57.9798 261.13C65.8498 280.32 94.6398 301.09 114.15 306.78C119.64 308.38 125.18 309.59 130.94 309.3C128.33 307.37 126.03 305.11 123.74 302.83C113.39 292.52 105.28 280.25 98.6798 267.21C94.2898 258.54 93.7498 253.76 92.5398 244.33C91.0498 232.75 89.3998 223.3 93.1698 211.8C94.1898 208.67 96.2198 205.99 97.8498 203.17C96.0698 202.72 94.4698 201.74 92.9798 200.72C91.0598 199.42 88.3898 197.12 87.0598 195.25C86.2398 194.1 83.2898 188.28 84.8198 187.32C85.4598 186.91 86.6598 186.98 87.0698 187.68C87.3998 188.24 87.2098 188.75 87.4098 189.26C88.0998 191.06 88.8098 192.29 89.9398 193.81C94.9498 200.59 103.81 203.83 111.37 199.05C112.52 198.32 114.58 195.8 115.71 195.96C117.15 196.16 117.11 197.82 116.43 198.83C116.19 199.2 114.35 200.51 114.64 200.76C115.51 200.74 116.27 201.03 117.16 201.02C119.42 200.98 121.08 199.88 123.44 200.72C128.13 202.39 136.09 210.36 141.33 207.67C143.01 206.81 141.1 204.44 140.3 203.53C138.69 201.72 133.25 198.84 133.37 196.11C133.52 192.51 137.54 195.43 139.05 195.67C141.31 196.03 147.4 194.77 146.75 191.59C146.66 191.15 145.6 189.81 145.2 189.53C144.36 188.95 142.64 188.71 141.61 188.57C140.23 188.37 135.71 188.53 135.17 187.34C134.91 186.76 134.95 186.09 135.27 185.53C135.67 184.83 138.78 182.13 139.6 181.46C141.6 179.82 143.86 178.53 145.94 177.01L146.25 176.39C146.36 175.6 145.09 175.11 144.44 174.94C141.74 174.2 135.67 174.98 133.1 176.18C132.83 176.31 130.92 177.42 130.84 177.52C130.41 178.08 129.4 180.97 128.83 181.99C128.17 183.2 126.48 185.99 125.53 186.85C124.84 187.47 123.38 187.69 123.08 186.7C122.6 185.1 124.17 184.06 124.9 182.86C129.04 176.12 130.22 169.46 129 161.59C128.74 159.95 128.12 157 127.03 155.77C124.91 153.38 118.35 151.8 115.27 152.12C112.19 152.44 108.12 154.6 105.77 156.41C104.41 156.96 100.24 159.9 99.5298 161.08C99.2498 161.54 99.2798 162.06 99.0298 162.5C98.1698 164.02 95.0798 162.96 96.3298 160.27C98.0198 156.6 108.86 150.44 112.82 149.42C117.98 148.08 125.14 150 129.16 153.47C132.26 151.6 135.8 150.72 139.11 149.34C142.42 147.96 145.69 146.19 149.19 144.91C151.36 144.11 153.65 143.59 155.81 142.76C156.08 142.37 154.48 139.13 154.23 138.43C151.19 129.87 147.76 121.38 143.68 113.25C143.53 112.95 143.3 112.72 143.2 112.53C142.79 111.72 142.44 110.94 142 110.13L141.99 110.09ZM287.81 112.01C285.69 113.09 282.7 114.18 280.43 115.07C278.05 116 275.55 116.7 273.17 117.65L272.94 118.11C273.05 118.95 273.37 120.09 273.41 120.89C273.54 123.55 273.26 127.13 272.93 129.76C271.81 138.67 266.75 147.09 259.5 152.3C258.87 152.29 256.93 153.54 256.13 153.85C251.51 155.69 247.14 156.3 242.23 156.14C236.07 155.94 231.31 155.45 226.22 151.66C223.95 149.96 222.46 147.01 220.61 145.03C220.45 144.86 220.4 144.55 220.06 144.64C218.23 146.61 216.14 148.26 213.93 149.79C217.74 154.06 222.18 157.62 226.64 161.18C228.11 162.35 229.33 163.58 230.96 164.54C231.03 164.58 231.12 164.87 231.36 164.97C236.92 166.18 242.57 166.77 248.22 167.42C253.53 168.03 258.88 168.34 264.14 169.36C264.39 168.83 264.79 168.34 265.05 167.83C265.43 167.08 266.76 163.39 266.99 163.17C267.76 162.45 269.52 162.93 269.57 164.07C269.64 165.5 267.75 168.47 267.13 169.9C265.16 174.44 263.27 178.78 260.98 183.17C259.08 186.81 256.67 190.19 255.18 194.04L264.72 179.72C267.71 174.98 269.84 169.49 272.68 164.78C272.73 164.69 273.67 163.61 273.74 163.56C274.68 162.93 276.17 163.49 276.28 164.68C276.39 165.87 273.47 169.06 273.16 170.53C280.24 170.75 287.11 172.75 294.15 173.41C298.76 173.84 301.01 173.36 305.03 171.1C306.63 170.2 311.17 166.8 311.91 165.27C312.11 164.84 312.92 162.14 312.97 161.66C313.14 160.21 313.02 157.92 312.97 156.38C312.92 154.58 312.57 152.59 312.49 150.86C312.24 145.71 312.01 140.62 311.53 135.51C311.26 132.62 310.96 129.69 310.57 126.88C310.5 126.35 310.59 125.76 310.5 125.15C310.01 121.8 309.02 118.48 308.38 115.16C302.95 114.53 298.14 111.4 293.85 108.22C293.5 108.17 288.68 111.56 287.78 112.02L287.81 112.01ZM154.22 129.27L154.37 129.76C156.13 129.57 157.81 130.01 159.5 130.35C158.51 126.06 156.98 121.91 155.14 117.92C154.96 117.52 154.81 116.68 154.22 116.8C154.16 115.92 154.14 114.99 153.49 114.29C151.29 113.68 149.18 112.06 146.78 112.61L154.22 129.28V129.27ZM319.22 112.96C316.71 113.9 314.29 115.2 311.55 115.36C313.15 121.95 313.96 128.65 314.67 135.39C314.77 136.31 314.73 140.26 315.15 140.67C316.26 141.79 319.22 140.51 320.06 139.33C322.97 135.23 322.81 126.56 322.09 121.75C321.64 118.8 320.2 115.79 319.24 112.97L319.22 112.96ZM77.4698 142.23C79.0298 138.09 81.2098 135.93 85.1298 133.92L83.6898 130.5L72.4398 134.08C73.9698 135.89 78.4798 138.37 76.2798 141.03C76.0698 140.9 75.0798 141.25 74.4598 140.81C74.1498 140.58 72.8098 138.37 72.2098 137.78C71.0998 136.7 69.5298 136.09 68.6698 134.79L57.2398 135.07L56.8798 135.43C56.6098 136.25 57.0498 138.39 57.6398 139.04C58.0098 139.45 61.4398 141 62.1998 141.31C66.7798 143.2 71.7998 144.34 76.5098 145.82C76.6398 144.65 77.0598 143.31 77.4698 142.22V142.23ZM159.42 133.67C158.65 133.07 156.4 132.58 155.42 132.75L160.87 147.27L165.01 148.71L161.18 134.97C160.09 134.82 159.91 134.06 159.42 133.68V133.67ZM44.1298 133.83L34.4598 133.1C31.7398 139.27 31.6798 148.19 33.5098 154.65C33.7598 155.52 35.7798 160.18 36.3398 160.46C36.7998 160.69 36.6798 160.08 36.7298 159.9C37.8898 155.35 39.8198 147.14 42.1598 143.26C42.4898 142.71 43.5298 141.93 43.6098 141.58C43.7098 141.17 42.9598 139.36 42.9498 138.54C42.9498 138.1 43.1598 136.71 43.2698 136.22C43.4698 135.32 43.7898 134.66 44.1198 133.84L44.1298 133.83ZM53.7298 135.03L47.2998 134.36C44.3598 138.99 47.0398 143.9 51.9198 145.59C54.8198 146.59 59.2898 147.68 60.6498 144.02C59.1098 142.85 56.6098 142.48 55.2998 141.01C53.9898 139.54 53.6298 136.96 53.7298 135.03ZM88.2598 156.86C95.1198 156.75 100.01 149.55 99.5298 143.07C99.4598 142.2 98.7398 139.22 98.2998 138.54C97.3098 136.99 94.5598 136.11 92.8098 135.99C88.0998 135.67 83.0898 137.25 80.8898 141.7C79.6598 144.17 78.3698 149.1 79.0598 151.78C79.9098 155.05 85.2498 156.91 88.2498 156.86H88.2598ZM203.62 144.14C203.91 143.88 202.1 142.21 201.77 142.03L196.43 141.5L196.19 144.86L203.62 144.14ZM157.08 145.59L147.92 148.52L130.71 155.9C132.1 159.64 132.44 163.67 132.39 167.65L159.45 155.14C160.05 154.19 157.44 147.06 157.08 145.59ZM160.45 157.81C162.06 157.99 164.39 158.3 165.5 156.75C165.95 156.12 165.86 152.82 165.24 152.18C164.62 151.54 162.68 151.24 161.89 150.61C161.86 152.24 163.26 154.93 162.23 156.35C161.84 156.89 160.81 157.21 160.45 157.8V157.81ZM265.02 185.16L264.53 185.31L263.45 187.56C266.2 189.53 269.47 190.91 272.7 191.87C270.9 190.46 269.28 188.78 267.54 187.32C266.81 186.71 265.99 186.27 265.27 185.74C265.05 185.58 265.06 185.19 265.02 185.16ZM249.16 198.14C245.8 196.24 241.99 195.47 238.16 196.19C238.01 197.03 238.8 197.37 239.38 197.73C241.82 199.26 245.15 200.17 247.4 202.19L249.17 198.15L249.16 198.14ZM260.46 214.18C260.63 213.15 260.28 212.36 259.99 211.42C259.16 208.76 256.77 203.65 254.94 201.6C254.68 201.31 254.45 200.92 253.99 201L251.37 205.14L260.45 214.18H260.46Z" fill="#020201"/>
<path d="M154.22 138.39C153.21 139.56 152.81 140.87 151.81 142.1C151 143.09 149.78 143.76 149.18 144.87C145.69 146.15 142.47 147.9 139.1 149.3C135.73 150.7 132.25 151.56 129.15 153.43C125.13 149.96 117.97 148.05 112.81 149.38C108.86 150.4 98.0198 156.57 96.3198 160.23C95.0798 162.92 98.1698 163.97 99.0198 162.46C99.2698 162.02 99.2398 161.5 99.5198 161.04C100.24 159.86 104.4 156.92 105.76 156.37C105.9 156.31 106.28 156.42 106.54 156.32C110.98 154.62 113.46 153.56 115.84 158.77C113.17 159.45 111.73 162.3 113.33 164.75C114.45 166.47 116.36 166.56 118.24 166.44C118.4 169.16 118.28 172.15 118 174.83C117.98 174.99 118.02 175.15 118 175.31C115.55 175.41 114.87 179 116.56 180.35C116.65 180.42 116.71 180.52 116.8 180.59C116.77 180.66 116.83 180.76 116.8 180.83C112.88 191.24 102.56 201.31 91.1498 194.13C90.7198 193.86 90.5098 193.66 89.9398 193.78C88.8198 192.26 88.0998 191.03 87.4098 189.23C87.2198 188.72 87.4098 188.21 87.0698 187.65C86.6498 186.94 85.4598 186.88 84.8198 187.29C83.2898 188.26 86.2398 194.07 87.0598 195.22C85.5698 198.56 84.4798 202.02 83.4598 205.53C76.7298 203.31 74.9398 213.21 81.0598 214.64C81.0398 214.72 81.0698 214.8 81.0598 214.88C74.6798 247.8 91.0199 284.32 115.94 305.56L116.32 306.5C116.22 306.6 114.43 305.73 114.16 306.74C94.6498 301.06 65.8698 280.28 57.9898 261.09C55.5798 255.21 55.3298 247.66 54.2198 241.41C54.2198 240.1 54.9398 236.73 54.6298 235.68C53.9598 233.44 50.7998 234.92 51.5598 237.19C51.1798 237.27 51.0598 237.07 50.8398 236.83C49.6398 235.53 46.8398 230.77 45.9198 229.04C44.6498 226.65 44.0498 224.58 43.1698 222.08C48.9998 221.31 46.1998 211.65 40.7698 215.12C35.6598 199 34.5198 186.63 37.5298 169.78C39.0798 161.08 41.3498 152.48 44.8498 144.36C47.4398 147.68 52.9398 149.72 57.0798 149.64C55.5198 154.88 60.7698 157.58 64.7598 154.32C68.0998 151.59 67.4698 147.01 63.0798 146.28C63.2898 146 63.5198 145.09 63.6998 145.07L75.7698 148.7C75.2998 155.35 79.8798 158.53 85.8598 159.6C89.5498 160.26 92.8298 159.59 95.9198 157.41C97.0798 156.59 98.4198 154.73 99.2998 154.19C102.18 152.4 104.03 151.92 105.97 148.75C108.49 144.62 108.79 140.45 106.38 136.2C104.89 133.57 103.55 133.09 101.57 131.17C101.29 130.9 100.9 130.65 100.98 130.21C113.21 125.51 125.68 121.4 137.44 115.58C140.38 116.84 142.77 116.59 143.68 113.18C147.76 121.32 151.19 129.8 154.23 138.36L154.22 138.39ZM118.17 133.64C115.53 134.23 114.92 140.53 118.83 140.31C122.74 140.09 123.67 132.4 118.17 133.64ZM72.6098 161.95C70.2898 162.38 69.9898 165.36 70.2898 167.28C70.5198 168.75 72.4898 169.87 73.9198 169.76C78.5798 169.4 78.2098 160.92 72.6098 161.95ZM95.8798 164.11C92.5498 164.51 91.5198 166.57 91.3798 169.69C91.1998 173.84 93.9698 178.53 98.6398 177.67C99.8898 177.44 101.21 176.07 101.64 174.92C102.07 173.77 102.16 170.06 101.87 168.79C101.26 166.07 98.7698 163.77 95.8798 164.12V164.11ZM45.9798 173.7C43.0198 174.31 41.7198 178.17 44.2498 180.36C49.2498 184.69 54.0598 178.36 50.7298 174.84C49.6198 173.66 47.4998 173.39 45.9798 173.71V173.7ZM99.2398 186.9C97.4298 187.13 95.3198 187.91 95.4498 190.07C95.7398 194.98 104.34 193.7 104.1 189.61C103.95 187.01 101.33 186.64 99.2398 186.9ZM53.8098 210.73C57.6598 214.74 63.4598 210.34 59.9598 205.66C56.4598 200.98 49.4998 206.24 53.8098 210.73ZM71.6398 251.4C68.9398 252.02 68.9198 257.37 72.7298 256.82C76.1698 256.32 75.9598 250.41 71.6398 251.4ZM89.3898 277.31C86.6898 277.92 87.5498 282.47 90.5498 282.55C94.0298 282.64 94.0398 276.26 89.3898 277.31Z" fill="#D8DF75"/>
<path d="M137.67 102.89L135.6 104.29C112.81 113.57 90 123.03 66.3 129.97C56.01 130.66 45.05 130.06 34.69 128.76C31.75 128.39 25.4 127.65 22.96 126.34C22.14 125.9 21.72 124.85 20.63 124.72C20.06 123.8 18.85 121.9 19.32 120.89C19.55 120.39 22.18 118.51 22.81 118.15C30.85 113.45 41.77 113.81 50.68 111.72C64.47 106.1 77.64 99.06 91.22 93.02C100.27 89 109.62 85.63 118.66 81.58C122.13 82.62 125.34 85.79 127.72 88.5C131.52 92.83 134.69 97.98 137.67 102.89Z" fill="#BC48A0"/>
<path d="M194.99 64.76C194.36 64.62 194.53 65.09 194.38 65.46C190.5 74.87 176.34 84.55 167.57 89.51C165.35 90.76 163.01 91.81 160.77 93.02C156.89 95.12 153.21 97.75 148.94 99.06C145.07 92.76 141.04 86.33 136.56 80.38C135.46 78.92 133.84 77.36 132.86 75.92C132.67 75.64 132.5 75.76 132.86 75.45C133.4 75 134.38 74.84 135.02 74.49C141.33 71.07 148.93 67.69 154.84 64.09C164.74 58.05 171.29 50.3 184.3 51.34C189.95 51.79 192.41 53.77 194.3 59.09C195.11 61.37 195.18 62.45 194.97 64.77L194.99 64.76Z" fill="#BC48A0"/>
<path d="M259.51 118.48C260.35 127.94 259.56 138.03 253.61 145.8C250.91 149.32 248.12 150.39 244.31 152.33C243.97 152.5 243.59 152.62 243.44 153.02C235.25 153.04 229.96 152.11 224.74 145.46C218.49 137.51 218.7 126.62 221.25 117.28C223.75 108.14 228.71 105.67 236.42 101.51C237.47 100.95 238.79 100.7 239.96 100.49L240.46 100.71C243.98 105.58 248.23 110.15 252.92 113.91C254.52 115.19 257.76 117.59 259.51 118.47V118.48ZM253.44 118.29C251.7 118.68 250.97 123.49 250.86 125.07C250.75 126.65 250.65 132.07 251.58 133.24C252.51 134.41 254.13 133.72 254.72 132.52C256.01 129.89 257.01 123.16 256.33 120.33C255.97 118.83 255.05 117.93 253.44 118.29Z" fill="#E8D57E"/>
<path d="M192.83 103.37C194.44 103.74 196.68 103.87 198.35 103.85C198.41 104.34 198.17 104.62 197.93 104.99C196.81 106.73 195.49 108.36 194.47 110.17C190.82 116.65 188.92 123.5 191.87 130.72C191.05 131.56 191.68 132.28 191.61 132.97C190.87 140.07 187.34 146.31 183.34 152.04C182.44 153.33 177.17 158.36 181.01 159.21C181.57 159.33 184.65 158.81 184.92 158.54C185.07 159.77 185.96 160.29 187.15 159.93C188.16 159.62 189.45 156.84 189.76 156.67C190.05 156.51 190.59 156.71 190.97 156.56C193.63 155.56 195.14 154.25 198.35 153.74L199.97 156.02C198.95 156.99 198.34 157.73 198.59 159.25C197.64 159.62 194.78 160.99 194.15 161.65C193.08 162.77 193.5 164.55 195.11 164.54C196.01 164.54 196.39 163.77 197.08 163.62C197.73 163.47 198.61 163.57 199.31 163.57C199.12 165.67 201.61 165.99 200.94 168.2C200.79 168.7 199.99 168.91 200.03 169.57C199.1 169.53 198.36 169.84 197.52 169.83C196.27 169.81 193.1 168.87 192.64 170.46C192.42 171.22 192.85 171.71 192.83 172.21C192.79 173.1 192.69 175.04 192.53 175.87C192.34 176.91 191.39 177.9 191.15 178.92C188.89 177.34 187.27 175.48 185.77 173.15C185.33 172.46 183.7 169.86 183.77 169.25C183.81 168.88 184.25 168.56 184.2 168.02C184.05 166.33 180.58 166.61 179.34 166.39C176.32 165.85 174.59 165.06 172.12 163.29C170.62 162.22 169.06 161.35 168.84 159.38C168.3 154.51 168.84 147.26 169.92 142.47C170.33 140.64 171.95 138.63 169.62 137.49C169 137.19 168.28 137.2 167.64 137.43C167.11 131.4 166.15 125.04 164.69 119.16C164.02 116.46 163.01 113.03 162.13 110.57C162.78 110.52 162.87 110.57 163.08 111.18C163.45 112.24 163.55 113.39 164.08 114.5C167.77 122.22 176.39 121.02 181.8 115.85C187.14 116.16 190.39 110.99 191.67 106.41C191.92 105.5 191.73 103.58 192.84 103.38L192.83 103.37ZM180.78 139.17C176.97 139.82 176.94 145.18 180.96 145.59C186.51 146.15 185.88 138.31 180.78 139.17Z" fill="#D8DF75"/>
<path d="M87.0602 195.23C88.3902 197.1 91.0602 199.4 92.9802 200.7C94.4802 201.72 96.0702 202.7 97.8502 203.15C96.2202 205.97 94.2002 208.65 93.1702 211.78C89.4002 223.28 91.0502 232.73 92.5402 244.31C93.7502 253.74 94.2902 258.52 98.6802 267.19C105.28 280.23 113.39 292.5 123.74 302.81C126.03 305.09 128.33 307.35 130.94 309.28C125.18 309.57 119.65 308.36 114.15 306.76C114.42 305.75 116.21 306.62 116.31 306.52L115.93 305.58C91.0102 284.34 74.6702 247.82 81.0502 214.9C86.6802 215.09 88.2602 208.59 83.2102 206.03C83.2602 205.87 83.4002 205.71 83.4502 205.55C84.4702 202.04 85.5602 198.57 87.0502 195.24L87.0602 195.23ZM86.2902 248.76C81.0702 249.44 84.6802 259.42 90.1902 257.72C93.1302 256.81 92.4902 250.56 89.7602 249.25C89.2102 248.99 86.9002 248.68 86.2802 248.76H86.2902ZM107.38 287.62C105.68 288 105.86 290.76 107.38 291.12C110.93 291.96 110.16 287.01 107.38 287.62Z" fill="#C0CB4A"/>
<path d="M105.77 156.38C108.12 154.57 112.31 152.4 115.27 152.09C118.23 151.78 124.9 153.35 127.03 155.74C128.12 156.97 128.75 159.92 129 161.56C130.23 169.43 129.04 176.09 124.9 182.83C124.17 184.03 122.59 185.07 123.08 186.67C123.38 187.66 124.84 187.44 125.53 186.82C126.48 185.96 128.17 183.17 128.83 181.96C129.39 180.94 130.41 178.05 130.84 177.49C130.92 177.39 132.83 176.27 133.1 176.15C135.67 174.95 141.74 174.17 144.44 174.91C145.09 175.09 146.35 175.57 146.25 176.36L145.94 176.98C143.85 178.5 141.6 179.79 139.6 181.43C138.78 182.1 135.67 184.8 135.27 185.5C134.95 186.06 134.91 186.72 135.17 187.31C135.7 188.51 140.22 188.35 141.61 188.54C142.65 188.69 144.36 188.92 145.2 189.5C145.6 189.78 146.66 191.12 146.75 191.56C147.41 194.74 141.31 196 139.05 195.64C137.54 195.4 133.52 192.48 133.37 196.08C133.26 198.81 138.7 201.69 140.3 203.5C141.11 204.41 143.02 206.77 141.33 207.64C136.09 210.33 128.13 202.36 123.44 200.69C121.08 199.85 119.43 200.95 117.16 200.99C116.27 201.01 115.51 200.71 114.64 200.73C114.35 200.49 116.18 199.17 116.43 198.8C117.1 197.78 117.15 196.13 115.71 195.93C114.57 195.77 112.52 198.28 111.37 199.02C103.82 203.81 94.9499 200.56 89.9399 193.78C90.5099 193.66 90.7199 193.86 91.1499 194.13C102.56 201.31 112.89 191.24 116.8 180.83C123.13 183.5 124.65 174.6 118 174.83C118.28 172.14 118.4 169.15 118.24 166.44C118.24 166.36 118.24 166.28 118.24 166.2C122.39 164.77 121.22 158.69 116.89 158.51C116.38 158.49 116.22 158.74 116.08 158.76C116 158.77 115.91 158.74 115.84 158.76C113.47 153.55 110.99 154.61 106.54 156.31C106.28 156.41 105.9 156.31 105.76 156.36L105.77 156.38Z" fill="#C0CB4A"/>
<path d="M211.06 101.93C212.97 101.34 216.12 99.63 217.94 98.61C222.93 95.82 227.22 91.86 232.58 89.73L238.17 97.49C238.24 98.03 238.09 97.78 237.81 97.85C234.24 98.7 227.81 102.53 225.09 105.04L221.5 108.88C219.74 107.35 214.55 103.2 212.25 103.96C211.52 104.2 211.27 104.9 211.31 105.62C211.43 107.54 213.33 106.94 214.82 107.65C215.65 108.04 219.76 110.99 219.9 111.69C218.27 116.19 217.11 120.93 216.58 125.68C213.29 125.43 210.43 125.27 207.18 126C205.9 126.29 203.58 126.55 203.9 128.38C204.29 130.62 206.83 129.19 207.98 128.96C209.13 128.73 210.86 128.32 211.91 128.31C213.33 128.3 215.09 128.93 216.58 128.8C216.44 130.27 216.66 131.69 216.82 133.12C213.73 133.16 210.78 133.89 207.95 135.04C208.13 132.79 204.88 132.01 203.27 130.97C201.66 129.93 199.87 128.29 199.32 126.41C204.25 128.09 205.67 121.02 201.24 120.41C201.55 116.09 203.42 112.31 205.84 108.82C207.49 106.45 209.65 104.42 211.07 101.94L211.06 101.93Z" fill="#B8CE65"/>
<path d="M311.55 135.51C312.03 140.62 312.26 145.71 312.51 150.86C309.19 150.3 305.92 149.53 302.55 149.18C295.11 148.42 287.48 148.56 280 148.46C279.59 148.46 278.93 148.61 278.68 148.22C281.13 144.54 283.72 138.75 285.16 134.55C289.19 134.4 293.23 134.19 297.21 133.53C299.92 133.08 302.89 131.8 305.67 132.15C307.74 132.41 309.57 134.85 311.54 135.51H311.55Z" fill="#78C964"/>
<path d="M294.28 160.69C294.44 161.14 294.33 161.8 294.75 162.26C295.02 162.57 296.36 163.2 296.93 163.68C297.54 164.2 298.31 165 298.85 165.6C299.55 166.39 300.11 168.39 301.62 166.93C303.41 165.2 300.36 162.77 299.09 161.64L300.4 161.39L306.53 162.12C305.76 163.62 305.41 165.71 307.84 165.24C308.6 165.09 310.12 162.19 310.37 161.41L313.01 161.65C312.95 162.14 312.15 164.84 311.95 165.26C311.21 166.8 306.67 170.19 305.07 171.09C301.05 173.35 298.8 173.83 294.19 173.4C287.15 172.74 280.28 170.74 273.2 170.52C273.5 169.05 276.42 165.83 276.32 164.67C276.22 163.51 274.73 162.92 273.78 163.55C273.71 163.59 272.77 164.68 272.72 164.77C271.82 163.91 270.8 163.7 269.6 164.05C269.55 162.92 267.79 162.43 267.02 163.15C266.79 163.36 265.46 167.05 265.08 167.81C264.82 168.33 264.42 168.81 264.17 169.34C258.91 168.32 253.56 168.01 248.25 167.4C248.55 166.99 250.03 165.93 250.4 165.81C251.03 165.62 251.42 165.97 251.91 165.9C254.41 165.56 260.77 162.7 263.12 161.4C263.43 161.79 264.24 161.69 264.69 161.65C271.15 161.14 277.62 160.37 284.1 160.19C287.41 160.1 290.79 160.18 294.07 160.32C294.2 160.39 294.25 160.55 294.3 160.68L294.28 160.69Z" fill="#C8B548"/>
<path d="M141.99 110.09L139.93 109.63C136.48 109.21 134.73 113.17 137.43 115.37V115.61C125.67 121.43 113.2 125.54 100.97 130.24C100.9 130.69 101.28 130.93 101.56 131.2C103.54 133.12 104.88 133.6 106.37 136.23C108.78 140.48 108.48 144.65 105.96 148.78C104.02 151.95 102.18 152.43 99.2898 154.22C101.89 150.09 103.25 145.68 102.3 140.78C101.5 136.69 100.18 134.8 96.1298 133.52C93.5898 132.72 90.6699 133.3 88.0499 133.09L86.5898 129.28L101.28 124.18C113.91 118.42 127.37 114.29 139.68 107.89C139.98 107.74 140.19 107.43 140.43 107.21C140.71 107.21 141.76 109.66 141.99 110.08V110.09Z" fill="#C0CB4A"/>
<path d="M311.55 77.71C316.66 76.24 322.29 74.64 327.32 72.98C330.32 71.99 333.15 70.49 336.25 69.8C336.66 79.31 334.82 88.45 331.09 97.13C330.21 99.18 329.21 101.62 327.86 103.37C326.6 101.95 326.16 99.88 325.26 98.17C323.34 94.52 320.2 89.89 317.88 86.36C315.91 83.36 313.79 80.51 311.54 77.71H311.55Z" fill="#3A3A3A"/>
<path d="M211.06 101.93C209.64 104.41 207.48 106.44 205.83 108.81C203.41 112.3 201.54 116.07 201.23 120.4C196.75 119.79 195.74 125.18 199.31 126.4C199.86 128.28 201.64 129.93 203.26 130.96C204.88 131.99 208.12 132.78 207.94 135.03C210.78 133.88 213.72 133.15 216.81 133.11C216.92 134.12 217.1 135 217.29 135.99C212.54 135.31 208.16 137.22 205.06 140.79C202.41 138.43 200.07 138.9 196.66 138.87C196.63 138.04 196.73 137.2 196.63 136.38C196.53 135.49 195.64 131.97 195.28 131.26C194.81 130.33 193.92 130.51 193.07 130.48C192.77 130.47 192.4 130.17 191.87 130.72C188.92 123.5 190.82 116.66 194.47 110.17C195.49 108.36 196.81 106.73 197.93 104.99C198.17 104.62 198.41 104.34 198.35 103.85C202.03 103.81 207.55 103.02 211.06 101.93Z" fill="#CDD970"/>
<path d="M284.93 127.83C285.54 127.86 286.13 128.49 286.85 128.31C286.38 130.42 285.87 132.5 285.17 134.55C283.74 138.75 281.15 144.54 278.69 148.22C278.05 149.19 276.85 150.43 276.05 151.34C270.78 151.17 265.56 152.01 260.34 152.56C259.74 152.62 259.55 152.3 259.51 152.3C266.76 147.08 271.82 138.66 272.94 129.76C274.83 129.23 276.62 128.31 278.61 128.11C280.06 127.97 283.59 127.77 284.94 127.84L284.93 127.83Z" fill="#8CDC9D"/>
<path d="M259.51 118.48C262.89 120.19 266.58 119.72 270.06 118.72C270.6 125.38 270.08 132.39 267.15 138.47C262.3 148.53 254.56 152.98 243.44 153.01C243.6 152.61 243.97 152.5 244.31 152.32C248.12 150.38 250.92 149.31 253.61 145.79C259.56 138.02 260.35 127.92 259.51 118.47V118.48Z" fill="#DBBD53"/>
<path d="M157.08 145.59C157.44 147.06 160.05 154.19 159.45 155.14L132.39 167.65C132.43 163.68 132.1 159.64 130.71 155.9L147.92 148.52L157.08 145.59Z" fill="#CDC44D"/>
<path d="M312.99 156.38C313.04 157.91 313.16 160.2 312.99 161.66L310.35 161.42C311.07 159.15 309.42 157.89 308.08 159.51C307.85 159.79 306.73 161.71 306.51 162.14L300.38 161.41L299.07 161.66C297.61 160.37 295.96 158.4 294.27 160.7C294.22 160.57 294.17 160.41 294.04 160.34C290.75 160.2 287.37 160.12 284.07 160.21C277.59 160.38 271.12 161.16 264.66 161.67C264.22 161.71 263.4 161.81 263.09 161.42C264.32 160.74 265.52 159.81 266.69 159.02C268.95 157.5 271.89 155.54 273.89 153.74C274.7 154.18 275.37 153.75 276.16 153.73C285.22 153.43 296.51 152.97 305.36 154.53C307.96 154.99 310.41 155.99 312.99 156.38Z" fill="#A7BD54"/>
<path d="M279.17 88.26C287.69 90.2 295.44 92.95 303.09 97.19C305.08 101.88 306.6 106.78 307.71 111.76C304.31 111.07 298.37 108.22 295.89 105.78C295.11 105.01 295.18 103.76 293.34 104.71C291.6 105.62 289.54 107.3 287.56 108.4C287.35 108.1 287.35 107.78 287.32 107.44C286.87 102.44 285.25 95.87 282.24 91.77C281.35 90.55 279.86 89.63 279.16 88.25L279.17 88.26Z" fill="#4D522D"/>
<path d="M308.43 78.43C308.94 79.89 310.37 80.97 311.3 82.15C312.71 83.95 314 85.88 315.24 87.8C318.14 92.28 321.04 97.11 323.52 101.82L318.38 106.48C316.67 104.24 314.6 102.35 312.17 100.94C307.68 94.25 303.53 87.29 298.12 81.3C301.53 80.39 305.01 79.38 308.43 78.42V78.43Z" fill="#9D9D9D"/>
<path d="M276.06 151.34C275.42 152.06 274.59 153.12 273.9 153.74C271.91 155.53 268.96 157.5 266.7 159.02C266.24 158.59 265.27 158.75 264.69 158.81C257.06 159.66 249.13 161.99 241.37 163.07C237.93 163.55 234.29 163.44 230.97 164.54C229.35 163.59 228.12 162.36 226.65 161.18C226.52 160.56 226.95 160.69 227.31 160.53C231.49 158.67 237.33 158.78 241.53 156.99C241.96 156.81 242.26 156.69 242.25 156.15C247.17 156.31 251.54 155.7 256.15 153.86C256.94 153.54 258.89 152.3 259.52 152.31C259.56 152.31 259.75 152.64 260.35 152.57C265.57 152.02 270.8 151.18 276.06 151.35V151.34Z" fill="#A9D38F"/>
<path d="M287.81 112.01C288.71 111.55 293.53 108.16 293.88 108.21C298.17 111.39 302.98 114.52 308.41 115.15C309.04 118.48 310.03 121.79 310.53 125.14C310.62 125.75 310.53 126.34 310.6 126.87C309.51 126.44 309.1 125.41 308.04 124.76C307.05 124.16 304.39 123.34 303.3 123.51C302.58 123.62 301.92 124.96 300.41 124.96C299.16 124.96 298.27 123.8 297.79 123.77C297.1 123.73 295.68 124.18 294.89 124.23C293.38 124.32 291.85 124.06 290.37 124.45C289.97 124.33 289.39 121.72 288.06 122.07C288.06 121.99 288.06 121.91 288.06 121.83C288.18 120.56 287.97 119.25 288.3 117.99L287.82 111.99L287.81 112.01Z" fill="#A7BD54"/>
<path d="M137.67 102.89C138.02 103.47 139.05 104.08 138.87 105.05C137.93 105.17 136.92 105.58 136.07 105.97C120.89 113 105.39 119.6 89.5901 125.2C84.2401 127.1 71.8901 131.94 66.8001 131.93C54.7001 131.9 41.1401 131.51 29.2201 129.2C25.6301 128.51 22.6901 128 20.6401 124.71C21.7401 124.85 22.1601 125.89 22.9701 126.33C25.4101 127.64 31.7601 128.38 34.7001 128.75C45.0501 130.05 56.0201 130.65 66.3101 129.96C90.0101 123.02 112.83 113.56 135.61 104.28L137.68 102.88L137.67 102.89Z" fill="#DE61C4"/>
<path d="M273.66 114.16C267.6 104.44 262.1 94.24 254.47 85.62L265.71 86.13C266.52 88.71 267.98 91.09 269.3 93.45C272.77 99.62 276.66 105.58 280.13 111.76C278.04 112.57 275.87 113.59 273.65 114.16H273.66Z" fill="#9EA485"/>
<path d="M310.59 126.88C310.98 129.69 311.28 132.62 311.55 135.51C309.58 134.84 307.75 132.4 305.68 132.15C302.89 131.8 299.93 133.08 297.22 133.53C293.24 134.2 289.2 134.41 285.17 134.55C285.87 132.51 286.37 130.42 286.85 128.31C287.33 126.2 287.84 124.17 288.05 122.07C289.38 121.72 289.96 124.33 290.36 124.45C291.84 124.05 293.37 124.31 294.88 124.23C295.67 124.18 297.09 123.73 297.78 123.77C298.26 123.8 299.15 124.96 300.4 124.96C301.91 124.96 302.57 123.62 303.29 123.51C304.38 123.34 307.04 124.15 308.03 124.76C309.1 125.41 309.5 126.45 310.59 126.87V126.88Z" fill="#90C35C"/>
<path d="M240.56 72.19L248.23 82.74C243.45 82.84 238.43 83.86 234.08 85.86C231.95 82.71 229.48 79.75 227.5 76.49L222.81 68.12C228.91 68.62 234.64 70.87 240.56 72.2V72.19Z" fill="#3A3A3A"/>
<path d="M271.02 78.67L274.38 84.07C281.98 85.51 289.52 87.52 296.61 90.62C298.8 91.58 301.34 93.32 303.53 94.02C303.65 94.06 303.92 94.09 303.88 93.91C302.81 92.47 302 90.85 300.96 89.4C299.11 86.82 296.72 84.69 295.01 82.04C295.88 81.79 296.77 81.56 297.65 81.32C297.96 82.87 299.59 83.92 300.52 85.04C304.48 89.83 307.53 95.41 311.08 100.5L308.68 99.9L311.32 104.1C311.18 104.07 310.99 104.12 310.84 104.1C310.56 103.8 308.62 102.65 308.68 103.5C308.85 106.09 310.78 109.48 310.84 112.25C309.55 112.28 308.89 112.01 307.72 111.77C306.61 106.79 305.1 101.89 303.1 97.2C295.45 92.96 287.7 90.2 279.18 88.27C278.22 88.05 277.28 87.75 276.3 87.55C275.98 87.48 275.66 87.37 275.34 87.31C274.3 85.31 273.86 83.56 271.26 83.47C270.96 82.96 270.26 82.28 269.87 81.63C269.22 80.54 268.58 79.4 268.15 78.2C268.97 78.4 270.17 78.47 271.03 78.68L271.02 78.67Z" fill="#1A1A1A"/>
<path d="M269.34 115.6C268.18 115.97 266.11 116.63 264.94 116.55C257.35 116 248.03 105.51 243.68 99.78C246.85 98.74 250.59 99.54 253.76 100.37C258.17 101.53 260.98 103.56 264.2 106.72C266.46 108.94 268.87 112.42 269.35 115.61L269.34 115.6Z" fill="#525838"/>
<path d="M92.8199 135.99C93.5499 138.24 95.3699 140.07 95.6999 142.47C93.0899 139.28 88.8099 141.06 87.5299 144.5C86.1399 148.24 88.1199 152.92 92.5799 152.07C92.0999 152.86 91.4399 154.1 90.7899 154.72C89.9499 155.53 88.5099 155.6 88.2599 156.87C85.2599 156.92 79.9199 155.06 79.0699 151.79C78.3799 149.11 79.6699 144.18 80.8999 141.71C83.0999 137.27 88.1099 135.68 92.8199 136V135.99Z" fill="#AC3332"/>
<path d="M312.51 150.86C312.59 152.59 312.94 154.58 312.99 156.38C310.41 155.99 307.96 154.99 305.36 154.53C296.52 152.96 285.22 153.43 276.16 153.73C275.38 153.76 274.7 154.18 273.89 153.74C274.57 153.13 275.41 152.06 276.05 151.34C276.85 150.43 278.04 149.19 278.69 148.22C278.94 148.62 279.6 148.46 280.01 148.46C287.49 148.55 295.12 148.42 302.56 149.18C305.92 149.52 309.2 150.3 312.52 150.86H312.51Z" fill="#90C35C"/>
<path d="M44.13 133.83C43.8 134.66 43.47 135.32 43.28 136.21C43.17 136.7 42.96 138.08 42.96 138.53C42.96 139.36 43.72 141.16 43.62 141.57C43.53 141.91 42.5 142.7 42.17 143.25C39.83 147.13 37.9 155.33 36.74 159.89C36.69 160.07 36.82 160.68 36.35 160.45C35.79 160.17 33.77 155.51 33.52 154.64C31.69 148.18 31.75 139.27 34.47 133.09L44.14 133.82L44.13 133.83ZM38.31 139.63C36.15 140.08 35.41 145.12 38.62 144.28C41.51 143.52 41 139.08 38.31 139.63Z" fill="#D8DF75"/>
<path d="M250.87 85.86C254.17 90.54 258.49 94.52 260.94 99.77C258.81 98.3 251.68 96.46 249.04 96.2C246.58 95.96 244.14 96.38 241.75 96.89C239.69 94.06 237.73 91.13 235.75 88.26C239.27 87.37 242.76 86.12 246.41 85.85C247.84 85.74 249.41 85.94 250.86 85.85L250.87 85.86Z" fill="#525838"/>
<path d="M319.22 112.96C320.18 115.78 321.63 118.79 322.07 121.74C322.8 126.55 322.95 135.22 320.04 139.32C319.2 140.5 316.24 141.78 315.13 140.66C314.72 140.24 314.75 136.3 314.65 135.38C313.95 128.64 313.14 121.94 311.53 115.35C314.27 115.19 316.69 113.89 319.2 112.95L319.22 112.96ZM317.25 121.88C314.93 122.32 316.15 129.31 317.07 130.6C317.64 131.4 318.96 131.51 319.59 130.71C320.5 129.56 319.97 126.11 319.65 124.66C319.39 123.48 318.81 121.58 317.26 121.87L317.25 121.88Z" fill="#CDC44D"/>
<path d="M167.65 137.43C167.28 137.57 165.5 139.09 165.25 138.87C165.03 137.69 164.74 136.47 164.36 135.32C161.42 126.52 158.75 118.1 154.74 109.68C154.21 108.58 151.92 104.99 151.82 104.21C151.75 103.71 152 103.79 152.38 103.89C153.52 104.2 155.39 105.2 156.46 105.81C158.02 106.7 161.57 108.96 162.14 110.56C163.02 113.02 164.03 116.45 164.7 119.15C166.17 125.03 167.12 131.39 167.65 137.42V137.43Z" fill="#C0CB4A"/>
<path d="M179.4 94.5L180.81 99.69L180.84 103.14C180.17 101.75 177.82 99.99 176.22 100.08C174.16 100.2 171.53 102.81 171.11 104.8C170.22 109.05 173.79 114.61 178.44 111.77C177.68 113.77 174.73 114.41 174.6 116.57C164.25 119.24 164.45 104.38 169.2 98.58C172.08 95.06 174.76 93.28 179.4 94.51V94.5Z" fill="#AC3332"/>
<path d="M194.99 64.76C194.55 69.78 191.67 73.74 188.28 77.36C182.79 83.21 176.87 87.56 170.12 91.82C163.8 95.81 157.55 99.43 150.28 101.47C150.02 101.45 149.14 99.38 148.94 99.06C153.21 97.75 156.89 95.12 160.77 93.02C163.01 91.81 165.35 90.76 167.57 89.51C176.34 84.56 190.51 74.87 194.38 65.46C194.53 65.09 194.35 64.62 194.99 64.76Z" fill="#DE61C4"/>
<path d="M226.65 161.17C222.19 157.6 217.75 154.05 213.94 149.78C216.15 148.25 218.24 146.6 220.07 144.63C220.41 144.54 220.46 144.84 220.62 145.02C222.48 147.01 223.96 149.96 226.23 151.65C231.32 155.45 236.08 155.93 242.24 156.13C242.24 156.67 241.95 156.79 241.52 156.97C237.33 158.76 231.49 158.66 227.3 160.51C226.94 160.67 226.52 160.54 226.64 161.16L226.65 161.17Z" fill="#8CDC9D"/>
<path d="M295 82.03C296.71 84.68 299.1 86.81 300.95 89.39C301.99 90.84 302.8 92.47 303.87 93.9C303.91 94.08 303.64 94.05 303.52 94.01C301.34 93.31 298.79 91.57 296.6 90.61C289.52 87.5 281.97 85.5 274.37 84.06L271.01 78.66C276.38 79.95 284.45 82.73 289.63 83.19C292.04 83.4 292.97 82.6 295 82.02V82.03Z" fill="#3A3A3A"/>
<path d="M193.07 130.47C191.69 132.02 193.14 134 193.48 135.69C195.31 144.86 190.54 151.03 185.28 157.58C185.04 157.88 184.95 158.49 184.91 158.53C184.64 158.8 181.56 159.32 181 159.2C177.16 158.35 182.43 153.32 183.33 152.03C187.33 146.3 190.86 140.06 191.6 132.96C191.67 132.27 191.04 131.54 191.86 130.71C192.39 130.16 192.76 130.46 193.06 130.47H193.07Z" fill="#C0CB4A"/>
<path d="M77.4702 142.23C77.0602 143.32 76.6402 144.66 76.5102 145.83C71.8002 144.35 66.7802 143.21 62.2002 141.32C61.4402 141 58.0102 139.46 57.6402 139.05C57.0502 138.39 56.6102 136.26 56.8802 135.44L57.2402 135.08L68.6702 134.8C69.5302 136.1 71.1002 136.71 72.2102 137.79C72.8102 138.38 74.1402 140.59 74.4602 140.82C75.0802 141.27 76.0602 140.91 76.2802 141.04C76.3602 141.09 76.6902 142.4 77.4802 142.24L77.4702 142.23Z" fill="#917D8B"/>
<path d="M266.7 159.01C265.53 159.8 264.33 160.73 263.1 161.41C260.75 162.71 254.39 165.57 251.89 165.91C251.4 165.98 251.01 165.63 250.38 165.82C250.01 165.93 248.53 166.99 248.23 167.41C242.58 166.76 236.93 166.17 231.37 164.96C231.12 164.86 231.04 164.58 230.97 164.53C234.29 163.43 237.93 163.54 241.37 163.06C249.13 161.98 257.06 159.66 264.69 158.8C265.27 158.74 266.24 158.58 266.7 159.01Z" fill="#CDD970"/>
<path d="M288.29 118C287.96 119.26 288.17 120.57 288.05 121.84C284.35 120.83 282.38 125.25 284.93 127.84C283.58 127.76 280.05 127.96 278.6 128.11C276.61 128.31 274.83 129.23 272.93 129.76C273.26 127.12 273.54 123.55 273.41 120.89C278.22 119.33 283.25 118.57 288.28 118.01L288.29 118Z" fill="#A9D38F"/>
<path d="M260.71 76.27L264.07 82.98L252.45 82.5L251.82 82.17L246.03 74.77L245.12 73.16C250.42 74.23 255.39 75.06 260.71 76.28V76.27Z" fill="#9D9D9D"/>
<path d="M53.7301 135.03C53.6301 136.96 53.9601 139.51 55.3001 141.01C56.6401 142.51 59.1101 142.85 60.6501 144.02C59.2901 147.69 54.8201 146.6 51.9201 145.59C47.0401 143.9 44.3501 139 47.3001 134.36L53.7301 135.03Z" fill="#AC3332"/>
<path d="M133.56 81.33L141.51 92.82C139.19 92.46 137.09 92.61 134.8 92.96C131.66 88.54 128.32 84.29 124.01 80.95C125.92 80.2 128.07 80.12 130.05 80.66C131.29 81 132.18 81.95 133.56 81.33Z" fill="#7D4D2F"/>
<path d="M245.12 73.15L246.03 74.76L251.82 82.16L252.45 82.49L264.07 82.97L260.71 76.26C261.02 76.33 261.26 76.46 261.43 76.5C262.44 78.73 263.98 80.78 265.03 82.98C265.45 83.86 265.74 85.1 266.23 86.1C267.24 88.16 268.19 90.22 269.31 92.26C272.89 98.78 277.08 104.99 280.62 111.53C280.49 111.58 280.34 111.69 280.14 111.77C276.67 105.6 272.78 99.64 269.31 93.46C267.98 91.1 266.53 88.72 265.72 86.14L254.48 85.63C262.11 94.25 267.61 104.44 273.67 114.17C273.56 114.2 273.31 114.6 272.98 114.39C271.34 111.23 269.31 108.31 267.44 105.3C264.27 100.2 261.31 95.06 257.6 90.32C256.34 88.7 254.79 87.25 253.53 85.64C252.8 84.7 252.11 83.71 251.37 82.76C249.78 80.72 245.84 76.24 244.88 74.26C244.65 73.8 244.59 73.43 244.66 72.92C244.88 72.96 245.06 73.14 245.14 73.16L245.12 73.15Z" fill="#6E6F6A"/>
<path d="M260.95 99.77C261.89 100.42 263.06 101.93 264.07 102.65L270.92 114.39L271.02 115.11C270.47 115.28 269.9 115.43 269.35 115.6C268.88 112.42 266.46 108.94 264.2 106.71C260.98 103.54 258.17 101.52 253.76 100.36C250.59 99.53 246.85 98.73 243.68 99.77C242.91 98.75 242.38 97.74 241.76 96.89C244.15 96.38 246.59 95.96 249.05 96.2C251.7 96.46 258.82 98.3 260.95 99.77Z" fill="#1A1A1A"/>
<path d="M151.58 110.33C149.44 109.68 147.37 109.31 145.13 109.84L137.05 96.2C136.73 95.21 138.32 95.43 138.99 95.47C140.97 95.6 142.62 96.47 144.4 97.25C146.75 101.64 149.67 105.71 151.58 110.33Z" fill="#7D4D2F"/>
<path d="M244.64 72.91C244.57 73.42 244.64 73.78 244.86 74.25C245.83 76.23 249.76 80.71 251.35 82.75L249.43 82.87L251.35 85.63C251.3 85.63 251.09 85.86 250.87 85.87C249.42 85.95 247.86 85.75 246.42 85.87C242.76 86.14 239.27 87.39 235.76 88.28C235.24 87.52 234.63 86.69 234.08 85.88C238.43 83.89 243.45 82.86 248.23 82.76L240.56 72.21C241.89 72.51 243.3 72.66 244.64 72.93V72.91Z" fill="#1A1A1A"/>
<path d="M308.91 78.43C310.98 80.75 312.94 83.15 314.67 85.74C317.71 90.28 321.76 96.59 324.02 101.46C324.57 102.64 324.8 103.2 325.46 104.34C325.59 104.56 325.59 105.03 325.7 105.3C325.65 105.34 325.63 105.67 325.22 106.02C325.15 104.08 324.36 104.97 323.42 105.77C322.3 106.72 321.19 108.04 320.19 109.13C319.45 109.42 318.44 110.22 317.66 109.63C315.59 106.49 313.22 103.58 311.08 100.5C307.53 95.41 304.48 89.83 300.52 85.04C299.59 83.91 297.96 82.87 297.65 81.32C297.79 81.28 297.99 81.36 298.13 81.32C303.54 87.31 307.7 94.27 312.18 100.96C314.62 102.37 316.68 104.26 318.39 106.5L323.53 101.84C321.05 97.13 318.15 92.3 315.25 87.82C314 85.9 312.72 83.97 311.31 82.17C310.38 80.99 308.95 79.9 308.44 78.45C308.58 78.41 308.78 78.49 308.92 78.45L308.91 78.43Z" fill="#6E6F6A"/>
<path d="M130.23 77.71C128.8 77.45 127.28 77.35 125.82 77.5C124.48 77.64 121.52 78.93 120.75 78.89C119.98 78.85 117.93 77.07 116.16 77.01C115.02 76.97 114.41 77.79 113.44 77.59C113.94 76.01 113.98 74.85 115.24 73.64C120.05 69.05 127.08 73.34 130.23 77.71Z" fill="#7D4D2F"/>
<path d="M311.55 77.71C313.8 80.51 315.91 83.36 317.89 86.36C320.21 89.89 323.35 94.52 325.27 98.17C326.17 99.87 326.61 101.94 327.87 103.37C327.07 104.41 326.4 104.63 325.71 105.29C325.6 105.02 325.6 104.55 325.47 104.33C326.57 102.99 325.88 101.16 324.03 101.45C321.78 96.58 317.72 90.27 314.68 85.73C312.95 83.14 310.99 80.74 308.92 78.42C309.79 78.17 310.69 77.95 311.56 77.7L311.55 77.71Z" fill="#1A1A1A"/>
<path d="M284.69 109.85C284.05 110.15 283.52 110.49 282.77 110.81L268.86 86.35C269.88 86.53 272.01 86.4 272.67 87.21L279.04 99.55C280.93 102.94 283.67 106.06 284.69 109.85Z" fill="#9EA485"/>
<path d="M206.5 142.23C208.7 139.99 211.14 138.55 214.32 138.18C215.37 138.06 216.59 138.41 217.53 137.91C217.76 138.88 219.01 141.11 218.61 141.98C218.15 142.98 213.18 146.87 212.01 147.17C210.84 147.47 210.49 146.08 209.86 145.46C208.75 144.39 207.62 143.27 206.5 142.23Z" fill="#8CDC9D"/>
<path d="M88.2598 156.86C88.5098 155.6 89.9398 155.52 90.7898 154.71C91.4398 154.09 92.0998 152.85 92.5798 152.06C96.1798 151.37 97.9498 145.21 95.6998 142.47C95.3798 140.07 93.5498 138.25 92.8198 135.99C94.5598 136.11 97.3198 136.99 98.3098 138.54C98.7398 139.22 99.4698 142.2 99.5398 143.07C100.03 149.55 95.1298 156.75 88.2698 156.86H88.2598Z" fill="#851717"/>
<path d="M57.08 149.66C59.86 149.6 61.46 148.47 63.08 146.3C67.47 147.03 68.1 151.61 64.76 154.34C60.78 157.6 55.52 154.9 57.08 149.66Z" fill="#C7B967"/>
<path d="M287.81 112.01L288.29 118.01C283.26 118.57 278.23 119.33 273.42 120.89C273.38 120.09 273.07 118.94 272.95 118.11L273.18 117.65C275.56 116.71 278.06 116.01 280.44 115.07C282.82 114.13 285.7 113.09 287.82 112.01H287.81Z" fill="#B8CE65"/>
<path d="M159.42 133.67C159.91 134.05 160.09 134.81 161.18 134.96L165.01 148.7L160.87 147.26L155.42 132.74C156.4 132.56 158.65 133.06 159.42 133.66V133.67Z" fill="#522715"/>
<path d="M174.6 116.56C174.73 114.4 177.68 113.77 178.44 111.76C180.98 110.2 182.11 105.75 180.84 103.13L180.81 99.68L179.4 94.49C183.57 95.59 185.09 97.32 184.67 101.8C184.13 107.59 180.71 114.98 174.6 116.55V116.56Z" fill="#851717"/>
<path d="M76.2702 141.03C78.4802 138.37 73.9602 135.89 72.4302 134.08L83.6802 130.5L85.1202 133.92C81.2002 135.93 79.0302 138.09 77.4602 142.23C76.6702 142.39 76.3402 141.08 76.2602 141.03H76.2702Z" fill="#6E6F6A"/>
<path d="M275.34 87.3C275.66 87.36 275.98 87.47 276.3 87.54L287.33 107.45C287.36 107.79 287.36 108.11 287.57 108.41C286.61 108.95 286.09 109.16 285.17 109.61C284.43 106.14 281.89 103.34 280.18 100.33C277.73 96 275.75 91.42 273.42 87.07C274.05 87.13 274.72 87.2 275.34 87.31V87.3Z" fill="#3A3A3A"/>
<path d="M192.83 103.37C191.72 103.57 191.92 105.49 191.66 106.4C190.38 110.98 187.13 116.15 181.79 115.84C185.56 112.23 187.5 106.32 187.79 101.21C189.56 101.77 190.95 102.94 192.83 103.37Z" fill="#C0CB4A"/>
<path d="M272.7 164.77C269.86 169.48 267.72 174.97 264.74 179.71L255.2 194.03C256.69 190.18 259.1 186.8 261 183.16C263.3 178.76 265.18 174.42 267.15 169.89C267.77 168.46 269.66 165.49 269.59 164.06C270.79 163.71 271.81 163.92 272.71 164.78L272.7 164.77Z" fill="#7D4D2F"/>
<path d="M154.22 116.8C154.5 120.85 154.01 125.19 154.22 129.27L146.78 112.6C149.19 112.06 151.29 113.68 153.49 114.28C154.14 114.98 154.16 115.91 154.22 116.79V116.8Z" fill="#7D4D2F"/>
<path d="M264.54 76.99L267.58 83.24L270.3 83.35C269.16 81.63 267.93 79.75 267.42 77.71C268.01 77.85 268.1 78.18 268.14 78.19C268.57 79.39 269.21 80.53 269.86 81.62C270.25 82.27 270.95 82.96 271.25 83.46C271.91 84.55 272.86 86.04 273.41 87.06C275.74 91.41 277.72 96 280.17 100.32C281.87 103.33 284.42 106.14 285.16 109.6C285 109.68 284.85 109.76 284.68 109.84C283.67 106.05 280.92 102.92 279.03 99.54L272.66 87.2C272 86.39 269.87 86.51 268.85 86.34L282.76 110.8C282.6 110.87 282.44 110.97 282.28 111.04C282.23 110.63 282.05 110.27 281.84 109.92C277.38 102.07 272.11 94.42 268.13 86.34C267.62 85.31 267.21 84.09 266.69 82.98C265.98 81.45 264.89 79.69 264.32 78.27C264.14 77.84 263.97 77.47 264.05 76.98C264.19 77.01 264.39 76.95 264.53 76.98L264.54 76.99Z" fill="#6E6F6A"/>
<path d="M253.51 85.62C254.77 87.24 256.32 88.68 257.58 90.3C261.29 95.05 264.25 100.18 267.42 105.28L264.06 102.64C263.05 101.92 261.88 100.41 260.94 99.76C258.48 94.51 254.16 90.53 250.87 85.85C251.09 85.84 251.29 85.61 251.35 85.61C252.05 85.55 252.8 85.65 253.51 85.61V85.62Z" fill="#3A3A3A"/>
<path d="M268.14 86.34C272.12 94.43 277.4 102.07 281.85 109.92C282.05 110.27 282.24 110.63 282.29 111.04C281.77 111.25 281.04 111.35 280.61 111.52C277.06 104.98 272.87 98.78 269.3 92.25C268.18 90.21 267.23 88.16 266.22 86.09L268.14 86.33V86.34Z" fill="#3A3A3A"/>
<path d="M260.46 214.18L251.38 205.14L254 201C254.46 200.92 254.69 201.31 254.95 201.6C256.77 203.65 259.16 208.76 260 211.42C260.29 212.36 260.64 213.15 260.47 214.18H260.46Z" fill="#525838"/>
<path d="M154.22 116.8C154.81 116.68 154.96 117.52 155.14 117.92C156.97 121.91 158.51 126.06 159.5 130.35C157.81 130.01 156.13 129.57 154.37 129.76L154.22 129.27C154.01 125.19 154.5 120.85 154.22 116.8Z" fill="#522715"/>
<path d="M249.16 198.14L247.39 202.18C245.14 200.16 241.82 199.25 239.37 197.72C238.79 197.36 238 197.02 238.15 196.18C241.98 195.46 245.8 196.24 249.15 198.13L249.16 198.14Z" fill="#525838"/>
<path d="M165.73 98.1C164.52 100.85 163.32 103.68 163.09 106.73C160.99 105.32 159.03 103.56 156.62 102.65C156.51 102.03 156.71 102.28 156.96 102.15C158.4 101.42 160.24 100.95 161.74 100.22C162.27 99.96 165.52 97.89 165.73 98.1Z" fill="#917D8B"/>
<path d="M310.83 104.09C310.83 104.09 310.83 104.4 310.96 104.55C312.61 106.55 313.97 108.8 315.62 110.8C313.79 111.54 313.05 112.19 310.82 112.24C310.76 109.47 308.83 106.08 308.66 103.49C308.61 102.64 310.55 103.8 310.82 104.09H310.83Z" fill="#4D522D"/>
<path d="M217.3 135.99C217.41 136.56 217.41 137.35 217.54 137.91C216.6 138.41 215.38 138.06 214.33 138.18C211.15 138.54 208.71 139.99 206.51 142.23C206 141.76 205.51 141.18 205.07 140.79C208.17 137.23 212.55 135.31 217.3 135.99Z" fill="#A9D38F"/>
<path d="M43.17 222.09C42.37 219.81 41.5 217.43 40.77 215.13C46.19 211.66 49 221.32 43.17 222.09Z" fill="#C7B967"/>
<path d="M141.99 110.09C142.43 110.9 142.78 111.68 143.19 112.49L137.43 115.37C134.72 113.17 136.48 109.21 139.93 109.63L141.99 110.09Z" fill="#C8B548"/>
<path d="M198.59 159.25C198.34 157.73 198.95 156.99 199.97 156.02L198.35 153.74C201.64 153.22 204.39 153.16 205.77 156.71C205.59 157.47 199.65 158.84 198.59 159.25Z" fill="#C0CB4A"/>
<path d="M199.31 163.57C201.03 163.57 202.16 163.57 203.61 164.67C205.14 165.82 205.77 168.42 204.67 170.06C203.97 170.03 203.25 170.09 202.55 170.05C201.85 170.01 200.63 169.6 200.03 169.57C199.99 168.91 200.79 168.71 200.94 168.2C201.61 165.99 199.12 165.67 199.31 163.57Z" fill="#C0CB4A"/>
<path d="M160.45 157.81C160.81 157.21 161.84 156.89 162.23 156.36C163.26 154.94 161.86 152.25 161.89 150.62C162.68 151.24 164.61 151.55 165.24 152.19C165.87 152.83 165.96 156.13 165.5 156.76C164.38 158.31 162.05 158 160.45 157.82V157.81Z" fill="#522715"/>
<path d="M191.15 178.92C191.39 177.89 192.34 176.91 192.53 175.87C192.68 175.04 192.79 173.1 192.83 172.21L194.96 173.08C195.14 175.16 195.47 180.82 192.1 179.78C191.49 179.59 191.4 179.1 191.15 178.93V178.92Z" fill="#C0CB4A"/>
<path d="M265.02 185.16C265.02 185.16 265.05 185.58 265.27 185.74C265.99 186.27 266.81 186.71 267.54 187.32C269.28 188.78 270.91 190.46 272.7 191.87C269.47 190.91 266.21 189.53 263.45 187.56L264.53 185.31L265.02 185.16Z" fill="#525838"/>
<path d="M203.62 144.14L196.19 144.86L196.43 141.5L201.77 142.03C202.1 142.21 203.91 143.87 203.62 144.14Z" fill="#C0CB4A"/>
<path d="M149.18 144.86C149.78 143.76 151 143.09 151.81 142.09C152.81 140.86 153.2 139.55 154.22 138.38C154.47 139.07 156.08 142.31 155.8 142.71C153.64 143.54 151.35 144.06 149.18 144.86Z" fill="#C0CB4A"/>
<path d="M267.42 77.71C267.92 79.75 269.15 81.63 270.3 83.35L267.58 83.24L264.54 76.99C265.5 77.22 266.46 77.48 267.42 77.71Z" fill="#9D9D9D"/>
<path d="M311.31 104.09C313.13 104.53 316.28 108.73 317.54 110.21C317.07 110.66 316.11 110.61 315.62 110.81C313.97 108.81 312.61 106.56 310.96 104.56C310.84 104.41 310.87 104.14 310.83 104.1C310.98 104.12 311.17 104.07 311.31 104.1V104.09Z" fill="#522715"/>
<path d="M264.06 76.99C263.98 77.48 264.15 77.84 264.33 78.28C264.9 79.7 265.99 81.46 266.7 82.99H265.02C263.97 80.8 262.43 78.74 261.42 76.51C262.2 76.69 263.13 76.77 264.06 76.99Z" fill="#1A1A1A"/>
<path d="M143.66 113.2C142.76 116.61 140.36 116.86 137.42 115.6V115.36L143.18 112.48C143.28 112.67 143.51 112.9 143.66 113.2Z" fill="#C7B967"/>
<path d="M320.19 109.13C321.19 108.04 322.3 106.72 323.42 105.77C324.36 104.96 325.15 104.07 325.22 106.02C323.39 107.61 322.47 108.23 320.18 109.14L320.19 109.13Z" fill="#9D9D9D"/>
<path d="M95.88 164.11C98.78 163.76 101.27 166.06 101.87 168.78C102.15 170.05 102.07 173.76 101.64 174.91C101.21 176.06 99.88 177.43 98.64 177.66C93.97 178.52 91.21 173.84 91.38 169.68C91.51 166.56 92.54 164.5 95.88 164.1V164.11Z" fill="#C7B967"/>
<path d="M45.98 173.7C47.5 173.39 49.62 173.66 50.73 174.83C54.06 178.35 49.25 184.68 44.25 180.35C41.72 178.16 43.02 174.3 45.98 173.69V173.7Z" fill="#C7B967"/>
<path d="M53.81 210.73C49.5 206.24 56.45 200.97 59.96 205.66C63.47 210.35 57.66 214.74 53.81 210.73Z" fill="#C7B967"/>
<path d="M99.2401 186.9C101.34 186.64 103.96 187.01 104.1 189.61C104.33 193.7 95.7401 194.99 95.4501 190.07C95.3201 187.91 97.4301 187.13 99.2401 186.9Z" fill="#C7B967"/>
<path d="M72.61 161.95C78.22 160.91 78.58 169.4 73.92 169.76C72.48 169.87 70.52 168.74 70.29 167.28C69.99 165.37 70.29 162.38 72.61 161.95Z" fill="#C7B967"/>
<path d="M83.4602 205.54C83.4102 205.7 83.2702 205.86 83.2202 206.02C82.4502 208.74 81.6102 211.9 81.0602 214.65C74.9402 213.22 76.7302 203.31 83.4602 205.54Z" fill="#C7B967"/>
<path d="M118.17 133.64C123.67 132.4 122.8 140.09 118.83 140.31C114.86 140.53 115.53 134.23 118.17 133.64Z" fill="#C7B967"/>
<path d="M115.84 158.77C115.91 158.75 116 158.78 116.08 158.77C117.26 161.23 118.05 163.44 118.24 166.21C118.24 166.29 118.24 166.37 118.24 166.45C116.37 166.57 114.46 166.48 113.33 164.76C111.73 162.3 113.16 159.46 115.84 158.78V158.77Z" fill="#C7B967"/>
<path d="M81.07 214.9C81.08 214.82 81.05 214.74 81.07 214.66C81.62 211.9 82.46 208.75 83.23 206.03C88.28 208.59 86.7 215.1 81.07 214.9Z" fill="#C8B548"/>
<path d="M116.8 180.84C116.83 180.77 116.77 180.67 116.8 180.6C116.83 180.53 116.78 180.43 116.8 180.36C117.39 178.6 117.77 177.19 118 175.32C118.02 175.16 117.98 175 118 174.84C124.66 174.6 123.13 183.51 116.8 180.84Z" fill="#C8B548"/>
<path d="M71.6402 251.4C75.9502 250.41 76.1702 256.32 72.7302 256.82C68.9302 257.37 68.9502 252.02 71.6402 251.4Z" fill="#C7B967"/>
<path d="M89.3898 277.31C94.0398 276.25 94.0298 282.64 90.5498 282.55C87.5498 282.47 86.6898 277.93 89.3898 277.31Z" fill="#C7B967"/>
<path d="M118 175.32C117.77 177.18 117.39 178.6 116.8 180.36H116.56C114.87 179.01 115.55 175.42 118 175.32Z" fill="#C7B967"/>
<path d="M116.8 180.6C116.71 180.53 116.65 180.43 116.56 180.36H116.8C116.78 180.43 116.83 180.53 116.8 180.6Z" fill="#C0CB4A"/>
<path d="M253.44 118.29C255.06 117.93 255.97 118.83 256.33 120.33C257.01 123.16 256.01 129.89 254.72 132.52C254.14 133.71 252.55 134.46 251.58 133.24C250.61 132.02 250.74 126.71 250.86 125.07C250.98 123.43 251.7 118.68 253.44 118.29Z" fill="#020201"/>
<path d="M180.78 139.17C185.89 138.3 186.51 146.15 180.96 145.59C176.94 145.18 176.97 139.82 180.78 139.17Z" fill="#C7B967"/>
<path d="M86.2901 248.76C86.9001 248.68 89.2201 248.98 89.7701 249.25C92.5001 250.57 93.1401 256.82 90.2001 257.72C84.6801 259.42 81.0701 249.44 86.3001 248.76H86.2901Z" fill="#C8B548"/>
<path d="M107.38 287.62C110.16 287 110.93 291.95 107.38 291.12C105.87 290.76 105.68 288 107.38 287.62Z" fill="#C8B548"/>
<path d="M118.24 166.21C118.05 163.44 117.26 161.24 116.08 158.77C116.22 158.75 116.38 158.49 116.89 158.52C121.22 158.7 122.39 164.78 118.24 166.21Z" fill="#C8B548"/>
<path d="M201.23 120.4C205.66 121.01 204.24 128.07 199.31 126.4C195.74 125.18 196.75 119.79 201.23 120.4Z" fill="#C7B967"/>
<path d="M299.08 161.65C300.35 162.78 303.4 165.21 301.61 166.94C300.1 168.4 299.54 166.4 298.84 165.61C298.3 165.01 297.53 164.21 296.92 163.69C296.36 163.21 295.02 162.58 294.74 162.27C294.32 161.8 294.44 161.14 294.27 160.7C295.96 158.4 297.61 160.37 299.07 161.66L299.08 161.65Z" fill="#020201"/>
<path d="M310.35 161.41C310.1 162.19 308.58 165.1 307.82 165.24C305.39 165.71 305.74 163.62 306.51 162.12C306.73 161.69 307.84 159.78 308.08 159.49C309.41 157.87 311.07 159.13 310.35 161.4V161.41Z" fill="#020201"/>
<path d="M288.05 121.84C288.05 121.92 288.05 122 288.05 122.08C287.84 124.18 287.31 126.26 286.85 128.32C286.13 128.5 285.54 127.87 284.93 127.84C282.38 125.26 284.34 120.83 288.05 121.84Z" fill="#A0C483"/>
<path d="M279.17 88.26C279.86 89.64 281.35 90.56 282.25 91.78C285.26 95.87 286.88 102.45 287.33 107.45L276.3 87.54C277.28 87.74 278.22 88.04 279.18 88.26H279.17Z" fill="#525838"/>
<path d="M275.34 87.3C274.72 87.19 274.05 87.12 273.42 87.06C272.87 86.04 271.92 84.56 271.26 83.46C273.86 83.55 274.3 85.3 275.34 87.3Z" fill="#020201"/>
<path d="M95.6999 142.47C97.9499 145.21 96.1799 151.37 92.5799 152.06C88.1199 152.91 86.1399 148.23 87.5299 144.49C88.8099 141.06 93.0799 139.27 95.6999 142.46V142.47ZM91.7899 143.94C90.0199 144.2 89.1399 148.89 91.2899 149.12C92.9599 149.29 94.4699 145.9 93.4099 144.63C93.1399 144.31 92.2299 143.87 91.7899 143.94Z" fill="#020201"/>
<path d="M38.3102 139.63C41.0002 139.07 41.5102 143.52 38.6202 144.28C35.4102 145.12 36.1502 140.08 38.3102 139.63Z" fill="#C7B967"/>
<path d="M317.25 121.88C318.8 121.58 319.38 123.49 319.64 124.67C319.96 126.11 320.49 129.57 319.58 130.72C318.95 131.51 317.63 131.41 317.06 130.61C316.14 129.32 314.92 122.33 317.24 121.89L317.25 121.88Z" fill="#020201"/>
<path d="M180.84 103.13C182.11 105.75 180.98 110.21 178.44 111.76C173.79 114.6 170.22 109.04 171.11 104.79C171.53 102.8 174.16 100.18 176.22 100.07C177.82 99.98 180.16 101.74 180.84 103.13ZM174.91 109.06C177.1 110.86 179.66 105.69 177.84 104.09C174.83 101.45 172.48 107.07 174.91 109.06Z" fill="#020201"/>
<path d="M251.35 82.74C252.09 83.69 252.78 84.68 253.51 85.62C252.8 85.66 252.06 85.56 251.35 85.62L249.43 82.86L251.35 82.74Z" fill="#020201"/>
<path d="M266.7 82.98C267.22 84.09 267.63 85.31 268.14 86.34L266.22 86.1C265.73 85.1 265.44 83.86 265.02 82.98H266.7Z" fill="#020201"/>
<path d="M325.46 104.33C324.8 103.19 324.57 102.64 324.02 101.45C325.87 101.16 326.56 102.99 325.46 104.33Z" fill="#020201"/>
<path d="M91.7901 143.94C92.2201 143.87 93.1401 144.31 93.4101 144.63C94.4801 145.9 92.9601 149.29 91.2901 149.12C89.1401 148.89 90.0201 144.21 91.7901 143.94Z" fill="#917D8B"/>
<path d="M174.91 109.06C172.48 107.07 174.84 101.45 177.84 104.09C179.66 105.69 177.1 110.85 174.91 109.06Z" fill="#917D8B"/>
</svg>
