<svg width="360" height="360" viewBox="0 0 360 360" fill="none" xmlns="http://www.w3.org/2000/svg">
<path d="M182.4 151.82C181.59 151.68 179.9 150.2 179.63 150.24C171.14 153.84 162.61 157.33 154.6 161.91C154.15 162.3 153.85 163.45 154.1 164.05C155.65 163.49 157.26 163.07 158.9 162.85C162.49 162.36 170.4 161.61 171.38 166.43C172.1 169.98 168.31 171.15 166.13 172.72C164.66 173.78 163.24 174.93 161.89 176.15C165.63 176.51 168.92 176.68 171.11 180.12C172.97 183.05 171.66 186.46 168.7 187.99C166.63 189.06 163.99 189.9 161.66 189.7L164.9 192.57C169.2 197.26 167.45 202.13 160.86 202.08C155.21 202.04 150.25 197.21 145.51 194.93C143.1 193.77 140.41 195 137.56 194.73C136.24 194.61 134.04 193.54 133.23 193.56C132.66 193.57 131.46 194.44 130.78 194.68C129.57 195.1 127.81 195.4 126.53 195.46C124.94 195.54 123.86 194.82 122.67 195.92C115.85 202.19 115.48 218.17 116.35 226.72C117.22 235.27 118.2 245.5 121.72 253.48C124.76 260.38 129.64 268.4 133.87 274.67C138.96 282.21 147.25 292.51 154.61 297.82C155.43 298.41 159.51 300.6 159.7 300.88C161.49 303.57 155.85 303.65 154.56 303.63C137.98 303.38 125.96 298.16 112.17 289.66C97.3198 280.51 77.7198 262.95 74.8498 244.95C74.3498 241.8 73.8598 238.53 73.4198 235.35C73.3298 234.7 73.5298 233.74 73.3598 233.25C73.2498 232.92 72.4998 232.79 72.0798 232.37C70.6798 230.95 65.7498 222.44 64.7098 220.31C62.2698 215.29 60.0698 207.58 58.4598 202.1C53.9198 186.67 53.9398 171.4 57.5698 155.76C50.4698 146.81 50.0498 134.25 53.2298 123.64L52.8498 123.29C46.4898 123 40.4698 120.51 38.3198 114.07C37.2998 111 38.4498 109.95 40.6598 108.15C49.6898 100.77 61.3298 102.64 71.4598 99.62C76.4598 98.13 83.9098 94.37 88.8998 92.12C97.0998 88.41 105.09 84.25 113.28 80.52L134.07 72.17C132.39 70.83 132.18 70.19 132.42 68C133.12 61.6 139.38 58.25 145.35 59.82C147.32 60.34 149.19 61.57 150.85 62.72C151.33 63.06 151.92 64.03 152.57 63.91C153.11 63.81 156.09 62.28 156.79 61.91C163.43 58.34 171.57 54.71 177.67 50.65C187.93 43.81 195.45 37.17 208.97 39.39C218.75 40.99 222.61 52.62 219.03 61.07C216.72 66.52 209.71 73.82 205.08 77.58C203.22 79.09 201.09 80.16 199.32 81.77C201.54 82.12 204.2 82.73 206.12 83.97C206.55 84.25 208.49 85.96 208.78 86.35C209.16 86.86 209.42 87.89 209.71 88.18C210.69 89.17 215.32 91.03 216.79 91.29C224.99 92.73 240.73 87.85 249.41 86.16C264.71 83.19 283.33 79.69 298.67 83.04C304.88 84.4 309.33 86.74 312.72 92.31C318.59 93.19 323.85 92.59 328.6 96.75C334.26 101.71 336.15 109.31 335.55 116.66C335.26 120.26 333.33 123.64 332.72 127.16C335.71 131.92 338.78 136.71 341.03 141.88C344.54 149.94 345.82 157.43 338.3 163.54C336.5 165 335.12 164.88 333.8 165.69C333.55 165.85 333.17 166.63 332.66 167.01C325.95 171.94 318.56 168.5 311.38 167.22C305.47 166.16 299.48 165.46 293.58 164.37L288.31 174.1C290.35 173.73 291.72 176.15 293.1 177.34C294.48 178.53 298.2 181.05 298.57 182.66C300.22 189.93 288.44 183.64 285.99 182.29C285.53 182.04 283.68 180.7 283.52 180.81L278.27 189.29C278.91 190.02 279.56 190.73 280.11 191.53C282.16 194.55 285.93 201.8 285.64 205.37C285.45 207.68 284.28 210.79 281.59 208.76C278.68 205 274.86 202.07 271.64 198.57C271.04 198.57 267.14 205.44 266.13 206.25C265.2 206.99 263.78 206.49 263.6 205.39C263.27 203.33 267.52 198.15 267.89 195.86C266.1 193.56 258.01 191.26 257.23 188.75C256.95 187.83 256.97 185.79 257.6 185.01C258.23 184.23 261.4 183.77 262.53 183.7C265.89 183.48 270.14 184.79 272.96 186.57L285.92 161.63C281.65 160.76 277.14 159.75 273.02 158.33C269.63 157.16 266.32 155.51 262.96 154.24C252.33 150.24 242.52 147.12 232.88 140.9C231.64 140.1 230.89 139.13 229.44 138.58C225.74 137.18 220.9 138.32 217.13 139.12L215.4 142.9C219.93 141.38 226.17 139.83 229.51 144.26C232.85 148.69 229.91 151.09 225.48 151.78L228.45 153.72C230.35 156.25 231.26 160.31 229.07 162.93C228.73 163.34 228.24 163.37 228.11 163.77C232.69 164.11 237.32 164 241.92 164.25C246.52 164.5 251.48 165.2 256.28 165.45C258.52 165.56 260.78 165.33 263.02 165.46C264.22 165.53 267.83 165.86 268.38 166.79C269.79 169.17 267.11 170.31 265.62 171.77C258.15 179.09 242.83 192.63 232.73 194.64C228.41 195.5 226.15 193.56 222.77 191.3C218.7 188.58 214.61 185.46 211.57 181.62C206.1 183.26 201.1 185.01 195.91 181.71C188.64 177.09 186.84 173.04 186.15 164.61C185.8 160.28 186.15 155.9 187.11 151.66C186.98 151.29 186.57 151.78 186.51 151.78C185.34 151.78 183.48 151.95 182.43 151.78L182.4 151.82ZM171.01 89.94C171.21 90.26 172.09 92.34 172.35 92.35C179.62 90.3 185.87 86.68 192.19 82.7C198.94 78.44 204.86 74.09 210.35 68.24C213.74 64.63 216.62 60.66 217.06 55.64C217.26 53.32 217.2 52.24 216.39 49.96C214.5 44.65 212.04 42.67 206.39 42.21C193.39 41.17 186.84 48.92 176.93 54.96C171.02 58.56 163.42 61.94 157.11 65.36C156.47 65.71 155.48 65.87 154.95 66.32C154.58 66.63 154.75 66.52 154.95 66.79C155.93 68.23 157.55 69.79 158.65 71.25C163.12 77.21 167.16 83.63 171.03 89.93L171.01 89.94ZM152.3 68.59C149.18 64.2 142.11 59.94 137.31 64.52C136.04 65.73 136.01 66.89 135.51 68.47C136.49 68.67 137.1 67.85 138.23 67.89C139.99 67.95 142.06 69.74 142.82 69.77C143.58 69.8 146.56 68.52 147.89 68.38C149.35 68.22 150.87 68.33 152.3 68.59ZM155.62 72.21C154.24 72.83 153.35 71.88 152.11 71.54C150.13 71 147.98 71.08 146.07 71.83C150.39 75.16 153.73 79.42 156.86 83.84C159.16 83.49 161.26 83.34 163.57 83.7L155.62 72.21ZM42.6898 115.6C44.7398 118.89 47.6798 119.39 51.2698 120.09C63.1998 122.4 76.7598 122.79 88.8498 122.82C93.9398 122.83 106.29 117.99 111.64 116.09C127.44 110.48 142.95 103.89 158.12 96.86C158.97 96.47 159.98 96.06 160.92 95.94C161.1 94.97 160.08 94.37 159.72 93.78C156.74 88.87 153.57 83.72 149.77 79.39C147.39 76.68 144.18 73.51 140.71 72.47C131.67 76.51 122.32 79.89 113.27 83.91C99.6898 89.94 86.5198 96.99 72.7298 102.61C63.8198 104.7 52.8998 104.33 44.8598 109.04C44.2298 109.41 41.5998 111.28 41.3698 111.78C40.9098 112.8 42.1098 114.7 42.6798 115.61L42.6898 115.6ZM254.47 88.26C254.28 88.29 254.25 88.5 254.23 88.5C254.15 88.51 254.07 88.49 253.99 88.5C252.23 88.82 250.48 89.11 248.71 89.46C240.33 91.11 232 93.02 223.62 94.71C220.34 94.73 216.33 94.91 213.21 93.78C212.7 93.6 210.12 91.81 209.85 92.1C209.64 94.62 209.14 97.77 208.17 100.14C207.7 101.29 206.02 104.36 205.29 105.29C200.41 111.51 190.15 113.79 186.13 105.38C185.73 104.55 185.22 101.97 185.03 101.69C184.85 101.44 184.3 101.45 184.06 101.22C183.26 100.46 182.93 100.05 182.03 99.29C180.03 97.61 176.98 95.48 174.43 94.78C174.07 94.68 173.79 94.6 173.87 95.1C179.97 105.94 183.95 117.81 187.31 129.75C187.86 129.83 188.13 129.24 188.51 129.03C189.75 128.32 190.83 127.66 192.12 128.66C193.8 129.97 192.38 131.61 191.99 133.35C190.91 138.14 190.37 145.39 190.91 150.26C191.13 152.23 192.69 153.1 194.19 154.17C196.66 155.94 198.39 156.72 201.41 157.27C202.65 157.49 206.11 157.21 206.27 158.9C206.32 159.43 205.89 159.76 205.84 160.13C205.73 161.02 208.97 165.79 209.73 166.69C210.7 167.84 211.84 168.69 212.97 169.57C213.16 169.72 213.33 170.17 213.7 170.4C217.65 172.87 217.44 164.11 216.82 163.68C216.48 163.44 215.87 163.67 215.61 163.58C215.53 163.55 214.81 162.85 214.75 162.64C214 160.08 216.53 160.4 218.25 160.46C219.25 160.49 220.37 160.42 221.25 160.46C222.28 160.5 226.23 161.32 226.85 160.91C227.68 159.15 227.26 156.75 225.67 155.56C224.37 154.58 223.39 154.52 221.85 154.46C221.07 154.43 219.85 154.35 219.14 154.51C218.52 154.65 218.09 155.34 217.39 155.42C215.67 155.6 215.05 153.75 216.21 152.54C216.29 152.46 217.68 151.39 217.77 151.34C218.75 150.81 221.2 150.02 222.38 149.6C223.28 149.28 227.65 148.35 227.83 147.6C226.71 144.76 224.82 144.21 221.94 144.37C221.5 144.39 221.24 144.61 221.13 144.63C217.23 145.1 216.24 146.25 213.04 147.45C212.66 147.59 212.12 147.4 211.83 147.56C211.63 147.67 210.31 150.19 209.52 150.64C208.82 151.04 208.38 150.78 207.71 150.87C207.25 150.22 206.71 149.6 207.17 148.77C210.02 145.09 213.43 141.54 214.79 136.96C215.63 134.12 216.14 129.49 215.56 126.59C215.25 125.06 213.4 122.05 215.63 121.37C216.17 121.64 216.89 121.08 217.43 122.33C217.82 123.24 218.6 126.27 218.72 127.28C218.82 128.1 218.72 128.95 218.75 129.77C219.62 129.8 220.52 129.72 221.39 129.77C222.26 129.82 223.97 129.83 224.75 130.01C225.63 130.22 226.93 131.51 227.63 132.17C229.58 133.99 230.67 135.52 232.91 137.21C236 139.54 242 143.34 245.62 144.41C252.01 146.29 257.7 144.01 263.3 141.1C264.26 140.6 264.11 140.12 265.53 140.09C267.36 140.05 268.03 141.5 269.66 142.08C272.2 142.97 274.89 142.12 276.92 143.93C277.96 144.85 278.48 145.94 279.94 146.66C281.4 147.38 282.57 147.22 283.99 147.52C286.88 148.14 289.71 150.2 292.62 151.36C298.62 153.74 305.01 156.21 311.09 158.32C317.17 160.43 325.63 163.25 332.32 162.89C334.88 162.75 336.75 161.15 338.31 159.29C343.04 153.64 339.93 147.25 337.23 141.54C336.31 139.59 335.43 137.71 334.35 135.78C332.75 132.93 330.87 129.53 328.93 126.93C327.15 124.54 324.8 122.75 323.27 120.11C322.65 119.04 321.21 116.38 323.55 116.35C325.35 116.33 325.7 118.48 326.56 119.69C326.86 120.12 330.28 123.96 330.5 123.78C330.88 122.47 331.44 121.24 331.78 119.9C333.81 111.92 331.71 100.6 323.31 97.16C323.17 97.1 323.05 96.99 322.83 96.92C321.12 96.37 319.72 96.4 318.03 96.2C317.86 96.18 317.59 95.99 317.31 95.96C316.36 95.86 315.39 95.76 314.43 95.72L314.21 97.72C312.34 98.87 311.82 97.63 311.07 96.2C306.67 87.74 302.09 86.34 292.84 85.17C290.48 84.87 288.5 84.73 286.12 84.69C275.66 84.5 264.74 86.43 254.46 88.29L254.47 88.26ZM197.15 107.21C203.12 105.09 206.19 98.72 206.74 92.7C207.13 88.44 205.74 86.52 201.71 85.39C193.83 83.17 188.47 91.49 188.03 98.45C187.67 104.1 190.9 109.43 197.15 107.21ZM173.64 101.21C171.73 96.59 168.81 92.51 166.46 88.13C164.68 87.35 163.03 86.48 161.05 86.35C160.39 86.31 158.79 86.09 159.11 87.08L167.19 100.72C169.43 100.19 171.5 100.57 173.64 101.21ZM187.79 88.98C187.58 88.77 184.33 90.85 183.8 91.1C182.29 91.83 180.45 92.3 179.02 93.03C178.77 93.16 178.57 92.91 178.68 93.53C181.09 94.44 183.05 96.2 185.15 97.61C185.38 94.56 186.58 91.73 187.79 88.98ZM141.75 107.45C139.5 108.34 137.1 109.07 135.03 110.33C126.29 113.76 117.62 117.35 108.65 120.17L110.11 123.98C112.74 124.19 115.66 123.61 118.19 124.41C122.24 125.69 123.56 127.58 124.36 131.67C125.23 136.11 124.03 141.43 121.35 145.11C118.26 149.35 113.03 151.42 107.91 150.51C101.93 149.45 97.3498 146.26 97.8198 139.61L85.7498 135.98C85.5698 136 85.3398 136.91 85.1298 137.19C83.5198 139.36 81.9098 140.49 79.1298 140.55C74.9898 140.64 69.4898 138.6 66.8998 135.27C63.3998 143.38 61.1298 151.99 59.5798 160.69C56.5698 177.53 57.7098 189.9 62.8198 206.03C63.5498 208.32 64.4198 210.71 65.2198 212.99C66.0998 215.49 66.6998 217.56 67.9698 219.95C68.8998 221.7 71.7098 226.7 72.8898 227.98C73.1098 228.22 73.2298 228.42 73.6098 228.34C72.8498 226.07 76.0098 224.59 76.6798 226.83C76.9898 227.89 76.2698 231.26 76.2698 232.56C77.3798 238.82 77.6298 246.36 80.0398 252.24C87.9298 271.48 116.67 292.15 136.21 297.89C141.71 299.5 147.23 300.7 153 300.41C150.39 298.48 148.09 296.22 145.8 293.94C135.45 283.63 127.34 271.36 120.74 258.32C116.35 249.65 115.81 244.87 114.6 235.44C113.11 223.83 111.45 214.19 115.23 202.67C116.25 199.54 118.28 196.86 119.91 194.04C116.46 192.84 112.99 190.55 110.56 187.8C109.13 186.19 105.41 180.42 106.7 178.37C107.36 177.74 108.84 177.79 109.23 178.7C109.43 179.16 109.29 179.68 109.47 180.14C111.15 184.56 112.8 186.18 116.55 188.77C123.65 193.66 128.95 193.73 135.71 188.15C136.01 187.9 136.13 187.46 136.46 187.22C138.12 186.03 139.75 187.82 138.48 189.72C138.24 190.09 136.4 191.4 136.69 191.65C137.56 191.63 138.32 191.92 139.21 191.91C143.81 191.83 143.23 190.27 148.03 192.9C151.48 194.79 156.98 199.27 161.02 199.09C165.39 198.9 164.33 196.52 162.12 194.16C160.26 192.19 158.01 191.46 156.26 188.99C155.59 188.05 155.1 187.2 155.69 186.06C156.82 183.91 159.5 186.3 161.09 186.55C163.39 186.91 170.11 185.45 168.65 182.11C167.75 180.06 165.6 179.72 163.64 179.44C162.26 179.25 157.95 179.37 157.3 178.35C156.29 176.75 158.59 175.06 159.71 174.01C160.95 172.85 162.45 171.7 163.82 170.68C164.75 169.99 167.62 168.46 168.09 167.74C168.81 166.63 167.4 166.05 166.49 165.8C163.97 165.11 157.89 165.82 155.48 166.89C154.65 167.26 154.1 167.97 153.15 168.16C152.3 170.03 148.75 177.52 147.03 178.11C146.48 178.3 145.52 178.36 145.22 177.74C144.49 176.26 146.91 173.84 147.69 172.54C151.34 166.43 152.15 159.24 151.03 152.27C150.38 148.25 149.4 145.76 145.33 144.29C139.12 142.06 135.55 142.81 129.99 145.84C128.1 146.87 122.59 150.29 121.59 151.95C121.31 152.41 121.34 152.93 121.09 153.37C120.23 154.89 117.14 153.83 118.39 151.14C120.07 147.5 130.45 141.63 134.32 140.45C139.67 138.83 147 140.73 151.21 144.33C154.31 142.46 157.85 141.58 161.16 140.2C164.47 138.82 167.74 137.05 171.24 135.77C173.41 134.97 175.7 134.45 177.86 133.62C178.17 133.18 176.74 130.63 176.52 130.01C173.42 121.19 169.93 112.48 165.73 104.11C165.33 103.31 164.95 102.5 164.53 101.71C164.37 101.41 164.16 101.2 164.05 100.99C163.82 100.57 162.78 98.12 162.49 98.12C162.21 98.41 161.95 98.7 161.58 98.88C155.14 102.1 148.45 104.8 141.75 107.47V107.45ZM176.04 106.49C175.87 106.12 175.94 105.44 175.56 105.17C173.51 104.66 171.41 103.07 169.2 103.37C168.92 103.41 168.72 103.27 168.85 103.72C169.38 105.49 170.95 108.08 171.76 109.92C173.3 113.42 174.75 116.97 176.25 120.49C176.5 120.81 177.13 120.61 177.47 120.64C178.91 120.77 179.88 120.86 181.31 121.25C181.6 121.33 181.63 121.52 181.55 121.01C180.85 116.51 177.98 110.66 176.03 106.5L176.04 106.49ZM99.5298 133.11C101.09 128.97 103.27 126.81 107.19 124.8L105.75 121.38L94.4998 124.96C96.0298 126.77 100.54 129.25 98.3398 131.91C97.9098 131.75 97.1598 132.15 96.5198 131.69C96.2098 131.47 94.8698 129.25 94.2698 128.66C93.1598 127.58 91.5898 126.97 90.7298 125.67L79.2998 125.95L78.9398 126.31C78.6698 127.13 79.1098 129.27 79.6998 129.92C80.0698 130.33 83.4998 131.88 84.2598 132.19C88.8398 134.08 93.8598 135.22 98.5698 136.7C98.6998 135.53 99.1198 134.19 99.5298 133.1V133.11ZM181.49 124.55C180.89 124.08 178.62 123.51 177.85 123.51C177.48 123.51 177.43 123.45 177.5 123.87L182.94 138.15L187.08 139.59L183.25 125.85C182.16 125.7 181.98 124.94 181.49 124.56V124.55ZM66.1898 124.72L56.5198 123.99C53.7998 130.16 53.7398 139.08 55.5698 145.54C55.8198 146.41 57.8398 151.07 58.3998 151.35C58.8598 151.58 58.7398 150.97 58.7898 150.79C59.9498 146.24 61.8798 138.03 64.2198 134.15C64.5498 133.6 65.5898 132.82 65.6698 132.47C65.7698 132.06 65.0198 130.25 65.0098 129.43C65.0098 128.99 65.2198 127.6 65.3298 127.11C65.5298 126.21 65.8498 125.55 66.1798 124.73L66.1898 124.72ZM75.7898 125.91L69.3598 125.24C66.4198 129.87 69.0998 134.78 73.9798 136.47C76.8798 137.47 81.3498 138.56 82.7098 134.9C81.1698 133.73 78.6698 133.36 77.3598 131.89C76.0498 130.42 75.6898 127.84 75.7898 125.91ZM110.57 147.74C116.68 147.57 121.3 141.41 121.6 135.63C121.68 134.15 121.11 130.27 120.17 129.15C118.45 127.1 115.22 126.73 112.73 126.88C107.81 127.17 104.19 129.28 102.41 133.95C101.01 137.62 99.5898 142.82 103.25 145.59C104.69 146.68 108.78 147.8 110.56 147.75L110.57 147.74ZM225.69 135.03C225.98 134.77 224.17 133.1 223.84 132.92L218.5 132.39L218.26 135.75L225.69 135.03ZM179.15 136.48L169.99 139.41L152.78 146.79C154.17 150.53 154.51 154.56 154.46 158.54L181.52 146.03C182.12 145.08 179.51 137.95 179.15 136.48ZM182.76 148.7C184.47 148.95 186.32 149.13 187.55 147.62C188.01 147.06 187.91 143.84 187.42 143.2C186.86 142.47 184.81 142.21 184.07 141.51C183.77 143.21 185.4 145.71 184.29 147.25C183.98 147.69 182.96 148.02 182.75 148.7H182.76ZM290.2 153.5C288.19 153.17 286.52 151.37 284.68 150.75C281.46 149.67 279.76 150.5 276.66 147.98C276.08 147.51 274.68 145.78 274.21 145.64C273.56 145.45 272.64 145.67 271.89 145.56C269.56 145.23 267.68 144.7 265.81 143.22C262.04 144.95 258.49 147.13 254.23 147.51L254.64 148.18C265.54 151.65 275.79 157.49 287.3 158.76C287.76 157.65 288.5 154.61 289.35 153.98C289.68 153.74 290.23 153.92 290.2 153.52V153.5ZM189.71 171.73C190.07 172.64 190.33 172.8 190.67 173.41C192.38 176.51 192.43 176.17 195.23 178.21C195.61 178.49 195.95 178.85 196.43 179.17C200.48 181.84 202.72 181.85 207.46 180.49C208.5 180.19 211.16 178.78 211.89 178.92C212.44 179.02 213.15 180.33 213.61 180.82C214.24 181.49 214.96 182.12 215.61 182.77C216.26 183.42 216.5 183.49 217.05 183.97C217.11 184.03 217.19 184.66 217.64 184.95C218.09 185.24 218.65 185.12 218.73 185.17C218.79 185.21 219.33 185.81 219.69 186.13C221.55 187.73 221.93 188.16 224.25 189.25C224.34 189.29 225.01 190.03 225.69 190.45C227.68 191.69 228.36 192.64 231.06 192.58C239.2 192.41 254.06 179.38 260.28 173.88C262.32 172.08 264.09 169.96 266.23 168.26C262.15 167.26 257.91 167.88 253.76 167.66C253.73 167.66 253.49 167.43 253.18 167.41C252.34 167.36 251.48 167.49 250.64 167.41C250.59 167.41 250.45 167.2 250.26 167.19C246.47 166.89 242.71 166.26 238.89 166.45L236.97 166.21C235.93 166.18 234.89 166.25 233.85 166.21C233.21 166.19 232.57 166.23 231.93 166.21C228.02 166.1 224.08 165.94 220.18 165.73C220.35 170.08 218.25 175.81 212.82 173.45C211.73 172.97 209.08 170.52 208.19 169.57C207.84 169.2 207.22 168.65 206.99 168.37C205.61 166.66 204.12 163.63 202.91 161.65C202.69 161.28 202.56 160.87 202.38 160.49C202.16 160.33 201.71 160.51 201.47 160.45C195.44 159.07 194.16 158.06 189.48 154.33C189.22 154.12 189.18 153.79 188.88 154.21C188.45 157.11 188.15 160.04 188.27 162.98C188.38 165.59 188.77 169.33 189.72 171.72L189.71 171.73ZM295 155.18L291.4 154.22C291.36 154.57 291.58 154.93 291.56 155.26C291.44 156.8 287.36 165.32 286.41 167.33C283.56 173.32 280.04 178.91 277.26 184.91L286.8 170.59C288.34 168 289.6 165.23 291.03 162.59C291.52 161.7 295.34 155.55 295 155.17V155.18ZM328.82 165.49C321.81 165.08 314.65 162.83 308.07 160.46C304.74 159.26 301.62 157.56 298.23 156.6L297.92 156.66L295.24 161.3C295.17 161.81 295.28 161.6 295.6 161.65C301 162.48 306.46 163.41 311.84 164.36C316.86 165.25 323.27 167.84 328.16 165.91C328.41 165.81 328.88 165.84 328.82 165.5V165.49ZM287.08 176.04L286.59 176.19C286.57 176.99 285.07 177.87 285.63 178.57C286.74 179.97 292.87 182.16 294.76 182.76C292.56 181.04 290.59 178.97 288.41 177.24C288.07 176.97 287.67 176.87 287.33 176.63C287.11 176.47 287.12 176.08 287.08 176.05V176.04ZM271.23 189.03C267.87 187.13 264.06 186.36 260.23 187.08C260.08 187.92 260.87 188.26 261.45 188.62C263.89 190.15 267.22 191.06 269.47 193.08L271.24 189.04L271.23 189.03ZM282.53 205.06C282.7 204.03 282.35 203.24 282.06 202.3C281.51 200.54 280.27 197.73 279.39 196.1C279.03 195.43 276.79 191.73 276.19 191.87L273.45 196.02L282.53 205.06Z" fill="#020201"/>
<path d="M176.52 129.99C175.58 132.57 172.92 133.75 171.24 135.75C167.74 137.03 164.53 138.77 161.16 140.18C157.79 141.59 154.31 142.44 151.21 144.31C146.99 140.71 139.67 138.81 134.32 140.43C130.44 141.6 120.07 147.47 118.39 151.12C117.15 153.81 120.24 154.86 121.09 153.35C121.34 152.91 121.31 152.39 121.59 151.93C122.6 150.27 128.1 146.85 129.99 145.82C131.66 147.77 133.68 149.35 135.03 151.58C134.97 151.72 135.08 152.1 135.03 152.3C134.75 153.49 134.42 155.36 135.99 155.9C136.02 156.13 135.97 156.38 135.99 156.62C136.8 165.29 135.02 172.36 130.33 179.62C127.07 184.67 122.77 188.23 116.56 188.75C112.81 186.17 111.16 184.54 109.48 180.12C109.31 179.66 109.44 179.14 109.24 178.68C108.85 177.77 107.37 177.72 106.71 178.35C105.42 180.4 109.14 186.17 110.57 187.78C109.33 191.01 107.55 194.34 106.49 197.61C104.58 195.11 100.28 195.99 99.6399 199.04C98.8699 202.72 100.45 205.52 104.33 205.77L104.06 207.66L102.75 207.91C100.47 221 101.86 235.04 106 247.62C112.28 266.7 122.54 283.71 138 296.68L138.38 297.62C138.28 297.72 136.49 296.85 136.22 297.86C116.68 292.13 87.9499 271.45 80.0499 252.21C77.6399 246.33 77.3899 238.78 76.2799 232.53C76.2799 231.22 76.9999 227.85 76.6899 226.8C76.0199 224.56 72.8599 226.04 73.6199 228.31C73.2399 228.39 73.1199 228.19 72.8999 227.95C71.7199 226.67 68.9099 221.67 67.9799 219.92C66.7099 217.53 66.1099 215.46 65.2299 212.96C71.0599 212.19 68.2599 202.53 62.8299 206C57.7199 189.88 56.5799 177.51 59.5899 160.66C61.1399 151.96 63.4099 143.36 66.9099 135.24C69.4999 138.56 74.9999 140.6 79.1399 140.52C77.5799 145.76 82.8299 148.46 86.8199 145.2C90.1599 142.47 89.5299 137.89 85.1399 137.16C85.3499 136.88 85.5799 135.97 85.7599 135.95L97.8299 139.58C97.3599 146.23 101.94 149.41 107.92 150.48C113.03 151.39 118.27 149.32 121.36 145.08C123.42 144.86 125.95 144.76 127.22 142.91C127.73 142.16 127.78 141.38 128.14 140.71C130.11 137.1 132.17 134 130.44 129.65C129.48 127.24 126.55 124.78 124.32 123.54C123.44 123.05 120.72 122.44 120.4 122.19C120.14 121.99 119.82 120.19 120.03 119.9C126.6 117.19 133.51 115.45 140.13 112.89C142.92 111.81 145.56 110.48 148.3 109.31C151.66 107.88 155.31 106.97 158.3 104.79C159.12 106.97 162.95 108.08 164.67 106.24C165.3 105.57 165.32 104.8 165.74 104.07C169.94 112.44 173.43 121.15 176.53 129.97L176.52 129.99ZM140.24 124.53C137.6 125.12 136.99 131.42 140.9 131.2C144.81 130.98 145.74 123.29 140.24 124.53ZM94.6699 152.84C92.3499 153.27 92.0499 156.25 92.3499 158.17C92.5799 159.64 94.5499 160.76 95.9799 160.65C100.64 160.29 100.27 151.81 94.6699 152.84ZM117.94 155C114.6 155.4 113.58 157.45 113.44 160.58C113.26 164.73 116.03 169.42 120.7 168.56C121.95 168.33 123.27 166.96 123.7 165.81C124.13 164.66 124.22 160.95 123.93 159.68C123.33 156.97 120.8 154.66 117.94 155.01V155ZM66.2799 165.57C61.5399 169.78 70.1199 175.87 73.2599 170.75C75.9799 166.32 69.8999 162.34 66.2799 165.57ZM121.3 177.78C119.49 178.01 117.38 178.79 117.51 180.95C117.8 185.86 126.4 184.58 126.16 180.49C126.01 177.89 123.39 177.52 121.3 177.78ZM75.8699 201.62C79.7199 205.63 85.5199 201.23 82.0199 196.55C78.5199 191.87 71.5599 197.13 75.8699 201.62ZM93.7099 242.53C91.0099 243.15 90.9899 248.5 94.7999 247.95C98.2399 247.45 98.0299 241.54 93.7099 242.53ZM111.46 268.43C108.76 269.04 109.62 273.59 112.62 273.67C116.1 273.76 116.11 267.38 111.46 268.43Z" fill="#D8DF75"/>
<path d="M286.13 84.66C284.43 90.45 293.82 91.85 292.85 85.14C302.1 86.31 306.67 87.71 311.08 96.17C312.08 101.48 314.55 106.35 316.37 111.4C316.51 111.79 316.5 112.21 316.6 112.48L312.04 114.64C311.33 112.63 308.83 111.82 307.12 113.2C306.44 113.75 306.38 114.54 305.81 115.12C303.93 109.99 298.35 104.94 293.33 103.01C289.42 101.5 285.47 101.41 281.34 101.92C284.46 99.4 289.15 97.28 291.78 94.25C292.38 93.55 293.59 91.96 292.38 91.25C290.78 90.31 289.58 92.7 288.54 93.65C285.12 96.8 280.05 99.91 275.99 102.2C274.19 103.21 271.23 104.29 269.74 105.31C269.5 105.48 269.38 105.71 269.34 105.99C269.11 106.05 269.04 106 268.87 105.89C268.5 105.65 267.44 104.13 266.85 103.6C265.28 102.18 260.26 98.44 258.22 98.81C257.17 99 256.53 100.52 257.37 101.33C257.72 101.66 259.17 101.89 259.84 102.21C262.94 103.71 265.96 106.5 267.89 109.3L265.16 114.39C261.4 111.71 256.65 110.43 252.14 111.93C250.75 112.39 249.21 112.94 249.74 114.71C250.23 116.34 253.77 114.29 255.09 114.16C257.47 113.93 262.18 115.11 263.74 117.02C264.28 117.68 263.93 117.96 263.84 118.71C260.84 118.56 258.28 120.43 255.32 120.62C249.93 120.98 246.19 116.43 241.4 115.12C231.72 112.48 222.28 120.09 221.39 129.74C220.52 129.69 219.62 129.78 218.75 129.74C218.72 128.92 218.82 128.07 218.72 127.25C218.6 126.24 217.83 123.21 217.43 122.3C216.89 121.05 216.17 121.62 215.63 121.34C215.57 121.31 215.68 120.48 214.6 120.66C212.7 120.97 213.38 123.98 213.22 125.29C212.91 127.88 212.17 131.44 211.25 133.87C209.21 139.25 204.54 143.32 201.52 148.13C200.77 151.32 205.75 151.09 207.71 150.84C208.38 150.75 208.82 151.01 209.52 150.61C210.32 150.16 211.63 147.64 211.83 147.53C212.12 147.37 212.66 147.57 213.04 147.42C216.25 146.22 217.23 145.07 221.13 144.6C221.16 145.36 222.45 146.78 222.05 147.44C221.99 147.54 221.54 147.59 221.37 147.83C221.04 148.27 221.08 148.69 220.54 149.17C219.63 149.98 217.73 149.79 217.78 151.32C217.69 151.37 216.3 152.44 216.22 152.52C215.06 153.72 215.68 155.58 217.4 155.4C218.1 155.33 218.53 154.63 219.15 154.49C219.86 154.33 221.08 154.41 221.86 154.44C221.9 155.65 221.97 157.36 221.16 158.35C220.58 159.05 218.24 158.61 218.27 160.44C216.55 160.39 214.02 160.07 214.77 162.62C214.83 162.83 215.55 163.53 215.63 163.56C215.17 164.02 214.62 164.83 214.52 165.47C214.42 166.11 214.76 166.53 214.57 167.16C214.34 167.97 212.96 168.51 212.99 169.55C211.86 168.67 210.72 167.82 209.75 166.67C208.98 165.76 205.75 161 205.86 160.11C205.9 159.74 206.34 159.42 206.29 158.88C206.14 157.19 202.67 157.47 201.43 157.25C198.41 156.71 196.68 155.92 194.21 154.15C192.71 153.08 191.15 152.21 190.93 150.24C190.39 145.37 190.93 138.12 192.01 133.33C192.4 131.59 193.83 129.95 192.14 128.64C190.86 127.64 189.77 128.3 188.53 129.01C190.26 118.5 184.9 109 182.05 99.27C182.95 100.03 183.28 100.44 184.08 101.2C184.32 101.43 184.87 101.41 185.05 101.67C185.25 101.96 185.76 104.53 186.15 105.36C190.17 113.77 200.43 111.49 205.31 105.27C209.07 107.01 212.96 99.86 213.22 96.99V93.75C216.34 94.88 220.35 94.7 223.63 94.68C232.01 92.99 240.34 91.08 248.72 89.43C250.13 91.45 253.19 90.65 254 88.47C254.08 88.46 254.16 88.48 254.24 88.47L254.48 88.23C264.76 86.37 275.68 84.45 286.14 84.63L286.13 84.66ZM221.55 111.34C218.42 111.98 218.39 116.68 221.84 117.41C227.21 118.54 227.52 110.11 221.55 111.34ZM202.84 130.05C199.03 130.7 199 136.06 203.02 136.47C208.57 137.03 207.94 129.19 202.84 130.05Z" fill="#D7DF75"/>
<path d="M159.73 93.78L157.66 95.18C134.88 104.47 112.06 113.92 88.36 120.86C78.07 121.55 67.11 120.95 56.75 119.65C53.81 119.28 47.46 118.54 45.02 117.23C44.2 116.79 43.78 115.74 42.69 115.61C42.12 114.69 40.91 112.79 41.38 111.78C41.61 111.28 44.24 109.4 44.87 109.04C52.91 104.34 63.83 104.7 72.74 102.61C86.53 96.99 99.7 89.95 113.28 83.91C122.33 79.89 131.68 76.52 140.72 72.47C144.19 73.51 147.4 76.68 149.78 79.39C153.58 83.72 156.75 88.87 159.73 93.78Z" fill="#BC48A0"/>
<path d="M217.06 55.64C216.43 55.5 216.6 55.97 216.45 56.34C212.57 65.75 198.41 75.43 189.64 80.39C187.42 81.64 185.08 82.69 182.84 83.9C178.96 86 175.28 88.63 171.01 89.94C167.14 83.64 163.11 77.21 158.63 71.26C157.53 69.8 155.91 68.24 154.93 66.8C154.74 66.52 154.57 66.64 154.93 66.33C155.47 65.88 156.45 65.72 157.09 65.37C163.4 61.95 171 58.57 176.91 54.97C186.81 48.93 193.36 41.18 206.37 42.22C212.02 42.67 214.48 44.65 216.37 49.97C217.18 52.25 217.25 53.33 217.04 55.65L217.06 55.64Z" fill="#BC48A0"/>
<path d="M129.99 145.82C135.56 142.78 139.13 142.03 145.33 144.27C149.4 145.73 150.38 148.22 151.03 152.25C152.15 159.23 151.34 166.41 147.69 172.52C146.91 173.82 144.49 176.25 145.22 177.72C145.53 178.34 146.49 178.28 147.03 178.09C148.75 177.5 152.3 170.01 153.15 168.14C154.1 167.95 154.65 167.24 155.48 166.87C157.89 165.8 163.97 165.09 166.49 165.78C167.4 166.03 168.81 166.61 168.09 167.72C167.62 168.44 164.75 169.96 163.82 170.66C162.46 171.68 160.95 172.83 159.71 173.99C158.59 175.03 156.29 176.73 157.3 178.33C157.95 179.35 162.26 179.23 163.64 179.42C165.6 179.7 167.75 180.04 168.65 182.09C170.11 185.42 163.39 186.89 161.09 186.53C159.5 186.28 156.82 183.89 155.69 186.04C155.09 187.18 155.59 188.03 156.26 188.97C158.02 191.44 160.27 192.17 162.12 194.14C164.34 196.49 165.39 198.87 161.02 199.07C156.99 199.25 151.49 194.77 148.03 192.88C143.22 190.25 143.8 191.81 139.21 191.89C138.32 191.91 137.56 191.61 136.69 191.63C136.4 191.39 138.23 190.07 138.48 189.7C139.74 187.79 138.12 186.01 136.46 187.2C136.13 187.44 136.01 187.88 135.71 188.13C128.95 193.71 123.65 193.65 116.55 188.75C122.76 188.22 127.06 184.67 130.32 179.62C135.01 172.36 136.79 165.29 135.98 156.62C137.85 157.4 139.99 157.95 141.63 156.39C145.01 153.15 141.09 147.86 137.01 149.85C136.79 149.96 135.08 151.46 135.02 151.58C133.68 149.35 131.65 147.78 129.98 145.82H129.99ZM140.73 165.78C136.98 166.29 136.77 171.69 140.45 172.19C145.98 172.93 145.21 165.17 140.73 165.78Z" fill="#C1CB49"/>
<path d="M110.57 187.79C113.01 190.54 116.47 192.83 119.92 194.03C118.29 196.85 116.27 199.53 115.24 202.66C111.46 214.18 113.12 223.82 114.61 235.43C115.82 244.86 116.36 249.64 120.75 258.31C127.35 271.35 135.46 283.62 145.81 293.93C148.1 296.21 150.4 298.47 153.01 300.4C147.24 300.69 141.72 299.49 136.22 297.88C136.49 296.87 138.28 297.74 138.38 297.64L138 296.7C122.54 283.73 112.28 266.71 106 247.64C101.86 235.06 100.47 221.02 102.75 207.93L104.06 207.68L104.33 205.79L104.57 205.55C108.39 205.21 109.87 200.03 106.49 197.88C106.51 197.81 106.47 197.71 106.49 197.64C107.55 194.37 109.33 191.03 110.57 187.81V187.79ZM108.35 239.89C103.13 240.57 106.74 250.55 112.25 248.85C115.19 247.94 114.55 241.69 111.82 240.38C111.27 240.12 108.96 239.81 108.34 239.89H108.35ZM129.45 278.74C127.75 279.12 127.93 281.88 129.45 282.24C133 283.08 132.23 278.13 129.45 278.74Z" fill="#C1CB49"/>
<path d="M325.22 144.14C325.45 150.73 322.88 157.01 315.69 158.23C314.03 158.51 312.54 157.81 311.07 158.29C304.99 156.19 298.6 153.72 292.6 151.33C292.58 150.09 291.8 149.2 291.9 147.89C292.07 145.47 295.62 140.23 297.82 139.16C300.49 137.86 301.79 138.13 304.48 139.1C306.3 139.75 307.46 140.81 309.09 141.45C314.17 143.46 319.8 143.92 325.23 144.14H325.22Z" fill="#8DDD9D"/>
<path d="M164.05 100.97L161.29 100.47C159.12 100.71 157.72 102.41 158.29 104.57C158.31 104.65 158.27 104.74 158.29 104.81C155.3 106.99 151.65 107.9 148.29 109.33C145.55 110.5 142.91 111.83 140.12 112.91C133.5 115.47 126.58 117.2 120.02 119.92C119.81 120.21 120.13 122.01 120.39 122.21C120.71 122.46 123.43 123.08 124.31 123.56C126.55 124.8 129.47 127.25 130.43 129.67C132.16 134.02 130.1 137.12 128.13 140.73C127.77 141.4 127.72 142.18 127.21 142.93C125.94 144.79 123.41 144.88 121.35 145.1C124.02 141.43 125.23 136.11 124.36 131.66C123.56 127.57 122.24 125.68 118.19 124.4C115.65 123.6 112.73 124.18 110.11 123.97L108.65 120.16C117.62 117.34 126.29 113.75 135.03 110.32C137.19 109.55 140.1 109.08 141.75 107.44C148.45 104.77 155.14 102.07 161.58 98.85C161.95 98.66 162.21 98.38 162.49 98.09C162.77 98.09 163.82 100.54 164.05 100.96V100.97Z" fill="#C1CB49"/>
<path d="M253.27 128.79C251.91 129.26 250.53 129.89 251.27 131.61C251.52 132.18 252.32 132.17 252.84 132.1C254.36 131.89 256.67 130.89 258.49 130.54C260.8 130.09 263.22 129.79 265.57 129.74C267.95 134.42 272.41 137.37 277.38 138.85C280.94 139.91 287.11 140.53 290.68 139.58C290.77 140.32 290.18 140.7 289.72 141.14C287.77 143.02 283.79 144.46 283.96 147.49C282.54 147.18 281.31 147.32 279.91 146.63C278.51 145.94 277.92 144.82 276.89 143.9C274.86 142.09 272.17 142.94 269.63 142.05C268 141.48 267.33 140.03 265.5 140.06C265.53 139.59 265.44 139.16 265.27 138.73C265.09 138.27 262.79 134.91 262.38 134.42C259.81 131.37 258.99 135.37 257.78 137.02C257.32 137.64 256.84 137.91 256.38 138.38C255.84 136.07 254.95 135.33 253 134.21C250.6 132.83 242.99 129.53 240.43 129.27C234.41 128.66 232.92 131.64 232.88 137.18C230.64 135.49 229.55 133.97 227.6 132.14C228.33 129.85 228.71 128.23 230.36 126.38C237.17 118.75 245.81 127.15 253.27 128.78V128.79Z" fill="#A7DD8E"/>
<path d="M337.22 141.51C339.92 147.22 343.03 153.62 338.3 159.26C336.74 161.13 334.87 162.73 332.31 162.86C325.62 163.22 317.36 160.46 311.08 158.29C312.55 157.81 314.04 158.52 315.7 158.23C322.89 157 325.46 150.72 325.23 144.14C325.2 143.29 325.07 142.72 324.99 141.98C326.7 141.83 328.95 141.33 330.63 141.5C331.83 141.62 334.41 142.9 335.32 142.12C336.13 141.42 335.35 141.06 337.22 141.5V141.51Z" fill="#7CCA63"/>
<path d="M253.75 167.65C257.9 167.87 262.14 167.25 266.22 168.25C264.08 169.95 262.31 172.07 260.27 173.87C254.05 179.37 239.19 192.4 231.05 192.57C228.35 192.63 227.67 191.68 225.68 190.44C227.96 188.37 230.11 186.14 232.39 184.08C236.81 180.09 241.54 176.59 246.33 173.07C248.79 171.26 251.4 169.64 253.74 167.65H253.75Z" fill="#3A3A3A"/>
<path d="M179.15 136.48C179.51 137.95 182.12 145.08 181.52 146.03L154.46 158.54C154.5 154.57 154.17 150.53 152.78 146.79L169.99 139.41L179.15 136.48Z" fill="#CDC44D"/>
<path d="M317.31 95.94C318.04 98.6 321.69 99.67 323.31 97.14C331.71 100.58 333.81 111.9 331.78 119.88C331.44 121.22 330.88 122.45 330.5 123.76C330.28 123.94 326.86 120.1 326.56 119.67C325.7 118.46 325.34 116.31 323.55 116.33V115.61C326.62 115.03 326.84 108.82 323.07 108.89C322.77 107.68 320.7 102.76 319.71 102.3C318.57 101.78 317.57 102.81 317.8 103.96C318.7 105.63 319.35 107.4 320.08 109.15C320.22 109.5 320.13 109.95 320.2 110.1C318.94 110.92 319 113.34 319.72 114.42L317.8 114.9C317.6 114.32 316.87 113.26 316.6 112.5C316.5 112.23 316.51 111.8 316.37 111.42C314.55 106.38 312.08 101.5 311.08 96.19C311.82 97.62 312.35 98.86 314.22 97.71L314.44 95.71C315.4 95.76 316.37 95.85 317.32 95.95L317.31 95.94Z" fill="#C1CB49"/>
<path d="M159.73 93.78C160.08 94.36 161.11 94.97 160.93 95.94C159.99 96.06 158.98 96.47 158.13 96.86C142.95 103.89 127.45 110.49 111.65 116.09C106.3 117.99 93.9502 122.83 88.8602 122.82C76.7602 122.79 63.2002 122.4 51.2802 120.09C47.6902 119.4 44.7502 118.89 42.7002 115.6C43.8002 115.74 44.2202 116.78 45.0302 117.22C47.4702 118.53 53.8202 119.27 56.7602 119.64C67.1102 120.94 78.0802 121.54 88.3702 120.85C112.07 113.91 134.89 104.46 157.67 95.17L159.74 93.77L159.73 93.78Z" fill="#DE61C4"/>
<path d="M231.93 166.21L215.62 182.76C214.97 182.11 214.25 181.49 213.62 180.81C213.16 180.32 212.45 179.01 211.9 178.91C211.17 178.77 208.51 180.18 207.47 180.48C202.72 181.84 200.48 181.83 196.44 179.16L208.19 169.57C209.08 170.52 211.73 172.98 212.82 173.45C218.25 175.81 220.34 170.08 220.18 165.73C224.08 165.94 228.02 166.1 231.93 166.21Z" fill="#3A3A3A"/>
<path d="M290.2 153.5C290.23 153.9 289.68 153.72 289.35 153.96C288.49 154.59 287.76 157.63 287.3 158.74C275.79 157.47 265.54 151.63 254.64 148.16L254.23 147.49C258.48 147.11 262.04 144.93 265.81 143.2C267.68 144.68 269.56 145.21 271.89 145.54C272.64 145.65 273.55 145.43 274.21 145.62C274.69 145.76 276.08 147.49 276.66 147.96C279.76 150.48 281.46 149.65 284.68 150.73C286.52 151.35 288.19 153.15 290.2 153.48V153.5Z" fill="#C8B548"/>
<path d="M256.39 138.39C255.07 139.76 254.09 140.76 252.32 141.64C250.07 142.76 247.32 142.73 245.59 144.39C241.96 143.33 235.96 139.52 232.88 137.19C232.93 131.65 234.41 128.67 240.43 129.28C242.99 129.54 250.59 132.84 253 134.22C254.96 135.34 255.85 136.08 256.38 138.39H256.39Z" fill="#99DD96"/>
<path d="M263.82 118.72C263.59 120.65 263.6 122.29 263.82 124.24C260.14 124.51 256.39 125.56 252.73 124.9C248.16 124.08 244.6 120.7 240.21 119.44C232.91 117.34 225.67 122.66 224.73 130C223.95 129.82 222.26 129.81 221.37 129.76C222.26 120.11 231.7 112.5 241.38 115.14C246.17 116.45 249.91 120.99 255.3 120.64C258.25 120.45 260.82 118.58 263.82 118.73V118.72Z" fill="#C9DF7D"/>
<path d="M250.63 167.41C250.23 168.34 248.82 169.29 247.97 169.91C243.73 173.01 239.31 175.92 235.17 179.17L224.25 189.24C221.94 188.16 221.55 187.73 219.69 186.12L230.84 175.56L238.88 166.46C242.7 166.27 246.46 166.9 250.25 167.2C250.44 167.22 250.59 167.42 250.63 167.42V167.41Z" fill="#989898"/>
<path d="M66.19 124.72C65.86 125.55 65.53 126.21 65.34 127.1C65.23 127.59 65.02 128.97 65.02 129.42C65.02 130.25 65.78 132.05 65.68 132.46C65.59 132.8 64.56 133.59 64.23 134.14C61.89 138.02 59.96 146.22 58.8 150.78C58.75 150.96 58.88 151.57 58.41 151.34C57.85 151.06 55.83 146.4 55.58 145.53C53.75 139.07 53.81 130.16 56.53 123.98L66.2 124.71L66.19 124.72ZM60.38 130.51C58.22 130.96 57.48 136 60.69 135.16C63.58 134.4 63.07 129.96 60.38 130.51Z" fill="#D7DF75"/>
<path d="M112.72 126.88C112.25 129.21 114.46 128.81 115.24 129.52C115.74 129.98 115.94 131.53 116.32 132.16C111.15 129.41 106.26 138.4 111.04 142.12C112.31 143.11 113.59 143.22 115.12 142.71C114.4 144.58 112.65 145.62 111.21 146.83C110.89 147.1 110.55 147.21 110.57 147.75C108.78 147.8 104.7 146.68 103.26 145.59C99.6001 142.83 101.02 137.62 102.42 133.95C104.2 129.28 107.81 127.17 112.74 126.88H112.72Z" fill="#AC3332"/>
<path d="M201.71 85.38C201.74 88.22 203.29 90.86 202.91 93.77C202.26 92.6 199.68 90.87 198.29 90.95C196.28 91.06 193.71 93.57 193.24 95.49C192.32 99.26 195.15 104.81 199.55 103.12C200 103.2 199.42 103.82 199.31 103.96C198.5 104.97 197.85 106.11 197.16 107.2C190.9 109.42 187.68 104.09 188.04 98.44C188.48 91.48 193.84 83.16 201.72 85.38H201.71Z" fill="#AC3332"/>
<path d="M217.06 55.64C216.62 60.66 213.74 64.62 210.35 68.24C204.86 74.09 198.94 78.44 192.19 82.7C185.87 86.69 179.62 90.31 172.35 92.35C172.09 92.33 171.21 90.26 171.01 89.94C175.28 88.63 178.96 86 182.84 83.9C185.08 82.69 187.42 81.64 189.64 80.39C198.41 75.44 212.58 65.75 216.45 56.34C216.6 55.97 216.42 55.5 217.06 55.64Z" fill="#DE61C4"/>
<path d="M263.82 124.24C263.86 124.62 264.49 126.69 264.3 126.88C260.9 127.41 256.5 127.69 253.27 128.8C245.81 127.17 237.17 118.77 230.36 126.4C228.71 128.25 228.34 129.87 227.6 132.16C226.9 131.5 225.6 130.21 224.72 130C225.66 122.66 232.89 117.33 240.2 119.44C244.6 120.71 248.16 124.08 252.72 124.9C256.38 125.56 260.13 124.52 263.81 124.24H263.82Z" fill="#BBDE84"/>
<path d="M299.8 134.79C301.33 135.43 303.19 135 304.67 135.56C306 136.07 306.26 137.26 307.31 137.96C307.9 138.35 308.96 138.73 309.65 138.98C314.25 140.67 319.88 141.79 324.75 141.27C324.76 141.35 324.95 141.62 324.99 141.99C325.07 142.73 325.2 143.3 325.23 144.15C319.81 143.92 314.18 143.46 309.09 141.46C307.46 140.82 306.3 139.77 304.48 139.11C301.79 138.14 300.49 137.87 297.82 139.17C295.62 140.24 292.07 145.48 291.9 147.9C291.81 149.22 292.58 150.1 292.6 151.34C289.68 150.18 286.85 148.12 283.97 147.5C283.8 144.46 287.78 143.03 289.73 141.15C290.19 140.71 290.78 140.32 290.69 139.59C292.96 138.99 297.96 136.28 299.8 134.79Z" fill="#99DD96"/>
<path d="M319.71 114.4C320.42 115.46 322.36 115.82 323.55 115.6V116.32C321.21 116.34 322.65 119.01 323.27 120.08C324.8 122.71 327.14 124.51 328.93 126.9C330.87 129.5 332.75 132.9 334.35 135.75C332.68 135.04 331.43 137.04 330.63 137.18C328.79 137.52 326.35 137.15 324.52 137.9C323.22 131.24 320.23 123.09 318.04 116.55C317.91 116.16 317.96 115.33 317.8 114.87L319.72 114.39L319.71 114.4Z" fill="#ADCA61"/>
<path d="M182.04 99.29C184.88 109.02 190.24 118.52 188.52 129.03C188.15 129.24 187.87 129.83 187.32 129.75C183.97 117.8 179.98 105.94 173.88 95.1C173.8 94.6 174.08 94.69 174.44 94.78C176.99 95.48 180.04 97.61 182.04 99.29Z" fill="#C1CB49"/>
<path d="M207.7 150.86C205.75 151.11 200.77 151.34 201.51 148.15C204.52 143.35 209.2 139.27 211.24 133.89C212.16 131.45 212.9 127.9 213.21 125.31C213.37 124 212.68 120.99 214.59 120.68C215.67 120.5 215.55 121.33 215.62 121.36C213.4 122.05 215.25 125.06 215.55 126.58C216.13 129.47 215.62 134.11 214.78 136.95C213.43 141.53 210.01 145.08 207.16 148.76C206.7 149.59 207.24 150.21 207.7 150.86Z" fill="#C1CB49"/>
<path d="M99.5298 133.11C99.1198 134.2 98.6998 135.54 98.5698 136.71C93.8598 135.23 88.8398 134.09 84.2598 132.2C83.4998 131.88 80.0698 130.34 79.6998 129.93C79.1098 129.27 78.6698 127.14 78.9398 126.32L79.2998 125.96L90.7298 125.68C91.5898 126.98 93.1598 127.59 94.2698 128.67C94.8698 129.26 96.2098 131.47 96.5198 131.7C97.1598 132.16 97.9098 131.76 98.3398 131.92C98.5298 131.99 98.8998 133.29 99.5398 133.12L99.5298 133.11Z" fill="#917D8B"/>
<path d="M206.98 168.37L195.23 178.2C192.43 176.17 192.39 176.5 190.67 173.4C192.15 172.42 192.93 170.8 194.14 169.56L202.9 161.65C204.1 163.63 205.6 166.66 206.98 168.37Z" fill="#989898"/>
<path d="M201.47 160.45L189.72 171.72C188.77 169.33 188.38 165.59 188.27 162.98C188.15 160.04 188.45 157.11 188.88 154.21C189.19 153.8 189.23 154.13 189.48 154.33C194.17 158.06 195.45 159.07 201.47 160.45Z" fill="#3A3A3A"/>
<path d="M75.7901 125.91C75.6901 127.84 76.0201 130.39 77.3601 131.89C78.7001 133.39 81.1701 133.73 82.7101 134.9C81.3501 138.57 76.8802 137.48 73.9802 136.47C69.1002 134.78 66.4101 129.88 69.3601 125.24L75.7901 125.91Z" fill="#AC3332"/>
<path d="M328.82 165.49C328.88 165.84 328.42 165.8 328.16 165.9C323.27 167.84 316.86 165.25 311.84 164.35C306.46 163.39 301 162.46 295.6 161.64C295.28 161.59 295.17 161.8 295.24 161.29L297.92 156.65L298.23 156.59C301.62 157.55 304.74 159.25 308.07 160.45C314.65 162.82 321.81 165.07 328.82 165.48V165.49Z" fill="#C8B548"/>
<path d="M155.62 72.21L163.57 83.7C161.25 83.34 159.15 83.49 156.86 83.84C153.72 79.42 150.38 75.17 146.07 71.83C147.98 71.08 150.13 71 152.11 71.54C153.35 71.88 154.24 72.83 155.62 72.21Z" fill="#7D4D2F"/>
<path d="M265.5 140.07C264.08 140.1 264.22 140.58 263.27 141.08C257.67 143.99 251.99 146.27 245.59 144.39C247.32 142.73 250.07 142.77 252.32 141.64C254.08 140.76 255.07 139.76 256.39 138.39C256.85 137.92 257.33 137.65 257.79 137.03C259 135.39 259.82 131.39 262.39 134.43C262.8 134.92 265.1 138.28 265.28 138.74C265.45 139.17 265.54 139.6 265.51 140.07H265.5Z" fill="#94CA5A"/>
<path d="M173.64 101.21C171.5 100.56 169.43 100.19 167.19 100.72L159.11 87.08C158.79 86.09 160.38 86.31 161.05 86.35C163.03 86.48 164.68 87.35 166.46 88.13C168.81 92.52 171.73 96.59 173.64 101.21Z" fill="#7D4D2F"/>
<path d="M110.57 147.74C110.55 147.21 110.89 147.1 111.21 146.82C112.65 145.61 114.4 144.57 115.12 142.7C119.13 141.37 120.21 134.22 116.32 132.15C115.94 131.52 115.74 129.97 115.24 129.51C114.46 128.8 112.25 129.21 112.72 126.87C115.21 126.72 118.44 127.09 120.16 129.14C121.1 130.26 121.67 134.13 121.59 135.62C121.29 141.41 116.67 147.57 110.56 147.73L110.57 147.74Z" fill="#851717"/>
<path d="M152.3 68.59C150.87 68.33 149.35 68.23 147.89 68.38C146.55 68.52 143.59 69.81 142.82 69.77C142.05 69.73 140 67.95 138.23 67.89C137.09 67.85 136.48 68.67 135.51 68.47C136.01 66.89 136.05 65.73 137.31 64.52C142.1 59.95 149.17 64.21 152.3 68.59Z" fill="#7D4D2F"/>
<path d="M79.1498 140.55C81.9298 140.49 83.5298 139.36 85.1498 137.19C89.5398 137.92 90.1698 142.5 86.8298 145.23C82.8498 148.49 77.5898 145.79 79.1498 140.55Z" fill="#C8B867"/>
<path d="M253.75 167.65C251.4 169.63 248.8 171.26 246.34 173.07C241.55 176.59 236.83 180.09 232.4 184.08C230.12 186.14 227.96 188.37 225.69 190.44C225.02 190.02 224.34 189.28 224.25 189.24L235.17 179.17C239.32 175.92 243.73 173.01 247.97 169.91C248.82 169.29 250.23 168.35 250.63 167.41C251.46 167.48 252.33 167.35 253.17 167.41C253.48 167.43 253.72 167.66 253.75 167.66V167.65Z" fill="#1E1E1E"/>
<path d="M181.49 124.55C181.98 124.93 182.16 125.69 183.25 125.84L187.08 139.58L182.94 138.14L177.5 123.86C177.43 123.45 177.49 123.5 177.85 123.5C178.62 123.5 180.89 124.08 181.49 124.54V124.55Z" fill="#522715"/>
<path d="M236.96 166.21C236.9 166.6 236.69 166.95 236.44 167.25C234.59 169.45 232.32 172.03 230.34 174.1C226.7 177.9 222.37 181.31 218.73 185.16C218.65 185.11 218.09 185.22 217.64 184.94C217.19 184.66 217.12 184.02 217.05 183.96C218.04 181.8 220.36 180.52 221.97 178.92C224.08 176.83 226 174.43 228.08 172.32C229.64 170.74 232.1 168.88 233.37 167.3C233.66 166.94 233.93 166.76 233.84 166.21C234.87 166.25 235.92 166.18 236.96 166.21Z" fill="#989898"/>
<path d="M197.15 107.21C197.85 106.12 198.49 104.98 199.3 103.97C199.41 103.83 200 103.22 199.54 103.13C202.72 101.91 204.52 96.66 202.9 93.78C203.28 90.86 201.73 88.23 201.7 85.39C205.74 86.53 207.13 88.44 206.73 92.7C206.17 98.72 203.11 105.09 197.14 107.21H197.15Z" fill="#851717"/>
<path d="M98.3302 131.91C100.54 129.25 96.0202 126.77 94.4902 124.96L105.74 121.38L107.18 124.8C103.26 126.81 101.09 128.97 99.5202 133.11C98.8802 133.28 98.5102 131.98 98.3202 131.91H98.3302Z" fill="#7D4D2F"/>
<path d="M176.04 106.49C175.35 106.35 175.54 106.88 175.55 107.33C175.6 108.99 176.25 110.93 176.49 112.64C176.86 115.3 176.98 118 177.48 120.64C177.13 120.61 176.5 120.81 176.26 120.49C174.76 116.97 173.31 113.42 171.77 109.92C170.96 108.07 169.39 105.49 168.86 103.72C168.73 103.27 168.93 103.41 169.21 103.37C171.42 103.07 173.52 104.66 175.57 105.17C175.95 105.44 175.88 106.12 176.05 106.49H176.04Z" fill="#7D4D2F"/>
<path d="M295 155.18C295.34 155.56 291.52 161.71 291.03 162.6C289.6 165.23 288.34 168 286.8 170.6L277.26 184.92C280.05 178.92 283.57 173.32 286.41 167.34C287.37 165.33 291.44 156.81 291.56 155.27C291.59 154.94 291.36 154.58 291.4 154.23L295 155.19V155.18Z" fill="#7D4D2F"/>
<path d="M334.34 135.75C335.42 137.68 336.3 139.56 337.22 141.51C335.35 141.07 336.13 141.43 335.32 142.13C334.41 142.91 331.82 141.63 330.63 141.51C328.95 141.34 326.7 141.84 324.99 141.99C324.95 141.62 324.76 141.35 324.75 141.27C324.65 140.43 324.67 139.51 324.51 138.63C324.47 138.41 324.55 138.13 324.51 137.91C326.35 137.16 328.78 137.52 330.62 137.19C331.42 137.04 332.67 135.04 334.34 135.76V135.75ZM335.3 141.26C335.2 140.78 334.81 140.85 334.46 140.79C333.4 140.59 332.26 140.41 331.23 140.79L335.31 141.26H335.3Z" fill="#94CA5A"/>
<path d="M213.22 93.78V97.02C212.96 99.89 209.07 107.04 205.31 105.3C206.04 104.37 207.73 101.3 208.19 100.15C209.15 97.78 209.66 94.63 209.87 92.11C210.13 91.81 212.72 93.6 213.23 93.79L213.22 93.78Z" fill="#C1CB49"/>
<path d="M282.53 205.06L273.45 196.02L276.19 191.87C276.79 191.72 279.03 195.42 279.39 196.1C280.27 197.74 281.51 200.55 282.06 202.3C282.35 203.24 282.7 204.03 282.53 205.06Z" fill="#34694A"/>
<path d="M233.84 166.21C233.93 166.76 233.66 166.94 233.37 167.3C232.09 168.88 229.64 170.74 228.08 172.32C226 174.44 224.08 176.83 221.97 178.92C220.36 180.51 218.04 181.79 217.05 183.96C216.5 183.48 216.23 183.39 215.61 182.76L231.92 166.21C232.56 166.23 233.2 166.19 233.84 166.21Z" fill="#1E1E1E"/>
<path d="M238.88 166.45L230.84 175.55L219.69 186.11C219.33 185.8 218.79 185.19 218.73 185.15C222.37 181.31 226.7 177.89 230.34 174.09C232.32 172.02 234.6 169.44 236.44 167.24C236.69 166.94 236.89 166.59 236.96 166.2L238.88 166.44V166.45Z" fill="#1E1E1E"/>
<path d="M176.04 106.49C177.99 110.65 180.86 116.5 181.56 121C181.64 121.52 181.61 121.32 181.32 121.24C179.89 120.86 178.92 120.76 177.48 120.63C176.97 117.99 176.86 115.29 176.49 112.63C176.25 110.92 175.6 108.98 175.55 107.32C175.54 106.87 175.35 106.34 176.04 106.48V106.49Z" fill="#522715"/>
<path d="M221.85 154.46C223.39 154.52 224.37 154.58 225.67 155.56C227.26 156.75 227.69 159.15 226.85 160.91C226.22 161.32 222.28 160.51 221.25 160.46C220.37 160.42 219.26 160.49 218.25 160.46C218.22 158.63 220.56 159.08 221.14 158.37C221.96 157.38 221.88 155.67 221.84 154.46H221.85Z" fill="#C1CB49"/>
<path d="M271.23 189.03L269.46 193.07C267.21 191.05 263.89 190.14 261.44 188.61C260.86 188.25 260.07 187.91 260.22 187.07C264.05 186.35 267.87 187.13 271.22 189.02L271.23 189.03Z" fill="#34694A"/>
<path d="M201.47 160.45C201.72 160.51 202.16 160.33 202.38 160.49C202.56 160.88 202.68 161.28 202.91 161.65L194.15 169.56C192.94 170.8 192.16 172.42 190.68 173.4C190.34 172.79 190.08 172.63 189.72 171.72L201.47 160.45Z" fill="#1E1E1E"/>
<path d="M187.79 88.98C186.58 91.73 185.38 94.56 185.15 97.61C183.05 96.2 181.09 94.44 178.68 93.53C178.57 92.91 178.77 93.16 179.02 93.03C180.46 92.3 182.3 91.83 183.8 91.1C184.33 90.84 187.58 88.77 187.79 88.98Z" fill="#917D8B"/>
<path d="M217.77 151.34C217.72 149.81 219.62 149.99 220.53 149.19C221.07 148.71 221.03 148.29 221.36 147.85C221.54 147.61 221.98 147.56 222.04 147.46C222.44 146.8 221.15 145.39 221.12 144.62C221.23 144.61 221.49 144.39 221.93 144.36C224.81 144.2 226.7 144.75 227.82 147.59C227.64 148.34 223.27 149.26 222.37 149.59C221.19 150.02 218.74 150.81 217.76 151.33L217.77 151.34Z" fill="#C1CB49"/>
<path d="M65.2398 212.98C64.4398 210.7 63.5698 208.32 62.8398 206.02C68.2598 202.55 71.0698 212.21 65.2398 212.98Z" fill="#C8B867"/>
<path d="M292.84 85.14C293.81 91.86 284.42 90.45 286.12 84.66C288.5 84.7 290.48 84.84 292.84 85.14Z" fill="#C8B867"/>
<path d="M208.18 169.57L196.43 179.16C195.95 178.84 195.61 178.48 195.23 178.2L206.98 168.37C207.21 168.65 207.83 169.2 208.18 169.57Z" fill="#1E1E1E"/>
<path d="M164.53 101.69C164.95 102.48 165.33 103.29 165.73 104.09C165.31 104.82 165.29 105.59 164.66 106.26C162.94 108.1 159.11 106.99 158.29 104.81C158.27 104.74 158.31 104.65 158.29 104.57C160.12 103.38 162.44 102.44 164.53 101.69Z" fill="#C8B867"/>
<path d="M182.76 148.7C182.97 148.02 183.99 147.68 184.3 147.25C185.41 145.72 183.78 143.21 184.08 141.51C184.81 142.21 186.87 142.47 187.43 143.2C187.92 143.84 188.02 147.06 187.56 147.62C186.33 149.13 184.48 148.96 182.77 148.7H182.76Z" fill="#522715"/>
<path d="M212.98 169.57C212.96 168.52 214.33 167.98 214.56 167.18C214.74 166.55 214.41 166.13 214.51 165.49C214.61 164.85 215.16 164.04 215.62 163.58C215.89 163.67 216.49 163.45 216.83 163.68C217.45 164.12 217.66 172.87 213.71 170.4C213.34 170.17 213.18 169.72 212.98 169.57Z" fill="#C1CB49"/>
<path d="M287.08 176.04C287.08 176.04 287.11 176.46 287.33 176.62C287.66 176.87 288.07 176.96 288.41 177.23C290.6 178.96 292.57 181.02 294.76 182.75C292.87 182.16 286.74 179.97 285.63 178.56C285.08 177.86 286.58 176.98 286.59 176.18L287.08 176.03V176.04Z" fill="#34694A"/>
<path d="M225.69 135.03L218.26 135.75L218.5 132.39L223.84 132.92C224.17 133.1 225.98 134.76 225.69 135.03Z" fill="#C1CB49"/>
<path d="M164.05 100.97C164.16 101.18 164.37 101.39 164.53 101.69C162.44 102.43 160.12 103.38 158.29 104.57C157.72 102.42 159.11 100.71 161.29 100.47L164.05 100.97Z" fill="#B2A740"/>
<path d="M171.25 135.75C172.93 133.75 175.59 132.57 176.53 129.99C176.75 130.61 178.18 133.16 177.87 133.6C175.71 134.43 173.42 134.95 171.25 135.75Z" fill="#C1CB49"/>
<path d="M253.99 88.5C253.18 90.68 250.13 91.48 248.71 89.46C250.47 89.11 252.22 88.82 253.99 88.5Z" fill="#C8B867"/>
<path d="M322.82 96.9C321.44 98.78 318.95 98.05 318.02 96.18C319.71 96.38 321.11 96.35 322.82 96.9Z" fill="#C8B867"/>
<path d="M318.03 96.18C318.96 98.05 321.45 98.78 322.83 96.9C323.05 96.97 323.17 97.08 323.31 97.14C321.7 99.67 318.04 98.6 317.31 95.94C317.59 95.97 317.86 96.16 318.03 96.18Z" fill="#B2A740"/>
<path d="M135.03 110.33C137.1 109.07 139.5 108.35 141.75 107.45C140.1 109.09 137.2 109.56 135.03 110.33Z" fill="#D7DF75"/>
<path d="M254.23 88.5C254.23 88.5 254.28 88.3 254.47 88.26L254.23 88.5Z" fill="#C8B867"/>
<path d="M117.94 155C120.81 154.65 123.33 156.97 123.93 159.67C124.21 160.94 124.13 164.65 123.7 165.8C123.27 166.95 121.94 168.32 120.7 168.55C116.03 169.41 113.27 164.73 113.44 160.57C113.57 157.44 114.6 155.39 117.94 154.99V155Z" fill="#C8B867"/>
<path d="M66.2801 165.57C69.9101 162.35 75.9901 166.33 73.2601 170.75C70.1101 175.86 61.5401 169.78 66.2801 165.57Z" fill="#C8B867"/>
<path d="M75.87 201.62C71.56 197.13 78.51 191.86 82.02 196.55C85.53 201.24 79.72 205.63 75.87 201.62Z" fill="#C8B867"/>
<path d="M106.49 197.63C106.47 197.7 106.51 197.8 106.49 197.87C105.7 200.38 105.16 202.98 104.57 205.54L104.33 205.78C100.45 205.53 98.8701 202.74 99.6401 199.05C100.28 196 104.58 195.13 106.49 197.62V197.63Z" fill="#C8B867"/>
<path d="M135.99 156.62C135.97 156.38 136.02 156.13 135.99 155.9C135.85 154.74 135.78 153.25 135.03 152.3C135.08 152.1 134.97 151.72 135.03 151.58C135.08 151.46 136.8 149.96 137.02 149.85C141.09 147.86 145.02 153.15 141.64 156.39C140.01 157.95 137.87 157.4 135.99 156.62Z" fill="#B2A740"/>
<path d="M121.3 177.78C123.4 177.52 126.02 177.89 126.16 180.49C126.39 184.58 117.8 185.87 117.51 180.95C117.38 178.79 119.49 178.01 121.3 177.78Z" fill="#C8B867"/>
<path d="M94.6701 152.84C100.28 151.8 100.64 160.29 95.9801 160.65C94.5401 160.76 92.5801 159.63 92.3501 158.17C92.0501 156.26 92.3501 153.27 94.6701 152.84Z" fill="#C8B867"/>
<path d="M93.7101 242.53C98.0201 241.54 98.2401 247.45 94.8001 247.95C91.0001 248.5 91.0201 243.15 93.7101 242.53Z" fill="#C8B867"/>
<path d="M111.46 268.43C116.11 267.37 116.1 273.76 112.62 273.67C109.62 273.59 108.76 269.05 111.46 268.43Z" fill="#C8B867"/>
<path d="M135.99 155.9C134.42 155.36 134.75 153.49 135.03 152.3C135.78 153.24 135.85 154.74 135.99 155.9Z" fill="#C8B867"/>
<path d="M263.82 118.72C263.91 117.97 264.26 117.69 263.72 117.03C262.16 115.12 257.45 113.94 255.07 114.17C253.75 114.3 250.21 116.35 249.72 114.72C249.19 112.95 250.73 112.41 252.12 111.94C256.63 110.44 261.38 111.72 265.14 114.4L267.87 109.31C265.94 106.51 262.92 103.72 259.82 102.22C259.15 101.89 257.7 101.67 257.35 101.34C256.51 100.54 257.15 99.02 258.2 98.82C260.25 98.45 265.26 102.19 266.83 103.61C267.42 104.15 268.49 105.66 268.85 105.9C269.02 106.02 269.1 106.06 269.32 106C269.36 105.72 269.47 105.49 269.72 105.32C271.22 104.31 274.17 103.23 275.97 102.21C280.04 99.92 285.1 96.8 288.52 93.66C289.56 92.7 290.76 90.32 292.36 91.26C293.57 91.97 292.36 93.57 291.76 94.26C289.13 97.29 284.44 99.41 281.32 101.93C285.45 101.42 289.4 101.51 293.31 103.02C298.32 104.95 303.91 109.99 305.79 115.13C306.05 115.85 306.4 117.68 306.51 118.49C307.05 122.44 306.85 125.33 304.83 128.8C304.28 129.75 302.71 131.8 301.95 132.64C301.54 133.1 300.22 134.46 299.79 134.8C297.95 136.29 292.94 138.99 290.68 139.6C287.12 140.55 280.94 139.92 277.38 138.87C272.41 137.4 267.95 134.44 265.57 129.76C263.22 129.81 260.8 130.11 258.49 130.56C256.67 130.91 254.36 131.91 252.84 132.12C252.32 132.19 251.51 132.2 251.27 131.63C250.52 129.9 251.91 129.27 253.27 128.81C256.5 127.7 260.91 127.42 264.3 126.89C264.49 126.71 263.86 124.63 263.82 124.25C263.6 122.31 263.59 120.66 263.82 118.73V118.72ZM282.05 136.47C288.26 137.15 291.23 136.83 296.44 133.11C297.59 132.29 297.88 131.92 298.84 130.95C301.78 127.95 303.86 125.46 303.63 121C303.45 117.48 302.47 115.03 300.37 112.26C297.97 109.1 295.41 107.09 291.64 105.76C291.98 106.47 292.04 107.53 292.36 108.16C292.68 110.13 292.09 116.76 289.18 116.51C286.27 116.26 288.39 112.68 288.53 111.17C288.65 109.8 288.25 106.49 287.76 105.21C287.27 103.93 281.8 104.88 280.6 105.16C275.69 106.3 271.83 108.64 269.29 113.04C262.68 124.53 269.47 135.09 282.04 136.47H282.05Z" fill="#020201"/>
<path d="M316.59 112.49C316.86 113.25 317.59 114.31 317.79 114.89C317.95 115.35 317.9 116.18 318.03 116.57C316.96 117.15 315.85 117.6 314.83 118.29C313.18 119.41 308.81 122.97 307.9 124.55C307.14 125.89 306.81 129.87 304.83 128.8C306.85 125.32 307.05 122.44 306.51 118.49C309.18 120.53 313.14 117.83 312.03 114.65L316.59 112.49Z" fill="#C9DF7D"/>
<path d="M202.84 130.05C207.95 129.18 208.57 137.03 203.02 136.47C199 136.06 199.03 130.7 202.84 130.05Z" fill="#C8B867"/>
<path d="M221.55 111.34C227.52 110.11 227.21 118.55 221.84 117.41C218.38 116.68 218.42 111.98 221.55 111.34Z" fill="#C8B867"/>
<path d="M312.03 114.64C313.14 117.81 309.19 120.52 306.51 118.48C306.4 117.67 306.05 115.84 305.79 115.12C306.36 114.54 306.42 113.74 307.1 113.2C308.81 111.83 311.32 112.63 312.02 114.64H312.03Z" fill="#C8B867"/>
<path d="M140.24 124.53C145.74 123.29 144.87 130.98 140.9 131.2C136.93 131.42 137.6 125.12 140.24 124.53Z" fill="#C8B867"/>
<path d="M140.73 165.78C145.2 165.17 145.98 172.93 140.45 172.19C136.77 171.69 136.98 166.3 140.73 165.78Z" fill="#B2A740"/>
<path d="M108.35 239.89C108.96 239.81 111.28 240.11 111.83 240.38C114.56 241.7 115.2 247.95 112.26 248.85C106.74 250.55 103.13 240.57 108.36 239.89H108.35Z" fill="#B2A740"/>
<path d="M104.57 205.54C105.16 202.98 105.7 200.37 106.49 197.87C109.87 200.03 108.39 205.2 104.57 205.54Z" fill="#B2A740"/>
<path d="M129.45 278.74C132.23 278.12 133 283.07 129.45 282.24C127.94 281.88 127.75 279.12 129.45 278.74Z" fill="#B2A740"/>
<path d="M323.54 115.6C322.35 115.82 320.41 115.46 319.7 114.4C318.99 113.34 318.92 110.91 320.18 110.08C321.12 112.31 323.85 112.06 323.06 108.88C326.83 108.8 326.61 115.01 323.54 115.6Z" fill="#B2A740"/>
<path d="M323.06 108.89C323.85 112.07 321.12 112.32 320.18 110.09C320.12 109.94 320.21 109.49 320.06 109.14C319.34 107.39 318.68 105.63 317.78 103.95C317.55 102.8 318.55 101.77 319.69 102.29C320.69 102.75 322.75 107.67 323.05 108.88L323.06 108.89Z" fill="#020201"/>
<path d="M60.38 130.51C63.07 129.95 63.58 134.4 60.69 135.16C57.48 136 58.22 130.96 60.38 130.51Z" fill="#C8B867"/>
<path d="M116.32 132.15C120.21 134.22 119.13 141.38 115.12 142.7C113.59 143.21 112.31 143.09 111.04 142.11C106.26 138.39 111.15 129.4 116.32 132.15ZM113.86 134.83C112.09 135.09 111.21 139.78 113.36 140.01C115.03 140.18 116.54 136.79 115.48 135.52C115.21 135.2 114.3 134.76 113.86 134.83Z" fill="#020201"/>
<path d="M202.9 93.78C204.52 96.66 202.72 101.91 199.54 103.13C195.14 104.82 192.31 99.27 193.23 95.5C193.7 93.58 196.27 91.07 198.28 90.96C199.67 90.88 202.24 92.61 202.9 93.78ZM196.98 99.94C199.17 101.74 201.73 96.57 199.91 94.97C196.9 92.33 194.55 97.95 196.98 99.94Z" fill="#020201"/>
<path d="M324.5 138.63C324.66 139.51 324.64 140.43 324.74 141.27C319.87 141.8 314.24 140.67 309.64 138.98C308.95 138.73 307.89 138.35 307.3 137.96C306.25 137.26 305.99 136.07 304.66 135.56C303.19 135 301.32 135.43 299.79 134.79C300.21 134.45 301.54 133.09 301.95 132.63C302.88 133.22 304.03 133.25 305.04 133.73C306.16 134.27 307.22 135.41 308.33 135.96C310.44 137 318.89 138.37 321.52 138.6C322.51 138.68 323.5 138.6 324.49 138.63H324.5Z" fill="#A7DD8E"/>
<path d="M324.5 137.91C324.54 138.13 324.46 138.41 324.5 138.63C323.51 138.61 322.52 138.68 321.53 138.6C318.9 138.37 310.44 137.01 308.34 135.96C307.23 135.41 306.17 134.27 305.05 133.73C304.03 133.24 302.89 133.21 301.96 132.63C302.71 131.79 304.28 129.75 304.84 128.79C306.82 129.86 307.15 125.88 307.91 124.54C308.81 122.95 313.19 119.4 314.84 118.28C315.86 117.59 316.96 117.14 318.04 116.56C320.22 123.09 323.22 131.24 324.52 137.91H324.5Z" fill="#C2DD9C"/>
<path d="M335.3 141.26L331.22 140.79C332.25 140.4 333.4 140.58 334.45 140.79C334.8 140.86 335.19 140.79 335.29 141.26H335.3Z" fill="#A7DD8E"/>
<path d="M292.37 108.17C292.86 109.13 293.62 109.7 294.12 111.1C297.98 122.07 293.63 130.92 283.58 135.95C283.08 136.2 282.56 136.24 282.06 136.47C269.48 135.1 262.69 124.54 269.31 113.04C271.84 108.63 275.71 106.29 280.62 105.16C281.82 104.88 287.29 103.92 287.78 105.21C288.27 106.5 288.68 109.81 288.55 111.17C288.41 112.68 286.3 116.26 289.2 116.51C292.1 116.76 292.7 110.13 292.38 108.16L292.37 108.17Z" fill="#E8D57E"/>
<path d="M298.84 130.95C298.63 130.38 298.19 131.01 298 131.19C297.4 131.74 296.76 132.33 296.45 133.11C291.24 136.83 288.27 137.14 282.06 136.47C282.56 136.24 283.08 136.2 283.58 135.95C293.63 130.91 297.98 122.07 294.12 111.1C293.63 109.7 292.86 109.13 292.37 108.17C292.05 107.54 291.99 106.49 291.65 105.77C295.42 107.09 297.98 109.11 300.38 112.27C302.48 115.03 303.46 117.49 303.64 121.01C303.87 125.47 301.79 127.96 298.85 130.96L298.84 130.95Z" fill="#DBBD53"/>
<path d="M298.84 130.95C297.89 131.92 297.59 132.29 296.44 133.11C296.75 132.33 297.39 131.74 297.99 131.19C298.18 131.01 298.63 130.39 298.83 130.95H298.84Z" fill="#E8D57E"/>
<path d="M113.86 134.83C114.29 134.76 115.21 135.2 115.48 135.52C116.55 136.79 115.03 140.18 113.36 140.01C111.21 139.78 112.09 135.1 113.86 134.83Z" fill="#917D8B"/>
<path d="M196.98 99.94C194.55 97.95 196.91 92.33 199.91 94.97C201.73 96.57 199.17 101.73 196.98 99.94Z" fill="#917D8B"/>
</svg>
