<svg width="204" height="232" viewBox="0 0 204 232" fill="none" xmlns="http://www.w3.org/2000/svg">
<path d="M71.151 201.734C70.7344 204.842 67.5094 209.076 67.9677 212.117C68.101 212.976 69.1177 214.401 69.876 214.801C72.7094 216.284 77.151 213.476 80.8844 215.192C82.301 215.842 86.651 219.601 87.5427 220.926C89.6927 224.126 88.3594 226.467 84.751 227.134C83.126 227.434 81.2344 226.984 79.6927 227.267C75.9177 227.984 72.3177 230.884 68.2594 231.226C63.951 231.584 57.0927 229.359 54.601 225.684C52.4177 222.467 51.9427 218.751 52.9677 215.034C50.276 215.084 47.7427 214.101 45.2177 213.284C39.5594 211.459 31.3844 208.067 29.0094 202.109C27.576 198.501 30.5094 196.759 30.576 193.251C29.826 193.309 29.2177 192.876 28.5927 192.534C24.751 190.384 22.1844 184.976 21.9427 180.701C17.801 178.876 16.8177 175.192 16.051 171.101C13.351 156.626 15.301 140.976 22.3344 128.026C21.3594 125.551 20.3844 123.067 19.6844 120.492C19.3927 119.426 19.3427 118.351 19.0927 117.284C18.8177 116.109 18.151 115.076 18.2844 113.692C10.076 110.392 3.5927 103.626 1.1427 95.059C-4.5073 75.309 11.5844 56.3173 32.0177 59.184C32.801 59.2923 35.2927 60.0673 35.7677 59.834C36.7927 58.2256 38.1344 57.0173 39.6844 55.9256C39.6094 55.0756 39.1427 54.584 39.1594 53.6256C39.176 52.2673 39.726 50.6673 40.5677 49.6256C45.2677 43.8006 53.526 43.4673 60.2677 41.7506C60.7594 34.0756 59.526 26.4506 58.301 18.909C57.226 12.3006 54.0177 5.30065 62.3094 2.00898C70.8677 -1.38269 88.7594 -0.332689 96.9427 4.05064C110.968 11.5673 100.018 21.359 97.2344 31.334C96.4927 34.009 95.2927 39.5923 95.5344 42.234C95.5594 42.5006 95.6094 42.759 95.7177 43.0006C99.5094 44.0423 103.259 45.434 106.801 47.1507C112.201 49.7673 117.276 54.4423 111.726 60.109C122.851 65.5756 128.801 78.5673 126.426 90.7007C126.043 92.6673 125.059 94.559 124.809 96.4756C125.993 97.6423 126.918 99.0423 128.009 100.284C131.868 104.642 134.734 107.101 139.843 109.842C141.434 110.692 143.034 111.567 144.601 112.476C144.818 112.351 144.818 112.159 144.901 111.976C145.943 109.509 146.784 104.951 147.484 102.167C149.443 94.4423 151.159 86.6756 153.034 78.934C155.959 66.8423 160.051 57.084 167.126 46.859C172.993 38.3756 185.959 23.784 197.518 25.584C198.809 25.784 202.501 27.859 203.018 29.0756C204.118 31.6256 202.476 35.5006 200.668 37.434C199.451 38.7423 197.343 39.7673 196.259 41.2256C195.809 41.834 194.459 44.6256 195.176 45.1423C195.693 45.5173 197.776 45.6423 198.609 45.859C205.659 47.734 201.126 55.009 198.159 58.509C196.301 60.7006 188.559 66.1173 188.109 68.2423C187.451 71.4006 190.868 70.6757 191.868 72.784C193.959 77.1757 189.676 81.9923 186.668 84.7923C183.859 87.4006 180.701 88.9256 177.776 91.2923C172.693 95.4006 167.934 101.859 164.118 107.209C161.393 111.026 158.901 115.026 156.693 119.167C158.034 120.267 159.426 121.734 160.593 123.059C169.876 133.626 173.068 147.401 169.226 161.076C166.884 169.409 162.534 176.042 155.468 181.101C154.668 181.676 151.959 183.117 151.676 183.701C150.634 185.884 151.184 191.042 152.184 193.217C153.184 195.392 154.734 195.917 154.468 198.884C153.584 208.676 140.476 213.167 132.184 213.976C131.001 214.092 129.293 213.751 128.118 213.601C127.001 215.884 125.593 218.051 124.193 220.176C122.259 223.134 120.701 225.834 117.893 228.067C116.159 229.451 113.309 231.584 111.018 231.392C108.276 231.167 110.809 227.792 111.351 226.517C111.943 225.126 116.234 214.509 115.718 213.992L105.426 214.392C101.193 215.042 96.951 215.859 92.6344 215.584C89.8177 215.409 86.6677 215.117 84.3927 213.434C82.8844 212.317 82.3094 210.442 82.3427 208.592C77.4094 208.826 71.9177 204.217 73.351 199.001L71.151 198.801C71.0677 199.717 71.2677 200.809 71.151 201.701V201.734ZM83.1427 3.16731C77.551 2.51731 71.176 2.09231 65.7094 3.62565C61.7927 4.72565 58.9594 6.17565 59.3844 10.8423C59.676 14.084 60.8094 17.9423 61.3344 21.284C62.226 27.0256 63.1427 33.059 62.951 38.8423C62.9177 39.7423 62.9844 40.6506 62.9594 41.5506C69.5927 40.4756 76.2594 40.209 82.9427 40.9506C86.376 41.334 89.7094 42.159 93.1344 42.5506C92.7677 41.359 93.001 40.0923 93.1594 38.884C93.7094 34.834 94.7094 30.184 96.2927 26.434C99.5344 18.7756 105.901 11.8923 95.6344 6.37565C91.9427 4.39231 87.2427 3.65898 83.1344 3.18398L83.1427 3.16731ZM192.868 46.7423C191.501 44.209 192.959 40.909 194.768 38.9423C196.468 37.0923 199.001 36.1423 200.076 33.659C200.251 33.2506 200.876 31.234 200.834 30.909C200.701 29.834 197.943 28.309 196.951 28.1756C186.551 26.7423 174.634 40.4506 169.326 48.084C162.651 57.6756 158.459 67.009 155.676 78.4006C151.768 94.3756 148.534 110.467 142.859 125.942C140.959 131.134 139.001 136.401 135.951 141.034C135.818 141.651 136.651 142.792 136.859 143.442C138.484 148.592 136.134 153.901 130.726 155.092C130.668 156.601 130.676 158.284 130.518 159.776C129.976 164.859 126.301 173.542 123.118 177.559C121.218 179.951 119.301 181.234 118.426 184.459C116.909 190.026 119.351 191.484 120.093 196.384C120.884 201.617 119.601 209.726 118.268 214.884C117.109 219.384 115.276 223.642 113.534 227.934C115.509 226.967 117.426 225.526 118.809 223.817C123.459 218.101 128.634 208.484 130.026 201.259C131.493 193.617 129.668 185.951 132.026 178.676C132.343 177.709 133.876 174.959 133.909 174.359C133.951 173.684 133.193 171.959 133.168 170.917C133.109 168.301 135.184 165.017 137.318 163.559C135.193 159.176 137.643 153.926 142.293 152.676C142.043 151.167 141.368 149.776 141.301 148.201C141.151 144.867 142.901 140.684 146.293 139.584C149.401 126.534 155.276 115.092 163.093 104.326C166.793 99.234 170.959 93.5757 175.793 89.5423C178.709 87.1006 182.093 85.4423 184.884 82.8423C186.943 80.9256 190.451 77.3923 189.593 74.3256C189.484 73.934 187.493 73.009 186.876 72.4506C181.534 67.534 190.693 61.9256 193.876 59.059C195.726 57.3923 197.409 55.4006 198.634 53.2256C201.734 47.7006 197.634 49.0756 194.418 47.7256C193.951 47.534 193.101 46.809 192.876 46.7673L192.868 46.7423ZM67.7177 60.5006C68.9844 58.334 71.7927 56.609 74.0177 55.5006C80.4427 52.2756 87.701 53.1673 93.4594 57.3256C97.4177 56.734 101.251 56.7756 105.176 57.5923C106.993 57.9673 108.793 59.2006 110.543 57.6423C113.451 55.0423 109.718 51.6256 107.468 50.3006C98.101 44.809 82.2177 42.359 71.4594 42.9423C65.2094 43.2756 49.1927 45.509 44.4844 49.3423C43.001 50.5423 41.1344 52.4923 42.076 54.534C45.076 53.059 49.0844 52.9923 52.2594 53.9506C55.6094 54.959 58.2927 57.9256 60.5677 60.4423C62.9677 60.409 65.3677 59.884 67.726 60.509L67.7177 60.5006ZM70.626 60.8006C69.9177 61.5506 69.551 63.1756 68.4094 63.284C67.7344 63.3423 66.3427 62.784 65.4677 62.7256C63.851 62.6006 61.0344 63.3423 59.9094 63.0923C59.0677 62.9006 55.0094 58.284 53.301 57.3006C48.2677 54.3923 41.201 56.1173 38.176 61.0257C46.401 64.1673 52.5427 71.484 54.8677 79.9173C56.026 79.4923 57.0094 78.6256 58.1677 78.2173C62.8427 76.5756 67.3177 77.484 71.751 79.3173C73.6094 69.609 80.9094 61.284 90.3344 58.3256L88.7344 57.434C83.1177 54.8423 74.8927 56.2756 70.6177 60.8006H70.626ZM73.4927 81.659C72.0844 82.6923 69.526 81.0506 67.9594 80.6173C64.1177 79.5506 59.0344 79.509 55.8677 82.3173C55.1344 82.9673 53.701 85.334 52.751 83.034C52.1677 81.6173 51.926 79.4923 51.3177 77.8756C43.1927 56.3423 12.3927 56.4423 4.3927 78.2173C-4.84897 103.401 26.2927 124.142 45.476 105.509C49.8344 101.276 50.5677 97.7506 52.5594 92.4006C55.2844 85.0756 67.7927 84.3673 73.251 88.709C74.601 89.784 75.3427 93.9256 76.176 95.7757C86.5427 118.659 120.759 113.476 123.909 88.609C127.701 58.709 85.4927 47.2506 74.9427 77.6173C74.6094 78.5756 74.251 81.1006 73.4927 81.659ZM103.926 112.892C90.7677 115.234 77.5094 107.434 72.9427 95.009C72.3594 93.4173 72.101 91.709 71.3427 90.209C67.2927 87.784 58.5344 87.7923 55.651 91.8923C55.0427 92.7506 55.1177 93.709 54.8177 94.659C52.6344 101.551 49.1344 106.859 43.0344 110.851C36.5427 115.101 28.5344 116.276 20.9844 114.484C22.0594 119.692 23.4427 125.309 26.2177 129.934C27.151 131.484 28.4844 133.317 29.8844 134.467C30.701 135.142 32.176 135.751 32.776 136.567C33.301 137.276 33.2594 138.017 33.5927 138.742C34.451 140.601 38.4094 141.984 40.3427 141.242C40.2677 138.467 40.451 135.742 41.026 133.026C41.3094 131.684 41.7344 128.509 43.576 128.751C45.6344 129.026 49.6677 135.009 50.2594 134.859C52.6927 131.734 54.8594 128.217 57.3677 125.167C57.7844 124.659 59.026 123.167 59.4594 122.867C60.3677 122.242 61.0677 122.309 61.8344 123.084C62.5094 123.767 64.2344 126.676 64.8344 127.676C66.8094 130.976 68.3094 134.551 70.251 137.851C72.701 135.584 75.301 133.434 77.551 130.967C78.551 129.867 79.8177 126.917 81.451 128.451C82.951 129.851 83.026 135.026 83.1427 137.059C83.2594 139.092 83.4177 141.692 83.351 143.767C83.3344 144.301 83.1927 144.742 83.1427 145.259C83.4344 145.534 86.7844 144.426 87.3927 144.209C88.501 143.817 91.0927 142.392 91.8927 142.301C92.5927 142.217 93.8594 142.792 94.801 142.784C97.7844 142.776 100.568 140.534 102.009 138.042C102.351 137.451 102.309 136.926 102.826 136.259C103.809 135.001 106.009 133.617 107.234 132.267C110.884 128.251 112.676 123.301 113.826 118.076C114.534 114.851 115.126 111.601 114.918 108.284C111.651 110.376 107.776 112.192 103.926 112.884V112.892ZM104.926 211.826C107.176 211.609 109.934 211.517 112.209 211.417C113.593 211.359 114.993 211.476 116.384 211.434C116.593 211.384 116.618 211.051 116.659 210.876C117.634 206.934 118.109 199.342 117.218 195.434C116.759 193.417 115.459 191.284 115.309 189.351C115.093 186.601 115.859 182.892 117.276 180.509C118.693 178.126 120.801 176.634 122.118 174.359C118.184 171.076 114.901 166.084 114.176 160.909C112.376 148.142 117.393 138.209 128.326 131.801C131.184 130.126 135.493 129.601 138.693 130.276L143.868 115.209C143.726 114.617 136.909 111.501 135.843 110.851C133.459 109.409 131.134 107.101 129.101 105.201L123.409 98.9007C121.693 101.559 119.834 104.042 117.543 106.234C117.901 107.192 117.543 107.909 117.501 108.784C117.451 110.234 117.709 111.784 117.301 113.176C119.393 114.109 121.093 115.667 122.993 116.892C123.559 117.259 124.526 117.317 124.693 118.192C124.901 119.309 124.218 120.067 123.093 119.801C122.118 119.559 117.293 115.542 116.901 115.892C115.826 122.509 113.676 129.309 109.009 134.284C107.993 135.367 105.626 136.959 104.909 137.976C104.093 139.126 103.659 140.651 102.509 141.876C101.059 143.426 98.151 145.092 96.0177 145.284C94.6927 145.401 93.1427 145.009 92.0344 145.084C91.7177 145.101 89.951 145.826 89.901 146.009C89.9594 147.609 90.376 149.184 90.5094 150.776C91.4677 162.626 91.3344 175.976 89.2594 187.692C88.3177 193.017 83.526 205.776 85.1677 210.284C85.4844 211.159 87.3344 212.484 88.226 212.626C90.5927 212.992 94.4177 213.184 96.8177 213.051C99.5344 212.901 102.218 212.109 104.901 211.842L104.926 211.826ZM162.284 170.851C167.826 161.467 170.043 149.692 166.743 139.117C164.984 133.484 162.684 129.434 158.793 125.084C158.134 124.342 156.451 122.342 155.793 121.884C155.626 121.767 155.593 121.609 155.293 121.684C153.634 125.642 151.843 129.592 150.643 133.726C150.118 135.526 149.609 136.009 151.226 137.242C153.476 138.951 155.259 139.159 157.284 141.576C163.251 148.717 164.893 157.659 163.226 166.692C162.984 168.009 162.576 169.051 162.226 170.292C162.176 170.484 161.893 170.892 162.284 170.851ZM59.5594 126.684C57.1677 129.326 54.551 133.009 52.601 136.009C51.976 136.967 51.6094 138.934 50.076 138.676C49.3594 138.551 48.576 137.051 48.0677 136.476C46.751 134.976 45.326 133.542 43.9677 132.084C41.9594 139.534 43.151 148.159 45.5094 155.417C48.076 163.317 54.101 169.192 53.351 178.142C52.7594 185.176 48.6344 189.509 50.7344 197.159C51.2927 199.209 54.1844 204.067 56.0177 205.067C57.001 205.609 58.101 205.276 58.7094 206.376C59.5677 207.934 58.9594 209.901 58.251 211.417C57.401 213.242 55.3594 215.526 55.1594 217.517C54.5844 223.234 57.5177 225.917 62.4177 227.842C63.8594 228.409 66.601 228.767 68.151 228.609C71.8094 228.217 75.5344 225.326 79.0927 224.659C81.2594 224.251 84.051 225.309 85.9177 223.692C85.9594 223.526 85.6927 222.876 85.5844 222.676C85.1844 221.926 80.551 217.934 79.6844 217.584C76.951 216.476 74.5427 218.009 71.8427 217.826C66.3844 217.467 64.151 212.667 66.001 207.776C68.0594 202.326 70.251 200.234 66.7094 194.376C64.101 190.059 58.726 187.326 61.8677 181.659C62.651 180.251 64.3844 178.051 65.5677 176.967C69.201 173.642 73.876 174.292 73.551 167.742C73.351 163.734 71.8844 161.726 74.376 157.792C75.226 156.451 76.551 155.701 77.376 154.401C78.5427 152.567 80.1094 148.451 80.476 146.309C81.2844 141.634 80.351 136.592 80.3344 131.876L71.6427 139.876C71.2844 140.642 72.2594 141.326 72.451 142.067C72.9094 143.859 71.8094 144.767 70.3677 143.551C67.0177 137.634 64.376 131.317 60.551 125.684C60.3844 125.576 59.701 126.526 59.551 126.684H59.5594ZM27.776 166.259C28.326 166.534 28.8677 167.034 29.576 167.359C31.151 168.067 32.951 168.459 34.5677 169.059C34.4927 166.567 34.676 164.051 34.5677 161.567C34.276 154.867 33.3594 145.809 30.6677 139.684C30.176 138.567 30.0094 138.001 29.1677 137.284C28.2594 136.509 27.4094 135.642 26.576 134.784L23.776 130.892C22.1344 134.442 20.451 137.826 19.4344 141.642C18.4177 145.459 17.276 151.459 17.1677 155.167C17.0094 160.784 23.4677 164.117 27.7677 166.267L27.776 166.259ZM137.501 132.684C135.351 132.251 132.009 132.701 130.051 133.717C119.751 139.059 114.651 149.634 116.776 161.109C117.584 165.476 120.384 169.184 123.418 172.251L125.718 166.767C123.618 163.626 122.801 159.942 123.118 156.167C123.201 155.217 123.743 153.826 123.726 152.959C123.709 152.467 122.884 151.326 122.659 150.626C121.584 147.209 121.976 143.742 124.309 140.976C126.859 137.942 130.693 136.192 134.209 138.876C135.609 137.001 136.876 134.934 137.501 132.692V132.684ZM126.318 151.667C129.559 154.409 134.284 151.459 134.684 147.542C134.934 145.142 134.284 143.526 132.909 141.667C132.801 141.517 132.834 141.251 132.526 140.959C131.526 140.017 130.334 140.484 129.059 140.309C127.276 141.051 124.993 143.442 124.726 145.384C124.434 147.534 124.559 150.184 126.309 151.659L126.318 151.667ZM144.501 150.867C145.184 152.192 147.276 154.176 148.843 154.417C154.309 155.267 155.718 151.601 154.593 146.876C154.043 144.567 153.251 142.851 150.893 142.076C149.126 141.492 146.443 141.759 145.218 143.292C143.718 145.167 143.401 148.751 144.501 150.867ZM40.576 144.076C38.376 144.259 36.3427 143.859 34.3844 142.876C35.126 146.267 35.9844 149.709 36.376 153.167C37.9677 167.009 36.6927 182.659 32.6344 195.992C31.9844 198.134 30.5094 199.651 31.6927 201.826C34.5844 207.142 43.9594 210.501 49.526 211.976C51.1177 212.401 52.7844 212.501 54.426 212.634C55.351 211.192 56.526 209.667 56.3427 207.851C54.7844 207.676 53.551 206.467 52.5677 205.326C48.026 200.059 46.651 194.659 48.226 187.809C48.976 184.551 50.4427 181.784 50.7344 178.326C51.426 170.109 46.3927 165.126 43.7094 158.017C42.051 153.626 41.0844 148.717 40.5677 144.067L40.576 144.076ZM140.901 182.451C142.876 182.701 144.293 183.059 146.351 182.601C148.659 182.092 154.784 179.076 156.301 177.301C157.818 175.526 160.409 168.251 160.834 165.901C162.101 158.859 161.243 151.851 157.193 145.876C156.676 145.567 157.026 145.876 157.084 146.184C157.901 150.376 157.676 155.717 152.693 156.876C154.001 160.767 152.193 164.617 148.784 166.667C150.734 172.942 143.509 180.101 137.301 178.059C136.884 177.601 136.001 177.301 135.501 176.859C135.068 178.909 132.884 180.401 135.793 181.459C137.643 182.134 139.034 182.217 140.893 182.451H140.901ZM87.5427 146.867L82.7844 147.909C81.7344 150.767 80.726 154.609 78.7427 156.959C78.2594 157.526 77.6177 157.892 77.1844 158.392C73.251 162.884 78.2844 168.376 74.9177 173.317C72.8427 176.359 70.3677 176.426 67.951 178.342C67.3927 178.784 64.0344 182.384 64.3594 182.842C66.4844 183.359 68.701 183.267 70.851 183.451C75.5427 183.834 80.9677 184.459 85.651 184.059C85.9927 184.026 87.0927 183.901 87.251 183.667C87.351 181.476 87.926 179.326 88.1344 177.159C88.7927 170.401 88.6344 163.326 88.3344 156.576C88.1927 153.317 88.101 150.092 87.5344 146.884L87.5427 146.867ZM128.109 155.067L125.909 154.667C125.109 157.859 125.551 161.092 126.909 164.059C127.209 164.059 127.284 163.451 127.359 163.217C128.176 160.592 128.134 157.801 128.109 155.067ZM140.501 163.659C144.118 168.076 151.526 163.334 150.451 158.601C150.101 157.067 147.984 157.001 146.759 156.492C146.026 156.192 144.726 155.126 144.301 155.059C141.726 154.634 139.268 157.301 139.101 159.759C138.993 161.342 139.543 162.484 140.501 163.651V163.659ZM30.776 181.451C31.4844 181.576 32.7427 182.076 33.2177 181.201C33.5927 180.517 34.0177 177.476 34.1427 176.526C34.326 175.076 34.326 173.617 34.526 172.176C34.4594 171.809 33.6927 171.501 33.3677 171.359C31.8344 170.684 29.5844 170.334 28.176 169.659C26.0094 168.617 23.2594 166.476 21.001 165.342L17.3844 161.859C17.8927 165.909 18.001 173.292 20.5844 176.542C22.326 178.742 28.0427 180.967 30.776 181.442V181.451ZM137.309 174.851C140.584 178.334 147.893 172.001 146.293 167.859C144.809 168.142 142.726 168.176 141.301 167.651C140.684 167.426 138.893 165.842 138.601 165.842C135.643 167.926 134.651 172.026 137.301 174.842L137.309 174.851ZM32.776 184.051C29.776 184.467 27.3927 182.584 24.5844 182.051C25.401 185.676 27.6094 190.117 31.576 190.842L32.776 184.051ZM148.901 184.451C148.034 184.601 147.251 185.067 146.384 185.234C143.151 185.842 138.276 184.926 135.151 183.909C134.568 183.717 134.101 183.351 133.509 183.251C133.484 184.759 133.143 186.451 133.101 187.942C132.984 192.359 133.426 195.759 132.676 200.309C132.059 204.076 130.909 207.784 129.309 211.234C130.168 211.051 131.168 211.451 131.951 211.392C133.293 211.292 136.218 210.617 137.668 210.292C142.526 209.217 149.459 205.909 151.301 200.942C151.518 200.351 151.943 198.526 151.893 197.959C151.826 197.192 150.159 195.142 149.726 194.117C149.509 193.592 149.284 193.042 149.151 192.492C148.534 189.917 148.401 187.034 148.893 184.451H148.901ZM86.7427 186.442C78.9927 186.609 71.251 186.026 63.5594 185.242C63.5177 185.526 63.576 185.776 63.651 186.042C63.976 187.151 67.4677 190.909 68.401 192.292C69.2677 193.584 70.0094 194.967 70.576 196.426C71.8344 196.167 73.1677 196.751 74.451 196.842C76.826 197.009 80.0594 196.859 82.451 196.634C82.8594 196.592 84.2427 196.426 84.4677 196.259L86.751 186.442H86.7427ZM83.7427 199.034L76.0677 199.217C75.2427 200.884 75.4677 201.584 76.4594 203.009C77.8344 204.984 79.876 206.117 82.3427 206.026C82.3677 203.617 83.2594 201.359 83.7427 199.034Z" fill="#020201"/>
<path d="M103.926 112.892C104.101 115.659 102.976 118.934 101.759 121.417C99.9344 125.134 97.0677 128.442 93.9344 131.076C91.6177 126.184 84.6427 120.392 79.951 117.784C68.276 111.292 45.1677 111.092 38.0677 124.476C37.5344 125.492 36.1344 128.326 37.9177 128.842C39.701 129.359 39.7177 127.051 40.1927 126.001C41.2094 123.776 44.0677 121.017 46.1594 119.776C59.151 112.076 79.2427 116.534 88.6177 128.092C89.6844 129.409 90.801 131.626 91.7344 132.667C91.751 133.117 91.4677 133.201 91.201 133.434C89.0927 135.259 86.0094 137.067 83.1427 137.067C83.026 135.034 82.951 129.867 81.451 128.459C79.8177 126.926 78.551 129.876 77.551 130.976C75.301 133.451 72.701 135.592 70.251 137.859C68.3177 134.567 66.8177 130.984 64.8344 127.684C64.2344 126.684 62.5094 123.776 61.8344 123.092C61.0677 122.317 60.3677 122.242 59.4594 122.876C59.026 123.176 57.7844 124.667 57.3677 125.176C54.8594 128.217 52.6927 131.742 50.2594 134.867C49.6677 135.009 45.6344 129.034 43.576 128.759C41.7344 128.509 41.3094 131.692 41.026 133.034C40.451 135.751 40.276 138.476 40.3427 141.251C38.401 141.992 34.451 140.609 33.5927 138.751C33.251 138.017 33.301 137.284 32.776 136.576C32.176 135.759 30.701 135.142 29.8844 134.476C28.4844 133.326 27.151 131.501 26.2177 129.942C23.4427 125.317 22.0594 119.701 20.9844 114.492C28.526 116.276 36.5427 115.101 43.0344 110.859C49.1427 106.867 52.6344 101.551 54.8177 94.6673C55.1177 93.7173 55.0427 92.7673 55.651 91.9007C58.5427 87.7923 67.2927 87.7923 71.3427 90.2173C72.101 91.709 72.3594 93.4257 72.9427 95.0173C77.5094 107.442 90.7677 115.251 103.926 112.901V112.892ZM65.101 102.342C64.7677 102.442 64.4177 102.876 64.3594 103.209C64.0844 104.684 65.501 105.451 66.351 106.401C67.051 107.192 67.5094 108.851 68.951 108.192C71.1427 107.184 67.7177 104.267 66.951 103.401C66.451 102.826 66.4927 101.934 65.0927 102.342H65.101ZM54.701 109.234C55.051 108.909 55.4844 107.826 55.876 107.317C56.4427 106.592 58.3844 104.767 58.6094 104.251C59.0427 103.259 58.326 102.401 57.276 102.509C56.226 102.617 52.901 106.751 52.5177 107.759C51.976 109.184 53.576 110.267 54.701 109.242V109.234Z" fill="#C3EE79"/>
<path d="M102.534 141.875C103.684 140.65 104.118 139.125 104.934 137.975C105.651 136.959 108.018 135.367 109.034 134.284C113.701 129.309 115.851 122.509 116.926 115.892C117.318 115.542 122.143 119.567 123.118 119.8C124.243 120.075 124.926 119.309 124.718 118.192C124.551 117.317 123.584 117.259 123.018 116.892C121.118 115.659 119.418 114.109 117.326 113.175C117.734 111.784 117.468 110.234 117.526 108.784C117.559 107.909 117.926 107.184 117.568 106.234C119.859 104.05 121.718 101.559 123.434 98.9004L129.126 105.2C131.159 107.1 133.484 109.409 135.868 110.85C136.934 111.492 143.751 114.617 143.893 115.209L138.718 130.275C135.509 129.6 131.201 130.125 128.351 131.8C117.418 138.209 112.393 148.142 114.201 160.909C114.934 166.084 118.218 171.075 122.143 174.359C120.826 176.634 118.651 178.242 117.301 180.509C115.951 182.775 115.118 186.6 115.334 189.35C115.484 191.284 116.784 193.425 117.243 195.434C118.134 199.342 117.659 206.942 116.684 210.875C116.643 211.042 116.618 211.384 116.409 211.434C115.026 211.475 113.618 211.359 112.234 211.417C109.959 211.517 107.193 211.6 104.951 211.825C104.943 211.409 104.918 210.992 105.001 210.575C108.176 193.667 107.326 171.534 105.126 154.392C104.584 150.159 103.526 146.017 102.551 141.875H102.534Z" fill="#A87A58"/>
<path d="M73.493 81.659C74.2513 81.1007 74.618 78.5757 74.943 77.6173C85.493 47.2507 127.701 58.709 123.91 88.609C120.76 113.484 86.543 118.667 76.1763 95.7757C75.3346 93.9257 74.593 89.784 73.2513 88.709C67.793 84.3673 55.2846 85.0757 52.5596 92.4007C50.568 97.7423 49.843 101.267 45.4763 105.509C26.2846 124.142 -4.85703 103.401 4.39297 78.2173C12.3846 56.4423 43.193 56.334 51.318 77.8757C51.9263 79.5007 52.1763 81.6257 52.7513 83.034C53.693 85.334 55.1263 82.9757 55.868 82.3173C59.0346 79.509 64.118 79.5507 67.9596 80.6173C69.5263 81.0507 72.0846 82.6923 73.493 81.659ZM97.293 63.984C81.1013 65.434 72.393 83.9007 81.5346 97.409C90.1846 110.184 109.635 109.692 117.551 96.434C126.535 81.4007 114.693 62.4257 97.293 63.984ZM26.9346 65.9757C16.2596 66.3173 7.1513 75.209 6.39297 85.809C4.93463 106.367 30.443 116.992 44.068 101.301C56.2763 87.234 45.3596 65.384 26.9346 65.9757Z" fill="#354A65"/>
<path d="M104.926 211.826C102.243 212.092 99.5596 212.876 96.8429 213.034C94.4429 213.167 90.6262 212.976 88.2512 212.609C87.3596 212.476 85.5096 211.142 85.1929 210.267C83.5429 205.759 88.3346 193.001 89.2846 187.676C91.3679 175.959 91.4929 162.609 90.5346 150.759C90.4096 149.167 89.9846 147.592 89.9262 145.992C89.9679 145.809 91.7346 145.084 92.0596 145.067C93.1679 144.992 94.7179 145.384 96.0429 145.267C98.1679 145.084 101.076 143.409 102.535 141.859C103.51 146.001 104.568 150.142 105.11 154.376C107.31 171.517 108.16 193.659 104.985 210.559C104.91 210.976 104.926 211.392 104.935 211.809L104.926 211.826Z" fill="#C0A187"/>
<path d="M61.3594 166.859C61.1261 167.176 60.2344 168.392 60.1928 168.609C60.0844 169.159 60.3928 169.576 60.3594 169.859C60.0511 172.476 58.7011 175.301 58.0594 177.851C56.8594 182.642 55.8594 189.701 57.7928 194.309C59.7261 198.917 62.2928 200.551 62.5678 205.917C62.7094 208.576 61.9594 212.809 62.9178 215.159C64.7261 219.584 67.3844 219.342 70.2428 221.826C72.3594 223.659 71.8261 225.609 69.7344 227.101C69.1844 227.492 68.0511 227.501 68.1511 228.617C66.6011 228.784 63.8594 228.426 62.4178 227.851C57.5261 225.926 54.5844 223.242 55.1594 217.526C55.3594 215.534 57.4011 213.242 58.2511 211.426C58.9594 209.909 59.5678 207.942 58.7094 206.384C58.1011 205.284 57.0011 205.617 56.0178 205.076C54.1928 204.067 51.3011 199.217 50.7344 197.167C48.6428 189.517 52.7678 185.184 53.3511 178.151C54.1011 169.201 48.0678 163.326 45.5094 155.426C43.1511 148.159 41.9594 139.542 43.9678 132.092C45.3261 133.551 46.7511 134.992 48.0678 136.484C48.5678 137.059 49.3594 138.567 50.0761 138.684C51.6094 138.951 51.9761 136.984 52.6011 136.017C54.5511 133.009 57.1678 129.326 59.5594 126.692C60.5428 129.576 61.2261 132.409 61.7261 135.417C62.5511 140.392 62.9511 145.934 63.1678 150.967C63.3928 156.242 62.6011 161.759 61.3594 166.867V166.859ZM52.1094 147.301C51.2261 147.459 50.9261 148.384 50.9511 149.167C50.9761 150.384 52.0511 154.976 52.4594 156.267C52.8261 157.442 53.4844 159.076 55.0178 158.626C56.7344 158.117 55.1428 156.517 54.8594 155.867C54.3011 154.567 53.6844 151.001 53.4511 149.484C53.3344 148.742 53.8928 146.984 52.1094 147.309V147.301Z" fill="#D6D2C9"/>
<path d="M83.1428 3.16708C84.1428 4.71708 85.4678 5.62542 86.1511 7.45875C88.5595 13.9504 84.3678 27.4421 83.3761 34.6754C83.0928 36.7504 82.8928 38.8504 82.9511 40.9421C76.2678 40.2004 69.5928 40.4671 62.9678 41.5421C62.9928 40.6421 62.9261 39.7337 62.9595 38.8338C63.1511 33.0588 62.2345 27.0254 61.3428 21.2754C60.8261 17.9338 59.6845 14.0754 59.3928 10.8338C58.9761 6.17542 61.8011 4.71709 65.7178 3.61709C71.1761 2.08375 77.5595 2.51708 83.1511 3.15875L83.1428 3.16708Z" fill="#94664C"/>
<path d="M59.5592 126.684C59.7009 126.526 60.3925 125.576 60.5592 125.684C64.3925 131.317 67.0342 137.626 70.3759 143.551C71.8092 144.767 72.9092 143.859 72.4592 142.067C72.2675 141.326 71.2925 140.642 71.6509 139.876L80.3426 131.876C80.3592 136.592 81.2926 141.634 80.4842 146.309C80.1176 148.451 78.5509 152.576 77.3842 154.401C76.5509 155.701 75.2342 156.451 74.3842 157.792C71.8925 161.726 73.3592 163.726 73.5592 167.742C73.8842 174.292 69.2092 173.634 65.5759 176.967C64.3926 178.051 62.6509 180.251 61.8759 181.659C58.7342 187.326 64.1092 190.051 66.7175 194.376C70.2509 200.226 68.0676 202.317 66.0092 207.776C64.1592 212.667 66.3926 217.467 71.8509 217.826C74.5509 218.001 76.9592 216.476 79.6926 217.584C80.5592 217.934 85.1926 221.926 85.5926 222.676C85.7009 222.876 85.9676 223.526 85.9259 223.692C84.0592 225.309 81.2676 224.251 79.1009 224.659C75.5426 225.326 71.8259 228.217 68.1592 228.609C68.0592 227.492 69.1926 227.484 69.7426 227.092C71.8426 225.601 72.3676 223.651 70.2509 221.817C67.3842 219.342 64.7259 219.584 62.9259 215.151C61.9675 212.801 62.7092 208.567 62.5759 205.909C62.2925 200.542 59.7009 198.842 57.8009 194.301C55.9009 189.759 56.8676 182.634 58.0676 177.842C58.7092 175.292 60.0592 172.467 60.3676 169.851C62.1092 170.809 63.4175 168.326 64.2925 167.076C66.1842 164.392 68.2509 160.784 69.6009 157.792C70.2342 156.384 73.0509 150.842 69.6842 151.267C68.1342 151.459 68.8092 152.742 68.6842 153.667C68.2009 157.459 63.6426 163.751 61.3675 166.851C62.6009 161.742 63.4009 156.234 63.1759 150.951C62.9509 145.667 62.5592 140.376 61.7342 135.401C61.2342 132.392 60.5509 129.551 59.5675 126.676L59.5592 126.684Z" fill="#B4AE9F"/>
<path d="M40.5759 144.075C41.0926 148.725 42.0593 153.634 43.7176 158.025C46.3926 165.125 51.4343 170.117 50.7426 178.334C50.4509 181.792 48.9843 184.559 48.2343 187.817C46.6509 194.667 48.0259 200.067 52.5759 205.334C53.5509 206.467 54.7926 207.684 56.3509 207.859C56.5259 209.675 55.3509 211.2 54.4343 212.642C52.7926 212.509 51.1259 212.4 49.5343 211.984C43.9676 210.509 34.6009 207.15 31.7009 201.834C30.5176 199.659 31.9843 198.15 32.6426 196C36.7009 182.675 37.9759 167.025 36.3843 153.175C35.9843 149.717 35.1343 146.275 34.3926 142.884C36.3593 143.867 38.3926 144.267 40.5843 144.084L40.5759 144.075Z" fill="#C0A187"/>
<path d="M192.868 46.742C193.093 46.7836 193.951 47.5003 194.409 47.7003C197.626 49.0503 201.718 47.6836 198.626 53.2003C197.401 55.3836 195.726 57.367 193.868 59.0336C190.684 61.9003 181.526 67.5086 186.868 72.4253C187.476 72.9836 189.476 73.917 189.584 74.3003C190.443 77.367 186.943 80.892 184.876 82.817C182.084 85.417 178.701 87.0753 175.784 89.517C170.959 93.5503 166.784 99.2086 163.084 104.3C162.568 102.659 163.926 101.667 164.093 99.8086C164.543 94.6336 162.909 88.8253 163.276 83.4003C163.609 78.4003 166.826 71.7086 169.684 67.617C169.859 67.367 169.834 67.0253 170.276 67.1253C170.051 68.017 169.668 70.017 170.968 70.142C172.709 70.3086 172.318 68.7503 172.684 67.6336C174.209 62.9753 181.259 55.142 185.484 52.6503C186.143 52.267 186.959 52.492 187.059 51.4086C187.084 51.1836 186.976 50.4836 186.859 50.3336C187.834 49.4586 191.718 46.542 192.859 46.7336L192.868 46.742ZM166.034 90.6586C166.259 90.417 167.284 86.8003 167.651 85.9753C169.143 82.6086 171.593 79.8753 174.276 77.417C174.709 77.017 175.468 76.7503 175.768 76.3086C176.526 75.1836 175.343 73.842 174.009 74.5503C171.618 75.8003 167.334 81.5336 166.059 83.9836C165.459 85.1253 163.884 88.6753 163.918 89.817C163.943 90.842 165.293 91.4586 166.043 90.6586H166.034Z" fill="#7D543C"/>
<path d="M67.718 60.5004C65.368 59.8754 62.9597 60.4004 60.5597 60.4337C58.2847 57.9254 55.593 54.9504 52.2513 53.9421C49.0763 52.9837 45.068 53.0587 42.068 54.5254C41.1263 52.4837 42.993 50.5421 44.4763 49.3337C49.1847 45.5087 65.2097 43.2671 71.4514 42.9337C82.2097 42.3504 98.093 44.8004 107.46 50.2921C109.71 51.6087 113.443 55.0337 110.535 57.6337C108.785 59.1921 106.985 57.9587 105.168 57.5837C101.243 56.7671 97.4097 56.7254 93.4514 57.3171C87.693 53.1587 80.443 52.2587 74.0097 55.4921C71.793 56.6087 68.9847 58.3254 67.7097 60.4921L67.718 60.5004Z" fill="#7D543C"/>
<path d="M70.6262 60.8005C74.8929 56.2755 83.1179 54.8421 88.7429 57.4338L90.3429 58.3255C80.9096 61.2838 73.6096 69.6088 71.7596 79.3171C67.3262 77.4838 62.8512 76.5838 58.1762 78.2171C57.0179 78.6255 56.0346 79.4921 54.8762 79.9171C52.5512 71.4838 46.4096 64.1588 38.1846 61.0255C41.2096 56.1171 48.2762 54.3921 53.3096 57.3005C55.0096 58.2838 59.0762 62.9005 59.9179 63.0921C61.0429 63.3421 63.8596 62.6005 65.4762 62.7255C66.3512 62.7921 67.7429 63.3505 68.4179 63.2838C69.5596 63.1755 69.9262 61.5505 70.6346 60.8005H70.6262Z" fill="#C3EE79"/>
<path d="M87.5428 146.867C88.1178 150.076 88.2011 153.301 88.3428 156.559C88.6428 163.317 88.7928 170.392 88.1428 177.142C87.9345 179.309 87.3511 181.467 87.2595 183.651C87.0928 183.884 86.0011 184.017 85.6595 184.042C80.9761 184.451 75.5511 183.826 70.8595 183.434C68.7095 183.259 66.4928 183.342 64.3678 182.826C64.0428 182.367 67.4011 178.767 67.9595 178.326C70.3761 176.409 72.8595 176.342 74.9261 173.301C78.2845 168.359 73.2595 162.867 77.1928 158.376C77.6345 157.876 78.2761 157.509 78.7511 156.942C80.7345 154.592 81.7428 150.751 82.7928 147.892L87.5511 146.851L87.5428 146.867Z" fill="#7D543C"/>
<path d="M83.1427 3.16703C87.2427 3.64203 91.9511 4.37536 95.6427 6.35869C105.909 11.8754 99.5427 18.7587 96.3011 26.417C94.7094 30.167 93.7094 34.817 93.1677 38.867C93.0011 40.0754 92.7761 41.342 93.1427 42.5337C89.7177 42.142 86.3844 41.317 82.9511 40.9337C82.8927 38.842 83.0927 36.742 83.3761 34.667C84.3677 27.4337 88.5677 13.942 86.1511 7.45036C85.4761 5.62536 84.1427 4.71702 83.1427 3.15869V3.16703Z" fill="#7D553C"/>
<path d="M103.926 112.892C107.776 112.209 111.651 110.392 114.918 108.292C115.126 111.609 114.534 114.867 113.826 118.084C112.676 123.309 110.884 128.25 107.234 132.275C106.009 133.625 103.809 135 102.826 136.267C102.309 136.934 102.351 137.459 102.009 138.05C100.568 140.542 97.7842 142.784 94.8009 142.792C93.8592 142.792 92.5926 142.225 91.8926 142.309C91.0926 142.4 88.5009 143.834 87.3926 144.217C86.7842 144.434 83.4342 145.534 83.1426 145.267C83.1926 144.75 83.3342 144.309 83.3509 143.775C83.4092 141.7 83.2592 139.167 83.1426 137.067C86.0092 137.067 89.0926 135.259 91.2009 133.434C91.4676 133.209 91.7509 133.117 91.7342 132.667C93.0676 134.15 94.7342 132.767 93.9342 131.067C97.0676 128.434 99.9426 125.125 101.759 121.409C102.976 118.925 104.101 115.642 103.926 112.884V112.892Z" fill="#97E03A"/>
<path d="M148.901 184.45C148.41 187.034 148.543 189.917 149.16 192.492C149.293 193.042 149.51 193.6 149.735 194.117C150.168 195.142 151.835 197.192 151.901 197.959C151.951 198.526 151.535 200.35 151.31 200.942C149.468 205.909 142.535 209.217 137.676 210.292C136.226 210.609 133.301 211.284 131.96 211.392C131.176 211.451 130.176 211.051 129.318 211.234C130.918 207.784 132.06 204.075 132.685 200.309C133.435 195.75 132.993 192.35 133.11 187.942C133.151 186.459 133.493 184.759 133.518 183.25C134.11 183.35 134.576 183.717 135.16 183.909C138.285 184.925 143.16 185.842 146.393 185.234C147.251 185.075 148.043 184.6 148.91 184.45H148.901Z" fill="#A87A58"/>
<path d="M162.284 170.85C161.901 170.892 162.176 170.484 162.226 170.292C162.576 169.05 162.984 168.009 163.226 166.692C164.893 157.65 163.251 148.709 157.284 141.575C155.259 139.15 153.476 138.95 151.226 137.242C149.609 136.017 150.118 135.525 150.643 133.725C151.851 129.592 153.643 125.642 155.293 121.684C155.593 121.6 155.626 121.767 155.793 121.884C156.451 122.334 158.134 124.342 158.793 125.084C162.684 129.434 164.984 133.484 166.743 139.117C170.043 149.692 167.826 161.467 162.284 170.85Z" fill="#A87A58"/>
<path d="M137.31 178.05C143.518 180.092 150.743 172.934 148.793 166.659C152.201 164.6 154.01 160.759 152.701 156.867C157.685 155.709 157.91 150.367 157.093 146.175C157.035 145.875 156.676 145.559 157.201 145.867C161.251 151.842 162.11 158.85 160.843 165.892C160.418 168.242 157.776 175.567 156.31 177.292C154.843 179.017 148.668 182.084 146.36 182.592C144.301 183.05 142.885 182.692 140.91 182.442C140.626 181.1 139.243 180.667 138.51 179.942C138.051 179.492 137.693 178.459 137.31 178.042V178.05Z" fill="#A87A58"/>
<path d="M29.1762 137.275C27.7095 146.492 28.0762 155.834 27.9845 165.159C27.9845 165.5 28.1095 166.05 27.7845 166.259C23.4845 164.109 17.0262 160.767 17.1845 155.159C17.2845 151.45 18.4762 145.275 19.4512 141.634C20.4262 137.992 22.1512 134.434 23.7928 130.884L26.5928 134.775C27.4262 135.634 28.2762 136.5 29.1845 137.275H29.1762Z" fill="#C0A187"/>
<path d="M137.501 132.684C136.876 134.934 135.61 136.992 134.21 138.867C130.693 136.184 126.86 137.926 124.31 140.967C121.976 143.742 121.585 147.201 122.66 150.617C122.876 151.317 123.71 152.459 123.726 152.951C123.751 153.817 123.201 155.209 123.118 156.159C122.801 159.934 123.618 163.617 125.718 166.759L123.418 172.242C120.385 169.176 117.576 165.459 116.776 161.101C114.651 149.626 119.76 139.051 130.051 133.709C132.01 132.692 135.351 132.242 137.501 132.676V132.684Z" fill="#BFA087"/>
<path d="M86.7427 186.442L84.4593 196.259C84.2343 196.426 82.8427 196.601 82.4427 196.634C80.051 196.859 76.8177 197.009 74.4427 196.842C73.1593 196.751 71.826 196.167 70.5677 196.426C70.0093 194.967 69.2593 193.584 68.3927 192.292C67.4677 190.909 63.9677 187.151 63.6427 186.042C63.5677 185.776 63.5093 185.517 63.551 185.242C71.2427 186.017 78.9843 186.609 86.7343 186.442H86.7427Z" fill="#3A3F62"/>
<path d="M29.1763 137.275C30.018 137.992 30.1847 138.559 30.6763 139.675C33.368 145.8 34.2847 154.859 34.5763 161.559C34.6847 164.05 34.5013 166.559 34.5763 169.05C32.9597 168.45 31.1597 168.059 29.5847 167.35C28.868 167.025 28.3347 166.534 27.7847 166.25C28.118 166.042 27.9847 165.492 27.9847 165.15C28.0847 155.825 27.718 146.484 29.1763 137.267V137.275Z" fill="#A87A58"/>
<path d="M28.1759 169.659C28.5426 172.842 29.1093 176.167 30.1176 179.209C30.3593 179.951 31.1509 180.567 30.7759 181.451C28.0426 180.976 22.3343 178.751 20.5843 176.551C18.0009 173.301 17.8843 165.917 17.3843 161.867L21.0009 165.351C23.2593 166.484 26.0093 168.626 28.1759 169.667V169.659Z" fill="#BFA187"/>
<path d="M132.91 141.676C132.151 142.767 132.676 144.259 132.46 145.526C132.243 146.792 130.368 149.476 129.301 150.159C128.343 150.776 126.968 150.634 126.31 151.667C124.56 150.192 124.435 147.542 124.726 145.392C124.993 143.459 127.268 141.059 129.06 140.317C130.335 140.492 131.526 140.026 132.526 140.967C132.835 141.259 132.801 141.526 132.91 141.676Z" fill="#C3EE79"/>
<path d="M150.901 142.076C153.251 142.851 154.051 144.559 154.601 146.876C155.726 151.609 154.318 155.267 148.851 154.417C147.276 154.176 145.193 152.192 144.509 150.867C146.309 150.917 147.068 151.101 148.509 149.967C150.951 148.042 151.976 145.042 150.909 142.067L150.901 142.076Z" fill="#97E03A"/>
<path d="M140.501 163.659C141.143 162.525 142.568 162.575 143.568 161.825C145.451 160.425 145.043 157.025 144.301 155.059C144.726 155.125 146.026 156.192 146.759 156.492C147.984 157 150.101 157.059 150.451 158.6C151.526 163.325 144.118 168.067 140.501 163.659Z" fill="#97E03A"/>
<path d="M150.901 142.075C151.976 145.042 150.943 148.05 148.501 149.975C147.059 151.109 146.301 150.925 144.501 150.875C143.401 148.759 143.718 145.175 145.218 143.3C146.443 141.767 149.126 141.5 150.893 142.084L150.901 142.075Z" fill="#C3EE79"/>
<path d="M30.7763 181.45C31.1513 180.567 30.3596 179.95 30.1179 179.209C29.1096 176.159 28.5429 172.842 28.1763 169.659C29.5846 170.334 31.8429 170.684 33.3679 171.359C33.6929 171.5 34.4596 171.809 34.5263 172.175C34.3263 173.617 34.3263 175.075 34.1429 176.525C34.0179 177.475 33.5929 180.509 33.2179 181.2C32.7346 182.075 31.4763 181.575 30.7763 181.45Z" fill="#A87A58"/>
<path d="M83.743 199.034C83.2597 201.359 82.3763 203.617 82.343 206.025C79.8763 206.117 77.843 204.984 76.4597 203.009C75.468 201.584 75.2347 200.884 76.068 199.217L83.743 199.034Z" fill="#7D543C"/>
<path d="M32.7761 184.05L31.5761 190.842C27.6095 190.117 25.3928 185.667 24.5845 182.05C27.3928 182.584 29.7761 184.467 32.7761 184.05Z" fill="#C2EC78"/>
<path d="M141.301 167.659C142.726 168.175 144.81 168.15 146.293 167.867C147.893 172.009 140.585 178.342 137.31 174.859C137.685 174.117 138.66 174.234 139.218 173.867C140.601 172.959 141.643 169.275 141.31 167.659H141.301Z" fill="#96DF39"/>
<path d="M144.301 155.067C145.043 157.026 145.451 160.426 143.568 161.834C142.568 162.576 141.143 162.534 140.501 163.667C139.543 162.501 138.993 161.359 139.101 159.776C139.268 157.317 141.718 154.651 144.301 155.076V155.067Z" fill="#C3EE79"/>
<path d="M141.301 167.659C141.634 169.276 140.593 172.959 139.209 173.867C138.651 174.234 137.676 174.117 137.301 174.859C134.651 172.042 135.643 167.942 138.601 165.859C138.884 165.859 140.684 167.442 141.301 167.667V167.659Z" fill="#C3EE79"/>
<path d="M126.318 151.667C126.976 150.634 128.351 150.775 129.31 150.159C130.376 149.475 132.26 146.775 132.468 145.525C132.676 144.275 132.16 142.767 132.918 141.675C134.293 143.525 134.935 145.142 134.693 147.55C134.293 151.459 129.56 154.409 126.326 151.675L126.318 151.667Z" fill="#96DF39"/>
<path d="M128.109 155.067C128.143 157.792 128.184 160.584 127.359 163.217C127.284 163.459 127.209 164.059 126.909 164.059C125.551 161.092 125.109 157.859 125.909 154.667L128.109 155.067Z" fill="#C2EC78"/>
<path d="M137.309 178.051C137.693 178.467 138.051 179.501 138.509 179.951C139.243 180.667 140.626 181.109 140.909 182.451C139.051 182.217 137.651 182.134 135.809 181.459C132.901 180.401 135.093 178.909 135.518 176.859C136.009 177.301 136.901 177.601 137.318 178.059L137.309 178.051Z" fill="#BFA087"/>
<path d="M192.868 46.7421C191.726 46.5421 187.843 49.4671 186.868 50.3421C185.701 48.7588 182.184 52.0171 181.268 52.8338C178.351 55.4338 171.184 63.5338 170.276 67.1255C169.826 67.0255 169.851 67.3755 169.684 67.6171C166.826 71.7088 163.609 78.4088 163.276 83.4005C162.909 88.8171 164.543 94.6255 164.093 99.8088C163.926 101.667 162.568 102.659 163.084 104.3C155.268 115.067 149.393 126.509 146.284 139.559C142.901 140.659 141.151 144.842 141.293 148.175C141.359 149.75 142.034 151.142 142.284 152.65C137.634 153.9 135.184 159.15 137.309 163.534C135.176 164.992 133.101 168.275 133.159 170.892C133.184 171.934 133.943 173.659 133.901 174.334C133.859 174.934 132.326 177.684 132.018 178.65C129.659 185.925 131.484 193.6 130.018 201.234C128.626 208.467 123.451 218.075 118.801 223.792C117.418 225.5 115.501 226.942 113.526 227.909C115.268 223.617 117.101 219.359 118.259 214.859C119.593 209.7 120.876 201.592 120.084 196.359C119.343 191.459 116.893 190 118.418 184.434C119.301 181.209 121.218 179.934 123.109 177.534C126.293 173.517 129.968 164.834 130.509 159.75C130.668 158.259 130.659 156.575 130.718 155.067C136.126 153.875 138.476 148.575 136.851 143.417C136.651 142.775 135.809 141.625 135.943 141.009C138.993 136.375 140.951 131.109 142.851 125.917C148.526 110.442 151.751 94.3505 155.668 78.3755C158.459 66.9838 162.651 57.6505 169.318 48.0588C174.626 40.4338 186.543 26.7171 196.943 28.1505C197.926 28.2838 200.693 29.8171 200.826 30.8838C200.868 31.2088 200.251 33.2255 200.068 33.6338C198.993 36.1171 196.459 37.0671 194.759 38.9171C192.959 40.8838 191.501 44.1755 192.859 46.7171L192.868 46.7421Z" fill="#94664B"/>
<path d="M186.876 50.334C186.984 50.484 187.093 51.184 187.076 51.409C186.968 52.4924 186.151 52.259 185.501 52.6507C181.276 55.1424 174.226 62.9757 172.701 67.634C172.334 68.7507 172.734 70.309 170.984 70.1424C169.676 70.0174 170.068 68.0174 170.293 67.1257C171.201 63.534 178.368 55.434 181.284 52.834C182.201 52.0174 185.718 48.7507 186.884 50.3424L186.876 50.334Z" fill="#030201"/>
<path d="M93.9343 131.084C94.7426 132.775 93.0676 134.167 91.7343 132.684C90.8009 131.642 89.6843 129.425 88.6176 128.109C79.2509 116.55 59.1509 112.092 46.1593 119.792C44.0676 121.034 41.2093 123.792 40.1926 126.017C39.7093 127.067 39.6593 129.367 37.9176 128.859C36.1759 128.35 37.5343 125.509 38.0676 124.492C45.1593 111.109 68.2759 111.309 79.9509 117.8C84.6426 120.409 91.6176 126.209 93.9343 131.092V131.084Z" fill="#030402"/>
<path d="M54.7013 109.234C53.5763 110.259 51.9763 109.184 52.5179 107.75C52.9013 106.742 56.2429 102.609 57.2763 102.5C58.3096 102.392 59.0429 103.25 58.6096 104.242C58.3846 104.759 56.4429 106.584 55.8763 107.309C55.4763 107.817 55.0513 108.9 54.7013 109.225V109.234Z" fill="#060703"/>
<path d="M65.1012 102.342C66.4929 101.934 66.4512 102.834 66.9595 103.401C67.7179 104.267 71.1512 107.184 68.9595 108.192C67.5179 108.851 67.0595 107.192 66.3595 106.401C65.5095 105.442 64.0929 104.684 64.3679 103.209C64.4262 102.876 64.7762 102.434 65.1095 102.342H65.1012Z" fill="#060703"/>
<path d="M97.2926 63.9837C114.693 62.4337 126.534 81.4004 117.551 96.4337C109.634 109.684 90.1926 110.184 81.5342 97.4087C72.3842 83.9004 81.1009 65.4337 97.2926 63.9837ZM116.518 92.5087C123.093 75.7671 105.143 60.2671 89.5426 69.3254C89.4426 69.7921 89.6009 69.6421 89.8009 69.7671C97.5842 74.7754 105.784 81.0421 112.134 87.8004C113.359 89.1004 114.476 90.7171 115.718 92.0087C115.943 92.2421 116.151 92.5671 116.518 92.5004V92.5087ZM86.9009 73.1754C86.4926 73.1921 85.6009 73.2587 85.2509 73.3171C84.2926 73.5004 82.4676 77.1337 82.0509 78.1171C80.2009 82.5254 80.0759 87.4671 81.7926 91.9504C82.6342 94.1587 83.2676 95.1337 85.6926 95.6504C93.1342 97.2421 98.6926 92.5087 98.7176 84.9837C98.7342 79.7087 92.2342 72.9421 86.9009 73.1754ZM85.9426 98.3087C93.9509 107.092 109.209 105.325 115.093 95.0421C110.859 89.8171 106.268 84.7921 100.734 80.9171C101.868 85.7504 101.151 90.7004 97.8342 94.5087C94.5176 98.3171 90.7676 99.0171 85.9426 98.3087Z" fill="#030303"/>
<path d="M26.9346 65.9756C45.3596 65.384 56.2763 87.234 44.068 101.301C30.443 117.001 4.93461 106.367 6.39295 85.809C7.14295 75.209 16.2596 66.3173 26.9346 65.9756ZM9.19295 85.009C9.04295 86.4923 9.30128 88.1923 9.19295 89.709C9.58462 89.734 9.85961 89.3923 10.1679 89.184C11.5513 88.2506 12.8596 87.034 14.243 86.0673C21.8846 80.7256 30.3513 76.7506 38.5763 72.4173C38.5763 71.8673 35.5513 70.459 34.9763 70.2256C23.8846 65.6923 10.4263 72.884 9.19295 85.009ZM42.7096 77.1756C41.593 76.3506 39.7096 76.0173 38.2929 76.1423C35.5096 76.384 31.5763 80.0006 30.4763 82.5173C27.2013 90.0256 30.4013 97.284 38.893 98.0756C42.243 98.3923 43.518 97.9256 44.8596 94.8923C46.9513 90.1673 47.2346 80.4923 42.7096 77.1756ZM40.768 100.701C31.8846 101.109 25.2346 94.534 26.8679 85.5006C27.2096 83.6256 28.1013 81.909 28.6763 80.1173C24.468 82.4256 20.2263 84.7506 16.318 87.5423C14.143 89.1006 12.1846 90.9673 9.96795 92.434C13.0846 105.959 31.2013 110.742 40.7596 100.701H40.768Z" fill="#030303"/>
<path d="M60.3593 169.859C60.3926 169.576 60.0843 169.159 60.1926 168.609C60.2343 168.392 61.126 167.176 61.3593 166.859C63.6343 163.751 68.1926 157.467 68.676 153.676C68.7926 152.759 68.126 151.476 69.676 151.276C73.0426 150.851 70.226 156.392 69.5926 157.801C68.2426 160.792 66.176 164.401 64.2843 167.084C63.4093 168.334 62.101 170.817 60.3593 169.859Z" fill="#040404"/>
<path d="M52.1092 147.301C53.8842 146.976 53.3342 148.742 53.4509 149.476C53.6842 151.001 54.3009 154.559 54.8592 155.859C55.1425 156.509 56.7342 158.109 55.0175 158.617C53.4842 159.067 52.8259 157.442 52.4592 156.259C52.0509 154.967 50.9759 150.376 50.9509 149.159C50.9342 148.376 51.2259 147.451 52.1092 147.292V147.301Z" fill="#060703"/>
<path d="M166.034 90.659C165.284 91.459 163.943 90.8506 163.909 89.8173C163.876 88.6756 165.451 85.1256 166.051 83.984C167.334 81.534 171.618 75.8006 174.001 74.5506C175.334 73.8506 176.518 75.184 175.759 76.309C175.459 76.7506 174.701 77.0173 174.268 77.4173C171.584 79.8756 169.134 82.609 167.643 85.9756C167.276 86.8006 166.251 90.4173 166.026 90.659H166.034Z" fill="#030201"/>
<path d="M86.9011 73.1753C92.2344 72.942 98.7261 79.7086 98.7178 84.9836C98.7011 92.5086 93.1428 97.242 85.6928 95.6503C83.2678 95.1336 82.6344 94.1586 81.7928 91.9503C80.0761 87.4586 80.2011 82.5253 82.0511 78.117C82.4678 77.1336 84.2844 73.5003 85.2511 73.317C85.6011 73.2503 86.5011 73.192 86.9011 73.1753Z" fill="#1A547C"/>
<path d="M116.518 92.5086C116.143 92.5669 115.943 92.2503 115.718 92.0169C114.468 90.7336 113.351 89.1086 112.134 87.8086C105.784 81.0503 97.5843 74.7753 89.801 69.7753C89.6093 69.6503 89.4427 69.7919 89.5427 69.3336C105.143 60.2669 123.101 75.7753 116.518 92.5169V92.5086Z" fill="#96DF39"/>
<path d="M85.9429 98.3087C90.7679 99.017 94.5929 98.2337 97.8345 94.5087C101.076 90.7837 101.868 85.7503 100.735 80.917C106.268 84.792 110.851 89.817 115.093 95.042C109.21 105.325 93.9512 107.092 85.9429 98.3087Z" fill="#EDFCF7"/>
<path d="M40.7677 100.701C31.2011 110.742 13.0927 105.959 9.97607 92.4339C12.1927 90.9672 14.1427 89.1005 16.3261 87.5422C20.2344 84.7422 24.4761 82.4172 28.6844 80.1172C28.1011 81.9005 27.2094 83.6255 26.8761 85.5005C25.2511 94.5339 31.8927 101.117 40.7761 100.701H40.7677Z" fill="#EEFCF8"/>
<path d="M42.7094 77.1756C47.2427 80.4923 46.9594 90.1673 44.8594 94.8923C43.5177 97.9256 42.2511 98.3839 38.8927 98.0756C30.4011 97.2756 27.2011 90.0173 30.4761 82.5173C31.5761 80.0089 35.5094 76.3923 38.2927 76.1423C39.7094 76.0173 41.5844 76.3589 42.7094 77.1756Z" fill="#1A547C"/>
<path d="M9.19269 85.009C10.426 72.884 23.876 65.6924 34.976 70.2257C35.551 70.459 38.576 71.8674 38.576 72.4174C30.351 76.7507 21.8927 80.7257 14.2427 86.0674C12.851 87.034 11.5427 88.2507 10.1677 89.184C9.85936 89.3924 9.58436 89.734 9.19269 89.709C9.30102 88.2007 9.04269 86.5007 9.19269 85.009Z" fill="#96DF39"/>
</svg>
