<svg width="360" height="360" viewBox="0 0 360 360" fill="none" xmlns="http://www.w3.org/2000/svg">
<path d="M164.77 298.48C164.46 300.77 162.24 304.1 161.93 305.98C161.81 306.71 162.28 307.75 162.11 308.78C161.84 310.51 160.21 310.53 161.64 312.63C161.79 312.84 163.17 314.23 163.33 314.3C163.61 314.43 166.24 314.88 166.59 314.88C167.64 314.88 169.6 314.08 170.91 313.97C172.36 313.85 174.17 313.86 175.55 314.3C178.06 315.09 184.97 321.18 185.52 323.76C186.11 326.54 184.59 327.79 182.15 328.57C179.48 329.43 177.48 328.68 175.01 329.1C171.32 329.73 167.49 332.42 163.66 333.34C158 334.7 152.09 332.95 147.32 329.81C145.59 328.67 144.15 326.15 143.41 324.25C140.53 326.42 136.92 328.44 133.6 325.79C130.53 323.33 130.2 318.28 133.6 315.99C134.29 315.52 136.31 315.23 135.14 314.17C134.42 313.51 132.41 314.98 131.48 315.31C129.61 315.99 128.1 316.22 126.13 315.74C123.6 315.13 120.56 311.73 120.89 309.03C120.96 308.42 121.77 307.11 121.56 306.76C118.22 304.81 113.06 299.79 113.69 295.59C113.86 294.44 116.82 289.04 116.06 288.27C115.06 288.31 114.22 287.72 113.4 287.21C108.97 284.49 106 278.28 105.71 273.2C100.86 271.13 99.5201 266.44 98.6401 261.69C96.2001 248.63 97.0001 232.3 101.75 219.85C103.05 216.43 104.97 213.22 106.15 209.83C105.72 208.21 104.86 206.74 104.33 205.16C102.97 201.14 101.94 196.78 101.42 192.6C80.0301 184.8 72.5401 157.81 86.7301 139.83C95.1101 129.21 109.22 124.51 122.29 128.52C123.2 126.29 125.22 124.96 127.01 123.5C126.98 122.58 126.4 121.99 126.37 120.98C126.26 116.36 130.66 112.85 134.46 111.06C139.87 108.51 146.01 107.99 151.7 106.48C152.35 97.26 150.8 88.14 149.34 79.08C148.07 71.22 144.28 62.91 153.98 58.86C163.68 54.81 185.7 56.1 195.39 61.09C212.39 69.84 199.85 81.35 196.3 93.03C195.3 96.31 193.72 103.81 194.02 107.07C194.05 107.39 194.11 107.7 194.24 107.99C198.91 109.32 203.66 111.06 208.02 113.21C214.37 116.35 219.84 122.03 213.45 128.52C221.78 132.64 227.98 140.62 230.41 149.58C232.21 156.23 231.94 162.18 230.06 168.76C229.81 169.63 228.85 171.47 229.16 172.16C230.44 173.52 231.52 175.1 232.75 176.49C235.21 179.27 238.47 182.62 241.39 184.88C244.93 187.61 249.06 189.1 252.89 191.36C253.21 191.29 254.42 186.67 254.63 185.89C257.96 173.54 260.51 161 263.64 148.61C266.99 135.33 272.13 123.84 279.93 112.61C287.01 102.41 302.3 85.2 316.16 87.08C317.39 87.25 321.22 89.17 322.11 90C322.81 90.66 323.53 92.65 323.56 93.61C323.59 94.65 322.49 97.75 321.96 98.75C319.56 103.28 312.99 104.71 313.5 110.49C316.81 111.55 320.63 111.13 321.97 115.09C323.14 118.55 319.39 123.97 317.18 126.6C314.8 129.44 305.73 135.39 305.12 138.28C304.31 142.14 308.64 141.13 309.73 144.11C311.7 149.46 307.01 154.76 303.38 158.14C299.75 161.52 295.34 163.65 291.51 166.9C285.84 171.71 279.95 179.86 275.6 186.01C272.58 190.28 269.83 194.76 267.42 199.4C268.89 200.83 270.48 202.29 271.84 203.83C285.38 219.11 287.85 238.92 279.5 257.55C276.44 264.39 270.69 270.52 264.5 274.69C263.57 275.32 261.83 275.89 261.39 276.85C260.07 279.68 260.8 285.8 262.16 288.58C263.05 290.39 264.69 291.68 264.78 293.89C265.15 302.63 255.07 309.01 247.73 311.16C245.11 311.93 240.64 312.91 237.99 313.17C237.1 313.26 233.32 312.68 233.1 312.82C231.32 316.01 229.39 319.16 227.35 322.2C224.95 325.76 223.63 327.92 220.12 330.56C218.4 331.86 214.19 334.93 211.99 333.94C209.79 332.95 212.57 329.26 213.23 327.75C213.58 326.95 215.59 322.11 215.57 321.7C215.53 320.92 212.28 317.47 211.51 318.23C211.56 322.06 214.14 323.19 212.58 327.34C209.04 336.79 192.62 331.76 196.28 321.84C197.27 319.16 201.41 318.26 202.15 315.36C200.3 314.47 197.44 314.89 195.83 316.11C194.68 316.98 194.33 318.33 192.41 319.17C188.54 320.85 184.3 317.9 184.9 313.58C185.09 312.23 186.73 309.81 187.91 309.15C189.68 308.16 192.21 309.74 193.51 307.68C184.92 308.45 180.22 300.71 173.82 296.79C171.38 295.29 167.53 294.53 164.73 294.97C164.63 296.07 164.87 297.38 164.73 298.45L164.77 298.48ZM179.16 60.2C172.45 59.42 164.8 58.91 158.24 60.75C153.54 62.07 150.14 63.81 150.65 69.41C151 73.3 152.36 77.93 152.99 81.94C154.06 88.83 155.16 96.07 154.93 103.01C154.89 104.09 154.97 105.18 154.94 106.26C162.89 104.96 170.91 104.65 178.92 105.54C183.04 106 187.04 106.99 191.15 107.46C190.71 106.03 190.99 104.51 191.18 103.06C191.83 98.21 193.03 92.6 194.94 88.12C198.86 78.94 206.44 70.66 194.15 64.05C189.72 61.67 184.08 60.79 179.15 60.22L179.16 60.2ZM310.83 112.49C309.14 109.32 311.05 105.28 313.34 102.89C315.36 100.78 318.21 99.72 319.47 96.79C319.89 95.81 320.62 93.67 320.13 92.75C319.79 92.12 316.54 90.32 315.72 90.2C306.47 88.92 294.03 99.44 288.53 106.14C277.59 119.44 270.29 133.7 266.19 150.47C261.5 169.64 257.62 188.95 250.81 207.52C248.53 213.75 246.18 220.07 242.52 225.63C242.36 226.36 243.36 227.75 243.61 228.52C245.63 234.67 242.7 241.1 236.25 242.5C236.21 244.33 236.19 246.31 236 248.12C235.34 254.23 230.95 264.64 227.12 269.46C224.84 272.33 222.54 273.87 221.49 277.74C219.67 284.42 222.6 286.17 223.49 292.05C224.44 298.33 222.9 308.06 221.3 314.25C219.91 319.65 217.72 324.77 215.62 329.91C217.98 328.75 220.3 327.02 221.95 324.97C227.51 318.08 233.74 306.58 235.41 297.9C237.19 288.65 234.92 279.19 237.91 270.42C238.28 269.33 240.02 266.37 240.07 265.62C240.12 264.81 239.21 262.74 239.18 261.49C239.11 258.35 241.6 254.41 244.16 252.66C241.56 247.46 244.6 241.01 250.13 239.6C249.82 237.79 249.01 236.11 248.93 234.22C248.75 230.22 250.85 225.2 254.92 223.88C258.65 208.2 265.68 194.5 275.08 181.57C279.54 175.44 284.51 168.7 290.32 163.83C293.86 160.86 297.85 158.94 301.23 155.79C303.7 153.49 307.91 149.25 306.88 145.57C306.75 145.1 304.36 143.99 303.62 143.32C297.21 137.42 308.2 130.69 312.02 127.25C314.24 125.25 316.26 122.86 317.73 120.25C321.45 113.62 316.53 115.27 312.67 113.65C312.11 113.42 311.09 112.55 310.82 112.5L310.83 112.49ZM160.65 129C162.17 126.4 165.54 124.33 168.21 123C175.9 119.13 184.65 120.19 191.53 125.19C196.25 124.45 200.91 124.53 205.59 125.51C207.77 125.96 209.93 127.44 212.03 125.57C215.52 122.45 211.04 118.35 208.34 116.76C197.17 110.21 178.21 107.26 165.37 107.93C157.73 108.33 138.55 110.96 132.75 115.61C130.98 117.03 128.73 119.43 129.86 121.84C133.48 120.05 138.26 119.99 142.08 121.14C146.13 122.36 149.3 125.9 152.05 128.93C154.93 128.87 157.81 128.24 160.64 129.01L160.65 129ZM187.79 126.16C183.33 124.02 177.75 122.96 172.92 124.36C170.06 125.19 165.32 127.92 163.46 130.25C162.87 130.99 163.02 131.9 161.84 132.24C160.92 132.5 158.93 131.73 157.7 131.66C155.63 131.54 153.43 132.28 151.7 132.17C150.27 132.08 147.13 128.11 145.82 126.99C140.12 122.14 132.71 122.29 127.11 127.23C126.77 127.53 124.84 129.36 125.19 129.75C134.93 133.18 142.67 142.33 145.1 152.3C146.56 151.83 147.73 150.77 149.18 150.27C154.82 148.31 160.14 149.36 165.48 151.58C167.18 142.53 172.86 134.51 180.61 129.65L187.78 126.16H187.79ZM194.94 128.15C184.8 129.05 175.11 136.19 170.89 145.36C169.7 147.94 169.42 150.41 168.53 152.84C167.13 156.66 163.57 153.88 160.93 153.15C156.44 151.9 150.28 151.84 146.55 155.09C145.44 156.06 144.6 158.32 142.74 156.47C138.71 129.69 103.63 120.66 88.0601 143.61C70.3401 169.72 99.4101 202.99 127.27 187.86C136.48 182.86 139.08 176.76 142.39 167.48C145.7 158.2 161.83 157.2 167.65 163.22C169.06 164.68 170.07 169.94 171.27 172.31C182.66 194.94 215.51 194.41 225.65 171.11C235.03 149.57 218.38 126.09 194.94 128.16V128.15ZM204.1 191.87C185.81 195.14 168.89 182.54 165.12 164.77C160.34 161.7 149.6 161.76 146.17 166.67C145.45 167.7 145.25 169.94 144.79 171.29C138.96 188.46 122.45 197.95 104.57 193.79C105.81 199.86 107.4 206.25 110.52 211.7C111.72 213.79 113.39 216.24 115.24 217.77C116.22 218.58 117.99 219.31 118.71 220.29C119.32 221.12 119.26 221.91 119.62 222.74C120.67 225.14 125.33 226.78 127.8 225.9C127.72 222.57 127.93 219.3 128.62 216.04C128.96 214.44 129.5 210.56 131.73 210.86C133.96 211.16 139.05 218.4 139.69 218.25C142.6 214.5 145.19 210.27 148.22 206.63C149.32 205.31 150.9 202.89 152.78 203.49C153.48 203.71 155.81 207.39 156.37 208.29C159.1 212.64 161.13 217.39 163.68 221.84C166.61 219.11 169.75 216.55 172.44 213.58C173.46 212.46 175.49 208.37 177.24 210.51C178.9 212.53 179 218.27 179.15 220.89C179.3 223.51 179.48 226.44 179.4 228.94C179.38 229.58 179.21 230.11 179.15 230.73C179.5 231.06 183.52 229.73 184.25 229.47C185.58 229 188.69 227.29 189.65 227.18C190.45 227.09 190.98 227.56 191.74 227.62C196.23 227.98 199.56 225.89 201.79 222.08C202.2 221.38 202.15 220.74 202.77 219.94C203.95 218.43 206.59 216.77 208.06 215.15C212.4 210.37 214.6 204.34 215.97 198.12C216.82 194.25 217.53 190.35 217.28 186.37C213.3 188.94 208.79 191.05 204.09 191.89L204.1 191.87ZM206.02 306.76C207.47 307.49 211.72 309.85 213.11 310.11C214.8 310.43 217.27 309.89 219.06 310.13C219.31 310.07 219.34 309.67 219.39 309.46C220.55 304.77 221.13 295.58 220.06 290.93C219.51 288.54 217.96 285.95 217.77 283.63C217.51 280.34 218.43 275.88 220.13 273.02C221.75 270.3 224.34 268.36 225.94 265.63C218.1 259.21 215.39 250.46 216.11 240.45C216.93 228.92 223.66 220.21 233.39 214.56C236.61 212.7 241.65 211.85 245.26 212.73L245.72 212.51L252.04 194.66C251.87 193.96 243.67 190.19 242.4 189.43C239.52 187.71 236.76 184.94 234.31 182.65L227.48 175.09C225.46 178.29 223.16 181.26 220.44 183.89C220.87 185.04 220.44 185.9 220.39 186.95C220.33 188.69 220.64 190.55 220.15 192.22L228.56 197.5C229.73 198.74 228.85 200.59 227.11 200.17C225.94 199.88 220.15 195.06 219.68 195.48C218.39 203.43 215.82 211.57 210.21 217.55C209.05 218.78 206.04 220.86 205.29 221.98C204.32 223.42 203.81 225.17 202.42 226.66C200.68 228.52 197.18 230.52 194.63 230.75C193.04 230.89 191.18 230.42 189.85 230.51C189.47 230.53 187.35 231.4 187.29 231.62C188.13 239.3 188.83 247.1 188.75 254.86C188.68 261.71 188.09 268.66 187.54 275.47C187.08 281.09 186.53 283.33 188.94 288.71C192.84 297.4 197.51 302.5 206.01 306.78L206.02 306.76ZM274.13 261.42C280.78 250.16 283.44 236.03 279.48 223.34C276.91 215.11 273.3 209.87 267.43 203.73C267.16 203.45 266.05 202.2 265.75 202.42C263.76 207.16 261.62 211.91 260.16 216.86C259.52 219.02 258.94 219.62 260.87 221.08C263.57 223.13 265.71 223.38 268.14 226.28C275.3 234.85 277.28 245.57 275.27 256.42C274.98 258 274.49 259.25 274.07 260.74C274.01 260.97 273.67 261.46 274.14 261.41L274.13 261.42ZM150.86 208.42C147.86 211.79 144.81 216.14 142.36 219.95C141.61 221.11 141.38 222.95 139.7 222.83C138.61 222.75 137.57 220.75 136.83 219.93C135.31 218.23 133.71 216.57 132.15 214.9C129.73 224.03 131.2 234.96 134.3 243.8C137.4 252.64 144.3 259.64 143.41 270.17C142.67 278.98 137.2 284.75 140.66 294.28C141.37 296.22 144.85 301.52 146.6 302.49C148.45 303.51 150.05 302.58 150.34 305.71C150.67 309.23 147.66 312.29 146.24 315.22C144.47 318.89 146.03 325.15 149.48 327.43C152.61 329.5 157.39 331.14 161.16 330.74C165.46 330.28 169.89 326.9 174.1 326.05C176.8 325.5 180.17 326.78 182.48 324.84C182.53 324.64 182.21 323.86 182.08 323.62C181.73 322.97 177.47 319.14 176.63 318.52C171.69 314.82 165.91 319.97 161.29 316.59C152.77 310.37 162.47 302.32 161.58 294.95C160.94 289.65 156.01 286.08 153.43 281.99C150.36 277.13 155.48 270.67 159.27 267.8C162.46 265.38 167.13 264.86 167.64 259.86C168.19 254.48 165.12 251.32 168.64 245.75C169.66 244.14 171.25 243.24 172.24 241.68C175.93 235.89 176.5 229.37 176.28 222.67C176.21 220.65 176.12 217.13 175.79 215.24C175.74 214.96 175.66 214.81 175.43 214.65L165.35 224.24C164.92 225.16 166.09 225.98 166.32 226.87C166.87 229.02 165.55 230.11 163.82 228.65C159.8 221.55 156.63 213.98 152.04 207.21C151.85 207.08 151.01 208.22 150.84 208.41L150.86 208.42ZM112.72 255.91C113.38 256.24 114.03 256.84 114.88 257.23C116.77 258.08 118.93 258.55 120.87 259.27C120.78 256.28 121 253.26 120.87 250.28C120.52 242.24 119.42 231.37 116.19 224.02C115.6 222.68 115.4 222 114.39 221.14C113.3 220.21 112.28 219.17 111.28 218.14L107.92 213.47C107.1 215.69 105.85 217.74 104.93 219.95C102.43 225.94 100.18 236.12 100 242.6C99.8201 249.08 107.56 253.34 112.72 255.92V255.91ZM244.39 215.62C241.7 215.08 237.74 215.65 235.3 216.95C223.04 223.47 216.96 235.94 219.51 249.73C220.47 254.93 223.86 259.45 227.48 263.1L230.24 256.52C227.72 252.75 226.74 248.33 227.12 243.8C227.21 242.7 227.96 240.67 227.84 239.74C227.77 239.19 226.53 237.35 226.27 236.26C225.35 232.36 225.97 228.65 228.55 225.57C231.13 222.49 234.37 220.6 238.28 221.84C239.01 222.07 239.85 222.53 240.43 223.05C241.26 222.29 244.73 216.13 244.38 215.63L244.39 215.62ZM231.21 238.64C235.21 241.43 240.55 238.1 241.01 233.45C241.29 230.61 240.5 228.59 238.88 226.4C238.75 226.22 238.79 225.9 238.42 225.55C237.22 224.42 235.79 224.98 234.26 224.77C232.18 225.66 229.38 228.57 229.06 230.86C228.71 233.43 228.89 237.03 231.2 238.63L231.21 238.64ZM252.79 237.44C253.68 239.05 256.05 241.39 258 241.7C264.56 242.73 266.23 238.31 264.9 232.64C264.3 230.06 263.2 227.62 260.46 226.89C258.43 226.35 255 226.49 253.64 228.34C251.96 230.63 251.39 234.92 252.78 237.44H252.79ZM128.08 229.29C125.44 229.51 123 229.03 120.65 227.85C121.84 232.78 122.81 237.79 123.28 242.84C124.77 258.6 123.21 276.24 118.61 291.4C118.21 292.73 116.8 295.48 116.79 296.55C116.77 299.49 122.26 303.88 124.65 305.26C128.94 307.74 131.67 307.56 136.29 305.96C138.36 305.24 140.46 304.08 142.21 302.76C140.95 300.31 139.08 298.56 138.03 295.95C133.15 283.77 141.6 276.52 140.24 265.2C139.55 259.49 134.33 252.36 132.15 246.91C129.97 241.46 128.76 235.1 128.08 229.27V229.29ZM248.47 275.34C254.07 276.05 256.84 275.4 261.82 272.74C266.51 270.24 267.84 268.03 269.86 263.27C272.78 256.38 273.87 248.65 272.39 241.23C271.68 237.69 269.6 234.69 268.13 231.45C267.69 231.4 267.92 231.96 267.96 232.22C268.2 234.01 268.55 235.42 268.38 237.33C268.12 240.34 265.95 244.35 262.61 244.64C264.18 249.31 262.01 253.93 257.92 256.39C260.26 263.92 251.59 272.51 244.14 270.06C243.64 269.51 242.58 269.15 241.98 268.62C241.54 271.09 238.77 272.85 242.33 274.14C244.55 274.95 246.22 275.05 248.45 275.33L248.47 275.34ZM184.44 232.64L178.73 233.89C177.47 237.32 176.26 241.93 173.88 244.75C173.3 245.43 172.53 245.87 172.01 246.47C167.29 251.86 173.33 258.45 169.29 264.38C166.81 268.02 163.62 268.24 160.69 270.65C160.03 271.19 156.26 275.29 156.62 275.81C157.6 276.01 158.63 276.18 159.62 276.29C166.1 277.03 175.78 277.81 182.17 277.26C182.58 277.22 183.9 277.07 184.09 276.79C184.21 274.08 184.9 271.43 185.15 268.74C185.92 260.67 185.75 252.34 185.39 244.28C185.22 240.37 185.11 236.5 184.43 232.65L184.44 232.64ZM233.12 242.48L230.49 242C229.53 245.83 230.06 249.71 231.69 253.27C232.07 253.22 232.19 252.39 232.29 252.07C233.16 248.99 233.17 245.66 233.13 242.48H233.12ZM247.99 252.79C249.33 254.46 251.15 255.37 253.38 254.94C253.5 254.92 255.48 254.17 255.65 254.09C257.78 253.08 259.83 250.81 260 248.36C260.25 244.7 258.01 245.22 255.51 244.2C254.63 243.84 253.07 242.56 252.56 242.48C249.49 241.98 246.52 245.22 246.32 248.12C246.19 249.99 246.9 251.41 248 252.79H247.99ZM116.32 274.14C117.22 274.3 118.69 274.88 119.25 273.84C119.7 273.02 120.21 269.37 120.36 268.23C120.58 266.49 120.58 264.74 120.82 263.01C120.74 262.57 119.82 262.2 119.43 262.03C117.57 261.21 114.92 260.82 113.2 259.99C110.58 258.71 105.32 255.53 103.12 253.64C102.12 252.78 101.33 251.64 100.25 250.88C100.9 255.68 101.03 264.41 104.09 268.26C106.17 270.88 113.06 273.58 116.32 274.14ZM244.16 266.22C248.09 270.4 256.86 262.8 254.94 257.83C253.16 258.17 250.66 258.21 248.95 257.58C248.14 257.28 246.05 255.31 245.52 255.45C242.24 258.21 240.94 262.8 244.15 266.22H244.16ZM118.72 277.26C115.09 277.79 112.29 275.5 108.89 274.86C109.88 279.21 112.55 284.5 117.28 285.41L118.72 277.26ZM258.07 277.74C257.03 277.92 256.09 278.48 255.05 278.68C251.17 279.41 245.32 278.31 241.57 277.09C240.87 276.86 240.31 276.42 239.6 276.3C239.57 278.11 239.16 280.14 239.11 281.93C238.97 287.24 239.51 291.29 238.6 296.77C237.85 301.29 236.49 305.74 234.56 309.88C235.51 309.68 236.63 310.1 237.49 310.06C239.03 309.99 242.72 309.17 244.39 308.8C250.21 307.54 258.79 303.51 260.95 297.54C261.17 296.93 261.71 294.51 261.65 293.95C261.56 293.02 259.57 290.57 259.05 289.34C257.64 286.01 257.38 281.27 258.06 277.74H258.07ZM183.48 280.13C174.17 280.35 164.89 279.63 155.66 278.69C155.61 279.03 155.68 279.33 155.77 279.65C156.15 280.96 160.27 285.39 161.37 287C162.25 288.3 163.05 289.64 163.61 291.11C167.89 291.4 172.17 291.78 175.83 294.12C180.05 296.81 185.14 302.82 189.7 303.99C191.53 304.46 194.4 304.78 196.18 304.23C195.1 302.91 193.61 301.99 192.46 300.75C188.26 296.23 184.61 287.67 183.49 281.66C183.4 281.17 183.5 280.62 183.47 280.12L183.48 280.13ZM129.75 310.35C129.17 310.33 128.58 310.42 128.01 310.3C127.24 310.13 125.15 308.65 124.59 308.73C123.55 309.47 124.35 310.45 124.96 311.18C126.12 312.57 127.49 313.05 129.29 312.64C129.51 312.59 129.68 312.29 129.75 312.27C131.9 311.63 133.31 310.54 135.63 310.83C138.43 311.17 139.84 316.13 137.9 318.03C136.86 319.05 134.52 317.64 134.52 320.79C134.52 322.88 135.89 323.99 137.9 323.55C139.07 323.29 140.61 322.5 141.15 321.41C141.53 320.64 141.38 320.1 141.6 319.46C141.76 318.98 142.29 318.71 142.4 318.34C142.88 316.69 142.69 313.11 143.86 311.7C144.1 311.41 144.52 311.65 144.79 311.5C145.25 311.24 147.53 306.57 147.15 306.03L144.54 305.11C140.2 307.99 135.08 310.51 129.74 310.35H129.75ZM202.66 308.67C202.29 308.46 201.8 308.37 201.38 308.15C200.85 307.87 199.78 306.89 199.36 306.8C197.85 306.48 196.87 309.09 195.95 310C194.72 311.21 192.83 311.93 191.15 312.17C189.96 312.34 189.5 311.52 188.54 313.14C186.87 315.98 190.4 317.4 192.11 315.51C192.58 314.99 192.59 314.4 193.32 313.84C195.57 312.12 199.97 311.14 202.66 312.03C203.61 312.34 205.27 313.56 205.48 314.6C205.91 316.72 204.57 317.12 204.34 318.5C203.45 318.91 203.06 319.97 202.43 320.55C201.53 321.37 199.53 322.16 199.32 323.43C198.84 326.36 200.65 328.38 203.38 329.05C205.63 329.6 208.38 328.46 209.43 326.34C210.48 324.22 209.04 323.82 208.71 322.4C208.46 321.33 208.27 318.51 208.48 317.47C208.81 315.84 211.27 314.73 212.8 314.95C214.54 315.2 215.48 317.17 216.94 318.01L218.04 314.33C216.93 313.96 215.75 314.09 214.42 313.82C209.34 312.78 206.88 311.1 202.67 308.66L202.66 308.67Z" fill="#030303"/>
<path d="M204.1 191.87C204.31 195.19 202.96 199.12 201.5 202.1C199.31 206.56 195.87 210.53 192.11 213.69C189.35 207.88 180.92 200.82 175.33 197.74C161.28 189.99 133.61 189.67 125.07 205.77C124.43 206.99 122.75 210.39 124.89 211.01C127.03 211.63 127.08 208.75 127.71 207.44C129.23 204.25 132.95 201.09 136.02 199.44C152.09 190.83 175.85 196.95 186.7 211.3C187.6 212.49 188.66 214.68 189.48 215.6C189.5 216.14 189.16 216.24 188.84 216.52C186.31 218.71 182.61 220.88 179.17 220.88C179.02 218.25 178.92 212.52 177.26 210.5C175.5 208.36 173.47 212.45 172.46 213.57C169.76 216.54 166.63 219.11 163.7 221.83C161.15 217.37 159.12 212.63 156.39 208.28C155.83 207.38 153.5 203.7 152.8 203.48C150.92 202.88 149.33 205.3 148.24 206.62C145.21 210.27 142.62 214.49 139.71 218.24C139.07 218.39 133.97 211.15 131.75 210.85C129.53 210.55 128.98 214.43 128.64 216.03C127.95 219.29 127.74 222.56 127.82 225.89C125.35 226.77 120.69 225.12 119.64 222.73C119.28 221.9 119.34 221.11 118.73 220.28C118.01 219.3 116.24 218.57 115.26 217.76C113.4 216.23 111.73 213.78 110.54 211.69C107.42 206.24 105.83 199.85 104.59 193.78C122.47 197.94 138.99 188.45 144.81 171.28C145.27 169.93 145.47 167.69 146.19 166.66C149.62 161.75 160.36 161.68 165.14 164.76C168.91 182.53 185.82 195.13 204.12 191.86L204.1 191.87ZM159.19 179.46C158.49 178.78 156.82 179.13 156.61 180.25C156.24 182.28 159.64 184.33 160.55 186.13C161.25 186.67 162.54 186.33 162.79 185.47C163.34 183.62 160.72 181.62 159.61 180.35C159.4 180.11 159.36 179.64 159.18 179.47L159.19 179.46ZM145.03 187.48C145.45 187.09 145.97 185.79 146.44 185.18C147.12 184.31 149.45 182.12 149.72 181.5C150.45 179.83 148.67 178.82 147.14 179.88C146.18 180.55 142.8 184.66 142.41 185.71C141.76 187.43 143.68 188.72 145.03 187.48Z" fill="#C3EE79"/>
<path d="M202.43 226.65C203.83 225.16 204.34 223.41 205.3 221.97C206.05 220.85 209.07 218.77 210.22 217.54C215.83 211.56 218.4 203.42 219.69 195.47C220.16 195.05 225.95 199.88 227.12 200.16C228.87 200.59 229.74 198.73 228.57 197.49L220.16 192.21C220.65 190.54 220.33 188.68 220.4 186.94C220.44 185.89 220.88 185.02 220.45 183.88C223.17 181.25 225.47 178.28 227.49 175.08L234.32 182.64C236.77 184.93 239.53 187.7 242.41 189.42C243.68 190.18 251.88 193.95 252.05 194.65L245.73 212.5L245.27 212.72C241.66 211.84 236.61 212.69 233.4 214.55C223.66 220.19 216.94 228.9 216.12 240.44C215.41 250.45 218.11 259.2 225.95 265.62C224.36 268.34 221.76 270.28 220.14 273.01C218.44 275.86 217.52 280.32 217.78 283.62C217.96 285.95 219.52 288.53 220.07 290.92C221.14 295.57 220.56 304.76 219.4 309.45C219.35 309.65 219.32 310.06 219.07 310.12C217.28 309.88 214.81 310.42 213.12 310.1C211.73 309.84 207.49 307.48 206.03 306.75C206.22 303.26 206.95 299.79 207.23 296.31C208.57 279.36 207.69 258.57 205.52 241.66C204.87 236.58 203.6 231.61 202.43 226.64V226.65Z" fill="#A87A58"/>
<path d="M194.94 128.15C218.39 126.07 235.03 149.55 225.65 171.1C215.51 194.4 182.66 194.93 171.27 172.3C170.08 169.93 169.07 164.67 167.65 163.21C161.83 157.19 145.54 158.62 142.39 167.47C139.24 176.32 136.48 182.84 127.27 187.85C99.4101 202.98 70.3401 169.71 88.0601 143.6C103.63 120.65 138.72 129.68 142.74 156.46C144.59 158.31 145.43 156.05 146.55 155.08C150.28 151.84 156.44 151.9 160.93 153.14C163.57 153.87 167.14 156.65 168.53 152.83C169.42 150.4 169.7 147.93 170.89 145.35C175.1 136.19 184.8 129.04 194.94 128.14V128.15ZM196.38 133.18C173.56 135.02 164.43 163.75 182.04 178.56C195.85 190.18 217.55 183.8 222.93 166.68C228.4 149.24 214.61 131.71 196.39 133.18H196.38ZM109.56 135.82C95.9801 137.13 86.0801 150.09 87.0701 163.45C88.5601 183.65 113.24 194.41 128.91 181.31C148.71 164.76 135.46 133.33 109.56 135.82Z" fill="#354A65"/>
<path d="M153.02 256.63C152.74 257.01 151.67 258.47 151.62 258.73C151.49 259.39 151.86 259.89 151.82 260.23C151.45 263.37 149.83 266.76 149.06 269.82C147.62 275.57 146.42 284.04 148.74 289.57C151.06 295.1 154.14 297.06 154.47 303.5C154.64 306.69 153.74 311.77 154.89 314.59C157.06 319.9 160.25 319.61 163.68 322.59C166.22 324.79 165.58 327.13 163.07 328.92C162.41 329.39 161.05 329.4 161.17 330.74C157.4 331.14 152.62 329.5 149.49 327.43C146.04 325.15 144.48 318.89 146.25 315.22C147.67 312.28 150.69 309.23 150.35 305.71C150.05 302.59 148.46 303.51 146.61 302.49C144.76 301.47 141.37 296.23 140.67 294.28C137.21 284.76 142.68 278.98 143.42 270.17C144.3 259.63 137.51 252.95 134.31 243.8C131.11 234.65 129.74 224.03 132.16 214.9C133.72 216.57 135.31 218.23 136.84 219.93C137.58 220.76 138.62 222.75 139.71 222.83C141.39 222.95 141.62 221.11 142.37 219.95C144.82 216.14 147.87 211.79 150.87 208.42C152.05 211.88 152.87 215.28 153.47 218.89C154.45 224.85 154.95 231.52 155.2 237.55C155.46 243.89 154.52 250.49 153.03 256.63H153.02ZM141.92 233.16C140.86 233.35 140.5 234.46 140.53 235.4C140.56 236.91 141.94 242.69 142.48 244.26C142.8 245.18 143.28 246.51 144.32 246.74C145.08 246.91 145.63 246.86 146.03 246.16C146.77 244.89 145.65 244.48 145.22 243.43C144.53 241.75 143.82 237.68 143.52 235.77C143.38 234.88 144.05 232.77 141.91 233.16H141.92Z" fill="#D6D2C9"/>
<path d="M206.02 306.76C197.52 302.49 192.85 297.38 188.95 288.69C186.54 283.31 187.09 281.07 187.55 275.45C188.11 268.63 188.69 261.69 188.76 254.84C188.84 247.08 188.14 239.29 187.3 231.6C187.35 231.38 189.47 230.51 189.86 230.49C191.19 230.4 193.05 230.87 194.64 230.73C197.19 230.51 200.69 228.5 202.43 226.64C203.6 231.61 204.87 236.58 205.52 241.66C207.69 258.57 208.57 279.36 207.23 296.31C206.96 299.78 206.23 303.26 206.03 306.75L206.02 306.76Z" fill="#C0A187"/>
<path d="M179.16 60.2C180.36 62.06 181.95 63.15 182.77 65.35C185.66 73.14 180.63 89.33 179.44 98.01C179.1 100.5 178.86 103.02 178.93 105.53C170.91 104.64 162.9 104.95 154.95 106.25C154.98 105.17 154.9 104.08 154.94 103C155.17 96.07 154.07 88.83 153 81.93C152.38 77.92 151.01 73.29 150.66 69.4C150.16 63.81 153.55 62.06 158.25 60.74C164.8 58.9 172.46 59.42 179.17 60.19L179.16 60.2Z" fill="#94664C"/>
<path d="M150.86 208.42C151.03 208.23 151.86 207.09 152.06 207.22C156.65 213.98 159.82 221.55 163.84 228.66C165.56 230.12 166.88 229.03 166.34 226.88C166.11 225.99 164.94 225.17 165.37 224.25L175.45 214.66C175.68 214.83 175.76 214.97 175.81 215.25C176.13 217.14 176.23 220.65 176.3 222.68C176.52 229.37 175.95 235.9 172.26 241.69C171.26 243.25 169.68 244.15 168.66 245.76C165.14 251.33 168.21 254.49 167.66 259.87C167.15 264.86 162.48 265.39 159.29 267.81C155.51 270.68 150.39 277.13 153.45 282C156.03 286.09 160.96 289.66 161.6 294.96C162.49 302.33 152.79 310.38 161.31 316.6C165.93 319.97 171.71 314.83 176.65 318.53C177.48 319.15 181.75 322.98 182.1 323.63C182.23 323.87 182.55 324.65 182.5 324.85C180.19 326.79 176.83 325.51 174.12 326.06C169.91 326.91 165.48 330.3 161.18 330.75C161.06 329.41 162.42 329.4 163.08 328.93C165.6 327.14 166.23 324.8 163.69 322.6C160.25 319.63 157.06 319.92 154.9 314.6C153.75 311.78 154.64 306.7 154.48 303.51C154.14 297.07 151.03 295.03 148.75 289.58C146.47 284.13 147.63 275.58 149.07 269.83C149.84 266.77 151.46 263.38 151.83 260.24C154 261.43 155.74 258.04 156.82 256.48C159.27 252.93 164.14 244.65 164.91 240.59C165.5 237.46 162.52 237.23 161.78 238.91C161.54 239.44 161.9 240.08 161.81 240.82C161.23 245.36 155.76 252.93 153.03 256.64C154.52 250.51 155.46 243.9 155.2 237.56C154.94 231.22 154.46 224.86 153.47 218.9C152.87 215.29 152.05 211.88 150.87 208.43L150.86 208.42Z" fill="#B4AE9F"/>
<path d="M128.08 229.29C128.76 235.11 129.96 241.47 132.15 246.93C134.34 252.39 139.56 259.51 140.24 265.22C141.6 276.54 133.15 283.79 138.03 295.97C139.08 298.59 140.95 300.33 142.21 302.78C140.46 304.1 138.36 305.26 136.29 305.98C131.67 307.58 128.94 307.75 124.65 305.28C122.25 303.9 116.76 299.51 116.79 296.57C116.79 295.49 118.21 292.74 118.61 291.42C123.22 276.26 124.78 258.62 123.28 242.86C122.8 237.8 121.84 232.79 120.65 227.87C123.01 229.05 125.45 229.53 128.08 229.31V229.29Z" fill="#C0A187"/>
<path d="M310.83 112.49C311.1 112.54 312.13 113.4 312.68 113.64C316.54 115.26 321.45 113.62 317.74 120.24C316.27 122.86 314.26 125.24 312.03 127.24C308.21 130.68 297.22 137.41 303.63 143.31C304.36 143.98 306.76 145.1 306.89 145.56C307.92 149.24 303.72 153.47 301.24 155.78C297.86 158.93 293.87 160.85 290.33 163.82C284.52 168.69 279.55 175.43 275.09 181.56C274.47 179.59 276.1 178.4 276.3 176.17C276.84 169.96 274.88 162.99 275.32 156.48C275.72 150.48 279.58 142.45 283.01 137.54C283.22 137.24 283.19 136.83 283.72 136.95C283.45 138.02 282.99 140.42 284.55 140.57C286.63 140.77 286.18 138.91 286.61 137.56C288.39 132.01 296.94 122.54 301.97 119.58C302.76 119.12 303.74 119.39 303.86 118.09C303.89 117.83 303.75 116.95 303.62 116.8C304.79 115.75 309.45 112.25 310.82 112.48L310.83 112.49ZM278.63 165.19C278.9 164.9 280.13 160.56 280.57 159.57C282.41 155.42 285.28 152.36 288.52 149.3C289.09 148.77 289.79 148.62 290.25 147.92C291.2 146.49 289.74 145.04 288.19 145.86C285.34 147.36 280.17 154.25 278.65 157.18C277.96 158.51 276.05 162.88 276.08 164.18C276.11 165.41 277.73 166.15 278.63 165.19Z" fill="#7D543C"/>
<path d="M160.65 129C157.82 128.23 154.94 128.86 152.06 128.92C149.3 125.89 146.14 122.35 142.09 121.13C138.27 119.98 133.49 120.04 129.87 121.83C128.73 119.42 130.98 117.02 132.76 115.6C138.56 110.95 157.74 108.32 165.38 107.92C178.22 107.25 197.18 110.2 208.35 116.75C211.05 118.34 215.53 122.43 212.04 125.56C209.94 127.43 207.78 125.95 205.6 125.5C200.91 124.53 196.26 124.45 191.54 125.18C184.66 120.17 175.91 119.12 168.22 122.99C165.56 124.33 162.19 126.39 160.66 128.99L160.65 129Z" fill="#7D543C"/>
<path d="M187.79 126.16L180.62 129.65C172.87 134.51 167.19 142.53 165.49 151.58C160.15 149.36 154.82 148.31 149.19 150.27C147.74 150.77 146.57 151.84 145.11 152.3C142.68 142.33 134.94 133.18 125.2 129.75C124.85 129.36 126.78 127.53 127.12 127.23C132.73 122.29 140.13 122.14 145.83 126.99C147.14 128.1 150.28 132.08 151.71 132.17C153.44 132.28 155.64 131.54 157.71 131.66C158.93 131.73 160.93 132.5 161.85 132.24C163.03 131.9 162.88 130.99 163.47 130.25C165.33 127.92 170.06 125.19 172.93 124.36C177.76 122.96 183.34 124.02 187.8 126.16H187.79Z" fill="#C3EE79"/>
<path d="M184.44 232.64C185.13 236.49 185.23 240.36 185.4 244.27C185.76 252.34 185.93 260.66 185.16 268.73C184.9 271.42 184.22 274.07 184.1 276.78C183.9 277.06 182.59 277.22 182.18 277.25C175.79 277.8 166.11 277.02 159.63 276.28C158.64 276.17 157.61 276 156.63 275.8C156.28 275.29 160.04 271.19 160.7 270.64C163.62 268.23 166.82 268.01 169.3 264.37C173.33 258.44 167.3 251.85 172.02 246.46C172.55 245.86 173.32 245.42 173.89 244.74C176.27 241.92 177.48 237.31 178.74 233.88L184.45 232.63L184.44 232.64Z" fill="#7D543C"/>
<path d="M179.16 60.2C184.08 60.77 189.73 61.65 194.16 64.03C206.45 70.63 198.87 78.91 194.95 88.1C193.04 92.58 191.84 98.2 191.19 103.04C190.99 104.49 190.72 106.01 191.16 107.44C187.05 106.97 183.05 105.98 178.93 105.52C178.86 103.01 179.1 100.49 179.44 98C180.63 89.32 185.67 73.13 182.77 65.34C181.96 63.15 180.36 62.06 179.16 60.19V60.2Z" fill="#7D553C"/>
<path d="M204.1 191.87C208.8 191.03 213.31 188.92 217.29 186.35C217.54 190.33 216.83 194.24 215.98 198.1C214.61 204.32 212.41 210.35 208.07 215.13C206.6 216.75 203.96 218.4 202.78 219.92C202.16 220.72 202.22 221.36 201.8 222.06C199.57 225.87 196.24 227.96 191.75 227.6C190.98 227.54 190.46 227.07 189.66 227.16C188.7 227.27 185.59 228.99 184.26 229.45C183.53 229.71 179.51 231.03 179.16 230.71C179.22 230.09 179.39 229.56 179.41 228.92C179.48 226.43 179.3 223.39 179.16 220.87C182.6 220.87 186.3 218.7 188.83 216.51C189.15 216.24 189.49 216.13 189.47 215.59C191.07 217.37 193.07 215.71 192.11 213.67C195.87 210.51 199.32 206.54 201.5 202.08C202.96 199.1 204.31 195.16 204.1 191.85V191.87Z" fill="#97E03A"/>
<path d="M258.07 277.74C257.39 281.27 257.66 286 259.06 289.34C259.58 290.58 261.57 293.02 261.66 293.95C261.71 294.51 261.18 296.93 260.96 297.54C258.8 303.51 250.22 307.54 244.4 308.8C242.73 309.16 239.04 309.98 237.5 310.06C236.64 310.1 235.52 309.68 234.57 309.88C236.49 305.74 237.86 301.29 238.61 296.77C239.52 291.28 238.98 287.24 239.12 281.93C239.17 280.15 239.58 278.11 239.61 276.3C240.32 276.42 240.88 276.86 241.58 277.09C245.33 278.31 251.18 279.41 255.06 278.68C256.09 278.49 257.04 277.92 258.08 277.74H258.07Z" fill="#A87A58"/>
<path d="M274.13 261.42C273.67 261.47 274 260.98 274.06 260.75C274.48 259.26 274.97 258.01 275.26 256.43C277.26 245.57 275.29 234.85 268.13 226.29C265.7 223.38 263.56 223.14 260.86 221.09C258.93 219.63 259.51 219.02 260.15 216.87C261.61 211.92 263.75 207.17 265.74 202.43C266.04 202.21 267.16 203.46 267.42 203.74C273.3 209.88 276.9 215.11 279.47 223.35C283.43 236.04 280.77 250.17 274.12 261.43L274.13 261.42Z" fill="#A87A58"/>
<path d="M248.47 275.34C248.13 273.73 246.47 273.21 245.59 272.34C245.04 271.8 244.61 270.56 244.15 270.06C251.6 272.51 260.27 263.92 257.93 256.39C262.02 253.92 264.19 249.31 262.62 244.64C265.96 244.35 268.12 240.34 268.39 237.33C268.56 235.42 268.21 234.01 267.97 232.22C267.93 231.96 267.7 231.39 268.14 231.45C269.6 234.69 271.69 237.68 272.4 241.23C273.88 248.65 272.79 256.38 269.87 263.27C267.85 268.03 266.52 270.24 261.83 272.74C256.84 275.4 254.07 276.05 248.48 275.34H248.47Z" fill="#A87A58"/>
<path d="M183.48 280.13C183.51 280.63 183.41 281.18 183.5 281.67C184.63 287.68 188.27 296.24 192.47 300.76C193.62 301.99 195.11 302.91 196.19 304.24C194.41 304.79 191.54 304.48 189.71 304C185.15 302.83 180.06 296.82 175.84 294.13C172.17 291.79 167.9 291.41 163.62 291.12C163.06 289.64 162.26 288.31 161.38 287.01C160.28 285.4 156.16 280.97 155.78 279.66C155.69 279.34 155.62 279.03 155.67 278.7C164.9 279.64 174.19 280.35 183.49 280.14L183.48 280.13Z" fill="#3A3F62"/>
<path d="M114.4 221.13C112.64 232.19 113.08 243.4 112.97 254.59C112.97 255 113.12 255.66 112.73 255.91C107.57 253.33 99.8198 249.32 100.01 242.59C100.2 235.86 102.44 225.93 104.94 219.94C105.86 217.73 107.12 215.68 107.93 213.46L111.29 218.13C112.29 219.16 113.31 220.2 114.4 221.13Z" fill="#C0A187"/>
<path d="M244.39 215.62C244.74 216.12 241.27 222.28 240.44 223.04C239.86 222.52 239.03 222.06 238.29 221.83C234.37 220.59 231.02 222.62 228.56 225.56C225.97 228.64 225.35 232.35 226.28 236.25C226.54 237.35 227.78 239.18 227.85 239.73C227.97 240.67 227.23 242.69 227.13 243.79C226.75 248.32 227.73 252.74 230.25 256.51L227.49 263.09C223.87 259.44 220.48 254.92 219.52 249.72C216.97 235.94 223.05 223.47 235.31 216.94C237.75 215.64 241.71 215.07 244.4 215.61L244.39 215.62Z" fill="#BFA087"/>
<path d="M114.4 221.13C115.41 221.99 115.61 222.67 116.2 224.01C119.43 231.36 120.53 242.23 120.88 250.27C121.01 253.26 120.79 256.27 120.88 259.26C118.94 258.54 116.78 258.07 114.89 257.22C114.03 256.83 113.39 256.24 112.73 255.9C113.13 255.65 112.97 254.99 112.97 254.58C113.09 243.39 112.65 232.18 114.4 221.12V221.13Z" fill="#A87A58"/>
<path d="M113.2 259.99C113.64 263.81 114.32 267.8 115.53 271.45C115.82 272.34 116.77 273.08 116.32 274.14C113.06 273.57 106.18 270.88 104.09 268.26C101.03 264.4 100.9 255.68 100.25 250.88C101.34 251.64 102.13 252.78 103.12 253.64C105.31 255.53 110.57 258.72 113.2 259.99Z" fill="#C0A187"/>
<path d="M129.75 310.35C135.09 310.51 140.21 307.99 144.55 305.11L147.16 306.03C147.54 306.58 145.26 311.24 144.8 311.5C144.53 311.65 144.11 311.41 143.87 311.7C142.7 313.11 142.89 316.69 142.41 318.34C142.3 318.71 141.77 318.98 141.61 319.46C141.39 320.1 141.54 320.63 141.16 321.41C140.62 322.51 139.07 323.3 137.91 323.55C137.64 322.64 138.56 322.27 138.76 321.65C139.28 320.04 138.52 319.35 137.91 318.04C139.85 316.14 138.44 311.18 135.64 310.84C133.32 310.56 131.9 311.64 129.76 312.28C129.22 311.83 129.63 310.94 129.76 310.36L129.75 310.35Z" fill="#95DE39"/>
<path d="M238.88 226.41C237.97 227.72 238.6 229.51 238.34 231.03C238.08 232.55 235.92 235.62 234.68 236.49C233.44 237.36 231.28 237.18 231.2 238.65C228.89 237.04 228.71 233.45 229.06 230.88C229.37 228.59 232.17 225.68 234.26 224.79C235.79 225 237.22 224.44 238.42 225.57C238.79 225.92 238.75 226.24 238.88 226.42V226.41Z" fill="#C3EE79"/>
<path d="M202.66 308.67C206.87 311.11 209.33 312.79 214.41 313.83C215.74 314.1 216.92 313.98 218.03 314.34L216.93 318.02C215.47 317.18 214.53 315.21 212.79 314.96C211.26 314.74 208.8 315.85 208.47 317.48C208.26 318.52 208.45 321.34 208.7 322.41C209.03 323.83 210.5 324.18 209.42 326.35C208.34 328.52 205.62 329.61 203.37 329.06C203.21 327.49 205.07 327.8 205.64 327.14C206.34 326.33 206.41 323.68 206.02 322.69C205.68 321.82 204.59 321.44 204.37 320.5C204.27 320.04 204.24 318.97 204.32 318.51C204.55 317.13 205.89 316.73 205.46 314.61C205.25 313.57 203.59 312.35 202.64 312.04C203.86 310.6 202.94 310.14 202.64 308.68L202.66 308.67Z" fill="#95DE39"/>
<path d="M252.79 237.44C254.95 237.5 255.86 237.72 257.59 236.36C260.52 234.05 261.75 230.45 260.47 226.88C263.21 227.61 264.31 230.06 264.91 232.63C266.24 238.3 264.57 242.71 258.01 241.69C256.06 241.38 253.69 239.04 252.8 237.43L252.79 237.44Z" fill="#97E03A"/>
<path d="M247.99 252.79C248.76 251.43 250.47 251.49 251.67 250.59C253.93 248.91 253.44 244.83 252.55 242.47C253.06 242.55 254.62 243.83 255.5 244.19C258 245.22 260.24 244.7 259.99 248.35C259.82 250.8 257.78 253.06 255.64 254.08C255.47 254.16 253.49 254.91 253.37 254.93C251.14 255.36 249.32 254.46 247.98 252.78L247.99 252.79Z" fill="#97E03A"/>
<path d="M260.47 226.89C261.76 230.45 260.52 234.06 257.59 236.37C255.86 237.73 254.95 237.51 252.79 237.45C251.4 234.94 251.96 230.64 253.65 228.35C255.01 226.49 258.44 226.35 260.47 226.9V226.89Z" fill="#C3EE79"/>
<path d="M116.32 274.14C116.77 273.08 115.82 272.34 115.53 271.45C114.32 267.79 113.64 263.81 113.2 259.99C114.92 260.83 117.57 261.21 119.43 262.03C119.82 262.2 120.74 262.57 120.82 263.01C120.58 264.74 120.58 266.49 120.36 268.23C120.21 269.37 119.7 273.01 119.25 273.84C118.68 274.88 117.22 274.3 116.32 274.14Z" fill="#A87A58"/>
<path d="M118.72 277.26L117.28 285.41C112.55 284.5 109.87 279.21 108.89 274.86C112.29 275.5 115.09 277.79 118.72 277.26Z" fill="#C2EC78"/>
<path d="M248.95 257.59C250.66 258.21 253.16 258.18 254.94 257.84C256.86 262.81 248.09 270.41 244.16 266.23C244.61 265.34 245.78 265.48 246.45 265.04C248.11 263.95 249.36 259.53 248.96 257.59H248.95Z" fill="#96DF39"/>
<path d="M202.66 308.67C202.96 310.13 203.88 310.58 202.66 312.03C199.97 311.14 195.57 312.12 193.32 313.84C192.59 314.4 192.58 314.99 192.11 315.51C190.4 317.4 186.87 315.98 188.54 313.14C189.5 311.52 189.95 312.34 191.15 312.17C192.84 311.93 194.73 311.21 195.95 310C196.87 309.09 197.85 306.47 199.36 306.8C199.77 306.89 200.84 307.87 201.38 308.15C201.8 308.37 202.29 308.46 202.66 308.67Z" fill="#C1EA78"/>
<path d="M252.55 242.48C253.44 244.83 253.93 248.91 251.67 250.6C250.47 251.49 248.76 251.44 247.99 252.8C246.89 251.42 246.19 250 246.31 248.13C246.5 245.23 249.48 241.99 252.55 242.49V242.48Z" fill="#C3EE79"/>
<path d="M248.95 257.59C249.35 259.53 248.1 263.95 246.44 265.04C245.77 265.48 244.6 265.34 244.15 266.23C240.94 262.81 242.24 258.22 245.52 255.46C246.05 255.32 248.14 257.3 248.95 257.59Z" fill="#C3EE79"/>
<path d="M231.21 238.64C231.29 237.18 233.51 237.31 234.69 236.48C235.93 235.61 238.1 232.52 238.35 231.02C238.6 229.52 237.98 227.71 238.89 226.4C240.51 228.59 241.3 230.61 241.02 233.45C240.56 238.1 235.21 241.42 231.22 238.64H231.21Z" fill="#96DF39"/>
<path d="M203.38 329.06C200.65 328.39 198.84 326.37 199.32 323.44C199.53 322.17 201.54 321.38 202.43 320.56C203.06 319.98 203.45 318.93 204.34 318.51C204.26 318.97 204.29 320.04 204.39 320.5C204.6 321.44 205.7 321.82 206.04 322.69C206.43 323.68 206.36 326.33 205.66 327.14C205.09 327.81 203.23 327.49 203.39 329.06H203.38Z" fill="#C3EE79"/>
<path d="M233.12 242.48C233.17 245.66 233.16 248.99 232.28 252.07C232.19 252.39 232.06 253.22 231.68 253.27C230.05 249.71 229.52 245.83 230.48 242L233.11 242.48H233.12Z" fill="#C2EC78"/>
<path d="M244.16 270.06C244.62 270.56 245.05 271.8 245.6 272.34C246.48 273.2 248.14 273.73 248.48 275.34C246.25 275.06 244.57 274.96 242.36 274.15C238.8 272.86 241.58 271.1 242.01 268.63C242.6 269.16 243.67 269.52 244.17 270.07L244.16 270.06Z" fill="#BFA087"/>
<path d="M137.91 323.54C135.9 323.99 134.54 322.87 134.53 320.78C134.53 317.63 136.86 319.05 137.91 318.02C138.52 319.34 139.28 320.02 138.76 321.63C138.56 322.26 137.64 322.62 137.91 323.53V323.54Z" fill="#C2EC78"/>
<path d="M129.75 310.35C129.62 310.93 129.21 311.82 129.75 312.27C129.68 312.29 129.52 312.59 129.29 312.64C127.48 313.05 126.12 312.57 124.96 311.18C124.34 310.44 123.54 309.47 124.59 308.73C125.15 308.64 127.24 310.13 128.01 310.3C128.59 310.42 129.18 310.34 129.75 310.35Z" fill="#C1EA78"/>
<path d="M310.83 112.49C309.46 112.25 304.8 115.76 303.63 116.81C303.48 116.62 302.4 116.33 302.09 116.34C300.74 116.4 297.98 118.85 296.91 119.8C293.41 122.92 284.81 132.64 283.72 136.95C283.18 136.83 283.21 137.25 283.01 137.54C279.58 142.45 275.72 150.49 275.32 156.48C274.88 162.98 276.84 169.95 276.3 176.17C276.1 178.4 274.47 179.59 275.09 181.56C265.69 194.49 258.66 208.2 254.93 223.87C250.87 225.19 248.77 230.21 248.94 234.21C249.02 236.1 249.83 237.78 250.14 239.59C244.61 241 241.57 247.45 244.17 252.65C241.61 254.4 239.12 258.34 239.19 261.48C239.22 262.73 240.13 264.8 240.08 265.61C240.03 266.37 238.29 269.32 237.92 270.41C234.93 279.18 237.2 288.64 235.42 297.89C233.75 306.58 227.52 318.08 221.96 324.96C220.31 327.01 217.99 328.74 215.63 329.9C217.73 324.76 219.92 319.64 221.31 314.24C222.91 308.05 224.45 298.32 223.5 292.04C222.61 286.16 219.67 284.41 221.5 277.73C222.56 273.86 224.86 272.33 227.13 269.45C230.95 264.62 235.35 254.22 236.01 248.11C236.2 246.3 236.22 244.31 236.26 242.49C242.71 241.09 245.64 234.66 243.62 228.51C243.37 227.74 242.37 226.35 242.53 225.62C246.19 220.06 248.54 213.74 250.82 207.51C257.63 188.94 261.5 169.63 266.2 150.46C270.31 133.69 277.61 119.43 288.54 106.13C294.05 99.43 306.48 88.91 315.73 90.19C316.55 90.3 319.8 92.1 320.14 92.74C320.63 93.66 319.91 95.8 319.48 96.78C318.22 99.71 315.37 100.77 313.35 102.88C311.06 105.28 309.15 109.31 310.84 112.48L310.83 112.49Z" fill="#94664B"/>
<path d="M303.64 116.8C303.77 116.96 303.9 117.83 303.88 118.09C303.76 119.39 302.77 119.11 301.99 119.58C296.96 122.54 288.41 132.01 286.63 137.56C286.2 138.9 286.66 140.77 284.57 140.57C283 140.42 283.47 138.02 283.74 136.95C284.83 132.64 293.43 122.92 296.93 119.8C298 118.85 300.76 116.39 302.11 116.34C302.42 116.33 303.5 116.62 303.65 116.81L303.64 116.8Z" fill="#030201"/>
<path d="M192.11 213.7C193.08 215.73 191.07 217.4 189.47 215.62C188.65 214.71 187.59 212.51 186.69 211.32C175.84 196.96 152.09 190.84 136.01 199.46C132.93 201.11 129.22 204.27 127.7 207.46C127.07 208.77 127 211.64 124.88 211.03C122.76 210.42 124.42 207.01 125.06 205.79C133.6 189.69 161.27 190.01 175.32 197.76C180.91 200.84 189.35 207.9 192.1 213.71L192.11 213.7Z" fill="#030402"/>
<path d="M145.03 187.48C143.68 188.72 141.76 187.42 142.41 185.71C142.8 184.67 146.18 180.56 147.14 179.88C148.67 178.81 150.45 179.82 149.72 181.5C149.45 182.12 147.12 184.31 146.44 185.18C145.96 185.79 145.45 187.09 145.03 187.48Z" fill="#060703"/>
<path d="M159.19 179.46C159.37 179.63 159.4 180.1 159.62 180.34C160.73 181.61 163.35 183.61 162.8 185.46C162.54 186.32 161.26 186.66 160.56 186.12C159.65 184.32 156.24 182.28 156.62 180.24C156.83 179.12 158.5 178.77 159.2 179.45L159.19 179.46Z" fill="#060703"/>
<path d="M196.38 133.18C214.6 131.71 228.39 149.24 222.92 166.68C217.54 183.81 195.85 190.19 182.03 178.56C164.43 163.75 173.56 135.02 196.37 133.18H196.38ZM219.21 167.41C227.1 147.32 205.56 128.72 186.84 139.59C186.72 140.15 186.91 139.97 187.15 140.12C196.49 146.13 206.33 153.65 213.95 161.76C215.42 163.32 216.76 165.26 218.25 166.81C218.52 167.09 218.77 167.48 219.21 167.4V167.41ZM183.67 144.21C181.02 144.32 180.78 144.77 179.45 146.94C175.75 152.99 175.08 160.07 177.54 166.74C178.29 168.77 178.73 170.04 180.91 170.8C190.08 174.02 197.82 167.76 197.84 158.38C197.86 152.05 190.06 143.93 183.66 144.21H183.67ZM182.52 174.37C192.13 184.91 210.44 182.79 217.5 170.45C212.42 164.18 206.91 158.15 200.27 153.5C201.63 159.3 200.77 165.24 196.79 169.81C192.81 174.38 188.31 175.22 182.52 174.37Z" fill="#030303"/>
<path d="M109.56 135.82C135.46 133.33 148.71 164.77 128.91 181.31C113.24 194.41 88.5601 183.64 87.0701 163.45C86.0801 150.09 95.9901 137.13 109.56 135.82ZM90.4201 158.41C90.2401 160.19 90.5501 162.23 90.4201 164.05C90.8901 164.08 91.2201 163.67 91.5901 163.42C93.2501 162.3 94.8201 160.84 96.4801 159.68C105.65 153.27 115.81 148.5 125.68 143.3C125.68 142.64 122.05 140.95 121.36 140.67C108.05 135.23 91.9001 143.86 90.4201 158.41ZM130.64 149.01C129.3 148.02 127.04 147.62 125.34 147.77C121.98 148.07 117.29 152.4 115.97 155.42C112.03 164.42 115.88 173.13 126.06 174.09C130.1 174.47 131.62 173.92 133.22 170.27C135.72 164.56 136.12 153.02 130.64 149.01ZM128.31 177.24C117.65 177.73 109.67 169.84 111.63 159C112.04 156.75 113.11 154.69 113.8 152.54C108.75 155.31 103.66 158.1 98.9701 161.45C96.3601 163.32 94.0101 165.56 91.3501 167.32C95.0901 183.55 116.83 189.29 128.3 177.24H128.31Z" fill="#030303"/>
<path d="M151.82 260.23C151.86 259.89 151.49 259.39 151.62 258.73C151.67 258.47 152.74 257.01 153.02 256.63C155.75 252.91 161.22 245.35 161.8 240.81C161.89 240.07 161.53 239.43 161.77 238.9C162.52 237.23 165.5 237.45 164.9 240.58C164.13 244.64 159.26 252.92 156.81 256.47C155.73 258.04 153.99 261.42 151.82 260.23Z" fill="#030303"/>
<path d="M141.92 233.16C144.05 232.77 143.39 234.89 143.53 235.77C143.82 237.68 144.54 241.75 145.23 243.43C145.66 244.48 146.78 244.89 146.04 246.16C145.63 246.86 145.08 246.91 144.33 246.74C143.29 246.51 142.81 245.17 142.49 244.26C141.95 242.69 140.57 236.91 140.54 235.4C140.52 234.46 140.87 233.35 141.93 233.16H141.92Z" fill="#060703"/>
<path d="M278.63 165.19C277.73 166.15 276.12 165.41 276.08 164.18C276.04 162.87 277.96 158.51 278.65 157.18C280.17 154.25 285.35 147.35 288.19 145.86C289.75 145.04 291.2 146.49 290.25 147.92C289.78 148.62 289.08 148.77 288.52 149.3C285.27 152.37 282.4 155.42 280.57 159.57C280.13 160.56 278.9 164.9 278.63 165.19Z" fill="#030201"/>
<path d="M183.67 144.21C190.07 143.93 197.86 152.05 197.85 158.38C197.82 167.76 190.09 174.03 180.92 170.8C178.74 170.03 178.3 168.76 177.55 166.74C175.08 160.07 175.75 152.99 179.46 146.94C180.79 144.76 181.03 144.32 183.68 144.21H183.67Z" fill="#1A547C"/>
<path d="M219.21 167.41C218.76 167.48 218.52 167.1 218.25 166.82C216.75 165.28 215.41 163.33 213.95 161.77C206.33 153.66 196.49 146.13 187.15 140.13C186.92 139.98 186.72 140.15 186.84 139.6C205.56 128.72 227.11 147.33 219.21 167.42V167.41Z" fill="#96DF39"/>
<path d="M182.52 174.37C188.31 175.22 192.9 174.28 196.79 169.81C200.68 165.34 201.63 159.3 200.27 153.5C206.91 158.15 212.41 164.18 217.5 170.45C210.44 182.79 192.13 184.91 182.52 174.37Z" fill="#EEFCF8"/>
<path d="M128.31 177.24C116.83 189.29 95.0999 183.55 91.3599 167.32C94.0199 165.56 96.3599 163.32 98.9799 161.45C103.67 158.09 108.76 155.3 113.81 152.54C113.11 154.68 112.04 156.75 111.64 159C109.69 169.84 117.66 177.74 128.32 177.24H128.31Z" fill="#EEFCF8"/>
<path d="M130.64 149.01C136.12 153.03 135.72 164.57 133.22 170.27C131.62 173.92 130.11 174.47 126.06 174.09C115.88 173.13 112.02 164.42 115.97 155.42C117.29 152.4 121.99 148.06 125.34 147.77C127.04 147.62 129.29 148.03 130.64 149.01Z" fill="#1A547C"/>
<path d="M90.4201 158.41C91.9001 143.86 108.04 135.23 121.36 140.67C122.05 140.95 125.68 142.64 125.68 143.3C115.81 148.5 105.66 153.27 96.4801 159.68C94.8101 160.84 93.2401 162.3 91.5901 163.42C91.2201 163.67 90.8901 164.08 90.4201 164.05C90.5501 162.24 90.2401 160.2 90.4201 158.41Z" fill="#96DF39"/>
</svg>
