<svg width="360" height="360" viewBox="0 0 360 360" fill="none" xmlns="http://www.w3.org/2000/svg">
<path d="M214.93 125.64C235.38 131.85 244.84 156.39 234.11 174.93L239.59 180.72L242.95 185.63C243.01 184.48 242.89 183.3 242.95 182.14C243.46 171.79 243.57 161.84 243.45 151.44C243.25 133.94 241.31 119.65 247.75 102.76C250.76 94.87 261.04 78.83 267.82 73.9C271.32 71.35 279.32 66.93 282.15 72.44C285.09 78.18 279.07 82.31 276.68 86.59C276.3 87.27 275.8 87.92 276.16 88.74L276.45 88.93C279.04 88.9 281.32 88.69 282.82 91.19C286.7 97.66 281.21 103.21 278.11 108.17C277.41 109.29 276.19 110.92 276.64 112.24C276.89 112.98 280.81 114.75 281.86 116.38C286.15 123.01 280.52 128.48 277.3 133.74C265.44 153.1 261.22 174.8 257.8 197.01L258.06 197.97C261.04 199.74 263.62 202.16 266.1 204.56C279.12 217.12 289.99 237.73 285.37 256.22C282.54 267.56 276.69 276.73 265.75 281.58C265.63 281.74 266.2 284.88 266.22 285.51C266.64 298.66 253.32 306.5 242.52 310.4L238.51 326.41C237.1 329.84 232.78 339.5 227.76 336.45C224.41 334.41 227.41 327.56 228.02 324.55C228.76 320.91 229.36 317.13 229.76 313.46C229.23 312.93 217.42 316.65 215.61 316.1L216.61 318.45C220.87 319.02 223.29 322.22 221.55 326.48C219.89 330.55 212.07 330.73 209.12 327.97C207.15 326.13 208.45 324.43 207.7 323.39C207.46 323.05 204.05 320.75 203.54 320.6C202.95 320.42 202.45 320.35 201.83 320.4L200.71 323.64C202.6 324.9 203.53 326.1 203.37 328.46C202.79 337.02 189.11 338.53 185.57 331.37C184.2 328.59 184.97 323.62 187.93 322.14C188.65 321.78 189.73 321.72 190.14 321.23C190.89 320.36 191.8 317.4 190.99 316.35C189.98 315.03 184.56 315.45 183.22 316.23C182.59 316.59 181.81 318.27 180.74 318.79C179.12 319.58 175.86 319.41 174.35 318.36C170.69 315.83 173.36 309.11 177.09 308.66C178.39 308.5 179.86 309.15 180.58 309.04C180.93 308.99 184.45 307.46 184.74 307.24L184.89 306.75C183.49 306.28 182.63 305 181.67 304.1C181.05 303.51 180.37 303.13 179.73 302.44C176.96 299.41 174.77 293.51 170.32 292.66C166.34 291.89 162.41 290.66 158.37 289.98C157.75 289.88 158.11 290.09 158.27 290.32C159.03 291.48 159.89 292.3 160.47 293.64C162.54 298.41 160.39 301.28 156.35 303.76C159.51 305 160.79 309.5 157.79 311.67C160.02 313.12 162.77 312.74 165.15 313.66C169.57 315.37 173.8 321.58 173.39 326.31C173.19 328.66 171.87 329.21 169.95 330.06C166.57 331.55 164.14 331.99 160.67 330.38C159.68 329.92 158.86 329.05 157.96 328.54C151.21 324.69 143.6 327.38 136.85 323.26C134.76 321.98 133.65 320.91 133.56 318.27C131.2 320.28 128 318.95 126 317.08C124 315.21 123.08 313.41 123.48 310.6C122.97 310.58 122.45 310.52 121.98 310.3C118.17 308.47 113.03 303.76 110.86 300.07C109.13 297.13 109.06 295.63 110.28 292.47C112.18 287.54 114.4 282.83 115.87 277.68C118.43 268.69 118.96 258.65 118.93 249.33C118.93 245.97 118.43 242.47 118.2 239.13C115.59 240.62 112.87 243.2 111.29 245.77C109.71 248.34 109.14 251.25 106.21 252.92C103.64 254.39 101.87 253.79 101.43 257.5C101.36 258.1 101.29 260.09 101.44 260.55C101.63 261.12 103.94 261.69 104.68 262.1C111.71 266.02 104.63 274.87 98.8198 275.76C97.4598 275.97 94.2698 275.12 92.9998 274.5C91.3498 273.7 88.5798 270.62 88.4398 268.74C88.2698 266.45 90.4298 264.41 90.2598 263.1C89.9598 260.78 86.0598 259.6 84.3698 261.08C83.7098 261.66 82.6298 264.83 81.9998 265.91C79.3898 270.39 73.7398 272.49 69.2598 269.21C65.2798 266.3 65.0298 259.98 66.8598 255.81C60.5498 252.94 62.1798 243.96 69.2398 243.92C68.6098 241.31 68.9498 238.59 71.2798 236.96C72.9298 235.81 74.5998 236.48 76.4398 236.72C76.0498 231.15 77.0798 226.17 79.9398 221.39C82.3198 217.4 89.4398 210.97 93.6298 208.93C96.8298 207.37 100.34 206.6 103.79 205.78C101.24 197.65 102.1 188.19 105.69 180.5C96.6198 175.7 89.8798 167.69 87.5998 157.57C81.9898 132.7 103.82 111.01 128.57 117C130.48 115.04 132.16 112.67 134.68 111.47C133.4 100.16 147.14 96.04 155.99 95C158.28 94.73 160.63 94.87 162.87 94.5C163.63 93.37 164.51 92.09 165 90.81C167.28 84.88 166.02 77.32 167.46 71.21C168.9 65.1 179.18 61.58 184.74 61.15C190.97 60.67 196.18 62.33 202.01 64.26C212.19 67.63 217.29 74.64 221.52 84.08C224.52 90.75 222.06 97.75 217.24 102.76C215.36 104.71 212.7 105.69 211.01 107.56C210.11 108.55 208.55 111.11 208.4 112.41C208.33 113.07 210.26 114.38 210.86 115.13C211.66 116.12 212.33 117.47 212.88 118.62C213.91 120.76 215.01 123.22 214.87 125.63L214.93 125.64ZM194.75 65.48C192.43 64.81 191.39 64.13 188.64 64.03C183.64 63.85 172.08 66.18 170.55 71.86C169.02 77.54 170.23 85.27 168 91.38C167.61 92.45 166.88 93.44 166.44 94.5C173.83 94.64 181.03 96.72 187.79 99.54C194.55 102.36 200.04 106.25 205.77 110.57C206.18 108.86 207.39 107.09 208.53 105.77C210.73 103.22 213.6 102.29 215.84 99.65C219.1 95.8 220.88 91.13 219.08 86.11C216.91 80.04 211.13 71.61 205.22 68.8C201.87 67.2 198.28 66.51 194.74 65.48H194.75ZM273.18 90.42C273.04 90.03 272.9 88.14 272.94 87.66C273.28 83.39 280.41 79.62 279.64 74.72C279.14 71.54 275.06 73.3 273.18 74.22C263.15 79.14 251.86 98.59 248.84 109.12C245.35 121.27 246.18 130.67 246.33 143.05C246.61 166.28 246.75 190.02 243.68 213.09C243.29 216.05 242.89 219.11 242.01 221.98C241.71 222.96 240.72 223.98 241.08 225.05C241.17 225.32 245.18 227.53 245.24 228.81C246.25 225.55 249.51 224.17 250.65 221.03C253.44 213.33 253.93 202.7 255.26 194.46C256.67 185.72 258.21 175.38 260.47 166.93C263.64 155.05 268.14 143.17 274.52 132.65C276.87 128.78 281.54 124.22 279.83 119.38C278.76 116.35 276.02 116.64 274.38 114.51C270.72 109.74 278.56 103.83 280.18 99.45C280.81 97.74 281.5 93.09 279.41 92.22C277.92 91.6 274.07 92.96 273.18 90.42ZM211.78 124.72C211.04 117.87 205.26 113.69 200.1 109.89C186.59 99.94 170.37 94.9 153.53 98.25C147.77 99.4 137.49 102.49 137.9 109.84C139.79 109.17 141.43 108.43 143.51 108.67C148.46 109.24 153.39 116.78 155.11 121.05C155.45 121.9 157.05 127.46 157.46 127.56C161.56 126.45 165.58 127.81 169.55 128.68C172.63 124.32 176.37 120.44 180.47 117.04C183.05 114.9 186.64 112.23 189.7 110.92C192.51 109.72 194.14 109.03 197.1 110.46C201.9 112.77 202.07 119.83 203.82 124.12L211.75 124.71L211.78 124.72ZM191.15 113.68C183.35 116.8 175.71 125.21 170.89 131.92C169.45 133.24 168.71 131.91 167.7 131.49C165.39 130.53 162.09 130.02 159.61 130.24C157.64 130.41 155.51 131.97 154.58 129.51C153.22 125.93 152.59 122.23 150.66 118.8C149.29 116.37 145.51 111.33 142.41 111.58C139.31 111.83 133.29 115.14 131.9 118.12C143.28 122.45 151.95 133.16 153.25 145.35C154.64 144.83 156.05 144.05 157.51 143.74C163.07 142.55 168.54 144.05 173.26 147.03C174.28 145.26 174.93 143.31 175.91 141.51C179.11 135.62 184.38 130.53 190.43 127.6C193.67 126.03 197.17 124.98 200.74 124.48C199.55 121.21 199.19 114.79 195.62 113.17C193.68 112.28 192.89 112.99 191.14 113.69L191.15 113.68ZM116.99 119.51C95.9098 121.37 83.9798 145.19 93.3998 163.82C102.92 182.65 128.44 186.04 142.58 170.29C145.81 166.69 146.59 163.87 148.65 159.81C152.83 151.55 168.12 152.42 173.89 158.41C175.44 160.01 175.42 163.5 175.96 165.69C182.85 193.74 221.96 196.6 233 169.57C244.47 141.48 211.81 115.17 187.23 133.4C180.73 138.22 179.83 142.09 176.37 148.69C174.59 152.08 172.12 149.53 169.85 148.54C165.13 146.48 158.95 145.09 154.27 148.17C153.44 148.72 152.81 150.1 151.46 149.91C149.92 149.69 150.28 147.06 150.1 145.98C147.28 129.37 134.23 118 116.98 119.52L116.99 119.51ZM202.66 191.63C188.72 190.45 176.93 181.21 173.04 167.65C172.63 166.21 171.9 160.64 171.49 160.08C171.11 159.56 168.66 158.39 167.94 158.11C163.64 156.42 156.55 155.99 152.89 159.26C151.62 160.39 151.52 161.93 150.81 163.42C143.44 178.93 128.81 186.41 111.79 182.6C111.03 182.43 108.97 181.54 108.44 181.85C108.16 182.01 107.01 184.64 106.83 185.16C104.66 191.61 104.3 202.38 108.29 208.17C112.63 214.48 119.96 216.41 127.3 216.54C128.13 214.74 130.96 208.3 132.62 207.59C135.36 206.41 135.81 210.78 136.65 212.43C137.49 214.08 139.27 216.6 140.34 218.1C140.56 218.4 141.38 219.72 141.73 219.46C142.52 217.16 144.56 215.62 146.04 213.82C148.48 210.86 152.01 205.77 155.04 203.63C156.98 202.26 158.15 204.48 158.87 206.03C160.8 210.16 161.24 215.06 163.19 219.21C165.8 216.39 169.52 214.04 173.06 212.53C174.2 212.04 176.56 210.9 177.7 211.42C179.3 212.14 178.25 214.68 177.94 215.85C177.36 218.1 176.66 220.33 176.02 222.56C178.8 222.46 181.54 223.34 184.3 223.52C197.57 224.38 213.69 212.69 218.35 200.49C219.85 196.57 220.02 192.69 219.92 188.51C219.74 188.32 216.25 189.93 215.65 190.12C211.31 191.52 207.16 192.01 202.65 191.63H202.66ZM200.99 310.59C203.68 312.32 206.93 314.07 210.23 313.96C216.96 313.42 223.46 311.75 229.97 310.07C230.43 308.83 230.01 307.75 230 306.64C229.96 302.08 230 296.99 229.53 292.48C228.97 287.22 226.91 282.02 227.15 276.69C219.08 272.43 215.39 260.05 215.14 251.48C214.8 239.97 222.18 226.41 233.86 223.41C235.07 223.1 237.09 223.09 238.02 222.77C239.44 222.28 240.6 213.79 240.82 212.14C240.89 211.59 240.76 211.01 240.82 210.46C241.65 203.77 242.36 197.06 242.76 190.35C240.79 189.24 240.17 186.95 239.01 185.18C237.14 182.34 235.06 179.8 232.55 177.49C230 181.01 226.89 184.02 223.32 186.48C226.41 188.24 228.79 190.93 231.61 193.06C232.64 194.44 231.44 195.94 229.81 195.34C228.89 195 226.35 192.21 225.36 191.4C225.11 191.2 223.27 189.75 223.09 189.95C223.05 196.03 221.77 201.33 218.72 206.57C215.92 211.38 208.9 217.99 204.14 220.89C200.19 223.3 195.31 224.9 190.88 226.21L190.49 226.55L191.68 240.18C191.6 251.84 190.7 263.5 188.24 274.89C187.32 279.15 185.05 283.71 184.95 287.91C184.78 295.13 195.2 306.83 201.03 310.58L200.99 310.59ZM261.43 280.13C269.07 277.3 275.9 272.11 279.29 264.54C285.03 251.73 284.46 242.41 279.59 229.47C275.78 219.33 268.76 210.8 260.71 203.74C260.37 203.44 257.34 200.94 257.11 201.23C256.5 208.13 255.35 214.95 253.51 221.61C255.12 221.61 256.42 221.42 257.92 222.12C258.62 222.45 259.15 223.13 259.77 223.39C260.65 223.76 261.44 223.7 262.47 224.29C265.26 225.88 271 233.09 272.59 235.99C275.14 240.62 275.68 250.13 275.07 255.27C273.91 265.05 268.79 273.77 261.43 280.12V280.13ZM155.42 207.22C153.89 207.95 150.91 212.3 149.66 213.81C148.06 215.74 145.92 217.69 144.68 219.86C143.61 221.72 142.71 226.28 139.97 222.8C138.27 220.64 135.84 216.69 134.37 214.25C133.95 213.56 133.52 212.72 133.36 211.92C133.32 211.64 133.05 211.75 132.88 211.9C132.26 212.44 130.17 216.62 129.73 217.62C124.85 228.55 125.19 239.41 129.29 250.52C131.14 255.53 134.5 260.08 135.05 265.51C136.19 264.96 137.52 265.16 137.61 266.62C137.7 268.08 134.67 271.18 133.75 272.48C131.38 275.85 129.85 277.66 131.09 282.05C131.98 285.21 135.31 289.04 137.68 291.29C139.85 293.35 143.93 295.52 144.38 298.74C145.29 305.3 137.58 310.03 136.75 316.25C136.32 319.47 137.18 320.38 140 321.59C144.97 323.72 150.91 322.46 156.15 324.26C161.08 325.95 162.57 330.08 168.54 327.42C169.25 327.1 170.37 326.63 170.49 325.77C170.66 324.61 169.35 321.97 168.74 320.9C165.41 315.09 162.29 316.87 157.11 314.78C155.8 314.25 152.87 312.77 151.94 311.79C149.15 308.86 149.99 301.46 152.2 298.37C153.08 297.15 155.45 295.8 155.66 298.02C155.8 299.52 153.71 300.36 153.87 301.96L157.48 299.33C160 295.84 156.41 293.05 154.76 290.28C149.57 281.54 152 268.2 155.43 259.14C158.44 251.19 164.08 244.04 167.47 236.16C169.52 231.39 172.1 225.18 173.67 220.29C174.23 218.55 174.53 216.74 175.11 215.01C172.72 215.74 169.67 217.33 167.69 218.87C166.38 219.89 164.12 223.33 162.98 223.51C162.58 223.58 161.71 223.61 161.35 223.49C160.67 223.26 159.97 218.95 159.69 217.96C159.28 216.56 156.48 207.48 155.92 207.08C155.76 206.92 155.6 207.14 155.44 207.22H155.42ZM98.8098 236.72C102.31 238.7 108.76 241.07 112.71 239.47C114.09 238.91 116.18 236.16 118.2 235.97C117.9 230.67 117.87 224.48 116.08 219.46C115.82 218.74 115.85 218.17 115.24 217.54C114.52 216.79 112.93 216.32 112.02 215.72C110.29 214.59 108.83 213.45 107.45 211.9C106.71 211.07 105.67 208.97 104.69 208.89C103.91 208.82 100.2 209.68 99.2398 209.94C95.9698 210.83 92.7098 212.57 90.0598 214.67C89.3198 215.26 86.8898 217.36 86.4398 218.01C84.5498 220.75 87.1998 224.66 88.7298 227.02C91.2798 230.98 94.7198 234.42 98.8098 236.73V236.72ZM125.92 219.7L118.97 218.5C119.98 223.6 120.76 228.76 121.14 233.96C122.15 248.01 122.43 264.84 118.61 278.46C117.18 283.57 115.1 288.33 113.27 293.26C112.31 295.85 112.32 296.87 113.94 299.2C117.71 304.63 124.62 310.46 131.52 306.71C135.47 304.56 137.85 301.03 139.12 296.8C139.11 296.15 135.49 293.43 134.8 292.74C130.91 288.87 125.83 281.65 128.09 275.93C129 273.62 131.7 271.03 132.47 269.03C132.99 267.67 131.75 263.53 131.22 262.02C129.96 258.41 127.79 255.02 126.48 251.41C123.42 242.99 122.25 233.3 124.42 224.53C124.83 222.89 125.51 221.33 125.94 219.69L125.92 219.7ZM93.7798 250.39C97.6898 251.83 100.01 252.53 104.02 250.68C107.07 249.27 107.51 245.82 109.37 243.32C105.31 242.44 100.79 241.67 97.1398 239.6C95.5898 238.72 93.1998 236.66 91.8598 235.41C87.9998 231.78 84.9098 227.02 82.9898 222.1L81.6698 224.25C75.2898 236.89 81.7098 245.95 93.7898 250.4L93.7798 250.39ZM253.75 224.73C249.99 225.54 246.57 229.47 249.15 233.29C249.77 234.2 250.15 234.22 251.12 234.56C252.84 235.17 252.15 234.66 253.17 234.57C255.91 234.34 257.31 234.79 259.17 232.17C260.17 230.76 259.57 229.47 258.98 228.02C257.92 225.4 256.73 224.08 253.76 224.73H253.75ZM187.28 226.68C185.11 227.18 175.98 224.8 174.72 225.92C174.53 226.09 173.72 227.91 173.53 228.33C171.9 232.01 170.81 235.98 169.05 239.68C166.74 244.54 163.63 249.07 161.13 253.82C158.38 259.03 156.19 264.63 155.43 270.51C161.82 272.29 168.53 273.03 174.89 274.91C178.1 275.86 181.17 277.38 184.43 278.2C184.99 275.91 185.62 273.62 186.04 271.29C188.42 258.13 189.94 242.96 188 229.66C187.85 228.65 187.67 227.62 187.28 226.67V226.68ZM231.2 227.85C224.02 231.3 219.31 239.18 218.28 246.94C217.25 254.7 220.28 268 226.64 272.82C227.14 273.2 227.41 273.46 227.81 272.77C228.23 272.03 228.73 269.8 229.11 268.79C229.61 267.48 230.31 266.22 230.73 264.88C227.54 258.34 226.69 252.06 228.26 244.92C228.54 243.65 230.24 239.53 230.24 239C230.24 238.47 229.03 236.2 228.88 235.1C228.57 232.84 229.02 231.39 230.05 229.44L231.21 227.85H231.2ZM234.08 238.88C234.19 239.3 235.99 240.56 236.47 240.69C238.4 241.19 240.48 241.02 242.07 239.8C244.84 237.69 244.68 234.82 243.69 231.79C243.26 230.49 241.64 228.5 240.32 228.09C235.8 226.69 230.78 230.5 231.99 235.34C232.51 237.43 233.56 236.9 233.96 237.69C234.19 238.14 234 238.58 234.08 238.89V238.88ZM255.19 280.61C266.64 275.4 272.66 260.86 272.23 248.82C271.89 239.32 269.55 236.37 263.71 229.52C263.35 229.1 262.85 228.62 262.39 228.32C263.81 232.01 261.44 234.86 258.55 236.84C258.49 237.07 260.26 238.88 260.57 239.37C261.61 241.03 262.44 244.24 262.41 246.18C262.35 249.41 259.04 253.25 256.15 254.46C255.92 254.79 256.95 255.56 257.21 255.92C259.46 258.96 260.17 263.01 258.12 266.38C256.07 269.75 250.58 271.48 246.8 270.29C246.7 270.16 246.12 270.04 245.96 269.82C245.8 269.93 245.73 270.05 245.65 270.22C245.08 271.46 244.07 277.3 243.95 278.84C243.85 280.18 244.54 280.78 245.83 281.21C249.03 282.29 252.23 281.95 255.19 280.6V280.61ZM247.99 250.39C249.27 252.6 250.86 252.63 253.33 252.25C255.56 251.9 258.96 248.93 259.24 246.65C259.71 242.86 257.53 238.62 253.51 238.16C253.46 238.16 253.36 237.94 252.99 237.96C251.24 238.07 249.3 239.64 248.37 241.05C246.54 243.82 246.33 247.51 247.99 250.39ZM93.0598 253.51C91.4898 252.94 88.9598 251.48 87.4698 250.59C83.1198 247.99 78.0998 244.09 76.9898 238.88C75.6098 240.12 72.5698 238.28 72.0098 240.73C71.7498 241.88 72.4598 243.74 73.2298 244.57C74.1198 245.52 77.6598 246.31 76.1498 248.24C74.9298 249.79 72.6798 247.44 71.4798 246.93C68.0498 245.47 63.7598 249.45 67.0398 252.33C67.5198 252.76 69.2498 253.7 69.8198 253.88C70.4398 254.08 71.8498 253.62 72.5998 253.61C74.1598 253.6 79.1198 254.51 77.6698 256.94C76.7198 258.53 75.2198 256.88 74.1798 256.69C72.9498 256.47 70.0598 256.54 69.3598 257.76C69.1398 258.14 68.8898 259.61 68.8398 260.12C68.5598 263.26 69.2498 266.24 72.4298 267.43C74.1698 268.08 74.5498 268.01 76.2598 267.31C80.6498 265.51 79.6998 261.28 82.2598 258.8C85.1598 255.99 92.1198 257.61 93.1798 261.67C94.0398 264.96 92.3298 265.46 91.7298 267.67C91.2398 269.45 93.4398 271.38 94.9698 271.99C98.7098 273.49 102.02 272.13 104 268.67C106.56 264.2 101.2 264.89 99.4098 263.12C97.6198 261.35 98.3598 256.98 99.0498 254.73C97.2298 254.61 94.7698 254.15 93.0498 253.53L93.0598 253.51ZM233.53 242.31C233.38 242.1 232.7 241.89 232.52 241.52C229.69 247.59 229.64 254.71 232.16 260.94L233.28 257.15C234.01 253.64 234.58 250.04 234.31 246.43C234.26 245.75 233.81 242.71 233.52 242.3L233.53 242.31ZM240.68 243.92C239.57 244.09 238.12 243.8 236.96 243.92C237.72 250.54 236.71 257.39 234.51 263.65C233.09 267.66 230.21 272.65 230.01 276.9C229.88 279.85 230.89 282.54 231.37 285.37C233.73 299.26 233.66 311.47 230.9 325.28C230.43 327.6 228.96 331.32 229.29 333.51C229.41 334.27 230.3 333.75 230.72 333.49C234.56 331.11 236.34 322.62 237.37 318.55C239.39 310.61 241.2 304.2 241.29 295.85C241.35 290.77 240.41 285.78 240.8 280.73C241.12 276.64 242.01 272.44 242.91 268.46C243.4 266.29 243.04 267.33 242.54 265.32C241.55 261.33 243.13 255.95 247.03 254.11C246.72 253.35 246.01 252.96 245.54 252.24C243.64 249.33 243.54 244.99 244.63 241.76C243.44 242.42 242.06 243.7 240.67 243.92H240.68ZM246.56 266.46C248.83 268.97 255.3 266.85 256.04 263.58C256.86 259.93 254.57 256.03 250.64 256.14C245.87 256.28 243.62 263.21 246.56 266.45V266.46ZM183.23 280.87C178.09 278.86 172.99 277.04 167.61 275.74C164.54 275 160.76 274.09 157.67 273.69C156.99 273.6 154.96 273.15 154.74 273.81C154.57 274.33 154.44 277.83 154.47 278.57C154.51 279.57 155.67 286.49 156.18 286.81C156.91 286.91 157.64 286.77 158.37 286.9C163.46 287.79 168.79 289.85 173.97 290.67C179.7 295.23 183.22 305 191.29 306.5C191.91 306.62 191.55 306.39 191.4 306.15C190.65 304.98 189.51 303.99 188.67 302.89C185.03 298.15 181.36 292.7 182.06 286.48C182.27 284.58 182.91 282.73 183.24 280.85L183.23 280.87ZM262.86 283.01C256.81 285.02 249.7 285.94 243.68 283.49C243.73 288.8 244.44 294.12 244.17 299.45C244.12 300.47 243.19 306.71 243.44 306.99C250.26 304.1 257.07 300.29 261.14 293.87C263.4 290.31 263.35 287.11 262.86 283V283.01ZM131.19 310.35C130.72 310.56 130.27 310.83 129.76 310.96C128.73 311.24 126.86 310.93 126.38 312.15C126.27 313.29 129.1 315.92 130.23 316.1C130.6 316.16 131.07 316.1 131.43 315.99C131.58 315.94 134.09 314.55 134.18 314.42C134.37 314.16 134.6 312.86 134.89 312.25C136.24 309.48 140.81 303.6 141.24 301.33C141.29 301.07 141.45 299.83 141.02 299.79C140.03 304.26 135.23 308.5 131.18 310.34L131.19 310.35ZM154.38 306.3C152.81 306.75 154.22 312.25 156.11 309.25C156.92 307.96 155.45 305.99 154.38 306.3ZM190.67 309.63C189.94 309.5 189.08 308.82 188.17 308.91C186.98 309.03 183.28 311.63 181.62 311.97C180.39 312.22 178.64 311.38 177.71 311.64C176.32 312.02 174.93 314.96 176.17 315.85C176.66 316.19 178.63 316.23 179.22 316.06C180.31 315.75 180.13 313.83 180.75 313.45C181.09 313.24 185.82 312.35 186.5 312.3C188.58 312.15 190.37 312.73 192.35 313.23C192.66 313.8 193.51 314.14 193.98 315.07C195.13 317.33 193.95 320.92 192.82 323.06C191.49 325.6 189.13 323.68 188.29 326.8C187.63 329.25 188.51 331.22 190.9 332.17C194.07 333.44 199.76 332.49 200.21 328.39C200.48 325.91 197.09 327.14 197.37 323.9C197.41 323.42 198.78 318.97 199 318.57C199.96 316.83 203.07 316.84 204.73 317.49C206.05 318.01 211.19 321.71 211.47 322.99C211.84 324.64 209.87 325.33 212.48 326.29C214.74 327.12 219.24 326.73 218.88 323.45C218.68 321.61 215.78 322.09 214.98 321.64C213.9 321.02 213.04 317.89 212 316.95C210.48 316.61 208.85 317 207.32 316.83C205.42 316.62 200.4 314.1 198.73 312.95C197.9 312.38 195.97 310.37 195.28 310.16C194.07 309.79 192 309.87 190.66 309.63H190.67Z" fill="#030303"/>
<path d="M92.5798 94.98C87.6298 96.6 82.5498 93.16 86.0598 87.86C87.0398 86.38 88.1798 86.08 89.4498 85C87.6998 82.6 84.3398 79.64 85.5698 76.34C87.0598 72.34 94.2598 74.67 96.7798 76.51C98.8498 73.79 100.76 68.13 104.73 67.97C109.11 67.79 109.98 70.62 109.26 74.36C108.78 76.84 106.55 80.11 109.61 81.42C112.67 82.73 115.26 82.45 117.76 85.26C120.6 88.45 117.81 93.15 114.17 94.14C110.89 95.03 107.92 93.37 106.04 97.04C104.51 100.03 104.26 103.62 101.05 105.72C94.0698 110.29 91.5898 99.87 92.5698 94.97L92.5798 94.98ZM115.28 87.15C111.83 83.42 104.26 86.21 105.05 78.31C105.24 76.47 108.46 70.17 104.5 71.04C102.67 71.44 100.25 77.32 98.9098 78.89C96.5398 81.66 95.8498 79.21 93.8298 78.26C92.9298 77.83 88.5498 76.47 88.2898 77.87C88.0298 79.27 91.9098 82.52 92.3798 83.78C93.8598 87.69 88.9098 87.95 88.1198 90.42C87.6098 92 89.2398 92.42 90.5298 92.37C92.2198 92.31 94.7198 90.02 95.9298 91.5C97.0098 92.83 95.6398 93.41 95.4498 94.4C95.0598 96.51 95.2298 99.31 95.9098 101.36C96.9398 104.44 98.6998 104.36 100.58 101.93C103.27 98.45 102.53 93 107.9 91.74C109.98 91.25 113.58 91.88 114.98 90.18C115.74 89.26 116.14 88.11 115.26 87.16L115.28 87.15Z" fill="#050403"/>
<path d="M303.64 139.58C305.96 139.16 310.37 141.75 310.78 144.07C311.7 149.25 306.48 149.56 302.92 150.85C303.45 153.38 303.87 155.88 302.08 158.05C297.52 163.59 291.91 157.2 291.87 152.06C288.29 152.03 284.79 155.55 281.35 152.63C278.78 150.44 280.24 147.93 281.71 145.59C283.05 143.46 284.74 141.6 286.81 140.15C286.3 137.04 286.02 129.7 290.99 130.52C293.41 130.92 294.43 133.2 295.61 135.02C297.96 133.39 300.48 129.78 303.67 131.75C306.35 133.39 304.75 137.35 303.64 139.58ZM301.96 134.31C298.57 135.11 296.79 141.17 293.2 136.95C292.58 136.22 290.49 131.77 289.83 134.53C289.51 135.87 289.53 137.37 289.74 138.73C289.88 139.68 290.53 139.66 290.02 141.2C289.51 142.74 288.6 142.47 287.68 143.18C286.24 144.3 283.6 147.44 283.11 149.17C282.85 150.11 283.16 150.45 284.1 150.6C287.08 151.07 289.82 148.05 293.09 149.05C295.31 149.73 294.72 153.61 295.72 155.06C295.91 155.33 297.61 157.01 297.81 157.07C303.11 155.98 297.36 150.44 301.54 148.18C302.89 147.45 306.28 146.87 307.21 146.18C308.86 144.96 306.36 143.26 305.24 142.9C303.85 142.45 301.52 143.14 300.5 141.82C298.98 139.85 302.42 136.63 301.94 134.32L301.96 134.31Z" fill="#050403"/>
<path d="M204.1 220.89C208.86 217.99 215.88 211.39 218.68 206.57C221.73 201.33 223 196.03 223.05 189.95C223.23 189.74 225.07 191.19 225.32 191.4C226.32 192.21 228.85 195 229.77 195.34C231.4 195.94 232.6 194.43 231.57 193.06C228.75 190.93 226.37 188.24 223.28 186.48C226.85 184.02 229.97 181 232.51 177.49C235.02 179.8 237.1 182.34 238.97 185.18C240.14 186.95 240.75 189.24 242.72 190.35C242.32 197.06 241.62 203.77 240.78 210.46C240.71 211.01 240.85 211.59 240.78 212.14C240.56 213.79 239.41 222.29 237.98 222.77C237.05 223.09 235.03 223.1 233.82 223.41C222.14 226.41 214.76 239.97 215.1 251.48C215.35 260.05 219.04 272.43 227.11 276.69C226.87 282.02 228.94 287.22 229.49 292.48C229.97 296.99 229.92 302.08 229.96 306.64C229.96 307.75 230.4 308.83 229.93 310.07C223.42 311.75 216.92 313.42 210.19 313.96C206.89 314.08 203.64 312.33 200.95 310.59C203.25 303.81 204.88 296.72 205.74 289.6C206.93 279.76 206.67 270.22 206.69 260.33C206.71 249.82 206.81 239.96 205.47 229.43C205.11 226.58 204.36 223.75 204.06 220.88L204.1 220.89Z" fill="#A87A59"/>
<path d="M202.66 191.63C202.05 196.19 200.5 201.19 197.96 205.03C197.32 206 196.32 207.54 195.23 207.93C196.17 196.75 177.38 189.27 168.61 186.94C157.63 184.03 141.38 183.01 130.87 187.81C126.7 189.72 119.38 196.51 123.87 201.22C125.66 203.1 132.1 202.75 134.68 202.66C149.48 202.11 159.71 200.7 174.36 205.17C178.92 206.56 186.9 210.99 191.15 211.05C190.68 212.16 188.71 212.95 187.62 213.39C184.66 214.59 181.1 215.2 177.96 215.85C178.26 214.67 179.31 212.14 177.72 211.42C176.58 210.9 174.22 212.04 173.08 212.53C169.54 214.04 165.82 216.39 163.21 219.21C161.26 215.06 160.81 210.16 158.89 206.03C158.17 204.48 157 202.26 155.06 203.63C152.03 205.77 148.5 210.85 146.06 213.82C144.57 215.62 142.53 217.16 141.75 219.46C141.4 219.72 140.57 218.4 140.36 218.1C139.29 216.6 137.47 214 136.67 212.43C135.87 210.86 135.38 206.42 132.64 207.59C130.98 208.3 128.15 214.73 127.32 216.54C119.98 216.41 112.65 214.48 108.31 208.17C104.33 202.38 104.68 191.61 106.85 185.16C107.02 184.64 108.18 182.01 108.46 181.85C108.99 181.54 111.06 182.43 111.81 182.6C128.82 186.41 143.46 178.93 150.83 163.42C151.54 161.93 151.63 160.4 152.91 159.26C156.57 156 163.65 156.42 167.96 158.11C168.68 158.39 171.12 159.56 171.51 160.08C171.92 160.64 172.65 166.21 173.06 167.65C176.95 181.21 188.74 190.46 202.68 191.63H202.66ZM152.21 171.33C151.08 170.11 149.04 171.02 149.51 172.69C149.7 173.35 151.69 175.02 152.29 175.69C153.11 176.61 153.34 178.17 155 177.67C158.18 176.72 152.93 172.37 152.21 171.33ZM166.87 173.22C166.17 173.34 165.13 174.07 164.55 174.51C164.2 174.77 162.16 176.56 162.02 176.77C161.51 177.5 161.42 178.67 162.24 179.18C163.73 180.09 164.64 178.24 165.62 177.49C166.24 177.02 168.42 175.81 168.63 175.46C169.46 174.09 168.39 172.96 166.87 173.22Z" fill="#C3EE79"/>
<path d="M116.99 119.51C134.23 117.99 147.29 129.36 150.11 145.97C150.29 147.05 149.93 149.68 151.47 149.9C152.82 150.09 153.44 148.71 154.28 148.16C158.96 145.08 165.14 146.47 169.86 148.53C172.13 149.52 174.6 152.07 176.38 148.68C179.84 142.08 180.74 138.21 187.24 133.39C211.82 115.16 244.47 141.47 233.01 169.56C221.97 196.59 182.87 193.73 175.97 165.68C175.43 163.48 175.44 160 173.9 158.4C168.13 152.41 152.85 151.54 148.66 159.8C146.6 163.86 145.82 166.68 142.59 170.28C128.45 186.03 102.93 182.64 93.4099 163.81C83.9899 145.18 95.9199 121.36 117 119.5L116.99 119.51ZM117.71 124.55C98.1699 126.16 87.6699 148.67 98.8599 164.85C109.71 180.54 133.56 179.18 142.59 162.38C152.3 144.32 138.03 122.88 117.71 124.55ZM203.1 132.7C183.56 134.31 173.06 156.82 184.25 173C195.44 189.18 218.78 187.35 227.9 170.69C237.78 152.63 223.51 131.03 203.11 132.71L203.1 132.7Z" fill="#354B65"/>
<path d="M153.98 235.52C153.79 235.56 153.38 235.93 153.26 236.11C152.6 237.08 151.75 243.11 151.28 244.92C150.14 249.26 148.35 253.38 146.97 257.64C146.23 259.92 145.79 262.67 145.12 264.78C144.45 266.89 143.05 269.16 142.4 271.78C140.95 277.6 141.23 280.45 143.56 285.88C145.07 289.41 148.94 294.76 149.41 298.26C150.28 304.72 143.47 311.28 149.91 316.95C151.54 318.39 155.65 320.46 156.73 322.12C157.7 323.61 156.44 323.17 156.15 324.27C150.91 322.47 144.96 323.73 140 321.6C137.18 320.39 136.32 319.48 136.75 316.26C137.58 310.04 145.29 305.32 144.38 298.75C143.93 295.53 139.85 293.36 137.68 291.3C135.31 289.05 131.98 285.22 131.09 282.06C129.85 277.67 131.37 275.86 133.75 272.49C134.67 271.18 137.7 268.05 137.61 266.63C137.52 265.21 136.19 264.96 135.05 265.52C134.49 260.1 131.13 255.54 129.29 250.53C125.19 239.42 124.85 228.55 129.73 217.63C130.18 216.63 132.27 212.45 132.88 211.91C133.05 211.76 133.32 211.66 133.36 211.93C133.52 212.73 133.95 213.57 134.37 214.26C135.84 216.7 138.28 220.64 139.97 222.81C142.7 226.29 143.61 221.74 144.68 219.87C145.92 217.7 148.06 215.75 149.66 213.82C150.91 212.31 153.9 207.96 155.42 207.23C155.73 216.66 156.09 226.27 153.98 235.53V235.52ZM140.49 250.1C141.64 248.95 140.13 247.89 139.63 247.12C137.05 243.17 136.16 239.15 136.23 234.45C136.24 233.53 137 231.45 135.75 230.85C132.99 229.52 133.48 234.6 133.58 236.14C133.79 239.24 135.59 246.64 137.43 249.08C138.07 249.94 139.5 251.09 140.49 250.1Z" fill="#D5D1C9"/>
<path d="M273.18 90.42C272.18 91.27 271.18 92.21 270.3 93.17C268.82 94.78 267.29 96.45 265.87 98.09C265.39 98.64 264.57 99.48 264.55 100.25C263.4 101.06 260.14 105.63 259.22 107.03C256.2 111.61 252.51 120.68 251.91 126.1C251.81 126.97 251.7 128.74 252.8 129.03C252.85 130.1 252.73 131.19 252.8 132.27C253.18 137.73 256.5 144.31 258.32 149.54C260.14 154.77 260.32 159.1 260.25 164.42C260.24 165.35 259.69 166.01 260.48 166.93C258.22 175.38 256.69 185.73 255.27 194.46C253.94 202.7 253.45 213.33 250.66 221.03C249.52 224.17 246.26 225.55 245.25 228.81C245.19 227.53 241.18 225.32 241.09 225.05C240.73 223.98 241.72 222.96 242.02 221.98C242.9 219.12 243.29 216.06 243.69 213.09C246.76 190.02 246.62 166.28 246.34 143.05C246.19 130.68 245.36 121.27 248.85 109.12C251.87 98.59 263.16 79.14 273.19 74.22C275.07 73.3 279.16 71.54 279.65 74.72C280.42 79.62 273.29 83.39 272.95 87.66C272.91 88.13 273.06 90.03 273.19 90.42H273.18Z" fill="#94664B"/>
<path d="M204.1 220.89C204.39 223.76 205.15 226.58 205.51 229.44C206.85 239.97 206.75 249.83 206.73 260.34C206.71 270.23 206.97 279.77 205.78 289.61C204.92 296.73 203.28 303.82 200.99 310.6C195.16 306.85 184.74 295.15 184.91 287.93C185.01 283.73 187.28 279.17 188.2 274.91C190.66 263.51 191.56 251.86 191.64 240.2L190.45 226.57L190.84 226.23C195.27 224.92 200.15 223.31 204.1 220.91V220.89Z" fill="#C0A187"/>
<path d="M187.28 226.68C187.67 227.63 187.85 228.66 188 229.67C189.94 242.96 188.42 258.13 186.04 271.3C185.62 273.62 184.99 275.92 184.43 278.21C181.17 277.39 178.1 275.87 174.89 274.92C168.53 273.04 161.82 272.29 155.43 270.52C156.19 264.63 158.38 259.04 161.13 253.83C163.64 249.08 166.74 244.55 169.05 239.69C170.81 235.99 171.9 232.02 173.53 228.34C173.72 227.92 174.53 226.1 174.72 225.93C175.98 224.81 185.11 227.19 187.28 226.69V226.68Z" fill="#7D543C"/>
<path d="M211.78 124.72L203.85 124.13C202.09 119.84 201.92 112.78 197.13 110.47C194.17 109.04 192.53 109.74 189.73 110.93C186.67 112.24 183.08 114.9 180.5 117.05C176.4 120.46 172.66 124.33 169.58 128.69C165.6 127.81 161.59 126.45 157.49 127.57C157.08 127.47 155.49 121.91 155.14 121.06C153.42 116.8 148.49 109.25 143.54 108.68C141.46 108.44 139.82 109.18 137.93 109.85C137.52 102.5 147.8 99.41 153.56 98.26C170.39 94.9 186.62 99.95 200.13 109.9C205.29 113.7 211.07 117.88 211.81 124.73L211.78 124.72Z" fill="#7D543C"/>
<path d="M155.42 207.22C155.58 207.14 155.74 206.92 155.9 207.08C156.46 207.48 159.26 216.56 159.67 217.96C159.96 218.94 160.66 223.26 161.33 223.49C161.69 223.61 162.55 223.58 162.96 223.51C164.1 223.33 166.36 219.89 167.67 218.87C169.65 217.33 172.7 215.74 175.09 215.01C174.51 216.74 174.21 218.55 173.65 220.29C172.08 225.18 169.5 231.39 167.45 236.16C164.06 244.04 158.42 251.19 155.41 259.14C151.98 268.2 149.55 281.54 154.74 290.28C156.39 293.05 159.98 295.84 157.46 299.33L153.85 301.96C153.69 300.36 155.79 299.52 155.64 298.02C155.43 295.8 153.06 297.15 152.18 298.37C149.96 301.46 149.13 308.86 151.92 311.79C152.85 312.77 155.78 314.25 157.09 314.78C162.27 316.87 165.4 315.09 168.72 320.9C169.33 321.97 170.64 324.61 170.47 325.77C170.35 326.64 169.23 327.1 168.52 327.42C162.54 330.08 161.05 325.95 156.13 324.26C156.43 323.17 157.69 323.61 156.71 322.11C155.63 320.45 151.52 318.38 149.89 316.94C143.45 311.27 150.26 304.71 149.39 298.25C148.92 294.76 145.05 289.4 143.54 285.87C141.21 280.44 140.93 277.59 142.38 271.77C143.03 269.15 144.39 266.98 145.1 264.77C148.39 267.5 148.47 261.84 149.06 259.73C150.38 254.94 152.23 250.34 153.62 245.58C154.22 243.51 155.65 239.12 155.8 237.19C155.87 236.25 154.97 235.29 153.98 235.51C156.09 226.25 155.73 216.64 155.42 207.21V207.22Z" fill="#B4AE9F"/>
<path d="M260.47 166.93C259.68 166.01 260.23 165.35 260.24 164.42C260.31 159.09 260.07 154.59 258.31 149.54C256.55 144.49 253.17 137.74 252.79 132.27C252.72 131.2 252.84 130.11 252.79 129.03C254.06 129.36 255 128.84 254.96 127.48C254.88 125.12 255.15 124.31 255.74 122.02C257.76 114.1 261.2 107.24 267.37 101.76C268.01 99.63 265.98 99.24 264.54 100.25C264.56 99.48 265.37 98.64 265.86 98.09C267.29 96.45 268.82 94.78 270.29 93.17C271.18 92.21 272.18 91.27 273.17 90.42C274.06 92.97 277.91 91.6 279.4 92.22C281.49 93.09 280.8 97.75 280.17 99.45C278.56 103.83 270.71 109.74 274.37 114.51C276 116.64 278.74 116.35 279.82 119.38C281.53 124.21 276.86 128.78 274.51 132.65C268.13 143.16 263.63 155.05 260.46 166.93H260.47ZM263.27 124.04C262.53 124.27 260.79 128.49 260.46 129.39C259.13 133.07 257.43 140.71 257.83 144.5C257.95 145.64 258.6 146.91 259.92 146.36C261.24 145.81 260.6 142.54 260.71 141.14C261.14 135.71 262.56 130.51 265.26 125.77C265.57 124.34 264.65 123.61 263.28 124.03L263.27 124.04Z" fill="#7D543C"/>
<path d="M125.92 219.7C125.49 221.33 124.81 222.89 124.4 224.54C122.23 233.31 123.4 243 126.46 251.42C127.77 255.03 129.94 258.42 131.2 262.03C131.72 263.54 132.97 267.69 132.45 269.04C131.68 271.03 128.99 273.62 128.07 275.94C125.81 281.66 130.89 288.88 134.78 292.75C135.47 293.44 139.09 296.16 139.1 296.81C137.83 301.04 135.45 304.58 131.5 306.72C124.6 310.47 117.69 304.64 113.92 299.21C112.3 296.88 112.29 295.86 113.25 293.27C115.08 288.33 117.16 283.57 118.59 278.47C122.41 264.85 122.13 248.02 121.12 233.97C120.75 228.77 119.97 223.61 118.95 218.51L125.9 219.71L125.92 219.7Z" fill="#BFA187"/>
<path d="M194.75 65.48C194.96 67.15 196.47 68.08 197.27 69.55C200.91 76.25 196.46 83.8 193.02 89.53C191.09 92.75 188.39 95.66 187.79 99.53C181.03 96.71 173.83 94.63 166.44 94.49C166.87 93.43 167.6 92.45 168 91.37C170.23 85.26 168.96 77.74 170.55 71.85C172.14 65.96 183.64 63.84 188.64 64.02C191.38 64.12 192.42 64.8 194.75 65.47V65.48Z" fill="#94664C"/>
<path d="M194.75 65.48C198.28 66.5 201.88 67.2 205.23 68.8C211.14 71.62 216.93 80.05 219.09 86.11C220.88 91.13 219.11 95.8 215.85 99.65C213.61 102.29 210.74 103.22 208.54 105.77C207.4 107.09 206.19 108.86 205.78 110.57C200.05 106.25 194.46 102.32 187.8 99.54C188.39 95.67 191.09 92.76 193.03 89.54C196.47 83.81 200.92 76.26 197.28 69.56C196.48 68.09 194.97 67.16 194.76 65.49L194.75 65.48Z" fill="#7D543C"/>
<path d="M191.15 113.68C192.22 115.86 193.56 118.49 193.31 121C193.08 123.32 191.05 125.35 190.43 127.59C184.39 130.52 179.11 135.61 175.91 141.5C174.93 143.3 174.28 145.24 173.26 147.02C168.54 144.04 163.07 142.54 157.51 143.73C156.05 144.04 154.64 144.82 153.25 145.34C151.94 133.15 143.27 122.44 131.9 118.11C133.29 115.13 139.29 111.82 142.41 111.57C145.53 111.32 149.29 116.37 150.66 118.79C152.59 122.22 153.22 125.92 154.58 129.5C155.51 131.96 157.65 130.4 159.61 130.23C162.09 130.01 165.4 130.52 167.7 131.48C168.7 131.9 169.45 133.23 170.89 131.91C175.7 125.2 183.35 116.79 191.15 113.67V113.68Z" fill="#C3EE79"/>
<path d="M261.43 280.13C268.79 273.78 273.91 265.06 275.07 255.28C275.68 250.13 275.14 240.62 272.59 236C270.99 233.1 265.25 225.89 262.47 224.3C261.45 223.71 260.66 223.77 259.77 223.4C259.15 223.14 258.63 222.46 257.92 222.13C256.42 221.43 255.12 221.62 253.51 221.62C255.34 214.95 256.5 208.14 257.11 201.24C257.34 200.96 260.37 203.46 260.71 203.75C268.77 210.81 275.78 219.34 279.59 229.48C284.46 242.42 285.03 251.74 279.29 264.55C275.9 272.12 269.06 277.31 261.43 280.14V280.13Z" fill="#A87A58"/>
<path d="M240.68 243.92C242.07 243.7 243.44 242.42 244.64 241.76C243.56 244.99 243.66 249.33 245.55 252.24C246.02 252.96 246.72 253.34 247.04 254.11C243.14 255.95 241.56 261.33 242.55 265.32C243.05 267.34 243.41 266.3 242.92 268.46C242.02 272.45 241.12 276.65 240.81 280.73C240.42 285.78 241.36 290.77 241.3 295.85C241.2 304.2 239.39 310.61 237.38 318.55C236.35 322.62 234.57 331.1 230.73 333.49C230.31 333.75 229.42 334.27 229.3 333.51C228.97 331.31 230.44 327.6 230.91 325.28C233.68 311.47 233.75 299.27 231.38 285.37C230.9 282.55 229.89 279.85 230.02 276.9C230.21 272.65 233.1 267.66 234.52 263.65C236.73 257.39 237.74 250.54 236.97 243.92C238.12 243.8 239.58 244.09 240.69 243.92H240.68Z" fill="#94664B"/>
<path d="M202.66 191.63C207.17 192.01 211.32 191.52 215.66 190.12C216.25 189.93 219.75 188.32 219.93 188.51C220.04 192.69 219.86 196.57 218.36 200.49C213.7 212.69 197.58 224.38 184.31 223.52C181.56 223.34 178.81 222.46 176.03 222.56C176.66 220.33 177.37 218.09 177.95 215.85C181.08 215.2 184.65 214.59 187.61 213.39C188.7 212.95 190.68 212.16 191.14 211.05C193.17 211.08 195.04 210.1 195.22 207.93C196.31 207.53 197.31 205.99 197.95 205.03C200.5 201.19 202.05 196.18 202.65 191.63H202.66Z" fill="#97E03A"/>
<path d="M255.19 280.61C252.04 278.38 249.99 275.6 247.9 272.44C247.56 271.93 247 270.55 246.8 270.3C250.58 271.48 256.03 269.81 258.12 266.39C260.21 262.97 259.46 258.98 257.21 255.93C256.95 255.58 255.92 254.8 256.15 254.47C259.03 253.26 262.35 249.42 262.41 246.19C262.45 244.24 261.61 241.04 260.57 239.38C260.26 238.89 258.49 237.08 258.55 236.85C261.44 234.87 263.81 232.02 262.39 228.33C262.85 228.63 263.35 229.11 263.71 229.53C269.55 236.38 271.89 239.33 272.23 248.83C272.66 260.87 266.64 275.41 255.19 280.62V280.61Z" fill="#A87A58"/>
<path d="M116.08 219.45C111.98 220.75 108.35 224.33 105.52 227.48C103.07 230.2 100.58 233.51 98.8101 236.72C94.7201 234.41 91.2801 230.97 88.7301 227.01C87.2101 224.64 84.5501 220.74 86.4401 218C86.8901 217.35 89.3201 215.25 90.0601 214.66C92.7001 212.56 95.9701 210.82 99.2401 209.93C100.2 209.67 103.91 208.81 104.69 208.88C105.67 208.96 106.71 211.06 107.45 211.89C108.83 213.45 110.29 214.58 112.02 215.71C112.93 216.31 114.52 216.78 115.24 217.53C115.84 218.16 115.82 218.73 116.08 219.45Z" fill="#C0A187"/>
<path d="M183.23 280.87C182.9 282.74 182.26 284.59 182.05 286.5C181.36 292.71 185.02 298.16 188.66 302.91C189.5 304.01 190.64 305.01 191.39 306.17C191.54 306.4 191.9 306.63 191.28 306.52C183.21 305.01 179.69 295.25 173.96 290.69C168.78 289.87 163.45 287.82 158.36 286.92C157.63 286.79 156.9 286.92 156.17 286.83C155.66 286.51 154.51 279.58 154.46 278.59C154.43 277.85 154.56 274.35 154.73 273.83C154.95 273.17 156.98 273.62 157.66 273.71C160.75 274.11 164.54 275.02 167.6 275.76C172.98 277.06 178.08 278.88 183.22 280.89L183.23 280.87Z" fill="#393F62"/>
<path d="M93.0598 253.51C93.2398 255.63 93.5498 257.97 94.4498 259.91C95.7598 262.73 99.6998 265.79 98.6998 269.11C97.9698 271.54 95.8099 270.17 94.9699 271.98C93.4398 271.37 91.2399 269.43 91.7299 267.66C92.3299 265.45 94.0499 264.95 93.1798 261.66C92.1098 257.6 85.1599 255.98 82.2599 258.79C81.3899 258.63 80.9499 258.38 80.2198 259.03C80.0998 259.14 78.8298 260.61 78.7898 260.71C78.5098 261.33 78.7599 262.05 78.6199 262.7C78.3799 263.81 75.5498 266.07 74.4198 266.41C73.6698 266.64 72.5599 266.12 72.4399 267.42C69.2599 266.23 68.5698 263.25 68.8498 260.11C68.8898 259.6 69.1499 258.13 69.3699 257.75C70.0599 256.53 72.9599 256.46 74.1899 256.68C75.2299 256.87 76.7298 258.52 77.6798 256.93C79.1298 254.5 74.1698 253.58 72.6098 253.6C71.8598 253.6 70.4499 254.07 69.8299 253.87C69.2599 253.69 67.5299 252.74 67.0499 252.32C63.7699 249.44 68.0598 245.46 71.4898 246.92C72.6898 247.43 74.9399 249.78 76.1599 248.23C77.6699 246.3 74.1298 245.52 73.2398 244.56C72.4698 243.73 71.7498 241.88 72.0198 240.72C72.5798 238.27 75.6198 240.11 76.9998 238.87C78.1198 244.07 83.1299 247.97 87.4799 250.58C88.9699 251.47 91.4998 252.93 93.0698 253.5L93.0598 253.51Z" fill="#C3EE79"/>
<path d="M231.2 227.85L230.04 229.44C229.01 231.39 228.56 232.84 228.87 235.1C229.02 236.2 230.23 238.49 230.23 239C230.23 239.51 228.53 243.65 228.25 244.92C226.68 252.06 227.53 258.34 230.72 264.88C230.3 266.23 229.6 267.48 229.1 268.79C228.72 269.8 228.22 272.03 227.8 272.77C227.4 273.47 227.13 273.2 226.63 272.82C220.27 268 217.27 254.52 218.27 246.94C219.27 239.36 224.02 231.29 231.19 227.85H231.2Z" fill="#BFA187"/>
<path d="M262.86 283.01C263.34 287.12 263.39 290.32 261.14 293.88C257.07 300.29 250.26 304.11 243.44 307C243.19 306.72 244.12 300.47 244.17 299.46C244.44 294.13 243.73 288.81 243.68 283.5C249.7 285.95 256.81 285.03 262.86 283.02V283.01Z" fill="#A87A58"/>
<path d="M97.1399 239.6C95.4899 242.91 94.0499 246.7 93.7799 250.39C81.6999 245.94 75.2799 236.88 81.6599 224.24L82.9799 222.09C84.8999 227.02 87.9899 231.77 91.8499 235.4C93.1899 236.66 95.5799 238.71 97.1299 239.59L97.1399 239.6Z" fill="#BFA187"/>
<path d="M116.08 219.45C117.87 224.47 117.9 230.66 118.2 235.96C116.18 236.16 114.09 238.91 112.71 239.46C108.76 241.06 102.31 238.69 98.8101 236.71C100.57 233.5 103.07 230.19 105.52 227.47C108.35 224.32 111.98 220.75 116.08 219.44V219.45Z" fill="#A87A59"/>
<path d="M190.91 332.18C191.26 331.22 192.14 331.59 192.84 331.35C193.07 331.27 195.14 329.34 195.33 329.05C196.68 327.04 195.27 323.48 192.82 323.07C193.94 320.93 195.13 317.34 193.98 315.08C193.51 314.15 192.66 313.8 192.35 313.24C192.3 313.14 192.41 312.79 192.23 312.53C191.76 311.83 189.64 311.69 190.67 309.65C192.02 309.9 194.09 309.81 195.29 310.18C195.98 310.39 197.91 312.4 198.74 312.97C200.41 314.11 205.43 316.64 207.33 316.85C208.86 317.02 210.48 316.62 212.01 316.97C213.05 317.92 213.91 321.05 214.99 321.66C215.79 322.12 218.69 321.64 218.89 323.47C219.25 326.76 214.75 327.14 212.49 326.31C209.88 325.35 211.84 324.66 211.48 323.01C211.2 321.73 206.06 318.03 204.74 317.51C203.07 316.86 199.97 316.85 199.01 318.59C198.79 318.99 197.42 323.44 197.38 323.92C197.09 327.16 200.49 325.94 200.22 328.41C199.77 332.52 194.08 333.46 190.91 332.19V332.18Z" fill="#96DF3A"/>
<path d="M97.1398 239.6C100.79 241.67 105.31 242.43 109.37 243.32C107.51 245.82 107.07 249.27 104.02 250.68C100.02 252.54 97.6898 251.84 93.7798 250.39C94.0498 246.69 95.4898 242.91 97.1398 239.6Z" fill="#A87A58"/>
<path d="M93.0601 253.51C94.7801 254.14 97.2301 254.59 99.0601 254.71C98.3701 256.96 97.5801 261.28 99.4201 263.1C101.26 264.92 106.57 264.18 104.01 268.65C102.03 272.11 98.7301 273.47 94.9801 271.97C95.8201 270.16 97.9801 271.54 98.7101 269.1C99.7101 265.78 95.7701 262.72 94.4601 259.9C93.5601 257.96 93.2501 255.62 93.0701 253.5L93.0601 253.51Z" fill="#96DF3A"/>
<path d="M191.15 113.68C192.9 112.98 193.69 112.27 195.63 113.16C199.19 114.79 199.55 121.21 200.75 124.47C197.18 124.97 193.68 126.02 190.44 127.59C191.06 125.35 193.09 123.32 193.32 121C193.57 118.49 192.23 115.86 191.16 113.68H191.15Z" fill="#96DF3A"/>
<path d="M240.32 228.09C240.08 232.11 243.07 234.39 239.24 237.44C237.34 238.95 236.33 238.49 234.09 238.88C234.01 238.57 234.2 238.13 233.97 237.68C233.57 236.89 232.52 237.42 232 235.33C230.79 230.49 235.81 226.68 240.33 228.08L240.32 228.09Z" fill="#C3EE79"/>
<path d="M253.51 238.16C253.69 240.28 255.65 242.95 255.08 245.12C254.87 245.91 253.31 248.4 252.68 248.96C252.54 249.08 251.05 250.09 250.95 250.12C250.39 250.26 248.88 249.55 248 250.4C246.34 247.52 246.55 243.83 248.38 241.06C249.31 239.65 251.25 238.08 253 237.97C253.37 237.95 253.47 238.16 253.52 238.17L253.51 238.16Z" fill="#C3EE79"/>
<path d="M246.8 270.3C247 270.55 247.56 271.93 247.9 272.44C250 275.61 252.05 278.38 255.19 280.61C252.23 281.96 249.02 282.3 245.83 281.22C244.54 280.78 243.85 280.19 243.95 278.85C244.07 277.31 245.07 271.47 245.65 270.23C245.73 270.06 245.8 269.93 245.96 269.83C246.12 270.05 246.7 270.18 246.8 270.3Z" fill="#BFA187"/>
<path d="M247.99 250.39C248.87 249.54 250.38 250.25 250.94 250.11C251.04 250.08 252.53 249.08 252.67 248.95C253.3 248.39 254.86 245.9 255.07 245.11C255.65 242.94 253.68 240.27 253.5 238.15C257.53 238.61 259.7 242.86 259.23 246.64C258.95 248.92 255.55 251.89 253.32 252.24C250.85 252.62 249.26 252.59 247.98 250.38L247.99 250.39Z" fill="#96DF3A"/>
<path d="M246.56 266.46C247.88 264.75 249.92 263.56 251.24 261.91C253.78 258.73 250.4 259.25 250.64 256.15C254.57 256.04 256.86 259.93 256.04 263.59C255.3 266.85 248.84 268.97 246.56 266.47V266.46Z" fill="#97E03A"/>
<path d="M233.53 242.31C233.81 242.72 234.27 245.76 234.32 246.44C234.59 250.04 234.02 253.65 233.29 257.16L232.17 260.95C229.64 254.72 229.7 247.6 232.53 241.53C232.71 241.9 233.39 242.1 233.54 242.32L233.53 242.31Z" fill="#C1EB77"/>
<path d="M190.91 332.18C188.52 331.23 187.64 329.26 188.3 326.81C189.14 323.69 191.5 325.61 192.83 323.07C195.27 323.48 196.68 327.05 195.34 329.05C195.15 329.34 193.08 331.28 192.85 331.35C192.15 331.59 191.27 331.22 190.92 332.18H190.91Z" fill="#C3EE79"/>
<path d="M234.08 238.88C236.32 238.49 237.33 238.94 239.23 237.44C243.07 234.39 240.08 232.11 240.31 228.09C241.64 228.5 243.25 230.49 243.68 231.79C244.68 234.81 244.83 237.68 242.06 239.8C240.47 241.02 238.38 241.19 236.46 240.69C235.98 240.57 234.18 239.3 234.07 238.88H234.08Z" fill="#96DF3A"/>
<path d="M251.11 234.56C251.8 233.63 254.58 232.08 254.9 231.03C255.43 229.28 253.51 226.57 253.75 224.72C256.72 224.08 257.91 225.39 258.97 228.01C259.56 229.46 260.16 230.75 259.16 232.16C257.31 234.78 255.91 234.33 253.16 234.56C252.14 234.65 252.83 235.16 251.11 234.55V234.56Z" fill="#96DF3A"/>
<path d="M253.75 224.73C253.51 226.57 255.43 229.28 254.9 231.04C254.58 232.09 251.8 233.63 251.11 234.57C250.15 234.23 249.76 234.21 249.14 233.3C246.56 229.48 249.99 225.55 253.74 224.74L253.75 224.73Z" fill="#C3EE79"/>
<path d="M190.67 309.63C189.64 311.68 191.76 311.82 192.23 312.51C192.41 312.77 192.29 313.12 192.35 313.22C190.37 312.72 188.58 312.14 186.5 312.29C185.83 312.34 181.09 313.23 180.75 313.44C180.13 313.82 180.31 315.73 179.22 316.05C178.63 316.22 176.66 316.19 176.17 315.84C174.92 314.96 176.32 312.02 177.71 311.63C178.64 311.37 180.39 312.21 181.62 311.96C183.29 311.62 186.98 309.01 188.17 308.9C189.08 308.81 189.94 309.48 190.67 309.62V309.63Z" fill="#C1EB77"/>
<path d="M250.63 256.15C250.39 259.25 253.77 258.73 251.23 261.91C249.91 263.56 247.87 264.75 246.55 266.46C243.61 263.22 245.86 256.28 250.63 256.15Z" fill="#C3EE79"/>
<path d="M130.23 316.11C130.43 314.22 132.3 312.22 131.19 310.35C135.24 308.51 140.04 304.27 141.03 299.8C141.46 299.84 141.3 301.08 141.25 301.34C140.82 303.61 136.25 309.49 134.9 312.26C134.6 312.86 134.38 314.17 134.19 314.43C134.1 314.56 131.59 315.95 131.44 316C131.08 316.12 130.61 316.17 130.24 316.11H130.23Z" fill="#96DF3A"/>
<path d="M82.2699 258.79C79.7099 261.27 80.6599 265.5 76.2699 267.3C74.5599 268 74.1799 268.07 72.4399 267.42C72.5699 266.12 73.6799 266.63 74.4199 266.41C75.5499 266.07 78.3799 263.81 78.6199 262.7C78.7599 262.05 78.5099 261.33 78.7899 260.71C78.8399 260.61 80.0999 259.13 80.2199 259.03C80.9599 258.39 81.3999 258.63 82.2599 258.79H82.2699Z" fill="#96DF3A"/>
<path d="M130.23 316.11C129.1 315.93 126.28 313.29 126.38 312.16C126.86 310.94 128.73 311.25 129.76 310.97C130.27 310.83 130.71 310.57 131.19 310.36C132.3 312.23 130.43 314.23 130.23 316.12V316.11Z" fill="#C1EB77"/>
<path d="M154.38 306.3C155.45 305.99 156.93 307.96 156.11 309.25C154.21 312.25 152.81 306.75 154.38 306.3Z" fill="#96DF3A"/>
<path d="M115.28 87.15C116.16 88.1 115.76 89.25 115 90.17C113.6 91.86 110 91.24 107.92 91.73C102.55 92.99 103.29 98.44 100.6 101.92C98.7198 104.35 96.9698 104.44 95.9298 101.35C95.2498 99.31 95.0798 96.5 95.4698 94.39C95.6498 93.41 97.0298 92.82 95.9498 91.49C94.7398 90.01 92.2398 92.3 90.5498 92.36C89.2598 92.41 87.6298 91.98 88.1398 90.41C88.9298 87.94 93.8798 87.68 92.3998 83.77C91.9298 82.51 88.0598 79.25 88.3098 77.86C88.5598 76.47 92.9398 77.82 93.8498 78.25C95.8698 79.21 96.5698 81.65 98.9298 78.88C100.27 77.31 102.69 71.43 104.52 71.03C108.48 70.16 105.25 76.46 105.07 78.3C104.28 86.2 111.85 83.41 115.3 87.14L115.28 87.15Z" fill="#FDDC5E"/>
<path d="M301.96 134.31C302.44 136.62 299 139.84 300.52 141.81C301.54 143.14 303.87 142.44 305.26 142.89C306.38 143.25 308.88 144.95 307.23 146.17C306.29 146.86 302.91 147.44 301.56 148.17C297.37 150.43 303.13 155.97 297.83 157.06C297.63 157.01 295.92 155.33 295.74 155.05C294.75 153.6 295.33 149.72 293.11 149.04C289.83 148.04 287.1 151.07 284.12 150.59C283.19 150.44 282.87 150.1 283.13 149.16C283.62 147.43 286.26 144.28 287.7 143.17C288.61 142.46 289.54 142.69 290.04 141.19C290.54 139.69 289.9 139.67 289.76 138.72C289.56 137.36 289.53 135.86 289.85 134.52C290.51 131.76 292.6 136.21 293.22 136.94C296.81 141.16 298.59 135.1 301.98 134.3L301.96 134.31Z" fill="#FCDC5E"/>
<path d="M195.23 207.94C195.05 210.11 193.19 211.09 191.15 211.06C186.9 211 178.92 206.58 174.36 205.18C159.71 200.71 149.48 202.12 134.68 202.67C132.1 202.77 125.66 203.11 123.87 201.23C119.38 196.52 126.7 189.73 130.87 187.82C141.38 183.01 157.64 184.03 168.61 186.95C177.38 189.28 196.17 196.76 195.23 207.94ZM175.6 202.62C179.64 203.86 183.44 205.84 187.42 207.23C191.4 208.62 193.55 209.29 191.67 204.18C189.12 197.26 173.97 191.3 167.21 189.55C157.34 187 140.85 186.07 131.57 190.71C128.89 192.05 124.69 195.66 125.96 199.02C126.19 199.25 128.02 199.72 128.45 199.77C131.39 200.11 135.23 199.47 138.25 199.31C139.4 199.25 140.58 199.38 141.74 199.31C141.61 198.14 142.33 197.04 143.06 196.19C148.76 189.52 163.06 191.94 169.88 195.76C172.51 197.23 175.35 199.38 175.6 202.63V202.62ZM144.86 199.06C154.16 198.14 163.19 199.41 172.2 201.58C169.81 198.36 165.48 196.75 161.7 195.77C156.57 194.44 148.01 193.89 144.86 199.06Z" fill="#030302"/>
<path d="M166.87 173.22C168.39 172.96 169.45 174.09 168.63 175.46C168.42 175.81 166.24 177.02 165.62 177.49C164.64 178.24 163.73 180.08 162.24 179.18C161.42 178.68 161.51 177.5 162.02 176.77C162.17 176.56 164.21 174.77 164.55 174.51C165.12 174.07 166.17 173.34 166.87 173.22Z" fill="#050403"/>
<path d="M152.21 171.33C152.93 172.37 158.19 176.73 155 177.67C153.34 178.16 153.11 176.61 152.29 175.69C151.69 175.02 149.7 173.35 149.51 172.69C149.04 171.02 151.08 170.11 152.21 171.33Z" fill="#050403"/>
<path d="M117.71 124.55C138.03 122.88 152.3 144.32 142.59 162.38C133.56 179.18 109.71 180.53 98.8598 164.85C87.6698 148.68 98.1798 126.16 117.71 124.55ZM127.35 129.04C108.93 122.76 91.6898 141.15 99.4898 159.18C106.38 175.11 128.75 177.27 138.44 162.79C139.22 161.62 140.41 159.9 140.43 158.54C137.2 162.2 132.91 164.23 127.96 163.81C124.45 163.52 119.88 162.29 117.17 159.97C107.5 151.71 112.01 133.84 123.63 129.98L127.36 129.04H127.35ZM127.05 132.21C113.88 133.94 109.63 155.58 122.98 159.67C129.05 161.53 134.25 161.25 138.48 156.12C142.71 150.99 142.83 145.37 139.62 139.43C136.87 134.35 133.09 131.42 127.04 132.21H127.05Z" fill="#030404"/>
<path d="M203.1 132.7C223.5 131.02 237.77 152.62 227.89 170.68C218.77 187.35 195.05 188.62 184.24 172.99C173.43 157.36 183.56 134.3 203.09 132.69L203.1 132.7ZM183.72 163.57C187.09 178.66 205.07 185.59 217.95 176.81C228.87 169.36 231.04 153.84 222.34 143.77C217.07 137.67 209.21 135.01 201.23 136.22L204.83 137.77C214.99 144.71 215.77 157.31 207.35 166.2C200.41 173.52 189.45 170.93 183.73 163.56L183.72 163.57ZM196.13 138.93C190.06 139.89 183.37 148.55 183.73 154.58C184.36 165.12 197.86 172.26 205.56 163.7C210.92 157.74 211.79 149.87 206.71 143.35C204.69 140.76 199.36 138.42 196.13 138.93ZM183.6 163.09V163.33C183.76 163.25 183.76 163.17 183.6 163.09Z" fill="#030404"/>
<path d="M145.1 264.78C145.77 262.67 146.21 259.92 146.95 257.64C148.33 253.39 150.12 249.26 151.26 244.92C151.74 243.11 152.58 237.08 153.24 236.11C153.36 235.93 153.77 235.56 153.96 235.52C154.95 235.31 155.85 236.27 155.78 237.2C155.63 239.13 154.2 243.52 153.6 245.59C152.21 250.35 150.36 254.95 149.04 259.74C148.46 261.85 148.38 267.51 145.08 264.78H145.1Z" fill="#050403"/>
<path d="M140.49 250.1C139.5 251.09 138.07 249.93 137.43 249.08C135.59 246.63 133.79 239.24 133.58 236.14C133.48 234.61 132.99 229.53 135.75 230.85C137 231.45 136.24 233.53 136.23 234.45C136.16 239.15 137.05 243.17 139.63 247.12C140.14 247.89 141.64 248.95 140.49 250.1Z" fill="#050403"/>
<path d="M264.54 100.25C265.98 99.24 268.01 99.63 267.37 101.76C261.2 107.24 257.76 114.11 255.74 122.02C255.16 124.31 254.88 125.12 254.96 127.48C255.01 128.84 254.06 129.36 252.79 129.03C251.69 128.74 251.8 126.97 251.9 126.1C252.5 120.68 256.19 111.61 259.21 107.03C260.13 105.63 263.39 101.06 264.54 100.25Z" fill="#030302"/>
<path d="M263.27 124.04C264.65 123.62 265.56 124.34 265.25 125.78C262.55 130.52 261.13 135.71 260.7 141.15C260.59 142.55 261.25 145.8 259.91 146.37C258.57 146.94 257.94 145.65 257.82 144.51C257.42 140.72 259.12 133.08 260.45 129.4C260.78 128.5 262.52 124.28 263.26 124.05L263.27 124.04Z" fill="#030302"/>
<path d="M175.6 202.62C175.35 199.37 172.51 197.23 169.88 195.75C163.06 191.93 148.76 189.51 143.06 196.18C142.33 197.03 141.61 198.13 141.74 199.3C140.59 199.36 139.41 199.23 138.25 199.3C135.24 199.46 131.39 200.1 128.45 199.76C128.02 199.71 126.19 199.24 125.96 199.01C124.69 195.65 128.88 192.04 131.57 190.7C140.85 186.06 157.34 186.99 167.21 189.54C173.97 191.29 189.12 197.25 191.67 204.17C193.55 209.28 191.21 208.54 187.42 207.22C183.44 205.83 179.64 203.86 175.6 202.61V202.62Z" fill="#843E47"/>
<path d="M144.86 199.06C148.01 193.89 156.57 194.44 161.7 195.77C165.48 196.75 169.8 198.36 172.2 201.58C163.2 199.41 154.16 198.13 144.86 199.06Z" fill="#C27877"/>
<path d="M127.35 129.04L123.62 129.98C112.01 133.83 107.5 151.71 117.16 159.97C119.87 162.29 124.44 163.52 127.95 163.81C132.9 164.22 137.19 162.2 140.42 158.54C140.41 159.9 139.22 161.62 138.43 162.79C128.74 177.27 106.37 175.11 99.4799 159.18C91.6799 141.15 108.92 122.76 127.34 129.04H127.35Z" fill="#EEFDF8"/>
<path d="M127.05 132.21C133.1 131.41 136.88 134.35 139.63 139.43C142.84 145.37 142.9 150.78 138.49 156.12C134.08 161.46 129.05 161.52 122.99 159.67C109.63 155.59 113.89 133.95 127.06 132.21H127.05Z" fill="#1A547C"/>
<path d="M183.72 163.57C189.45 170.94 200.41 173.53 207.34 166.21C215.77 157.32 214.99 144.73 204.82 137.78L201.22 136.23C209.2 135.01 217.06 137.68 222.33 143.78C231.02 153.84 228.86 169.37 217.94 176.82C205.07 185.6 187.08 178.67 183.71 163.58L183.72 163.57Z" fill="#EEFDF8"/>
<path d="M196.13 138.93C199.36 138.42 204.69 140.75 206.71 143.35C211.79 149.88 210.92 157.74 205.56 163.7C197.86 172.26 184.36 165.12 183.73 154.58C183.37 148.55 190.07 139.89 196.13 138.93Z" fill="#1A547C"/>
<path d="M183.6 163.09C183.76 163.17 183.76 163.25 183.6 163.33V163.09Z" fill="#EEFDF8"/>
</svg>
