<svg width="281" height="300" viewBox="0 0 281 300" fill="none" xmlns="http://www.w3.org/2000/svg">
<path d="M185.875 107.925C197.15 114.883 201.683 129.358 197.017 141.758C196.783 142.383 195.392 145.058 195.45 145.383C199.508 147.375 202 151.475 204.458 155.1C204.617 154.183 204.783 153.125 204.858 152.2C206.242 134.867 204.108 116.808 206.292 99.6666C207.892 87.1166 211.525 70.9166 221.558 62.3666C224.725 59.6666 227.458 57.8249 231.75 57.5666C233.275 57.4749 234.167 57.7582 235.208 58.8916C238.408 62.3832 236.467 67.1416 234.475 70.6832C233.783 71.9249 230.375 75.9666 231.692 77.2999C233.342 77.8999 234.625 77.8249 235.6 79.4832C237.658 82.9916 235.842 87.1749 233.8 90.1999C232.708 91.8249 230.542 93.7499 229.95 95.5416C228.833 98.8832 232.125 97.9749 233.75 99.5249C236.175 101.85 235.883 105.783 235.183 108.767C233.908 114.192 229.292 118.717 226.742 123.517C223.958 128.75 221.692 134.65 219.95 140.308C217.717 147.567 216.025 154.975 214.85 162.492C216.167 162.642 217.433 163.767 218.45 164.592C226.408 171.075 231.525 181.108 234.775 190.633C238.933 202.8 236.925 213.975 229.2 224.117C226.733 227.358 223.242 229.842 219.725 231.842C219.942 232.75 220.458 233.583 220.692 234.492C221.333 236.933 221.542 244.425 220.95 246.85C220.283 249.575 217.217 252.3 215.025 253.917C210.625 257.158 205.167 258.442 200.15 260.425C199.883 262.233 199.892 264.067 199.6 265.867C198.642 271.775 197.275 277.033 192.05 280.5C191.108 281.125 188.85 282.217 188.358 280.625C188.058 279.667 189.233 275.117 189.442 273.692C190.008 269.7 190.308 265.642 190.667 261.625C187.675 262.35 184.617 263.008 181.55 263.4C174.475 264.3 162.142 264.85 155.242 263.575C151.083 262.808 149.092 259.45 148.092 255.633C144.675 256.433 141.925 255.35 139.117 253.517C135.475 251.142 133.075 246.617 136.7 243.042C135.917 243.067 135.1 242.533 134.392 242.442C133.983 242.392 134.133 242.458 134.1 242.733C133.992 243.533 134.192 244.367 134.017 245.25C133.625 247.183 131.85 249.658 131.358 251.783C130.342 256.167 132.133 262.792 136.7 264.517C138.575 265.225 141.508 265.108 142.992 266.217C144.583 267.408 144.408 268.992 143.1 270.317C138.208 275.25 125.442 274.225 119.517 271.508C115.45 269.642 114.7 265.517 114.917 261.417C113.45 261.367 111.758 261.05 110.308 260.725C101.992 258.867 92.5083 254.767 92.5083 244.725C92.5083 243.842 93.1 242.283 92.8916 241.567C92.8333 241.367 91.8916 240.3 91.625 239.825C90.6666 238.108 88.4833 232.9 88.3666 231.075C88.3333 230.592 88.7333 230.242 88.6333 230.025C88.5333 229.792 86.3916 228.067 85.925 227.533C80.075 220.85 81.55 206.642 82.7666 198.383C83.9833 190.125 85.9166 182.492 89.7166 175.375C89.7666 174.417 87.525 172.933 86.8333 172.075C83.8583 168.392 83.9 163.5 84.125 158.975C84.3 155.608 85.0666 152.425 86.3166 149.317C79.0333 145.258 73.8666 137.592 72.6 129.35C70.6333 116.6 77.2666 104.133 89.0583 98.9582C96.275 95.7832 104.533 95.8916 111.708 99.1332C112.408 97.3166 114.158 95.4082 115.908 94.5332C115.433 93.8416 115.442 93.0582 115.508 92.2416C116.017 86.3332 121.883 84.8582 126.825 84.1749C130.358 83.6832 134.125 83.6166 137.692 83.5499C138.108 78.9499 138.3 74.0749 138.1 69.4499C137.825 63.1999 136.183 58.4249 141.683 53.6666C152.85 44.0082 175.25 47.0332 182.233 60.4916C184.15 64.1832 184.058 65.8166 181.817 69.2249C178.108 74.8832 175.358 76.4416 173.725 83.7166C173.475 84.8416 172.583 90.4916 173.258 91.0499C176.383 92.1999 179.092 93.8082 181.8 95.6999C184.783 97.7832 190.783 101.783 187.742 106.125C187.167 106.942 186.108 107.092 185.858 107.933L185.875 107.925ZM165.692 51.5666C158.558 49.7249 149.55 50.5999 143.7 55.4582C138.75 59.5749 140.567 63.5749 140.717 69.0416C140.842 73.8582 140.817 78.7499 140.317 83.5332C140.55 83.7999 146.425 83.8582 147.4 83.9416C150.442 84.2166 153.517 84.8999 156.5 85.5416C161.342 86.5832 166.242 87.7416 170.692 89.9416C170.7 84.2249 172.233 77.9832 175.525 73.2916C176.867 71.3832 180.725 67.2499 181.008 65.1666C181.333 62.7749 177.808 58.2582 176.092 56.6666C173.192 53.9666 169.483 52.5499 165.692 51.5749V51.5666ZM228.85 76.7499C228.617 72.1166 234.858 68.1582 234.25 62.8582C233.867 59.5416 231.55 60.0249 229.042 60.6499C225.483 61.5416 219.917 67.2666 217.975 70.3666C209.692 83.5499 208.567 99.4249 208.075 114.625C207.692 126.567 208.392 138.467 207.467 150.392C206.717 160.067 205.325 170.4 203.417 179.917C202.85 182.725 202.3 185.767 201.133 188.375C203.758 191.275 205.075 194.792 203.775 198.667C202.925 201.183 201.658 203.242 199.075 204.2C197.833 213.7 194.242 222.725 192.183 232.042C191.158 236.692 190.942 239.542 191.742 244.283C192.075 246.267 192.733 248.175 193.058 250.158C193.842 254.942 193.275 259.367 192.883 264.125C192.492 268.883 192.158 273.308 191.283 277.817C193.108 276.292 194.7 274.883 195.517 272.558C197.408 267.217 198.225 258.083 198.483 252.342C198.842 244.342 196.208 237.6 199.125 229.6C201.158 224.017 205.767 217.65 206.425 211.708C206.525 210.8 205.55 209.583 205.258 208.575C204.15 204.775 205.542 201.342 209.067 199.567C203.108 197.208 205.267 188.408 209.958 185.875C211.617 177.342 211.425 168.467 212.692 159.833C213.667 153.192 215.483 145.725 217.458 139.317C219.075 134.05 221.408 128.375 223.883 123.458C226.475 118.317 235.458 108.3 232.617 102.483C231.567 100.342 229.275 101.467 227.817 99.0916C225.267 94.9082 230.017 91.3832 232.017 88.2249C233.158 86.4082 234.175 84.3416 233.808 82.1166C233.442 79.8916 232.383 80.5832 230.858 79.8666C229.558 79.2582 228.933 78.2082 228.858 76.7666L228.85 76.7499ZM168.308 103.508C172.025 103.383 175.467 103.608 179.033 104.675C179.767 104.9 182.383 106.075 182.742 106.075C184.433 106.067 186.367 104.65 185.783 102.725C184.983 100.075 176.433 95.1416 173.817 93.9082C164.392 89.4332 154.075 86.7332 143.608 86.1416C138.258 85.8332 124.392 85.7999 120.125 88.8582C118.758 89.8416 117.758 91.8332 118.308 93.4582C122.325 92.2166 127.233 95.3416 129.267 98.6749C130.3 100.367 131.867 102.475 132.708 104.025C133.475 105.425 133.6 107.158 134.433 108.533C137.733 108.158 140.75 109.033 143.892 109.833C145.15 108.817 146.008 107.367 147.092 106.225C149.758 103.4 156.017 97.0166 159.808 96.5582C164.133 96.0332 167.592 99.4166 168.3 103.508H168.308ZM144.7 122.517C147.575 112.992 156.125 105.842 165.8 103.933C165.8 101.742 163.133 98.9416 160.992 98.9249C158.275 98.9082 154.492 102.525 152.592 104.317C151.325 105.508 149.992 106.85 148.8 108.117C147.908 109.05 145.717 112.208 144.567 112.475C143.025 112.833 140.275 111.342 138.592 111.142C137.392 111 135.858 111.117 134.608 111.108C133.875 111.108 133.367 111.542 132.608 110.925C131.758 110.233 131.125 106.55 130.558 105.383C130.092 104.442 128.717 102.925 128.033 101.908C126.908 100.225 126.683 99.0249 124.9 97.6416C122.292 95.6166 119.4 95.0166 116.533 97.0332C115.867 97.4999 113.717 99.7082 114.217 100.517C121.525 104.833 126.767 112.617 127.717 121.108C132.542 118.633 137.733 119.125 142.508 121.4C142.942 121.608 144.45 122.717 144.7 122.508V122.517ZM127.85 124.25C127.017 124.875 126.133 125.375 125.425 124.308C124.825 113.317 117.867 103.483 107.133 100.433C85.4666 94.2749 67.65 117.383 78.1166 137.042C87.6333 154.9 113.25 154.525 122.483 136.575C124.083 133.467 123.967 131.617 127.383 129.683C132.175 126.958 141.217 127.967 145.017 132.108C146.158 133.358 146.358 137.133 146.9 139.017C154.283 164.392 191.058 162.225 195.617 136.358C200.717 107.383 161.283 93.5666 147.875 121.592C147.133 123.142 146.9 125.717 144.467 125.292C143.7 125.158 141.267 123.608 140.167 123.175C135.742 121.433 131.708 121.358 127.858 124.258L127.85 124.25ZM169.292 159.692C157.742 159.35 147.358 150.7 144.208 139.708C143.867 138.508 143.258 133.867 142.917 133.4C142.6 132.967 140.558 131.992 139.958 131.758C136.35 130.342 130.333 129.983 127.308 132.808C126.4 133.658 125.025 137.725 124.15 139.242C119 148.192 109.008 153.467 98.675 153.092L97.9166 154.6C97.9166 155.025 98.8583 155.233 99.175 155.35C105.833 157.767 115.308 158.717 122.392 159.717C135.708 161.592 151.592 163.717 165 162.9C166.433 162.817 167.85 162.433 169.275 162.283V159.692H169.292ZM171.483 261.625C174.792 261.583 178.458 261.225 181.75 260.8C182.775 260.667 190.775 259.35 190.883 258.9C190.65 257.408 191.1 255.75 191.083 254.342C191.033 249.842 188.958 244.7 188.667 239.95C188.442 236.233 189.608 232.65 190.275 229.05C188.35 228.833 186.275 226.267 185.083 224.75C178.925 216.917 178.758 206.925 181.333 197.633C183.233 190.767 187.333 186.067 192.975 181.892C195.242 180.217 198.058 179.025 200.867 179.892L204.075 160.017C202.042 156.333 200.308 152.658 197.183 149.7C196.325 148.892 194.717 147.533 193.475 148.208C193.3 148.308 191.408 150.85 190.975 151.308C190.217 152.108 188.192 153.45 188.067 154.392C188.025 154.717 188.042 156.958 188.108 157.067C189.258 157.408 192.958 160.917 193.225 161.842C193.6 163.125 192.55 164.158 191.392 163.475C190.517 162.958 189.142 160.242 187.875 159.7C187.175 167.483 181.925 177.183 175.017 181.117C173.108 182.2 171.867 182.167 170.092 182.792C169.275 183.083 166.667 184.908 165.483 185.483C161.508 187.425 157.367 188.892 152.892 189.083C153.142 191.55 153.183 194.092 153.1 196.592C152.8 206.008 150.433 215.442 149.692 224.767C149.425 228.15 149.508 231.758 149.292 235.158C149.142 237.55 148.625 239.975 148.5 242.358C148.3 246.1 150.142 256.783 152.783 259.45C154.5 261.192 157.075 261.317 159.392 261.442C163.175 261.642 167.675 261.692 171.483 261.642V261.625ZM168.883 172.283C168.825 172.233 168.408 171.408 168.375 171.292C168.033 169.983 169.083 169.808 169.083 169.592V164.892C167.008 165.158 164.858 165.675 162.792 165.283C142.633 165.042 121.558 163.225 101.925 158.6C100.267 158.208 98.575 157.842 97.025 157.125C96.7833 157.15 96.0916 159.458 95.9916 159.85C95.6666 161.117 95.7916 163.967 94.0833 163.658C91.9416 163.275 93.6833 159.242 94.0833 157.942C94.625 156.167 95.3333 154.45 95.9333 152.7L93.3333 152.2L88.525 150.583C87.45 152.95 86.9666 155.417 86.7333 158C86.3416 162.417 86.1666 168.183 89.725 171.392C91.3083 172.817 90.9333 172.083 92.05 174.067C94.2833 178.05 97.7583 180.117 102.117 181.283C102.517 179.5 102.608 177.633 102.975 175.842C103.275 174.392 103.808 171.167 105.992 172.308C106.867 172.767 107.575 175.025 108.15 175.95C108.692 176.825 113.133 182.125 113.817 182.075C114.808 179.992 115.575 177.85 116.833 175.9C118.092 173.95 123.05 167.133 125.108 166.583C125.767 166.408 126.275 166.408 126.8 166.9C127.175 167.25 128.442 169.375 128.75 169.95C130.242 172.75 131.358 175.958 132.617 178.875C134.15 177.408 139.575 172.042 141.442 171.942C143.308 171.842 143.575 175.067 143.708 176.383C143.942 178.742 143.883 181.483 143.908 183.875C143.917 184.733 143.892 185.6 143.917 186.467C151.858 187.842 159.708 186.042 166.625 182.117C167.425 181.658 168.675 180.492 169.342 180.242C170.008 179.992 170.783 180.125 171.592 179.9C179.417 177.717 186.392 163.617 185.475 155.808L180.583 158.108C178.742 158.833 176.833 159.2 174.883 159.5C173.825 159.667 172.758 159.692 171.708 159.925C171.567 162.558 171.508 165.167 171.475 167.808C171.475 168.208 171.692 168.625 171.683 168.9C171.667 169.625 171.383 171.708 170.892 172.208C170.4 172.708 169.383 172.758 168.883 172.3V172.283ZM221.7 190.425C221.817 190.567 222.45 190.758 222.85 191.175C225.542 194.05 229.092 200.033 229.442 203.967C230 210.158 226.025 219.05 222.733 224.233C221.675 225.9 220.325 227.367 219.35 229.042C226.117 225.733 230.567 218.658 232.992 211.708C236.183 202.558 233.433 193.45 229.942 184.883C227.367 178.567 221.925 170.725 216.55 166.5C216.325 166.325 214.8 165.117 214.658 165.3L213.042 183.367C213.75 183.5 214.233 184.375 214.667 184.583C216.633 185.517 217.775 184.758 219.95 186.7C221.817 188.358 221.117 189.733 221.708 190.442L221.7 190.425ZM123.917 170.683C121.45 173.242 117.992 178.308 116.767 181.625C116.142 183.325 116.267 186.417 113.575 185.325C113.35 185.233 111.858 183.883 111.525 183.583C109.475 181.75 107.692 179.658 106.083 177.433L105.333 176.083C104.558 180.225 104.175 184.15 104.325 188.383C104.783 201.167 109.392 208.008 112.783 219.5C114.983 226.958 113.7 232.492 114.325 239.75C114.833 245.608 122.65 247.975 121.908 253.117C121.625 255.075 117.933 258.133 117.575 259.775C117.15 261.675 117.492 266.117 118.733 267.725C120.333 269.808 126.55 271.058 129.125 271.225C131.967 271.4 137.642 270.958 140.1 269.508C140.533 269.258 140.9 268.65 141.308 268.325C141.308 268.042 136.6 267.233 135.867 266.975C130.092 264.908 127.633 257 128.808 251.433C129.267 249.258 131.867 245.158 131.508 243.35C131.442 243.025 130.025 241.133 129.708 240.75C127.975 238.7 126.267 238.208 125.942 235.125C125.025 226.3 130.675 216.617 134.283 208.942C139.167 198.55 142.458 187.625 141.092 176.008C141.067 175.817 140.983 175.133 140.617 175.292C138.733 176.875 136.392 178.392 134.808 180.283C133.733 181.567 133.9 181.675 133.425 183.092C133.158 183.883 132.242 184.317 131.525 183.767C130.908 183.283 129.725 178.242 129.267 177.033C128.892 176.058 125.958 169.617 125.408 169.492C124.725 169.667 124.35 170.242 123.925 170.683H123.917ZM93.5416 211.858C94.9333 212.25 96.0916 213 97.7416 212.658C97.575 211.667 97.9 210.7 97.95 209.767C98.275 203.125 97.825 195.925 97.5416 189.275C97.4416 186.85 97.3666 184.45 96.85 182.075C94.8416 180.933 92.975 179.633 91.45 177.883C86.6416 186.65 85.1833 197.042 84.3916 206.917C86.2333 210.2 90.1833 210.908 93.55 211.858H93.5416ZM200.258 182.283C196.808 181.408 194.183 183.992 191.775 186.075C187.2 190.033 184.8 193.483 183.375 199.458C181.217 208.525 181.725 217.625 188.375 224.65C188.775 225.075 190.525 227.025 191.067 226.642C191.108 225.333 192.617 222.242 192.475 221.167C192.425 220.817 191.617 219.742 191.375 219.058C190.683 217.083 189.758 213.358 189.367 211.275C188.625 207.325 190.008 203.008 191.833 199.533C189.317 194.558 192.667 186.767 198.842 187.442C199.625 185.842 200.075 184.067 200.267 182.283H200.258ZM101.9 184.108L99.5333 183.275C99.5333 183.717 99.725 184.117 99.7416 184.567C100.175 196.9 101.1 209.258 99.3083 221.525C98.9666 223.892 97.5166 228.367 97.5916 230.392C97.6083 230.808 97.975 231.058 97.9083 231.5C97.8583 231.825 97.3666 232.333 97.225 232.833C96.475 235.467 94.9833 242.8 95.1416 245.333C95.6416 253.475 103.65 256.633 110.517 258.133C111.35 258.317 114.592 258.983 115.183 258.833L119.208 253.025C119.683 251.75 118.967 250.933 118.217 250.033C115.167 246.325 112.05 244.967 111.708 239.35C111.475 235.475 112.058 231.2 111.725 227.142C110.992 218.292 106.083 210.725 103.858 202.433C102.658 197.967 102.133 193.408 101.917 188.783C101.842 187.233 102.017 185.658 101.892 184.108H101.9ZM215.658 187.475C215.333 187.383 215.25 187.075 214.567 187.058C211.425 186.95 208.383 189.917 208.067 192.975C207.983 193.783 208.183 195.692 208.65 196.35C208.8 196.55 209.033 196.45 209.067 196.475C213.275 200.017 219.625 197.458 219.258 191.583C219.075 188.692 218.242 188.2 215.667 187.483L215.658 187.475ZM150.3 189.475L143.308 188.875C143.092 190.325 142.942 192.075 142.617 193.483C140.167 203.967 134.925 211.608 131.217 221.258C130.667 222.683 129.475 225.608 129.35 227C129.333 227.225 129.267 227.4 129.508 227.542C135.1 229.75 140.867 231.683 146.9 232.242C146.917 217.892 151.492 203.867 150.3 189.467V189.475ZM194.067 198.467C194.417 199.358 195.95 201.733 196.858 201.983C197.533 202.167 199.492 201.208 199.975 200.675C200.767 199.808 201.858 196.917 201.867 195.758C201.883 194.35 201.133 193.225 200.458 192.067C200.15 191.55 200.358 191.292 199.558 190.667C197.8 189.292 196.4 189.767 195.058 191.358C193.258 193.5 193.058 195.892 194.067 198.458V198.467ZM206.658 230.85C212.717 230.683 216.317 229.05 219.817 224.117C222.875 219.8 227.192 210.467 227.025 205.192C226.908 201.358 224.183 197.1 221.75 194.283C221.558 194.283 221.075 196.067 220.892 196.417C220.075 197.983 218.4 198.933 217.058 199.975C221.542 202 221.083 209.925 216.658 211.667C218.642 215.367 220.942 218.55 218.025 222.517C214.558 227.233 208.292 226.133 205.967 221.05C205.117 222.8 204.117 224.5 203.267 226.242C203.05 226.683 201.292 230.292 201.467 230.442C203.242 230.675 204.858 230.892 206.667 230.842L206.658 230.85ZM208.458 209.458C208.842 210.017 209.633 210.8 210.35 210.825C211.633 210.867 215.317 209.883 216.325 209.025C217.708 207.842 218.2 204.592 217.125 203.108C216.833 202.708 215.175 201.592 214.708 201.5C214.042 201.375 213.375 201.65 212.658 201.658C212.408 201.658 211.575 201.467 211.192 201.533C207.367 202.158 206.425 206.5 208.467 209.45L208.458 209.458ZM196.433 204.492C195.083 204.067 194.175 203.175 193.367 202.067C190.842 206.633 191.542 211.708 193.167 216.45C193.267 216.742 193.292 217.05 193.567 217.25L196.433 204.492ZM93.7416 214.658C90.5333 213.742 87.05 212.658 84.35 210.658C84.1833 216.408 84.475 222.967 89.05 227.042C90.75 228.55 92.975 229.925 95.3416 229.842C95.4333 228.067 96.025 226.375 96.3416 224.642C96.9083 221.533 97.2333 218.392 97.5416 215.25C96.1666 215.425 95.025 215.017 93.7416 214.65V214.658ZM214.258 213.258C212.733 212.892 211.133 213.192 209.717 213.817C207.25 214.892 207.258 217.958 208.283 220.133C208.483 220.558 208.7 220.633 208.858 220.858C208.917 220.942 208.9 221.192 209.05 221.358C211.225 223.8 214.283 223.5 216.142 220.85C217.608 218.758 216.5 216.3 215.292 214.333C214.967 213.808 214.9 213.425 214.258 213.267V213.258ZM218.958 229.05L218.658 229.35L218.75 229.442C218.858 229.317 219.15 229.183 218.95 229.05H218.958ZM128.717 229.85C128.433 230.142 128.458 234.775 128.608 235.458C129.258 238.567 135.575 240.425 138.267 241.183C139.417 241.508 145.442 243.092 146.017 242.25L146.717 235.542L146.517 234.733C140.367 233.975 134.533 231.85 128.717 229.85ZM94.7083 232.475L91.1416 231.65C91.55 233.883 92.4666 235.967 93.3416 238.042C93.8666 238.1 93.6583 238.033 93.7416 237.75C93.9583 237.033 94.95 232.85 94.7083 232.475ZM200.467 257.425C204.975 255.933 209.908 254.5 213.75 251.625C216.892 249.267 218.783 247.317 218.85 243.133C218.85 242.758 218.633 242.367 218.642 241.942C218.683 238.925 218.95 235.858 217.458 233.133C217.017 232.825 214.383 233.767 213.55 233.842C210.85 234.083 207.45 233.758 204.758 233.442C204.175 233.375 200.808 232.708 200.667 232.85C199.558 238.183 200.475 243.592 201.067 248.925L200.458 257.425H200.467ZM146.083 245.058C145.217 244.717 144.283 244.942 143.433 244.817C142.417 244.658 140.308 243.875 139.5 244.125C139.125 244.242 137.808 245.533 137.658 245.892C136.158 249.575 142.6 253.367 145.625 253.417C146.15 253.425 146.725 253.117 147.3 253.233L146.083 245.058Z" fill="#020202"/>
<path d="M165.492 185.475C166.675 184.9 169.283 183.075 170.1 182.783C171.867 182.158 173.117 182.2 175.025 181.108C181.934 177.175 187.184 167.475 187.884 159.691C189.15 160.233 190.525 162.95 191.4 163.466C192.558 164.15 193.609 163.116 193.234 161.833C192.959 160.908 189.259 157.408 188.117 157.058C188.042 156.941 188.034 154.7 188.075 154.383C188.2 153.441 190.225 152.1 190.983 151.3C191.417 150.841 193.308 148.3 193.483 148.2C194.717 147.516 196.334 148.875 197.192 149.691C200.317 152.65 202.05 156.325 204.083 160.008L200.875 179.883C198.067 179.016 195.25 180.208 192.984 181.883C187.35 186.058 183.25 190.758 181.342 197.625C178.767 206.925 178.934 216.908 185.092 224.741C186.284 226.258 188.358 228.825 190.283 229.041C189.617 232.641 188.45 236.225 188.675 239.941C188.959 244.691 191.042 249.833 191.092 254.333C191.108 255.733 190.659 257.4 190.892 258.891C190.784 259.35 182.784 260.658 181.759 260.791C178.467 261.225 174.8 261.575 171.492 261.616C169.317 257.283 167.883 252.558 166.792 247.825C162.517 229.233 163.542 212.541 164.9 193.758L165.5 185.458L165.492 185.475Z" fill="#A87A59"/>
<path d="M228.85 76.7502C227.858 76.9169 226.808 77.9585 226.05 78.6502C225.142 79.4669 223.833 80.6252 223.458 81.7502C222.55 81.9252 220.1 85.0252 219.5 85.8835C216.542 90.0752 214.25 94.4335 213.467 99.5335H213.067C212.933 99.8335 213.258 100.059 213.267 100.134C213.283 100.259 213.267 100.4 213.267 100.534H212.867C212.733 100.825 213.058 101.067 213.067 101.134C213.083 101.267 213.042 101.425 213.067 101.534C212.525 101.417 212.675 101.8 212.6 102.159C210.45 113.209 216.517 124.434 217.258 135.217C217.35 136.542 217.025 138.059 217.458 139.309C215.492 145.725 213.667 153.192 212.692 159.825C211.425 168.459 211.617 177.334 209.958 185.867C205.258 188.4 203.1 197.2 209.067 199.559C205.542 201.325 204.15 204.758 205.258 208.567C205.55 209.575 206.525 210.792 206.425 211.7C205.767 217.642 201.158 224.009 199.125 229.592C196.208 237.592 198.842 244.333 198.483 252.333C198.225 258.083 197.408 267.217 195.517 272.55C194.692 274.875 193.1 276.275 191.283 277.809C192.158 273.3 192.508 268.692 192.883 264.117C193.258 259.542 193.833 254.934 193.058 250.15C192.733 248.167 192.075 246.259 191.742 244.275C190.942 239.534 191.158 236.684 192.183 232.034C194.242 222.717 197.833 213.684 199.075 204.192C201.658 203.234 202.925 201.175 203.775 198.659C205.075 194.784 203.758 191.267 201.133 188.367C202.3 185.767 202.858 182.717 203.417 179.909C205.325 170.392 206.717 160.067 207.467 150.384C208.392 138.459 207.692 126.559 208.075 114.617C208.567 99.4168 209.692 83.5419 217.975 70.3585C219.925 67.2585 225.483 61.5335 229.042 60.6419C231.55 60.0169 233.867 59.5335 234.25 62.8502C234.858 68.1502 228.625 72.1002 228.85 76.7419V76.7502Z" fill="#94664B"/>
<path d="M127.85 124.25C131.7 121.35 135.734 121.425 140.159 123.167C141.25 123.6 143.692 125.142 144.459 125.283C146.9 125.708 147.134 123.133 147.867 121.583C161.275 93.5583 200.709 107.375 195.609 136.35C191.059 162.217 154.284 164.383 146.892 139.008C146.342 137.125 146.15 133.35 145.009 132.1C141.209 127.958 132.175 126.958 127.375 129.675C123.959 131.617 124.075 133.458 122.475 136.567C113.234 154.517 87.6252 154.9 78.1085 137.033C67.6335 117.375 85.4502 94.2666 107.125 100.425C117.859 103.475 124.817 113.308 125.417 124.3C126.125 125.358 127.009 124.867 127.842 124.242L127.85 124.25ZM98.0918 103.792C83.5085 105 74.5335 120.358 80.3752 133.783C87.3668 149.85 110.017 150.958 118.625 135.717C127.125 120.65 115.25 102.375 98.0918 103.792ZM169.25 110.583C154.667 111.792 145.692 127.15 151.534 140.575C158.525 156.642 181.175 157.75 189.784 142.508C198.284 127.442 186.409 109.167 169.25 110.583Z" fill="#354B65"/>
<path d="M143.9 183.875C143.875 181.483 143.933 178.742 143.7 176.384C143.566 175.067 143.283 171.842 141.433 171.942C139.583 172.042 134.141 177.408 132.608 178.875C131.358 175.958 130.241 172.75 128.741 169.95C128.433 169.375 127.175 167.25 126.791 166.9C126.266 166.408 125.758 166.4 125.1 166.583C123.041 167.133 118.125 173.892 116.825 175.9C115.525 177.908 114.8 179.992 113.808 182.075C113.125 182.125 108.683 176.825 108.141 175.95C107.566 175.025 106.866 172.775 105.983 172.309C103.8 171.159 103.266 174.392 102.966 175.842C102.6 177.625 102.508 179.5 102.108 181.283C97.7498 180.117 94.2748 178.05 92.0415 174.067C90.9248 172.084 91.2998 172.817 89.7165 171.392C86.1581 168.183 86.3331 162.417 86.7248 158C86.9498 155.417 87.4415 152.958 88.5165 150.583L93.3248 152.2L95.9248 152.7C95.3248 154.45 94.6165 156.167 94.0748 157.942C93.6748 159.242 91.9331 163.275 94.0748 163.658C95.7831 163.967 95.6581 161.117 95.9831 159.85C96.0831 159.459 96.7831 157.142 97.0165 157.125C98.5665 157.842 100.258 158.209 101.916 158.6C121.558 163.225 142.625 165.042 162.783 165.283C164.85 165.675 167 165.158 169.075 164.892V169.592C169.075 169.808 168.025 169.992 168.366 171.292C168.4 171.409 168.816 172.234 168.875 172.284C168.3 173.125 167.633 173.892 166.883 174.583C162.833 178.317 155.491 182.167 150.125 183.408C148.025 183.892 146.041 183.942 143.891 183.875H143.9Z" fill="#C4EE79"/>
<path d="M171.484 261.625C167.684 261.675 163.184 261.625 159.392 261.425C157.075 261.3 154.5 261.175 152.784 259.433C150.142 256.758 148.3 246.083 148.5 242.342C148.625 239.958 149.142 237.533 149.292 235.142C149.509 231.75 149.425 228.133 149.692 224.75C150.425 215.425 152.8 205.992 153.1 196.575C153.175 194.083 153.142 191.542 152.892 189.067C157.367 188.883 161.517 187.408 165.484 185.467L164.884 193.767C163.534 212.542 162.5 229.242 166.775 247.833C167.867 252.567 169.3 257.283 171.475 261.625H171.484Z" fill="#C0A187"/>
<path d="M123.317 211.859C122.625 212.717 122.925 212.909 122.717 213.659C120.508 221.567 118.617 230.309 121.567 238.292C123.408 243.275 126.908 246.325 126.292 252.309C125.833 256.75 122.558 260 124.808 264.834C125.9 267.167 127.308 267.85 128.908 269.525C129.567 270.217 129.542 270.417 129.108 271.225C126.533 271.067 120.317 269.817 118.717 267.725C117.475 266.109 117.133 261.675 117.558 259.775C117.925 258.142 121.608 255.084 121.892 253.117C122.633 247.975 114.808 245.609 114.308 239.75C113.683 232.492 114.967 226.959 112.767 219.5C109.383 208.009 104.767 201.167 104.308 188.384C104.158 184.15 104.55 180.225 105.317 176.084L106.067 177.434C107.675 179.659 109.458 181.75 111.508 183.584C111.85 183.884 113.333 185.234 113.558 185.325C116.25 186.417 116.125 183.334 116.75 181.625C117.975 178.309 121.433 173.242 123.9 170.684C124.575 173.275 125.475 175.842 126 178.475C127.317 185.084 127.308 194.659 126.275 201.334C125.708 204.959 124.225 208.325 123.3 211.85L123.317 211.859ZM115.775 193.725C115.675 193.825 115.4 194.459 115.367 194.617C115.117 196.1 117 202.475 117.917 203.767C118.517 204.609 119.892 205.225 120.417 204.059C120.858 203.084 119.917 202.484 119.575 201.709C118.817 199.975 118.083 197.55 117.808 195.675C117.742 195.2 118.008 194.85 117.833 194.259C117.575 193.384 116.35 193.175 115.767 193.717L115.775 193.725Z" fill="#D6D2C9"/>
<path d="M169.291 159.692V162.283C167.858 162.433 166.433 162.817 165 162.9C151.592 163.717 135.716 161.592 122.391 159.717C115.308 158.725 105.833 157.767 99.1748 155.35C98.8582 155.233 97.9165 155.025 97.9165 154.6L98.6748 153.092C109.008 153.458 119 148.192 124.15 139.242C125.025 137.725 126.4 133.658 127.308 132.808C130.333 129.983 136.35 130.342 139.958 131.758C140.558 131.992 142.592 132.967 142.917 133.4C143.258 133.867 143.867 138.508 144.208 139.708C147.358 150.7 157.741 159.358 169.291 159.692Z" fill="#C4EE79"/>
<path d="M168.309 103.508C167.6 99.4166 164.142 96.0332 159.817 96.5582C156.017 97.0166 149.767 103.4 147.1 106.225C146.017 107.367 145.159 108.817 143.9 109.833C140.767 109.042 137.742 108.158 134.442 108.533C133.609 107.15 133.484 105.425 132.717 104.025C131.875 102.475 130.309 100.358 129.275 98.6749C127.242 95.3416 122.334 92.2166 118.317 93.4582C117.767 91.8332 118.767 89.8416 120.134 88.8582C124.392 85.7999 138.259 85.8332 143.617 86.1416C154.084 86.7416 164.4 89.4332 173.825 93.9082C176.442 95.1499 184.992 100.075 185.792 102.725C186.375 104.65 184.442 106.067 182.75 106.075C182.392 106.075 179.784 104.9 179.042 104.675C175.475 103.608 172.034 103.383 168.317 103.508H168.309Z" fill="#7D543C"/>
<path d="M123.917 170.683C124.342 170.242 124.717 169.667 125.4 169.492C125.95 169.617 128.892 176.058 129.258 177.033C129.717 178.242 130.9 183.283 131.517 183.767C132.225 184.317 133.142 183.883 133.417 183.092C133.892 181.675 133.733 181.567 134.8 180.283C136.383 178.392 138.717 176.875 140.608 175.292C140.975 175.133 141.058 175.817 141.083 176.008C142.45 187.617 139.167 198.55 134.275 208.942C130.667 216.617 125.017 226.3 125.933 235.125C126.258 238.208 127.967 238.7 129.7 240.75C130.017 241.125 131.433 243.025 131.5 243.35C131.858 245.158 129.25 249.25 128.8 251.433C127.625 257.008 130.083 264.908 135.858 266.975C136.583 267.233 141.3 268.05 141.3 268.325C140.892 268.65 140.517 269.258 140.092 269.508C137.633 270.958 131.958 271.4 129.117 271.225C129.542 270.425 129.575 270.217 128.917 269.525C127.317 267.842 125.908 267.167 124.817 264.833C122.567 260 125.833 256.758 126.3 252.308C126.925 246.333 123.417 243.275 121.575 238.292C118.625 230.3 120.517 221.567 122.725 213.658C123.8 214.683 124.692 214.158 125.633 213.267C127.683 211.333 130.167 204.917 131.067 202.108C131.392 201.092 132.158 198.967 131.883 198.008C131.625 197.133 130.217 196.958 129.717 197.758C129.358 198.333 128.9 201.383 128.583 202.417C127.833 204.858 126.233 208.5 124.7 210.525C124.283 211.075 123.658 211.45 123.333 211.858C124.25 208.333 125.742 204.967 126.308 201.342C127.342 194.667 127.358 185.092 126.033 178.483C125.508 175.85 124.608 173.283 123.933 170.692L123.917 170.683Z" fill="#B4AE9F"/>
<path d="M101.9 184.108C102.025 185.658 101.85 187.233 101.925 188.783C102.142 193.408 102.667 197.958 103.867 202.433C106.092 210.733 111 218.292 111.733 227.142C112.067 231.2 111.483 235.475 111.717 239.35C112.058 244.958 115.167 246.325 118.225 250.033C118.967 250.933 119.692 251.75 119.217 253.025L115.192 258.833C114.6 258.983 111.358 258.317 110.525 258.133C103.658 256.633 95.6499 253.475 95.1499 245.333C94.9915 242.8 96.4832 235.467 97.2332 232.833C97.3749 232.333 97.8665 231.825 97.9165 231.5C97.9832 231.058 97.6165 230.808 97.5999 230.392C97.5165 228.375 98.9665 223.892 99.3165 221.525C101.108 209.25 100.183 196.9 99.7499 184.567C99.7332 184.117 99.5415 183.725 99.5415 183.275L101.908 184.108H101.9Z" fill="#C0A187"/>
<path d="M165.691 51.5665C165.508 52.5748 166.675 52.5998 166.983 52.9665C167.133 53.1415 167.4 54.2165 167.433 54.5082C168.525 62.5582 162.916 66.7748 159.858 73.4082C158.166 77.0832 156.85 81.5165 156.491 85.5332C153.508 84.8915 150.441 84.2082 147.391 83.9332C146.408 83.8415 140.541 83.7915 140.308 83.5248C140.808 78.7415 140.833 73.8498 140.708 69.0332C140.567 63.5665 138.75 59.5665 143.691 55.4498C149.533 50.5832 158.55 49.7082 165.683 51.5582L165.691 51.5665Z" fill="#94664C"/>
<path d="M228.85 76.7501C228.925 78.1834 229.55 79.2334 230.85 79.8501C232.375 80.5667 233.442 79.9417 233.8 82.1001C234.159 84.2584 233.159 86.3917 232.009 88.2084C230.017 91.3751 225.259 94.9001 227.809 99.0751C229.267 101.458 231.559 100.325 232.609 102.467C235.459 108.292 226.467 118.3 223.875 123.442C221.4 128.367 219.067 134.033 217.45 139.3C217.017 138.05 217.342 136.533 217.25 135.208C216.509 124.433 210.442 113.2 212.592 102.15C212.659 101.792 212.509 101.408 213.059 101.525C213.134 101.817 213.059 102.075 213.275 102.4C213.759 103.125 214.959 103.05 215.35 102.317C215.884 101.308 216 97.8251 216.4 96.3667C217.175 93.5501 220.509 88.0667 222.459 85.8334C223.009 85.2084 224.659 83.9334 224.867 83.4417C225.3 82.3917 224.517 81.5251 223.45 81.7334C223.834 80.6001 225.142 79.4501 226.042 78.6334C226.8 77.9501 227.85 76.9084 228.842 76.7334L228.85 76.7501ZM221.4 105.567C220.192 105.825 217.817 110.417 217.284 111.658C216.575 113.308 214.659 119.058 215.1 120.583C215.375 121.542 216.909 121.575 217.309 120.675C217.55 120.142 217.609 118.558 217.792 117.758C218.467 114.825 219.459 111.842 221.167 109.342C221.625 108.675 222.75 107.675 222.925 107.083C223.234 106.025 222.442 105.342 221.4 105.558V105.567Z" fill="#7D543C"/>
<path d="M150.3 189.475C151.492 203.867 146.917 217.892 146.9 232.25C140.867 231.692 135.108 229.758 129.508 227.55C129.267 227.408 129.325 227.233 129.35 227.008C129.475 225.608 130.675 222.683 131.217 221.267C134.925 211.608 140.167 203.967 142.617 193.492C142.942 192.083 143.092 190.333 143.308 188.883L150.3 189.483V189.475Z" fill="#7D543C"/>
<path d="M165.692 51.5669C169.475 52.5502 173.183 53.9586 176.092 56.6586C177.8 58.2502 181.325 62.7669 181.008 65.1586C180.725 67.2419 176.867 71.3752 175.525 73.2836C172.233 77.9752 170.7 84.2252 170.692 89.9336C166.242 87.7336 161.342 86.5752 156.5 85.5336C156.858 81.5169 158.167 77.0752 159.867 73.4086C162.925 66.7752 168.533 62.5586 167.442 54.5086C167.4 54.2086 167.133 53.1419 166.992 52.9669C166.683 52.6002 165.517 52.5669 165.7 51.5669H165.692Z" fill="#7D553C"/>
<path d="M144.7 122.517C144.45 122.725 142.942 121.617 142.508 121.409C137.725 119.134 132.542 118.642 127.717 121.117C126.767 112.625 121.525 104.85 114.217 100.525C113.717 99.7169 115.867 97.5086 116.533 97.0419C119.4 95.0252 122.292 95.6169 124.9 97.6502C126.683 99.0336 126.9 100.234 128.033 101.917C128.717 102.934 130.092 104.45 130.558 105.392C131.133 106.559 131.767 110.242 132.608 110.934C133.367 111.55 133.875 111.117 134.608 111.117C135.858 111.117 137.392 111.009 138.592 111.15C140.275 111.35 143.025 112.842 144.567 112.484C145.725 112.217 147.917 109.067 148.8 108.125C150 106.859 151.333 105.517 152.592 104.325C154.492 102.534 158.275 98.9169 160.992 98.9336C163.133 98.9502 165.808 101.75 165.8 103.942C156.125 105.85 147.575 113 144.7 122.525V122.517Z" fill="#C3ED79"/>
<path d="M200.467 257.425L201.075 248.925C200.484 243.583 199.559 238.183 200.675 232.85C200.825 232.708 204.184 233.375 204.767 233.441C207.459 233.758 210.859 234.083 213.559 233.841C214.4 233.766 217.025 232.833 217.467 233.133C218.95 235.858 218.684 238.933 218.65 241.941C218.65 242.366 218.867 242.758 218.859 243.133C218.792 247.316 216.9 249.266 213.759 251.625C209.917 254.508 204.984 255.933 200.475 257.425H200.467Z" fill="#A87A58"/>
<path d="M174.883 159.491C176.833 159.183 178.742 158.825 180.583 158.1L185.475 155.8C186.392 163.608 179.417 177.708 171.592 179.891C170.775 180.116 170.042 179.975 169.342 180.233C168.642 180.491 167.425 181.658 166.625 182.108C159.708 186.041 151.858 187.833 143.917 186.458C143.883 185.6 143.917 184.733 143.908 183.866C146.058 183.941 148.042 183.891 150.142 183.4C155.508 182.158 162.842 178.3 166.9 174.575C167.65 173.883 168.325 173.116 168.892 172.275C169.4 172.733 170.408 172.691 170.9 172.183C171.392 171.675 171.675 169.6 171.692 168.875C173.733 166.25 174.9 162.816 174.892 159.483L174.883 159.491Z" fill="#97E03A"/>
<path d="M200.258 182.283C200.067 184.067 199.625 185.833 198.833 187.442C192.667 186.767 189.317 194.558 191.825 199.533C190 203.008 188.617 207.325 189.358 211.275C189.75 213.358 190.675 217.083 191.367 219.058C191.608 219.742 192.417 220.817 192.467 221.167C192.608 222.242 191.1 225.333 191.058 226.642C190.508 227.025 188.767 225.075 188.367 224.65C181.717 217.625 181.208 208.525 183.367 199.458C184.792 193.483 187.2 190.033 191.767 186.075C194.175 183.992 196.792 181.408 200.25 182.283H200.258Z" fill="#BFA087"/>
<path d="M97.5333 189.275C97.025 189.25 97.0166 189.55 96.875 189.917C95.2583 194.075 95.0833 200.15 94.1416 204.567L93.5416 211.858C90.175 210.908 86.2333 210.2 84.3833 206.917C85.175 197.042 86.6333 186.658 91.4416 177.883C92.9666 179.633 94.8333 180.933 96.8416 182.075C97.3583 184.45 97.4333 186.85 97.5333 189.275Z" fill="#C0A187"/>
<path d="M206.658 230.85C205.292 229.483 204.283 227.883 203.258 226.25C204.108 224.5 205.108 222.808 205.958 221.058C208.283 226.133 214.55 227.242 218.017 222.525C220.933 218.558 218.633 215.375 216.65 211.675C221.075 209.925 221.533 202 217.05 199.983C218.392 198.942 220.067 197.992 220.883 196.425C221.067 196.075 221.55 194.292 221.742 194.292C224.175 197.108 226.9 201.367 227.017 205.2C227.175 210.475 222.858 219.817 219.808 224.125C216.308 229.058 212.717 230.692 206.65 230.858L206.658 230.85Z" fill="#A77A58"/>
<path d="M128.717 229.85C134.534 231.85 140.367 233.975 146.517 234.733L146.717 235.542L146.017 242.25C145.434 243.092 139.417 241.508 138.267 241.183C135.575 240.425 129.259 238.558 128.609 235.458C128.467 234.775 128.442 230.142 128.717 229.85Z" fill="#444C7C"/>
<path d="M93.7416 214.658C93.5416 216.158 94.5249 223.541 95.3249 224.366C95.6249 224.675 95.9333 224.7 96.3333 224.658C96.0166 226.383 95.4249 228.083 95.3333 229.858C92.9666 229.941 90.7416 228.566 89.0416 227.058C84.4666 222.983 84.1666 216.425 84.3416 210.675C87.0416 212.675 90.5249 213.758 93.7333 214.675L93.7416 214.658Z" fill="#C0A187"/>
<path d="M97.5332 189.275C97.8165 195.925 98.2665 203.133 97.9415 209.767C97.8999 210.692 97.5665 211.667 97.7332 212.658C96.0832 213 94.9332 212.25 93.5332 211.858L94.1332 204.567C95.0749 200.15 95.2499 194.075 96.8665 189.917C97.0082 189.55 97.0165 189.258 97.5249 189.275H97.5332Z" fill="#A87A58"/>
<path d="M146.083 245.058L147.3 253.233C146.725 253.108 146.15 253.425 145.625 253.417C142.6 253.367 136.158 249.575 137.658 245.892C137.8 245.533 139.125 244.242 139.5 244.125C140.308 243.875 142.417 244.658 143.433 244.817C144.283 244.95 145.217 244.717 146.083 245.058Z" fill="#7D543C"/>
<path d="M215.658 187.475C215.4 188.775 216.55 189.975 216.467 191.166C216.375 192.5 214.092 195.808 212.767 196.275C211.175 196.841 210.442 195.633 209.058 196.466C209.025 196.441 208.792 196.541 208.642 196.341C208.167 195.691 207.967 193.783 208.058 192.966C208.383 189.908 211.417 186.95 214.558 187.05C215.242 187.075 215.333 187.383 215.65 187.466L215.658 187.475Z" fill="#C4EE79"/>
<path d="M200.467 192.075C200.483 193.692 200.175 195.5 199.442 196.95C198.083 199.617 196.508 198.3 194.067 198.475C193.058 195.909 193.258 193.517 195.058 191.375C196.4 189.784 197.8 189.309 199.558 190.684C200.358 191.309 200.15 191.559 200.458 192.084L200.467 192.075Z" fill="#C4EE79"/>
<path d="M214.258 213.258C214.708 214.467 215.158 214.975 215.066 216.367C214.891 218.933 211.458 221.783 208.866 220.858C208.708 220.633 208.491 220.567 208.291 220.133C207.266 217.958 207.258 214.892 209.725 213.817C211.141 213.2 212.741 212.892 214.266 213.258H214.258Z" fill="#C3ED79"/>
<path d="M196.433 204.492L193.566 217.25C193.283 217.05 193.266 216.742 193.166 216.45C191.541 211.709 190.841 206.625 193.366 202.067C194.175 203.175 195.083 204.067 196.433 204.492Z" fill="#C2EC78"/>
<path d="M209.058 196.467C210.441 195.642 211.175 196.842 212.766 196.275C214.091 195.808 216.375 192.5 216.466 191.167C216.55 189.975 215.4 188.767 215.658 187.475C218.233 188.192 219.066 188.683 219.25 191.575C219.616 197.45 213.275 200.008 209.058 196.467Z" fill="#96DF3A"/>
<path d="M212.659 201.666C213.375 201.658 214.042 201.383 214.708 201.508C215.175 201.6 216.842 202.716 217.125 203.116C218.2 204.6 217.708 207.85 216.325 209.033C215.317 209.891 211.633 210.875 210.35 210.833C209.633 210.808 208.85 210.025 208.458 209.466C210.058 209.958 212.934 208.233 213.5 206.816C214.167 205.175 212.975 203.241 212.65 201.675L212.659 201.666Z" fill="#96DF3A"/>
<path d="M212.658 201.666C212.983 203.241 214.175 205.175 213.508 206.808C212.933 208.225 210.058 209.95 208.467 209.458C206.425 206.5 207.375 202.166 211.192 201.541C211.575 201.475 212.408 201.675 212.658 201.666Z" fill="#C4EE79"/>
<path d="M194.067 198.467C196.509 198.292 198.084 199.609 199.442 196.942C200.175 195.492 200.475 193.684 200.467 192.067C201.142 193.217 201.884 194.342 201.875 195.759C201.867 196.917 200.767 199.809 199.984 200.675C199.5 201.209 197.542 202.167 196.867 201.984C195.959 201.742 194.425 199.359 194.075 198.467H194.067Z" fill="#96DF3A"/>
<path d="M93.7417 214.658C95.0251 215.025 96.1584 215.433 97.5417 215.258C97.2334 218.4 96.9084 221.542 96.3417 224.65C95.9334 224.692 95.6334 224.667 95.3334 224.358C94.5251 223.542 93.5501 216.15 93.7501 214.65L93.7417 214.658Z" fill="#A77A58"/>
<path d="M208.858 220.85C211.45 221.783 214.883 218.925 215.058 216.358C215.15 214.975 214.7 214.458 214.25 213.25C214.892 213.408 214.958 213.792 215.283 214.317C216.492 216.283 217.6 218.742 216.133 220.833C214.283 223.483 211.217 223.783 209.042 221.342C208.892 221.175 208.908 220.933 208.85 220.842L208.858 220.85Z" fill="#96DF3A"/>
<path d="M174.883 159.492C174.892 162.825 173.733 166.267 171.683 168.883C171.683 168.608 171.467 168.2 171.475 167.792C171.508 165.15 171.567 162.542 171.708 159.908C172.758 159.675 173.825 159.658 174.883 159.483V159.492Z" fill="#C3ED79"/>
<path d="M94.7083 232.475C94.9499 232.85 93.9583 237.033 93.7416 237.75C93.6583 238.033 93.8666 238.108 93.3416 238.042C92.4666 235.967 91.5499 233.883 91.1416 231.65L94.7083 232.475Z" fill="#C2EC78"/>
<path d="M206.659 230.85C204.85 230.9 203.242 230.683 201.459 230.45C201.284 230.3 203.042 226.692 203.259 226.25C204.275 227.883 205.284 229.475 206.659 230.85Z" fill="#BFA087"/>
<path d="M218.958 229.05C219.158 229.183 218.867 229.316 218.758 229.441L218.667 229.35L218.967 229.05H218.958Z" fill="#A77A58"/>
<path d="M221.7 190.425C221.108 189.717 221.808 188.342 219.942 186.684C217.767 184.75 216.633 185.508 214.658 184.567C214.225 184.358 213.742 183.483 213.033 183.35L214.65 165.283C214.8 165.108 216.317 166.308 216.542 166.483C221.917 170.717 227.358 178.55 229.933 184.867C233.425 193.433 236.175 202.55 232.983 211.692C230.558 218.642 226.108 225.717 219.342 229.025C220.317 227.35 221.667 225.883 222.725 224.217C226.017 219.033 229.992 210.142 229.433 203.95C229.075 200.017 225.533 194.025 222.842 191.158C222.45 190.733 221.808 190.55 221.692 190.409L221.7 190.425Z" fill="#A77A58"/>
<path d="M213.059 101.533C213.034 101.425 213.075 101.267 213.059 101.133C213.309 101.033 213.259 100.75 213.259 100.533C213.259 100.4 213.275 100.258 213.259 100.133C213.534 100.033 213.425 99.7416 213.458 99.5332C214.242 94.4332 216.534 90.0749 219.492 85.8832C220.1 85.0249 222.55 81.9249 223.45 81.7499C224.517 81.5416 225.3 82.4082 224.867 83.4582C224.659 83.9582 223.009 85.2249 222.459 85.8499C220.509 88.0832 217.175 93.5582 216.4 96.3832C216 97.8416 215.884 101.325 215.35 102.333C214.967 103.067 213.758 103.142 213.275 102.417C213.058 102.083 213.134 101.833 213.059 101.542V101.533Z" fill="#030202"/>
<path d="M213.458 99.5332C213.425 99.7415 213.533 100.033 213.258 100.133C213.25 100.067 212.925 99.8332 213.058 99.5332H213.458Z" fill="#7D543C"/>
<path d="M213.258 100.533C213.258 100.75 213.308 101.033 213.058 101.133C213.058 101.067 212.725 100.825 212.858 100.533H213.258Z" fill="#7D543C"/>
<path d="M169.25 110.583C186.408 109.167 198.283 127.442 189.783 142.508C181.175 157.758 158.525 156.642 151.533 140.575C145.692 127.15 154.667 111.792 169.25 110.583ZM169.45 113.383C158.133 114.317 150.3 125.45 153.042 136.467C156.733 151.292 176.15 155.583 185.675 143.6C195.908 130.733 185.783 112.042 169.45 113.383Z" fill="#050506"/>
<path d="M98.0918 103.792C115.25 102.375 127.125 120.65 118.625 135.717C110.017 150.967 87.3668 149.85 80.3751 133.784C74.5335 120.359 83.5085 105 98.0918 103.792ZM98.2918 106.592C86.9751 107.525 79.1418 118.659 81.8835 129.675C85.5751 144.5 104.992 148.792 114.517 136.809C124.75 123.942 114.625 105.25 98.2918 106.592Z" fill="#050506"/>
<path d="M122.717 213.658C122.925 212.908 122.625 212.717 123.317 211.858C123.642 211.45 124.267 211.075 124.683 210.525C126.225 208.5 127.825 204.858 128.567 202.417C128.883 201.383 129.342 198.333 129.7 197.758C130.2 196.958 131.608 197.133 131.867 198.008C132.15 198.967 131.375 201.092 131.05 202.108C130.15 204.917 127.667 211.333 125.617 213.267C124.675 214.158 123.783 214.683 122.708 213.658H122.717Z" fill="#040404"/>
<path d="M115.775 193.725C116.35 193.184 117.575 193.392 117.842 194.267C118.017 194.859 117.75 195.209 117.817 195.684C118.092 197.55 118.825 199.984 119.584 201.717C119.925 202.492 120.867 203.092 120.425 204.067C119.9 205.234 118.534 204.617 117.925 203.775C117.009 202.484 115.125 196.109 115.375 194.625C115.4 194.467 115.675 193.825 115.784 193.734L115.775 193.725Z" fill="#050606"/>
<path d="M221.4 105.566C222.442 105.35 223.233 106.033 222.925 107.091C222.75 107.683 221.633 108.675 221.167 109.35C219.45 111.85 218.467 114.833 217.792 117.766C217.608 118.558 217.55 120.15 217.308 120.683C216.908 121.575 215.375 121.55 215.1 120.591C214.658 119.066 216.575 113.316 217.283 111.666C217.817 110.425 220.192 105.833 221.4 105.575V105.566Z" fill="#030202"/>
<path d="M169.45 113.383C185.775 112.042 195.9 130.733 185.675 143.6C176.15 155.583 156.742 151.292 153.042 136.467C150.3 125.458 158.125 114.317 169.45 113.383ZM181.333 133.85C181.85 134.283 182.75 134.233 183.175 133.708C183.775 132.95 183.317 132.292 182.917 131.575C179.2 124.942 163.917 121.733 159.292 128.417C158.592 129.425 158.7 131.408 160.175 131.308C161.417 131.225 161.108 130.2 161.475 129.6C161.575 129.433 162.475 128.783 162.708 128.633C168.35 125.042 176.925 127.608 180.758 132.733C180.967 133.017 181.083 133.642 181.333 133.85Z" fill="#EEFDF8"/>
<path d="M98.2919 106.592C114.617 105.25 124.742 123.942 114.517 136.808C104.992 148.792 85.5835 144.5 81.8835 129.675C79.1419 118.667 86.9669 107.525 98.2919 106.592ZM111.784 126.258C112.417 126.9 113.675 126.733 113.884 125.767C114.359 123.617 110.942 120.658 109.259 119.683C104.192 116.75 95.2335 115.692 90.8335 120.308C89.9252 121.258 87.7336 124.5 89.6252 125.333C91.1502 126 91.2919 123.992 91.6919 123.175C94.7835 116.833 107.792 119.3 111.092 124.642C111.359 125.067 111.484 125.95 111.775 126.25L111.784 126.258Z" fill="#EEFDF8"/>
<path d="M181.333 133.85C181.075 133.633 180.967 133.017 180.758 132.733C176.925 127.608 168.35 125.042 162.708 128.633C162.475 128.783 161.575 129.433 161.475 129.6C161.108 130.208 161.417 131.225 160.175 131.308C158.7 131.408 158.592 129.425 159.292 128.417C163.917 121.733 179.2 124.942 182.917 131.575C183.317 132.292 183.767 132.95 183.175 133.708C182.758 134.242 181.85 134.283 181.333 133.85Z" fill="#050606"/>
<path d="M111.784 126.258C111.484 125.958 111.359 125.075 111.1 124.65C107.809 119.3 94.8002 116.833 91.7002 123.183C91.3002 124.008 91.1585 126.008 89.6335 125.342C87.7335 124.517 89.9335 121.275 90.8419 120.317C95.2419 115.7 104.2 116.75 109.267 119.692C110.95 120.667 114.359 123.625 113.892 125.775C113.684 126.742 112.425 126.908 111.792 126.267L111.784 126.258Z" fill="#050505"/>
</svg>
