<svg width="248" height="276" viewBox="0 0 248 276" fill="none" xmlns="http://www.w3.org/2000/svg">
<path d="M152.005 64.5736C172.455 70.7836 181.915 95.3236 171.185 113.864L176.665 119.654L180.025 124.564C180.085 123.414 179.965 122.234 180.025 121.074C180.535 110.724 180.645 100.774 180.525 90.3736C180.325 72.8736 178.385 58.5836 184.825 41.6936C187.835 33.8036 198.115 17.7636 204.895 12.8336C208.395 10.2836 216.395 5.8636 219.225 11.3736C222.165 17.1136 216.145 21.2436 213.755 25.5236C213.375 26.2036 212.875 26.8536 213.235 27.6736L213.525 27.8636C216.115 27.8336 218.395 27.6236 219.895 30.1236C223.775 36.5936 218.285 42.1436 215.185 47.1036C214.485 48.2236 213.265 49.8536 213.715 51.1736C213.965 51.9136 217.885 53.6836 218.935 55.3136C223.225 61.9436 217.595 67.4136 214.375 72.6736C202.515 92.0336 198.295 113.734 194.875 135.944L195.135 136.904C198.115 138.674 200.695 141.094 203.175 143.494C216.195 156.054 227.065 176.664 222.445 195.154C219.615 206.494 213.765 215.664 202.825 220.514C202.705 220.674 203.275 223.814 203.295 224.444C203.715 237.594 190.395 245.434 179.595 249.334L175.585 265.344C174.175 268.774 169.855 278.434 164.835 275.384C161.485 273.344 164.485 266.494 165.095 263.484C165.835 259.844 166.435 256.064 166.835 252.394C166.305 251.864 154.495 255.584 152.685 255.034L153.685 257.384C157.945 257.954 160.365 261.154 158.625 265.414C156.965 269.484 149.145 269.664 146.195 266.904C144.225 265.064 145.525 263.364 144.775 262.324C144.535 261.984 141.125 259.684 140.615 259.534C140.025 259.354 139.525 259.284 138.905 259.334L137.785 262.574C139.675 263.834 140.605 265.034 140.445 267.394C139.865 275.954 126.185 277.464 122.645 270.304C121.275 267.524 122.045 262.554 125.005 261.074C125.725 260.714 126.805 260.654 127.215 260.164C127.965 259.294 128.875 256.334 128.065 255.284C127.055 253.964 121.635 254.384 120.295 255.164C119.665 255.524 118.885 257.204 117.815 257.724C116.195 258.514 112.935 258.344 111.425 257.294C107.765 254.764 110.435 248.044 114.165 247.594C115.465 247.434 116.935 248.084 117.655 247.974C118.005 247.924 121.525 246.394 121.815 246.174L121.965 245.684C120.565 245.214 119.705 243.934 118.745 243.034C118.125 242.444 117.445 242.064 116.805 241.374C114.035 238.344 111.845 232.444 107.395 231.594C103.415 230.824 99.4855 229.594 95.4455 228.914C94.8255 228.814 95.1855 229.024 95.3455 229.254C96.1055 230.414 96.9655 231.234 97.5455 232.574C99.6155 237.344 97.4655 240.214 93.4255 242.694C96.5855 243.934 97.8655 248.434 94.8655 250.604C97.0955 252.054 99.8455 251.674 102.225 252.594C106.645 254.304 110.875 260.514 110.465 265.244C110.265 267.594 108.945 268.144 107.025 268.994C103.645 270.484 101.215 270.924 97.7455 269.314C96.7555 268.854 95.9355 267.984 95.0355 267.474C88.2855 263.624 80.6755 266.314 73.9255 262.194C71.8355 260.914 70.7255 259.844 70.6355 257.204C68.2755 259.214 65.0755 257.884 63.0755 256.014C61.0755 254.144 60.1555 252.344 60.5555 249.534C60.0455 249.514 59.5255 249.454 59.0555 249.234C55.2455 247.404 50.1055 242.694 47.9355 239.004C46.2055 236.064 46.1355 234.564 47.3555 231.404C49.2555 226.474 51.4755 221.764 52.9455 216.614C55.5055 207.624 56.0355 197.584 56.0055 188.264C56.0055 184.904 55.5055 181.404 55.2755 178.064C52.6655 179.554 49.9455 182.134 48.3655 184.704C46.7855 187.274 46.2155 190.184 43.2855 191.854C40.7155 193.324 38.9455 192.724 38.5055 196.434C38.4355 197.034 38.3655 199.024 38.5155 199.484C38.7055 200.054 41.0155 200.624 41.7555 201.034C48.7855 204.954 41.7055 213.804 35.8955 214.694C34.5355 214.904 31.3455 214.054 30.0755 213.434C28.4255 212.634 25.6555 209.554 25.5155 207.674C25.3455 205.384 27.5055 203.344 27.3355 202.034C27.0355 199.714 23.1355 198.534 21.4455 200.014C20.7855 200.594 19.7055 203.764 19.0755 204.844C16.4655 209.324 10.8155 211.424 6.33547 208.144C2.35547 205.234 2.10547 198.914 3.93547 194.744C-2.37453 191.874 -0.744535 182.894 6.31546 182.854C5.68546 180.244 6.02547 177.524 8.35547 175.894C10.0055 174.744 11.6755 175.414 13.5155 175.654C13.1255 170.084 14.1555 165.104 17.0155 160.324C19.3955 156.334 26.5155 149.904 30.7055 147.864C33.9055 146.304 37.4155 145.534 40.8655 144.714C38.3155 136.584 39.1755 127.124 42.7655 119.434C33.6955 114.634 26.9555 106.624 24.6755 96.5036C19.0655 71.6336 40.8955 49.9436 65.6455 55.9336C67.5555 53.9736 69.2355 51.6036 71.7555 50.4036C70.4755 39.0936 84.2155 34.9736 93.0655 33.9336C95.3555 33.6636 97.7055 33.8036 99.9455 33.4336C100.705 32.3036 101.585 31.0236 102.075 29.7436C104.355 23.8136 103.095 16.2536 104.535 10.1436C105.975 4.0336 116.255 0.513601 121.815 0.0836008C128.045 -0.396399 133.255 1.2636 139.085 3.1936C149.265 6.5636 154.365 13.5736 158.595 23.0136C161.595 29.6836 159.135 36.6836 154.315 41.6936C152.435 43.6436 149.775 44.6236 148.085 46.4936C147.185 47.4836 145.625 50.0436 145.475 51.3436C145.405 52.0036 147.335 53.3136 147.935 54.0636C148.735 55.0536 149.405 56.4036 149.955 57.5536C150.985 59.6936 152.085 62.1536 151.945 64.5636L152.005 64.5736ZM131.825 4.4136C129.505 3.7436 128.465 3.0636 125.715 2.9636C120.715 2.7836 109.155 5.1136 107.625 10.7936C106.095 16.4736 107.305 24.2036 105.075 30.3136C104.685 31.3836 103.955 32.3736 103.515 33.4336C110.905 33.5736 118.105 35.6536 124.865 38.4736C131.625 41.2936 137.115 45.1836 142.845 49.5036C143.255 47.7936 144.465 46.0236 145.605 44.7036C147.805 42.1536 150.675 41.2236 152.915 38.5836C156.175 34.7336 157.955 30.0636 156.155 25.0436C153.985 18.9736 148.205 10.5436 142.295 7.7336C138.945 6.1336 135.355 5.4436 131.815 4.4136H131.825ZM210.255 29.3536C210.115 28.9636 209.975 27.0736 210.015 26.5936C210.355 22.3236 217.485 18.5536 216.715 13.6536C216.215 10.4736 212.135 12.2336 210.255 13.1536C200.225 18.0736 188.935 37.5236 185.915 48.0536C182.425 60.2036 183.255 69.6036 183.405 81.9836C183.685 105.214 183.825 128.954 180.755 152.024C180.365 154.984 179.965 158.044 179.085 160.914C178.785 161.894 177.795 162.914 178.155 163.984C178.245 164.254 182.255 166.464 182.315 167.744C183.325 164.484 186.585 163.104 187.725 159.964C190.515 152.264 191.005 141.634 192.335 133.394C193.745 124.654 195.285 114.314 197.545 105.864C200.715 93.9836 205.215 82.1036 211.595 71.5836C213.945 67.7136 218.615 63.1536 216.905 58.3136C215.835 55.2836 213.095 55.5736 211.455 53.4436C207.795 48.6736 215.635 42.7636 217.255 38.3836C217.885 36.6736 218.575 32.0236 216.485 31.1536C214.995 30.5336 211.145 31.8936 210.255 29.3536ZM148.855 63.6536C148.115 56.8036 142.335 52.6236 137.175 48.8236C123.665 38.8736 107.445 33.8336 90.6055 37.1836C84.8455 38.3336 74.5655 41.4236 74.9755 48.7736C76.8655 48.1036 78.5055 47.3636 80.5855 47.6036C85.5355 48.1736 90.4655 55.7136 92.1855 59.9836C92.5255 60.8336 94.1255 66.3936 94.5355 66.4936C98.6355 65.3836 102.655 66.7436 106.625 67.6136C109.705 63.2536 113.445 59.3736 117.545 55.9736C120.125 53.8336 123.715 51.1636 126.775 49.8536C129.585 48.6536 131.215 47.9636 134.175 49.3936C138.975 51.7036 139.145 58.7636 140.895 63.0536L148.825 63.6436L148.855 63.6536ZM128.225 52.6136C120.425 55.7336 112.785 64.1436 107.965 70.8536C106.525 72.1736 105.785 70.8436 104.775 70.4236C102.465 69.4636 99.1655 68.9536 96.6855 69.1736C94.7155 69.3436 92.5855 70.9036 91.6555 68.4436C90.2955 64.8636 89.6655 61.1636 87.7355 57.7336C86.3655 55.3036 82.5855 50.2636 79.4855 50.5136C76.3855 50.7636 70.3655 54.0736 68.9755 57.0536C80.3555 61.3836 89.0255 72.0936 90.3255 84.2836C91.7155 83.7636 93.1255 82.9836 94.5855 82.6736C100.145 81.4836 105.615 82.9836 110.335 85.9636C111.355 84.1936 112.005 82.2436 112.985 80.4436C116.185 74.5536 121.455 69.4636 127.505 66.5336C130.745 64.9636 134.245 63.9136 137.815 63.4136C136.625 60.1436 136.265 53.7236 132.695 52.1036C130.755 51.2136 129.965 51.9236 128.215 52.6236L128.225 52.6136ZM54.0655 58.4436C32.9855 60.3036 21.0555 84.1236 30.4755 102.754C39.9955 121.584 65.5155 124.974 79.6555 109.224C82.8855 105.624 83.6655 102.804 85.7255 98.7436C89.9055 90.4836 105.195 91.3536 110.965 97.3436C112.515 98.9436 112.495 102.434 113.035 104.624C119.925 132.674 159.035 135.534 170.075 108.504C181.545 80.4136 148.885 54.1036 124.305 72.3336C117.805 77.1536 116.905 81.0236 113.445 87.6236C111.665 91.0136 109.195 88.4636 106.925 87.4736C102.205 85.4136 96.0255 84.0236 91.3455 87.1036C90.5155 87.6536 89.8855 89.0336 88.5355 88.8436C86.9955 88.6236 87.3555 85.9936 87.1755 84.9136C84.3555 68.3036 71.3055 56.9336 54.0555 58.4536L54.0655 58.4436ZM139.735 130.564C125.795 129.384 114.005 120.144 110.115 106.584C109.705 105.144 108.975 99.5736 108.565 99.0136C108.185 98.4936 105.735 97.3236 105.015 97.0436C100.715 95.3536 93.6255 94.9236 89.9655 98.1936C88.6955 99.3236 88.5955 100.864 87.8855 102.354C80.5155 117.864 65.8855 125.344 48.8655 121.534C48.1055 121.364 46.0455 120.474 45.5155 120.784C45.2355 120.944 44.0855 123.574 43.9055 124.094C41.7355 130.544 41.3755 141.314 45.3655 147.104C49.7055 153.414 57.0355 155.344 64.3755 155.474C65.2055 153.674 68.0355 147.234 69.6955 146.524C72.4355 145.344 72.8855 149.714 73.7255 151.364C74.5655 153.014 76.3455 155.534 77.4155 157.034C77.6355 157.334 78.4555 158.654 78.8055 158.394C79.5955 156.094 81.6355 154.554 83.1155 152.754C85.5555 149.794 89.0855 144.704 92.1155 142.564C94.0555 141.194 95.2255 143.414 95.9455 144.964C97.8755 149.094 98.3155 153.994 100.265 158.144C102.875 155.324 106.595 152.974 110.135 151.464C111.275 150.974 113.635 149.834 114.775 150.354C116.375 151.074 115.325 153.614 115.015 154.784C114.435 157.034 113.735 159.264 113.095 161.494C115.875 161.394 118.615 162.274 121.375 162.454C134.645 163.314 150.765 151.624 155.425 139.424C156.925 135.504 157.095 131.624 156.995 127.444C156.815 127.254 153.325 128.864 152.725 129.054C148.385 130.454 144.235 130.944 139.725 130.564H139.735ZM138.065 249.524C140.755 251.254 144.005 253.004 147.305 252.894C154.035 252.354 160.535 250.684 167.045 249.004C167.505 247.764 167.085 246.684 167.075 245.574C167.035 241.014 167.075 235.924 166.605 231.414C166.045 226.154 163.985 220.954 164.225 215.624C156.155 211.364 152.465 198.984 152.215 190.414C151.875 178.904 159.255 165.344 170.935 162.344C172.145 162.034 174.165 162.024 175.095 161.704C176.515 161.214 177.675 152.724 177.895 151.074C177.965 150.524 177.835 149.944 177.895 149.394C178.725 142.704 179.435 135.994 179.835 129.284C177.865 128.174 177.245 125.884 176.085 124.114C174.215 121.274 172.135 118.734 169.625 116.424C167.075 119.944 163.965 122.954 160.395 125.414C163.485 127.174 165.865 129.864 168.685 131.994C169.715 133.374 168.515 134.874 166.885 134.274C165.965 133.934 163.425 131.144 162.435 130.334C162.185 130.134 160.345 128.684 160.165 128.884C160.125 134.964 158.845 140.264 155.795 145.504C152.995 150.314 145.975 156.924 141.215 159.824C137.265 162.234 132.385 163.834 127.955 165.144L127.565 165.484L128.755 179.114C128.675 190.774 127.775 202.434 125.315 213.824C124.395 218.084 122.125 222.644 122.025 226.844C121.855 234.064 132.275 245.764 138.105 249.514L138.065 249.524ZM198.505 219.064C206.145 216.234 212.975 211.044 216.365 203.474C222.105 190.664 221.535 181.344 216.665 168.404C212.855 158.264 205.835 149.734 197.785 142.674C197.445 142.374 194.415 139.874 194.185 140.164C193.575 147.064 192.425 153.884 190.585 160.544C192.195 160.544 193.495 160.354 194.995 161.054C195.695 161.384 196.225 162.064 196.845 162.324C197.725 162.694 198.515 162.634 199.545 163.224C202.335 164.814 208.075 172.024 209.665 174.924C212.215 179.554 212.755 189.064 212.145 194.204C210.985 203.984 205.865 212.704 198.505 219.054V219.064ZM92.4955 146.154C90.9655 146.884 87.9855 151.234 86.7355 152.744C85.1355 154.674 82.9955 156.624 81.7555 158.794C80.6855 160.654 79.7855 165.214 77.0455 161.734C75.3455 159.574 72.9155 155.624 71.4455 153.184C71.0255 152.494 70.5955 151.654 70.4355 150.854C70.3955 150.574 70.1255 150.684 69.9555 150.834C69.3355 151.374 67.2455 155.554 66.8055 156.554C61.9255 167.484 62.2655 178.344 66.3655 189.454C68.2155 194.464 71.5755 199.014 72.1255 204.444C73.2655 203.894 74.5955 204.094 74.6855 205.554C74.7755 207.014 71.7455 210.114 70.8255 211.414C68.4555 214.784 66.9255 216.594 68.1655 220.984C69.0555 224.144 72.3855 227.974 74.7555 230.224C76.9255 232.284 81.0055 234.454 81.4555 237.674C82.3655 244.234 74.6555 248.964 73.8255 255.184C73.3955 258.404 74.2555 259.314 77.0755 260.524C82.0455 262.654 87.9855 261.394 93.2255 263.194C98.1555 264.884 99.6455 269.014 105.615 266.354C106.325 266.034 107.445 265.564 107.565 264.704C107.735 263.544 106.425 260.904 105.815 259.834C102.485 254.024 99.3655 255.804 94.1855 253.714C92.8755 253.184 89.9455 251.704 89.0155 250.724C86.2255 247.794 87.0655 240.394 89.2755 237.304C90.1555 236.084 92.5255 234.734 92.7355 236.954C92.8755 238.454 90.7855 239.294 90.9455 240.894L94.5555 238.264C97.0755 234.774 93.4855 231.984 91.8355 229.214C86.6455 220.474 89.0755 207.134 92.5055 198.074C95.5155 190.124 101.155 182.974 104.545 175.094C106.595 170.324 109.175 164.114 110.745 159.224C111.305 157.484 111.605 155.674 112.185 153.944C109.795 154.674 106.745 156.264 104.765 157.804C103.455 158.824 101.195 162.264 100.055 162.444C99.6555 162.514 98.7855 162.544 98.4255 162.424C97.7455 162.194 97.0455 157.884 96.7655 156.894C96.3555 155.494 93.5555 146.414 92.9955 146.014C92.8355 145.854 92.6755 146.074 92.5155 146.154H92.4955ZM35.8855 175.654C39.3855 177.634 45.8355 180.004 49.7855 178.404C51.1655 177.844 53.2555 175.094 55.2755 174.904C54.9755 169.604 54.9455 163.414 53.1555 158.394C52.8955 157.674 52.9255 157.104 52.3155 156.474C51.5955 155.724 50.0055 155.254 49.0955 154.654C47.3655 153.524 45.9055 152.384 44.5255 150.834C43.7855 150.004 42.7455 147.904 41.7655 147.824C40.9855 147.754 37.2755 148.614 36.3155 148.874C33.0455 149.764 29.7855 151.504 27.1355 153.604C26.3955 154.194 23.9655 156.294 23.5155 156.944C21.6255 159.684 24.2755 163.594 25.8055 165.954C28.3555 169.914 31.7955 173.354 35.8855 175.664V175.654ZM62.9955 158.634L56.0455 157.434C57.0555 162.534 57.8355 167.694 58.2155 172.894C59.2255 186.944 59.5055 203.774 55.6855 217.394C54.2555 222.504 52.1755 227.264 50.3455 232.194C49.3855 234.784 49.3955 235.804 51.0155 238.134C54.7855 243.564 61.6955 249.394 68.5955 245.644C72.5455 243.494 74.9255 239.964 76.1955 235.734C76.1855 235.084 72.5655 232.364 71.8755 231.674C67.9855 227.804 62.9055 220.584 65.1655 214.864C66.0755 212.554 68.7755 209.964 69.5455 207.964C70.0655 206.604 68.8255 202.464 68.2955 200.954C67.0355 197.344 64.8655 193.954 63.5555 190.344C60.4955 181.924 59.3255 172.234 61.4955 163.464C61.9055 161.824 62.5855 160.264 63.0155 158.624L62.9955 158.634ZM30.8555 189.324C34.7655 190.764 37.0855 191.464 41.0955 189.614C44.1455 188.204 44.5855 184.754 46.4455 182.254C42.3855 181.374 37.8655 180.604 34.2155 178.534C32.6655 177.654 30.2755 175.594 28.9355 174.344C25.0755 170.714 21.9855 165.954 20.0655 161.034L18.7455 163.184C12.3655 175.824 18.7855 184.884 30.8655 189.334L30.8555 189.324ZM190.825 163.664C187.065 164.474 183.645 168.404 186.225 172.224C186.845 173.134 187.225 173.154 188.195 173.494C189.915 174.104 189.225 173.594 190.245 173.504C192.985 173.274 194.385 173.724 196.245 171.104C197.245 169.694 196.645 168.404 196.055 166.954C194.995 164.334 193.805 163.014 190.835 163.664H190.825ZM124.355 165.614C122.185 166.114 113.055 163.734 111.795 164.854C111.605 165.024 110.795 166.844 110.605 167.264C108.975 170.944 107.885 174.914 106.125 178.614C103.815 183.474 100.705 188.004 98.2055 192.754C95.4555 197.964 93.2655 203.564 92.5055 209.444C98.8955 211.224 105.605 211.964 111.965 213.844C115.175 214.794 118.245 216.314 121.505 217.134C122.065 214.844 122.695 212.554 123.115 210.224C125.495 197.064 127.015 181.894 125.075 168.594C124.925 167.584 124.745 166.554 124.355 165.604V165.614ZM168.275 166.784C161.095 170.234 156.385 178.114 155.355 185.874C154.325 193.634 157.355 206.934 163.715 211.754C164.215 212.134 164.485 212.394 164.885 211.704C165.305 210.964 165.805 208.734 166.185 207.724C166.685 206.414 167.385 205.154 167.805 203.814C164.615 197.274 163.765 190.994 165.335 183.854C165.615 182.584 167.315 178.464 167.315 177.934C167.315 177.404 166.105 175.134 165.955 174.034C165.645 171.774 166.095 170.324 167.125 168.374L168.285 166.784H168.275ZM171.155 177.814C171.265 178.234 173.065 179.494 173.545 179.624C175.475 180.124 177.555 179.954 179.145 178.734C181.915 176.624 181.755 173.754 180.765 170.724C180.335 169.424 178.715 167.434 177.395 167.024C172.875 165.624 167.855 169.434 169.065 174.274C169.585 176.364 170.635 175.834 171.035 176.624C171.265 177.074 171.075 177.514 171.155 177.824V177.814ZM192.265 219.544C203.715 214.334 209.735 199.794 209.305 187.754C208.965 178.254 206.625 175.304 200.785 168.454C200.425 168.034 199.925 167.554 199.465 167.254C200.885 170.944 198.515 173.794 195.625 175.774C195.565 176.004 197.335 177.814 197.645 178.304C198.685 179.964 199.515 183.174 199.485 185.114C199.425 188.344 196.115 192.184 193.225 193.394C192.995 193.724 194.025 194.494 194.285 194.854C196.535 197.894 197.245 201.944 195.195 205.314C193.145 208.684 187.655 210.414 183.875 209.224C183.775 209.094 183.195 208.974 183.035 208.754C182.875 208.864 182.805 208.984 182.725 209.154C182.155 210.394 181.145 216.234 181.025 217.774C180.925 219.114 181.615 219.714 182.905 220.144C186.105 221.224 189.305 220.884 192.265 219.534V219.544ZM185.065 189.324C186.345 191.534 187.935 191.564 190.405 191.184C192.635 190.834 196.035 187.864 196.315 185.584C196.785 181.794 194.605 177.554 190.585 177.094C190.535 177.094 190.435 176.874 190.065 176.894C188.315 177.004 186.375 178.574 185.445 179.984C183.615 182.754 183.405 186.444 185.065 189.324ZM30.1355 192.444C28.5655 191.874 26.0355 190.414 24.5455 189.524C20.1955 186.924 15.1755 183.024 14.0655 177.814C12.6855 179.054 9.64547 177.214 9.08547 179.664C8.82547 180.814 9.53547 182.674 10.3055 183.504C11.1955 184.454 14.7355 185.244 13.2255 187.174C12.0055 188.724 9.75547 186.374 8.55547 185.864C5.12547 184.404 0.835468 188.384 4.11547 191.264C4.59547 191.694 6.32547 192.634 6.89547 192.814C7.51547 193.014 8.92547 192.554 9.67547 192.544C11.2355 192.534 16.1955 193.444 14.7455 195.874C13.7955 197.464 12.2955 195.814 11.2555 195.624C10.0255 195.404 7.13547 195.474 6.43547 196.694C6.21547 197.074 5.96546 198.544 5.91546 199.054C5.63546 202.194 6.32547 205.174 9.50547 206.364C11.2455 207.014 11.6255 206.944 13.3355 206.244C17.7255 204.444 16.7755 200.214 19.3355 197.734C22.2355 194.924 29.1955 196.544 30.2555 200.604C31.1155 203.894 29.4055 204.394 28.8055 206.604C28.3155 208.384 30.5155 210.314 32.0455 210.924C35.7855 212.424 39.0955 211.064 41.0755 207.604C43.6355 203.134 38.2755 203.824 36.4855 202.054C34.6955 200.284 35.4355 195.914 36.1255 193.664C34.3055 193.544 31.8455 193.084 30.1255 192.464L30.1355 192.444ZM170.605 181.244C170.455 181.034 169.775 180.824 169.595 180.454C166.765 186.524 166.715 193.644 169.235 199.874L170.355 196.084C171.085 192.574 171.655 188.974 171.385 185.364C171.335 184.684 170.885 181.644 170.595 181.234L170.605 181.244ZM177.755 182.854C176.645 183.024 175.195 182.734 174.035 182.854C174.795 189.474 173.785 196.324 171.585 202.584C170.165 206.594 167.285 211.584 167.085 215.834C166.955 218.784 167.965 221.474 168.445 224.304C170.805 238.194 170.735 250.404 167.975 264.214C167.505 266.534 166.035 270.254 166.365 272.444C166.485 273.204 167.375 272.684 167.795 272.424C171.635 270.044 173.415 261.554 174.445 257.484C176.465 249.544 178.275 243.134 178.365 234.784C178.425 229.704 177.485 224.714 177.875 219.664C178.195 215.574 179.085 211.374 179.985 207.394C180.475 205.224 180.115 206.264 179.615 204.254C178.625 200.264 180.205 194.884 184.105 193.044C183.795 192.284 183.085 191.894 182.615 191.174C180.715 188.264 180.615 183.924 181.705 180.694C180.515 181.354 179.135 182.634 177.745 182.854H177.755ZM183.635 205.394C185.905 207.904 192.375 205.784 193.115 202.514C193.935 198.864 191.645 194.964 187.715 195.074C182.945 195.214 180.695 202.144 183.635 205.384V205.394ZM120.305 219.804C115.165 217.794 110.065 215.974 104.685 214.674C101.615 213.934 97.8355 213.024 94.7455 212.624C94.0655 212.534 92.0355 212.084 91.8155 212.744C91.6455 213.264 91.5155 216.764 91.5455 217.504C91.5855 218.504 92.7455 225.424 93.2555 225.744C93.9855 225.844 94.7155 225.704 95.4455 225.834C100.535 226.724 105.865 228.784 111.045 229.604C116.775 234.164 120.295 243.934 128.365 245.434C128.985 245.554 128.625 245.324 128.475 245.084C127.725 243.914 126.585 242.924 125.745 241.824C122.105 237.084 118.435 231.634 119.135 225.414C119.345 223.514 119.985 221.664 120.315 219.784L120.305 219.804ZM199.935 221.944C193.885 223.954 186.775 224.874 180.755 222.424C180.805 227.734 181.515 233.054 181.245 238.384C181.195 239.404 180.265 245.644 180.515 245.924C187.335 243.034 194.145 239.224 198.215 232.804C200.475 229.244 200.425 226.044 199.935 221.934V221.944ZM68.2655 249.284C67.7955 249.494 67.3455 249.764 66.8355 249.894C65.8055 250.174 63.9355 249.864 63.4555 251.084C63.3455 252.224 66.1755 254.854 67.3055 255.034C67.6755 255.094 68.1455 255.034 68.5055 254.924C68.6555 254.874 71.1655 253.484 71.2555 253.354C71.4455 253.094 71.6755 251.794 71.9655 251.184C73.3155 248.414 77.8855 242.534 78.3155 240.264C78.3655 240.004 78.5255 238.764 78.0955 238.724C77.1055 243.194 72.3055 247.434 68.2555 249.274L68.2655 249.284ZM91.4555 245.234C89.8855 245.684 91.2955 251.184 93.1855 248.184C93.9955 246.894 92.5255 244.924 91.4555 245.234ZM127.745 248.564C127.015 248.434 126.155 247.754 125.245 247.844C124.055 247.964 120.355 250.564 118.695 250.904C117.465 251.154 115.715 250.314 114.785 250.574C113.395 250.954 112.005 253.894 113.245 254.784C113.735 255.124 115.705 255.164 116.295 254.994C117.385 254.684 117.205 252.764 117.825 252.384C118.165 252.174 122.895 251.284 123.575 251.234C125.655 251.084 127.445 251.664 129.425 252.164C129.735 252.734 130.585 253.074 131.055 254.004C132.205 256.264 131.025 259.854 129.895 261.994C128.565 264.534 126.205 262.614 125.365 265.734C124.705 268.184 125.585 270.154 127.975 271.104C131.145 272.374 136.835 271.424 137.285 267.324C137.555 264.844 134.165 266.074 134.445 262.834C134.485 262.354 135.855 257.904 136.075 257.504C137.035 255.764 140.145 255.774 141.805 256.424C143.125 256.944 148.265 260.644 148.545 261.924C148.915 263.574 146.945 264.264 149.555 265.224C151.815 266.054 156.315 265.664 155.955 262.384C155.755 260.544 152.855 261.024 152.055 260.574C150.975 259.954 150.115 256.824 149.075 255.884C147.555 255.544 145.925 255.934 144.395 255.764C142.495 255.554 137.475 253.034 135.805 251.884C134.975 251.314 133.045 249.304 132.355 249.094C131.145 248.724 129.075 248.804 127.735 248.564H127.745Z" fill="#030303"/>
<path d="M29.6555 33.9136C24.7055 35.5336 19.6255 32.0936 23.1355 26.7936C24.1155 25.3136 25.2555 25.0136 26.5255 23.9336C24.7755 21.5336 21.4155 18.5736 22.6455 15.2736C24.1355 11.2736 31.3355 13.6036 33.8555 15.4436C35.9255 12.7236 37.8355 7.06359 41.8055 6.90359C46.1855 6.72359 47.0555 9.55359 46.3355 13.2936C45.8555 15.7736 43.6255 19.0436 46.6855 20.3536C49.7455 21.6636 52.3355 21.3836 54.8355 24.1936C57.6755 27.3836 54.8855 32.0836 51.2455 33.0736C47.9655 33.9636 44.9955 32.3036 43.1155 35.9736C41.5855 38.9636 41.3355 42.5536 38.1255 44.6536C31.1455 49.2236 28.6655 38.8036 29.6455 33.9036L29.6555 33.9136ZM52.3555 26.0836C48.9055 22.3536 41.3355 25.1436 42.1255 17.2436C42.3155 15.4036 45.5355 9.10359 41.5755 9.97359C39.7455 10.3736 37.3255 16.2536 35.9855 17.8236C33.6155 20.5936 32.9255 18.1436 30.9055 17.1936C30.0055 16.7636 25.6255 15.4036 25.3655 16.8036C25.1055 18.2036 28.9855 21.4536 29.4555 22.7136C30.9355 26.6236 25.9855 26.8836 25.1955 29.3536C24.6855 30.9336 26.3155 31.3536 27.6055 31.3036C29.2955 31.2436 31.7955 28.9536 33.0055 30.4336C34.0855 31.7636 32.7155 32.3436 32.5255 33.3336C32.1355 35.4436 32.3055 38.2436 32.9855 40.2936C34.0155 43.3736 35.7755 43.2936 37.6555 40.8636C40.3455 37.3836 39.6055 31.9336 44.9755 30.6736C47.0555 30.1836 50.6555 30.8136 52.0555 29.1136C52.8155 28.1936 53.2155 27.0436 52.3355 26.0936L52.3555 26.0836Z" fill="#050403"/>
<path d="M240.715 78.5136C243.035 78.0936 247.445 80.6836 247.855 83.0036C248.775 88.1836 243.555 88.4936 239.995 89.7836C240.525 92.3136 240.945 94.8136 239.155 96.9836C234.595 102.524 228.985 96.1336 228.945 90.9936C225.365 90.9636 221.865 94.4836 218.425 91.5636C215.855 89.3736 217.315 86.8636 218.785 84.5236C220.125 82.3936 221.815 80.5336 223.885 79.0836C223.375 75.9736 223.095 68.6336 228.065 69.4536C230.485 69.8536 231.505 72.1336 232.685 73.9536C235.035 72.3236 237.555 68.7136 240.745 70.6836C243.425 72.3236 241.825 76.2836 240.715 78.5136ZM239.035 73.2436C235.645 74.0436 233.865 80.1036 230.275 75.8836C229.655 75.1536 227.565 70.7036 226.905 73.4636C226.585 74.8036 226.605 76.3036 226.815 77.6636C226.955 78.6136 227.605 78.5936 227.095 80.1336C226.585 81.6736 225.675 81.4036 224.755 82.1136C223.315 83.2336 220.675 86.3736 220.185 88.1036C219.925 89.0436 220.235 89.3836 221.175 89.5336C224.155 90.0036 226.895 86.9836 230.165 87.9836C232.385 88.6636 231.795 92.5436 232.795 93.9936C232.985 94.2636 234.685 95.9436 234.885 96.0036C240.185 94.9136 234.435 89.3736 238.615 87.1136C239.965 86.3836 243.355 85.8036 244.285 85.1136C245.935 83.8936 243.435 82.1936 242.315 81.8336C240.925 81.3836 238.595 82.0736 237.575 80.7536C236.055 78.7836 239.495 75.5636 239.015 73.2536L239.035 73.2436Z" fill="#050403"/>
<path d="M141.176 159.824C145.936 156.924 152.956 150.324 155.756 145.504C158.806 140.264 160.076 134.964 160.126 128.884C160.306 128.674 162.146 130.124 162.396 130.334C163.396 131.144 165.926 133.934 166.846 134.274C168.476 134.874 169.676 133.364 168.646 131.994C165.826 129.864 163.446 127.174 160.356 125.414C163.926 122.954 167.046 119.934 169.586 116.424C172.096 118.734 174.176 121.274 176.046 124.114C177.216 125.884 177.826 128.174 179.796 129.284C179.396 135.994 178.696 142.704 177.856 149.394C177.786 149.944 177.926 150.524 177.856 151.074C177.636 152.724 176.486 161.224 175.056 161.704C174.126 162.024 172.106 162.034 170.896 162.344C159.216 165.344 151.836 178.904 152.176 190.414C152.426 198.984 156.116 211.364 164.186 215.624C163.946 220.954 166.016 226.154 166.566 231.414C167.046 235.924 166.996 241.014 167.036 245.574C167.036 246.684 167.476 247.764 167.006 249.004C160.496 250.684 153.996 252.354 147.266 252.894C143.966 253.014 140.716 251.264 138.026 249.524C140.326 242.744 141.956 235.654 142.816 228.534C144.006 218.694 143.746 209.154 143.766 199.264C143.786 188.754 143.886 178.894 142.546 168.364C142.186 165.514 141.436 162.684 141.136 159.814L141.176 159.824Z" fill="#A87A59"/>
<path d="M139.736 130.564C139.126 135.124 137.576 140.124 135.036 143.964C134.396 144.934 133.396 146.474 132.306 146.864C133.246 135.684 114.456 128.204 105.686 125.874C94.7058 122.964 78.4558 121.944 67.9458 126.744C63.7758 128.654 56.4558 135.444 60.9458 140.154C62.7358 142.034 69.1758 141.684 71.7558 141.594C86.5558 141.044 96.7858 139.634 111.436 144.104C115.996 145.494 123.976 149.924 128.226 149.984C127.756 151.094 125.786 151.884 124.696 152.324C121.736 153.524 118.176 154.134 115.036 154.784C115.336 153.604 116.386 151.074 114.796 150.354C113.656 149.834 111.296 150.974 110.156 151.464C106.616 152.974 102.896 155.324 100.286 158.144C98.3358 153.994 97.8858 149.094 95.9658 144.964C95.2458 143.414 94.0758 141.194 92.1358 142.564C89.1058 144.704 85.5758 149.784 83.1358 152.754C81.6458 154.554 79.6058 156.094 78.8258 158.394C78.4758 158.654 77.6458 157.334 77.4358 157.034C76.3658 155.534 74.5458 152.934 73.7458 151.364C72.9458 149.794 72.4558 145.354 69.7158 146.524C68.0558 147.234 65.2258 153.664 64.3958 155.474C57.0558 155.344 49.7258 153.414 45.3858 147.104C41.4058 141.314 41.7558 130.544 43.9258 124.094C44.0958 123.574 45.2558 120.944 45.5358 120.784C46.0658 120.474 48.1358 121.364 48.8858 121.534C65.8958 125.344 80.5358 117.864 87.9058 102.354C88.6158 100.864 88.7058 99.3336 89.9858 98.1936C93.6458 94.9336 100.726 95.3536 105.036 97.0436C105.756 97.3236 108.196 98.4936 108.586 99.0136C108.996 99.5736 109.726 105.144 110.136 106.584C114.026 120.144 125.816 129.394 139.756 130.564H139.736ZM89.2858 110.264C88.1558 109.044 86.1158 109.954 86.5858 111.624C86.7758 112.284 88.7658 113.954 89.3658 114.624C90.1858 115.544 90.4158 117.104 92.0758 116.604C95.2558 115.654 90.0058 111.304 89.2858 110.264ZM103.946 112.154C103.246 112.274 102.206 113.004 101.626 113.444C101.276 113.704 99.2358 115.494 99.0958 115.704C98.5858 116.434 98.4958 117.604 99.3158 118.114C100.806 119.024 101.716 117.174 102.696 116.424C103.316 115.954 105.496 114.744 105.706 114.394C106.536 113.024 105.466 111.894 103.946 112.154Z" fill="#C3EE79"/>
<path d="M54.0655 58.4436C71.3055 56.9236 84.3656 68.2936 87.1856 84.9036C87.3656 85.9836 87.0056 88.6136 88.5456 88.8336C89.8956 89.0236 90.5156 87.6436 91.3556 87.0936C96.0356 84.0136 102.216 85.4036 106.936 87.4636C109.206 88.4536 111.676 91.0036 113.456 87.6136C116.916 81.0136 117.816 77.1436 124.316 72.3236C148.896 54.0936 181.546 80.4036 170.086 108.494C159.046 135.524 119.946 132.664 113.046 104.614C112.506 102.414 112.516 98.9336 110.976 97.3336C105.206 91.3436 89.9256 90.4736 85.7356 98.7336C83.6756 102.794 82.8955 105.614 79.6656 109.214C65.5256 124.964 40.0056 121.574 30.4856 102.744C21.0656 84.1136 32.9956 60.2936 54.0756 58.4336L54.0655 58.4436ZM54.7856 63.4836C35.2456 65.0936 24.7456 87.6036 35.9356 103.784C46.7856 119.474 70.6356 118.114 79.6656 101.314C89.3755 83.2536 75.1056 61.8136 54.7856 63.4836ZM140.176 71.6336C120.636 73.2436 110.136 95.7536 121.326 111.934C132.516 128.114 155.856 126.284 164.976 109.624C174.856 91.5636 160.586 69.9636 140.186 71.6436L140.176 71.6336Z" fill="#354B65"/>
<path d="M91.0559 174.454C90.8659 174.494 90.4559 174.864 90.3359 175.044C89.6759 176.014 88.8259 182.044 88.3559 183.854C87.2159 188.194 85.4259 192.314 84.0459 196.574C83.3059 198.854 82.8659 201.604 82.1959 203.714C81.5259 205.824 80.1259 208.094 79.4759 210.714C78.0259 216.534 78.3059 219.384 80.6359 224.814C82.1459 228.344 86.0159 233.694 86.4859 237.194C87.3559 243.654 80.5459 250.214 86.9859 255.884C88.6159 257.324 92.7259 259.394 93.8059 261.054C94.7759 262.544 93.5159 262.104 93.2259 263.204C87.9859 261.404 82.0359 262.664 77.0759 260.534C74.2559 259.324 73.3959 258.414 73.8259 255.194C74.6559 248.974 82.3659 244.254 81.4559 237.684C81.0059 234.464 76.9259 232.294 74.7559 230.234C72.3859 227.984 69.0559 224.154 68.1659 220.994C66.9259 216.604 68.4459 214.794 70.8259 211.424C71.7459 210.114 74.7759 206.984 74.6859 205.564C74.5959 204.144 73.2659 203.894 72.1259 204.454C71.5659 199.034 68.2059 194.474 66.3659 189.464C62.2659 178.354 61.9259 167.484 66.8059 156.564C67.2559 155.564 69.3459 151.384 69.9559 150.844C70.1259 150.694 70.3959 150.594 70.4359 150.864C70.5959 151.664 71.0259 152.504 71.4459 153.194C72.9159 155.634 75.3559 159.574 77.0459 161.744C79.7759 165.224 80.6859 160.674 81.7559 158.804C82.9959 156.634 85.1359 154.684 86.7359 152.754C87.9859 151.244 90.9759 146.894 92.4959 146.164C92.8059 155.594 93.1659 165.204 91.0559 174.464V174.454ZM77.5659 189.034C78.7159 187.884 77.2059 186.824 76.7059 186.054C74.1259 182.104 73.2359 178.084 73.3059 173.384C73.3159 172.464 74.0759 170.384 72.8259 169.784C70.0659 168.454 70.5559 173.534 70.6559 175.074C70.8659 178.174 72.6659 185.574 74.5059 188.014C75.1459 188.874 76.5759 190.024 77.5659 189.034Z" fill="#D5D1C9"/>
<path d="M210.256 29.3536C209.256 30.2036 208.256 31.1436 207.376 32.1036C205.896 33.7136 204.366 35.3836 202.946 37.0236C202.466 37.5736 201.646 38.4136 201.626 39.1836C200.476 39.9936 197.216 44.5636 196.296 45.9636C193.276 50.5436 189.586 59.6136 188.986 65.0336C188.886 65.9036 188.776 67.6736 189.876 67.9636C189.926 69.0336 189.806 70.1236 189.876 71.2036C190.256 76.6636 193.576 83.2436 195.396 88.4736C197.216 93.7036 197.396 98.0336 197.326 103.354C197.316 104.284 196.766 104.944 197.556 105.864C195.296 114.314 193.766 124.664 192.346 133.394C191.016 141.634 190.526 152.264 187.736 159.964C186.596 163.104 183.336 164.484 182.326 167.744C182.266 166.464 178.256 164.254 178.166 163.984C177.806 162.914 178.796 161.894 179.096 160.914C179.976 158.054 180.366 154.994 180.766 152.024C183.836 128.954 183.696 105.214 183.416 81.9836C183.266 69.6136 182.436 60.2036 185.926 48.0536C188.946 37.5236 200.236 18.0736 210.266 13.1536C212.146 12.2336 216.236 10.4736 216.726 13.6536C217.496 18.5536 210.366 22.3236 210.026 26.5936C209.986 27.0636 210.136 28.9636 210.266 29.3536H210.256Z" fill="#94664B"/>
<path d="M141.175 159.824C141.465 162.694 142.225 165.514 142.585 168.374C143.925 178.904 143.825 188.764 143.805 199.274C143.785 209.164 144.045 218.704 142.855 228.544C141.995 235.664 140.355 242.754 138.065 249.534C132.235 245.784 121.815 234.084 121.985 226.864C122.085 222.664 124.355 218.104 125.275 213.844C127.735 202.444 128.635 190.794 128.715 179.134L127.525 165.504L127.915 165.164C132.345 163.854 137.225 162.244 141.175 159.844V159.824Z" fill="#C0A187"/>
<path d="M124.356 165.614C124.746 166.564 124.926 167.594 125.076 168.604C127.016 181.894 125.496 197.064 123.116 210.234C122.696 212.554 122.066 214.854 121.506 217.144C118.246 216.324 115.176 214.804 111.966 213.854C105.606 211.974 98.8959 211.224 92.5059 209.454C93.2659 203.564 95.4559 197.974 98.2059 192.764C100.716 188.014 103.816 183.484 106.126 178.624C107.886 174.924 108.976 170.954 110.606 167.274C110.796 166.854 111.606 165.034 111.796 164.864C113.056 163.744 122.186 166.124 124.356 165.624V165.614Z" fill="#7D543C"/>
<path d="M148.856 63.6536L140.926 63.0636C139.166 58.7736 138.996 51.7136 134.206 49.4036C131.246 47.9736 129.606 48.6736 126.806 49.8636C123.746 51.1736 120.156 53.8336 117.576 55.9836C113.476 59.3936 109.736 63.2636 106.656 67.6236C102.676 66.7436 98.6656 65.3836 94.5656 66.5036C94.1556 66.4036 92.5656 60.8436 92.2156 59.9936C90.4956 55.7336 85.5656 48.1836 80.6156 47.6136C78.5356 47.3736 76.8956 48.1136 75.0056 48.7836C74.5956 41.4336 84.8756 38.3436 90.6356 37.1936C107.466 33.8336 123.696 38.8836 137.206 48.8336C142.366 52.6336 148.146 56.8136 148.886 63.6636L148.856 63.6536Z" fill="#7D543C"/>
<path d="M92.4956 146.154C92.6556 146.074 92.8156 145.854 92.9756 146.014C93.5356 146.414 96.3356 155.494 96.7456 156.894C97.0356 157.874 97.7356 162.194 98.4056 162.424C98.7656 162.544 99.6256 162.514 100.036 162.444C101.176 162.264 103.436 158.824 104.746 157.804C106.726 156.264 109.776 154.674 112.166 153.944C111.586 155.674 111.286 157.484 110.726 159.224C109.156 164.114 106.576 170.324 104.526 175.094C101.136 182.974 95.4956 190.124 92.4856 198.074C89.0556 207.134 86.6256 220.474 91.8156 229.214C93.4656 231.984 97.0556 234.774 94.5356 238.264L90.9256 240.894C90.7656 239.294 92.8656 238.454 92.7156 236.954C92.5056 234.734 90.1356 236.084 89.2556 237.304C87.0356 240.394 86.2056 247.794 88.9956 250.724C89.9256 251.704 92.8556 253.184 94.1656 253.714C99.3456 255.804 102.476 254.024 105.796 259.834C106.406 260.904 107.716 263.544 107.546 264.704C107.426 265.574 106.306 266.034 105.596 266.354C99.6156 269.014 98.1256 264.884 93.2056 263.194C93.5056 262.104 94.7656 262.544 93.7856 261.044C92.7056 259.384 88.5956 257.314 86.9656 255.874C80.5256 250.204 87.3356 243.644 86.4656 237.184C85.9956 233.694 82.1256 228.334 80.6156 224.804C78.2856 219.374 78.0056 216.524 79.4556 210.704C80.1056 208.084 81.4656 205.914 82.1756 203.704C85.4656 206.434 85.5456 200.774 86.1356 198.664C87.4556 193.874 89.3056 189.274 90.6956 184.514C91.2956 182.444 92.7256 178.054 92.8756 176.124C92.9456 175.184 92.0456 174.224 91.0556 174.444C93.1656 165.184 92.8056 155.574 92.4956 146.144V146.154Z" fill="#B4AE9F"/>
<path d="M197.546 105.864C196.756 104.944 197.306 104.284 197.316 103.354C197.386 98.0236 197.146 93.5236 195.386 88.4736C193.626 83.4236 190.246 76.6736 189.866 71.2036C189.796 70.1336 189.916 69.0436 189.866 67.9636C191.136 68.2936 192.076 67.7736 192.036 66.4136C191.956 64.0536 192.226 63.2436 192.816 60.9536C194.836 53.0336 198.276 46.1736 204.446 40.6936C205.086 38.5636 203.056 38.1736 201.616 39.1836C201.636 38.4136 202.446 37.5736 202.936 37.0236C204.366 35.3836 205.896 33.7136 207.366 32.1036C208.256 31.1436 209.256 30.2036 210.246 29.3536C211.136 31.9036 214.986 30.5336 216.476 31.1536C218.566 32.0236 217.876 36.6836 217.246 38.3836C215.636 42.7636 207.786 48.6736 211.446 53.4436C213.076 55.5736 215.816 55.2836 216.896 58.3136C218.606 63.1436 213.936 67.7136 211.586 71.5836C205.206 82.0936 200.706 93.9836 197.536 105.864H197.546ZM200.346 62.9736C199.606 63.2036 197.866 67.4236 197.536 68.3236C196.206 72.0036 194.506 79.6436 194.906 83.4336C195.026 84.5736 195.676 85.8436 196.996 85.2936C198.316 84.7436 197.676 81.4736 197.786 80.0736C198.216 74.6436 199.636 69.4436 202.336 64.7036C202.646 63.2736 201.726 62.5436 200.356 62.9636L200.346 62.9736Z" fill="#7D543C"/>
<path d="M62.9958 158.634C62.5658 160.264 61.8858 161.824 61.4758 163.474C59.3058 172.244 60.4758 181.934 63.5358 190.354C64.8458 193.964 67.0158 197.354 68.2758 200.964C68.7958 202.474 70.0458 206.624 69.5258 207.974C68.7558 209.964 66.0658 212.554 65.1458 214.874C62.8858 220.594 67.9658 227.814 71.8558 231.684C72.5458 232.374 76.1658 235.094 76.1758 235.744C74.9058 239.974 72.5258 243.514 68.5758 245.654C61.6758 249.404 54.7658 243.574 50.9958 238.144C49.3758 235.814 49.3658 234.794 50.3258 232.204C52.1558 227.264 54.2358 222.504 55.6658 217.404C59.4858 203.784 59.2058 186.954 58.1958 172.904C57.8258 167.704 57.0458 162.544 56.0258 157.444L62.9758 158.644L62.9958 158.634Z" fill="#BFA187"/>
<path d="M131.826 4.4136C132.036 6.0836 133.546 7.0136 134.346 8.4836C137.986 15.1836 133.536 22.7336 130.096 28.4636C128.166 31.6836 125.466 34.5936 124.866 38.4636C118.106 35.6436 110.906 33.5636 103.516 33.4236C103.946 32.3636 104.676 31.3836 105.076 30.3036C107.306 24.1936 106.036 16.6736 107.626 10.7836C109.216 4.8936 120.716 2.77359 125.716 2.95359C128.456 3.05359 129.496 3.7336 131.826 4.4036V4.4136Z" fill="#94664C"/>
<path d="M131.825 4.4136C135.355 5.4336 138.955 6.1336 142.305 7.7336C148.215 10.5536 154.005 18.9836 156.165 25.0436C157.955 30.0636 156.185 34.7336 152.925 38.5836C150.685 41.2236 147.815 42.1536 145.615 44.7036C144.475 46.0236 143.265 47.7936 142.855 49.5036C137.125 45.1836 131.535 41.2536 124.875 38.4736C125.465 34.6036 128.165 31.6936 130.105 28.4736C133.545 22.7436 137.995 15.1936 134.355 8.4936C133.555 7.0236 132.045 6.0936 131.835 4.4236L131.825 4.4136Z" fill="#7D543C"/>
<path d="M128.226 52.6136C129.296 54.7936 130.636 57.4236 130.386 59.9336C130.156 62.2536 128.126 64.2836 127.506 66.5236C121.466 69.4536 116.186 74.5436 112.986 80.4336C112.006 82.2336 111.356 84.1736 110.336 85.9536C105.616 82.9736 100.146 81.4736 94.5856 82.6636C93.1256 82.9736 91.7156 83.7536 90.3256 84.2736C89.0156 72.0836 80.3456 61.3736 68.9756 57.0436C70.3656 54.0636 76.3656 50.7536 79.4856 50.5036C82.6056 50.2536 86.3656 55.3036 87.7356 57.7236C89.6656 61.1536 90.2956 64.8536 91.6556 68.4336C92.5856 70.8936 94.7256 69.3336 96.6856 69.1636C99.1656 68.9436 102.476 69.4536 104.776 70.4136C105.776 70.8336 106.526 72.1636 107.966 70.8436C112.776 64.1336 120.426 55.7236 128.226 52.6036V52.6136Z" fill="#C3EE79"/>
<path d="M198.505 219.064C205.865 212.714 210.985 203.994 212.145 194.214C212.755 189.064 212.215 179.554 209.665 174.934C208.065 172.034 202.325 164.824 199.545 163.234C198.525 162.644 197.735 162.704 196.845 162.334C196.225 162.074 195.705 161.394 194.995 161.064C193.495 160.364 192.195 160.554 190.585 160.554C192.415 153.884 193.575 147.074 194.185 140.174C194.415 139.894 197.445 142.394 197.785 142.684C205.845 149.744 212.855 158.274 216.665 168.414C221.535 181.354 222.105 190.674 216.365 203.484C212.975 211.054 206.135 216.244 198.505 219.074V219.064Z" fill="#A87A58"/>
<path d="M177.755 182.854C179.145 182.634 180.515 181.354 181.715 180.694C180.635 183.924 180.735 188.264 182.625 191.174C183.095 191.894 183.795 192.274 184.115 193.044C180.215 194.884 178.635 200.264 179.625 204.254C180.125 206.274 180.485 205.234 179.995 207.394C179.095 211.384 178.195 215.584 177.885 219.664C177.495 224.714 178.435 229.704 178.375 234.784C178.275 243.134 176.465 249.544 174.455 257.484C173.425 261.554 171.645 270.034 167.805 272.424C167.385 272.684 166.495 273.204 166.375 272.444C166.045 270.244 167.515 266.534 167.985 264.214C170.755 250.404 170.825 238.204 168.455 224.304C167.975 221.484 166.965 218.784 167.095 215.834C167.285 211.584 170.175 206.594 171.595 202.584C173.805 196.324 174.815 189.474 174.045 182.854C175.195 182.734 176.655 183.024 177.765 182.854H177.755Z" fill="#94664B"/>
<path d="M139.735 130.564C144.245 130.944 148.395 130.454 152.735 129.054C153.325 128.864 156.825 127.254 157.005 127.444C157.115 131.624 156.935 135.504 155.435 139.424C150.775 151.624 134.655 163.314 121.385 162.454C118.635 162.274 115.885 161.394 113.105 161.494C113.735 159.264 114.445 157.024 115.025 154.784C118.155 154.134 121.725 153.524 124.685 152.324C125.775 151.884 127.755 151.094 128.215 149.984C130.245 150.014 132.115 149.034 132.295 146.864C133.385 146.464 134.385 144.924 135.025 143.964C137.575 140.124 139.125 135.114 139.725 130.564H139.735Z" fill="#97E03A"/>
<path d="M192.265 219.544C189.115 217.314 187.065 214.534 184.975 211.374C184.635 210.864 184.075 209.484 183.875 209.234C187.655 210.414 193.105 208.744 195.195 205.324C197.285 201.904 196.535 197.914 194.285 194.864C194.025 194.514 192.995 193.734 193.225 193.404C196.105 192.194 199.425 188.354 199.485 185.124C199.525 183.174 198.685 179.974 197.645 178.314C197.335 177.824 195.565 176.014 195.625 175.784C198.515 173.804 200.885 170.954 199.465 167.264C199.925 167.564 200.425 168.044 200.785 168.464C206.625 175.314 208.965 178.264 209.305 187.764C209.735 199.804 203.715 214.344 192.265 219.554V219.544Z" fill="#A87A58"/>
<path d="M53.1558 158.384C49.0558 159.684 45.4258 163.264 42.5958 166.414C40.1458 169.134 37.6558 172.444 35.8858 175.654C31.7958 173.344 28.3558 169.904 25.8058 165.944C24.2858 163.574 21.6258 159.674 23.5158 156.934C23.9658 156.284 26.3958 154.184 27.1358 153.594C29.7758 151.494 33.0458 149.754 36.3158 148.864C37.2758 148.604 40.9858 147.744 41.7658 147.814C42.7458 147.894 43.7858 149.994 44.5258 150.824C45.9058 152.384 47.3658 153.514 49.0958 154.644C50.0058 155.244 51.5958 155.714 52.3158 156.464C52.9158 157.094 52.8958 157.664 53.1558 158.384Z" fill="#C0A187"/>
<path d="M120.306 219.804C119.976 221.674 119.336 223.524 119.126 225.434C118.436 231.644 122.096 237.094 125.736 241.844C126.576 242.944 127.716 243.944 128.466 245.104C128.616 245.334 128.976 245.564 128.356 245.454C120.286 243.944 116.766 234.184 111.036 229.624C105.856 228.804 100.526 226.754 95.4356 225.854C94.7056 225.724 93.9756 225.854 93.2456 225.764C92.7356 225.444 91.5856 218.514 91.5356 217.524C91.5056 216.784 91.6356 213.284 91.8056 212.764C92.0256 212.104 94.0556 212.554 94.7356 212.644C97.8256 213.044 101.616 213.954 104.676 214.694C110.056 215.994 115.156 217.814 120.296 219.824L120.306 219.804Z" fill="#393F62"/>
<path d="M30.1355 192.444C30.3155 194.564 30.6255 196.904 31.5255 198.844C32.8355 201.664 36.7755 204.724 35.7755 208.044C35.0455 210.474 32.8855 209.104 32.0455 210.914C30.5155 210.304 28.3155 208.364 28.8055 206.594C29.4055 204.384 31.1255 203.884 30.2555 200.594C29.1855 196.534 22.2355 194.914 19.3355 197.724C18.4655 197.564 18.0255 197.314 17.2955 197.964C17.1755 198.074 15.9055 199.544 15.8655 199.644C15.5855 200.264 15.8355 200.984 15.6955 201.634C15.4555 202.744 12.6255 205.004 11.4955 205.344C10.7455 205.574 9.63553 205.054 9.51553 206.354C6.33553 205.164 5.64553 202.184 5.92553 199.044C5.96553 198.534 6.22553 197.064 6.44553 196.684C7.13553 195.464 10.0355 195.394 11.2655 195.614C12.3055 195.804 13.8055 197.454 14.7555 195.864C16.2055 193.434 11.2455 192.514 9.68553 192.534C8.93553 192.534 7.52553 193.004 6.90553 192.804C6.33553 192.624 4.60554 191.674 4.12554 191.254C0.845535 188.374 5.13553 184.394 8.56553 185.854C9.76553 186.364 12.0155 188.714 13.2355 187.164C14.7455 185.234 11.2055 184.454 10.3155 183.494C9.54553 182.664 8.82553 180.814 9.09553 179.654C9.65553 177.204 12.6955 179.044 14.0755 177.804C15.1955 183.004 20.2055 186.904 24.5555 189.514C26.0455 190.404 28.5755 191.864 30.1455 192.434L30.1355 192.444Z" fill="#C3EE79"/>
<path d="M168.276 166.784L167.115 168.374C166.085 170.324 165.635 171.774 165.945 174.034C166.095 175.134 167.305 177.424 167.305 177.934C167.305 178.444 165.606 182.584 165.326 183.854C163.756 190.994 164.606 197.274 167.796 203.814C167.376 205.164 166.676 206.414 166.176 207.724C165.796 208.734 165.296 210.964 164.876 211.704C164.476 212.404 164.206 212.134 163.706 211.754C157.346 206.934 154.346 193.454 155.346 185.874C156.346 178.294 161.096 170.224 168.266 166.784H168.276Z" fill="#BFA187"/>
<path d="M199.936 221.944C200.416 226.054 200.466 229.254 198.216 232.814C194.146 239.224 187.336 243.044 180.516 245.934C180.266 245.654 181.196 239.404 181.246 238.394C181.516 233.064 180.806 227.744 180.756 222.434C186.776 224.884 193.886 223.964 199.936 221.954V221.944Z" fill="#A87A58"/>
<path d="M34.2155 178.534C32.5655 181.844 31.1255 185.634 30.8555 189.324C18.7755 184.874 12.3555 175.814 18.7355 163.174L20.0555 161.024C21.9755 165.954 25.0655 170.704 28.9255 174.334C30.2655 175.594 32.6555 177.644 34.2055 178.524L34.2155 178.534Z" fill="#BFA187"/>
<path d="M53.1557 158.384C54.9457 163.404 54.9757 169.594 55.2757 174.894C53.2557 175.094 51.1657 177.844 49.7857 178.394C45.8357 179.994 39.3857 177.624 35.8857 175.644C37.6457 172.434 40.1457 169.124 42.5957 166.404C45.4257 163.254 49.0557 159.684 53.1557 158.374V158.384Z" fill="#A87A59"/>
<path d="M127.986 271.114C128.336 270.154 129.216 270.524 129.916 270.284C130.146 270.204 132.216 268.274 132.406 267.984C133.756 265.974 132.346 262.414 129.896 262.004C131.016 259.864 132.206 256.274 131.056 254.014C130.586 253.084 129.736 252.734 129.426 252.174C129.376 252.074 129.486 251.724 129.306 251.464C128.836 250.764 126.716 250.624 127.746 248.584C129.096 248.834 131.166 248.744 132.366 249.114C133.056 249.324 134.986 251.334 135.816 251.904C137.486 253.044 142.506 255.574 144.406 255.784C145.936 255.954 147.556 255.554 149.086 255.904C150.126 256.854 150.986 259.984 152.066 260.594C152.866 261.054 155.766 260.574 155.966 262.404C156.326 265.694 151.826 266.074 149.566 265.244C146.956 264.284 148.916 263.594 148.556 261.944C148.276 260.664 143.136 256.964 141.816 256.444C140.146 255.794 137.046 255.784 136.086 257.524C135.866 257.924 134.496 262.374 134.456 262.854C134.166 266.094 137.566 264.874 137.296 267.344C136.846 271.454 131.156 272.394 127.986 271.124V271.114Z" fill="#96DF3A"/>
<path d="M34.2155 178.534C37.8655 180.604 42.3855 181.364 46.4455 182.254C44.5855 184.754 44.1455 188.204 41.0955 189.614C37.0955 191.474 34.7655 190.774 30.8555 189.324C31.1255 185.624 32.5655 181.844 34.2155 178.534Z" fill="#A87A58"/>
<path d="M30.1357 192.444C31.8557 193.074 34.3057 193.524 36.1357 193.644C35.4457 195.894 34.6557 200.214 36.4957 202.034C38.3357 203.854 43.6457 203.114 41.0857 207.584C39.1057 211.044 35.8057 212.404 32.0557 210.904C32.8957 209.094 35.0557 210.474 35.7857 208.034C36.7857 204.714 32.8457 201.654 31.5357 198.834C30.6357 196.894 30.3257 194.554 30.1457 192.434L30.1357 192.444Z" fill="#96DF3A"/>
<path d="M128.226 52.6136C129.976 51.9136 130.766 51.2036 132.706 52.0936C136.266 53.7236 136.626 60.1436 137.826 63.4036C134.256 63.9036 130.756 64.9536 127.516 66.5236C128.136 64.2836 130.166 62.2536 130.396 59.9336C130.646 57.4236 129.306 54.7936 128.236 52.6136H128.226Z" fill="#96DF3A"/>
<path d="M177.396 167.024C177.156 171.044 180.146 173.324 176.316 176.374C174.416 177.884 173.406 177.424 171.166 177.814C171.086 177.504 171.276 177.064 171.046 176.614C170.646 175.824 169.596 176.354 169.076 174.264C167.866 169.424 172.886 165.614 177.406 167.014L177.396 167.024Z" fill="#C3EE79"/>
<path d="M190.586 177.094C190.766 179.214 192.726 181.884 192.156 184.054C191.946 184.844 190.386 187.334 189.756 187.894C189.616 188.014 188.126 189.024 188.026 189.054C187.466 189.194 185.956 188.484 185.076 189.334C183.416 186.454 183.626 182.764 185.456 179.994C186.386 178.584 188.326 177.014 190.076 176.904C190.446 176.884 190.546 177.094 190.596 177.104L190.586 177.094Z" fill="#C3EE79"/>
<path d="M183.876 209.234C184.076 209.484 184.636 210.864 184.976 211.374C187.076 214.544 189.126 217.314 192.266 219.544C189.306 220.894 186.096 221.234 182.906 220.154C181.616 219.714 180.926 219.124 181.026 217.784C181.146 216.244 182.146 210.404 182.726 209.164C182.806 208.994 182.876 208.864 183.036 208.764C183.196 208.984 183.776 209.114 183.876 209.234Z" fill="#BFA187"/>
<path d="M185.066 189.324C185.946 188.474 187.456 189.184 188.016 189.044C188.116 189.014 189.606 188.014 189.746 187.884C190.376 187.324 191.936 184.834 192.146 184.044C192.726 181.874 190.756 179.204 190.576 177.084C194.606 177.544 196.776 181.794 196.306 185.574C196.026 187.854 192.626 190.824 190.396 191.174C187.926 191.554 186.336 191.524 185.056 189.314L185.066 189.324Z" fill="#96DF3A"/>
<path d="M183.636 205.394C184.956 203.684 186.996 202.494 188.316 200.844C190.856 197.664 187.476 198.184 187.716 195.084C191.646 194.974 193.936 198.864 193.116 202.524C192.376 205.784 185.916 207.904 183.636 205.404V205.394Z" fill="#97E03A"/>
<path d="M170.606 181.244C170.886 181.654 171.346 184.694 171.396 185.374C171.666 188.974 171.096 192.584 170.366 196.094L169.246 199.884C166.716 193.654 166.776 186.534 169.606 180.464C169.786 180.834 170.466 181.034 170.616 181.254L170.606 181.244Z" fill="#C1EB77"/>
<path d="M127.986 271.114C125.596 270.164 124.716 268.194 125.376 265.744C126.216 262.624 128.576 264.544 129.906 262.004C132.346 262.414 133.756 265.984 132.416 267.984C132.226 268.274 130.156 270.214 129.926 270.284C129.226 270.524 128.346 270.154 127.996 271.114H127.986Z" fill="#C3EE79"/>
<path d="M171.156 177.814C173.396 177.424 174.405 177.874 176.305 176.374C180.145 173.324 177.155 171.044 177.385 167.024C178.715 167.434 180.325 169.424 180.755 170.724C181.755 173.744 181.905 176.614 179.135 178.734C177.545 179.954 175.456 180.124 173.536 179.624C173.056 179.504 171.256 178.234 171.146 177.814H171.156Z" fill="#96DF3A"/>
<path d="M188.186 173.494C188.876 172.564 191.656 171.014 191.976 169.964C192.506 168.214 190.586 165.504 190.826 163.654C193.796 163.014 194.986 164.324 196.046 166.944C196.636 168.394 197.236 169.684 196.236 171.094C194.386 173.714 192.986 173.264 190.236 173.494C189.216 173.584 189.906 174.094 188.186 173.484V173.494Z" fill="#96DF3A"/>
<path d="M190.826 163.664C190.586 165.504 192.506 168.214 191.976 169.974C191.656 171.024 188.876 172.564 188.186 173.504C187.226 173.164 186.836 173.144 186.216 172.234C183.636 168.414 187.066 164.484 190.816 163.674L190.826 163.664Z" fill="#C3EE79"/>
<path d="M127.746 248.564C126.716 250.614 128.836 250.754 129.306 251.444C129.486 251.704 129.366 252.054 129.426 252.154C127.446 251.654 125.656 251.074 123.576 251.224C122.906 251.274 118.166 252.164 117.826 252.374C117.206 252.754 117.386 254.664 116.296 254.984C115.706 255.154 113.736 255.124 113.246 254.774C111.996 253.894 113.396 250.954 114.786 250.564C115.716 250.304 117.466 251.144 118.696 250.894C120.366 250.554 124.056 247.944 125.246 247.834C126.156 247.744 127.016 248.414 127.746 248.554V248.564Z" fill="#C1EB77"/>
<path d="M187.706 195.084C187.466 198.184 190.846 197.664 188.306 200.844C186.986 202.494 184.946 203.684 183.626 205.394C180.686 202.154 182.936 195.214 187.706 195.084Z" fill="#C3EE79"/>
<path d="M67.3057 255.044C67.5057 253.154 69.3757 251.154 68.2657 249.284C72.3157 247.444 77.1157 243.204 78.1057 238.734C78.5357 238.774 78.3757 240.014 78.3257 240.274C77.8957 242.544 73.3257 248.424 71.9757 251.194C71.6757 251.794 71.4557 253.104 71.2657 253.364C71.1757 253.494 68.6657 254.884 68.5157 254.934C68.1557 255.054 67.6857 255.104 67.3157 255.044H67.3057Z" fill="#96DF3A"/>
<path d="M19.3456 197.724C16.7856 200.204 17.7356 204.434 13.3456 206.234C11.6356 206.934 11.2556 207.004 9.51562 206.354C9.64562 205.054 10.7556 205.564 11.4956 205.344C12.6256 205.004 15.4556 202.744 15.6956 201.634C15.8356 200.984 15.5856 200.264 15.8656 199.644C15.9156 199.544 17.1756 198.064 17.2956 197.964C18.0356 197.324 18.4756 197.564 19.3356 197.724H19.3456Z" fill="#96DF3A"/>
<path d="M67.3057 255.044C66.1757 254.864 63.3557 252.224 63.4557 251.094C63.9357 249.874 65.8057 250.184 66.8357 249.904C67.3457 249.764 67.7857 249.504 68.2657 249.294C69.3757 251.164 67.5057 253.164 67.3057 255.054V255.044Z" fill="#C1EB77"/>
<path d="M91.4557 245.234C92.5257 244.924 94.0057 246.894 93.1857 248.184C91.2857 251.184 89.8857 245.684 91.4557 245.234Z" fill="#96DF3A"/>
<path d="M52.3555 26.0836C53.2355 27.0336 52.8355 28.1836 52.0755 29.1036C50.6755 30.7936 47.0755 30.1736 44.9955 30.6636C39.6255 31.9236 40.3655 37.3736 37.6755 40.8536C35.7955 43.2836 34.0455 43.3736 33.0055 40.2836C32.3255 38.2436 32.1555 35.4336 32.5455 33.3236C32.7255 32.3436 34.1055 31.7536 33.0255 30.4236C31.8155 28.9436 29.3155 31.2336 27.6255 31.2936C26.3355 31.3436 24.7055 30.9136 25.2155 29.3436C26.0055 26.8736 30.9555 26.6136 29.4755 22.7036C29.0055 21.4436 25.1355 18.1836 25.3855 16.7936C25.6355 15.4036 30.0155 16.7536 30.9255 17.1836C32.9455 18.1436 33.6455 20.5836 36.0055 17.8136C37.3455 16.2436 39.7655 10.3636 41.5955 9.96359C45.5555 9.09359 42.3255 15.3936 42.1455 17.2336C41.3555 25.1336 48.9255 22.3436 52.3755 26.0736L52.3555 26.0836Z" fill="#FDDC5E"/>
<path d="M239.036 73.2436C239.516 75.5536 236.076 78.7736 237.596 80.7436C238.616 82.0736 240.946 81.3736 242.336 81.8236C243.456 82.1836 245.956 83.8836 244.306 85.1036C243.366 85.7936 239.986 86.3736 238.636 87.1036C234.446 89.3636 240.206 94.9036 234.906 95.9936C234.706 95.9436 232.996 94.2636 232.816 93.9836C231.826 92.5336 232.406 88.6536 230.186 87.9736C226.906 86.9736 224.176 90.0036 221.196 89.5236C220.266 89.3736 219.946 89.0336 220.206 88.0936C220.696 86.3636 223.336 83.2136 224.776 82.1036C225.686 81.3936 226.616 81.6236 227.116 80.1236C227.616 78.6236 226.976 78.6036 226.836 77.6536C226.636 76.2936 226.606 74.7936 226.926 73.4536C227.586 70.6936 229.676 75.1436 230.296 75.8736C233.886 80.0936 235.666 74.0336 239.056 73.2336L239.036 73.2436Z" fill="#FCDC5E"/>
<path d="M132.306 146.874C132.126 149.044 130.266 150.024 128.226 149.994C123.976 149.934 115.996 145.514 111.436 144.114C96.7855 139.644 86.5555 141.054 71.7555 141.604C69.1755 141.704 62.7355 142.044 60.9455 140.164C56.4555 135.454 63.7755 128.664 67.9455 126.754C78.4555 121.944 94.7155 122.964 105.686 125.884C114.456 128.214 133.246 135.694 132.306 146.874ZM112.676 141.554C116.716 142.794 120.516 144.774 124.496 146.164C128.476 147.554 130.626 148.224 128.746 143.114C126.196 136.194 111.046 130.234 104.286 128.484C94.4155 125.934 77.9255 125.004 68.6455 129.644C65.9655 130.984 61.7655 134.594 63.0355 137.954C63.2655 138.184 65.0955 138.654 65.5255 138.704C68.4655 139.044 72.3055 138.404 75.3255 138.244C76.4755 138.184 77.6555 138.314 78.8155 138.244C78.6855 137.074 79.4055 135.974 80.1355 135.124C85.8355 128.454 100.136 130.874 106.956 134.694C109.586 136.164 112.426 138.314 112.676 141.564V141.554ZM81.9355 137.994C91.2355 137.074 100.266 138.344 109.276 140.514C106.886 137.294 102.556 135.684 98.7755 134.704C93.6455 133.374 85.0855 132.824 81.9355 137.994Z" fill="#030302"/>
<path d="M103.946 112.154C105.466 111.894 106.526 113.024 105.706 114.394C105.496 114.744 103.316 115.954 102.696 116.424C101.716 117.174 100.806 119.014 99.3155 118.114C98.4955 117.614 98.5855 116.434 99.0955 115.704C99.2455 115.494 101.286 113.704 101.626 113.444C102.196 113.004 103.246 112.274 103.946 112.154Z" fill="#050403"/>
<path d="M89.2857 110.264C90.0057 111.304 95.2657 115.664 92.0757 116.604C90.4157 117.094 90.1857 115.544 89.3657 114.624C88.7657 113.954 86.7757 112.284 86.5857 111.624C86.1157 109.954 88.1557 109.044 89.2857 110.264Z" fill="#050403"/>
<path d="M54.7855 63.4836C75.1055 61.8136 89.3755 83.2536 79.6655 101.314C70.6355 118.114 46.7855 119.464 35.9355 103.784C24.7455 87.6136 35.2555 65.0936 54.7855 63.4836ZM64.4255 67.9736C46.0055 61.6936 28.7655 80.0836 36.5655 98.1136C43.4555 114.044 65.8255 116.204 75.5155 101.724C76.2955 100.554 77.4855 98.8336 77.5055 97.4736C74.2755 101.134 69.9855 103.164 65.0355 102.744C61.5255 102.454 56.9555 101.224 54.2455 98.9036C44.5755 90.6436 49.0855 72.7736 60.7055 68.9136L64.4355 67.9736H64.4255ZM64.1255 71.1436C50.9555 72.8736 46.7055 94.5136 60.0555 98.6036C66.1255 100.464 71.3255 100.184 75.5555 95.0536C79.7855 89.9236 79.9055 84.3036 76.6955 78.3636C73.9455 73.2836 70.1655 70.3536 64.1155 71.1436H64.1255Z" fill="#030404"/>
<path d="M140.176 71.6336C160.576 69.9536 174.846 91.5536 164.966 109.614C155.846 126.284 132.126 127.554 121.316 111.924C110.506 96.2936 120.636 73.2336 140.166 71.6236L140.176 71.6336ZM120.796 102.504C124.166 117.594 142.146 124.524 155.026 115.744C165.946 108.294 168.116 92.7736 159.416 82.7036C154.146 76.6036 146.286 73.9436 138.306 75.1536L141.906 76.7036C152.066 83.6436 152.846 96.2436 144.426 105.134C137.486 112.454 126.526 109.864 120.806 102.494L120.796 102.504ZM133.206 77.8636C127.136 78.8236 120.446 87.4836 120.806 93.5136C121.436 104.054 134.936 111.194 142.636 102.634C147.996 96.6736 148.866 88.8036 143.786 82.2836C141.766 79.6936 136.436 77.3536 133.206 77.8636ZM120.676 102.024V102.264C120.836 102.184 120.836 102.104 120.676 102.024Z" fill="#030404"/>
<path d="M82.1758 203.714C82.8458 201.604 83.2858 198.854 84.0258 196.574C85.4058 192.324 87.1958 188.194 88.3358 183.854C88.8158 182.044 89.6558 176.014 90.3158 175.044C90.4358 174.864 90.8458 174.494 91.0358 174.454C92.0258 174.244 92.9258 175.204 92.8558 176.134C92.7058 178.064 91.2758 182.454 90.6758 184.524C89.2858 189.284 87.4358 193.884 86.1158 198.674C85.5358 200.784 85.4558 206.444 82.1558 203.714H82.1758Z" fill="#050403"/>
<path d="M77.5657 189.034C76.5757 190.024 75.1456 188.864 74.5056 188.014C72.6656 185.564 70.8657 178.174 70.6557 175.074C70.5557 173.544 70.0657 168.464 72.8257 169.784C74.0757 170.384 73.3157 172.464 73.3057 173.384C73.2357 178.084 74.1257 182.104 76.7057 186.054C77.2157 186.824 78.7157 187.884 77.5657 189.034Z" fill="#050403"/>
<path d="M201.616 39.1836C203.056 38.1736 205.086 38.5636 204.446 40.6936C198.276 46.1736 194.836 53.0436 192.816 60.9536C192.236 63.2436 191.956 64.0536 192.036 66.4136C192.086 67.7736 191.136 68.2936 189.866 67.9636C188.766 67.6736 188.876 65.9036 188.976 65.0336C189.576 59.6136 193.266 50.5436 196.286 45.9636C197.206 44.5636 200.466 39.9936 201.616 39.1836Z" fill="#030302"/>
<path d="M200.346 62.9736C201.726 62.5536 202.636 63.2736 202.326 64.7136C199.626 69.4536 198.206 74.6436 197.776 80.0836C197.666 81.4836 198.326 84.7336 196.986 85.3036C195.646 85.8736 195.016 84.5836 194.896 83.4436C194.496 79.6536 196.196 72.0136 197.526 68.3336C197.856 67.4336 199.596 63.2136 200.336 62.9836L200.346 62.9736Z" fill="#030302"/>
<path d="M112.676 141.554C112.426 138.304 109.586 136.164 106.956 134.684C100.136 130.864 85.8357 128.444 80.1357 135.114C79.4057 135.964 78.6857 137.064 78.8157 138.234C77.6657 138.294 76.4857 138.164 75.3257 138.234C72.3157 138.394 68.4657 139.034 65.5257 138.694C65.0957 138.644 63.2657 138.174 63.0357 137.944C61.7657 134.584 65.9557 130.974 68.6457 129.634C77.9257 124.994 94.4157 125.924 104.286 128.474C111.046 130.224 126.196 136.184 128.746 143.104C130.626 148.214 128.286 147.474 124.496 146.154C120.516 144.764 116.716 142.794 112.676 141.544V141.554Z" fill="#843E47"/>
<path d="M81.9355 137.994C85.0855 132.824 93.6455 133.374 98.7755 134.704C102.556 135.684 106.876 137.294 109.276 140.514C100.276 138.344 91.2355 137.064 81.9355 137.994Z" fill="#C27877"/>
<path d="M64.4256 67.9736L60.6956 68.9136C49.0856 72.7636 44.5756 90.6436 54.2356 98.9036C56.9456 101.224 61.5156 102.454 65.0256 102.744C69.9756 103.154 74.2656 101.134 77.4956 97.4736C77.4856 98.8336 76.2956 100.554 75.5056 101.724C65.8156 116.204 43.4456 114.044 36.5556 98.1136C28.7556 80.0836 45.9956 61.6936 64.4156 67.9736H64.4256Z" fill="#EEFDF8"/>
<path d="M64.1255 71.1436C70.1755 70.3436 73.9555 73.2836 76.7055 78.3636C79.9155 84.3036 79.9755 89.7136 75.5655 95.0536C71.1555 100.394 66.1255 100.454 60.0655 98.6036C46.7055 94.5236 50.9655 72.8836 64.1355 71.1436H64.1255Z" fill="#1A547C"/>
<path d="M120.796 102.504C126.526 109.874 137.486 112.464 144.416 105.144C152.846 96.2536 152.066 83.6636 141.896 76.7136L138.296 75.1636C146.276 73.9436 154.136 76.6136 159.406 82.7136C168.096 92.7736 165.936 108.304 155.016 115.754C142.146 124.534 124.156 117.604 120.786 102.514L120.796 102.504Z" fill="#EEFDF8"/>
<path d="M133.206 77.8636C136.436 77.3536 141.766 79.6836 143.786 82.2836C148.866 88.8136 147.996 96.6736 142.636 102.634C134.936 111.194 121.436 104.054 120.806 93.5136C120.446 87.4836 127.146 78.8236 133.206 77.8636Z" fill="#1A547C"/>
<path d="M120.676 102.024C120.836 102.104 120.836 102.184 120.676 102.264V102.024Z" fill="#EEFDF8"/>
</svg>
