<svg width="165" height="234" viewBox="0 0 165 234" fill="none" xmlns="http://www.w3.org/2000/svg">
<path d="M113.618 59.9054C124.893 66.8637 129.426 81.3387 124.759 93.7387C124.526 94.3637 123.134 97.0387 123.193 97.3637C127.251 99.3554 129.743 103.455 132.201 107.08C132.359 106.164 132.526 105.105 132.601 104.18C133.984 86.847 131.851 68.7887 134.034 51.647C135.634 39.097 139.268 22.897 149.301 14.347C152.468 11.647 155.201 9.80538 159.493 9.54705C161.018 9.45538 161.909 9.73871 162.951 10.872C166.151 14.3637 164.209 19.122 162.218 22.6637C161.526 23.9054 158.118 27.947 159.434 29.2804C161.084 29.8804 162.368 29.8054 163.343 31.4637C165.401 34.972 163.584 39.1554 161.543 42.1804C160.451 43.8054 158.284 45.7304 157.693 47.522C156.576 50.8637 159.868 49.9554 161.493 51.5054C163.918 53.8304 163.626 57.7637 162.926 60.747C161.651 66.172 157.034 70.697 154.484 75.497C151.701 80.7304 149.434 86.6304 147.693 92.2887C145.459 99.547 143.768 106.955 142.593 114.472C143.909 114.622 145.176 115.747 146.193 116.572C154.151 123.055 159.268 133.089 162.518 142.614C166.676 154.78 164.668 165.955 156.943 176.097C154.476 179.339 150.984 181.822 147.468 183.822C147.684 184.73 148.201 185.564 148.434 186.472C149.076 188.914 149.284 196.405 148.693 198.83C148.026 201.555 144.959 204.28 142.768 205.897C138.368 209.139 132.909 210.422 127.893 212.405C127.626 214.214 127.634 216.047 127.343 217.847C126.384 223.755 125.018 229.014 119.793 232.48C118.851 233.105 116.593 234.197 116.101 232.605C115.801 231.647 116.976 227.097 117.184 225.672C117.751 221.68 118.051 217.622 118.409 213.605C115.418 214.33 112.359 214.989 109.293 215.38C102.218 216.28 89.8843 216.83 82.9843 215.555C78.826 214.789 76.8343 211.43 75.8343 207.614C72.4176 208.414 69.6676 207.33 66.8593 205.497C63.2176 203.122 60.8176 198.597 64.4426 195.022C63.6593 195.047 62.8426 194.514 62.1343 194.422C61.726 194.372 61.876 194.439 61.8426 194.714C61.7343 195.514 61.9343 196.347 61.7593 197.23C61.3676 199.164 59.5926 201.639 59.101 203.764C58.0843 208.147 59.876 214.772 64.4426 216.497C66.3176 217.205 69.251 217.089 70.7343 218.197C72.326 219.389 72.151 220.972 70.8426 222.297C65.951 227.23 53.1843 226.205 47.2593 223.489C43.1926 221.622 42.4426 217.497 42.6593 213.397C41.1926 213.347 39.501 213.03 38.051 212.705C29.7343 210.847 20.251 206.747 20.251 196.705C20.251 195.822 20.8426 194.264 20.6343 193.547C20.576 193.347 19.6343 192.28 19.3676 191.805C18.4093 190.089 16.226 184.88 16.1093 183.055C16.076 182.572 16.476 182.222 16.376 182.005C16.276 181.772 14.1343 180.047 13.6676 179.514C7.81763 172.83 9.29263 158.622 10.5093 150.364C11.726 142.105 13.6593 134.472 17.4593 127.355C17.5093 126.397 15.2676 124.914 14.576 124.055C11.601 120.372 11.6426 115.48 11.8676 110.955C12.0426 107.589 12.8093 104.405 14.0593 101.297C6.77597 97.2387 1.6093 89.572 0.342636 81.3304C-1.62403 68.5804 5.0093 56.1137 16.801 50.9387C24.0176 47.7637 32.276 47.872 39.451 51.1137C40.151 49.297 41.901 47.3887 43.651 46.5137C43.176 45.822 43.1843 45.0387 43.251 44.222C43.7593 38.3137 49.626 36.8387 54.5676 36.1554C58.101 35.6637 61.8676 35.597 65.4343 35.5304C65.851 30.9304 66.0426 26.0554 65.8426 21.4304C65.5676 15.1804 63.926 10.4054 69.426 5.64705C80.5926 -4.01128 102.993 -0.986287 109.976 12.472C111.893 16.1637 111.801 17.797 109.559 21.2054C105.851 26.8637 103.101 28.422 101.468 35.697C101.218 36.822 100.326 42.472 101.001 43.0304C104.126 44.1804 106.834 45.7887 109.543 47.6804C112.526 49.7637 118.526 53.7637 115.484 58.1054C114.909 58.922 113.851 59.072 113.601 59.9137L113.618 59.9054ZM93.4343 3.54705C86.301 1.70538 77.2926 2.58038 71.4426 7.43872C66.4926 11.5554 68.3093 15.5554 68.4593 21.022C68.5843 25.8387 68.5593 30.7304 68.0593 35.5137C68.2926 35.7804 74.1676 35.8387 75.1426 35.922C78.1843 36.197 81.2593 36.8804 84.2426 37.522C89.0843 38.5637 93.9843 39.722 98.4343 41.922C98.4426 36.2054 99.976 29.9637 103.268 25.272C104.609 23.3637 108.468 19.2304 108.751 17.147C109.076 14.7554 105.551 10.2387 103.834 8.64705C100.934 5.94705 97.226 4.53038 93.4343 3.55538V3.54705ZM156.593 28.7304C156.359 24.097 162.601 20.1387 161.993 14.8387C161.609 11.522 159.293 12.0054 156.784 12.6304C153.226 13.522 147.659 19.247 145.718 22.347C137.434 35.5304 136.309 51.4054 135.818 66.6054C135.434 78.547 136.134 90.447 135.209 102.372C134.459 112.047 133.068 122.38 131.159 131.897C130.593 134.705 130.043 137.747 128.876 140.355C131.501 143.255 132.818 146.772 131.518 150.647C130.668 153.164 129.401 155.222 126.818 156.18C125.576 165.68 121.984 174.705 119.926 184.022C118.901 188.672 118.684 191.522 119.484 196.264C119.818 198.247 120.476 200.155 120.801 202.139C121.584 206.922 121.018 211.347 120.626 216.105C120.234 220.864 119.901 225.289 119.026 229.797C120.851 228.272 122.443 226.864 123.259 224.539C125.151 219.197 125.968 210.064 126.226 204.322C126.584 196.322 123.951 189.58 126.868 181.58C128.901 175.997 133.509 169.63 134.168 163.689C134.268 162.78 133.293 161.564 133.001 160.555C131.893 156.755 133.284 153.322 136.809 151.547C130.851 149.189 133.009 140.389 137.701 137.855C139.359 129.322 139.168 120.447 140.434 111.814C141.409 105.172 143.226 97.7054 145.201 91.297C146.818 86.0304 149.151 80.3554 151.626 75.4387C154.218 70.297 163.201 60.2804 160.359 54.4637C159.309 52.322 157.018 53.447 155.559 51.072C153.009 46.8887 157.759 43.3637 159.759 40.2054C160.901 38.3887 161.918 36.322 161.551 34.097C161.184 31.872 160.126 32.5637 158.601 31.847C157.301 31.2387 156.676 30.1887 156.601 28.747L156.593 28.7304ZM96.051 55.4887C99.7676 55.3637 103.209 55.5887 106.776 56.6554C107.509 56.8804 110.126 58.0554 110.484 58.0554C112.176 58.047 114.109 56.6304 113.526 54.7054C112.726 52.0554 104.176 47.122 101.559 45.8887C92.1343 41.4137 81.8176 38.7137 71.351 38.122C66.001 37.8137 52.1343 37.7804 47.8676 40.8387C46.501 41.822 45.501 43.8137 46.051 45.4387C50.0676 44.197 54.976 47.322 57.0093 50.6554C58.0426 52.347 59.6093 54.4554 60.451 56.0054C61.2176 57.4054 61.3426 59.1387 62.176 60.5137C65.476 60.1387 68.4926 61.0137 71.6343 61.8137C72.8926 60.797 73.751 59.347 74.8343 58.2054C77.501 55.3804 83.7593 48.997 87.551 48.5387C91.876 48.0137 95.3343 51.397 96.0426 55.4887H96.051ZM72.4426 74.497C75.3176 64.972 83.8676 57.822 93.5426 55.9137C93.5426 53.722 90.876 50.922 88.7343 50.9054C86.0176 50.8887 82.2343 54.5054 80.3343 56.297C79.0676 57.4887 77.7343 58.8304 76.5426 60.097C75.651 61.0304 73.4593 64.1887 72.3093 64.4554C70.7676 64.8137 68.0176 63.322 66.3343 63.122C65.1343 62.9804 63.601 63.097 62.351 63.0887C61.6176 63.0887 61.1093 63.522 60.351 62.9054C59.501 62.2137 58.8676 58.5304 58.301 57.3637C57.8343 56.422 56.4593 54.9054 55.776 53.8887C54.651 52.2054 54.426 51.0054 52.6426 49.622C50.0343 47.597 47.1426 46.997 44.276 49.0137C43.6093 49.4804 41.4593 51.6887 41.9593 52.497C49.2676 56.8137 54.5093 64.597 55.4593 73.0887C60.2843 70.6137 65.476 71.1054 70.251 73.3804C70.6843 73.5887 72.1926 74.697 72.4426 74.4887V74.497ZM55.5926 76.2304C54.7593 76.8554 53.876 77.3554 53.1676 76.2887C52.5676 65.297 45.6093 55.4637 34.876 52.4137C13.2093 46.2554 -4.60737 69.3637 5.8593 89.022C15.376 106.88 40.9926 106.505 50.226 88.5554C51.826 85.447 51.7093 83.597 55.126 81.6637C59.9176 78.9387 68.9593 79.947 72.7593 84.0887C73.901 85.3387 74.101 89.1137 74.6426 90.997C82.026 116.372 118.801 114.205 123.359 88.3387C128.459 59.3637 89.026 45.547 75.6176 73.572C74.876 75.122 74.6426 77.697 72.2093 77.272C71.4426 77.1387 69.0093 75.5887 67.9093 75.1554C63.4843 73.4137 59.451 73.3387 55.601 76.2387L55.5926 76.2304ZM97.0343 111.672C85.4843 111.33 75.101 102.68 71.951 91.6887C71.6093 90.4887 71.001 85.847 70.6593 85.3804C70.3426 84.947 68.301 83.972 67.701 83.7387C64.0926 82.322 58.076 81.9637 55.051 84.7887C54.1426 85.6387 52.7676 89.7054 51.8926 91.222C46.7426 100.172 36.751 105.447 26.4176 105.072L25.6593 106.58C25.6593 107.005 26.601 107.214 26.9176 107.33C33.576 109.747 43.051 110.697 50.1343 111.697C63.451 113.572 79.3343 115.697 92.7426 114.88C94.176 114.797 95.5926 114.414 97.0176 114.264V111.672H97.0343ZM99.226 213.605C102.534 213.564 106.201 213.205 109.493 212.78C110.518 212.647 118.518 211.33 118.626 210.88C118.393 209.389 118.843 207.73 118.826 206.322C118.776 201.822 116.701 196.68 116.409 191.93C116.184 188.214 117.351 184.63 118.018 181.03C116.093 180.814 114.018 178.247 112.826 176.73C106.668 168.897 106.501 158.905 109.076 149.614C110.976 142.747 115.076 138.047 120.718 133.872C122.984 132.197 125.801 131.005 128.609 131.872L131.818 111.997C129.784 108.314 128.051 104.639 124.926 101.68C124.068 100.872 122.459 99.5137 121.218 100.189C121.043 100.289 119.151 102.83 118.718 103.289C117.959 104.089 115.934 105.43 115.809 106.372C115.768 106.697 115.784 108.939 115.851 109.047C117.001 109.389 120.701 112.897 120.968 113.822C121.343 115.105 120.293 116.139 119.134 115.455C118.259 114.939 116.884 112.222 115.618 111.68C114.918 119.464 109.668 129.164 102.759 133.097C100.851 134.18 99.6093 134.147 97.8343 134.772C97.0176 135.064 94.4093 136.889 93.226 137.464C89.251 139.405 85.1093 140.872 80.6343 141.064C80.8843 143.53 80.926 146.072 80.8426 148.572C80.5426 157.989 78.176 167.422 77.4343 176.747C77.1676 180.13 77.251 183.739 77.0343 187.139C76.8843 189.53 76.3676 191.955 76.2426 194.339C76.0426 198.08 77.8843 208.764 80.526 211.43C82.2426 213.172 84.8176 213.297 87.1343 213.422C90.9176 213.622 95.4176 213.672 99.226 213.622V213.605ZM96.626 124.264C96.5676 124.214 96.151 123.389 96.1176 123.272C95.776 121.964 96.826 121.789 96.826 121.572V116.872C94.751 117.139 92.601 117.655 90.5343 117.264C70.376 117.022 49.301 115.205 29.6676 110.58C28.0093 110.189 26.3176 109.822 24.7676 109.105C24.526 109.13 23.8343 111.439 23.7343 111.83C23.4093 113.097 23.5343 115.947 21.826 115.639C19.6843 115.255 21.426 111.222 21.826 109.922C22.3676 108.147 23.076 106.43 23.676 104.68L21.076 104.18L16.2676 102.564C15.1926 104.93 14.7093 107.397 14.476 109.98C14.0843 114.397 13.9093 120.164 17.4676 123.372C19.051 124.797 18.676 124.064 19.7926 126.047C22.026 130.03 25.501 132.097 29.8593 133.264C30.2593 131.48 30.351 129.614 30.7176 127.822C31.0176 126.372 31.551 123.147 33.7343 124.289C34.6093 124.747 35.3176 127.005 35.8926 127.93C36.4343 128.805 40.876 134.105 41.5593 134.055C42.551 131.972 43.3176 129.83 44.576 127.88C45.8343 125.93 50.7926 119.114 52.851 118.564C53.5093 118.389 54.0176 118.389 54.5426 118.88C54.9176 119.23 56.1843 121.355 56.4926 121.93C57.9843 124.73 59.101 127.939 60.3593 130.855C61.8926 129.389 67.3176 124.022 69.1843 123.922C71.051 123.822 71.3176 127.047 71.451 128.364C71.6843 130.722 71.626 133.464 71.651 135.855C71.6593 136.714 71.6343 137.58 71.6593 138.447C79.601 139.822 87.451 138.022 94.3676 134.097C95.1676 133.639 96.4176 132.472 97.0843 132.222C97.751 131.972 98.526 132.105 99.3343 131.88C107.159 129.697 114.134 115.597 113.218 107.789L108.326 110.089C106.484 110.814 104.576 111.18 102.626 111.48C101.568 111.647 100.501 111.672 99.451 111.905C99.3093 114.539 99.251 117.147 99.2176 119.789C99.2176 120.189 99.4343 120.605 99.426 120.88C99.4093 121.605 99.126 123.689 98.6343 124.189C98.1426 124.689 97.126 124.739 96.626 124.28V124.264ZM149.443 142.405C149.559 142.547 150.193 142.739 150.593 143.155C153.284 146.03 156.834 152.014 157.184 155.947C157.743 162.139 153.768 171.03 150.476 176.214C149.418 177.88 148.068 179.347 147.093 181.022C153.859 177.714 158.309 170.639 160.734 163.689C163.926 154.539 161.176 145.43 157.684 136.864C155.109 130.547 149.668 122.705 144.293 118.48C144.068 118.305 142.543 117.097 142.401 117.28L140.784 135.347C141.493 135.48 141.976 136.355 142.409 136.564C144.376 137.497 145.518 136.739 147.693 138.68C149.559 140.339 148.859 141.714 149.451 142.422L149.443 142.405ZM51.6593 122.664C49.1926 125.222 45.7343 130.289 44.5093 133.605C43.8843 135.305 44.0093 138.397 41.3176 137.305C41.0926 137.214 39.601 135.864 39.2676 135.564C37.2176 133.73 35.4343 131.639 33.826 129.414L33.076 128.064C32.301 132.205 31.9176 136.13 32.0676 140.364C32.526 153.147 37.1343 159.989 40.526 171.48C42.726 178.939 41.4426 184.472 42.0676 191.73C42.576 197.589 50.3926 199.955 49.651 205.097C49.3676 207.055 45.676 210.114 45.3176 211.755C44.8926 213.655 45.2343 218.097 46.476 219.705C48.076 221.789 54.2926 223.039 56.8676 223.205C59.7093 223.38 65.3843 222.939 67.8426 221.489C68.276 221.239 68.6426 220.63 69.051 220.305C69.051 220.022 64.3426 219.214 63.6093 218.955C57.8343 216.889 55.376 208.98 56.551 203.414C57.0093 201.239 59.6093 197.139 59.251 195.33C59.1843 195.005 57.7676 193.114 57.451 192.73C55.7176 190.68 54.0093 190.189 53.6843 187.105C52.7676 178.28 58.4176 168.597 62.026 160.922C66.9093 150.53 70.201 139.605 68.8343 127.989C68.8093 127.797 68.726 127.114 68.3593 127.272C66.476 128.855 64.1343 130.372 62.551 132.264C61.476 133.547 61.6426 133.655 61.1676 135.072C60.901 135.864 59.9843 136.297 59.2676 135.747C58.651 135.264 57.4676 130.222 57.0093 129.014C56.6343 128.039 53.701 121.597 53.151 121.472C52.4676 121.647 52.0926 122.222 51.6676 122.664H51.6593ZM21.2843 163.839C22.676 164.23 23.8343 164.98 25.4843 164.639C25.3176 163.647 25.6426 162.68 25.6926 161.747C26.0176 155.105 25.5676 147.905 25.2843 141.255C25.1843 138.83 25.1093 136.43 24.5926 134.055C22.5843 132.914 20.7176 131.614 19.1926 129.864C14.3843 138.63 12.926 149.022 12.1343 158.897C13.976 162.18 17.926 162.889 21.2926 163.839H21.2843ZM128.001 134.264C124.551 133.389 121.926 135.972 119.518 138.055C114.943 142.014 112.543 145.464 111.118 151.439C108.959 160.505 109.468 169.605 116.118 176.63C116.518 177.055 118.268 179.005 118.809 178.622C118.851 177.314 120.359 174.222 120.218 173.147C120.168 172.797 119.359 171.722 119.118 171.039C118.426 169.064 117.501 165.339 117.109 163.255C116.368 159.305 117.751 154.989 119.576 151.514C117.059 146.539 120.409 138.747 126.584 139.422C127.368 137.822 127.818 136.047 128.009 134.264H128.001ZM29.6426 136.089L27.276 135.255C27.276 135.697 27.4676 136.097 27.4843 136.547C27.9176 148.88 28.8426 161.239 27.051 173.505C26.7093 175.872 25.2593 180.347 25.3343 182.372C25.351 182.789 25.7176 183.039 25.651 183.48C25.601 183.805 25.1093 184.314 24.9676 184.814C24.2176 187.447 22.726 194.78 22.8843 197.314C23.3843 205.455 31.3926 208.614 38.2593 210.114C39.0926 210.297 42.3343 210.964 42.926 210.814L46.951 205.005C47.426 203.73 46.7093 202.914 45.9593 202.014C42.9093 198.305 39.7926 196.947 39.451 191.33C39.2176 187.455 39.801 183.18 39.4676 179.122C38.7343 170.272 33.826 162.705 31.601 154.414C30.401 149.947 29.876 145.389 29.6593 140.764C29.5843 139.214 29.7593 137.639 29.6343 136.089H29.6426ZM143.401 139.455C143.076 139.364 142.993 139.055 142.309 139.039C139.168 138.93 136.126 141.897 135.809 144.955C135.726 145.764 135.926 147.672 136.393 148.33C136.543 148.53 136.776 148.43 136.809 148.455C141.018 151.997 147.368 149.439 147.001 143.564C146.818 140.672 145.984 140.18 143.409 139.464L143.401 139.455ZM78.0426 141.455L71.051 140.855C70.8343 142.305 70.6843 144.055 70.3593 145.464C67.9093 155.947 62.6676 163.589 58.9593 173.239C58.4093 174.664 57.2176 177.589 57.0926 178.98C57.076 179.205 57.0093 179.38 57.251 179.522C62.8426 181.73 68.6093 183.664 74.6426 184.222C74.6593 169.872 79.2343 155.847 78.0426 141.447V141.455ZM121.809 150.447C122.159 151.339 123.693 153.714 124.601 153.964C125.276 154.147 127.234 153.189 127.718 152.655C128.509 151.789 129.601 148.897 129.609 147.739C129.626 146.33 128.876 145.205 128.201 144.047C127.893 143.53 128.101 143.272 127.301 142.647C125.543 141.272 124.143 141.747 122.801 143.339C121.001 145.48 120.801 147.872 121.809 150.439V150.447ZM134.401 182.83C140.459 182.664 144.059 181.03 147.559 176.097C150.618 171.78 154.934 162.447 154.768 157.172C154.651 153.339 151.926 149.08 149.493 146.264C149.301 146.264 148.818 148.047 148.634 148.397C147.818 149.964 146.143 150.914 144.801 151.955C149.284 153.98 148.826 161.905 144.401 163.647C146.384 167.347 148.684 170.53 145.768 174.497C142.301 179.214 136.034 178.114 133.709 173.03C132.859 174.78 131.859 176.48 131.009 178.222C130.793 178.664 129.034 182.272 129.209 182.422C130.984 182.655 132.601 182.872 134.409 182.822L134.401 182.83ZM136.201 161.439C136.584 161.997 137.376 162.78 138.093 162.805C139.376 162.847 143.059 161.864 144.068 161.005C145.451 159.822 145.943 156.572 144.868 155.089C144.576 154.689 142.918 153.572 142.451 153.48C141.784 153.355 141.118 153.63 140.401 153.639C140.151 153.639 139.318 153.447 138.934 153.514C135.109 154.139 134.168 158.48 136.209 161.43L136.201 161.439ZM124.176 156.472C122.826 156.047 121.918 155.155 121.109 154.047C118.584 158.614 119.284 163.689 120.909 168.43C121.009 168.722 121.034 169.03 121.309 169.23L124.176 156.472ZM21.4843 166.639C18.276 165.722 14.7926 164.639 12.0926 162.639C11.926 168.389 12.2176 174.947 16.7926 179.022C18.4926 180.53 20.7176 181.905 23.0843 181.822C23.176 180.047 23.7676 178.355 24.0843 176.622C24.651 173.514 24.976 170.372 25.2843 167.23C23.9093 167.405 22.7676 166.997 21.4843 166.63V166.639ZM142.001 165.239C140.476 164.872 138.876 165.172 137.459 165.797C134.993 166.872 135.001 169.939 136.026 172.114C136.226 172.539 136.443 172.614 136.601 172.839C136.659 172.922 136.643 173.172 136.793 173.339C138.968 175.78 142.026 175.48 143.884 172.83C145.351 170.739 144.243 168.28 143.034 166.314C142.709 165.789 142.643 165.405 142.001 165.247V165.239ZM146.701 181.03L146.401 181.33L146.493 181.422C146.601 181.297 146.893 181.164 146.693 181.03H146.701ZM56.4593 181.83C56.176 182.122 56.201 186.755 56.351 187.439C57.001 190.547 63.3176 192.405 66.0093 193.164C67.1593 193.489 73.1843 195.072 73.7593 194.23L74.4593 187.522L74.2593 186.714C68.1093 185.955 62.276 183.83 56.4593 181.83ZM22.451 184.455L18.8843 183.63C19.2926 185.864 20.2093 187.947 21.0843 190.022C21.6093 190.08 21.401 190.014 21.4843 189.73C21.701 189.014 22.6926 184.83 22.451 184.455ZM128.209 209.405C132.718 207.914 137.651 206.48 141.493 203.605C144.634 201.247 146.526 199.297 146.593 195.114C146.593 194.739 146.376 194.347 146.384 193.922C146.426 190.905 146.693 187.839 145.201 185.114C144.759 184.805 142.126 185.747 141.293 185.822C138.593 186.064 135.193 185.739 132.501 185.422C131.918 185.355 128.551 184.689 128.409 184.83C127.301 190.164 128.218 195.572 128.809 200.905L128.201 209.405H128.209ZM73.826 197.039C72.9593 196.697 72.026 196.922 71.176 196.797C70.1593 196.639 68.051 195.855 67.2426 196.105C66.8676 196.222 65.551 197.514 65.401 197.872C63.901 201.555 70.3426 205.347 73.3676 205.397C73.8926 205.405 74.4676 205.097 75.0426 205.214L73.826 197.039Z" fill="#020202"/>
<path d="M93.2345 137.455C94.4178 136.88 97.0262 135.055 97.8428 134.764C99.6095 134.139 100.86 134.18 102.768 133.089C109.676 129.155 114.926 119.455 115.626 111.672C116.893 112.214 118.268 114.93 119.143 115.447C120.301 116.13 121.351 115.097 120.976 113.814C120.701 112.889 117.001 109.389 115.86 109.039C115.785 108.922 115.776 106.68 115.818 106.364C115.943 105.422 117.968 104.08 118.726 103.28C119.16 102.822 121.051 100.28 121.226 100.18C122.46 99.4969 124.076 100.855 124.935 101.672C128.06 104.63 129.793 108.305 131.826 111.989L128.618 131.864C125.81 130.997 122.993 132.189 120.726 133.864C115.093 138.039 110.993 142.739 109.085 149.605C106.51 158.905 106.676 168.889 112.835 176.722C114.026 178.239 116.101 180.805 118.026 181.022C117.36 184.622 116.193 188.205 116.418 191.922C116.701 196.672 118.785 201.814 118.835 206.314C118.851 207.714 118.401 209.38 118.635 210.872C118.526 211.33 110.526 212.639 109.501 212.772C106.21 213.205 102.543 213.555 99.2345 213.597C97.0595 209.264 95.6262 204.539 94.5345 199.805C90.2595 181.214 91.2845 164.522 92.6428 145.739L93.2428 137.439L93.2345 137.455Z" fill="#A87A59"/>
<path d="M156.593 28.7307C155.601 28.8973 154.551 29.939 153.793 30.6307C152.884 31.4473 151.576 32.6057 151.201 33.7307C150.293 33.9057 147.843 37.0057 147.243 37.864C144.284 42.0557 141.993 46.414 141.209 51.514H140.809C140.676 51.814 141.001 52.039 141.009 52.114C141.026 52.239 141.009 52.3807 141.009 52.514H140.609C140.476 52.8057 140.801 53.0473 140.809 53.114C140.826 53.2473 140.784 53.4057 140.809 53.514C140.268 53.3973 140.418 53.7807 140.343 54.139C138.193 65.189 144.259 76.414 145.001 87.1973C145.093 88.5223 144.768 90.039 145.201 91.289C143.234 97.7057 141.409 105.172 140.434 111.806C139.168 120.439 139.359 129.314 137.701 137.847C133.001 140.381 130.843 149.181 136.809 151.539C133.284 153.306 131.893 156.739 133.001 160.547C133.293 161.556 134.268 162.772 134.168 163.681C133.509 169.622 128.901 175.989 126.868 181.572C123.951 189.572 126.584 196.314 126.226 204.314C125.968 210.064 125.151 219.197 123.259 224.531C122.434 226.856 120.843 228.256 119.026 229.789C119.901 225.281 120.251 220.672 120.626 216.097C121.001 211.522 121.576 206.914 120.801 202.131C120.476 200.147 119.818 198.239 119.484 196.256C118.684 191.514 118.901 188.664 119.926 184.014C121.984 174.697 125.576 165.664 126.818 156.172C129.401 155.214 130.668 153.156 131.518 150.639C132.818 146.764 131.501 143.247 128.876 140.347C130.043 137.747 130.601 134.697 131.159 131.889C133.068 122.372 134.459 112.047 135.209 102.364C136.134 90.439 135.434 78.539 135.818 66.5973C136.309 51.3973 137.434 35.5223 145.718 22.339C147.668 19.239 153.226 13.514 156.784 12.6223C159.293 11.9973 161.609 11.514 161.993 14.8307C162.601 20.1307 156.368 24.0807 156.593 28.7223V28.7307Z" fill="#94664B"/>
<path d="M55.5929 76.2304C59.4429 73.3304 63.4762 73.4054 67.9012 75.1471C68.9929 75.5804 71.4345 77.1221 72.2012 77.2637C74.6429 77.6887 74.8762 75.1137 75.6095 73.5637C89.0179 45.5387 128.451 59.3554 123.351 88.3304C118.801 114.197 82.0262 116.364 74.6345 90.9887C74.0845 89.1054 73.8929 85.3304 72.7512 84.0804C68.9512 79.9387 59.9179 78.9387 55.1179 81.6554C51.7012 83.5971 51.8179 85.4387 50.2179 88.5471C40.9762 106.497 15.3679 106.88 5.85119 89.0137C-4.62381 69.3554 13.1929 46.2471 34.8679 52.4054C45.6012 55.4554 52.5595 65.2887 53.1595 76.2804C53.8679 77.3387 54.7512 76.8471 55.5845 76.2221L55.5929 76.2304ZM25.8345 55.7721C11.2512 56.9804 2.27619 72.3387 8.11786 85.7637C15.1095 101.83 37.7595 102.939 46.3679 87.6971C54.8679 72.6304 42.9929 54.3554 25.8345 55.7721ZM96.9929 62.5637C82.4095 63.7721 73.4345 79.1304 79.2762 92.5554C86.2679 108.622 108.918 109.73 117.526 94.4887C126.026 79.4221 114.151 61.1471 96.9929 62.5637Z" fill="#354B65"/>
<path d="M71.6425 135.856C71.6175 133.464 71.6758 130.722 71.4425 128.364C71.3091 127.047 71.0258 123.822 69.1758 123.922C67.3258 124.022 61.8841 129.389 60.3508 130.856C59.1008 127.939 57.9841 124.731 56.4841 121.931C56.1758 121.356 54.9175 119.231 54.5341 118.881C54.0091 118.389 53.5008 118.381 52.8425 118.564C50.7841 119.114 45.8675 125.872 44.5675 127.881C43.2675 129.889 42.5425 131.972 41.5508 134.056C40.8675 134.106 36.4258 128.806 35.8841 127.931C35.3091 127.006 34.6091 124.756 33.7258 124.289C31.5425 123.139 31.0091 126.372 30.7091 127.822C30.3425 129.606 30.2508 131.481 29.8508 133.264C25.4925 132.097 22.0175 130.031 19.7841 126.047C18.6675 124.064 19.0425 124.797 17.4591 123.372C13.9008 120.164 14.0758 114.397 14.4675 109.981C14.6925 107.397 15.1841 104.939 16.2591 102.564L21.0675 104.181L23.6675 104.681C23.0675 106.431 22.3591 108.147 21.8175 109.922C21.4175 111.222 19.6758 115.256 21.8175 115.639C23.5258 115.947 23.4008 113.097 23.7258 111.831C23.8258 111.439 24.5258 109.122 24.7591 109.106C26.3091 109.822 28.0008 110.189 29.6591 110.581C49.3008 115.206 70.3675 117.022 90.5258 117.264C92.5925 117.656 94.7425 117.139 96.8175 116.872V121.572C96.8175 121.789 95.7675 121.972 96.1091 123.272C96.1425 123.389 96.5591 124.214 96.6175 124.264C96.0425 125.106 95.3758 125.872 94.6258 126.564C90.5758 130.297 83.2341 134.147 77.8675 135.389C75.7675 135.872 73.7841 135.922 71.6341 135.856H71.6425Z" fill="#C4EE79"/>
<path d="M99.2262 213.606C95.4262 213.656 90.9262 213.606 87.1345 213.406C84.8179 213.281 82.2429 213.156 80.5262 211.414C77.8845 208.739 76.0429 198.064 76.2429 194.322C76.3679 191.939 76.8845 189.514 77.0345 187.122C77.2512 183.731 77.1679 180.114 77.4345 176.731C78.1679 167.406 80.5429 157.972 80.8429 148.556C80.9179 146.064 80.8845 143.522 80.6345 141.047C85.1095 140.864 89.2595 139.389 93.2262 137.447L92.6262 145.747C91.2762 164.522 90.2429 181.222 94.5179 199.814C95.6095 204.547 97.0429 209.264 99.2179 213.606H99.2262Z" fill="#C0A187"/>
<path d="M51.0595 163.839C50.3678 164.697 50.6678 164.889 50.4595 165.639C48.2511 173.547 46.3595 182.289 49.3095 190.272C51.1511 195.256 54.6511 198.306 54.0345 204.289C53.5761 208.731 50.3011 211.981 52.5511 216.814C53.6428 219.147 55.0511 219.831 56.6511 221.506C57.3095 222.197 57.2845 222.397 56.8511 223.206C54.2761 223.047 48.0595 221.797 46.4595 219.706C45.2178 218.089 44.8762 213.656 45.3011 211.756C45.6678 210.122 49.3511 207.064 49.6345 205.097C50.3761 199.956 42.5511 197.589 42.0511 191.731C41.4261 184.472 42.7095 178.939 40.5095 171.481C37.1262 159.989 32.5095 153.147 32.0511 140.364C31.9011 136.131 32.2928 132.206 33.0595 128.064L33.8095 129.414C35.4178 131.639 37.2011 133.731 39.2511 135.564C39.5928 135.864 41.0761 137.214 41.3011 137.306C43.9928 138.397 43.8678 135.314 44.4928 133.606C45.7178 130.289 49.1761 125.222 51.6428 122.664C52.3178 125.256 53.2178 127.822 53.7428 130.456C55.0595 137.064 55.0511 146.639 54.0178 153.314C53.4511 156.939 51.9678 160.306 51.0428 163.831L51.0595 163.839ZM43.5178 145.706C43.4178 145.806 43.1428 146.439 43.1095 146.597C42.8595 148.081 44.7428 154.456 45.6595 155.747C46.2595 156.589 47.6345 157.206 48.1595 156.039C48.6011 155.064 47.6595 154.464 47.3178 153.689C46.5595 151.956 45.8261 149.531 45.5511 147.656C45.4845 147.181 45.7511 146.831 45.5761 146.239C45.3178 145.364 44.0928 145.156 43.5095 145.697L43.5178 145.706Z" fill="#D6D2C9"/>
<path d="M97.0342 111.672V114.264C95.6008 114.414 94.1758 114.797 92.7425 114.881C79.3342 115.697 63.4592 113.572 50.1342 111.697C43.0508 110.706 33.5758 109.747 26.9175 107.331C26.6008 107.214 25.6592 107.006 25.6592 106.581L26.4175 105.072C36.7508 105.439 46.7425 100.172 51.8925 91.2223C52.7675 89.7056 54.1425 85.6389 55.0508 84.7889C58.0758 81.9639 64.0925 82.3223 67.7008 83.7389C68.3008 83.9723 70.3342 84.9473 70.6592 85.3806C71.0008 85.8473 71.6092 90.4889 71.9508 91.6889C75.1008 102.681 85.4842 111.339 97.0342 111.672Z" fill="#C4EE79"/>
<path d="M96.0512 55.4887C95.3429 51.397 91.8845 48.0137 87.5595 48.5387C83.7595 48.997 77.5095 55.3804 74.8429 58.2054C73.7595 59.347 72.9012 60.797 71.6429 61.8137C68.5095 61.022 65.4845 60.1387 62.1845 60.5137C61.3512 59.1304 61.2262 57.4054 60.4595 56.0054C59.6179 54.4554 58.0512 52.3387 57.0179 50.6554C54.9845 47.322 50.0762 44.197 46.0595 45.4387C45.5095 43.8137 46.5095 41.822 47.8762 40.8387C52.1345 37.7804 66.0012 37.8137 71.3595 38.122C81.8262 38.722 92.1429 41.4137 101.568 45.8887C104.185 47.1304 112.735 52.0554 113.535 54.7054C114.118 56.6304 112.185 58.047 110.493 58.0554C110.135 58.0554 107.526 56.8804 106.785 56.6554C103.218 55.5887 99.7762 55.3637 96.0595 55.4887H96.0512Z" fill="#7D543C"/>
<path d="M51.6592 122.664C52.0842 122.222 52.4592 121.647 53.1425 121.472C53.6925 121.597 56.6342 128.039 57.0009 129.014C57.4592 130.222 58.6425 135.264 59.2592 135.747C59.9675 136.297 60.8842 135.864 61.1592 135.072C61.6342 133.656 61.4759 133.547 62.5425 132.264C64.1259 130.372 66.4592 128.856 68.3509 127.272C68.7175 127.114 68.8009 127.797 68.8259 127.989C70.1925 139.597 66.9092 150.53 62.0175 160.922C58.4092 168.597 52.7592 178.28 53.6758 187.105C54.0008 190.189 55.7092 190.68 57.4425 192.73C57.7592 193.105 59.1759 195.005 59.2425 195.33C59.6009 197.139 56.9925 201.231 56.5425 203.414C55.3675 208.989 57.8259 216.889 63.6009 218.956C64.3259 219.214 69.0425 220.03 69.0425 220.305C68.6342 220.631 68.2592 221.239 67.8342 221.489C65.3759 222.939 59.7009 223.381 56.8592 223.206C57.2842 222.406 57.3175 222.197 56.6592 221.506C55.0592 219.822 53.6509 219.147 52.5592 216.814C50.3092 211.98 53.5759 208.739 54.0425 204.289C54.6675 198.314 51.1592 195.256 49.3175 190.272C46.3675 182.281 48.2592 173.547 50.4675 165.639C51.5425 166.664 52.4342 166.139 53.3758 165.247C55.4258 163.314 57.9092 156.897 58.8092 154.089C59.1342 153.072 59.9009 150.947 59.6258 149.989C59.3675 149.114 57.9592 148.939 57.4592 149.739C57.1009 150.314 56.6425 153.364 56.3259 154.397C55.5759 156.839 53.9759 160.481 52.4425 162.506C52.0259 163.056 51.4009 163.431 51.0759 163.839C51.9925 160.314 53.4842 156.947 54.0509 153.322C55.0842 146.647 55.1009 137.072 53.7759 130.464C53.2509 127.83 52.3509 125.264 51.6759 122.672L51.6592 122.664Z" fill="#B4AE9F"/>
<path d="M29.6425 136.089C29.7675 137.639 29.5925 139.214 29.6675 140.764C29.8842 145.389 30.4092 149.939 31.6092 154.414C33.8342 162.714 38.7425 170.272 39.4759 179.122C39.8092 183.18 39.2259 187.455 39.4592 191.33C39.8009 196.939 42.9092 198.305 45.9675 202.014C46.7092 202.914 47.4342 203.73 46.9592 205.005L42.9342 210.814C42.3425 210.964 39.1009 210.297 38.2675 210.114C31.4009 208.614 23.3925 205.455 22.8925 197.314C22.7342 194.78 24.2259 187.447 24.9759 184.814C25.1175 184.314 25.6092 183.805 25.6592 183.48C25.7259 183.039 25.3592 182.789 25.3425 182.372C25.2592 180.355 26.7092 175.872 27.0592 173.505C28.8509 161.23 27.9259 148.88 27.4925 136.547C27.4759 136.097 27.2842 135.705 27.2842 135.255L29.6509 136.089H29.6425Z" fill="#C0A187"/>
<path d="M93.4342 3.54696C93.2508 4.55529 94.4175 4.58029 94.7258 4.94696C94.8758 5.12196 95.1425 6.19696 95.1758 6.48863C96.2675 14.5386 90.6592 18.7553 87.6008 25.3886C85.9092 29.0636 84.5925 33.497 84.2342 37.5136C81.2508 36.872 78.1842 36.1886 75.1342 35.9136C74.1508 35.822 68.2842 35.772 68.0508 35.5053C68.5508 30.722 68.5758 25.8303 68.4508 21.0136C68.3092 15.547 66.4925 11.547 71.4342 7.43029C77.2758 2.56362 86.2925 1.68862 93.4258 3.53862L93.4342 3.54696Z" fill="#94664C"/>
<path d="M156.593 28.7305C156.668 30.1639 157.293 31.2139 158.593 31.8305C160.118 32.5472 161.185 31.9222 161.543 34.0805C161.901 36.2389 160.901 38.3722 159.751 40.1889C157.76 43.3555 153.001 46.8805 155.551 51.0555C157.01 53.4389 159.301 52.3055 160.351 54.4472C163.201 60.2722 154.21 70.2805 151.618 75.4222C149.143 80.3472 146.81 86.0139 145.193 91.2805C144.76 90.0305 145.085 88.5139 144.993 87.1889C144.251 76.4139 138.185 65.1805 140.335 54.1305C140.401 53.7722 140.251 53.3889 140.801 53.5055C140.876 53.7972 140.801 54.0555 141.018 54.3805C141.501 55.1055 142.701 55.0305 143.093 54.2972C143.626 53.2889 143.743 49.8055 144.143 48.3472C144.918 45.5305 148.251 40.0472 150.201 37.8139C150.751 37.1889 152.401 35.9139 152.61 35.4222C153.043 34.3722 152.26 33.5055 151.193 33.7139C151.576 32.5805 152.885 31.4305 153.785 30.6139C154.543 29.9305 155.593 28.8889 156.585 28.7139L156.593 28.7305ZM149.143 57.5472C147.935 57.8055 145.56 62.3972 145.026 63.6389C144.318 65.2889 142.401 71.0389 142.843 72.5639C143.118 73.5222 144.651 73.5555 145.051 72.6555C145.293 72.1222 145.351 70.5389 145.535 69.7389C146.21 66.8055 147.201 63.8222 148.91 61.3222C149.368 60.6555 150.493 59.6555 150.668 59.0639C150.976 58.0055 150.185 57.3222 149.143 57.5389V57.5472Z" fill="#7D543C"/>
<path d="M78.0426 141.455C79.2342 155.847 74.6592 169.872 74.6426 184.23C68.6092 183.672 62.8509 181.739 57.2509 179.53C57.0092 179.389 57.0676 179.214 57.0926 178.989C57.2176 177.589 58.4176 174.664 58.9592 173.247C62.6676 163.589 67.9092 155.947 70.3592 145.472C70.6842 144.064 70.8342 142.314 71.0509 140.864L78.0426 141.464V141.455Z" fill="#7D543C"/>
<path d="M93.4343 3.54736C97.2177 4.5307 100.926 5.93903 103.834 8.63903C105.543 10.2307 109.068 14.7474 108.751 17.139C108.468 19.2224 104.609 23.3557 103.268 25.264C99.976 29.9557 98.4427 36.2057 98.4343 41.914C93.9843 39.714 89.0843 38.5557 84.2427 37.514C84.601 33.4974 85.9093 29.0557 87.6093 25.389C90.6677 18.7557 96.276 14.539 95.1843 6.48903C95.1427 6.18903 94.876 5.12236 94.7343 4.94736C94.426 4.5807 93.2593 4.54736 93.4427 3.54736H93.4343Z" fill="#7D553C"/>
<path d="M72.4428 74.4974C72.1928 74.7057 70.6844 73.5974 70.2511 73.389C65.4678 71.114 60.2844 70.6224 55.4594 73.0974C54.5094 64.6057 49.2678 56.8307 41.9594 52.5057C41.4594 51.6974 43.6094 49.489 44.2761 49.0224C47.1428 47.0057 50.0344 47.5974 52.6428 49.6307C54.4261 51.014 54.6428 52.214 55.7761 53.8974C56.4594 54.914 57.8344 56.4307 58.3011 57.3724C58.8761 58.539 59.5094 62.2224 60.3511 62.914C61.1094 63.5307 61.6178 63.0974 62.3511 63.0974C63.6011 63.0974 65.1344 62.989 66.3344 63.1307C68.0178 63.3307 70.7678 64.8224 72.3094 64.464C73.4678 64.1974 75.6594 61.0474 76.5428 60.1057C77.7428 58.839 79.0761 57.4974 80.3344 56.3057C82.2344 54.514 86.0178 50.8974 88.7344 50.914C90.8761 50.9307 93.5511 53.7307 93.5428 55.9224C83.8678 57.8307 75.3178 64.9807 72.4428 74.5057V74.4974Z" fill="#C3ED79"/>
<path d="M128.21 209.405L128.818 200.905C128.226 195.564 127.301 190.164 128.418 184.83C128.568 184.689 131.926 185.355 132.51 185.422C135.201 185.739 138.601 186.064 141.301 185.822C142.143 185.747 144.768 184.814 145.21 185.114C146.693 187.839 146.426 190.914 146.393 193.922C146.393 194.347 146.61 194.739 146.601 195.114C146.535 199.297 144.643 201.247 141.501 203.605C137.66 206.489 132.726 207.914 128.218 209.405H128.21Z" fill="#A87A58"/>
<path d="M102.626 111.472C104.576 111.164 106.484 110.805 108.326 110.08L113.218 107.78C114.134 115.589 107.159 129.689 99.3342 131.872C98.5175 132.097 97.7842 131.955 97.0842 132.214C96.3842 132.472 95.1675 133.639 94.3675 134.089C87.4509 138.022 79.6009 139.814 71.6592 138.439C71.6259 137.58 71.6592 136.714 71.6509 135.847C73.8009 135.922 75.7842 135.872 77.8842 135.38C83.2509 134.139 90.5842 130.28 94.6425 126.555C95.3925 125.864 96.0675 125.097 96.6342 124.255C97.1425 124.714 98.1509 124.672 98.6425 124.164C99.1342 123.655 99.4175 121.58 99.4342 120.855C101.476 118.23 102.643 114.797 102.634 111.464L102.626 111.472Z" fill="#97E03A"/>
<path d="M128.001 134.264C127.809 136.047 127.368 137.814 126.576 139.422C120.41 138.747 117.06 146.539 119.568 151.514C117.743 154.989 116.359 159.306 117.101 163.256C117.493 165.339 118.418 169.064 119.11 171.039C119.351 171.722 120.16 172.797 120.21 173.147C120.351 174.222 118.843 177.314 118.801 178.622C118.251 179.006 116.509 177.056 116.109 176.631C109.459 169.606 108.951 160.506 111.109 151.439C112.534 145.464 114.943 142.014 119.509 138.056C121.918 135.972 124.535 133.389 127.993 134.264H128.001Z" fill="#BFA087"/>
<path d="M25.276 141.255C24.7676 141.23 24.7593 141.53 24.6176 141.897C23.001 146.055 22.826 152.13 21.8843 156.547L21.2843 163.839C17.9176 162.889 13.976 162.18 12.126 158.897C12.9176 149.022 14.376 138.639 19.1843 129.864C20.7093 131.614 22.576 132.914 24.5843 134.055C25.101 136.43 25.176 138.83 25.276 141.255Z" fill="#C0A187"/>
<path d="M134.401 182.83C133.034 181.464 132.026 179.864 131.001 178.23C131.851 176.48 132.851 174.789 133.701 173.039C136.026 178.114 142.293 179.222 145.759 174.505C148.676 170.539 146.376 167.355 144.393 163.655C148.818 161.905 149.276 153.98 144.793 151.964C146.134 150.922 147.809 149.972 148.626 148.405C148.809 148.055 149.293 146.272 149.484 146.272C151.918 149.089 154.643 153.347 154.759 157.18C154.918 162.455 150.601 171.797 147.551 176.105C144.051 181.039 140.459 182.672 134.393 182.839L134.401 182.83Z" fill="#A77A58"/>
<path d="M56.4596 181.831C62.2762 183.831 68.1096 185.956 74.2596 186.714L74.4596 187.522L73.7596 194.231C73.1762 195.072 67.1596 193.489 66.0096 193.164C63.3179 192.406 57.0012 190.539 56.3512 187.439C56.2096 186.756 56.1846 182.122 56.4596 181.831Z" fill="#444C7C"/>
<path d="M21.4843 166.639C21.2843 168.139 22.2676 175.522 23.0676 176.347C23.3676 176.655 23.676 176.68 24.076 176.639C23.7593 178.364 23.1676 180.064 23.076 181.839C20.7093 181.922 18.4843 180.547 16.7843 179.039C12.2093 174.964 11.9093 168.405 12.0843 162.655C14.7843 164.655 18.2676 165.739 21.476 166.655L21.4843 166.639Z" fill="#C0A187"/>
<path d="M25.2759 141.256C25.5592 147.906 26.0092 155.114 25.6842 161.747C25.6425 162.672 25.3092 163.647 25.4759 164.639C23.8259 164.981 22.6759 164.231 21.2759 163.839L21.8759 156.547C22.8175 152.131 22.9925 146.056 24.6092 141.897C24.7509 141.531 24.7592 141.239 25.2675 141.256H25.2759Z" fill="#A87A58"/>
<path d="M73.8259 197.039L75.0426 205.214C74.4676 205.089 73.8926 205.405 73.3676 205.397C70.3426 205.347 63.9009 201.555 65.4009 197.872C65.5426 197.514 66.8676 196.222 67.2426 196.105C68.0509 195.855 70.1592 196.639 71.1759 196.797C72.0259 196.93 72.9592 196.697 73.8259 197.039Z" fill="#7D543C"/>
<path d="M143.401 139.455C143.143 140.755 144.293 141.955 144.209 143.147C144.118 144.48 141.834 147.789 140.509 148.255C138.918 148.822 138.184 147.614 136.801 148.447C136.768 148.422 136.534 148.522 136.384 148.322C135.909 147.672 135.709 145.764 135.801 144.947C136.126 141.889 139.159 138.93 142.301 139.03C142.984 139.055 143.076 139.364 143.393 139.447L143.401 139.455Z" fill="#C4EE79"/>
<path d="M128.209 144.056C128.226 145.672 127.918 147.481 127.184 148.931C125.826 151.597 124.251 150.281 121.809 150.456C120.801 147.889 121.001 145.497 122.801 143.356C124.143 141.764 125.543 141.289 127.301 142.664C128.101 143.289 127.893 143.539 128.201 144.064L128.209 144.056Z" fill="#C4EE79"/>
<path d="M142.001 165.239C142.451 166.447 142.901 166.955 142.809 168.347C142.634 170.914 139.201 173.764 136.609 172.839C136.451 172.614 136.234 172.547 136.034 172.114C135.009 169.939 135.001 166.872 137.467 165.797C138.884 165.18 140.484 164.872 142.009 165.239H142.001Z" fill="#C3ED79"/>
<path d="M124.176 156.472L121.309 169.231C121.026 169.031 121.009 168.722 120.909 168.431C119.284 163.689 118.584 158.606 121.109 154.047C121.917 155.156 122.826 156.047 124.176 156.472Z" fill="#C2EC78"/>
<path d="M136.801 148.447C138.184 147.622 138.917 148.822 140.509 148.256C141.834 147.789 144.117 144.481 144.209 143.147C144.292 141.956 143.142 140.747 143.401 139.456C145.976 140.172 146.809 140.664 146.992 143.556C147.359 149.431 141.017 151.989 136.801 148.447Z" fill="#96DF3A"/>
<path d="M140.401 153.647C141.118 153.639 141.785 153.364 142.451 153.489C142.918 153.58 144.585 154.697 144.868 155.097C145.943 156.58 145.451 159.83 144.068 161.014C143.06 161.872 139.376 162.855 138.093 162.814C137.376 162.789 136.593 162.005 136.201 161.447C137.801 161.939 140.676 160.214 141.243 158.797C141.91 157.155 140.718 155.222 140.393 153.655L140.401 153.647Z" fill="#96DF3A"/>
<path d="M140.401 153.647C140.726 155.222 141.918 157.155 141.251 158.789C140.676 160.205 137.801 161.93 136.209 161.439C134.168 158.48 135.118 154.147 138.934 153.522C139.318 153.455 140.151 153.655 140.401 153.647Z" fill="#C4EE79"/>
<path d="M121.81 150.447C124.251 150.272 125.826 151.589 127.185 148.922C127.918 147.472 128.218 145.664 128.21 144.047C128.885 145.197 129.626 146.322 129.618 147.739C129.61 148.897 128.51 151.789 127.726 152.656C127.243 153.189 125.285 154.147 124.61 153.964C123.701 153.722 122.168 151.339 121.818 150.447H121.81Z" fill="#96DF3A"/>
<path d="M21.4844 166.639C22.7677 167.005 23.9011 167.414 25.2844 167.239C24.9761 170.38 24.6511 173.522 24.0844 176.63C23.6761 176.672 23.3761 176.647 23.0761 176.339C22.2677 175.522 21.2927 168.13 21.4927 166.63L21.4844 166.639Z" fill="#A77A58"/>
<path d="M136.601 172.83C139.193 173.764 142.626 170.905 142.801 168.339C142.893 166.955 142.443 166.439 141.993 165.23C142.634 165.389 142.701 165.772 143.026 166.297C144.234 168.264 145.343 170.722 143.876 172.814C142.026 175.464 138.959 175.764 136.784 173.322C136.634 173.155 136.651 172.914 136.593 172.822L136.601 172.83Z" fill="#96DF3A"/>
<path d="M102.626 111.472C102.634 114.806 101.476 118.247 99.4259 120.864C99.4259 120.589 99.2092 120.181 99.2175 119.772C99.2509 117.131 99.3092 114.522 99.4509 111.889C100.501 111.656 101.568 111.639 102.626 111.464V111.472Z" fill="#C3ED79"/>
<path d="M22.4509 184.455C22.6926 184.83 21.7009 189.014 21.4843 189.73C21.4009 190.014 21.6093 190.089 21.0843 190.022C20.2093 187.947 19.2926 185.864 18.8843 183.63L22.4509 184.455Z" fill="#C2EC78"/>
<path d="M134.401 182.83C132.593 182.88 130.985 182.664 129.201 182.43C129.026 182.28 130.785 178.672 131.001 178.23C132.018 179.864 133.026 181.455 134.401 182.83Z" fill="#BFA087"/>
<path d="M146.701 181.03C146.901 181.164 146.609 181.297 146.501 181.422L146.409 181.33L146.709 181.03H146.701Z" fill="#A77A58"/>
<path d="M149.443 142.406C148.851 141.697 149.551 140.322 147.684 138.664C145.509 136.731 144.376 137.489 142.401 136.547C141.968 136.339 141.484 135.464 140.776 135.331L142.393 117.264C142.543 117.089 144.059 118.289 144.284 118.464C149.659 122.697 155.101 130.531 157.676 136.847C161.168 145.414 163.918 154.531 160.726 163.672C158.301 170.622 153.851 177.697 147.084 181.006C148.059 179.331 149.409 177.864 150.468 176.197C153.759 171.014 157.734 162.122 157.176 155.931C156.818 151.997 153.276 146.006 150.584 143.139C150.193 142.714 149.551 142.531 149.434 142.389L149.443 142.406Z" fill="#A77A58"/>
<path d="M140.801 53.5137C140.776 53.4054 140.818 53.247 140.801 53.1137C141.051 53.0137 141.001 52.7304 141.001 52.5137C141.001 52.3804 141.018 52.2387 141.001 52.1137C141.276 52.0137 141.168 51.722 141.201 51.5137C141.985 46.4137 144.276 42.0554 147.235 37.8637C147.843 37.0054 150.293 33.9054 151.193 33.7304C152.26 33.522 153.043 34.3887 152.61 35.4387C152.401 35.9387 150.751 37.2054 150.201 37.8304C148.251 40.0637 144.918 45.5387 144.143 48.3637C143.743 49.822 143.626 53.3054 143.093 54.3137C142.71 55.047 141.501 55.122 141.018 54.397C140.801 54.0637 140.876 53.8137 140.801 53.522V53.5137Z" fill="#030202"/>
<path d="M141.201 51.5137C141.168 51.722 141.276 52.0137 141.001 52.1137C140.993 52.047 140.668 51.8137 140.801 51.5137H141.201Z" fill="#7D543C"/>
<path d="M141.001 52.5137C141.001 52.7303 141.051 53.0137 140.801 53.1137C140.801 53.047 140.467 52.8053 140.601 52.5137H141.001Z" fill="#7D543C"/>
<path d="M96.9927 62.5639C114.151 61.1472 126.026 79.4222 117.526 94.4889C108.918 109.739 86.2677 108.622 79.276 92.5555C73.4344 79.1305 82.4094 63.7722 96.9927 62.5639ZM97.1927 65.3639C85.876 66.2972 78.0427 77.4305 80.7844 88.4472C84.476 103.272 103.893 107.564 113.418 95.5805C123.651 82.7139 113.526 64.0222 97.1927 65.3639Z" fill="#050506"/>
<path d="M25.8345 55.7724C42.9928 54.3557 54.8678 72.6307 46.3678 87.6974C37.7595 102.947 15.1095 101.831 8.11782 85.764C2.27615 72.339 11.2512 56.9807 25.8345 55.7724ZM26.0345 58.5724C14.7178 59.5057 6.88449 70.639 9.62616 81.6557C13.3178 96.4807 32.7345 100.772 42.2595 88.789C52.4928 75.9224 42.3678 57.2307 26.0345 58.5724Z" fill="#050506"/>
<path d="M50.4595 165.639C50.6678 164.889 50.3678 164.697 51.0595 163.839C51.3845 163.43 52.0095 163.055 52.4262 162.505C53.9678 160.48 55.5678 156.839 56.3095 154.397C56.6262 153.364 57.0845 150.314 57.4428 149.739C57.9428 148.939 59.3512 149.114 59.6095 149.989C59.8928 150.947 59.1178 153.072 58.7928 154.089C57.8928 156.897 55.4095 163.314 53.3595 165.247C52.4178 166.139 51.5262 166.664 50.4512 165.639H50.4595Z" fill="#040404"/>
<path d="M43.5179 145.706C44.0929 145.164 45.3179 145.372 45.5845 146.247C45.7595 146.839 45.4929 147.189 45.5595 147.664C45.8345 149.531 46.5679 151.964 47.3262 153.697C47.6679 154.472 48.6095 155.072 48.1679 156.047C47.6429 157.214 46.2762 156.597 45.6679 155.756C44.7512 154.464 42.8679 148.089 43.1179 146.606C43.1429 146.447 43.4179 145.806 43.5262 145.714L43.5179 145.706Z" fill="#050606"/>
<path d="M149.143 57.5469C150.184 57.3303 150.976 58.0136 150.668 59.0719C150.493 59.6636 149.376 60.6553 148.909 61.3303C147.193 63.8303 146.209 66.8136 145.534 69.7469C145.351 70.5386 145.293 72.1303 145.051 72.6636C144.651 73.5553 143.118 73.5303 142.843 72.5719C142.401 71.0469 144.318 65.2969 145.026 63.6469C145.559 62.4053 147.934 57.8136 149.143 57.5553V57.5469Z" fill="#030202"/>
<path d="M97.1928 65.3638C113.518 64.0221 123.643 82.7138 113.418 95.5805C103.893 107.564 84.4844 103.272 80.7844 88.4471C78.0428 77.4388 85.8678 66.2971 97.1928 65.3638ZM109.076 85.8305C109.593 86.2638 110.493 86.2138 110.918 85.6888C111.518 84.9305 111.059 84.2721 110.659 83.5555C106.943 76.9221 91.6594 73.7138 87.0344 80.3971C86.3344 81.4055 86.4428 83.3888 87.9178 83.2888C89.1594 83.2055 88.8511 82.1805 89.2178 81.5805C89.3178 81.4138 90.2178 80.7638 90.4511 80.6138C96.0928 77.0221 104.668 79.5888 108.501 84.7138C108.709 84.9971 108.826 85.6221 109.076 85.8305Z" fill="#EEFDF8"/>
<path d="M26.0346 58.5723C42.3596 57.2306 52.4846 75.9223 42.2596 88.789C32.7346 100.772 13.3262 96.4806 9.62623 81.6556C6.88456 70.6473 14.7096 59.5056 26.0346 58.5723ZM39.5262 78.239C40.1596 78.8806 41.4179 78.714 41.6262 77.7473C42.1012 75.5973 38.6846 72.639 37.0012 71.664C31.9346 68.7306 22.9762 67.6723 18.5762 72.289C17.6679 73.239 15.4762 76.4806 17.3679 77.314C18.8929 77.9806 19.0346 75.9723 19.4346 75.1556C22.5262 68.814 35.5346 71.2806 38.8346 76.6223C39.1012 77.0473 39.2262 77.9306 39.5179 78.2306L39.5262 78.239Z" fill="#EEFDF8"/>
<path d="M109.076 85.8306C108.818 85.6139 108.709 84.9973 108.501 84.714C104.668 79.589 96.0927 77.0223 90.4511 80.614C90.2177 80.764 89.3177 81.414 89.2177 81.5806C88.8511 82.189 89.1594 83.2056 87.9177 83.289C86.4427 83.389 86.3344 81.4056 87.0344 80.3973C91.6594 73.714 106.943 76.9223 110.659 83.5556C111.059 84.2723 111.509 84.9306 110.918 85.6889C110.501 86.2223 109.593 86.2639 109.076 85.8306Z" fill="#050606"/>
<path d="M39.5262 78.2387C39.2262 77.9387 39.1012 77.0554 38.8429 76.6304C35.5512 71.2804 22.5429 68.8137 19.4429 75.1637C19.0429 75.9887 18.9012 77.9887 17.3762 77.3221C15.4762 76.4971 17.6762 73.2554 18.5846 72.2971C22.9846 67.6804 31.9429 68.7304 37.0096 71.6721C38.6929 72.6471 42.1012 75.6054 41.6346 77.7554C41.4262 78.722 40.1679 78.8887 39.5346 78.2471L39.5262 78.2387Z" fill="#050505"/>
</svg>
