<svg width="360" height="360" viewBox="0 0 360 360" fill="none" xmlns="http://www.w3.org/2000/svg">
<path d="M285.41 220.89C286.88 224.58 284.33 228.54 280.78 229.81C275.26 231.78 267.9 226.16 265.12 221.63L260.29 225.56C262.75 229.13 264.75 233.27 266.17 237.38C268.09 242.94 268.14 246.84 267.16 252.64C266.34 257.51 263.42 262.54 260.75 266.63C260.79 267.94 261.54 269.09 261.67 270.42C261.84 272.11 261.51 273.7 261.19 275.33C267.12 274.16 271.93 276.61 274.02 282.29C277.53 291.83 274.63 300.68 265.08 304.76C258.01 307.79 250.48 306.87 243.71 303.48C242.61 302.93 239.47 300.46 238.94 300.33C237.69 300.01 235.61 300.4 234.21 300.27C226.11 299.53 221.36 289.3 224.45 282.2C222.36 280.27 221.17 278.01 220.67 275.19C217.01 273.1 213.29 271.06 210.21 268.14C208.69 266.7 208.33 264.88 205.89 265.01C200.22 265.3 192.92 272.62 188.06 275.37C188.48 277.08 187.8 278.81 187.25 280.43C187.06 280.99 186.46 281.77 186.4 282.22C186.32 282.83 186.79 283.63 186.83 284.33C187.05 288.32 186.22 292.03 183.91 295.32C182.01 298.03 179.69 296.95 177.07 298.08C174.29 299.27 171.63 302.26 169 303.92C159.99 309.61 144.33 313.6 134.54 308.08C133.2 307.32 132.34 306.72 131.96 305.14C131.31 302.4 131.13 302.98 129.89 300.73C127.03 295.53 127.6 290.52 130.84 285.67C134.39 280.37 144.4 277.48 150.36 279.41C150.58 278.57 150.11 277.62 150.12 276.89C150.13 275.92 150.6 274.99 150.3 273.83C150.11 273.12 148.41 271.13 147.92 270.22C145.79 266.24 144.61 260.88 144.36 256.39C143.64 257.01 141.95 256.34 141.47 256.52C140.75 256.79 139.59 258.67 137.95 258.97C136.58 259.22 135.19 258.52 134.69 258.6C134.44 258.64 133.37 259.42 132.85 259.62C125.16 262.49 120.06 259.56 120.36 251.13L104.32 248.47C94.5898 275.95 60.5398 286.43 36.9398 268.72C1.69985 242.27 23.9098 185.63 67.7398 190.19C90.5199 192.56 107.66 212.41 106.98 235.25L119.89 237.67C120.77 235.01 123.3 233.64 125.07 231.68C127.92 228.53 130.06 223.89 130.7 219.69C128.42 220.5 123.59 223.45 123.81 218.91C127.56 213.9 131.67 209.49 134.27 203.71C135.94 200 137.79 194.9 138.79 190.96C139.09 189.76 139.86 187.62 139.21 186.6C138.39 185.33 136.42 184.03 135.74 182.39C121.45 179.22 106.11 171.16 96.9998 159.49C92.7498 154.04 96.8198 147.55 102.65 145.7C106.41 144.51 107.96 145.28 111.41 145.34C112.14 145.35 112.9 144.94 113.68 145.09C112.19 141.12 111.82 136.05 113.49 132.07C113.74 131.48 114.6 130.5 114.62 130.1C114.64 129.7 114.27 129.25 114.21 128.84C114.01 127.33 113.82 125.96 114.16 124.46C107.74 124.9 110.71 119.55 113.99 117.45C114.39 117.19 115.2 117.1 115.38 116.86C115.95 116.1 116.52 112.91 117.31 111.89L121.59 104.06C108.31 103.37 105.45 92.3199 118.48 86.9099C122.5 85.2399 126.86 84.6899 131.14 84.0999C133.19 75.7899 139.16 66.2999 146.36 61.5399C154.82 55.9399 171.68 58.0499 181.02 60.8099C188.21 62.9399 194.35 66.3199 200.83 69.9499C206.95 62.8599 212.79 56.6799 222.29 54.4699C232.76 52.0299 245.76 52.3999 253.51 60.7599C265.2 73.3599 265.86 94.1299 259.93 109.62C255.64 120.83 243.92 127.74 232.04 127.08C225.93 126.74 219.97 123.53 214.06 123.45C213.3 123.44 212.52 123.69 211.78 123.83L219.09 133.78C222.02 130.75 227.74 131.29 229.68 135.2C233.62 134.19 239.13 134.91 242.12 137.85C243.32 139.03 247.42 146.05 247.91 146.21C250.4 147.06 254.8 144.12 256.63 142.54C257.43 141.84 259.6 139.23 260.23 138.94C261.74 138.24 262.65 139.53 262.84 140.87C264.33 151.09 262.3 157.46 253.34 162.99L248.95 165.19C256.13 168.09 263.15 171.78 268.97 176.95C270.07 177.93 272.84 180.11 271.24 181.61C270.12 182.67 268.94 181.88 267.66 182.1L275.14 192.25C279.61 191.46 283.74 189.76 287.09 186.66C297.84 176.7 301.08 161.63 315.22 154.59C318.91 152.75 328.28 149.91 332.23 150.38C339.55 151.27 342.32 158.52 333.86 160.99C330.45 161.98 326.67 162.29 323.31 163.63C314.26 167.22 310.13 176.1 304.79 183.49C300.44 189.52 295.09 196 288.29 199.25C288.2 199.61 288.34 199.63 288.54 199.83C289.13 200.42 289.97 200.68 290.68 201.53C292.76 204.02 292.05 206.22 289.73 208.12C291.96 208.57 295.43 208.99 296.58 211.23C298.3 214.57 296.27 217.2 293.55 219.02C293 219.39 290.3 220.84 289.85 220.84H285.41V220.89ZM211.06 110.33C208.87 112.07 203.41 114.89 200.63 114.66C199.17 114.54 198.59 113.19 199.44 112.02C199.99 111.26 203.6 110.77 204.89 110.28C208.29 108.98 212.24 105.39 214.28 102.4C214.66 101.84 215.69 100.21 215.86 99.6599C215.96 99.3199 215.86 99.2399 215.52 99.3199C214.46 99.5599 212.96 100.29 211.79 100.62C210.39 101.02 205.57 102.93 205.57 100.14C205.57 99.0099 208.46 97.0599 209.4 96.0699C211.4 93.9599 213.69 91.1599 214.19 88.2699C210.11 89.1899 208.79 89.2099 209.8 84.7099C210.67 80.8499 212.72 75.2299 215.27 72.1899C221.04 65.3299 233.52 60.6799 242.37 61.3999C245.53 61.6599 248.73 63.0499 251.61 64.2699C252.17 63.7199 248.39 60.5799 247.85 60.2399C240.38 55.5199 229.67 55.8599 221.45 58.2099C210.88 61.2299 201.93 72.5599 197.44 82.1699C195.36 86.6299 194.05 91.5399 190.57 95.2099C189.34 96.5099 187.76 97.9899 185.84 97.7899C183.3 97.5399 178.48 95.2899 175.68 94.4999C164.53 91.3499 151.74 90.2199 140.21 91.6099C136.58 92.0499 134.26 94.0399 131.69 96.5199C128.98 99.1399 125.36 104.11 123.34 107.36C122.69 108.41 118.53 116.29 118.98 116.79C121.91 116.86 121.99 119.28 120.31 121.12C119.77 121.71 117.73 122.66 117.6 122.84C117.04 123.61 117.43 126.76 117.31 127.82C121.34 126.78 125.48 128.67 126.54 132.85C127.53 136.75 126.99 140.04 126.18 143.88C128.44 142.95 130.84 145.36 128.21 146.75C124.16 146.8 120.08 146.95 116.1 147.72C117.42 149.03 117.94 149.89 118.02 151.79C118.26 157.53 113.85 161.04 108.67 162.23C107.31 162.54 105.92 162.55 104.59 162.95C109.79 168.27 116.58 172.12 123.37 175.11C134.93 180.19 145.29 181.72 157.64 178.36C164.49 176.5 173.9 172.32 179.07 167.41C180.72 165.84 182.48 163.02 184.09 161.64C184.52 161.27 185.09 161.08 185.65 161.16C187.23 161.4 187.04 163.22 186.37 164.28C180.29 171.34 172.6 176.46 163.83 179.63C160.5 180.83 157.06 181.45 153.64 182.27C153.38 182.33 153.19 182.1 153.28 182.63C153.39 183.25 155.04 184.52 155.54 185.17C157.93 188.26 159.85 192.23 161.69 195.69C162.25 196.07 164.1 193.94 164.56 193.54C174.11 185.15 179.7 176.24 187.34 166.44C190.36 162.56 196.14 155.73 200.05 153.01C202.27 151.47 204.04 151.72 206.66 151.8C207.89 151.84 209.73 151.95 210.94 152.08C212.75 152.28 214.5 153.26 216.37 153.25C216.66 152.96 215.72 150.41 215.53 149.9C214.9 148.26 212.99 145.46 212.65 144.15C211.46 139.58 217.92 142.42 220.21 142.22C220.39 142.06 218.26 138.49 218.01 138.07C216.28 135.17 214.11 131.81 212.11 129.1C211.46 128.22 209.37 125.4 208.59 124.94C207.2 124.12 203.73 126.44 202.47 127.25C202.21 127.42 202.07 127.77 201.98 127.83C201.29 128.28 200.33 128.76 199.6 128.18C197.15 126.22 203.22 123.18 204.54 122.59C208.95 120.61 211.79 120.14 216.62 120.64C218.82 120.87 221.68 121.31 223.82 121.84C225.71 122.31 227.68 123.36 230 123.69C253.78 127.15 263.42 101.76 259.97 82.2099C258.09 71.5599 250.69 64.0699 239.41 64.5199C232.05 64.8199 220.64 69.1799 216.67 75.7199C216.02 76.7999 212.74 84.3299 213.27 84.9099C214.45 84.6899 216.02 83.0499 217.21 83.2199C218.1 83.3499 218.61 84.4099 218.53 85.2399C218.38 86.7899 216.47 91.9899 215.62 93.3799C215.36 93.7999 212.82 96.6999 213.03 96.8999C215.37 96.8899 216.84 92.6899 219.04 93.4099C220.91 94.0199 219.49 98.9099 218.97 100.33C217.69 103.82 214.01 108.04 211.11 110.34L211.06 110.33ZM173.64 62.3599C165.21 60.8099 152.83 60.0099 145.93 65.9499C140.57 70.5599 136.44 77.2599 134.54 84.0599C138.65 84.2899 142.79 84.1999 146.91 84.4099C149.98 84.5699 153.45 84.7599 156.49 85.1399C160.36 85.6299 164.98 87.2399 168.6 87.5399L186.65 94.4599C193.11 88.8699 193.68 79.4099 199.03 72.9899C199.12 72.7399 198.92 72.6899 198.81 72.5599C198.37 72.0599 194.59 70.0099 193.7 69.5099C187.41 66.0199 180.7 63.6599 173.63 62.3599H173.64ZM251.95 64.2799V64.5199C252.11 64.4399 252.11 64.3599 251.95 64.2799ZM154.22 87.7799C143.24 87.4499 129.9 85.3799 119.52 89.8899C107.83 94.9699 114.43 101.82 124.07 100.92C127.03 97.2399 130.4 92.9999 134.33 90.3099C136.94 88.5299 139.59 88.9399 142.59 88.4899L153.86 88.2499L154.21 87.7699L154.22 87.7799ZM123.76 134.31C122.68 129.48 117.88 129.17 116.14 134.01C115.36 136.17 114.97 143.18 117.53 144.26C118.19 144.54 122.51 144.21 122.82 143.74C123.15 143.24 124.26 139.15 124 138.87C118.33 141.49 118.09 132.66 123.76 134.31ZM226.64 136.7C225.97 133.71 222.18 135.42 220.18 135.99L222 139.09L226.64 136.7ZM250.87 149.66C251.93 150.52 254.89 150.43 254.71 152.17C253.59 154.64 249.84 152.52 248.35 151.33C241.68 146.02 241.81 135.5 230.28 138.31C228.99 138.62 224.24 140.48 223.8 141.66C223.74 141.82 223.65 142.21 223.89 142.22C225.1 142.1 226.2 142.7 227.28 143.14C230.99 144.62 238.08 148.56 239.71 152.29C241.22 155.75 239.75 158.51 238.39 161.64L242.87 163.28C245.88 162.44 248.5 162.14 251.32 160.55C257.48 157.09 261.56 151.26 259.97 143.9L255.63 147.12C254.39 148.09 252.41 148.44 251.16 149.12C250.88 149.27 250.75 149.12 250.86 149.65L250.87 149.66ZM182.76 177.72C177.62 184.31 172.33 190.84 165.97 196.31C164.74 197.37 162.06 199.97 160.44 199.44C159.7 199.2 158.84 196.5 158.33 195.54C157.05 193.13 155.27 189.88 153.69 187.71C152.99 186.75 149.57 183.05 148.59 183.02C148.25 183.01 147.82 183.24 147.39 183.24C144.93 183.24 142.48 183.28 140.07 182.75L142.9 186.51C149.71 196.48 155.45 206.66 159.56 218.06C161.32 222.95 162.91 228.2 163.57 233.35C163.9 233.74 171.25 228.35 171.96 227.83C181.05 221.24 183.33 216.94 187.99 207.04C196.93 188.03 207.22 163.43 228.99 156.42C230.13 156.05 231.32 155.48 232.5 156.15C233.98 156.99 232.54 158.67 232.75 159.01L235.61 160.22C238.02 156.08 238.25 153.98 234.57 150.72C233.37 149.66 226.86 145.52 225.6 145.79C224.36 148.44 223.6 146.86 222.1 146.16C220.41 145.36 218.43 144.98 216.57 144.86C217.33 147.05 218.54 149.02 219.14 151.28C219.42 152.33 220.15 155.77 219.8 156.6C218.93 158.66 216.76 156.78 215.5 156.36C212.79 155.46 209.72 155.01 206.87 154.92C205.9 154.89 203.17 154.77 202.43 155.06C201.69 155.35 198.47 158.28 197.74 159C192.06 164.56 187.62 171.48 182.76 177.71V177.72ZM101.21 158.77C102.17 159.38 102.39 159.63 103.73 159.72C108.17 160.03 115.05 157.53 114.89 152.18C114.84 150.37 111.81 148.39 110.08 148.21C108.35 148.03 105.6 148.14 103.89 148.62C98.9098 150.01 96.1198 155.56 101.2 158.77H101.21ZM277.26 199.31C278.57 199.31 279.72 198.52 281 198.38C281.97 198.27 283.15 198.52 284.03 198.3C286.12 197.76 291.81 193.59 293.57 192.01C304.26 182.34 309.11 165.12 323.48 160.29C325.65 159.56 334.65 157.98 335.55 156.77C336.86 155.01 332.12 153.56 330.83 153.54C328.5 153.5 321.81 155.55 319.4 156.45C305.21 161.76 301.99 174.98 292.96 185.17C290.83 187.58 287.97 190.69 285.17 192.25C282.58 193.68 279.56 194.49 276.8 195.51L277.25 199.32L277.26 199.31ZM202.43 185.16C200.02 189.13 197.87 192.75 195.91 196.99C189.17 211.6 186.83 221.3 172.93 231.21C171.07 232.54 165.31 236.57 163.51 237.26C160.26 238.51 160.77 233.9 160.39 231.88C160.01 229.86 159.51 227.7 158.95 225.64C158.62 224.42 157.92 221.43 157.4 220.48C157.25 220.2 157.41 220.08 156.86 220.17C155.96 227.87 151.8 234.63 149.42 241.87C146.84 249.72 146.83 256.93 149.42 264.78C150.86 269.13 152.62 273.04 156.93 275.14C163.48 278.33 171.18 278.79 178.2 276.9C184.31 275.25 188.56 270.89 193.71 267.47C197.06 265.25 200.78 262.66 204.82 262.15C205.13 261.85 203.36 259.72 203.1 259.2C202.44 257.9 201.17 254.93 203.62 254.96C203.67 255 204.09 254.93 204.32 255.09C205.23 255.7 205.5 257.38 206.07 258.39C206.68 259.48 207.64 260.47 208.42 261.43C214.68 269.15 222.41 273.7 232.36 275.27C249.27 277.93 263.55 264.08 264.54 247.64C264.96 240.66 261.42 233.29 257.68 227.6C256.26 228.09 255.15 229.31 253.61 229.52C248.52 230.21 249.27 224.86 250.52 221.63C250.91 220.61 252.05 219.31 251.73 218.26C251.57 217.74 249.83 215.07 249.39 214.35C246.85 210.23 243.89 206.43 241.08 202.52C240.82 202.16 240.82 201.65 240.46 201.22C238.8 199.26 231.17 197.58 228.57 197.4C227.52 197.32 225.95 197.59 225.72 196.03C225.46 194.25 228.74 194.21 229.88 194.29C238.66 194.93 250.6 203.47 256.39 209.88C256.96 210.51 258.13 211.86 258.55 212.52C258.69 212.74 259.6 214.51 259.65 214.68C260.22 216.76 258.3 216.36 257.27 216.65C256.96 216.74 256.96 217 256.87 217.08C255.59 218.17 251.73 224.81 252.66 226.21C253.51 226.78 254.18 226.05 254.71 225.48C255.49 225.35 256.43 224.67 256.87 224.04C256.92 223.97 257.04 223.9 257.11 223.8L264.53 217.91C266.53 217.26 266.95 218.61 267.9 219.96C270.07 223.04 270.62 223.99 274.14 225.72C276.43 226.85 278.42 227.98 280.84 226.3C284.76 223.59 281.45 220.44 278.81 218.53C277.51 217.59 274.57 216.78 275.15 214.86C275.64 213.2 277.7 214.3 278.7 214.69C278.77 214.72 278.87 214.66 278.94 214.69C279.03 214.94 279.19 215.06 279.42 215.17C279.48 215.2 279.59 215.14 279.66 215.17C281.63 217.44 286.48 218.34 289.32 217.75C291.02 217.4 296.24 213.79 293.15 212.35C292.73 212.15 290.57 211.51 290.03 211.39C287.74 210.89 284.99 210.8 282.64 210.84C281.62 210.86 280.01 211.65 279.51 210.14C278.46 206.94 283.88 208.15 285.34 207.55C285.82 207.35 288.77 204.98 288.77 204.49C286.44 200.81 281.2 200.81 277.65 202.73C276.41 203.4 274 206.51 273.06 206.51C271.39 206.51 271.65 204.81 271.5 203.89L274.16 201.15C274.93 197.13 272.26 193.27 270.03 190.14C268.73 188.31 265.96 184.42 264.44 183.01C263.44 182.08 262.04 182.12 262.39 180.27C262.65 178.91 264.15 179.01 265.15 178.94C265.51 178.91 265.85 179.13 265.75 178.58C260.7 173.92 254.44 170.72 248.09 168.17C247.66 168 247.29 167.83 246.8 167.9C245.76 166.93 233.47 162.94 230.48 161.31C229.93 161.01 229.22 160.25 228.8 160.1C228.3 159.93 225.79 161.14 225.13 161.45C214.55 166.44 208.31 175.48 202.43 185.16ZM127.12 234.08C126.82 234.52 126.84 235.05 126.42 235.42C125.66 236.1 124.8 235.78 123.66 237.22C121.4 240.05 120.78 244.48 122.84 247.59C125.17 251.11 131.72 251.28 130.94 246.21C130.57 243.82 127.29 243.66 126.91 242.3C126.78 241.84 127.08 241.04 127.46 240.78C127.57 240.71 129.69 240.17 129.91 240.15C130.91 240.09 133.45 240.4 134.56 240.55C136.03 240.76 140.07 242.08 141.34 241.71C142.19 241.46 143.76 238.09 144.39 237.2C146.05 234.87 148.19 232.24 150.02 230C150.4 229.53 150.98 229.36 151.29 228.88C152.4 227.17 154.83 217.14 154.92 214.99C155.01 212.84 151.54 206.22 150.38 204.11C148.47 200.65 146.15 196.64 144 193.34C143.75 192.95 142.4 190.61 141.98 190.92C139.23 200.24 135.91 209.41 129.27 216.7C130.87 216.27 134.39 213.99 134.31 217.4C134.22 221.24 131.94 227.04 129.94 230.32C129.12 231.67 127.99 232.79 127.11 234.08H127.12ZM118.7 240.58C118.27 240.08 107.63 238.85 105.78 238.27C102.11 237.12 103.66 236.42 103.63 233.23C103.3 203.84 71.8498 184.55 45.4198 197.58C17.6798 211.26 15.1698 250.55 41.1398 267.42C62.3198 281.18 89.5798 272.63 100.07 250.07C100.62 248.88 101.42 245.42 102.6 245.16L119.45 247.75C118.52 245.37 118.74 243.08 118.71 240.58H118.7ZM251.83 210.1C251.9 209.73 251.79 209.54 251.6 209.25C251.23 208.68 248.02 205.85 247.51 206.27C247.98 206.76 249.71 209.91 249.96 210.06C250.33 210.28 251.34 210.02 251.83 210.11V210.1ZM254.67 212.52L252.31 212.98L253.87 215.62C254.35 215.74 255.05 214.1 255.4 213.78L254.67 212.53V212.52ZM146.04 241.97L147.02 239.12L145.11 241.88L146.04 241.97ZM145.09 246.07L145.33 245.26L144.95 244.91L133.12 243.2C132.99 245.94 135.4 244.7 137.31 244.88C138.42 244.98 139.92 245.78 140.68 245.83C141.33 245.87 142.14 245.51 143.07 245.6C143.56 245.65 144.89 246.23 145.09 246.07ZM132.15 256.39C133.36 256.32 134.86 253.99 134.78 252.93C134.74 252.37 134.21 252.08 134.34 251.3C134.66 249.45 137.07 250.02 137.55 251.59C138 253.04 137.4 254.57 136.94 255.92C138.57 256.22 139.32 253.6 140.11 253.22C141.49 252.57 143.07 254.25 144.14 253.17C144.58 252.73 144.34 249.85 144.61 248.97C143.98 249.13 143.51 248.57 143.04 248.49C142.09 248.33 141.47 249.06 140.43 248.98C139.5 248.91 138.71 248.01 137.49 247.83C136.81 247.73 134.36 247.71 133.89 248.06C133.7 248.2 133.34 249.79 133.12 250.17C131.22 253.51 126.78 253.71 123.65 252.09C122.73 252.27 123.86 255.29 124.19 255.86C125.64 258.34 130.33 258.11 132.15 256.41V256.39ZM258.31 269.58C257.9 269.47 257.83 269.75 257.59 269.94C256.26 270.97 254.91 272.52 253.49 273.52C249.03 276.68 240.36 279.08 234.93 278.69C231.5 278.45 228.25 276.99 225.07 276.56C223.71 276.37 225.13 278.16 225.46 278.57C230.33 284.77 245.72 282.95 252 279.46C252.85 278.98 253.84 277.97 254.49 277.64C254.95 277.4 255.83 277.41 256.09 277.2C256.18 277.13 257.34 275.75 257.59 275.46C258.7 274.18 258.74 271.18 258.3 269.58H258.31ZM158.53 284.93C158.58 284.98 158.47 285.34 158.53 285.41C159.78 286.85 169.25 287.08 171.36 286.85C176.77 286.25 183.08 283.34 184.92 277.86L180.12 279.53C172.85 281.48 165.9 281.73 158.78 279.17C157.71 278.79 156.61 278.41 155.57 277.94C154.88 277.63 154.34 276.92 153.5 277.01C153.54 280.86 154.91 282.85 158 284.86C158.16 284.96 158.49 284.87 158.54 284.92L158.53 284.93ZM226.89 283.97C226.07 287.88 227.52 293.09 230.75 295.58C233.32 297.56 235.42 296.66 238.28 296.92C241.14 297.18 243 299.63 245.6 300.87C251.4 303.64 257.56 304.3 263.58 301.82C271.92 298.39 274.47 290.24 270.42 282.27C266.74 275.04 256.83 278.98 252.9 283.95C252.19 284.85 251.86 286.45 250.49 286.59C248.99 286.74 248.54 285.49 248.71 284.19C244.14 285.38 239.15 285.67 234.43 285.4C231.78 285.25 229.43 284.55 226.89 283.95V283.97ZM134.31 301.24C135.07 302.56 134.89 303.65 135.32 304.67C135.83 305.87 143.23 307.61 144.73 307.73C151.48 308.26 162.91 304.4 168.44 300.49C171.06 298.64 173.57 295.89 176.7 294.84C177.9 294.44 180.36 294.39 181.09 293.71C181.46 293.37 182.48 291.35 182.72 290.78C183.49 288.93 183.91 287.21 183.71 285.18C183.45 284.91 180.29 287.23 179.71 287.53C173.78 290.58 164.54 290.58 158.29 288.53C156.88 288.07 154.62 286.58 153.51 285.51C152.65 284.68 152.33 283.61 151.22 283C146.75 280.55 136.91 282.96 133.87 287.01C130.83 291.06 130.7 295.32 133.1 299.69C133.42 300.27 134.02 300.75 134.31 301.24Z" fill="#040303"/>
<path d="M246.8 167.89C248.67 169.65 251.45 171.56 253.14 173.67C255.27 176.33 257.31 180.69 258.5 183.9C258.71 184.47 259.77 187.53 259.52 187.8C258.12 187.1 255.54 186.84 255.73 189.06C255.84 190.25 257.8 192.8 258.44 194.03C260.38 197.77 261.44 202.31 261.91 206.51C257.64 205.09 255.86 204.06 256.39 209.87C250.61 203.46 238.67 194.93 229.88 194.28C228.74 194.2 225.46 194.24 225.72 196.02C225.95 197.59 227.51 197.32 228.57 197.39C228.21 198.64 229.14 198.65 229.5 199.22C238.06 212.82 237.56 234.46 231.25 248.88C228.18 255.91 221.02 264.3 212.45 262.56C210.98 262.26 209.86 261.45 208.42 261.43C207.64 260.47 206.68 259.47 206.07 258.39C205.51 257.38 205.23 255.7 204.32 255.09C204.09 254.93 203.67 255 203.62 254.96C203.55 254.9 203.71 254.37 203.03 254.24C202.46 254.13 201.66 254.22 201.13 254.52C191.37 264.2 178.55 271.43 164.39 271.05C159.34 270.91 153.46 269.66 150.33 265.44C150.07 265.09 149.92 264.8 149.41 264.8C146.82 256.95 146.83 249.74 149.41 241.89C151.79 234.65 155.95 227.89 156.85 220.19C157.4 220.09 157.23 220.22 157.39 220.5C157.91 221.44 158.61 224.44 158.94 225.66C159.49 227.71 159.98 229.81 160.38 231.9C160.78 233.99 160.25 238.53 163.5 237.28C165.3 236.59 171.06 232.56 172.92 231.23C176.15 239.64 186.36 243 194.63 240.59C205.17 237.52 211.89 227.98 213.38 217.37C215.23 204.25 211.9 195.48 203.28 185.87C203.02 185.58 202.98 185.13 202.41 185.18C208.29 175.5 214.52 166.46 225.11 161.47C225.77 161.16 228.28 159.94 228.78 160.12C229.21 160.27 229.91 161.03 230.46 161.33C233.45 162.96 245.74 166.94 246.78 167.92L246.8 167.89Z" fill="#D9BA8C"/>
<path d="M118 151.82C117.92 149.92 117.4 149.06 116.08 147.75C120.06 146.98 124.13 146.83 128.19 146.78C130.82 145.39 128.42 142.98 126.16 143.91C126.97 140.07 127.51 136.78 126.52 132.88C125.46 128.7 121.32 126.81 117.29 127.85C117.41 126.78 117.02 123.64 117.58 122.87C117.71 122.69 119.75 121.74 120.29 121.15C121.97 119.31 121.88 116.89 118.96 116.82C118.52 116.33 122.67 108.45 123.32 107.39C125.33 104.14 128.95 99.16 131.67 96.55C134.24 94.07 136.56 92.08 140.19 91.64C151.72 90.25 164.51 91.39 175.66 94.53C178.46 95.32 183.29 97.56 185.82 97.82C187.74 98.01 189.32 96.53 190.55 95.24C194.02 91.57 195.33 86.66 197.42 82.2C201.91 72.59 210.86 61.26 221.43 58.24C229.65 55.89 240.36 55.55 247.83 60.27C248.37 60.61 252.15 63.75 251.59 64.3C248.72 63.08 245.51 61.69 242.35 61.43C233.5 60.7 221.02 65.36 215.25 72.22C212.7 75.25 210.64 80.87 209.78 84.74C208.77 89.23 210.09 89.22 214.17 88.3C213.67 91.19 211.38 93.99 209.38 96.1C208.44 97.09 205.56 99.04 205.55 100.17C205.55 102.96 210.37 101.04 211.77 100.65C212.95 100.32 214.45 99.59 215.5 99.35C215.83 99.27 215.94 99.35 215.84 99.69C215.67 100.24 214.64 101.87 214.26 102.43C212.22 105.42 208.27 109.01 204.87 110.31C203.58 110.81 199.97 111.29 199.42 112.05C198.58 113.22 199.15 114.57 200.61 114.69C203.39 114.93 208.85 112.1 211.04 110.36C211.79 114.29 214.61 117.32 216.56 120.67C211.74 120.18 208.9 120.64 204.48 122.62C203.17 123.21 197.09 126.25 199.54 128.21C200.28 128.8 201.24 128.31 201.92 127.86C203.45 131.88 205.73 135.69 206 140.09C205.62 140.5 202.23 137.92 200.73 139.02C199.04 140.25 200.96 142.33 200.96 143.81V149.33C200.96 150.28 200.17 152.03 200 153.05C196.08 155.77 190.31 162.61 187.29 166.48C187.43 165.53 186.85 165 186.33 164.32C187 163.27 187.19 161.44 185.61 161.2C186.74 157.36 188.73 153.51 188.73 149.45L179.38 154.01C179.06 152.4 180.01 151.33 180.41 149.88C181.19 147.01 181.67 144.06 181.54 141.06L180.25 141.33C173.82 147.03 166.55 152.28 158.4 155.22C150.92 157.91 144.08 157.22 136.37 156.13C130.12 155.25 124.03 153.58 117.98 151.85L118 151.82ZM150.81 105.6C147.56 105.91 137.98 108.59 137.44 112.38C137 115.45 141.13 114.64 143 114.34C144.87 114.04 147.34 113.32 149.12 112.78C151.31 112.12 158.88 110.13 155.89 106.6C154.73 105.23 152.44 105.44 150.8 105.59L150.81 105.6ZM144.57 119.26C132.04 120.83 132.61 139.83 143.37 144.09C150.39 146.87 162.14 147.1 166.5 139.75C168.74 135.97 168.8 133.57 166.56 129.78C162.33 122.61 152.83 118.24 144.58 119.27L144.57 119.26Z" fill="#D8B98C"/>
<path d="M118.7 240.58C118.73 243.08 118.52 245.38 119.44 247.75L102.59 245.16C101.41 245.42 100.61 248.88 100.06 250.07C89.57 272.64 62.31 281.18 41.13 267.42C15.16 250.55 17.67 211.25 45.41 197.58C71.85 184.55 103.3 203.83 103.62 233.23C103.66 236.42 102.1 237.13 105.77 238.27C107.62 238.85 118.26 240.08 118.69 240.58H118.7ZM63.04 202C37.51 202.2 22.67 231.22 37.46 252.15C51.32 271.75 81.56 268.99 91.83 247.36C101.81 226.34 86.29 201.82 63.04 202Z" fill="#566170"/>
<path d="M228.57 197.39C231.16 197.58 238.8 199.25 240.46 201.21C240.82 201.64 240.82 202.15 241.08 202.51C243.9 206.43 246.85 210.22 249.39 214.34C249.83 215.06 251.58 217.73 251.73 218.25C252.04 219.29 250.91 220.6 250.52 221.62C249.27 224.85 248.52 230.2 253.61 229.51C255.16 229.3 256.26 228.08 257.68 227.59C261.41 233.29 264.96 240.65 264.54 247.63C263.55 264.07 249.27 277.91 232.36 275.26C222.41 273.7 214.68 269.14 208.42 261.42C209.86 261.44 210.97 262.25 212.45 262.55C221.02 264.29 228.17 255.9 231.25 248.87C237.55 234.46 238.06 212.81 229.5 199.21C229.14 198.64 228.21 198.63 228.57 197.38V197.39Z" fill="#C0955D"/>
<path d="M118 151.82C124.05 153.55 130.14 155.21 136.39 156.1C144.11 157.19 150.94 157.88 158.42 155.19C166.57 152.26 173.84 147 180.27 141.3L181.56 141.03C181.69 144.03 181.21 146.98 180.43 149.85C180.04 151.29 179.08 152.37 179.4 153.98L188.75 149.42C188.75 153.49 186.76 157.33 185.63 161.17C185.06 161.08 184.5 161.28 184.07 161.65C182.46 163.03 180.7 165.85 179.05 167.42C173.88 172.33 164.48 176.51 157.62 178.37C145.27 181.73 134.91 180.21 123.35 175.12C116.56 172.13 109.77 168.29 104.57 162.96C105.9 162.57 107.29 162.56 108.65 162.24C113.83 161.05 118.24 157.54 118 151.8V151.82ZM153.44 160.51C153.33 160.39 152.55 160.05 152.39 160.03C151.54 159.97 147.86 162.93 146.71 163.6C143.16 165.69 138.76 167.53 134.65 168.09C133.14 168.29 130.25 168.09 129.03 168.47C127.39 168.97 127.73 171.26 129.87 171.48C132.84 171.8 139.59 170.32 142.47 169.19C144.88 168.25 151.61 164.54 153.28 162.73C153.81 162.16 154.03 161.11 153.45 160.5L153.44 160.51Z" fill="#E7D09B"/>
<path d="M239.36 64.52C241.5 66.48 243.02 68.01 244.44 70.59C251.5 83.48 248.86 106.81 237.45 116.68C235.43 118.43 228.96 122.52 226.35 121.84C225.98 121.74 225.09 119.72 223.78 121.84C221.65 121.31 218.78 120.87 216.58 120.64C214.64 117.29 211.81 114.25 211.06 110.33C213.95 108.03 217.63 103.81 218.92 100.32C219.44 98.9 220.86 94.01 218.99 93.4C216.79 92.68 215.33 96.88 212.98 96.89C212.77 96.7 215.32 93.79 215.57 93.37C216.42 91.99 218.33 86.78 218.48 85.23C218.56 84.4 218.05 83.34 217.16 83.21C215.97 83.04 214.4 84.67 213.22 84.9C212.69 84.32 215.97 76.79 216.62 75.71C220.58 69.17 231.99 64.81 239.36 64.51V64.52Z" fill="#F6D5B8"/>
<path d="M172.92 231.21C186.83 221.31 189.17 211.6 195.9 196.99C197.86 192.75 200.01 189.13 202.42 185.16C202.99 185.11 203.03 185.57 203.29 185.85C211.91 195.46 215.24 204.24 213.39 217.35C211.89 227.96 205.18 237.5 194.64 240.57C186.37 242.98 176.15 239.62 172.93 231.21H172.92Z" fill="#E9D19C"/>
<path d="M182.76 177.72C187.62 171.48 192.06 164.57 197.74 159.01C198.48 158.29 201.72 155.35 202.43 155.07C203.14 154.79 205.9 154.9 206.87 154.93C209.72 155.02 212.8 155.47 215.5 156.37C216.76 156.79 218.93 158.68 219.8 156.61C220.15 155.78 219.41 152.34 219.14 151.29C218.55 149.03 217.33 147.05 216.57 144.87C218.43 145 220.41 145.37 222.1 146.17C223.59 146.88 224.35 148.45 225.6 145.8C226.86 145.53 233.37 149.67 234.57 150.73C238.26 153.99 238.02 156.09 235.61 160.23L232.75 159.02C232.53 158.68 233.98 157 232.5 156.16C231.32 155.49 230.13 156.06 228.99 156.43C207.22 163.44 196.93 188.05 187.99 207.05C183.34 216.94 181.06 221.25 171.96 227.84C172.18 225.24 173.23 222.82 173.61 220.25C174.03 217.34 174.11 214.22 174.12 211.29L170.64 214.65L168.85 215.61C176.8 208.64 186.93 193.25 191.76 183.72C192.35 182.56 194.34 179.11 192.59 178.32C190.2 177.25 189.91 180.8 189.19 182.35C187.91 185.12 185.79 188.03 184.2 190.67C184.37 186.31 183.85 181.94 182.76 177.72Z" fill="#1656FB"/>
<path d="M173.64 62.3599C175.05 65.3399 177.5 68.2999 177.9 71.6499C178.48 76.5299 177.21 81.0799 174.32 84.9799C172.68 87.1999 171.39 87.7699 168.61 87.5399C164.98 87.2399 160.36 85.6299 156.5 85.1399C153.46 84.7599 149.99 84.5699 146.92 84.4099C142.81 84.1999 138.66 84.2899 134.55 84.0599C136.45 77.2499 140.58 70.5599 145.94 65.9499C152.84 60.0099 165.22 60.8099 173.65 62.3599H173.64Z" fill="#3486FC"/>
<path d="M184.2 190.67C180.87 196.2 177.32 202.42 173.16 207.33C172.53 208.07 170.23 210.89 169.47 210.82C167.97 210.69 164.36 204.68 162.64 207.36C162.34 207.82 162.26 208.38 162.5 208.89C162.85 209.64 166.95 212.51 166.95 213.09C166.44 214.44 163.19 215.84 163.1 217.19C163.03 218.27 164.06 218.93 165.07 218.68C165.46 218.58 168.29 216.11 168.85 215.61L170.64 214.65L174.12 211.29C174.11 214.23 174.03 217.34 173.61 220.25C173.24 222.82 172.19 225.24 171.96 227.84C171.25 228.35 163.9 233.74 163.57 233.36C162.91 228.21 161.32 222.96 159.56 218.07C155.45 206.67 149.71 196.49 142.9 186.52L140.07 182.76C142.48 183.29 144.93 183.24 147.39 183.25C147.82 183.25 148.25 183.02 148.59 183.03C149.57 183.06 152.99 186.76 153.69 187.72C155.27 189.89 157.06 193.14 158.33 195.55C158.83 196.5 159.69 199.2 160.44 199.45C162.06 199.98 164.75 197.37 165.97 196.32C172.32 190.85 177.62 184.32 182.76 177.73C183.85 181.95 184.37 186.32 184.2 190.68V190.67Z" fill="#3485FB"/>
<path d="M226.89 283.97C229.43 284.57 231.79 285.27 234.43 285.42C239.15 285.69 244.14 285.4 248.71 284.21C248.54 285.51 248.99 286.76 250.49 286.61C251.87 286.47 252.2 284.86 252.9 283.97C256.82 279 266.74 275.06 270.42 282.29C274.47 290.26 271.92 298.41 263.58 301.84C257.56 304.32 251.39 303.65 245.6 300.89C243 299.65 241.17 297.21 238.28 296.94C235.39 296.67 233.32 297.58 230.75 295.6C227.52 293.11 226.08 287.9 226.89 283.99V283.97Z" fill="#815024"/>
<path d="M223.77 121.84C225.07 119.72 225.96 121.75 226.34 121.84C228.96 122.52 235.42 118.43 237.44 116.68C248.85 106.81 251.49 83.48 244.43 70.59C243.02 68.01 241.49 66.48 239.35 64.52C250.63 64.07 258.04 71.56 259.91 82.21C263.36 101.77 253.72 127.15 229.94 123.69C227.62 123.35 225.65 122.31 223.76 121.84H223.77Z" fill="#D9A97A"/>
<path d="M168.61 87.54C171.39 87.77 172.68 87.19 174.32 84.98C177.21 81.08 178.48 76.53 177.9 71.65C177.5 68.3 175.06 65.33 173.64 62.36C180.7 63.66 187.41 66.02 193.71 69.51C194.6 70 198.38 72.06 198.82 72.56C198.94 72.69 199.14 72.75 199.04 72.99C193.68 79.41 193.11 88.87 186.66 94.46L168.61 87.54Z" fill="#1656FB"/>
<path d="M271.5 203.86C271.65 204.78 271.39 206.48 273.06 206.48C274 206.48 276.41 203.37 277.65 202.7C281.2 200.78 286.45 200.79 288.77 204.46C288.77 204.94 285.82 207.32 285.34 207.52C283.87 208.12 278.46 206.91 279.51 210.11C280 211.62 281.62 210.83 282.64 210.81C284.98 210.77 287.74 210.86 290.03 211.36C290.57 211.48 292.73 212.12 293.15 212.32C296.24 213.76 291.02 217.37 289.32 217.72C286.48 218.3 281.63 217.41 279.66 215.14C280.89 215.63 283.55 216.68 284.79 216.57C286.59 216.41 287.48 215.2 285.66 214.06C283.53 212.73 280.84 212.79 278.46 213.23L278.7 214.67C277.7 214.29 275.65 213.18 275.15 214.84C274.58 216.77 277.51 217.57 278.81 218.51C281.45 220.42 284.75 223.57 280.84 226.28C278.42 227.96 276.43 226.82 274.14 225.7C276.77 221.98 271.94 218.34 268.4 218.52L267.91 219.94C266.96 218.59 266.54 217.24 264.54 217.89L257.12 223.78C257.56 223.09 258.58 220.62 258.54 219.84C258.5 218.98 257.68 217.48 256.88 217.06C256.97 216.98 256.97 216.72 257.28 216.63C258.31 216.34 260.23 216.74 259.66 214.66C259.61 214.49 258.71 212.73 258.56 212.5C259.41 211.33 260.55 212.58 261.31 212.5C262.82 212.36 262.03 208.12 261.92 206.98L264.8 207.7C265.72 205.78 263.99 197.88 267.91 200.16C268.64 200.59 271.4 203.12 271.52 203.87L271.5 203.86Z" fill="#D8A879"/>
<path d="M158.29 288.53C159.33 290.84 159.42 293.53 157.5 295.41C155.47 297.4 152.23 299.29 149.42 300.16C144.9 301.56 138.84 302.81 134.31 301.24C134.02 300.74 133.42 300.27 133.1 299.69C130.69 295.32 130.83 291.05 133.87 287.01C136.91 282.97 146.75 280.55 151.22 283C152.33 283.61 152.65 284.68 153.51 285.51C154.62 286.57 156.88 288.07 158.29 288.53Z" fill="#9A6D3F"/>
<path d="M158.29 288.53C164.54 290.57 173.78 290.57 179.71 287.53C180.29 287.23 183.45 284.91 183.71 285.18C183.91 287.22 183.49 288.93 182.72 290.78C182.48 291.36 181.47 293.37 181.09 293.71C180.36 294.38 177.89 294.43 176.7 294.84C173.57 295.89 171.06 298.64 168.44 300.49C162.91 304.4 151.47 308.27 144.73 307.73C143.23 307.61 135.82 305.88 135.32 304.67C134.89 303.65 135.07 302.56 134.31 301.24C138.83 302.81 144.9 301.56 149.42 300.16C152.23 299.29 155.47 297.4 157.5 295.41C159.42 293.53 159.33 290.84 158.29 288.53Z" fill="#815024"/>
<path d="M277.26 199.31L276.81 195.5C279.58 194.48 282.59 193.67 285.18 192.24C287.98 190.69 290.84 187.57 292.97 185.16C302 174.97 305.22 161.75 319.41 156.44C321.81 155.54 328.5 153.49 330.84 153.53C332.13 153.55 336.87 155 335.56 156.76C334.66 157.97 325.66 159.55 323.49 160.28C309.12 165.12 304.27 182.34 293.58 192C291.83 193.59 286.14 197.76 284.04 198.29C283.16 198.52 281.97 198.26 281.01 198.37C279.73 198.52 278.58 199.3 277.27 199.3L277.26 199.31Z" fill="#D6A778"/>
<path d="M250.87 149.66C250.77 149.12 250.9 149.28 251.17 149.13C252.43 148.44 254.4 148.1 255.64 147.13L259.98 143.91C261.57 151.26 257.48 157.09 251.33 160.56C248.51 162.15 245.89 162.45 242.88 163.29L238.4 161.65C239.76 158.51 241.23 155.76 239.72 152.3C238.09 148.56 231 144.63 227.29 143.15C226.2 142.72 225.11 142.12 223.9 142.23C223.66 142.22 223.75 141.82 223.81 141.67C224.25 140.49 229 138.63 230.29 138.32C241.82 135.52 241.69 146.03 248.36 151.34C249.84 152.52 253.59 154.65 254.72 152.18C254.9 150.44 251.94 150.53 250.88 149.67L250.87 149.66Z" fill="#1555F9"/>
<path d="M203.62 254.95C201.17 254.92 202.44 257.89 203.1 259.19C203.37 259.72 205.13 261.84 204.82 262.14C200.78 262.66 197.06 265.24 193.71 267.46C188.56 270.88 184.31 275.24 178.2 276.89C171.18 278.79 163.48 278.32 156.93 275.13C152.61 273.03 150.85 269.12 149.42 264.77C149.93 264.77 150.08 265.05 150.34 265.41C153.47 269.62 159.35 270.88 164.4 271.02C178.56 271.4 191.38 264.17 201.14 254.49C201.66 254.19 202.46 254.11 203.04 254.21C203.73 254.34 203.56 254.88 203.63 254.93L203.62 254.95Z" fill="#BF945D"/>
<path d="M246.8 167.89C247.29 167.82 247.66 167.98 248.09 168.16C254.44 170.7 260.69 173.9 265.75 178.57C265.85 179.12 265.51 178.9 265.15 178.93C264.16 179 262.65 178.9 262.39 180.26C262.04 182.11 263.44 182.07 264.44 183C265.95 184.4 268.72 188.3 270.03 190.13C272.26 193.26 274.93 197.13 274.16 201.14L271.5 203.88C271.38 203.13 268.63 200.6 267.89 200.17C263.97 197.89 265.7 205.8 264.78 207.71L261.9 206.99C261.88 206.83 261.92 206.67 261.9 206.51C261.43 202.32 260.37 197.78 258.43 194.03C257.79 192.8 255.82 190.25 255.72 189.06C255.52 186.84 258.1 187.1 259.51 187.8C259.76 187.54 258.7 184.47 258.49 183.9C257.31 180.69 255.26 176.33 253.13 173.67C251.45 171.56 248.67 169.65 246.79 167.89H246.8Z" fill="#C0955D"/>
<path d="M201.95 127.83C202.04 127.77 202.17 127.42 202.44 127.25C203.7 126.44 207.17 124.12 208.56 124.94C209.33 125.39 211.43 128.22 212.08 129.1C214.08 131.81 216.24 135.17 217.98 138.07C218.23 138.49 220.36 142.06 220.18 142.22C217.89 142.41 211.43 139.58 212.62 144.15C212.96 145.46 214.87 148.26 215.5 149.9C215.7 150.42 216.63 152.96 216.34 153.25C214.48 153.26 212.72 152.28 210.91 152.08C209.71 151.95 207.86 151.84 206.63 151.8C204.01 151.72 202.24 151.47 200.02 153.01C200.19 151.99 200.98 150.25 200.98 149.29V143.77C200.98 142.29 199.06 140.21 200.75 138.98C202.25 137.88 205.64 140.46 206.02 140.05C205.75 135.65 203.47 131.84 201.94 127.82L201.95 127.83Z" fill="#BF945D"/>
<path d="M150.38 204.1C151.54 206.2 155.01 212.88 154.92 214.98C154.83 217.08 152.39 227.17 151.29 228.87C150.98 229.35 150.4 229.53 150.02 229.99C148.19 232.23 146.05 234.86 144.39 237.19C143.21 233.58 139.25 237.63 137.2 238.29C136.62 238.47 136.77 238.32 136.48 237.91C136.57 237.78 136.55 237.37 136.72 237.19C138.21 235.51 139.51 233.33 140.6 231.35C145.25 222.87 147.39 214.07 149.85 204.85C149.96 204.43 149.7 203.95 150.4 204.09L150.38 204.1Z" fill="#BF945D"/>
<path d="M154.22 87.78L153.87 88.26L142.6 88.5C139.6 88.95 136.95 88.54 134.34 90.32C130.41 93.01 127.04 97.24 124.08 100.93C114.44 101.83 107.84 94.98 119.53 89.9C129.91 85.39 143.25 87.45 154.23 87.79L154.22 87.78Z" fill="#2448C0"/>
<path d="M187.32 166.45C179.68 176.25 174.09 185.16 164.54 193.55C163.91 193.75 163.88 192.53 163.85 192.2C163.45 188.02 163.2 183.79 163.82 179.64C172.6 176.47 180.29 171.35 186.36 164.29C186.88 164.97 187.46 165.5 187.32 166.45Z" fill="#E7D09B"/>
<path d="M258.31 269.58C258.75 271.18 258.71 274.17 257.6 275.46C257.35 275.75 256.19 277.12 256.1 277.2C255.84 277.41 254.96 277.4 254.5 277.64C253.85 277.97 252.86 278.99 252.01 279.46C245.73 282.95 230.34 284.77 225.47 278.57C225.14 278.15 223.72 276.37 225.08 276.56C228.26 277 231.51 278.45 234.94 278.69C240.37 279.08 249.05 276.68 253.5 273.52C254.91 272.52 256.26 270.97 257.6 269.94C257.84 269.75 257.91 269.48 258.32 269.58H258.31Z" fill="#7E4E23"/>
<path d="M136.71 237.2C136.54 237.38 136.56 237.79 136.47 237.92C136.03 238.58 134.47 239.48 134.55 240.56C133.44 240.4 130.9 240.09 129.9 240.16C129.68 240.17 127.56 240.71 127.45 240.79C127.07 241.05 126.78 241.85 126.9 242.31C127.27 243.67 130.56 243.83 130.93 246.22C131.72 251.29 125.16 251.12 122.83 247.6C120.77 244.49 121.39 240.06 123.65 237.23C124.79 235.8 125.65 236.11 126.41 235.43C126.83 235.06 126.8 234.53 127.11 234.09C127.82 234.58 127.51 235.46 127.59 236.13C127.63 236.46 127.46 236.55 127.94 236.48L134.6 233.07C138.28 232.18 136.85 235 136.7 237.2H136.71Z" fill="#F3D1B5"/>
<path d="M158.77 279.17C165.9 281.73 172.85 281.48 180.11 279.53L184.91 277.86C183.08 283.34 176.76 286.25 171.35 286.85C169.25 287.08 159.77 286.85 158.52 285.41C158.46 285.34 158.57 284.98 158.52 284.93L158.76 279.17H158.77Z" fill="#7E4E23"/>
<path d="M110.09 148.22C110.34 149.72 110.81 151.62 110.56 153.12C110.28 154.78 107.59 157.59 106.02 158.17C104.45 158.75 102.75 158.24 101.22 158.77C96.1298 155.56 98.9298 150.02 103.91 148.62C105.62 148.14 108.33 148.03 110.1 148.21L110.09 148.22Z" fill="#F29269"/>
<path d="M163.81 179.64C163.19 183.8 163.44 188.02 163.84 192.2C163.87 192.53 163.9 193.75 164.53 193.55C164.08 193.95 162.22 196.08 161.66 195.7C159.82 192.24 157.91 188.27 155.51 185.18C155.01 184.54 153.35 183.26 153.25 182.64C153.16 182.11 153.35 182.35 153.61 182.28C157.04 181.45 160.47 180.84 163.8 179.64H163.81Z" fill="#D8B98C"/>
<path d="M123.76 134.31C118.09 132.66 118.33 141.48 124 138.87C124.25 139.15 123.15 143.24 122.82 143.74C122.51 144.21 118.19 144.54 117.53 144.26C114.97 143.18 115.36 136.17 116.14 134.01C117.87 129.17 122.68 129.48 123.76 134.31Z" fill="#FBF5E6"/>
<path d="M133.11 250.15C133.33 249.77 133.69 248.18 133.88 248.04C134.35 247.69 136.8 247.71 137.48 247.81C138.71 247.99 139.5 248.89 140.42 248.96C141.46 249.04 142.08 248.31 143.03 248.47C143.5 248.55 143.97 249.11 144.6 248.95C144.33 249.83 144.57 252.71 144.13 253.15C143.06 254.23 141.48 252.55 140.1 253.2C139.31 253.57 138.56 256.2 136.93 255.9C137.39 254.55 137.99 253.02 137.54 251.57C137.05 250 134.65 249.44 134.33 251.28C134.19 252.07 134.73 252.35 134.77 252.91C134.85 253.97 133.34 256.31 132.14 256.37C132.18 256.33 132.18 255.97 132.37 255.77C132.64 255.48 133.05 255.4 133.31 255.03C133.95 254.12 134.27 250.83 133.1 250.14L133.11 250.15Z" fill="#D6A778"/>
<path d="M101.21 158.77C102.74 158.24 104.42 158.77 106.01 158.17C107.6 157.57 110.27 154.78 110.55 153.12C110.81 151.62 110.33 149.71 110.08 148.22C111.8 148.4 114.83 150.37 114.89 152.19C115.05 157.55 108.17 160.04 103.73 159.73C102.39 159.64 102.17 159.38 101.21 158.78V158.77Z" fill="#E5623A"/>
<path d="M132.15 256.39C130.33 258.09 125.63 258.32 124.19 255.84C123.86 255.28 122.72 252.26 123.65 252.07C126.78 253.69 131.21 253.49 133.12 250.15C134.3 250.84 133.98 254.13 133.33 255.04C133.07 255.41 132.65 255.49 132.39 255.78C132.2 255.98 132.21 256.35 132.16 256.38L132.15 256.39Z" fill="#F3D1B5"/>
<path d="M144.38 237.2C143.75 238.09 142.18 241.46 141.33 241.71C140.06 242.09 136.02 240.77 134.55 240.55C134.47 239.47 136.03 238.57 136.47 237.91C136.76 238.32 136.61 238.47 137.19 238.29C139.25 237.63 143.2 233.58 144.38 237.19V237.2Z" fill="#D6A778"/>
<path d="M261.91 206.5C261.93 206.66 261.89 206.82 261.91 206.98C262.02 208.13 262.81 212.37 261.3 212.5C260.54 212.57 259.4 211.32 258.55 212.5C258.13 211.84 256.96 210.49 256.39 209.86C255.86 204.05 257.64 205.08 261.91 206.5Z" fill="#F6D5B8"/>
<path d="M257.11 223.77C257.04 223.87 256.92 223.94 256.87 224.01C256.37 224.19 255.43 224.4 255.05 224.72C254.74 224.98 254.77 225.38 254.71 225.45C254.18 226.02 253.5 226.76 252.66 226.18C251.73 224.78 255.59 218.15 256.87 217.05C257.68 217.46 258.5 218.97 258.53 219.83C258.56 220.6 257.55 223.08 257.11 223.77Z" fill="#F3D1B5"/>
<path d="M274.14 225.69C270.62 223.96 270.07 223.01 267.9 219.93L268.39 218.51C271.94 218.33 276.77 221.97 274.13 225.69H274.14Z" fill="#F3D1B5"/>
<path d="M158.77 279.17L158.53 284.93C158.48 284.89 158.15 284.97 157.99 284.87C154.9 282.86 153.53 280.86 153.49 277.02C154.33 276.92 154.86 277.64 155.56 277.95C156.59 278.42 157.7 278.8 158.77 279.18V279.17Z" fill="#9A6D3F"/>
<path d="M279.65 215.14C279.58 215.11 279.47 215.17 279.41 215.14C279.32 214.9 279.17 214.75 278.93 214.66C278.86 214.63 278.76 214.69 278.69 214.66L278.45 213.22C280.83 212.78 283.53 212.72 285.65 214.05C287.47 215.19 286.58 216.41 284.78 216.56C283.54 216.67 280.88 215.62 279.65 215.13V215.14Z" fill="#F6D5B8"/>
<path d="M226.64 136.7L222 139.09L220.18 135.99C222.19 135.41 225.98 133.7 226.64 136.7Z" fill="#1555F9"/>
<path d="M145.09 246.07C144.88 246.22 143.56 245.64 143.07 245.6C142.14 245.51 141.33 245.87 140.68 245.83C139.91 245.78 138.41 244.99 137.31 244.88C135.4 244.7 132.99 245.94 133.12 243.2L144.95 244.91L145.33 245.26L145.09 246.07Z" fill="#566170"/>
<path d="M251.83 210.1C251.34 210.01 250.33 210.27 249.96 210.05C249.72 209.91 247.98 206.75 247.51 206.26C248.01 205.85 251.23 208.68 251.6 209.24C251.79 209.53 251.9 209.72 251.83 210.09V210.1Z" fill="#C0955D"/>
<path d="M256.87 224.01C256.43 224.64 255.49 225.32 254.71 225.45C254.78 225.38 254.74 224.98 255.05 224.72C255.43 224.4 256.37 224.19 256.87 224.01Z" fill="#D8A879"/>
<path d="M279.41 215.14C279.18 215.03 279.02 214.91 278.93 214.66C279.17 214.75 279.32 214.9 279.41 215.14Z" fill="#D8A879"/>
<path d="M251.95 64.28C252.11 64.36 252.11 64.44 251.95 64.52V64.28Z" fill="#D8B98C"/>
<path d="M150.38 204.1C149.68 203.96 149.94 204.44 149.83 204.86C147.37 214.08 145.23 222.89 140.58 231.36C139.5 233.34 138.19 235.51 136.7 237.2C136.86 235 138.29 232.18 134.6 233.07L127.94 236.48C127.45 236.54 127.63 236.46 127.59 236.13C127.51 235.46 127.82 234.57 127.11 234.09C127.99 232.8 129.12 231.67 129.94 230.33C131.95 227.05 134.22 221.25 134.31 217.41C134.39 214 130.87 216.27 129.27 216.71C135.91 209.42 139.23 200.24 141.98 190.93C142.39 190.62 143.74 192.96 144 193.35C146.15 196.65 148.47 200.66 150.38 204.12V204.1Z" fill="#D8B98C"/>
<path d="M144.57 119.26C152.82 118.23 162.32 122.6 166.55 129.77C168.79 133.56 168.73 135.96 166.49 139.74C162.14 147.09 150.38 146.86 143.36 144.08C132.61 139.82 132.04 120.83 144.56 119.25L144.57 119.26ZM145.77 122.38C140.11 123 138.16 126.86 138.63 132.26C139.05 137.02 141.47 140.35 146.11 141.57C152.26 143.19 161.46 143.61 164.33 136.62C165.39 134.05 165.18 133.45 163.76 131.11C160.37 125.53 152.26 121.66 145.77 122.37V122.38Z" fill="#080806"/>
<path d="M150.81 105.6C152.45 105.44 154.74 105.24 155.9 106.61C158.89 110.14 151.32 112.13 149.13 112.79C147.35 113.32 144.81 114.05 143.01 114.35C141.21 114.65 137.01 115.46 137.45 112.39C137.99 108.6 147.57 105.92 150.82 105.61L150.81 105.6Z" fill="#040303"/>
<path d="M63.0399 202C86.2899 201.82 101.81 226.34 91.8299 247.36C81.5599 268.99 51.3199 271.75 37.4599 252.15C22.6599 231.22 37.5099 202.2 63.0399 202ZM60.3899 205.61C41.5799 207.2 29.8899 227.42 37.2099 244.72C46.2999 266.22 76.3799 267.98 87.8199 247.67C99.1699 227.53 83.2499 203.68 60.3899 205.61Z" fill="#040606"/>
<path d="M153.44 160.51C154.02 161.12 153.8 162.16 153.27 162.74C151.61 164.55 144.88 168.26 142.46 169.2C139.59 170.32 132.83 171.8 129.86 171.49C127.72 171.26 127.38 168.97 129.02 168.48C130.24 168.11 133.13 168.31 134.64 168.1C138.75 167.54 143.15 165.7 146.7 163.61C147.85 162.93 151.53 159.97 152.38 160.04C152.55 160.05 153.32 160.4 153.43 160.52L153.44 160.51Z" fill="#080806"/>
<path d="M168.85 215.62C168.29 216.11 165.46 218.59 165.07 218.69C164.06 218.94 163.03 218.27 163.1 217.2C163.19 215.86 166.44 214.45 166.95 213.1C166.95 212.52 162.85 209.66 162.5 208.9C162.26 208.39 162.35 207.84 162.64 207.37C164.36 204.69 167.97 210.7 169.47 210.83C170.23 210.89 172.54 208.08 173.16 207.34C177.32 202.43 180.86 196.2 184.2 190.68C185.79 188.04 187.92 185.13 189.19 182.36C189.9 180.82 190.2 177.26 192.59 178.33C194.35 179.12 192.35 182.57 191.76 183.73C186.93 193.26 176.8 208.66 168.85 215.62Z" fill="#01050B"/>
<path d="M145.77 122.38C152.26 121.67 160.37 125.54 163.76 131.12C165.18 133.46 165.39 134.05 164.33 136.63C161.46 143.62 152.26 143.2 146.11 141.58C141.47 140.36 139.05 137.03 138.63 132.27C138.15 126.87 140.11 123.01 145.77 122.39V122.38ZM156.32 127.64C151.09 128.36 154.33 137.14 158.76 134.17C162.21 131.86 159.63 127.18 156.32 127.64Z" fill="#FBF5E6"/>
<path d="M60.39 205.61C83.25 203.68 99.17 227.53 87.82 247.67C76.37 267.98 46.3 266.21 37.21 244.72C29.89 227.42 41.58 207.2 60.39 205.61ZM56.77 209.22C54.46 209.22 50.19 212.04 48.45 213.57C46.52 215.26 41 221.67 41.01 224.13C41.01 225.54 42.62 226.19 43.68 225.34C44.25 224.88 44.94 222.73 45.48 221.87C47.11 219.28 50.71 215.45 53.33 213.89C54.17 213.39 57.84 211.98 58.07 211.67C58.84 210.6 58.17 209.21 56.78 209.21L56.77 209.22ZM81.96 218.06C81.38 218.23 80.74 219.12 80.86 219.76C81.02 220.57 83.07 222.29 83.59 223.29C89.64 234.99 85.3 248.89 73.56 254.75C71.53 255.76 67.23 256.08 65.97 256.99C64.44 258.09 65.49 260.13 67.46 259.93C73.25 259.36 80.72 254.86 84.15 250.22C90.37 241.83 91.2 231.87 86.64 222.4C86 221.07 83.7 217.54 81.97 218.05L81.96 218.06ZM40.23 232.2C38.81 232.42 38.59 234.91 38.64 236.08C38.67 236.98 39.43 241.18 39.77 241.93C40.26 243.04 41.83 243.46 42.48 242.37C43.29 241.01 41.79 237.53 41.74 235.87C41.71 234.9 42.52 231.86 40.24 232.2H40.23Z" fill="#BAE7F8"/>
<path d="M156.32 127.64C159.63 127.19 162.21 131.86 158.76 134.17C154.33 137.13 151.1 128.36 156.32 127.64Z" fill="#080806"/>
<path d="M81.9602 218.06C83.6802 217.56 85.9802 221.08 86.6302 222.41C91.2002 231.88 90.3602 241.84 84.1402 250.23C80.7002 254.86 73.2302 259.36 67.4502 259.94C65.4902 260.13 64.4402 258.1 65.9602 257C67.2202 256.09 71.5202 255.77 73.5502 254.76C85.3002 248.9 89.6302 235 83.5802 223.3C83.0602 222.3 81.0102 220.58 80.8502 219.77C80.7202 219.13 81.3602 218.24 81.9502 218.07L81.9602 218.06Z" fill="#AFD9FA"/>
<path d="M56.77 209.22C58.16 209.22 58.83 210.6 58.06 211.68C57.84 211.99 54.16 213.4 53.32 213.9C50.7 215.46 47.1 219.29 45.47 221.88C44.93 222.74 44.24 224.9 43.67 225.35C42.61 226.19 41.01 225.55 41 224.14C40.99 221.68 46.51 215.27 48.44 213.58C50.18 212.05 54.45 209.23 56.76 209.23L56.77 209.22Z" fill="#FDFEFE"/>
<path d="M40.2302 232.2C42.5102 231.85 41.7002 234.9 41.7302 235.87C41.7802 237.53 43.2802 241.02 42.4702 242.37C41.8202 243.46 40.2502 243.04 39.7602 241.93C39.4202 241.17 38.6702 236.98 38.6302 236.08C38.5902 234.91 38.8102 232.42 40.2202 232.2H40.2302Z" fill="#FDFEFE"/>
</svg>
