<svg width="320" height="258" viewBox="0 0 320 258" fill="none" xmlns="http://www.w3.org/2000/svg">
<path d="M265.901 167.731C267.371 171.421 264.821 175.381 261.271 176.651C255.751 178.621 248.391 173.001 245.611 168.471L240.781 172.401C243.241 175.971 245.241 180.111 246.661 184.221C248.581 189.781 248.631 193.681 247.651 199.481C246.831 204.351 243.911 209.382 241.241 213.471C241.281 214.781 242.031 215.932 242.161 217.262C242.331 218.952 242.001 220.541 241.681 222.171C247.611 221.001 252.421 223.452 254.511 229.132C258.021 238.671 255.121 247.521 245.571 251.602C238.501 254.632 230.971 253.712 224.201 250.322C223.101 249.771 219.961 247.301 219.431 247.171C218.181 246.851 216.101 247.241 214.701 247.111C206.601 246.371 201.851 236.142 204.941 229.042C202.851 227.112 201.661 224.852 201.161 222.031C197.501 219.941 193.781 217.902 190.701 214.982C189.181 213.542 188.821 211.721 186.381 211.852C180.711 212.141 173.411 219.461 168.551 222.211C168.971 223.921 168.291 225.651 167.741 227.271C167.551 227.831 166.951 228.611 166.891 229.061C166.811 229.671 167.281 230.471 167.321 231.171C167.541 235.161 166.711 238.872 164.401 242.161C162.501 244.872 160.181 243.791 157.561 244.921C154.781 246.111 152.121 249.102 149.491 250.762C140.481 256.452 124.821 260.441 115.031 254.921C113.691 254.161 112.831 253.562 112.451 251.982C111.801 249.242 111.621 249.822 110.381 247.572C107.521 242.372 108.091 237.362 111.331 232.512C114.881 227.212 124.891 224.322 130.851 226.251C131.071 225.411 130.601 224.462 130.611 223.732C130.621 222.762 131.091 221.831 130.791 220.671C130.601 219.961 128.901 217.971 128.411 217.061C126.281 213.081 125.101 207.722 124.851 203.232C124.131 203.852 122.441 203.181 121.961 203.361C121.241 203.631 120.081 205.511 118.441 205.811C117.071 206.061 115.681 205.361 115.181 205.441C114.931 205.481 113.861 206.261 113.341 206.461C105.651 209.331 100.551 206.401 100.851 197.971L84.8111 195.311C75.0811 222.791 41.0311 233.271 17.4311 215.561C-17.8089 189.111 4.40106 132.471 48.2311 137.031C71.0111 139.401 88.1511 159.251 87.4711 182.091L100.381 184.511C101.261 181.851 103.791 180.481 105.561 178.521C108.411 175.371 110.551 170.731 111.191 166.531C108.911 167.341 104.081 170.291 104.301 165.751C108.051 160.742 112.161 156.331 114.761 150.551C116.431 146.841 118.281 141.742 119.281 137.801C119.581 136.602 120.351 134.462 119.701 133.441C118.881 132.171 116.911 130.871 116.231 129.231C101.941 126.061 86.6011 118.001 77.4911 106.331C73.2411 100.882 77.3111 94.3915 83.1411 92.5415C86.9011 91.3515 88.4511 92.1215 91.9011 92.1815C92.6311 92.1915 93.3911 91.7815 94.1711 91.9315C92.6811 87.9615 92.3111 82.8915 93.9811 78.9115C94.2311 78.3215 95.0911 77.3415 95.1111 76.9415C95.1311 76.5415 94.7611 76.0915 94.7011 75.6815C94.5011 74.1715 94.3111 72.8015 94.6511 71.3015C88.2311 71.7415 91.2011 66.3915 94.4811 64.2915C94.8811 64.0315 95.6911 63.9415 95.8711 63.7015C96.4411 62.9415 97.0111 59.7515 97.8011 58.7315L102.081 50.9015C88.8011 50.2115 85.9411 39.1615 98.9711 33.7515C102.991 32.0815 107.351 31.5315 111.631 30.9415C113.681 22.6315 119.651 13.1415 126.851 8.38149C135.311 2.78149 152.171 4.8915 161.511 7.6515C168.701 9.7815 174.841 13.1615 181.321 16.7915C187.441 9.70149 193.281 3.5215 202.781 1.3115C213.251 -1.1285 226.251 -0.758507 234.001 7.60149C245.691 20.2015 246.351 40.9715 240.421 56.4615C236.131 67.6715 224.411 74.5815 212.531 73.9215C206.421 73.5815 200.461 70.3715 194.551 70.2915C193.791 70.2815 193.011 70.5315 192.271 70.6715L199.581 80.6215C202.511 77.5915 208.231 78.1315 210.171 82.0415C214.111 81.0315 219.621 81.7515 222.611 84.6915C223.811 85.8715 227.911 92.8915 228.401 93.0515C230.891 93.9015 235.291 90.9615 237.121 89.3815C237.921 88.6815 240.091 86.0715 240.721 85.7815C242.231 85.0815 243.141 86.3715 243.331 87.7115C244.821 97.9315 242.791 104.301 233.831 109.831L229.441 112.031C236.621 114.931 243.641 118.621 249.461 123.791C250.561 124.771 253.331 126.951 251.731 128.451C250.611 129.511 249.431 128.721 248.151 128.941L255.631 139.091C260.101 138.301 264.231 136.602 267.581 133.501C278.331 123.541 281.571 108.471 295.711 101.431C299.401 99.5915 308.771 96.7515 312.721 97.2215C320.041 98.1115 322.811 105.361 314.351 107.831C310.941 108.821 307.161 109.132 303.801 110.471C294.751 114.061 290.621 122.941 285.281 130.331C280.931 136.361 275.581 142.841 268.781 146.091C268.691 146.451 268.831 146.471 269.031 146.671C269.621 147.261 270.461 147.521 271.171 148.371C273.251 150.861 272.541 153.061 270.221 154.961C272.451 155.411 275.921 155.831 277.071 158.071C278.791 161.411 276.761 164.041 274.041 165.861C273.491 166.231 270.791 167.681 270.341 167.681H265.901V167.731ZM191.551 57.1715C189.361 58.9115 183.901 61.7315 181.121 61.5015C179.661 61.3815 179.081 60.0315 179.931 58.8615C180.481 58.1015 184.091 57.6115 185.381 57.1215C188.781 55.8215 192.731 52.2315 194.771 49.2415C195.151 48.6815 196.181 47.0515 196.351 46.5015C196.451 46.1615 196.351 46.0815 196.011 46.1615C194.951 46.4015 193.451 47.1315 192.281 47.4615C190.881 47.8615 186.061 49.7715 186.061 46.9815C186.061 45.8515 188.951 43.9015 189.891 42.9115C191.891 40.8015 194.181 38.0015 194.681 35.1115C190.601 36.0315 189.281 36.0515 190.291 31.5515C191.161 27.6915 193.211 22.0715 195.761 19.0315C201.531 12.1715 214.011 7.52149 222.861 8.2415C226.021 8.5015 229.221 9.89149 232.101 11.1115C232.661 10.5615 228.881 7.4215 228.341 7.0815C220.871 2.3615 210.161 2.70149 201.941 5.05149C191.371 8.07149 182.421 19.4015 177.931 29.0115C175.851 33.4715 174.541 38.3815 171.061 42.0515C169.831 43.3515 168.251 44.8315 166.331 44.6315C163.791 44.3815 158.971 42.1315 156.171 41.3415C145.021 38.1915 132.231 37.0615 120.701 38.4515C117.071 38.8915 114.751 40.8815 112.181 43.3615C109.471 45.9815 105.851 50.9515 103.831 54.2015C103.181 55.2515 99.0211 63.1315 99.4711 63.6315C102.401 63.7015 102.481 66.1215 100.801 67.9615C100.261 68.5515 98.2211 69.5015 98.0911 69.6815C97.5311 70.4515 97.9211 73.6015 97.8011 74.6615C101.831 73.6215 105.971 75.5115 107.031 79.6915C108.021 83.5915 107.481 86.8815 106.671 90.7215C108.931 89.7915 111.331 92.2015 108.701 93.5915C104.651 93.6415 100.571 93.7915 96.5911 94.5615C97.9111 95.8715 98.4311 96.7315 98.5111 98.6315C98.7511 104.371 94.3411 107.881 89.1611 109.071C87.8011 109.381 86.4111 109.391 85.0811 109.791C90.2811 115.111 97.0711 118.961 103.861 121.951C115.421 127.031 125.781 128.561 138.131 125.201C144.981 123.341 154.391 119.161 159.561 114.251C161.211 112.681 162.971 109.861 164.581 108.481C165.011 108.111 165.581 107.921 166.141 108.001C167.721 108.241 167.531 110.061 166.861 111.121C160.781 118.181 153.091 123.301 144.321 126.471C140.991 127.671 137.551 128.291 134.131 129.111C133.871 129.171 133.681 128.941 133.771 129.471C133.881 130.091 135.531 131.361 136.031 132.011C138.421 135.101 140.341 139.071 142.181 142.531C142.741 142.911 144.591 140.781 145.051 140.381C154.601 131.991 160.191 123.081 167.831 113.281C170.851 109.401 176.631 102.571 180.541 99.8515C182.761 98.3115 184.531 98.5615 187.151 98.6415C188.381 98.6815 190.221 98.7915 191.431 98.9215C193.241 99.1215 194.991 100.101 196.861 100.091C197.151 99.8015 196.211 97.2515 196.021 96.7415C195.391 95.1015 193.481 92.3015 193.141 90.9915C191.951 86.4215 198.411 89.2615 200.701 89.0615C200.881 88.9015 198.751 85.3315 198.501 84.9115C196.771 82.0115 194.601 78.6515 192.601 75.9415C191.951 75.0615 189.861 72.2415 189.081 71.7815C187.691 70.9615 184.221 73.2815 182.961 74.0915C182.701 74.2615 182.561 74.6115 182.471 74.6715C181.781 75.1215 180.821 75.6015 180.091 75.0215C177.641 73.0615 183.711 70.0215 185.031 69.4315C189.441 67.4515 192.281 66.9815 197.111 67.4815C199.311 67.7115 202.171 68.1515 204.311 68.6815C206.201 69.1515 208.171 70.2015 210.491 70.5315C234.271 73.9915 243.911 48.6015 240.461 29.0515C238.581 18.4015 231.181 10.9115 219.901 11.3615C212.541 11.6615 201.131 16.0215 197.161 22.5615C196.511 23.6415 193.231 31.1715 193.761 31.7515C194.941 31.5315 196.511 29.8915 197.701 30.0615C198.591 30.1915 199.101 31.2515 199.021 32.0815C198.871 33.6315 196.961 38.8315 196.111 40.2215C195.851 40.6415 193.311 43.5415 193.521 43.7415C195.861 43.7315 197.331 39.5315 199.531 40.2515C201.401 40.8615 199.981 45.7515 199.461 47.1715C198.181 50.6615 194.501 54.8815 191.601 57.1815L191.551 57.1715ZM154.131 9.20149C145.701 7.65149 133.321 6.85149 126.421 12.7915C121.061 17.4015 116.931 24.1015 115.031 30.9015C119.141 31.1315 123.281 31.0415 127.401 31.2515C130.471 31.4115 133.941 31.6015 136.981 31.9815C140.851 32.4715 145.471 34.0815 149.091 34.3815L167.141 41.3015C173.601 35.7115 174.171 26.2515 179.521 19.8315C179.611 19.5815 179.411 19.5315 179.301 19.4015C178.861 18.9015 175.081 16.8515 174.191 16.3515C167.901 12.8615 161.191 10.5015 154.121 9.20149H154.131ZM232.441 11.1215V11.3615C232.601 11.2815 232.601 11.2015 232.441 11.1215ZM134.711 34.6215C123.731 34.2915 110.391 32.2215 100.011 36.7315C88.3211 41.8115 94.9211 48.6615 104.561 47.7615C107.521 44.0815 110.891 39.8415 114.821 37.1515C117.431 35.3715 120.081 35.7815 123.081 35.3315L134.351 35.0915L134.701 34.6115L134.711 34.6215ZM104.251 81.1515C103.171 76.3215 98.3711 76.0115 96.6311 80.8515C95.8511 83.0115 95.4611 90.0215 98.0211 91.1015C98.6811 91.3815 103.001 91.0515 103.311 90.5815C103.641 90.0815 104.751 85.9915 104.491 85.7115C98.8211 88.3315 98.5811 79.5015 104.251 81.1515ZM207.131 83.5415C206.461 80.5515 202.671 82.2615 200.671 82.8315L202.491 85.9315L207.131 83.5415ZM231.361 96.5015C232.421 97.3615 235.381 97.2715 235.201 99.0115C234.081 101.481 230.331 99.3615 228.841 98.1715C222.171 92.8615 222.301 82.3415 210.771 85.1515C209.481 85.4615 204.731 87.3215 204.291 88.5015C204.231 88.6615 204.141 89.0515 204.381 89.0615C205.591 88.9415 206.691 89.5415 207.771 89.9815C211.481 91.4615 218.571 95.4015 220.201 99.1315C221.711 102.591 220.241 105.351 218.881 108.481L223.361 110.121C226.371 109.281 228.991 108.981 231.811 107.391C237.971 103.931 242.051 98.1015 240.461 90.7415L236.121 93.9615C234.881 94.9315 232.901 95.2815 231.651 95.9615C231.371 96.1115 231.241 95.9615 231.351 96.4915L231.361 96.5015ZM163.251 124.561C158.111 131.151 152.821 137.681 146.461 143.151C145.231 144.211 142.551 146.811 140.931 146.281C140.191 146.041 139.331 143.341 138.821 142.381C137.541 139.971 135.761 136.721 134.181 134.551C133.481 133.591 130.061 129.891 129.081 129.861C128.741 129.852 128.311 130.081 127.881 130.081C125.421 130.081 122.971 130.121 120.561 129.591L123.391 133.351C130.201 143.321 135.941 153.501 140.051 164.901C141.811 169.791 143.401 175.042 144.061 180.191C144.391 180.581 151.741 175.191 152.451 174.671C161.541 168.081 163.821 163.781 168.481 153.881C177.421 134.871 187.711 110.271 209.481 103.261C210.621 102.891 211.811 102.321 212.991 102.991C214.471 103.831 213.031 105.511 213.241 105.851L216.101 107.061C218.511 102.921 218.741 100.821 215.061 97.5615C213.861 96.5015 207.351 92.3615 206.091 92.6315C204.851 95.2815 204.091 93.7015 202.591 93.0015C200.901 92.2015 198.921 91.8215 197.061 91.7015C197.821 93.8915 199.031 95.8615 199.631 98.1215C199.911 99.1715 200.641 102.611 200.291 103.441C199.421 105.501 197.251 103.621 195.991 103.201C193.281 102.301 190.211 101.851 187.361 101.761C186.391 101.731 183.661 101.611 182.921 101.901C182.181 102.191 178.961 105.121 178.231 105.841C172.551 111.401 168.111 118.321 163.251 124.551V124.561ZM81.7011 105.611C82.6611 106.221 82.8811 106.471 84.2211 106.561C88.6611 106.871 95.5411 104.371 95.3811 99.0215C95.3311 97.2115 92.3011 95.2315 90.5711 95.0515C88.8411 94.8715 86.0911 94.9815 84.3811 95.4615C79.4011 96.8515 76.6111 102.401 81.6911 105.611H81.7011ZM257.751 146.151C259.061 146.151 260.211 145.361 261.491 145.221C262.461 145.111 263.641 145.361 264.521 145.141C266.611 144.602 272.301 140.431 274.061 138.851C284.751 129.181 289.601 111.961 303.971 107.131C306.141 106.401 315.141 104.821 316.041 103.611C317.351 101.851 312.611 100.401 311.321 100.381C308.991 100.341 302.301 102.391 299.891 103.291C285.701 108.601 282.481 121.821 273.451 132.011C271.321 134.421 268.461 137.531 265.661 139.091C263.071 140.521 260.051 141.331 257.291 142.351L257.741 146.161L257.751 146.151ZM182.921 132.001C180.511 135.971 178.361 139.591 176.401 143.831C169.661 158.441 167.321 168.141 153.421 178.051C151.561 179.382 145.801 183.411 144.001 184.101C140.751 185.351 141.261 180.742 140.881 178.721C140.501 176.701 140.001 174.541 139.441 172.481C139.111 171.261 138.411 168.271 137.891 167.321C137.741 167.041 137.901 166.921 137.351 167.011C136.451 174.711 132.291 181.471 129.911 188.711C127.331 196.561 127.321 203.771 129.911 211.621C131.351 215.971 133.111 219.882 137.421 221.982C143.971 225.172 151.671 225.631 158.691 223.741C164.801 222.091 169.051 217.731 174.201 214.311C177.551 212.091 181.271 209.501 185.311 208.991C185.621 208.691 183.851 206.562 183.591 206.042C182.931 204.742 181.661 201.771 184.111 201.801C184.161 201.841 184.581 201.771 184.811 201.931C185.721 202.541 185.991 204.222 186.561 205.232C187.171 206.322 188.131 207.311 188.911 208.271C195.171 215.991 202.901 220.541 212.851 222.111C229.761 224.771 244.041 210.921 245.031 194.481C245.451 187.501 241.911 180.132 238.171 174.441C236.751 174.932 235.641 176.151 234.101 176.361C229.011 177.051 229.761 171.701 231.011 168.471C231.401 167.451 232.541 166.151 232.221 165.101C232.061 164.581 230.321 161.911 229.881 161.191C227.341 157.072 224.381 153.271 221.571 149.361C221.311 149.001 221.311 148.491 220.951 148.061C219.291 146.101 211.661 144.421 209.061 144.241C208.011 144.161 206.441 144.431 206.211 142.871C205.951 141.091 209.231 141.051 210.371 141.131C219.151 141.771 231.091 150.311 236.881 156.721C237.451 157.352 238.621 158.701 239.041 159.361C239.181 159.581 240.091 161.351 240.141 161.521C240.711 163.601 238.791 163.201 237.761 163.491C237.451 163.581 237.451 163.841 237.361 163.921C236.081 165.011 232.221 171.652 233.151 173.051C234.001 173.622 234.671 172.891 235.201 172.321C235.981 172.191 236.921 171.511 237.361 170.881C237.411 170.811 237.531 170.742 237.601 170.641L245.021 164.751C247.021 164.102 247.441 165.451 248.391 166.801C250.561 169.882 251.111 170.831 254.631 172.561C256.921 173.691 258.911 174.821 261.331 173.141C265.251 170.431 261.941 167.281 259.301 165.371C258.001 164.431 255.061 163.621 255.641 161.701C256.131 160.041 258.191 161.141 259.191 161.531C259.261 161.561 259.361 161.501 259.431 161.531C259.521 161.781 259.681 161.901 259.911 162.011C259.971 162.041 260.081 161.981 260.151 162.011C262.121 164.281 266.971 165.181 269.811 164.591C271.511 164.241 276.731 160.632 273.641 159.191C273.221 158.992 271.061 158.351 270.521 158.231C268.231 157.731 265.481 157.641 263.131 157.681C262.111 157.701 260.501 158.491 260.001 156.981C258.951 153.781 264.371 154.992 265.831 154.391C266.311 154.191 269.261 151.822 269.261 151.331C266.931 147.652 261.691 147.651 258.141 149.571C256.901 150.241 254.491 153.351 253.551 153.351C251.881 153.351 252.141 151.651 251.991 150.731L254.651 147.991C255.421 143.971 252.751 140.111 250.521 136.981C249.221 135.151 246.451 131.261 244.931 129.851C243.931 128.921 242.531 128.962 242.881 127.111C243.141 125.751 244.641 125.851 245.641 125.781C246.001 125.751 246.341 125.971 246.241 125.421C241.191 120.761 234.931 117.561 228.581 115.011C228.151 114.841 227.781 114.671 227.291 114.741C226.251 113.771 213.961 109.781 210.971 108.151C210.421 107.851 209.711 107.091 209.291 106.941C208.791 106.771 206.281 107.981 205.621 108.291C195.041 113.281 188.801 122.321 182.921 132.001ZM107.611 180.921C107.311 181.361 107.331 181.891 106.911 182.261C106.151 182.941 105.291 182.621 104.151 184.061C101.891 186.891 101.271 191.321 103.331 194.431C105.661 197.951 112.211 198.122 111.431 193.051C111.061 190.661 107.781 190.501 107.401 189.141C107.271 188.681 107.571 187.881 107.951 187.621C108.061 187.551 110.181 187.011 110.401 186.991C111.401 186.931 113.941 187.242 115.051 187.391C116.521 187.602 120.561 188.921 121.831 188.551C122.681 188.301 124.251 184.931 124.881 184.041C126.541 181.711 128.681 179.081 130.511 176.841C130.891 176.371 131.471 176.201 131.781 175.721C132.891 174.011 135.321 163.981 135.411 161.831C135.501 159.682 132.031 153.061 130.871 150.951C128.961 147.491 126.641 143.481 124.491 140.181C124.241 139.791 122.891 137.451 122.471 137.761C119.721 147.081 116.401 156.251 109.761 163.541C111.361 163.111 114.881 160.831 114.801 164.241C114.711 168.081 112.431 173.882 110.431 177.161C109.611 178.512 108.481 179.632 107.601 180.921H107.611ZM99.1911 187.421C98.7611 186.921 88.1211 185.691 86.2711 185.111C82.6011 183.962 84.1511 183.261 84.1211 180.071C83.7911 150.681 52.3411 131.391 25.9111 144.421C-1.82894 158.102 -4.33894 197.392 21.6311 214.262C42.8111 228.021 70.0711 219.471 80.5611 196.911C81.1111 195.721 81.9111 192.261 83.0911 192.001L99.9411 194.591C99.0111 192.211 99.2311 189.921 99.2011 187.421H99.1911ZM232.321 156.941C232.391 156.572 232.281 156.381 232.091 156.091C231.721 155.521 228.511 152.691 228.001 153.111C228.471 153.602 230.201 156.751 230.451 156.901C230.821 157.121 231.831 156.861 232.321 156.951V156.941ZM235.161 159.361L232.801 159.821L234.361 162.461C234.841 162.581 235.541 160.941 235.891 160.621L235.161 159.371V159.361ZM126.531 188.811L127.511 185.961L125.601 188.721L126.531 188.811ZM125.581 192.911L125.821 192.101L125.441 191.751L113.611 190.041C113.481 192.781 115.891 191.542 117.801 191.721C118.911 191.822 120.411 192.621 121.171 192.671C121.821 192.711 122.631 192.352 123.561 192.441C124.051 192.492 125.381 193.072 125.581 192.911ZM112.641 203.232C113.851 203.161 115.351 200.831 115.271 199.771C115.231 199.211 114.701 198.921 114.831 198.141C115.151 196.291 117.561 196.861 118.041 198.431C118.491 199.881 117.891 201.411 117.431 202.761C119.061 203.061 119.811 200.441 120.601 200.061C121.981 199.411 123.561 201.091 124.631 200.011C125.071 199.571 124.831 196.691 125.101 195.811C124.471 195.971 124.001 195.411 123.531 195.331C122.581 195.171 121.961 195.901 120.921 195.821C119.991 195.751 119.201 194.851 117.981 194.671C117.301 194.571 114.851 194.551 114.381 194.901C114.191 195.041 113.831 196.631 113.611 197.011C111.711 200.351 107.271 200.551 104.141 198.931C103.221 199.111 104.351 202.131 104.681 202.701C106.131 205.181 110.821 204.951 112.641 203.251V203.232ZM238.801 216.421C238.391 216.311 238.321 216.591 238.081 216.781C236.751 217.811 235.401 219.361 233.981 220.361C229.521 223.521 220.851 225.921 215.421 225.531C211.991 225.291 208.741 223.831 205.561 223.401C204.201 223.211 205.621 225.001 205.951 225.411C210.821 231.611 226.211 229.791 232.491 226.301C233.341 225.821 234.331 224.812 234.981 224.482C235.441 224.242 236.321 224.252 236.581 224.042C236.671 223.971 237.831 222.591 238.081 222.301C239.191 221.021 239.231 218.021 238.791 216.421H238.801ZM139.021 231.771C139.071 231.821 138.961 232.181 139.021 232.251C140.271 233.691 149.741 233.921 151.851 233.691C157.261 233.091 163.571 230.181 165.411 224.701L160.611 226.371C153.341 228.321 146.391 228.572 139.271 226.012C138.201 225.632 137.101 225.251 136.061 224.781C135.371 224.471 134.831 223.762 133.991 223.852C134.031 227.702 135.401 229.691 138.491 231.701C138.651 231.801 138.981 231.712 139.031 231.762L139.021 231.771ZM207.381 230.811C206.561 234.721 208.011 239.931 211.241 242.421C213.811 244.401 215.911 243.502 218.771 243.762C221.631 244.021 223.491 246.471 226.091 247.711C231.891 250.481 238.051 251.141 244.071 248.661C252.411 245.232 254.961 237.081 250.911 229.111C247.231 221.881 237.321 225.822 233.391 230.792C232.681 231.691 232.351 233.291 230.981 233.431C229.481 233.581 229.031 232.331 229.201 231.031C224.631 232.221 219.641 232.511 214.921 232.241C212.271 232.091 209.921 231.392 207.381 230.792V230.811ZM114.801 248.081C115.561 249.401 115.381 250.492 115.811 251.512C116.321 252.712 123.721 254.452 125.221 254.572C131.971 255.102 143.401 251.241 148.931 247.331C151.551 245.481 154.061 242.731 157.191 241.681C158.391 241.281 160.851 241.231 161.581 240.551C161.951 240.211 162.971 238.191 163.211 237.621C163.981 235.771 164.401 234.051 164.201 232.021C163.941 231.751 160.781 234.071 160.201 234.371C154.271 237.421 145.031 237.421 138.781 235.371C137.371 234.911 135.111 233.422 134.001 232.352C133.141 231.521 132.821 230.451 131.711 229.841C127.241 227.391 117.401 229.801 114.361 233.852C111.321 237.902 111.191 242.161 113.591 246.531C113.911 247.111 114.511 247.591 114.801 248.081Z" fill="#040303"/>
<path d="M227.291 114.732C229.161 116.492 231.941 118.402 233.631 120.512C235.761 123.172 237.801 127.532 238.991 130.742C239.201 131.312 240.261 134.372 240.011 134.642C238.611 133.942 236.031 133.682 236.221 135.902C236.331 137.092 238.291 139.642 238.931 140.872C240.871 144.612 241.931 149.152 242.401 153.352C238.131 151.932 236.351 150.902 236.881 156.712C231.101 150.302 219.161 141.772 210.371 141.122C209.231 141.042 205.951 141.082 206.211 142.862C206.441 144.432 208.001 144.162 209.061 144.232C208.701 145.482 209.631 145.492 209.991 146.062C218.551 159.662 218.051 181.302 211.741 195.722C208.671 202.752 201.511 211.142 192.941 209.402C191.471 209.102 190.351 208.292 188.911 208.272C188.131 207.312 187.171 206.312 186.561 205.232C186.001 204.222 185.721 202.542 184.811 201.932C184.581 201.772 184.161 201.842 184.111 201.802C184.041 201.742 184.201 201.212 183.521 201.082C182.951 200.972 182.151 201.062 181.621 201.362C171.861 211.042 159.041 218.272 144.881 217.892C139.831 217.752 133.951 216.502 130.821 212.282C130.561 211.932 130.411 211.642 129.901 211.642C127.311 203.792 127.321 196.582 129.901 188.732C132.281 181.492 136.441 174.732 137.341 167.032C137.891 166.932 137.721 167.062 137.881 167.342C138.401 168.282 139.101 171.282 139.431 172.502C139.981 174.552 140.471 176.652 140.871 178.742C141.271 180.832 140.741 185.372 143.991 184.122C145.791 183.432 151.551 179.402 153.411 178.072C156.641 186.482 166.851 189.842 175.121 187.432C185.661 184.362 192.381 174.822 193.871 164.212C195.721 151.092 192.391 142.322 183.771 132.712C183.511 132.422 183.471 131.972 182.901 132.022C188.781 122.342 195.011 113.302 205.601 108.312C206.261 108.002 208.771 106.782 209.271 106.962C209.701 107.112 210.401 107.872 210.951 108.172C213.941 109.802 226.231 113.782 227.271 114.762L227.291 114.732Z" fill="#D9BA8C"/>
<path d="M98.4913 98.6615C98.4113 96.7615 97.8913 95.9015 96.5713 94.5915C100.551 93.8215 104.621 93.6715 108.681 93.6215C111.311 92.2315 108.911 89.8215 106.651 90.7515C107.461 86.9115 108.001 83.6215 107.011 79.7215C105.951 75.5415 101.811 73.6515 97.7813 74.6915C97.9013 73.6215 97.5113 70.4815 98.0713 69.7115C98.2013 69.5315 100.241 68.5815 100.781 67.9915C102.461 66.1515 102.371 63.7315 99.4513 63.6615C99.0113 63.1715 103.161 55.2915 103.811 54.2315C105.821 50.9815 109.441 46.0015 112.161 43.3915C114.731 40.9115 117.051 38.9215 120.681 38.4815C132.211 37.0915 145.001 38.2315 156.151 41.3715C158.951 42.1615 163.781 44.4015 166.311 44.6615C168.231 44.8515 169.811 43.3715 171.041 42.0815C174.511 38.4115 175.821 33.5015 177.911 29.0415C182.401 19.4315 191.351 8.10154 201.921 5.08154C210.141 2.73154 220.851 2.39154 228.321 7.11154C228.861 7.45154 232.641 10.5915 232.081 11.1415C229.211 9.92154 226.001 8.53154 222.841 8.27154C213.991 7.54154 201.511 12.2015 195.741 19.0615C193.191 22.0915 191.131 27.7115 190.271 31.5815C189.261 36.0715 190.581 36.0615 194.661 35.1415C194.161 38.0315 191.871 40.8315 189.871 42.9415C188.931 43.9315 186.051 45.8815 186.041 47.0115C186.041 49.8015 190.861 47.8815 192.261 47.4915C193.441 47.1615 194.941 46.4315 195.991 46.1915C196.321 46.1115 196.431 46.1915 196.331 46.5315C196.161 47.0815 195.131 48.7115 194.751 49.2715C192.711 52.2615 188.761 55.8515 185.361 57.1515C184.071 57.6515 180.461 58.1315 179.911 58.8915C179.071 60.0615 179.641 61.4115 181.101 61.5315C183.881 61.7715 189.341 58.9415 191.531 57.2015C192.281 61.1315 195.101 64.1615 197.051 67.5115C192.231 67.0215 189.391 67.4815 184.971 69.4615C183.661 70.0515 177.581 73.0915 180.031 75.0515C180.771 75.6415 181.731 75.1515 182.411 74.7015C183.941 78.7215 186.221 82.5315 186.491 86.9315C186.111 87.3415 182.721 84.7615 181.221 85.8615C179.531 87.0915 181.451 89.1715 181.451 90.6515V96.1715C181.451 97.1215 180.661 98.8715 180.491 99.8915C176.571 102.612 170.801 109.452 167.781 113.322C167.921 112.372 167.341 111.842 166.821 111.162C167.491 110.112 167.681 108.282 166.101 108.042C167.231 104.202 169.221 100.352 169.221 96.2915L159.871 100.852C159.551 99.2415 160.501 98.1715 160.901 96.7215C161.681 93.8515 162.161 90.9015 162.031 87.9015L160.741 88.1715C154.311 93.8715 147.041 99.1215 138.891 102.062C131.411 104.752 124.571 104.062 116.861 102.972C110.611 102.092 104.521 100.422 98.4713 98.6915L98.4913 98.6615ZM131.301 52.4415C128.051 52.7515 118.471 55.4315 117.931 59.2215C117.491 62.2915 121.621 61.4815 123.491 61.1815C125.361 60.8815 127.831 60.1615 129.611 59.6215C131.801 58.9615 139.371 56.9715 136.381 53.4415C135.221 52.0715 132.931 52.2815 131.291 52.4315L131.301 52.4415ZM125.061 66.1015C112.531 67.6715 113.101 86.6715 123.861 90.9315C130.881 93.7115 142.631 93.9415 146.991 86.5915C149.231 82.8115 149.291 80.4115 147.051 76.6215C142.821 69.4515 133.321 65.0815 125.071 66.1115L125.061 66.1015Z" fill="#D8B98C"/>
<path d="M99.1912 187.422C99.2212 189.922 99.0112 192.222 99.9312 194.592L83.0812 192.002C81.9012 192.262 81.1012 195.722 80.5512 196.912C70.0612 219.482 42.8012 228.022 21.6212 214.262C-4.34883 197.392 -1.83883 158.092 25.9012 144.422C52.3412 131.392 83.7912 150.672 84.1112 180.072C84.1512 183.262 82.5912 183.972 86.2612 185.112C88.1112 185.692 98.7512 186.922 99.1812 187.422H99.1912ZM43.5312 148.842C18.0012 149.042 3.16117 178.062 17.9512 198.992C31.8112 218.592 62.0512 215.832 72.3212 194.202C82.3012 173.182 66.7812 148.662 43.5312 148.842Z" fill="#566170"/>
<path d="M209.061 144.232C211.651 144.422 219.291 146.092 220.951 148.052C221.311 148.482 221.311 148.992 221.571 149.352C224.391 153.272 227.341 157.062 229.881 161.182C230.321 161.902 232.071 164.572 232.221 165.092C232.531 166.132 231.401 167.442 231.011 168.462C229.761 171.692 229.011 177.042 234.101 176.352C235.651 176.142 236.751 174.922 238.171 174.432C241.901 180.132 245.451 187.492 245.031 194.472C244.041 210.912 229.761 224.752 212.851 222.102C202.901 220.542 195.171 215.982 188.911 208.262C190.351 208.282 191.461 209.092 192.941 209.392C201.511 211.132 208.661 202.742 211.741 195.712C218.041 181.302 218.551 159.652 209.991 146.052C209.631 145.482 208.701 145.472 209.061 144.222V144.232Z" fill="#C0955D"/>
<path d="M98.491 98.6616C104.541 100.392 110.631 102.052 116.881 102.942C124.601 104.032 131.431 104.722 138.911 102.032C147.061 99.1016 154.331 93.8416 160.761 88.1416L162.051 87.8716C162.181 90.8716 161.701 93.8216 160.921 96.6916C160.531 98.1316 159.571 99.2116 159.891 100.822L169.241 96.2616C169.241 100.332 167.251 104.172 166.121 108.012C165.551 107.922 164.991 108.122 164.561 108.492C162.951 109.872 161.191 112.692 159.541 114.262C154.371 119.172 144.971 123.352 138.111 125.212C125.761 128.572 115.401 127.052 103.841 121.962C97.051 118.972 90.261 115.132 85.061 109.802C86.391 109.412 87.781 109.402 89.141 109.082C94.321 107.892 98.731 104.382 98.491 98.6416V98.6616ZM133.931 107.352C133.821 107.232 133.041 106.892 132.881 106.872C132.031 106.812 128.351 109.772 127.201 110.442C123.651 112.532 119.251 114.372 115.141 114.932C113.631 115.132 110.741 114.932 109.521 115.312C107.881 115.812 108.221 118.102 110.361 118.322C113.331 118.642 120.081 117.162 122.961 116.032C125.371 115.092 132.101 111.382 133.771 109.572C134.301 109.002 134.521 107.952 133.941 107.342L133.931 107.352Z" fill="#E7D09B"/>
<path d="M219.851 11.3616C221.991 13.3216 223.511 14.8516 224.931 17.4316C231.991 30.3216 229.351 53.6516 217.941 63.5216C215.921 65.2716 209.451 69.3616 206.841 68.6816C206.471 68.5816 205.581 66.5616 204.271 68.6816C202.141 68.1516 199.271 67.7116 197.071 67.4816C195.131 64.1316 192.301 61.0916 191.551 57.1716C194.441 54.8716 198.121 50.6516 199.411 47.1616C199.931 45.7416 201.351 40.8516 199.481 40.2416C197.281 39.5216 195.821 43.7216 193.471 43.7316C193.261 43.5416 195.811 40.6316 196.061 40.2116C196.911 38.8316 198.821 33.6216 198.971 32.0716C199.051 31.2416 198.541 30.1816 197.651 30.0516C196.461 29.8816 194.891 31.5116 193.711 31.7416C193.181 31.1616 196.461 23.6316 197.111 22.5516C201.071 16.0116 212.481 11.6516 219.851 11.3516V11.3616Z" fill="#F6D5B8"/>
<path d="M153.411 178.052C167.321 168.152 169.661 158.442 176.391 143.832C178.351 139.592 180.501 135.972 182.911 132.002C183.481 131.952 183.521 132.412 183.781 132.692C192.401 142.302 195.731 151.082 193.881 164.192C192.381 174.802 185.671 184.342 175.131 187.412C166.861 189.822 156.641 186.462 153.421 178.052H153.411Z" fill="#E9D19C"/>
<path d="M163.251 124.562C168.111 118.322 172.551 111.412 178.231 105.852C178.971 105.132 182.211 102.192 182.921 101.912C183.631 101.632 186.391 101.742 187.361 101.772C190.211 101.862 193.291 102.312 195.991 103.212C197.251 103.632 199.421 105.522 200.291 103.452C200.641 102.622 199.901 99.1815 199.631 98.1315C199.041 95.8715 197.821 93.8915 197.061 91.7115C198.921 91.8415 200.901 92.2116 202.591 93.0116C204.081 93.7216 204.841 95.2916 206.091 92.6416C207.351 92.3716 213.861 96.5115 215.061 97.5715C218.751 100.832 218.511 102.932 216.101 107.072L213.241 105.862C213.021 105.522 214.471 103.842 212.991 103.002C211.811 102.332 210.621 102.902 209.481 103.272C187.711 110.282 177.421 134.892 168.481 153.892C163.831 163.782 161.551 168.092 152.451 174.682C152.671 172.082 153.721 169.662 154.101 167.092C154.521 164.182 154.601 161.062 154.611 158.132L151.131 161.492L149.341 162.452C157.291 155.482 167.421 140.092 172.251 130.562C172.841 129.402 174.831 125.952 173.081 125.162C170.691 124.092 170.401 127.642 169.681 129.192C168.401 131.962 166.281 134.872 164.691 137.512C164.861 133.152 164.341 128.782 163.251 124.562Z" fill="#1656FB"/>
<path d="M154.131 9.2015C155.541 12.1815 157.991 15.1415 158.391 18.4915C158.971 23.3715 157.701 27.9215 154.811 31.8215C153.171 34.0415 151.881 34.6115 149.101 34.3815C145.471 34.0815 140.851 32.4715 136.991 31.9815C133.951 31.6015 130.481 31.4115 127.411 31.2515C123.301 31.0415 119.151 31.1315 115.041 30.9015C116.941 24.0915 121.071 17.4015 126.431 12.7915C133.331 6.85149 145.711 7.6515 154.141 9.2015H154.131Z" fill="#3486FC"/>
<path d="M164.691 137.512C161.361 143.042 157.811 149.262 153.651 154.172C153.021 154.912 150.721 157.732 149.961 157.662C148.461 157.532 144.851 151.522 143.131 154.202C142.831 154.662 142.751 155.222 142.991 155.732C143.341 156.482 147.441 159.352 147.441 159.932C146.931 161.282 143.681 162.682 143.591 164.032C143.521 165.112 144.551 165.772 145.561 165.522C145.951 165.422 148.781 162.952 149.341 162.452L151.131 161.492L154.611 158.132C154.601 161.072 154.521 164.182 154.101 167.092C153.731 169.662 152.681 172.082 152.451 174.682C151.741 175.192 144.391 180.582 144.061 180.202C143.401 175.052 141.811 169.802 140.051 164.912C135.941 153.512 130.201 143.332 123.391 133.362L120.561 129.602C122.971 130.132 125.421 130.082 127.881 130.092C128.311 130.092 128.741 129.862 129.081 129.872C130.061 129.902 133.481 133.602 134.181 134.562C135.761 136.732 137.551 139.982 138.821 142.392C139.321 143.342 140.181 146.042 140.931 146.292C142.551 146.822 145.241 144.212 146.461 143.162C152.811 137.692 158.111 131.162 163.251 124.572C164.341 128.792 164.861 133.162 164.691 137.522V137.512Z" fill="#3485FB"/>
<path d="M207.381 230.812C209.921 231.412 212.281 232.112 214.921 232.262C219.641 232.532 224.631 232.242 229.201 231.052C229.031 232.352 229.481 233.602 230.981 233.452C232.361 233.312 232.691 231.702 233.391 230.812C237.311 225.842 247.231 221.902 250.911 229.132C254.961 237.102 252.411 245.252 244.071 248.682C238.051 251.162 231.881 250.492 226.091 247.732C223.491 246.492 221.661 244.052 218.771 243.782C215.881 243.512 213.811 244.422 211.241 242.442C208.011 239.952 206.571 234.742 207.381 230.832V230.812Z" fill="#815024"/>
<path d="M204.261 68.6815C205.561 66.5615 206.451 68.5915 206.831 68.6815C209.451 69.3615 215.911 65.2715 217.931 63.5215C229.341 53.6515 231.981 30.3215 224.921 17.4315C223.511 14.8515 221.981 13.3215 219.841 11.3615C231.121 10.9115 238.531 18.4015 240.401 29.0515C243.851 48.6115 234.211 73.9915 210.431 70.5315C208.111 70.1915 206.141 69.1515 204.251 68.6815H204.261Z" fill="#D9A97A"/>
<path d="M149.101 34.3815C151.881 34.6115 153.171 34.0315 154.811 31.8215C157.701 27.9215 158.971 23.3715 158.391 18.4915C157.991 15.1415 155.551 12.1715 154.131 9.20154C161.191 10.5015 167.901 12.8615 174.201 16.3515C175.091 16.8415 178.871 18.9015 179.311 19.4015C179.431 19.5315 179.631 19.5915 179.531 19.8315C174.171 26.2515 173.601 35.7115 167.151 41.3015L149.101 34.3815Z" fill="#1656FB"/>
<path d="M251.991 150.702C252.141 151.622 251.881 153.322 253.551 153.322C254.491 153.322 256.901 150.212 258.141 149.542C261.691 147.622 266.941 147.632 269.261 151.302C269.261 151.782 266.311 154.162 265.831 154.362C264.361 154.962 258.951 153.752 260.001 156.952C260.491 158.462 262.111 157.672 263.131 157.652C265.471 157.612 268.231 157.702 270.521 158.202C271.061 158.322 273.221 158.962 273.641 159.162C276.731 160.602 271.511 164.212 269.811 164.562C266.971 165.142 262.121 164.252 260.151 161.982C261.381 162.472 264.041 163.522 265.281 163.412C267.081 163.252 267.971 162.042 266.151 160.902C264.021 159.572 261.331 159.632 258.951 160.072L259.191 161.512C258.191 161.132 256.141 160.022 255.641 161.682C255.071 163.612 258.001 164.412 259.301 165.352C261.941 167.262 265.241 170.412 261.331 173.122C258.911 174.802 256.921 173.662 254.631 172.542C257.261 168.822 252.431 165.182 248.891 165.362L248.401 166.782C247.451 165.432 247.031 164.082 245.031 164.732L237.611 170.622C238.051 169.932 239.071 167.462 239.031 166.682C238.991 165.822 238.171 164.322 237.371 163.902C237.461 163.822 237.461 163.562 237.771 163.472C238.801 163.182 240.721 163.582 240.151 161.502C240.101 161.332 239.201 159.572 239.051 159.342C239.901 158.172 241.041 159.422 241.801 159.342C243.311 159.202 242.521 154.962 242.411 153.822L245.291 154.542C246.211 152.622 244.481 144.722 248.401 147.002C249.131 147.432 251.891 149.962 252.011 150.712L251.991 150.702Z" fill="#D8A879"/>
<path d="M138.781 235.372C139.821 237.682 139.911 240.372 137.991 242.252C135.961 244.242 132.721 246.132 129.911 247.002C125.391 248.402 119.331 249.652 114.801 248.082C114.511 247.582 113.911 247.112 113.591 246.532C111.181 242.162 111.321 237.892 114.361 233.852C117.401 229.812 127.241 227.392 131.711 229.842C132.821 230.452 133.141 231.522 134.001 232.352C135.111 233.412 137.371 234.912 138.781 235.372Z" fill="#9A6D3F"/>
<path d="M138.781 235.372C145.031 237.412 154.271 237.412 160.201 234.372C160.781 234.072 163.941 231.752 164.201 232.022C164.401 234.062 163.981 235.772 163.211 237.622C162.971 238.202 161.961 240.212 161.581 240.552C160.851 241.222 158.381 241.272 157.191 241.682C154.061 242.732 151.551 245.482 148.931 247.332C143.401 251.242 131.961 255.112 125.221 254.572C123.721 254.452 116.311 252.722 115.811 251.512C115.381 250.492 115.561 249.402 114.801 248.082C119.321 249.652 125.391 248.402 129.911 247.002C132.721 246.132 135.961 244.242 137.991 242.252C139.911 240.372 139.821 237.682 138.781 235.372Z" fill="#815024"/>
<path d="M257.751 146.152L257.301 142.342C260.071 141.322 263.081 140.512 265.671 139.082C268.471 137.532 271.331 134.412 273.461 132.002C282.491 121.812 285.711 108.592 299.901 103.282C302.301 102.382 308.991 100.332 311.331 100.372C312.621 100.392 317.361 101.842 316.051 103.602C315.151 104.812 306.151 106.392 303.981 107.122C289.611 111.962 284.761 129.182 274.071 138.842C272.321 140.432 266.631 144.602 264.531 145.132C263.651 145.362 262.461 145.102 261.501 145.212C260.221 145.362 259.071 146.142 257.761 146.142L257.751 146.152Z" fill="#D6A778"/>
<path d="M231.361 96.5015C231.261 95.9615 231.391 96.1215 231.661 95.9715C232.921 95.2815 234.891 94.9415 236.131 93.9715L240.471 90.7515C242.061 98.1015 237.971 103.932 231.821 107.402C229.001 108.992 226.381 109.292 223.371 110.132L218.891 108.492C220.251 105.352 221.721 102.602 220.211 99.1415C218.581 95.4015 211.491 91.4715 207.781 89.9915C206.691 89.5615 205.601 88.9615 204.391 89.0715C204.151 89.0615 204.241 88.6615 204.301 88.5115C204.741 87.3315 209.491 85.4715 210.781 85.1615C222.311 82.3615 222.181 92.8715 228.851 98.1815C230.331 99.3615 234.081 101.492 235.211 99.0215C235.391 97.2815 232.431 97.3715 231.371 96.5115L231.361 96.5015Z" fill="#1555F9"/>
<path d="M184.111 201.792C181.661 201.762 182.931 204.732 183.591 206.032C183.861 206.562 185.621 208.682 185.311 208.982C181.271 209.502 177.551 212.082 174.201 214.302C169.051 217.722 164.801 222.082 158.691 223.732C151.671 225.632 143.971 225.162 137.421 221.972C133.101 219.872 131.341 215.962 129.911 211.612C130.421 211.612 130.571 211.892 130.831 212.252C133.961 216.462 139.841 217.722 144.891 217.862C159.051 218.242 171.871 211.012 181.631 201.332C182.151 201.032 182.951 200.952 183.531 201.052C184.221 201.182 184.051 201.722 184.121 201.772L184.111 201.792Z" fill="#BF945D"/>
<path d="M227.291 114.732C227.781 114.662 228.151 114.822 228.581 115.002C234.931 117.542 241.181 120.742 246.241 125.412C246.341 125.962 246.001 125.742 245.641 125.772C244.651 125.842 243.141 125.742 242.881 127.102C242.531 128.952 243.931 128.912 244.931 129.842C246.441 131.242 249.211 135.142 250.521 136.972C252.751 140.102 255.421 143.972 254.651 147.982L251.991 150.722C251.871 149.972 249.121 147.442 248.381 147.012C244.461 144.732 246.191 152.642 245.271 154.552L242.391 153.832C242.371 153.672 242.411 153.512 242.391 153.352C241.921 149.162 240.861 144.622 238.921 140.872C238.281 139.642 236.311 137.092 236.211 135.902C236.011 133.682 238.591 133.942 240.001 134.642C240.251 134.382 239.191 131.312 238.981 130.742C237.801 127.532 235.751 123.172 233.621 120.512C231.941 118.402 229.161 116.492 227.281 114.732H227.291Z" fill="#C0955D"/>
<path d="M182.441 74.6716C182.531 74.6116 182.661 74.2616 182.931 74.0916C184.191 73.2816 187.661 70.9616 189.051 71.7816C189.821 72.2316 191.921 75.0616 192.571 75.9416C194.571 78.6516 196.731 82.0116 198.471 84.9116C198.721 85.3316 200.851 88.9016 200.671 89.0616C198.381 89.2516 191.921 86.4216 193.111 90.9916C193.451 92.3016 195.361 95.1016 195.991 96.7416C196.191 97.2616 197.121 99.8016 196.831 100.092C194.971 100.102 193.211 99.1216 191.401 98.9216C190.201 98.7916 188.351 98.6816 187.121 98.6416C184.501 98.5616 182.731 98.3116 180.511 99.8516C180.681 98.8316 181.471 97.0916 181.471 96.1316V90.6116C181.471 89.1316 179.551 87.0516 181.241 85.8216C182.741 84.7216 186.131 87.3016 186.511 86.8916C186.241 82.4916 183.961 78.6816 182.431 74.6616L182.441 74.6716Z" fill="#BF945D"/>
<path d="M130.871 150.942C132.031 153.042 135.501 159.722 135.411 161.822C135.321 163.922 132.881 174.012 131.781 175.712C131.471 176.192 130.891 176.372 130.511 176.832C128.681 179.072 126.541 181.702 124.881 184.032C123.701 180.422 119.741 184.472 117.691 185.132C117.111 185.312 117.261 185.162 116.971 184.752C117.061 184.622 117.041 184.212 117.211 184.032C118.701 182.352 120.001 180.172 121.091 178.192C125.741 169.712 127.881 160.912 130.341 151.692C130.451 151.272 130.191 150.792 130.891 150.932L130.871 150.942Z" fill="#BF945D"/>
<path d="M134.711 34.6216L134.361 35.1016L123.091 35.3416C120.091 35.7916 117.441 35.3816 114.831 37.1616C110.901 39.8516 107.531 44.0816 104.571 47.7716C94.9314 48.6716 88.3314 41.8216 100.021 36.7416C110.401 32.2316 123.741 34.2916 134.721 34.6316L134.711 34.6216Z" fill="#2448C0"/>
<path d="M167.811 113.292C160.171 123.092 154.581 132.002 145.031 140.392C144.401 140.592 144.371 139.372 144.341 139.042C143.941 134.862 143.691 130.632 144.311 126.482C153.091 123.312 160.781 118.192 166.851 111.132C167.371 111.812 167.951 112.342 167.811 113.292Z" fill="#E7D09B"/>
<path d="M238.801 216.422C239.241 218.022 239.201 221.012 238.091 222.302C237.841 222.592 236.681 223.962 236.591 224.042C236.331 224.252 235.451 224.242 234.991 224.482C234.341 224.812 233.351 225.832 232.501 226.302C226.221 229.792 210.831 231.612 205.961 225.412C205.631 224.992 204.211 223.212 205.571 223.402C208.751 223.842 212.001 225.292 215.431 225.532C220.861 225.922 229.541 223.522 233.991 220.362C235.401 219.362 236.751 217.812 238.091 216.782C238.331 216.592 238.401 216.322 238.811 216.422H238.801Z" fill="#7E4E23"/>
<path d="M117.201 184.042C117.031 184.222 117.051 184.632 116.961 184.762C116.521 185.422 114.961 186.322 115.041 187.402C113.931 187.242 111.391 186.932 110.391 187.002C110.171 187.012 108.051 187.552 107.941 187.632C107.561 187.892 107.271 188.692 107.391 189.152C107.761 190.512 111.051 190.672 111.421 193.062C112.211 198.132 105.651 197.962 103.321 194.442C101.261 191.332 101.881 186.902 104.141 184.072C105.281 182.642 106.141 182.952 106.901 182.272C107.321 181.902 107.291 181.372 107.601 180.932C108.311 181.422 108.001 182.302 108.081 182.972C108.121 183.302 107.951 183.392 108.431 183.322L115.091 179.912C118.771 179.022 117.341 181.842 117.191 184.042H117.201Z" fill="#F3D1B5"/>
<path d="M139.261 226.012C146.391 228.572 153.341 228.322 160.601 226.372L165.401 224.702C163.571 230.182 157.251 233.092 151.841 233.692C149.741 233.922 140.261 233.692 139.011 232.252C138.951 232.182 139.061 231.822 139.011 231.772L139.251 226.012H139.261Z" fill="#7E4E23"/>
<path d="M90.581 95.0615C90.831 96.5615 91.3011 98.4615 91.0511 99.9615C90.7711 101.622 88.081 104.432 86.511 105.012C84.941 105.592 83.2411 105.082 81.7111 105.612C76.6211 102.402 79.4211 96.8615 84.4011 95.4615C86.1111 94.9815 88.8211 94.8715 90.5911 95.0515L90.581 95.0615Z" fill="#F29269"/>
<path d="M144.301 126.482C143.681 130.642 143.931 134.862 144.331 139.042C144.361 139.372 144.391 140.592 145.021 140.392C144.571 140.792 142.711 142.922 142.151 142.542C140.311 139.082 138.401 135.112 136.001 132.022C135.501 131.382 133.841 130.102 133.741 129.482C133.651 128.952 133.841 129.192 134.101 129.122C137.531 128.292 140.961 127.682 144.291 126.482H144.301Z" fill="#D8B98C"/>
<path d="M104.251 81.1516C98.5812 79.5016 98.8212 88.3216 104.491 85.7116C104.741 85.9916 103.641 90.0816 103.311 90.5816C103.001 91.0516 98.6812 91.3816 98.0212 91.1016C95.4612 90.0216 95.8512 83.0116 96.6312 80.8516C98.3612 76.0116 103.171 76.3216 104.251 81.1516Z" fill="#FBF5E6"/>
<path d="M113.601 196.992C113.821 196.612 114.181 195.022 114.371 194.882C114.841 194.532 117.291 194.552 117.971 194.652C119.201 194.832 119.991 195.732 120.911 195.802C121.951 195.882 122.571 195.152 123.521 195.312C123.991 195.392 124.461 195.952 125.091 195.792C124.821 196.672 125.061 199.552 124.621 199.992C123.551 201.072 121.971 199.392 120.591 200.042C119.801 200.412 119.051 203.042 117.421 202.742C117.881 201.392 118.481 199.862 118.031 198.412C117.541 196.842 115.141 196.282 114.821 198.122C114.681 198.912 115.221 199.192 115.261 199.752C115.341 200.812 113.831 203.152 112.631 203.212C112.671 203.172 112.671 202.812 112.861 202.612C113.131 202.322 113.541 202.242 113.801 201.872C114.441 200.962 114.761 197.672 113.591 196.982L113.601 196.992Z" fill="#D6A778"/>
<path d="M81.7012 105.612C83.2312 105.082 84.9112 105.612 86.5012 105.012C88.0912 104.412 90.7612 101.622 91.0412 99.9615C91.3012 98.4615 90.8212 96.5515 90.5712 95.0615C92.2912 95.2415 95.3212 97.2115 95.3812 99.0315C95.5412 104.392 88.6612 106.882 84.2212 106.572C82.8812 106.482 82.6612 106.222 81.7012 105.622V105.612Z" fill="#E5623A"/>
<path d="M112.641 203.232C110.821 204.932 106.121 205.162 104.681 202.682C104.351 202.122 103.211 199.102 104.141 198.912C107.271 200.532 111.701 200.332 113.611 196.992C114.791 197.682 114.471 200.972 113.821 201.882C113.561 202.252 113.141 202.332 112.881 202.622C112.691 202.822 112.701 203.192 112.651 203.222L112.641 203.232Z" fill="#F3D1B5"/>
<path d="M124.871 184.042C124.241 184.932 122.671 188.302 121.821 188.552C120.551 188.932 116.511 187.612 115.041 187.392C114.961 186.312 116.521 185.412 116.961 184.752C117.251 185.162 117.101 185.312 117.681 185.132C119.741 184.472 123.691 180.422 124.871 184.032V184.042Z" fill="#D6A778"/>
<path d="M242.401 153.342C242.421 153.502 242.381 153.662 242.401 153.822C242.511 154.972 243.301 159.212 241.791 159.342C241.031 159.412 239.891 158.162 239.041 159.342C238.621 158.682 237.451 157.332 236.881 156.702C236.351 150.892 238.131 151.922 242.401 153.342Z" fill="#F6D5B8"/>
<path d="M237.601 170.612C237.531 170.712 237.411 170.782 237.361 170.852C236.861 171.032 235.921 171.242 235.541 171.562C235.231 171.822 235.261 172.222 235.201 172.292C234.671 172.862 233.991 173.602 233.151 173.022C232.221 171.622 236.081 164.992 237.361 163.892C238.171 164.302 238.991 165.812 239.021 166.672C239.051 167.442 238.041 169.922 237.601 170.612Z" fill="#F3D1B5"/>
<path d="M254.631 172.532C251.111 170.802 250.561 169.852 248.391 166.772L248.881 165.352C252.431 165.172 257.261 168.812 254.621 172.532H254.631Z" fill="#F3D1B5"/>
<path d="M139.261 226.012L139.021 231.772C138.971 231.732 138.641 231.812 138.481 231.712C135.391 229.702 134.021 227.701 133.981 223.861C134.821 223.761 135.351 224.482 136.051 224.792C137.081 225.262 138.191 225.642 139.261 226.022V226.012Z" fill="#9A6D3F"/>
<path d="M260.141 161.982C260.071 161.952 259.961 162.012 259.901 161.982C259.811 161.742 259.661 161.592 259.421 161.502C259.351 161.472 259.251 161.532 259.181 161.502L258.941 160.062C261.321 159.622 264.021 159.562 266.141 160.892C267.961 162.032 267.071 163.252 265.271 163.402C264.031 163.512 261.371 162.462 260.141 161.972V161.982Z" fill="#F6D5B8"/>
<path d="M207.131 83.5416L202.491 85.9316L200.671 82.8316C202.681 82.2516 206.471 80.5416 207.131 83.5416Z" fill="#1555F9"/>
<path d="M125.581 192.912C125.371 193.062 124.051 192.482 123.561 192.442C122.631 192.352 121.821 192.712 121.171 192.672C120.401 192.622 118.901 191.832 117.801 191.722C115.891 191.542 113.481 192.782 113.611 190.042L125.441 191.752L125.821 192.102L125.581 192.912Z" fill="#566170"/>
<path d="M232.321 156.942C231.831 156.852 230.821 157.112 230.451 156.892C230.211 156.752 228.471 153.592 228.001 153.102C228.501 152.692 231.721 155.522 232.091 156.082C232.281 156.372 232.391 156.562 232.321 156.932V156.942Z" fill="#C0955D"/>
<path d="M237.361 170.852C236.921 171.482 235.981 172.162 235.201 172.292C235.271 172.222 235.231 171.822 235.541 171.562C235.921 171.242 236.861 171.032 237.361 170.852Z" fill="#D8A879"/>
<path d="M259.901 161.982C259.671 161.872 259.511 161.752 259.421 161.502C259.661 161.592 259.811 161.742 259.901 161.982Z" fill="#D8A879"/>
<path d="M232.441 11.1216C232.601 11.2016 232.601 11.2816 232.441 11.3616V11.1216Z" fill="#D8B98C"/>
<path d="M130.871 150.942C130.171 150.802 130.431 151.282 130.321 151.702C127.861 160.922 125.721 169.732 121.071 178.202C119.991 180.182 118.681 182.352 117.191 184.042C117.351 181.842 118.781 179.022 115.091 179.912L108.431 183.322C107.941 183.382 108.121 183.302 108.081 182.972C108.001 182.302 108.311 181.412 107.601 180.932C108.481 179.642 109.611 178.512 110.431 177.172C112.441 173.892 114.711 168.092 114.801 164.252C114.881 160.842 111.361 163.112 109.761 163.552C116.401 156.262 119.721 147.082 122.471 137.772C122.881 137.462 124.231 139.802 124.491 140.192C126.641 143.492 128.961 147.502 130.871 150.962V150.942Z" fill="#D8B98C"/>
<path d="M125.061 66.1016C133.311 65.0716 142.811 69.4416 147.041 76.6116C149.281 80.4016 149.221 82.8016 146.981 86.5816C142.631 93.9316 130.871 93.7016 123.851 90.9216C113.101 86.6616 112.531 67.6716 125.051 66.0916L125.061 66.1016ZM126.261 69.2216C120.601 69.8416 118.651 73.7016 119.121 79.1016C119.541 83.8616 121.961 87.1916 126.601 88.4116C132.751 90.0316 141.951 90.4516 144.821 83.4616C145.881 80.8916 145.671 80.2916 144.251 77.9516C140.861 72.3716 132.751 68.5016 126.261 69.2116V69.2216Z" fill="#080806"/>
<path d="M131.301 52.4416C132.941 52.2816 135.231 52.0816 136.391 53.4516C139.381 56.9816 131.811 58.9716 129.621 59.6316C127.841 60.1616 125.301 60.8916 123.501 61.1916C121.701 61.4916 117.501 62.3016 117.941 59.2316C118.481 55.4416 128.061 52.7616 131.311 52.4516L131.301 52.4416Z" fill="#040303"/>
<path d="M43.5311 148.842C66.7811 148.662 82.3011 173.182 72.3211 194.202C62.0511 215.832 31.8111 218.592 17.9511 198.992C3.15108 178.062 18.0011 149.042 43.5311 148.842ZM40.8811 152.452C22.0711 154.042 10.3811 174.262 17.7011 191.562C26.7911 213.062 56.8711 214.822 68.3111 194.512C79.6611 174.372 63.7411 150.522 40.8811 152.452Z" fill="#040606"/>
<path d="M133.931 107.352C134.511 107.962 134.291 109.002 133.761 109.582C132.101 111.392 125.371 115.102 122.951 116.042C120.081 117.162 113.321 118.642 110.351 118.332C108.211 118.102 107.871 115.812 109.511 115.322C110.731 114.952 113.621 115.152 115.131 114.942C119.241 114.382 123.641 112.542 127.191 110.452C128.341 109.772 132.021 106.812 132.871 106.882C133.041 106.892 133.811 107.242 133.921 107.362L133.931 107.352Z" fill="#080806"/>
<path d="M149.341 162.462C148.781 162.952 145.951 165.432 145.561 165.532C144.551 165.782 143.521 165.112 143.591 164.042C143.681 162.702 146.931 161.292 147.441 159.942C147.441 159.362 143.341 156.502 142.991 155.742C142.751 155.232 142.841 154.682 143.131 154.212C144.851 151.532 148.461 157.542 149.961 157.672C150.721 157.732 153.031 154.922 153.651 154.182C157.811 149.272 161.351 143.042 164.691 137.522C166.281 134.882 168.411 131.972 169.681 129.202C170.391 127.662 170.691 124.102 173.081 125.172C174.841 125.962 172.841 129.412 172.251 130.572C167.421 140.102 157.291 155.502 149.341 162.462Z" fill="#01050B"/>
<path d="M126.261 69.2215C132.751 68.5115 140.861 72.3815 144.251 77.9615C145.671 80.3015 145.881 80.8915 144.821 83.4715C141.951 90.4615 132.751 90.0415 126.601 88.4215C121.961 87.2015 119.541 83.8715 119.121 79.1115C118.641 73.7115 120.601 69.8515 126.261 69.2315V69.2215ZM136.811 74.4815C131.581 75.2015 134.821 83.9815 139.251 81.0115C142.701 78.7015 140.121 74.0215 136.811 74.4815Z" fill="#FBF5E6"/>
<path d="M40.8812 152.452C63.7412 150.522 79.6612 174.372 68.3112 194.512C56.8612 214.822 26.7912 213.052 17.7012 191.562C10.3812 174.262 22.0712 154.042 40.8812 152.452ZM37.2612 156.062C34.9512 156.062 30.6812 158.882 28.9412 160.412C27.0112 162.102 21.4912 168.512 21.5012 170.972C21.5012 172.382 23.1112 173.032 24.1712 172.182C24.7412 171.722 25.4312 169.572 25.9712 168.712C27.6012 166.122 31.2012 162.292 33.8212 160.732C34.6612 160.232 38.3312 158.822 38.5612 158.512C39.3312 157.442 38.6612 156.052 37.2712 156.052L37.2612 156.062ZM62.4512 164.902C61.8712 165.072 61.2312 165.962 61.3512 166.602C61.5112 167.412 63.5612 169.132 64.0812 170.132C70.1312 181.832 65.7912 195.732 54.0512 201.592C52.0212 202.602 47.7212 202.922 46.4612 203.832C44.9312 204.932 45.9812 206.972 47.9512 206.772C53.7412 206.202 61.2112 201.702 64.6412 197.062C70.8612 188.672 71.6912 178.712 67.1312 169.242C66.4912 167.912 64.1912 164.382 62.4612 164.892L62.4512 164.902ZM20.7212 179.042C19.3012 179.262 19.0812 181.752 19.1312 182.922C19.1612 183.822 19.9212 188.022 20.2612 188.772C20.7512 189.882 22.3212 190.302 22.9712 189.212C23.7812 187.852 22.2812 184.372 22.2312 182.712C22.2012 181.742 23.0112 178.702 20.7312 179.042H20.7212Z" fill="#BAE7F8"/>
<path d="M136.811 74.4815C140.121 74.0315 142.701 78.7015 139.251 81.0115C134.821 83.9715 131.591 75.2015 136.811 74.4815Z" fill="#080806"/>
<path d="M62.4514 164.902C64.1714 164.402 66.4714 167.922 67.1214 169.252C71.6914 178.722 70.8514 188.682 64.6314 197.072C61.1914 201.702 53.7214 206.202 47.9414 206.782C45.9814 206.972 44.9314 204.942 46.4514 203.842C47.7114 202.932 52.0114 202.612 54.0414 201.602C65.7914 195.742 70.1214 181.842 64.0714 170.142C63.5514 169.142 61.5014 167.422 61.3414 166.612C61.2114 165.972 61.8514 165.082 62.4414 164.912L62.4514 164.902Z" fill="#AFD9FA"/>
<path d="M37.2612 156.062C38.6512 156.062 39.3212 157.442 38.5512 158.522C38.3312 158.832 34.6512 160.242 33.8112 160.742C31.1912 162.302 27.5912 166.132 25.9612 168.722C25.4212 169.582 24.7312 171.742 24.1612 172.192C23.1012 173.032 21.5012 172.392 21.4912 170.982C21.4812 168.522 27.0012 162.112 28.9312 160.422C30.6712 158.892 34.9412 156.072 37.2512 156.072L37.2612 156.062Z" fill="#FDFEFE"/>
<path d="M20.7214 179.042C23.0014 178.692 22.1914 181.742 22.2214 182.712C22.2714 184.372 23.7714 187.862 22.9614 189.212C22.3114 190.302 20.7414 189.882 20.2514 188.772C19.9114 188.012 19.1614 183.822 19.1214 182.922C19.0814 181.752 19.3014 179.262 20.7114 179.042H20.7214Z" fill="#FDFEFE"/>
</svg>
