<svg width="360" height="360" viewBox="0 0 360 360" fill="none" xmlns="http://www.w3.org/2000/svg">
<path d="M211.3 82.5C216.42 80.68 221.75 79.43 227.24 79.87C236.96 80.65 250.54 87.64 256.75 95.21C259.91 99.07 263.64 109.45 264.9 114.4C266.9 122.27 264.12 131.85 260.47 138.86C263.81 138.86 268.47 143.83 268.81 146.96C268.87 147.51 268.62 148.51 268.73 148.69C268.87 148.92 269.83 149.36 270.18 149.66C278.56 156.94 282.01 169.05 274.25 178.19C272.27 180.52 271.2 177.08 270.19 176.03C268.08 173.84 264.6 172.82 261.67 172.44L265.68 186.06C266.86 190.89 267.98 195.79 268.79 200.7C269.82 206.91 270.4 213.08 270.46 219.4C273.15 222.12 277.56 222.94 281.25 223.5C295.69 225.69 307.98 220.28 320.3 231.46C326.35 236.95 327.41 247.21 325.39 254.77C323.27 262.73 315.87 272.03 306.86 271.76C304.25 271.68 301.45 268.13 302.45 265.65C302.89 264.58 305.63 262.2 306.66 261.47C307.16 261.12 307.8 261.06 308.3 260.71C309.9 259.59 313.99 255.21 314.75 253.49C317.27 247.77 312.71 237.07 306.98 234.69C305.63 234.13 301.39 232.97 299.88 232.68C295.65 231.86 291.42 233.18 287.19 233.37C280.91 233.65 275 232.47 269.09 230.49C266.72 243.71 263.97 258.19 254.46 268.27C259.13 272.3 255.03 276.38 251.63 279.35C251.47 280.61 251.71 281.87 251.85 283.1C252.74 290.93 256.23 299.09 249.05 305.31C241.39 311.95 227.41 314.26 218.07 310.4C216.29 309.66 216.12 309.05 215.71 307.24C214.33 301.1 214.71 293.21 219.19 288.4C220.14 287.38 221.24 286.98 222.06 286.24C222.28 286.04 222.39 286 222.31 285.65C220.21 285.87 216.46 281.36 216.13 279.72C215.97 278.94 216.28 277.55 215.95 277.02C215.73 276.65 212.46 275.02 211.72 274.53C209.4 272.97 207.06 270.68 205.15 268.63C204.75 268.19 204.16 266.97 203.71 266.92C198.9 267.72 194.84 270.87 191 273.66C191.08 276.49 189.89 278.94 188.05 281.01C188.31 282.25 188.85 283.44 189.1 284.68C190.44 291.54 189.52 297.94 183.93 302.56C179.55 306.18 172.54 305.04 167.18 306.44C161.82 307.84 156.6 312.13 151.12 313.17C146.79 313.99 134.79 313.53 130.86 311.49C129.51 310.79 128.27 309.06 127.76 307.64C126.74 304.83 127.31 299.47 127.97 296.5C130.34 285.87 142.37 278.4 152.98 279.9C151.34 278.19 151.95 274.79 151.17 273.2C150.98 272.81 149.92 271.81 149.53 271.24C147.78 268.69 146.07 266.1 145.01 263.17L142.54 262.46C141.87 263.03 141.3 263.49 140.39 263.6C135.5 264.19 133.29 261.93 132.35 257.36L121.35 259.78C122.07 274.6 115.96 289.3 104.17 298.36C79.2098 317.55 44.5598 303.67 37.2598 273.91C32.2398 253.46 41.7198 231.26 60.9698 222.3C83.4798 211.82 108.63 222.95 117.97 245.26L128.29 244.89C128.4 240.63 128.02 236.32 128.56 232.09C129.4 225.5 131.61 218.79 133.32 212.38C133.4 211.79 131.99 212.06 131.39 211.92C130 211.61 128.94 210.89 129.29 209.32C129.57 208.06 134.16 204.74 135.36 203.39C139.86 198.36 142.13 191.6 145.26 185.71C145.48 185.3 146.14 184.81 146.17 184.57C146.2 184.33 145.82 182.63 145.63 182.5C139.83 181.41 133.94 179.43 128.52 177.12C126.18 176.12 123.83 175.02 121.72 173.6C120.12 172.53 117.11 169.68 115.56 168.97C114.7 168.58 112.1 168.96 110.91 168.82C104.8 168.11 103.13 162.57 106.16 157.65C107.4 155.63 111.18 152.28 113.24 151.06C115.3 149.84 117.88 148.82 120.35 148.94C118.19 139.54 117.96 129.77 120.18 120.35C121.16 116.17 122.63 111.83 124.66 108.04C124.73 107.56 124.64 107.73 124.31 107.69C120.46 107.19 115.05 109.18 111.44 106.89C109.14 105.43 109.27 103.27 111.25 101.6C113.81 99.45 117.96 97.04 121.07 95.83C125.07 94.28 129.97 93.16 134.25 92.82C134.31 91.42 134.68 90.04 135.04 88.69C137.62 78.98 140.29 68.93 149.84 63.91C163.73 56.61 179.66 58.17 194.27 62.42C200 64.09 209.97 70.48 211.18 76.69C211.56 78.65 211.12 80.51 211.25 82.5H211.3ZM181.8 63.08C170.67 61.25 160.57 61.32 150.55 67.2C143.13 71.55 139.39 82.56 137.78 90.65C137.7 91.05 137.39 91.69 138.02 91.61C140.66 91.3 143.66 90.08 146.46 89.73C155.72 88.56 165.78 88.99 175.09 89.46C181.31 89.77 187.29 89.88 193.39 91.34C197.74 88.09 202.7 85.85 207.71 83.83L207.91 83.55C208.37 80.04 208.74 77.02 206.39 74.11C199.99 66.17 191.25 64.63 181.8 63.08ZM206.26 136.71C204.59 135.77 205.51 135.53 204.93 134.56C204.54 133.91 203.31 133.9 204.04 132.22C204.77 130.54 210.41 129.65 212.14 129.52C214.26 129.37 215.76 129.82 217.77 130.23C217.11 126.08 214.19 122.78 210.34 121.24C209.74 121 208.82 121.12 208.29 120.65C207.2 119.69 207.83 118 209.28 117.77C212.48 117.27 216.83 118.15 219.94 118.95C218.99 114.67 216.53 110.63 212.33 108.94C210.58 108.24 208.4 108.64 208.96 105.94C209.58 102.97 212.85 96.9 215.14 94.85C217.09 93.11 223.62 89.84 226.17 89.1C231.32 87.6 237.69 87.76 242.96 88.5L240.97 87.26C225.21 78.76 206.91 85.25 193.57 95.11C179.36 97.81 165.17 101.49 150.92 104.26C145.1 105.39 138.34 106.89 132.5 107.42C131.13 107.54 129.73 107.37 128.36 107.48C127.33 110.11 125.89 112.55 124.97 115.24C124.65 116.18 122.53 123.2 122.82 123.52C125.33 122.94 127.69 121.09 130.09 120.36C132.07 119.75 134.09 120.04 133.56 122.63C132.89 125.93 124.49 127.78 121.86 129.4V137.67L123.35 134.72C126.07 129.95 131.65 125.47 137.47 126.98C141.14 127.94 142.34 134.21 141.36 137.37C140.05 141.59 137.65 145.03 133.46 146.74C128.97 148.57 126.08 147.02 122.82 143.9C122.96 145.06 123.11 148.04 123.84 148.88C124.16 149.25 126.55 149.55 127.39 150.01C129.48 151.15 129.75 154.47 129.54 156.62C128.96 162.47 123.68 165.38 118.99 167.77C121.94 169.78 124.42 171.95 127.7 173.45C145.47 181.58 159.61 182.58 177.59 174.33C182.82 171.93 186.81 169 191.29 165.48C192.26 164.72 193.1 163.17 194.54 163.33C195.3 163.41 195.55 164.12 196.11 164.52C197.33 165.41 198.62 166.25 199.82 167.17C200.63 167.78 204.98 171.94 205.81 171.24C207.1 166.85 206.74 162.62 205.79 158.2C205.55 157.1 204.68 156.39 205.47 155.19C205.95 154.47 206.64 154.34 207.42 154.64C208.73 155.14 210.77 157.09 212.06 157.91C213.27 158.68 214.61 159.31 215.88 159.97C216.16 159.59 215.04 151.71 214.85 150.57C214.29 147.22 213.49 143.48 212.42 140.29C211.92 138.79 207.66 137.47 206.29 136.7L206.26 136.71ZM245.12 92.58C236.75 89.43 227.24 91.14 219.69 95.57C215.98 97.75 213.36 101.45 212.78 105.73C217 107.17 219.56 110.02 221.5 113.91C222.54 116 224.23 120.05 223.11 122.24C221.72 124.95 218.69 121.03 216.58 121.35C219.12 124.04 220.87 127.66 221.31 131.37C221.42 132.31 221.64 133.47 220.91 134.19C219.38 135.71 218.71 133.98 217.54 133.46C214.77 132.23 211.3 132.55 208.42 133.21C208.09 133.29 207.1 133.49 206.99 133.81C213.89 134.86 217.47 141.52 222.58 145.45C223.32 146.02 224.06 146.31 224.74 146.77C230 150.27 233.89 151.8 240.45 151.09C242.25 150.9 248.17 146.94 249.9 145.67C254.8 142.08 257.75 138.13 259.94 132.44C263.55 123.07 262.54 115.51 258.98 106.41C258.44 105.04 255.6 98.89 254.85 98.07C252.83 95.86 247.97 93.63 245.13 92.56L245.12 92.58ZM175.56 92.34C166.88 91.9 157.72 91.79 149.06 92.58C143.23 93.11 135.61 95.18 129.79 96.58C123.6 98.07 117.92 99.9 113.2 104.33C113.71 104.98 119.6 104.86 120.77 104.82C131.46 104.46 140.88 103.13 151.34 101.1C160.26 99.36 169.1 97.11 177.96 95.22C180.64 94.65 183.41 94.37 186.04 93.57C186.43 93.45 186.72 93.76 186.6 93.06C182.93 92.87 179.24 92.53 175.57 92.34H175.56ZM128.31 133.11C125.34 136.24 122.61 141.53 127.91 143.94C131.17 145.43 135.14 142.78 136.75 139.98C138.72 136.55 139.27 133.97 137.22 130.37C135.98 130.33 134.94 129.63 133.78 129.8C132.4 129.99 130.47 131.15 129.52 132.15C129.36 132.22 128.43 132.66 128.38 132.7C128.25 132.81 128.35 133.08 128.32 133.11H128.31ZM265.74 147.26C264.84 144.17 261.98 141.59 258.69 141.5L254.99 145.74L256.06 147.97C259.12 146.26 262.44 146.79 265.75 147.27L265.74 147.26ZM218.25 163.81C215.95 164.42 211.57 160.83 209.38 159.97C209.72 162.87 209.95 165.74 209.55 168.66C209.39 169.87 208.41 173.89 207.58 174.61C205.97 176.02 203.31 173.87 201.86 172.88C200.07 171.66 197.49 168.9 195.84 168.11C195.55 167.97 195.35 167.8 194.98 167.89C194.89 168.64 194.54 169.45 194.22 170.13C190.6 177.85 185.75 184.87 181.3 192.11C176.85 199.35 172.45 206.12 168.32 213.3C166.23 215.23 164.79 212.54 165.84 210.58C166.26 209.79 167.25 210.38 166.86 208.35C166.53 206.65 164.92 203.52 164.27 201.58C162.23 195.46 161.28 188.93 157.82 183.38L148.92 182.99L165.95 252.06C166.51 252.2 166.34 251.95 166.5 251.76C170.34 246.9 173.7 240.34 176.98 235.03C179.12 231.57 181.61 228.29 183.58 224.72C194.3 205.26 203.18 180.56 218.23 164.04C221.34 160.63 225.05 157.62 228.94 155.2C229.28 154.99 231.18 154.2 231.18 154.08C231.18 153.63 230.9 153.62 230.59 153.47C229.52 152.94 228.05 152.64 226.94 152.09C225.41 151.33 222.67 149.64 221.27 148.64C219.72 147.54 218.55 145.99 217.03 144.85C217.18 147.17 217.86 149.42 218.2 151.72C218.54 154.02 219.57 160.66 219.09 162.62C218.99 163.01 218.61 163.7 218.23 163.8L218.25 163.81ZM252.55 147.74L244.64 152.89C245.65 153.67 246.96 153.87 248.08 154.49C249.51 155.28 252.23 157.97 253.29 158.4C253.76 158.59 254.23 158.56 254.72 158.53C255.29 154.83 254.15 151.07 252.56 147.74H252.55ZM273.17 174.36C275.41 171.09 275.72 167.61 275.33 163.69C274.9 159.42 269.41 151.87 265.33 150.43C263.6 149.82 258.7 149.42 257.34 150.73C256.77 151.28 257.75 154.32 257.82 155.3C257.97 157.31 257.82 160.2 256.13 161.54C257.69 163.68 258.79 167.27 260.96 168.7C263.13 170.13 265.62 169.89 267.95 170.82L273.16 174.35L273.17 174.36ZM118.96 152.3C115.32 152.84 111.91 155.6 109.6 158.41C106.98 161.6 107.03 165.22 111.76 165.73C115.69 166.15 120.47 163.97 123.39 161.41C126.12 159.01 126.74 156.34 125.88 152.82C124.84 153.01 124.27 152.16 123.41 152.05C122.02 151.87 120.29 152.1 118.96 152.3ZM211.3 270.06C229.65 285.43 250.8 274.7 259.47 255.04C266.4 239.33 268.46 218.23 265.66 201.43C264.1 192.04 259.43 171.39 253.84 164.08C253.32 163.39 252.21 162.65 251.85 161.99C251.61 161.55 251.68 161.02 251.52 160.76C251.29 160.4 247.12 157.41 246.48 157.05C243.7 155.47 240.7 154.75 237.56 154.46C236.45 154.36 235.21 154.53 234.09 154.47C234.06 154.78 234.09 155.12 233.97 155.42C233.45 156.75 228.88 158.54 227.54 159.49C227.24 159.7 226.61 160.58 226.17 160.94C215.73 169.3 208.21 183.29 201.95 195C199.09 200.34 196.51 205.77 193.76 211.16C187.96 222.53 182.18 233.16 175.33 243.93C172.5 248.38 169.12 252.53 166.7 257.25C166.04 257.94 165.12 258.07 164.42 257.35L155.66 223.78C155.02 229.52 152.19 234.67 150.55 240.14C148.51 246.95 145.87 258.04 149.05 264.56C152.81 272.28 157.35 273.37 165.25 275.1C170.24 276.19 175.81 277.21 180.78 275.64C188.5 273.21 194.19 265.4 202.42 263.82C201.34 260.17 199.9 256.56 199.3 252.79C199.12 251.68 198.63 247.91 198.98 247.09C199.33 246.27 200.94 246.36 201.47 247.15C202.07 248.05 202.4 253.09 202.78 254.72C204.32 261.35 206.06 265.69 211.3 270.07V270.06ZM169.09 206.02C173.26 199.75 176.94 193.17 180.89 186.76C184.32 181.18 188.52 175.99 190.91 169.81C187.03 172.77 182.9 175.35 178.44 177.36C173.07 179.78 166.78 181.82 160.94 182.52C160.69 182.76 162.49 185.76 162.74 186.36C164.2 189.86 164.82 193.35 165.92 196.85C166.89 199.94 168.09 202.95 169.1 206.02H169.09ZM147.98 191.87C147.79 191.21 147.75 190.15 147.5 189.34C147.4 189 147.65 188.92 147.02 188.99C143.48 195.94 140.5 204.14 133.83 208.66L136.36 209.12C136.56 209.31 136.82 209.52 136.89 209.78C137.34 211.36 135.59 215.41 135.09 217.23C133.24 224 131.61 230.62 131.42 237.67C131.31 241.83 131.05 247.12 132.65 250.95C133.34 252.6 134.24 254.59 136.21 254.94C136.56 254.62 136.08 248.35 136.21 247.14C136.52 244.37 137.7 244.95 139.81 245.1C141.76 245.24 142.31 245.53 144.37 244.74C145.6 244.27 146.72 243.75 146.75 242.32C146.79 239.62 146.77 237.8 147.25 235.03C147.68 232.56 148.34 229.88 149.23 227.53C150.04 225.39 153.11 220.51 153.27 218.85C153.89 212.34 151.81 207.07 150.3 200.92C149.53 197.78 148.87 194.97 147.98 191.85V191.87ZM115.88 248.43C107.2 223.07 76.3498 212.62 54.6998 229.66C30.2598 248.89 35.1198 289.69 64.2798 301.35C91.3898 312.18 118.25 290.73 118.5 262.74C118.51 261.59 118.05 260.4 118.22 259.13C118.27 258.72 118.57 258.84 118.69 258.59C118.8 258.36 118.71 258 118.93 257.69C119.72 256.55 129.09 254.71 130.94 254.71L128.52 247.78L115.87 248.43H115.88ZM269.86 227.09C276.1 229.94 282.8 230.58 289.61 230C292.88 229.73 295.57 228.92 298.94 229.31C300.86 229.54 306.31 230.95 308.1 231.67C315.41 234.61 320.88 247.32 317.77 254.56C316.86 256.68 312.62 261.48 310.72 262.86C309.76 263.55 305.28 265.94 305.6 267.24C306.17 269.56 309.9 268.34 311.48 267.7C318.26 264.98 322.86 256.11 323.32 249.08C323.61 244.53 322.12 237.45 318.76 234.2C307.79 223.59 295.12 228.52 281.73 226.62C277.92 226.08 273.4 225.18 270.19 223.05L269.87 227.09H269.86ZM145.34 247.76C143.2 248.48 141.33 248.54 139.1 248.24L139.34 251.84C140.71 251.17 143.53 253.12 144.37 252.69C145.01 252.36 145.37 248.65 145.33 247.77L145.34 247.76ZM144.39 255.91C142.47 256.26 141.33 254.49 139.36 254.96C139.36 256.83 138.02 258.65 135.99 258.31C136.02 260.38 138.4 260.89 140.08 260.36C140.76 260.15 141.14 259.24 141.92 259.07C142.7 258.9 143.52 259.39 143.99 259.25C144.73 259.02 144.25 256.6 144.39 255.91ZM226.41 280.13C224.15 279.82 221.64 278.79 219.56 278.47C219.3 278.43 218.8 278.33 218.98 278.81C219.05 278.99 221.02 281.6 221.25 281.82C222.82 283.32 225.61 283.12 227.61 282.77C228.16 283.67 228.79 282.8 229.64 282.53C232.8 281.5 234.44 282.07 237.07 281.57C237.82 281.43 238.29 281.17 239.37 280.99C243.72 280.27 246.11 279.23 249.75 276.74C250.77 276.05 253.77 273.24 253.41 271.98C253.29 271.57 252.76 270.62 252.23 270.82C251.7 271.02 248.53 274.19 247.62 274.86C241.52 279.33 233.89 281.17 226.4 280.14L226.41 280.13ZM167.17 284.69C174.33 285.45 179.55 284.95 184.92 279.78C185.83 278.9 187.31 277.33 187.2 276.06C184.79 277.55 181.83 278.93 179.02 279.39C176.21 279.85 171.79 279.55 168.86 279.18C164.24 278.59 159 276.87 154.71 275.1C154.85 280.16 161.42 283.91 165.89 284.67C166.33 284.74 166.77 284.65 167.18 284.7L167.17 284.69ZM237.2 307.71C240.69 306.78 243.37 305.76 246.3 303.5C252.42 298.77 250.07 291.87 248.99 285.49C248.75 284.04 248.64 282.55 248.47 281.09C246.11 282.25 243.99 283.51 241.27 283.73C242.91 286.26 238.68 289.38 238.19 286.43C238.03 285.44 239.09 285.06 237.02 284.75C234.69 284.4 233.31 284.76 231.2 285.41C228.46 286.26 225.62 287.45 223.25 289.1C217.35 293.22 217.61 300.66 218.72 307.08C220.92 307.92 222.9 308.98 225.32 309.17C229.75 309.52 233.02 308.84 237.2 307.72V307.71ZM161.65 305.32C167.82 302.6 170.98 302.91 177.33 301.93C185.14 300.73 187.41 292.72 186.04 285.84C185.88 285.02 185.69 284.27 185.39 283.49C184.3 284.19 183.36 285.09 182.2 285.69C176.7 288.51 169.78 288.8 163.81 287.33C160.75 286.57 159.36 285.06 156.9 284.04C145.75 279.43 132.18 287.69 130.71 299.44C130.37 302.14 129.72 307.29 132.69 308.72C135.66 310.15 145.02 310.62 148.54 310.32C152.84 309.94 157.7 307.05 161.64 305.31L161.65 305.32Z" fill="#020202"/>
<path d="M129.51 156.62C129.72 154.47 129.45 151.15 127.36 150.01C126.52 149.55 124.13 149.25 123.81 148.88C123.09 148.04 122.94 145.06 122.79 143.9C126.04 147.03 128.93 148.58 133.43 146.74C137.62 145.03 140.02 141.59 141.33 137.37C142.31 134.2 141.11 127.93 137.44 126.98C131.62 125.46 126.04 129.95 123.32 134.72L121.83 137.67V129.4C124.45 127.78 132.85 125.92 133.53 122.63C134.06 120.05 132.04 119.75 130.06 120.36C127.67 121.1 125.31 122.94 122.79 123.52C122.5 123.2 124.62 116.17 124.94 115.24C125.86 112.56 127.3 110.11 128.33 107.48C129.7 107.37 131.1 107.55 132.47 107.42C138.31 106.89 145.07 105.39 150.89 104.26C165.15 101.49 179.33 97.8099 193.54 95.1099C206.88 85.2499 225.19 78.7599 240.94 87.2599L242.93 88.4999C237.66 87.7599 231.3 87.5999 226.14 89.0999C223.58 89.8499 217.06 93.1099 215.11 94.8499C212.82 96.8999 209.55 102.97 208.93 105.94C208.37 108.64 210.55 108.24 212.3 108.94C216.5 110.64 218.97 114.67 219.91 118.95C216.8 118.14 212.45 117.27 209.25 117.77C207.81 118 207.17 119.69 208.26 120.65C208.79 121.12 209.71 121 210.31 121.24C214.16 122.78 217.08 126.08 217.74 130.23C215.73 129.81 214.22 129.36 212.11 129.52C210.38 129.65 204.72 130.57 204.01 132.22C203.3 133.87 204.51 133.91 204.9 134.56C205.48 135.53 204.55 135.77 206.23 136.71C206.26 137.67 206.91 138.34 207.18 139.24C207.54 140.48 208.56 149.68 208.15 150.14C206.37 149.91 203.88 146.71 202.58 149.25C201.8 150.78 202.14 155.61 201.88 157.67C201.57 160.22 200.8 163.54 200.24 166.1C200.15 166.5 200.17 166.93 199.75 167.17C198.55 166.26 197.26 165.42 196.04 164.52C195.49 164.12 195.23 163.41 194.47 163.33C195.24 159.25 197.27 155.12 197.59 150.98C197.77 148.57 197.62 146.08 197.83 143.67C197.24 143.04 193.87 146.42 193.25 146.89C192.69 147.31 188.87 149.96 188.6 149.91C188.33 149.86 188.22 149.38 188.23 149.09C188.27 148.47 189.14 146.58 189.32 145.61C189.4 145.16 189.67 143.64 189.67 143.32V137.68C189.09 137.63 188.66 137.68 188.14 137.95C187.19 138.44 185.12 140.44 183.99 141.23C176.02 146.8 169.36 151.11 159.87 153.81C149.88 156.65 141.62 157.44 131.26 156.87C130.65 156.84 130.08 156.59 129.47 156.62H129.51ZM161.6 110.16C160.35 110.27 156.4 110.94 155.36 111.35C152.92 112.32 154.76 115.12 156.61 115.73C158.8 116.45 160.4 115.74 162.49 115.61C164.4 115.49 170.08 115.59 171.37 114.42C172.19 113.67 172.08 112.96 171.48 112.13C169.93 109.96 164.05 109.94 161.6 110.16ZM151.9 140.22C156.89 144.97 168.47 145.12 174.37 142.11C184.75 136.8 185.7 123.86 174.6 119.09C165.86 115.33 155.05 115.79 150.1 125.04C147.9 129.15 148.39 136.89 151.9 140.23V140.22Z" fill="#D9BA8C"/>
<path d="M226.17 160.93C226.62 160.57 227.25 159.69 227.54 159.48C228.88 158.54 233.45 156.75 233.97 155.41C234.09 155.11 234.06 154.77 234.09 154.46C235.21 154.52 236.45 154.34 237.56 154.45C240.7 154.74 243.7 155.46 246.48 157.04C247.12 157.4 251.3 160.39 251.52 160.75C251.68 161.01 251.62 161.54 251.85 161.98C252.21 162.64 253.32 163.38 253.84 164.07C259.43 171.38 264.09 192.03 265.66 201.42C268.46 218.23 266.4 239.32 259.47 255.03C250.79 274.69 229.65 285.43 211.3 270.05C213.13 269.9 214.79 270.48 216.63 270.23C222.05 269.49 227.37 263.73 228.56 258.54C229.34 259.31 231.87 260.99 232.94 260.89C234.96 260.7 236.22 257.72 236 255.9C241.16 259.42 245.03 256.72 242.96 250.62C244.8 252.75 249.19 252.3 249.66 249.29C250.18 245.94 248.31 243.45 246.84 240.63C245.13 237.35 242.47 233.17 242.25 229.4C242.16 227.82 242.3 226.07 242.25 224.36C242.09 218.91 242.14 213.5 242.49 208.06C243.11 198.49 245.05 188.76 245.38 179.29C245.45 177.27 245.75 170.13 243.46 169.42C240.79 168.6 242.2 173.47 242.27 174.71C242.65 182.25 241.05 191.31 240.34 198.94C239.4 209.09 239.02 218.09 239.38 228.32C237.76 228.62 238.47 229.95 238.32 230.73C238.19 231.4 236.28 236.74 236.01 236.94C234.61 236.94 233.7 235.45 232.43 235.04C232.35 234.8 232.02 234.55 231.95 234.32C228.07 221.14 230.68 208.2 231 194.88C231.22 185.47 229.19 174.24 227.32 164.96C227.05 163.6 226.73 162.21 226.19 160.93H226.17Z" fill="#B9884E"/>
<path d="M231.93 234.32C230.49 234.01 228.94 232.21 227.61 233.71C226.67 234.77 226.66 238.62 226.65 240.07C226.49 240.29 222.62 237.37 222.03 237.14C221.68 237 221.13 236.74 220.9 237.2C219.37 232.49 217.65 227.49 217.53 222.46C217.49 220.67 218.73 215.35 215.31 216.38C214.87 216.51 214.74 217.15 214.18 217.05C214.96 212.53 216.18 208.03 216.79 203.47C217.44 198.64 217.52 193.72 218.02 188.87C218.21 187.04 218.8 185.02 218.96 183.32C219.08 182.06 218.62 181.2 217.3 181.17C216.08 181.51 215.7 183.77 215.5 184.9C214.43 190.75 214.53 197.46 213.68 203.47C212.83 209.48 211.25 215.28 210.17 221.19C210.78 223.71 212.93 222.75 214.43 221.6C214.65 225.56 215.3 229.44 216.32 233.26C217.04 235.97 219.67 241.71 219.88 243.81C220.21 247.23 219.56 250.71 220.23 254.53C220.99 258.85 224.05 260.09 226.79 256.37C227.57 256.91 227.97 257.92 228.59 258.53C227.4 263.72 222.08 269.48 216.66 270.22C214.82 270.47 213.16 269.89 211.33 270.04C206.1 265.66 204.35 261.32 202.81 254.69C202.43 253.06 202.1 248.02 201.5 247.12C200.97 246.33 199.35 246.28 199.01 247.06C198.66 247.88 199.15 251.65 199.33 252.76C193.71 254.8 190.42 260.08 186.14 263.92C181.86 267.76 174.18 273.3 168.72 274.08C167.62 274.24 165.58 273.6 165.27 275.07C157.37 273.34 152.83 272.25 149.07 264.53C145.89 258 148.53 246.92 150.57 240.11C152.21 234.64 155.04 229.49 155.68 223.75L164.44 257.32C165.14 258.04 166.06 257.91 166.72 257.22C169.14 252.5 172.52 248.35 175.35 243.9C176.61 245.54 178.86 246.67 180.86 247.14C188.47 248.92 194.31 245.24 199.21 239.83C205.66 232.71 206.82 226.16 206.53 216.67C206.46 214.24 206.19 211.44 205.58 209.22C205.24 207.98 205.29 206.53 205.01 205.24C204.32 202.01 203.36 198.89 202.56 195.69C202.46 195.29 202.59 194.84 201.97 194.98C208.24 183.27 215.76 169.28 226.19 160.92C226.73 162.2 227.05 163.59 227.32 164.95C229.18 174.23 231.22 185.46 231 194.87C230.68 208.19 228.07 221.14 231.95 234.31L231.93 234.32Z" fill="#D9BA8C"/>
<path d="M115.88 248.43L128.53 247.78L130.95 254.71C129.1 254.71 119.73 256.55 118.94 257.69C118.72 258.01 118.81 258.37 118.7 258.59C118.58 258.84 118.28 258.72 118.23 259.13C118.06 260.4 118.52 261.6 118.51 262.74C118.26 290.73 91.3999 312.18 64.2899 301.35C35.1199 289.7 30.2599 248.9 54.7099 229.66C76.3599 212.62 107.21 223.06 115.89 248.43H115.88ZM77.4199 231.52C53.4199 232.17 39.6199 259.06 52.1899 279.4C64.4699 299.28 94.0299 298.49 105.1 277.9C116.34 256.99 101.51 230.87 77.4299 231.52H77.4199Z" fill="#576271"/>
<path d="M129.51 156.62C130.12 156.59 130.69 156.84 131.3 156.87C141.67 157.44 149.93 156.65 159.91 153.81C169.4 151.11 176.05 146.8 184.03 141.23C185.16 140.44 187.23 138.44 188.18 137.95C188.7 137.68 189.13 137.63 189.71 137.68V143.32C189.71 143.64 189.45 145.16 189.36 145.61C189.18 146.59 188.31 148.47 188.27 149.09C188.25 149.39 188.36 149.85 188.64 149.91C188.92 149.97 192.73 147.31 193.29 146.89C193.91 146.43 197.28 143.05 197.87 143.67C197.66 146.08 197.81 148.58 197.63 150.98C197.32 155.12 195.28 159.25 194.51 163.33C193.08 163.18 192.24 164.72 191.26 165.48C186.78 168.99 182.79 171.93 177.56 174.33C159.57 182.57 145.44 181.58 127.67 173.45C124.39 171.95 121.91 169.78 118.96 167.77C123.65 165.38 128.93 162.46 129.51 156.62ZM180.06 160.87C181.29 159.71 180.01 158.03 178.69 157.69C174.6 156.62 166.37 158.67 162.53 160.49C161.23 161.1 156.11 163.45 158.31 165.36C159.52 166.42 161.42 164.36 162.65 163.72C165.99 161.98 173.7 159.66 177.32 160.5C178.03 160.66 179.04 161.83 180.07 160.87H180.06Z" fill="#E9D19C"/>
<path d="M245.12 92.58C245.79 94.48 247.39 95.88 248.43 97.54C256.07 109.77 251.75 131.67 240.68 140.78C236.07 144.57 230.81 146.84 224.74 146.78C224.06 146.33 223.32 146.04 222.58 145.46C217.48 141.53 213.89 134.87 206.99 133.82C207.1 133.49 208.09 133.29 208.42 133.22C211.3 132.55 214.77 132.23 217.54 133.47C218.71 133.99 219.38 135.72 220.91 134.2C221.64 133.47 221.42 132.32 221.31 131.38C220.87 127.67 219.12 124.06 216.58 121.36C218.69 121.04 221.72 124.96 223.11 122.25C224.23 120.06 222.55 116.01 221.5 113.92C219.55 110.03 216.99 107.18 212.78 105.74C213.37 101.46 215.98 97.76 219.69 95.58C227.23 91.14 236.75 89.44 245.12 92.59V92.58Z" fill="#F7D5B8"/>
<path d="M181.8 63.08C182.12 64.18 183.31 64.72 183.92 65.64C185.9 68.62 185.85 74.51 184.96 77.87C183.58 83.06 179.26 86.51 175.09 89.47C165.78 89 155.72 88.57 146.46 89.74C143.67 90.09 140.66 91.31 138.02 91.62C137.39 91.69 137.7 91.05 137.78 90.66C139.39 82.57 143.14 71.57 150.55 67.21C160.57 61.32 170.68 61.26 181.8 63.09V63.08Z" fill="#3586FE"/>
<path d="M177 235.04C173.72 240.35 170.35 246.91 166.52 251.77C166.37 251.96 166.52 252.21 165.97 252.07L148.94 183L157.84 183.39C161.3 188.95 162.25 195.47 164.29 201.59C164.93 203.53 166.55 206.66 166.88 208.36C167.27 210.38 166.28 209.8 165.86 210.59C164.81 212.55 166.25 215.24 168.34 213.31C172.47 206.12 176.99 199.17 181.32 192.12L180.59 202.06C180.87 204.13 180.03 206.85 181.08 208.67C177.81 213.41 174.66 218.25 171.12 222.82C170.61 222.93 170.8 222.61 170.7 222.29C170.37 221.25 170 219.57 168.94 219.01C168.02 218.53 166.89 218.55 166.55 219.69C166.18 220.92 167.09 221.11 167.46 221.93C168.04 223.2 167.99 224.63 169.05 225.61C168.85 227.08 164.82 230.52 167.17 231.57C168.2 232.03 169.07 231.24 169.67 230.48C172.02 227.49 174.72 222.81 177 219.46C177.05 220.61 176.93 221.79 177 222.95C177.02 223.26 177.25 223.57 177.25 223.66V230.14C177.25 230.23 177.01 230.54 177 230.85C176.94 232.25 177.06 233.66 177 235.06V235.04Z" fill="#3486FD"/>
<path d="M218.25 163.81V164.05C203.2 180.57 194.32 205.27 183.6 224.73C181.63 228.3 179.14 231.58 177 235.04C177.05 233.65 176.93 232.23 177 230.83C177.01 230.52 177.25 230.21 177.25 230.12V223.64C177.25 223.55 177.02 223.24 177 222.93C176.94 221.77 177.06 220.6 177 219.44C182.09 211.97 187.11 204.44 192.54 197.21C193.03 195.07 191.12 194.19 189.7 195.81C186.98 200.19 184 204.41 181.08 208.65C180.03 206.84 180.87 204.12 180.59 202.04L181.32 192.1C185.77 184.86 190.61 177.84 194.24 170.12C194.56 169.44 194.91 168.63 195 167.88C195.36 167.8 195.56 167.96 195.86 168.1C197.52 168.89 200.1 171.65 201.88 172.87C203.32 173.86 205.99 176.01 207.6 174.6C208.42 173.88 209.4 169.86 209.57 168.65C209.97 165.74 209.74 162.86 209.4 159.96C211.59 160.82 215.97 164.41 218.27 163.8L218.25 163.81Z" fill="#0B46FD"/>
<path d="M201.95 194.99C202.57 194.86 202.44 195.3 202.54 195.7C203.35 198.9 204.3 202.02 204.99 205.25C205.27 206.55 205.22 207.99 205.56 209.23C206.17 211.44 206.43 214.25 206.51 216.68C206.8 226.17 205.64 232.71 199.19 239.84C194.29 245.26 188.45 248.94 180.84 247.15C178.84 246.68 176.59 245.55 175.33 243.91C182.19 233.13 187.96 222.51 193.76 211.14C196.5 205.76 199.09 200.32 201.95 194.98V194.99Z" fill="#E9D19C"/>
<path d="M163.81 287.33C162.97 288.97 161.63 290.24 160.89 291.96C158.99 296.37 158.77 301.31 161.65 305.31C157.71 307.05 152.85 309.94 148.55 310.32C145.03 310.63 135.8 310.21 132.7 308.72C129.6 307.23 130.38 302.14 130.72 299.44C132.19 287.68 145.76 279.43 156.91 284.04C159.36 285.06 160.75 286.57 163.82 287.33H163.81Z" fill="#89572B"/>
<path d="M224.73 146.78C230.8 146.84 236.06 144.57 240.67 140.78C251.75 131.68 256.06 109.77 248.42 97.54C247.38 95.88 245.78 94.47 245.11 92.58C247.96 93.65 252.81 95.87 254.83 98.09C255.58 98.91 258.42 105.07 258.96 106.43C262.52 115.53 263.53 123.09 259.92 132.46C257.73 138.14 254.78 142.09 249.88 145.69C248.15 146.96 242.23 150.91 240.43 151.11C233.87 151.82 229.98 150.29 224.72 146.79L224.73 146.78Z" fill="#D39C66"/>
<path d="M175.08 89.4599C179.25 86.4999 183.57 83.0599 184.95 77.8599C185.84 74.4999 185.9 68.6199 183.91 65.6299C183.3 64.7099 182.12 64.1699 181.79 63.0699C191.23 64.6199 199.98 66.1599 206.38 74.0999C208.73 77.0099 208.36 80.0299 207.9 83.5399L207.7 83.8199C202.69 85.8399 197.73 88.0799 193.38 91.3299C187.28 89.8699 181.3 89.7599 175.08 89.4499V89.4599Z" fill="#0B47FD"/>
<path d="M175.56 92.34C175.88 93.55 177.72 93.89 177.96 95.22C169.11 97.11 160.26 99.36 151.34 101.1C140.88 103.14 131.45 104.46 120.77 104.82C119.6 104.86 113.71 104.98 113.2 104.33C117.92 99.9 123.6 98.07 129.79 96.58C135.6 95.18 143.23 93.12 149.06 92.58C157.71 91.79 166.88 91.9 175.56 92.34Z" fill="#254AC5"/>
<path d="M131.43 237.68C131.61 230.63 133.24 224.01 135.1 217.24C135.6 215.42 137.35 211.36 136.9 209.79C136.82 209.52 136.57 209.31 136.37 209.13L133.84 208.67C140.51 204.16 143.5 195.95 147.03 189C147.66 188.93 147.41 189.01 147.51 189.35C147.75 190.16 147.8 191.22 147.99 191.88C146.96 192.66 148.03 194.4 148.01 195.6C147.92 202.35 146.18 210.39 145.38 217.22C144.58 224.05 144.36 231.63 142.71 238.66L142.47 238.9C141.4 237.7 141.6 234.22 139.69 234.1C137.78 233.98 134.9 238.93 133.71 240.33L131.43 237.7V237.68Z" fill="#D9BA8C"/>
<path d="M231.21 285.41C237.7 286.85 239.67 294.56 239.12 300.4C238.84 303.35 236.41 304.92 237.21 307.72C233.03 308.84 229.76 309.52 225.33 309.17C222.91 308.98 220.94 307.93 218.73 307.08C217.62 300.66 217.36 293.22 223.26 289.1C225.62 287.45 228.46 286.26 231.21 285.41Z" fill="#89572B"/>
<path d="M161.65 305.32C158.77 301.31 158.98 296.38 160.89 291.97C161.63 290.25 162.97 288.98 163.81 287.34C169.78 288.81 176.7 288.53 182.2 285.7C183.36 285.1 184.31 284.2 185.39 283.5C185.69 284.27 185.88 285.03 186.04 285.85C187.41 292.73 185.13 300.75 177.33 301.94C170.98 302.91 167.82 302.6 161.65 305.33V305.32Z" fill="#754118"/>
<path d="M169.09 206.02C168.07 202.95 166.87 199.93 165.91 196.85C164.81 193.35 164.19 189.86 162.73 186.36C162.48 185.76 160.68 182.76 160.93 182.52C166.77 181.82 173.06 179.77 178.43 177.36C182.9 175.35 187.02 172.77 190.9 169.81C188.5 175.99 184.31 181.18 180.88 186.76C176.94 193.17 173.26 199.75 169.08 206.02H169.09Z" fill="#E8D09C"/>
<path d="M269.86 227.09L270.18 223.05C273.39 225.17 277.92 226.07 281.72 226.62C295.11 228.52 307.77 223.59 318.75 234.2C322.12 237.45 323.61 244.53 323.31 249.08C322.86 256.11 318.25 264.98 311.47 267.7C309.89 268.34 306.15 269.56 305.59 267.24C305.27 265.93 309.75 263.55 310.71 262.86C312.61 261.49 316.85 256.68 317.76 254.56C320.87 247.32 315.4 234.61 308.09 231.67C306.31 230.95 300.86 229.54 298.93 229.31C295.57 228.91 292.88 229.72 289.6 230C282.8 230.57 276.09 229.93 269.85 227.09H269.86Z" fill="#D19B65"/>
<path d="M273.17 174.36L267.96 170.83C265.63 169.9 263.08 170.11 260.97 168.71C258.86 167.31 257.7 163.68 256.14 161.55C257.83 160.21 257.98 157.32 257.83 155.31C257.76 154.33 256.78 151.29 257.35 150.74C258.71 149.43 263.61 149.83 265.34 150.44C269.42 151.88 274.92 159.43 275.34 163.7C275.73 167.62 275.42 171.1 273.18 174.37L273.17 174.36Z" fill="#0B46FD"/>
<path d="M199.31 252.79C199.91 256.56 201.35 260.17 202.43 263.82C194.2 265.4 188.51 273.21 180.79 275.64C175.82 277.2 170.25 276.19 165.26 275.1C165.57 273.63 167.61 274.27 168.71 274.11C174.17 273.33 182.03 267.63 186.13 263.95C190.23 260.27 193.7 254.84 199.32 252.79H199.31Z" fill="#B9884E"/>
<path d="M231.21 285.41C233.32 284.76 234.7 284.39 237.03 284.75C239.1 285.07 238.04 285.44 238.2 286.43C238.69 289.38 242.92 286.26 241.28 283.73C243.99 283.51 246.12 282.25 248.48 281.09C248.65 282.55 248.76 284.04 249 285.49C250.07 291.88 252.43 298.77 246.31 303.5C243.38 305.76 240.7 306.78 237.21 307.71C236.41 304.91 238.85 303.34 239.12 300.39C239.67 294.56 237.7 286.84 231.21 285.4V285.41Z" fill="#754118"/>
<path d="M206.26 136.71C207.63 137.48 211.88 138.79 212.39 140.3C213.46 143.49 214.26 147.23 214.82 150.58C215.01 151.72 216.13 159.6 215.85 159.98C214.58 159.32 213.25 158.69 212.03 157.92C210.73 157.1 208.69 155.14 207.39 154.65C206.6 154.35 205.91 154.48 205.44 155.2C204.64 156.4 205.52 157.11 205.76 158.21C206.71 162.63 207.07 166.86 205.78 171.25C204.95 171.95 200.6 167.79 199.79 167.18C200.21 166.94 200.19 166.51 200.28 166.11C200.84 163.54 201.61 160.23 201.92 157.68C202.17 155.62 201.84 150.79 202.62 149.26C203.92 146.72 206.41 149.92 208.19 150.15C208.6 149.69 207.58 140.49 207.22 139.25C206.96 138.35 206.3 137.67 206.27 136.72L206.26 136.71Z" fill="#B9884E"/>
<path d="M147.26 235.04C145.68 236.01 144.57 238.21 142.7 238.64C144.35 231.61 144.53 224.35 145.37 217.2C146.21 210.05 147.91 202.34 148 195.58C148.02 194.38 146.95 192.64 147.98 191.86C148.87 194.98 149.53 197.79 150.3 200.93C151.81 207.07 153.89 212.35 153.27 218.86C153.11 220.52 150.04 225.39 149.23 227.54C148.35 229.89 147.69 232.57 147.25 235.04H147.26Z" fill="#B9884E"/>
<path d="M142.47 238.88C142.56 240.9 141.14 242.63 141.27 244.64C140.55 244.38 140.18 244.35 139.83 245.12C137.72 244.97 136.54 244.38 136.23 247.16C136.1 248.37 136.58 254.64 136.23 254.96C134.26 254.61 133.36 252.61 132.67 250.97C131.07 247.15 131.33 241.86 131.44 237.69L133.72 240.32C134.91 238.92 137.76 233.97 139.7 234.09C141.64 234.21 141.41 237.68 142.48 238.89L142.47 238.88Z" fill="#F6D4B7"/>
<path d="M129.51 132.15C130.46 131.15 132.39 130 133.77 129.8C134.93 129.64 135.97 130.34 137.21 130.37C139.27 133.96 138.72 136.55 136.74 139.98C135.13 142.78 131.17 145.42 127.9 143.94C122.61 141.53 125.33 136.23 128.3 133.11C128.54 134.04 128.12 135.04 128.35 136.06C129.2 139.78 135.86 136.45 133.3 132.79C132.31 131.38 130.91 131.59 129.5 132.15H129.51Z" fill="#FDF7E8"/>
<path d="M118.96 152.3C121.01 155.26 120.31 159.46 118.12 162.14C116.53 164.09 113.92 164.6 111.76 165.73C107.03 165.22 106.98 161.6 109.6 158.41C111.9 155.6 115.32 152.84 118.96 152.3Z" fill="#F3936A"/>
<path d="M218.25 163.81C218.63 163.71 219.01 163.02 219.11 162.63C219.59 160.67 218.56 154.08 218.22 151.73C217.88 149.38 217.2 147.19 217.05 144.86C218.57 146 219.74 147.55 221.29 148.65C222.69 149.65 225.43 151.34 226.96 152.1C228.08 152.65 229.55 152.96 230.61 153.48C230.92 153.63 231.2 153.64 231.2 154.09C231.2 154.22 229.3 155 228.96 155.21C225.07 157.63 221.36 160.63 218.25 164.05V163.81Z" fill="#0B46FC"/>
<path d="M167.17 284.69L168.57 283.33L168.85 279.17C171.78 279.55 176.14 279.85 179.01 279.38C181.88 278.91 184.79 277.54 187.19 276.05C187.31 277.31 185.82 278.89 184.91 279.77C179.54 284.95 174.32 285.45 167.16 284.68L167.17 284.69Z" fill="#754118"/>
<path d="M118.96 152.3C120.28 152.1 122.02 151.87 123.41 152.05C124.27 152.16 124.84 153 125.88 152.82C126.74 156.34 126.12 159.01 123.39 161.41C120.48 163.98 115.7 166.16 111.76 165.73C113.91 164.6 116.53 164.09 118.12 162.14C120.3 159.46 121.01 155.26 118.96 152.3Z" fill="#E9562D"/>
<path d="M168.85 279.17L168.57 283.33L167.17 284.69C166.76 284.65 166.32 284.74 165.88 284.66C161.41 283.9 154.84 280.15 154.7 275.09C158.99 276.86 164.23 278.57 168.85 279.17Z" fill="#89572B"/>
<path d="M226.41 280.13C233.9 281.16 241.53 279.32 247.63 274.85C248.54 274.19 251.71 271.01 252.24 270.81C252.77 270.61 253.3 271.56 253.42 271.97C253.78 273.23 250.77 276.03 249.76 276.73C246.12 279.22 243.73 280.26 239.38 280.98C238.3 281.16 237.83 281.41 237.08 281.56C234.45 282.07 232.81 281.49 229.65 282.52C228.79 282.8 228.16 283.66 227.62 282.76C227.13 281.95 226.49 281.09 226.42 280.12L226.41 280.13Z" fill="#754118"/>
<path d="M252.55 147.74C254.14 151.07 255.28 154.83 254.71 158.53C254.22 158.56 253.76 158.59 253.28 158.4C252.22 157.98 249.5 155.29 248.07 154.49C246.95 153.87 245.65 153.67 244.63 152.89L252.54 147.74H252.55Z" fill="#0B46FC"/>
<path d="M265.74 147.26C262.43 146.78 259.11 146.25 256.05 147.96L254.98 145.73L258.68 141.49C261.98 141.58 264.83 144.16 265.73 147.25L265.74 147.26Z" fill="#0B46FC"/>
<path d="M139.83 245.12C140.18 244.35 140.55 244.38 141.27 244.64C141.14 242.64 142.56 240.9 142.47 238.88L142.71 238.64C144.58 238.21 145.68 236.01 147.27 235.04C146.78 237.81 146.81 239.63 146.77 242.33C146.75 243.76 145.63 244.28 144.39 244.75C142.34 245.54 141.79 245.25 139.83 245.11V245.12Z" fill="#D19B65"/>
<path d="M144.39 255.91C144.26 256.6 144.74 259.02 143.99 259.25C143.53 259.4 142.73 258.9 141.92 259.07C141.11 259.24 140.76 260.14 140.08 260.36C138.4 260.89 136.02 260.38 135.99 258.31C138.02 258.65 139.35 256.83 139.36 254.96C141.32 254.49 142.47 256.26 144.39 255.91Z" fill="#D19B65"/>
<path d="M128.31 133.11C128.31 133.11 128.24 132.81 128.37 132.7C128.42 132.66 129.34 132.22 129.51 132.15C130.92 131.58 132.32 131.38 133.31 132.79C135.87 136.45 129.21 139.78 128.36 136.06C128.13 135.05 128.55 134.04 128.31 133.11Z" fill="#030405"/>
<path d="M145.34 247.76C145.38 248.64 145.02 252.36 144.38 252.68C143.54 253.11 140.71 251.16 139.35 251.83L139.11 248.23C141.33 248.53 143.2 248.48 145.35 247.75L145.34 247.76Z" fill="#576271"/>
<path d="M226.41 280.13C226.48 281.1 227.12 281.96 227.61 282.77C225.61 283.12 222.82 283.32 221.25 281.82C221.02 281.6 219.05 278.99 218.98 278.81C218.8 278.33 219.3 278.43 219.56 278.47C221.64 278.79 224.15 279.82 226.41 280.13Z" fill="#89572B"/>
<path d="M175.56 92.34C179.23 92.53 182.92 92.88 186.59 93.06C186.71 93.76 186.42 93.45 186.03 93.57C183.4 94.37 180.63 94.65 177.95 95.22C177.71 93.89 175.87 93.55 175.55 92.34H175.56Z" fill="#0827C1"/>
<path d="M151.9 140.22C148.39 136.88 147.89 129.14 150.1 125.03C155.06 115.78 165.86 115.32 174.6 119.08C185.7 123.86 184.75 136.8 174.37 142.1C168.48 145.12 156.89 144.96 151.9 140.21V140.22ZM172.45 121.84C168.04 120.14 160.87 118.92 156.88 121.98C152.66 125.21 150.51 130.39 152.67 135.51C154.83 140.63 163.42 141.54 168.23 140.76C175.25 139.62 181.82 133.82 178.26 126.23C177.22 124 176.28 123.8 174.38 122.8C173.68 122.43 173.37 122.19 172.46 121.84H172.45Z" fill="#040303"/>
<path d="M161.6 110.16C164.05 109.94 169.93 109.96 171.48 112.13C172.07 112.96 172.19 113.67 171.37 114.42C170.08 115.59 164.4 115.49 162.49 115.61C160.4 115.75 158.8 116.45 156.61 115.73C154.76 115.12 152.92 112.32 155.36 111.35C156.41 110.94 160.36 110.27 161.6 110.16Z" fill="#030302"/>
<path d="M239.36 228.33C239 218.1 239.38 209.1 240.32 198.95C241.03 191.31 242.63 182.26 242.25 174.72C242.19 173.48 240.77 168.61 243.44 169.43C245.73 170.13 245.43 177.28 245.36 179.3C245.04 188.77 243.1 198.5 242.47 208.07C242.12 213.52 242.07 218.93 242.23 224.37C242.28 226.08 242.14 227.83 242.23 229.41C242.45 233.19 245.11 237.36 246.82 240.64C248.29 243.46 250.16 245.95 249.64 249.3C249.17 252.31 244.79 252.77 242.94 250.63C245.01 256.72 241.14 259.43 235.98 255.91C236.21 257.73 234.94 260.71 232.92 260.9C231.85 261 229.32 259.32 228.54 258.55C227.92 257.94 227.52 256.93 226.74 256.39C224 260.12 220.95 258.87 220.18 254.55C219.51 250.73 220.16 247.25 219.83 243.83C219.63 241.73 216.99 235.99 216.27 233.28C215.25 229.46 214.6 225.57 214.38 221.62C212.88 222.76 210.73 223.73 210.12 221.21C211.21 215.3 212.8 209.45 213.63 203.49C214.46 197.53 214.38 190.77 215.45 184.92C215.66 183.79 216.04 181.53 217.25 181.19C218.57 181.22 219.03 182.08 218.91 183.34C218.75 185.03 218.16 187.05 217.97 188.89C217.47 193.74 217.39 198.66 216.74 203.49C216.13 208.05 214.91 212.54 214.13 217.07C214.69 217.18 214.81 216.54 215.26 216.4C218.68 215.37 217.44 220.69 217.48 222.48C217.6 227.51 219.32 232.51 220.85 237.22C222.87 243.41 225.63 250.94 230.2 255.69C230.93 256.44 231.46 257.12 232.48 257.6C233.02 257.25 232.78 256.65 232.84 256.17C233.22 253.16 231.61 250.88 231.4 248.13C231.21 245.63 233.79 245.28 234.51 247.43C235.33 249.88 235.59 252.11 238.04 253.73C240.61 255.43 240.78 254.22 240.04 251.85C239.98 251.67 240.01 251.47 239.8 251.37C239.79 251.29 239.81 251.21 239.8 251.13C239.4 248.75 234.71 241.81 239.9 242.52C242.07 242.81 241.34 244.05 242.04 245.42C242.67 246.66 244.96 249.08 246.49 248.95C248.03 247.87 243.47 241.38 242.79 240.1C240.76 236.27 239.47 232.68 239.32 228.34L239.36 228.33ZM224.01 255.19C224.64 253.28 224.39 251.94 222.82 250.63L223.3 255.19H224.01Z" fill="#030302"/>
<path d="M231.93 234.32C232 234.55 232.33 234.8 232.41 235.04C233.99 240 236.27 245.95 239 250.4C239.23 250.77 239.28 251.14 239.85 251.11C239.86 251.19 239.84 251.27 239.85 251.35C239.88 251.55 239.85 251.75 240.09 251.83C240.83 254.2 240.66 255.41 238.09 253.71C235.52 252.01 235.37 249.85 234.56 247.41C233.85 245.27 231.26 245.61 231.45 248.11C231.66 250.86 233.27 253.14 232.89 256.15C231.95 255.83 231.29 255.15 230.25 255.67C225.68 250.92 222.91 243.4 220.9 237.2C221.14 236.74 221.69 237.01 222.03 237.14C222.62 237.37 226.49 240.29 226.65 240.07C226.65 238.62 226.67 234.77 227.61 233.71C228.94 232.2 230.49 234.01 231.93 234.32Z" fill="#F6D4B7"/>
<path d="M239.36 228.33C239.51 232.66 240.81 236.26 242.83 240.09C243.5 241.36 248.06 247.86 246.53 248.94C245 249.06 242.7 246.64 242.08 245.41C241.39 244.04 242.11 242.81 239.94 242.51C234.75 241.81 239.45 248.74 239.84 251.12C239.27 251.15 239.22 250.78 238.99 250.41C236.26 245.96 233.99 240.01 232.4 235.05C233.67 235.46 234.58 236.94 235.98 236.95C236.25 236.76 238.16 231.42 238.29 230.74C238.45 229.96 237.73 228.63 239.35 228.33H239.36Z" fill="#D19B65"/>
<path d="M77.4201 231.52C101.5 230.87 116.33 256.99 105.09 277.9C94.0201 298.49 64.4601 299.28 52.1801 279.4C39.6201 259.07 53.4101 232.17 77.4101 231.52H77.4201ZM75.7401 234.64C54.1601 236.56 43.2601 261.7 55.6901 279.25C67.2801 295.62 92.1001 294.47 102.13 277.09C113.41 257.53 98.4801 232.62 75.7501 234.64H75.7401Z" fill="#030405"/>
<path d="M180.06 160.87C179.04 161.84 178.02 160.67 177.31 160.5C173.69 159.66 165.98 161.97 162.64 163.72C161.41 164.36 159.51 166.42 158.3 165.36C156.11 163.44 161.23 161.1 162.52 160.49C166.36 158.67 174.59 156.63 178.68 157.69C180 158.03 181.28 159.71 180.05 160.87H180.06Z" fill="#040303"/>
<path d="M177 219.45C174.72 222.79 172.02 227.47 169.67 230.47C169.07 231.24 168.21 232.02 167.17 231.56C164.82 230.51 168.84 227.08 169.05 225.6C167.98 224.62 168.03 223.18 167.46 221.92C167.09 221.1 166.18 220.92 166.55 219.68C166.89 218.54 168.02 218.52 168.94 219C170 219.55 170.37 221.23 170.7 222.28C170.8 222.6 170.61 222.92 171.12 222.81C174.65 218.24 177.81 213.41 181.08 208.66C184.01 204.42 186.98 200.2 189.7 195.82C191.12 194.2 193.03 195.08 192.54 197.22C187.1 204.45 182.09 211.99 177 219.45Z" fill="#010206"/>
<path d="M172.45 121.84C172.67 122.88 173.57 124 174.37 122.8C176.28 123.8 177.21 124.01 178.25 126.23C181.81 133.82 175.24 139.62 168.22 140.76C163.41 141.54 154.81 140.6 152.66 135.51C150.51 130.42 152.66 125.21 156.87 121.98C160.86 118.93 168.03 120.14 172.44 121.84H172.45ZM160.87 123.33C156.4 123.95 157.17 129.52 161.47 128.74C165.24 128.05 164.6 122.81 160.87 123.33Z" fill="#FDF7E8"/>
<path d="M224.01 255.19H223.3L222.82 250.63C224.39 251.94 224.65 253.27 224.01 255.19Z" fill="#F6D4B7"/>
<path d="M232.88 256.15C232.82 256.63 233.07 257.24 232.52 257.58C231.5 257.1 230.97 256.42 230.24 255.67C231.28 255.15 231.94 255.83 232.88 256.15Z" fill="#D19B65"/>
<path d="M240.08 251.83C239.84 251.75 239.87 251.55 239.84 251.35C240.05 251.45 240.02 251.65 240.08 251.83Z" fill="#D19B65"/>
<path d="M75.74 234.64C98.48 232.62 113.41 257.54 102.12 277.09C92.09 294.47 67.27 295.63 55.68 279.25C43.25 261.7 54.16 236.55 75.73 234.64H75.74ZM74.06 236.79C69.53 237.22 61.93 242.25 59 245.72C57.64 247.33 52.39 254.65 56.7 254.96C58.39 253.85 58.8 251.43 60 249.6C62.23 246.17 69.72 240.33 73.77 239.87C75.01 239.73 78.16 240.34 78.16 238.29C78.16 236.45 75.25 236.69 74.05 236.8L74.06 236.79ZM98.98 251.88C96.9501 252.49 98.61 255.39 98.89 256.67C100.6 264.43 98.64 270.62 93.88 276.75C91.07 280.37 84.53 284.72 79.97 285.39C78.74 285.57 76.6 284.89 76.72 286.96C76.87 289.57 81.7 288.17 83.22 287.68C95.67 283.65 104.29 270.87 102.37 257.73C102.13 256.07 101.43 251.13 98.98 251.87V251.88ZM53.9 260.51C51.28 261.52 53.19 271.63 55.99 268.37C56.87 267.35 55.98 266.59 55.87 265.63C55.66 263.8 56.83 260.16 53.89 260.51H53.9Z" fill="#BDEAFD"/>
<path d="M160.87 123.33C164.6 122.81 165.24 128.05 161.47 128.74C157.16 129.53 156.39 123.96 160.87 123.33Z" fill="#030405"/>
<path d="M98.9802 251.88C101.43 251.14 102.13 256.08 102.37 257.74C104.28 270.88 95.6602 283.66 83.2202 287.69C81.7002 288.18 76.8702 289.58 76.7202 286.97C76.6002 284.9 78.7402 285.58 79.9702 285.4C84.5302 284.73 91.0702 280.38 93.8802 276.76C98.6402 270.63 100.6 264.43 98.8902 256.68C98.6102 255.4 96.9502 252.5 98.9802 251.89V251.88Z" fill="#9EE1FE"/>
<path d="M74.0601 236.79C75.2601 236.67 78.1701 236.44 78.1701 238.28C78.1701 240.33 75.0201 239.72 73.7801 239.86C69.7301 240.32 62.2401 246.17 60.0101 249.59C58.8201 251.42 58.4101 253.84 56.7101 254.95C52.3901 254.65 57.6501 247.32 59.0101 245.71C61.9401 242.24 69.5301 237.22 74.0701 236.78L74.0601 236.79Z" fill="#FDFEFE"/>
<path d="M53.9001 260.51C56.8401 260.17 55.6701 263.8 55.8801 265.63C55.9901 266.6 56.8801 267.35 56.0001 268.37C53.1901 271.62 51.2901 261.52 53.9101 260.51H53.9001Z" fill="#FDFEFE"/>
</svg>
