<svg width="360" height="360" viewBox="0 0 360 360" fill="none" xmlns="http://www.w3.org/2000/svg">
<path d="M234.58 174.59C239.21 176.84 242.88 181.83 245.12 186.36C245.43 186.43 245.51 185.91 245.54 185.7C245.96 182.78 245.88 179.6 246.08 176.65C246.38 172.38 246.58 169.15 246.55 164.88C246.37 139.1 244.72 107.49 258.03 84.5C262.07 77.53 269.67 69.64 278.1 69.08C282.81 68.76 284.58 73.89 284.22 77.84C284.08 79.34 282.18 83.37 281.37 84.83C280.56 86.29 276.39 91.12 278.03 92.77C280.04 93.54 281.69 93.43 282.81 95.54C285.05 99.76 282.96 104.63 280.57 108.25C279.25 110.25 275.56 113.55 275.61 115.97C275.67 118.6 278.83 117.94 280.38 119.31C283.41 122 283.02 126.91 282.17 130.48C280.57 137.2 275.2 142.31 272.09 148.22C271.01 150.27 269.89 152.76 268.93 154.89C263.25 167.48 260.09 181.38 257.83 194.99C260.24 195.7 262.99 198.12 264.79 199.91C273.47 208.58 280.22 221.32 283 233.26C286.4 247.87 281.9 264.02 270.31 273.78C268.1 275.64 265.89 276.7 263.62 278.36C263.8 279.12 264.32 279.73 264.56 280.48C265.58 283.65 265.91 293.16 265.11 296.39C264.42 299.17 261.76 301.63 259.63 303.38C254.05 307.98 247.02 310.19 240.19 312.24C239.89 314.9 239.79 317.58 239.3 320.22C238.59 324.03 237.26 329.95 234.67 332.86C233.61 334.05 229.66 337.47 228.2 337.67C223.76 338.3 227.47 331.46 227.14 329.29C224.95 330.27 222.55 328.91 221.98 326.66C221.77 325.85 222.03 324.19 221.81 323.83C221.76 323.75 220.46 322.92 220.25 322.87C218.69 322.51 217.12 322.97 215.88 323.92C213.3 325.91 215.14 325.95 215.38 327.97C216.35 335.92 210.07 338.23 203.46 335.57C199.05 333.8 197.05 328.41 200.54 324.65C201.69 323.42 202.49 323.88 202.44 321.49C202.41 320.17 201.09 320.06 199.93 320.19C199.18 320.27 194.71 322.41 194.33 322.88C193.9 323.4 193.9 324.56 192.95 325.45C188.38 329.7 178.93 324.57 184.44 317.66C185.98 315.73 187.31 314.93 189.78 315.82L192.34 313.34C190.54 311.95 188.71 310.58 186.95 309.14C186.35 308.65 185.44 307.4 184.83 307.16C184.35 306.97 183.95 307.23 183.46 307.13C176.43 305.69 173.25 300.86 169.17 295.73C166.79 292.73 164.8 291.46 160.91 290.92C161.6 295.55 157.81 299.1 157.34 303.54C156.79 308.73 158.95 315.56 164.21 317.48C166.87 318.45 173.35 318.16 172.88 322.2C172.49 325.57 166.43 327.53 163.6 328.04C157.48 329.15 144.48 328.39 140.15 323.31C138.17 320.98 138.28 318.68 137.74 315.86C136.41 315.86 134.8 315.58 135 317.41C135.15 318.75 136.01 319.17 135.66 321.21C134.82 326.08 128.82 326.78 124.93 325.34C121.26 323.98 121.2 319.07 123.36 316.35C124.68 314.68 127.61 314.1 127.8 311.56C127.36 311.51 127.7 311.98 127.41 312.3C127.21 312.52 125.43 313.38 125.06 313.49C121.92 314.37 117.44 313 117.24 309.27C117.2 308.44 117.82 307.29 117.71 306.92C117.66 306.75 115.51 304.97 115.09 304.49C112.88 301.97 111.04 297.29 111 293.93C110.99 292.83 111.65 291.03 111.51 290.11C111.43 289.6 110.29 288.46 109.94 287.83C108.98 286.1 108.07 283.83 107.43 281.95C106.79 280.07 105.82 277.94 106.45 275.87C99.58 271.67 98.3 263.24 98.07 255.82C97.85 248.99 98.71 241.98 99.83 235.26C101.28 226.58 103.5 218.28 107.65 210.49C107.71 209.32 105.01 207.58 104.18 206.53C100.73 202.17 100.67 196.36 100.94 191.04C101.15 186.98 101.99 183.06 103.56 179.32C87.47 169.67 81.94 149.19 91.32 132.73C99.78 117.89 118.4 111.99 134.05 118.98C134.91 116.79 137 114.57 139.09 113.46C137.98 111.43 138.94 107.92 140.3 106.16C142.46 103.35 146.02 102.23 149.36 101.55C154.49 100.52 160.01 100.42 165.23 100.27C165.84 94.53 165.87 88.66 165.72 82.87C165.5 74.36 163.36 69.05 171.58 63.33C185.52 53.62 209.26 56.47 218.12 71.73C223.28 80.62 217.31 83.53 212.67 90.27C209.95 94.22 208 100.4 207.69 105.2C207.63 106.08 207.47 108.94 208.07 109.37C210.9 110.41 213.49 111.81 216.02 113.41C219.89 115.87 229.56 121.92 225.16 127.46C224.76 127.97 222.94 129.04 223.04 129.41C226.99 132.07 230.66 135.58 233.21 139.63C238.57 148.11 239.96 158.31 237.12 167.96C236.44 170.27 235.18 172.33 234.57 174.61L234.58 174.59ZM198.83 61.88C190.27 59.69 179.47 60.71 172.44 66.55C166.5 71.49 168.68 76.29 168.86 82.85C169.01 88.63 168.98 94.51 168.37 100.25C171.18 100.65 174.06 100.48 176.88 100.73C180.53 101.06 184.22 101.88 187.8 102.65C193.6 103.89 199.5 105.28 204.83 107.93C204.85 101.05 206.66 93.6 210.63 87.95C212.24 85.67 216.87 80.69 217.21 78.2C217.59 75.38 213.34 69.87 211.31 68C207.84 64.79 203.36 63.05 198.83 61.89V61.88ZM274.62 92.1C274.34 86.53 281.8 81.81 281.1 75.43C280.98 74.37 280.12 72.47 279 72.24C277.88 72.01 274.03 72.94 272.96 73.53C252.78 84.77 250.35 117.11 249.69 137.56C249.23 151.89 250.07 166.17 248.96 180.48C248.06 192.12 246.39 204.47 244.1 215.91C243.42 219.29 242.77 222.93 241.36 226.06C245.07 230.14 246.23 234.56 243.98 239.77C242.84 242.42 241.64 243.95 238.89 245.04C237.42 256.41 233.09 267.29 230.62 278.46C229.39 284.03 229.14 287.47 230.09 293.15C230.49 295.53 231.28 297.82 231.67 300.2C232.61 305.95 231.93 311.25 231.46 316.96C230.99 322.67 230.6 327.98 229.54 333.39C231.66 331.61 233.69 329.79 234.62 327.08C236.88 320.51 237.86 309.85 238.18 302.82C238.5 295.79 236.52 288.52 237.48 281.25C238.73 271.84 246.7 263.26 247.71 254.05C247.84 252.91 247.02 252.25 246.62 251.18C244.82 246.35 246.25 241.83 250.88 239.48C243.73 236.69 246.29 226.04 251.95 223.05C253.91 213.31 253.66 203.11 254.99 193.24C256.12 184.84 258.45 175.28 260.95 167.18C262.9 160.84 265.68 154.07 268.66 148.15C272.19 141.11 280.41 133.03 279.67 124.84C279.25 120.13 275.39 122.16 273.38 118.9C270.29 113.89 276.06 109.64 278.42 105.86C279.76 103.71 281 101.14 280.57 98.53C280.14 95.92 278.89 96.66 277.03 95.83C275.45 95.12 274.71 93.86 274.63 92.12L274.62 92.1ZM201.96 124.23C206.42 124.06 210.57 124.33 214.85 125.62C215.73 125.89 218.87 127.3 219.3 127.3C221.24 127.29 223.52 125.69 223.01 123.46C222.29 120.28 211.8 114.22 208.76 112.77C191.98 104.77 167.44 100.4 149.14 104.65C145.37 105.53 141.01 107.56 141.99 112.15C146.81 110.66 152.7 114.41 155.14 118.41C156.4 120.47 158.22 122.92 159.27 124.83C160.21 126.53 160.35 128.57 161.34 130.24C165.33 129.79 168.91 130.82 172.69 131.8C174.2 130.58 175.23 128.84 176.53 127.47C179.73 124.08 187.24 116.42 191.79 115.87C196.98 115.24 201.2 119.29 201.97 124.23H201.96ZM199.07 124.71C198.52 122.56 197.73 120.89 195.79 119.72C193.97 118.62 193.1 118.51 191.09 119.25C187.21 120.68 181.64 126.52 178.68 129.62C177.59 130.76 174.87 134.65 173.48 134.97C171.63 135.4 168.33 133.61 166.31 133.37C164.29 133.13 162.16 133.64 160.36 133.57C157.92 133.47 157.58 128.32 156.67 126.46C156.05 125.19 154.09 122.95 153.16 121.57C151.95 119.77 151.84 118.7 149.88 117.17C146.15 114.27 142 114.05 138.62 117.62C135.73 120.67 136.93 120.27 139.42 122.11C146.94 127.66 152.26 135.9 153.26 145.33C159.8 141.93 167.27 143.13 173.27 147.01C174.51 144.55 175.53 142.04 177 139.69C181.89 131.9 190.01 126.41 199.07 124.7V124.71ZM116.99 119.51C95.91 121.37 83.98 145.19 93.4 163.82C102.92 182.65 128.44 186.04 142.58 170.29C145.81 166.69 146.59 163.87 148.65 159.81C152.83 151.55 168.12 152.42 173.89 158.41C175.44 160.01 175.42 163.5 175.96 165.69C182.85 193.74 221.96 196.6 233 169.57C244.47 141.48 211.81 115.17 187.23 133.4C180.73 138.22 179.83 142.09 176.37 148.69C174.59 152.08 172.12 149.53 169.85 148.54C165.13 146.48 158.95 145.09 154.27 148.17C153.44 148.72 152.81 150.1 151.46 149.91C149.92 149.69 150.28 147.06 150.1 145.98C147.28 129.37 134.23 118 116.98 119.52L116.99 119.51ZM203.15 191.63C189.23 191.22 176.84 180.87 173.05 167.65C172.34 165.16 172.13 162.59 171.51 160.08C166.94 156.53 157.21 155.24 152.78 159.37C151.7 160.38 150.03 165.27 148.99 167.09C142.84 177.83 130.8 184.18 118.42 183.71L117.51 185.52C117.51 186.03 118.64 186.28 119.02 186.42C127.53 189.51 139.73 190.67 148.79 191.9C164.22 194 182.48 196.42 198 195.48C199.72 195.38 201.42 194.92 203.13 194.74V191.63H203.15ZM205.54 313.23C206.2 313.08 209.43 313.74 210.46 313.73C212.01 313.73 214.35 313.4 215.98 313.23C217.4 313.08 228.91 311.33 229.06 310.68C228.96 308.07 229.29 305.64 229.05 303.05C228.59 298.06 226.72 293.13 226.4 287.95C226.13 283.48 227.52 279.2 228.33 274.87C226.02 274.61 223.53 271.53 222.1 269.71C216.13 262.11 215 253.52 216.13 244.08C217.51 232.54 222.39 225.07 231.57 218.27C234.26 216.28 237.71 214.79 241.04 215.87L244.89 192.02C242.45 187.57 240.29 183.09 236.5 179.53C235.59 178.67 233.51 177.05 232.22 177.79C232.02 177.9 229.91 180.81 229.42 181.34C228.51 182.31 225.83 184.24 225.69 185.28C225.64 185.67 225.66 188.36 225.74 188.49C227.12 188.9 231.56 193.11 231.88 194.22C232.33 195.76 231.07 197 229.68 196.18C228.63 195.56 226.98 192.3 225.46 191.65C224.94 198.17 222.06 204.49 218.22 209.72C215.52 213.39 211.15 217.47 206.74 218.87C205.84 219.16 204.85 219.11 204.12 219.37C203.14 219.72 200.01 221.91 198.59 222.6C193.84 224.92 188.83 226.72 183.48 226.92C184.44 238.6 182.21 250.22 180.81 261.78C180.11 267.56 179.45 272.97 179.16 278.83C179.04 281.21 178.63 284.54 178.68 286.74C178.78 291.11 183.45 301.31 186.45 304.54C190.9 309.32 198.91 314.79 205.55 313.26L205.54 313.23ZM202.66 206.74C202.61 206.7 202.02 205.7 202 205.6C201.6 204.11 202.9 203.71 202.9 203.5V197.86C200.34 198.18 197.68 198.82 195.12 198.33C171.34 198.09 146.51 195.83 123.28 190.55C121.01 190.03 118.54 189.52 116.45 188.52C116.12 188.54 115.16 192.02 115.01 192.59C114.65 194.01 114.96 196.73 112.87 196.43C110.48 196.09 112.26 191.64 112.67 190.24C113.37 187.86 114.34 185.57 115.13 183.23C112.03 182.88 109.15 181.72 106.25 180.69C104.96 183.53 104.37 186.49 104.1 189.59C103.66 194.66 103.45 201.66 107.45 205.42C109.36 207.21 109.07 206.39 110.47 208.87C113.17 213.64 117.31 216.12 122.56 217.53C123.11 215.07 123.2 212.46 123.79 210.01C124.16 208.49 124.67 206.15 126.74 206.5C128.06 206.72 129.12 210.06 129.79 211.14C130.46 212.22 135.77 218.55 136.59 218.49C137.33 217.37 137.61 216.01 138.18 214.81C139.88 211.23 145.6 202.89 148.72 200.64C151.84 198.39 153.13 201.35 154.5 203.94C156.29 207.3 157.63 211.15 159.14 214.65C160.9 212.9 167.76 206.25 169.94 206.28C171.82 206.31 172.32 210.03 172.45 211.42C172.72 214.33 172.66 217.7 172.69 220.65C172.7 221.68 172.67 222.72 172.7 223.76C182.22 225.41 191.66 223.26 199.95 218.54C200.94 217.98 202.3 216.63 203.21 216.29C204.05 215.97 204.94 216.15 205.91 215.88C215.28 213.27 223.67 196.31 222.57 186.97L216.7 189.73C214.45 190.64 212.23 191.03 209.86 191.4C208.59 191.6 207.31 191.71 206.04 191.89C205.95 194.98 205.81 198.02 205.78 201.12C205.78 201.66 206.04 202.16 206.03 202.67C206.01 204.28 205.21 208.91 202.67 206.75L202.66 206.74ZM266.04 228.51C266.18 228.68 266.94 228.91 267.42 229.41C270.65 232.86 274.91 240.04 275.33 244.76C276 252.17 271.23 262.87 267.28 269.08C266 271.08 264.4 272.84 263.22 274.85C271.33 270.86 276.8 262.24 279.66 253.87C283.38 242.96 280.08 232.08 275.94 221.85C272.92 214.4 266.23 204.74 259.87 199.79C259.64 199.61 257.72 198.2 257.6 198.35L255.68 220.16C256.65 220.16 257.07 221.27 257.78 221.55C260.3 222.56 261.43 221.78 263.95 224.02C266.19 226.01 265.35 227.66 266.06 228.51H266.04ZM148.7 204.82C145.35 208.2 141.43 214.37 139.82 218.84C139.45 219.86 139.41 222.16 138.22 222.51C136.51 223.02 135.25 221.56 134.07 220.53C132.49 219.13 131.08 217.4 129.52 215.96L126.4 211.29C125.49 216.19 125.02 220.81 125.19 225.81C125.69 240.81 130.69 248.47 134.9 261.91C137.95 271.62 136.43 277.95 137.18 287.45C137.74 294.54 146.26 297.24 146.48 302.61C146.58 305.06 143.1 308.4 141.79 310.5C140.36 312.79 140.77 319.04 142.47 321.25C144.4 323.76 151.84 325.24 154.94 325.45C158.43 325.68 165.24 325.15 168.21 323.25C168.74 322.91 169.11 322.39 169.56 321.97C169.56 321.45 166.83 321.41 166.38 321.31C156.95 319.18 152.34 310.14 154.76 300.93C155.38 298.58 158.21 294.06 157.8 291.99C157.72 291.6 156.02 289.33 155.64 288.87C153.56 286.41 151.51 285.82 151.12 282.12C150.03 271.62 156.67 260.15 160.97 251.01C166.9 238.41 170.96 225.28 169.3 211.18C169.27 210.95 169.17 210.13 168.73 210.32C168.21 210.55 166.08 212.33 165.48 212.83C164.35 213.77 160.75 217.03 160.34 218.24C160.09 218.98 160.4 219.49 159.87 220.17C159.34 220.85 158.53 220.99 157.82 220.5C157.02 219.94 155.67 213.89 155.11 212.42C154.35 210.44 153.03 207.54 152.01 205.69C151.57 204.9 150.97 204.14 150.49 203.36C150.26 203.31 148.95 204.54 148.7 204.8V204.82ZM117.04 227.13C116.92 224.24 116.79 221.39 116.27 218.54C113.8 217.14 111.59 215.61 109.72 213.46C103.93 223.91 102.41 236.14 101.19 247.89C102.92 252.12 108.22 253.09 112.24 254.23C113.92 254.71 115.3 255.6 117.28 255.19C117.52 249.26 117.68 243.26 117.53 237.31C117.45 233.96 117.18 230.5 117.04 227.13ZM238.6 224.93C239.02 224.66 240.21 220.23 240.27 219.5C240.39 217.97 237.6 218.62 236.71 218.84C234.14 219.48 228.03 224.86 226.16 227C216.52 237.97 215.42 261.66 227.73 271.25C228.17 271.6 229 272.4 229.34 271.67C229.56 271.19 231.01 265.72 230.96 265.4C230.9 264.97 229.93 263.69 229.64 262.87C227.53 256.85 226.21 251.09 227.96 244.88C228.26 243.8 230.12 239.77 230.14 239.48C230.17 239.14 229.5 237.59 229.38 236.97C228.84 234.06 229.17 231.94 230.67 229.36C232.45 226.29 234.86 224.47 238.59 224.92L238.6 224.93ZM122.28 220.93L119.44 219.93C119.44 220.46 119.67 220.94 119.69 221.48C120.21 236.28 121.32 251.08 119.17 265.83C118.73 268.82 117.41 272.64 117.28 275.46C117.24 276.28 117.55 277.05 117.51 277.6C117.47 278.15 116.85 278.74 116.66 279.4C116.1 281.39 115.57 284.45 115.19 286.56C114.14 292.33 113.14 297.59 117.39 302.44C118.73 303.97 124.78 308.03 126.7 308.11C130.8 308.29 134.52 304.8 136.8 301.7C137.76 300.4 138.5 298.94 139.27 297.52C135.01 293.47 133.99 289.87 134.06 284.1C134.22 272.43 133.72 267.46 129.74 256.51C125.76 245.56 122.88 239.22 122.29 226.54C122.2 224.68 122.41 222.79 122.26 220.93H122.28ZM258.79 224.97C258.36 224.85 258.09 224.5 257.47 224.47C253.71 224.33 250.06 227.9 249.68 231.56C249.58 232.53 249.82 234.82 250.38 235.61C250.56 235.85 250.84 235.73 250.88 235.76C255.93 240.01 263.55 236.94 263.11 229.89C262.89 226.44 261.91 225.85 258.8 224.97H258.79ZM180.36 227.37L171.97 226.65C171.72 228.49 171.51 230.57 171.09 232.37C168.16 244.86 161.88 254 157.46 265.51C156.8 267.22 155.37 270.73 155.22 272.4C155.2 272.67 155.12 272.88 155.41 273.05C161.98 275.67 168.73 277.85 175.8 278.69C176.85 275.19 176.42 271.4 176.76 267.78C177.04 264.78 177.78 261.65 178.16 258.63C179.46 248.26 181.27 237.85 180.35 227.36L180.36 227.37ZM232.88 238.16C233.3 239.22 235.14 242.08 236.23 242.38C236.95 242.58 239.15 241.57 239.72 241.04C240.77 240.05 242.22 236.34 242.25 234.91C242.28 233.23 241.37 231.86 240.56 230.48C240.24 229.92 240.5 229.66 239.61 228.92C237.29 226.99 235.21 227.88 233.65 230.16C231.89 232.74 231.77 235.28 232.89 238.16H232.88ZM247.99 277.02C255.26 276.82 259.57 274.85 263.78 268.94C267.43 263.81 272.62 252.5 272.43 246.23C272.29 241.62 269 236.53 266.1 233.14C265.58 233.85 265.57 234.73 265.15 235.55C264.18 237.48 262.17 238.77 260.46 239.98C265.82 242.4 265.32 251.94 259.98 254.01C262.4 258.44 265.12 262.26 261.62 267.03C257.46 272.69 249.92 271.38 247.15 265.27C246.16 267.39 244.93 269.41 243.91 271.5C243.12 273.12 242.36 274.84 241.75 276.54C243.88 276.82 245.82 277.08 247.98 277.02H247.99ZM250.15 251.35C250.61 252.02 251.56 252.96 252.42 252.99C253.28 253.02 256.71 252.25 257.58 251.94C259.77 251.16 260.95 249.72 261.18 247.39C261.39 245.25 261.18 244.17 259.48 242.86C257.5 241.33 257.31 241.97 255.18 242C253.92 242.02 253.45 241.65 252 242.3C248.43 243.92 248.08 248.31 250.14 251.35H250.15ZM235.72 245.39C234.16 244.86 232.93 243.85 232.04 242.48C229.03 248 229.84 254.03 231.8 259.74C231.92 260.09 231.95 260.46 232.28 260.7L235.72 245.39ZM112.49 257.59C108.62 256.45 104.47 255.23 101.22 252.79C100.99 259.51 101.44 267.72 106.86 272.45C108.92 274.25 111.6 275.87 114.41 275.82C114.44 273.67 115.23 271.65 115.61 269.58C116.3 265.85 116.66 262.08 117.05 258.31C115.33 258.55 114.06 258.05 112.49 257.59ZM257.11 255.91C255.28 255.47 253.36 255.83 251.66 256.58C248.7 257.87 248.71 261.55 249.94 264.16C250.18 264.67 250.44 264.76 250.63 265.03C251.42 266.16 252 266.85 253.44 267.38C256.93 268.66 260.78 264.89 260.17 261.37C260.02 260.51 258.29 256.71 257.7 256.16C257.45 255.93 257.37 255.98 257.11 255.92V255.91ZM262.75 274.86L261.67 275.7C262 275.76 262.86 275.24 262.75 274.86ZM175.56 281.57C168.26 280.78 161.33 278.18 154.45 275.81C154.29 278.04 153.6 281.96 154.93 283.85C158.27 288.61 165.29 287.73 169.2 291.17C171.22 292.95 172.37 295.49 174.13 297.51C176.11 299.79 178.92 302.14 181.68 303.39C179.95 299.77 177.92 296.3 176.83 292.41C176.35 290.68 175.37 286.93 175.32 285.27C175.28 284.13 175.81 282.79 175.57 281.57H175.56ZM113.65 278.97L109.37 277.98C109.86 280.66 110.96 283.16 112.01 285.65C112.63 285.72 112.39 285.65 112.49 285.3C112.74 284.44 113.92 279.39 113.65 278.97ZM260.91 279.69C260.51 279.44 257.17 280.53 256.26 280.61C252.98 280.9 248.98 280.52 245.71 280.13C245.01 280.05 240.97 279.25 240.8 279.42C239.84 283.89 240.21 288.22 240.56 292.72C240.71 294.63 241.24 296.82 241.29 298.71C241.37 302.03 240.66 305.59 240.56 308.91C245.99 307.1 251.87 305.42 256.5 301.95C260.27 299.12 262.54 296.78 262.62 291.76C262.62 291.31 262.36 290.84 262.37 290.33C262.42 286.67 262.74 282.99 260.91 279.68V279.69ZM139.59 302.92C141.91 302.48 144.26 302.18 141.63 299.81L139.59 302.92ZM128.31 317.55C126.89 317.81 125.94 317.24 125.35 319.27C124.5 322.19 125.97 322.73 128.55 322.83C130.6 322.91 132.78 322.37 132.38 319.85C132.23 318.93 131.32 318.56 131.43 317.46C131.47 317.08 132.63 314.74 132.91 314.36C134.1 312.7 136.02 312.64 137.91 312.76C137.79 309.93 140.22 308.19 141.27 305.81L136.96 306.17C136.05 306.88 135.23 308.15 134.3 308.79C133.57 309.29 131.1 310.14 130.96 310.96C130.86 311.51 131 312.11 130.86 312.77C130.69 313.6 129.92 314.39 129.81 314.86C129.58 315.87 130.6 317.14 128.33 317.56L128.31 317.55ZM124 310.59C123.66 310.1 120.64 308.44 120.4 308.68C120.34 310.49 122.56 311.02 124 310.59ZM228.81 313.95L224.97 314.67C225.1 316.51 226.9 316.51 228.42 316.31L228.78 315.95L228.81 313.95ZM199.07 316.11C198.23 315.89 195.75 314.78 195.17 314.94C193.95 315.64 192.23 318.34 191.1 318.8C188.96 319.68 187.85 317.24 186.27 320.69C185.07 323.3 188.12 324.34 190.2 323.42C191.6 322.81 190.96 321.7 191.21 320.59C191.56 319.04 193.09 319.66 194.1 319.4C195.23 319.11 197.3 317.32 199.07 317.06C201.18 316.75 204.94 317.4 205.5 319.87C205.77 321.08 205.31 322.21 205.34 323.19C205.34 323.33 205.73 324.46 205.79 324.5C204.85 326.54 202.15 326.04 201.94 328.94C201.8 330.87 203.51 332.08 205.07 332.65C208.68 333.98 213.09 333.82 212.25 328.71C212.01 327.26 210.01 327.44 210.64 325.39C210.69 325.22 212.48 322.78 212.76 322.47C215.03 319.85 219.12 318.68 222.28 320.38C222.75 320.63 224.73 322.12 224.94 322.52C225.67 323.9 224.56 325.06 225.26 326.39L227.59 326.15L228.36 320.33L227.87 320.18L228.34 319.23L226.26 319.93C223.77 320.17 224.37 319.2 223.19 317.78C222.81 317.32 221.22 315.71 220.77 315.63C218.54 315.91 216.31 316.11 214.08 316.37C211 316.72 209.24 316.44 206.38 316.58C203.02 316.75 202.57 317.04 199.08 316.11H199.07Z" fill="#030303"/>
<path d="M198.59 222.57C200.01 221.88 203.14 219.69 204.12 219.34C204.86 219.08 205.84 219.13 206.74 218.84C211.15 217.44 215.52 213.36 218.22 209.69C222.06 204.47 224.94 198.14 225.46 191.62C226.98 192.27 228.63 195.53 229.68 196.15C231.07 196.97 232.33 195.73 231.88 194.19C231.55 193.08 227.11 188.88 225.74 188.46C225.65 188.32 225.64 185.63 225.69 185.25C225.83 184.21 228.51 182.28 229.42 181.31C229.92 180.78 232.03 177.88 232.22 177.76C233.51 177.01 235.58 178.64 236.5 179.5C240.29 183.06 242.45 187.54 244.89 191.99L241.04 215.84C237.71 214.76 234.26 216.25 231.57 218.24C222.39 225.04 217.5 232.51 216.13 244.05C215.01 253.48 216.13 262.08 222.1 269.68C223.53 271.5 226.02 274.58 228.33 274.84C227.52 279.17 226.13 283.45 226.4 287.92C226.71 293.11 228.59 298.04 229.05 303.02C229.29 305.61 228.97 308.04 229.06 310.65C228.91 311.3 217.39 313.05 215.98 313.2C214.36 313.37 212.01 313.69 210.46 313.7C209.43 313.7 206.2 313.05 205.54 313.2C203.72 310.05 202.6 306.39 201.58 302.89C194.74 279.28 196.12 256.65 197.86 232.5L198.58 222.54L198.59 222.57Z" fill="#A87A59"/>
<path d="M274.62 92.1C273.43 92.3 272.17 93.55 271.26 94.38C270.17 95.36 268.6 96.75 268.15 98.1C266.81 98.36 263.37 103.07 262.53 104.36C259.32 109.31 257.06 113.56 256.15 119.45H255.67C255.51 119.81 255.9 120.08 255.91 120.17C255.93 120.32 255.91 120.49 255.91 120.65H255.43C255.27 121 255.66 121.29 255.67 121.37C255.69 121.53 255.64 121.72 255.67 121.85C255.02 121.71 255.2 122.17 255.11 122.6C252.53 135.86 259.81 149.33 260.7 162.27C260.81 163.86 260.42 165.68 260.94 167.18C258.45 175.28 256.11 184.85 254.98 193.24C253.65 203.11 253.9 213.32 251.94 223.05C246.27 226.05 243.72 236.69 250.87 239.48C246.25 241.83 244.81 246.34 246.61 251.18C247.01 252.25 247.83 252.91 247.7 254.05C246.68 263.26 238.71 271.84 237.47 281.25C236.51 288.52 238.5 295.56 238.17 302.82C237.84 310.08 236.87 320.51 234.61 327.08C233.68 329.79 231.64 331.61 229.53 333.39C230.59 327.98 231 322.45 231.45 316.96C231.9 311.47 232.6 305.95 231.66 300.2C231.27 297.82 230.48 295.53 230.08 293.15C229.14 287.48 229.38 284.03 230.61 278.46C233.08 267.3 237.41 256.41 238.88 245.04C241.63 243.94 242.82 242.42 243.97 239.77C246.22 234.56 245.06 230.14 241.35 226.06C242.76 222.93 243.42 219.29 244.09 215.91C246.39 204.47 248.05 192.12 248.95 180.48C250.06 166.17 249.22 151.89 249.68 137.56C250.34 117.12 252.78 84.77 272.95 73.53C274.02 72.93 277.88 72 278.99 72.24C280.1 72.48 280.97 74.37 281.09 75.43C281.79 81.81 274.34 86.53 274.61 92.1H274.62Z" fill="#94664B"/>
<path d="M116.99 119.51C134.23 117.99 147.29 129.36 150.11 145.97C150.29 147.05 149.93 149.68 151.47 149.9C152.82 150.09 153.44 148.71 154.28 148.16C158.96 145.08 165.14 146.47 169.86 148.53C172.13 149.52 174.6 152.07 176.38 148.68C179.84 142.08 180.74 138.21 187.24 133.39C211.82 115.16 244.47 141.47 233.01 169.56C221.97 196.59 182.87 193.73 175.97 165.68C175.43 163.48 175.44 160 173.9 158.4C168.13 152.41 152.85 151.54 148.66 159.8C146.6 163.86 145.82 166.68 142.59 170.28C128.45 186.03 102.93 182.64 93.4099 163.81C83.9899 145.18 95.9199 121.36 117 119.5L116.99 119.51ZM117.71 124.55C100.23 125.99 89.4399 144.44 96.4499 160.54C104.84 179.81 132.02 181.16 142.35 162.86C152.55 144.79 138.28 122.85 117.71 124.55ZM203.1 132.7C185.62 134.14 174.83 152.59 181.84 168.69C190.23 187.96 217.41 189.31 227.74 171.01C238.07 152.71 223.67 131 203.1 132.7Z" fill="#354B65"/>
<path d="M172.68 220.65C172.65 217.7 172.71 214.33 172.44 211.42C172.31 210.03 171.81 206.31 169.93 206.28C167.75 206.25 160.89 212.9 159.13 214.65C157.63 211.15 156.28 207.31 154.49 203.94C153.11 201.35 151.85 198.37 148.71 200.64C145.57 202.91 139.87 211.23 138.17 214.81C137.6 216.01 137.32 217.37 136.58 218.49C135.76 218.55 130.43 212.19 129.78 211.14C129.13 210.09 128.05 206.72 126.73 206.5C124.66 206.15 124.14 208.49 123.78 210.01C123.19 212.46 123.1 215.07 122.55 217.53C117.31 216.13 113.16 213.64 110.46 208.87C109.06 206.39 109.34 207.21 107.44 205.42C103.44 201.66 103.65 194.67 104.09 189.59C104.36 186.49 104.95 183.54 106.24 180.69C109.15 181.72 112.02 182.88 115.12 183.23C114.32 185.57 113.35 187.86 112.66 190.24C112.25 191.64 110.47 196.09 112.86 196.43C114.96 196.73 114.64 194.01 115 192.59C115.15 192.02 116.11 188.54 116.44 188.52C118.53 189.52 121.01 190.04 123.27 190.55C146.51 195.84 171.33 198.1 195.11 198.33C197.67 198.82 200.33 198.18 202.89 197.86V203.5C202.89 203.71 201.59 204.11 201.99 205.6C202.02 205.7 202.6 206.7 202.65 206.74C201.96 207.75 201.16 208.67 200.26 209.5C195.4 213.98 186.59 218.6 180.15 220.09C177.63 220.67 175.25 220.73 172.67 220.65H172.68Z" fill="#C4EE79"/>
<path d="M147.98 254.23C147.15 255.26 147.51 255.49 147.26 256.39C144.97 264.61 142.9 273.73 144.78 282.25C146.86 291.62 153.88 295.37 150.74 306.28C149.2 311.63 147.16 314.99 151.24 320.17C151.93 321.05 155.34 323.86 155.38 324.43C155.4 324.77 154.93 325.09 154.94 325.47C151.84 325.26 144.39 323.78 142.47 321.27C140.77 319.05 140.36 312.8 141.79 310.52C143.11 308.42 146.58 305.08 146.48 302.63C146.26 297.26 137.74 294.56 137.18 287.47C136.43 277.97 137.95 271.64 134.9 261.93C130.68 248.5 125.68 240.83 125.19 225.83C125.02 220.83 125.49 216.21 126.4 211.31L129.52 215.98C131.08 217.42 132.49 219.15 134.07 220.55C135.25 221.59 136.51 223.04 138.22 222.53C139.41 222.18 139.45 219.88 139.82 218.86C141.44 214.39 145.35 208.22 148.7 204.84C149.51 207.95 150.59 211.03 151.22 214.19C152.8 222.14 152.79 233.59 151.55 241.62C150.87 245.97 149.09 250.01 147.98 254.24V254.23ZM138.92 232.46C138.79 232.59 138.46 233.56 138.43 233.79C138.22 235.45 140.35 242.71 141.29 244.25C141.97 245.37 143.79 246.44 144.49 244.88C145.02 243.71 143.89 242.99 143.48 242.06C142.56 239.97 141.67 237.08 141.36 234.82C141.28 234.24 141.6 233.83 141.39 233.12C141.08 232.08 139.56 231.82 138.91 232.47L138.92 232.46Z" fill="#D6D2C9"/>
<path d="M203.15 191.63V194.74C201.43 194.92 199.72 195.38 198 195.48C182.48 196.42 164.21 194 148.79 191.9C139.72 190.67 127.53 189.5 119.02 186.42C118.64 186.28 117.51 186.03 117.51 185.52L118.42 183.71C130.81 184.18 142.84 177.83 148.99 167.09C150.03 165.27 151.7 160.38 152.78 159.37C157.2 155.24 166.94 156.53 171.51 160.08C172.14 162.59 172.34 165.16 173.05 167.65C176.84 180.87 189.23 191.22 203.15 191.63Z" fill="#C4EE79"/>
<path d="M205.54 313.23C198.9 314.76 190.89 309.3 186.44 304.51C183.44 301.29 178.77 291.08 178.67 286.71C178.62 284.5 179.03 281.18 179.15 278.8C179.45 272.93 180.1 267.53 180.8 261.75C182.2 250.19 184.43 238.56 183.47 226.89C188.82 226.69 193.83 224.89 198.58 222.57L197.86 232.53C196.12 256.68 194.73 279.31 201.58 302.92C202.6 306.42 203.71 310.09 205.54 313.23Z" fill="#C0A187"/>
<path d="M201.96 124.23C201.2 119.29 196.98 115.24 191.78 115.87C187.22 116.42 179.72 124.08 176.52 127.47C175.22 128.84 174.19 130.58 172.68 131.8C168.9 130.82 165.32 129.79 161.33 130.24C160.34 128.56 160.2 126.52 159.26 124.83C158.21 122.92 156.39 120.47 155.13 118.41C152.69 114.41 146.8 110.66 141.98 112.15C141.01 107.56 145.36 105.52 149.13 104.65C167.43 100.4 191.97 104.77 208.75 112.77C211.8 114.22 222.28 120.28 223 123.46C223.51 125.69 221.23 127.29 219.29 127.3C218.86 127.3 215.73 125.89 214.84 125.62C210.56 124.34 206.42 124.06 201.95 124.23H201.96Z" fill="#7D543C"/>
<path d="M148.7 204.82C148.96 204.56 150.26 203.33 150.49 203.38C150.97 204.16 151.57 204.91 152.01 205.71C153.03 207.56 154.36 210.46 155.11 212.44C155.67 213.91 157.02 219.97 157.82 220.52C158.52 221.01 159.34 220.86 159.87 220.19C160.4 219.52 160.09 219 160.34 218.26C160.75 217.05 164.35 213.79 165.48 212.85C166.08 212.35 168.21 210.57 168.73 210.34C169.17 210.15 169.27 210.97 169.3 211.2C170.96 225.31 166.9 238.44 160.97 251.03C156.67 260.16 150.03 271.63 151.12 282.14C151.51 285.84 153.56 286.43 155.64 288.89C156.02 289.35 157.72 291.62 157.8 292.01C158.21 294.08 155.37 298.6 154.76 300.95C152.34 310.16 156.95 319.2 166.38 321.33C166.83 321.43 169.56 321.47 169.56 321.99C169.11 322.41 168.73 322.93 168.21 323.27C165.24 325.16 158.43 325.7 154.94 325.47C154.93 325.09 155.4 324.77 155.38 324.43C155.34 323.86 151.94 321.05 151.24 320.17C147.16 314.99 149.2 311.63 150.74 306.28C153.88 295.37 146.86 291.62 144.78 282.25C142.89 273.73 144.96 264.61 147.26 256.39C148.69 257.78 149.97 256.75 151.09 255.54C153.34 253.12 155.55 247.31 156.68 244.1C157.19 242.64 158.55 239.18 158.29 237.81C158.08 236.66 156.51 236.29 155.75 237.18C155.33 237.67 154.62 241.79 154.28 242.9C153.38 245.83 151.46 250.2 149.62 252.63C149.12 253.29 148.37 253.74 147.98 254.23C149.08 250 150.87 245.96 151.55 241.61C152.8 233.58 152.81 222.13 151.22 214.18C150.59 211.02 149.51 207.94 148.7 204.83V204.82Z" fill="#B4AE9F"/>
<path d="M122.28 220.93C122.43 222.79 122.22 224.68 122.31 226.54C122.9 239.22 125.62 245.09 129.76 256.51C133.9 267.93 134.23 272.43 134.08 284.1C134 289.87 135.03 293.47 139.29 297.52C138.52 298.94 137.78 300.4 136.82 301.7C134.54 304.8 130.82 308.29 126.72 308.11C124.8 308.03 118.75 303.97 117.41 302.44C113.16 297.59 114.16 292.34 115.21 286.56C115.6 284.45 116.12 281.39 116.68 279.4C116.86 278.74 117.49 278.15 117.53 277.6C117.57 277.05 117.26 276.28 117.3 275.46C117.42 272.64 118.75 268.82 119.19 265.83C121.34 251.08 120.23 236.28 119.71 221.48C119.69 220.94 119.46 220.47 119.46 219.93L122.3 220.93H122.28Z" fill="#C0A187"/>
<path d="M198.83 61.88C198.61 63.09 200.01 63.12 200.38 63.56C200.56 63.77 200.88 65.06 200.92 65.41C202.23 75.07 195.5 80.13 191.83 88.09C189.8 92.5 188.22 97.82 187.79 102.64C184.21 101.87 180.53 101.06 176.87 100.72C174.05 100.46 171.16 100.63 168.36 100.24C168.97 94.5 169 88.63 168.85 82.84C168.68 76.28 166.5 71.48 172.43 66.54C179.45 60.69 190.26 59.67 198.82 61.87L198.83 61.88Z" fill="#94664C"/>
<path d="M274.62 92.1C274.71 93.84 275.44 95.11 277.02 95.81C278.87 96.64 280.13 95.97 280.56 98.51C280.99 101.05 279.75 103.69 278.41 105.84C276.05 109.63 270.28 113.87 273.37 118.88C275.38 122.14 279.24 120.11 279.66 124.82C280.4 133.01 272.19 141.09 268.65 148.13C265.67 154.05 262.89 160.83 260.94 167.16C260.42 165.66 260.81 163.84 260.7 162.25C259.81 149.32 252.53 135.84 255.11 122.58C255.19 122.15 255.01 121.69 255.67 121.83C255.76 122.18 255.67 122.49 255.93 122.88C256.48 123.7 257.73 123.72 258.28 122.88C259.01 121.78 259.21 117.33 259.68 115.64C260.54 112.53 263.88 106.94 265.88 104.34C266.59 103.42 269.67 100.55 269.84 100.13C270.32 98.93 269.41 97.84 268.14 98.08C268.6 96.72 270.17 95.34 271.25 94.36C272.16 93.54 273.42 92.29 274.61 92.08L274.62 92.1ZM265.68 126.68C264.21 126.99 261.3 132.64 260.66 134.15C259.84 136.09 257.6 142.92 258.12 144.7C258.43 145.77 260.1 145.92 260.66 144.94C261.02 144.31 261.58 140.25 261.92 139.01C262.65 136.4 263.86 133.46 265.4 131.22C265.95 130.42 267.31 129.21 267.51 128.51C267.85 127.28 266.91 126.43 265.68 126.68Z" fill="#7D543C"/>
<path d="M180.36 227.37C181.28 237.85 179.47 248.27 178.17 258.64C177.79 261.66 177.05 264.79 176.77 267.79C176.43 271.41 176.85 275.2 175.81 278.7C168.74 277.86 161.99 275.68 155.42 273.06C155.13 272.89 155.2 272.68 155.23 272.41C155.38 270.73 156.82 267.22 157.47 265.52C161.89 254 168.16 244.87 171.1 232.38C171.52 230.58 171.73 228.51 171.98 226.66L180.37 227.38L180.36 227.37Z" fill="#7D543C"/>
<path d="M198.83 61.88C203.36 63.04 207.83 64.78 211.31 67.99C213.34 69.87 217.58 75.37 217.21 78.19C216.88 80.68 212.24 85.66 210.63 87.94C206.65 93.59 204.85 101.04 204.83 107.92C199.5 105.27 193.61 103.89 187.8 102.64C188.23 97.82 189.8 92.49 191.84 88.09C195.51 80.13 202.24 75.07 200.93 65.41C200.88 65.05 200.56 63.77 200.39 63.56C200.02 63.12 198.62 63.08 198.84 61.88H198.83Z" fill="#7D553C"/>
<path d="M199.07 124.71C190.01 126.42 181.89 131.91 177 139.7C175.53 142.04 174.52 144.56 173.27 147.02C167.27 143.14 159.8 141.95 153.26 145.34C152.26 135.91 146.94 127.67 139.42 122.12C136.93 120.28 135.73 120.68 138.62 117.63C142 114.06 146.15 114.28 149.88 117.18C151.84 118.7 151.94 119.77 153.16 121.58C154.09 122.96 156.04 125.2 156.67 126.47C157.58 128.33 157.92 133.48 160.36 133.58C162.16 133.65 164.31 133.15 166.31 133.38C168.31 133.61 171.63 135.41 173.48 134.98C174.87 134.66 177.59 130.77 178.68 129.63C181.64 126.53 187.21 120.69 191.09 119.26C193.1 118.52 193.97 118.63 195.79 119.73C197.73 120.9 198.52 122.57 199.07 124.72V124.71Z" fill="#C3ED79"/>
<path d="M260.91 279.69C262.74 282.99 262.42 286.67 262.37 290.34C262.37 290.85 262.63 291.32 262.62 291.77C262.54 296.79 260.27 299.13 256.5 301.96C251.87 305.43 245.98 307.11 240.56 308.92C240.65 305.59 241.36 302.03 241.29 298.72C241.25 296.83 240.71 294.64 240.56 292.73C240.21 288.22 239.84 283.9 240.8 279.43C240.98 279.26 245.01 280.06 245.71 280.14C248.98 280.53 252.97 280.91 256.26 280.62C257.17 280.54 260.5 279.45 260.91 279.7V279.69Z" fill="#A87A58"/>
<path d="M209.86 191.39C212.23 191.01 214.45 190.62 216.7 189.72L222.57 186.96C223.67 196.3 215.28 213.26 205.91 215.87C204.94 216.14 204.05 215.97 203.21 216.28C202.3 216.62 200.94 217.97 199.95 218.53C191.66 223.25 182.22 225.4 172.7 223.75C172.66 222.72 172.7 221.68 172.69 220.64C175.27 220.73 177.65 220.67 180.17 220.08C186.61 218.59 195.41 213.96 200.28 209.49C201.18 208.66 201.99 207.74 202.67 206.73C205.21 208.89 206.01 204.26 206.03 202.65C208.48 199.5 209.88 195.38 209.87 191.38L209.86 191.39Z" fill="#97E03A"/>
<path d="M238.6 224.93C234.88 224.48 232.47 226.29 230.68 229.37C229.18 231.95 228.85 234.07 229.39 236.98C229.5 237.6 230.18 239.15 230.15 239.49C230.12 239.78 228.27 243.81 227.97 244.89C226.22 251.1 227.54 256.86 229.65 262.88C229.94 263.7 230.91 264.99 230.97 265.41C231.01 265.73 229.57 271.2 229.35 271.68C229.01 272.41 228.19 271.6 227.74 271.26C215.43 261.67 216.53 237.98 226.17 227.01C228.05 224.88 234.15 219.5 236.72 218.85C237.61 218.63 240.4 217.98 240.28 219.51C240.22 220.24 239.03 224.67 238.61 224.94L238.6 224.93Z" fill="#BFA087"/>
<path d="M112.25 254.23C108.24 253.09 102.93 252.11 101.2 247.89C102.41 236.14 103.93 223.92 109.73 213.46C111.6 215.61 113.81 217.14 116.28 218.54C116.79 221.39 116.93 224.23 117.05 227.13C116.44 227.1 116.43 227.46 116.26 227.9C114.32 232.89 114.11 240.18 112.98 245.48L112.26 254.23H112.25Z" fill="#C0A187"/>
<path d="M247.99 277.02C246.35 275.38 245.14 273.46 243.91 271.5C244.93 269.4 246.16 267.39 247.15 265.27C249.92 271.38 257.46 272.69 261.62 267.03C265.13 262.26 262.4 258.44 259.98 254.01C265.32 251.93 265.82 242.4 260.46 239.98C262.17 238.77 264.18 237.48 265.15 235.55C265.56 234.73 265.58 233.86 266.1 233.14C269 236.53 272.29 241.63 272.43 246.23C272.62 252.5 267.42 263.82 263.78 268.94C259.58 274.85 255.26 276.82 247.99 277.02Z" fill="#A77A58"/>
<path d="M112.49 257.59C112.25 259.39 113.43 268.25 114.39 269.24C114.75 269.61 115.12 269.64 115.6 269.59C115.22 271.66 114.43 273.68 114.4 275.83C111.59 275.89 108.91 274.26 106.85 272.46C101.43 267.73 100.98 259.52 101.21 252.8C104.46 255.24 108.61 256.45 112.48 257.6L112.49 257.59Z" fill="#C0A187"/>
<path d="M199.07 316.11C202.56 317.04 203.01 316.75 206.37 316.58C209.23 316.44 210.99 316.72 214.07 316.37C216.3 316.11 218.53 315.91 220.76 315.63C221.21 315.71 222.8 317.32 223.18 317.78C224.35 319.2 223.75 320.16 226.25 319.93L228.33 319.23L227.86 320.18L228.35 320.33L227.58 326.15L225.25 326.39C224.55 325.05 225.66 323.9 224.93 322.52C224.72 322.12 222.75 320.64 222.27 320.38C219.11 318.68 215.02 319.86 212.75 322.47C212.48 322.78 210.69 325.22 210.63 325.39C210 327.44 212.01 327.26 212.24 328.71C213.08 333.83 208.67 333.98 205.06 332.65C205.49 330.62 207.76 331.77 208.87 329.62C209.98 327.47 208.16 327.05 207.34 325.93C207.07 325.56 207.05 324.97 206.86 324.73C206.51 324.3 205.91 324.58 205.78 324.49C205.72 324.45 205.34 323.32 205.33 323.18C205.3 322.2 205.76 321.07 205.49 319.86C204.94 317.39 201.18 316.74 199.06 317.05V316.09L199.07 316.11Z" fill="#96DF39"/>
<path d="M117.04 227.13C117.18 230.5 117.45 233.96 117.53 237.31C117.68 243.26 117.53 249.25 117.28 255.19C115.3 255.6 113.92 254.71 112.24 254.23L112.96 245.48C114.09 240.18 114.3 232.89 116.24 227.9C116.41 227.46 116.42 227.11 117.03 227.13H117.04Z" fill="#A87A58"/>
<path d="M258.79 224.97C258.48 226.53 259.86 227.97 259.76 229.4C259.65 231 256.91 234.97 255.32 235.53C253.41 236.21 252.53 234.76 250.87 235.76C250.83 235.73 250.55 235.85 250.37 235.61C249.8 234.83 249.56 232.54 249.67 231.56C250.05 227.9 253.7 224.33 257.46 224.47C258.08 224.49 258.35 224.84 258.78 224.97H258.79Z" fill="#C4EE79"/>
<path d="M240.56 230.49C240.58 232.43 240.21 234.6 239.33 236.34C237.7 239.54 235.81 237.96 232.88 238.17C231.75 235.3 231.88 232.75 233.64 230.17C235.2 227.88 237.28 226.99 239.6 228.93C240.49 229.67 240.23 229.94 240.55 230.49H240.56Z" fill="#C4EE79"/>
<path d="M128.31 317.55C130.58 317.13 129.56 315.86 129.79 314.85C129.9 314.38 130.67 313.59 130.84 312.76C130.98 312.09 130.84 311.49 130.94 310.95C131.09 310.13 133.55 309.28 134.28 308.78C135.2 308.15 136.02 306.87 136.94 306.16L141.25 305.8C140.2 308.18 137.77 309.93 137.89 312.75C136.01 312.63 134.08 312.69 132.89 314.35C132.62 314.73 131.45 317.07 131.41 317.45C131.3 318.55 132.21 318.91 132.36 319.84C132.76 322.37 130.59 322.9 128.53 322.82C129.4 320.83 129.33 319.47 128.29 317.54L128.31 317.55Z" fill="#95DD39"/>
<path d="M257.11 255.91C257.65 257.36 258.19 257.97 258.08 259.64C257.87 262.72 253.75 266.14 250.64 265.03C250.45 264.76 250.19 264.68 249.95 264.16C248.72 261.55 248.71 257.87 251.67 256.58C253.37 255.84 255.29 255.47 257.12 255.91H257.11Z" fill="#C3ED79"/>
<path d="M235.72 245.39L232.28 260.7C231.94 260.46 231.92 260.09 231.8 259.74C229.84 254.02 229.03 247.99 232.04 242.48C232.93 243.85 234.16 244.86 235.72 245.39Z" fill="#C2EC78"/>
<path d="M250.87 235.76C252.53 234.77 253.41 236.21 255.32 235.53C256.91 234.97 259.65 231 259.76 229.4C259.86 227.97 258.48 226.52 258.79 224.97C261.9 225.85 262.89 226.44 263.1 229.89C263.54 236.94 255.93 240.01 250.87 235.76Z" fill="#97E03A"/>
<path d="M250.15 251.35C252.07 251.94 255.52 249.87 256.2 248.17C257 246.2 255.57 243.88 255.18 242C257.31 241.97 257.5 241.33 259.48 242.86C261.18 244.18 261.38 245.26 261.18 247.39C260.95 249.72 259.77 251.17 257.58 251.94C256.71 252.25 253.23 253.02 252.42 252.99C251.61 252.96 250.61 252.02 250.15 251.35Z" fill="#97E03A"/>
<path d="M255.19 242C255.58 243.89 257.01 246.21 256.21 248.17C255.52 249.87 252.07 251.94 250.16 251.35C248.1 248.31 248.45 243.92 252.02 242.3C253.46 241.65 253.94 242.01 255.2 242H255.19Z" fill="#C4EE79"/>
<path d="M199.07 316.11V317.07C197.3 317.33 195.23 319.12 194.1 319.41C193.09 319.67 191.56 319.05 191.21 320.6C190.96 321.71 191.6 322.81 190.2 323.43C188.11 324.35 185.07 323.31 186.27 320.7C187.85 317.25 188.96 319.69 191.1 318.81C192.24 318.34 193.95 315.64 195.17 314.95C195.76 314.79 198.23 315.89 199.07 316.12V316.11Z" fill="#C0EA77"/>
<path d="M232.88 238.16C235.81 237.95 237.7 239.53 239.33 236.33C240.21 234.59 240.57 232.42 240.56 230.48C241.36 231.85 242.28 233.23 242.25 234.91C242.22 236.33 240.78 240.05 239.72 241.04C239.15 241.57 236.96 242.57 236.23 242.38C235.14 242.09 233.3 239.23 232.88 238.16Z" fill="#96DF39"/>
<path d="M112.49 257.59C114.06 258.05 115.33 258.55 117.05 258.31C116.66 262.08 116.3 265.85 115.61 269.58C115.12 269.63 114.76 269.6 114.4 269.23C113.43 268.25 112.26 259.38 112.5 257.58L112.49 257.59Z" fill="#A77A58"/>
<path d="M205.06 332.66C203.49 332.08 201.79 330.87 201.93 328.95C202.14 326.05 204.84 326.55 205.78 324.51C205.91 324.6 206.51 324.32 206.86 324.75C207.05 324.98 207.07 325.58 207.34 325.95C208.15 327.06 210.01 327.42 208.87 329.64C207.73 331.86 205.5 330.64 205.06 332.67V332.66Z" fill="#C3ED79"/>
<path d="M250.63 265.02C253.74 266.14 257.86 262.71 258.07 259.63C258.18 257.97 257.64 257.35 257.1 255.9C257.36 255.96 257.44 255.91 257.69 256.14C258.28 256.7 260.01 260.49 260.16 261.35C260.77 264.87 256.92 268.64 253.43 267.36C251.99 266.83 251.41 266.15 250.62 265.01L250.63 265.02Z" fill="#97E03A"/>
<path d="M209.86 191.39C209.87 195.39 208.48 199.52 206.02 202.66C206.02 202.16 205.76 201.65 205.77 201.11C205.8 198.01 205.94 194.97 206.03 191.88C207.3 191.7 208.58 191.59 209.85 191.39H209.86Z" fill="#C3ED79"/>
<path d="M113.65 278.97C113.92 279.4 112.74 284.44 112.49 285.3C112.39 285.65 112.63 285.72 112.01 285.65C110.96 283.16 109.86 280.66 109.37 277.98L113.65 278.97Z" fill="#C0EA77"/>
<path d="M128.31 317.55C129.35 319.47 129.42 320.83 128.55 322.83C125.97 322.73 124.51 322.19 125.35 319.27C125.94 317.24 126.89 317.81 128.31 317.55Z" fill="#C3ED79"/>
<path d="M247.99 277.02C245.82 277.08 243.89 276.82 241.76 276.54C242.37 274.84 243.13 273.12 243.92 271.5C245.14 273.46 246.35 275.37 248 277.02H247.99Z" fill="#BFA087"/>
<path d="M228.81 313.95L228.78 315.95L228.42 316.31C226.91 316.5 225.11 316.51 224.97 314.67L228.81 313.95Z" fill="#EEFDF8"/>
<path d="M139.59 302.92L141.63 299.81C144.26 302.18 141.91 302.48 139.59 302.92Z" fill="#444C7C"/>
<path d="M124 310.59C122.57 311.01 120.35 310.49 120.4 308.68C120.64 308.44 123.66 310.1 124 310.59Z" fill="#C0EA77"/>
<path d="M262.75 274.86C262.86 275.24 262.01 275.76 261.67 275.7L262.75 274.86Z" fill="#A77A58"/>
<path d="M266.04 228.51C265.33 227.66 266.17 226.01 263.93 224.02C261.41 221.78 260.28 222.57 257.76 221.55C257.05 221.27 256.63 220.16 255.66 220.16L257.58 198.35C257.7 198.21 259.62 199.61 259.85 199.79C266.21 204.74 272.9 214.4 275.92 221.85C280.06 232.08 283.36 242.96 279.64 253.87C276.79 262.24 271.32 270.86 263.2 274.85C264.38 272.84 265.98 271.08 267.26 269.08C271.22 262.87 275.98 252.17 275.31 244.76C274.88 240.04 270.63 232.85 267.4 229.41C266.93 228.9 266.16 228.68 266.02 228.51H266.04Z" fill="#A77A58"/>
<path d="M175.56 281.57C175.8 282.8 175.27 284.14 175.31 285.27C175.36 286.93 176.34 290.68 176.82 292.41C177.91 296.3 179.94 299.77 181.67 303.39C178.91 302.14 176.1 299.8 174.12 297.51C172.36 295.48 171.21 292.95 169.19 291.17C165.28 287.73 158.26 288.61 154.92 283.85C153.6 281.96 154.29 278.04 154.44 275.81C161.32 278.18 168.25 280.78 175.55 281.57H175.56Z" fill="#444C7C"/>
<path d="M255.67 121.84C255.64 121.71 255.69 121.52 255.67 121.36C255.97 121.24 255.91 120.9 255.91 120.64C255.91 120.48 255.93 120.31 255.91 120.16C256.24 120.04 256.11 119.69 256.15 119.44C257.06 113.55 259.32 109.3 262.53 104.35C263.37 103.06 266.81 98.35 268.15 98.09C269.49 97.83 270.33 98.94 269.85 100.14C269.68 100.56 266.6 103.43 265.89 104.35C263.89 106.95 260.54 112.55 259.69 115.65C259.23 117.33 259.02 121.78 258.29 122.89C257.74 123.72 256.49 123.7 255.94 122.89C255.68 122.49 255.77 122.19 255.68 121.84H255.67Z" fill="#030202"/>
<path d="M256.15 119.44C256.11 119.69 256.24 120.04 255.91 120.16C255.9 120.08 255.51 119.8 255.67 119.44H256.15Z" fill="#7D543C"/>
<path d="M255.91 120.64C255.91 120.9 255.97 121.24 255.67 121.36C255.67 121.28 255.27 120.99 255.43 120.64H255.91Z" fill="#7D543C"/>
<path d="M203.1 132.7C223.67 131 237.94 152.94 227.74 171.01C217.54 189.08 190.23 187.96 181.84 168.69C174.83 152.59 185.63 134.14 203.1 132.7ZM203.34 136.06C187.34 137.38 178.09 154.96 185.75 169.09C194.1 184.49 216.69 184.45 225.01 169.01C233.51 153.22 221.08 134.6 203.34 136.06Z" fill="#050506"/>
<path d="M117.71 124.55C138.28 122.85 152.55 144.79 142.35 162.86C132.02 181.16 104.84 179.81 96.4498 160.54C89.4398 144.44 100.24 125.99 117.71 124.55ZM117.71 127.91C101.84 129.33 92.7799 146.95 100.36 160.94C108.71 176.34 131.29 176.32 139.62 160.86C148.18 144.96 135.54 126.31 117.71 127.91Z" fill="#050506"/>
<path d="M147.26 256.39C147.51 255.49 147.15 255.26 147.98 254.23C148.37 253.74 149.12 253.29 149.62 252.63C151.47 250.2 153.39 245.83 154.28 242.9C154.62 241.79 155.34 237.67 155.75 237.18C156.5 236.29 158.07 236.66 158.29 237.81C158.55 239.19 157.19 242.64 156.68 244.1C155.56 247.31 153.34 253.12 151.09 255.54C149.97 256.75 148.69 257.78 147.26 256.39Z" fill="#030303"/>
<path d="M138.92 232.46C139.57 231.81 141.09 232.07 141.4 233.11C141.61 233.81 141.29 234.23 141.37 234.81C141.68 237.07 142.57 239.96 143.49 242.05C143.9 242.98 145.03 243.7 144.5 244.87C143.8 246.43 141.98 245.36 141.3 244.24C140.36 242.71 138.23 235.44 138.44 233.78C138.47 233.55 138.79 232.58 138.93 232.45L138.92 232.46Z" fill="#050606"/>
<path d="M265.68 126.68C266.91 126.42 267.85 127.28 267.51 128.51C267.31 129.21 265.95 130.42 265.4 131.22C263.86 133.46 262.65 136.4 261.92 139.01C261.57 140.26 261.02 144.31 260.66 144.94C260.1 145.92 258.43 145.77 258.12 144.7C257.6 142.92 259.84 136.1 260.66 134.15C261.3 132.64 264.21 126.99 265.68 126.68Z" fill="#030202"/>
<path d="M203.34 136.06C221.08 134.6 233.52 153.22 225.01 169.01C216.69 184.46 194.1 184.5 185.75 169.09C178.09 154.96 187.33 137.37 203.34 136.06ZM217.6 160.62C218.9 161.71 220.7 160.54 219.82 158.52C216.08 149.98 196.73 146.02 191.15 154.09C190.31 155.3 190.44 157.68 192.21 157.56C193.58 157.47 193.3 156.23 193.77 155.51C193.93 155.26 194.92 154.55 195.24 154.34C201.93 149.97 212.34 153.16 216.9 159.26C217.15 159.6 217.29 160.35 217.59 160.6L217.6 160.62Z" fill="#EEFDF8"/>
<path d="M117.71 127.91C135.54 126.31 148.19 144.96 139.62 160.86C131.29 176.32 108.71 176.34 100.36 160.94C92.7699 146.95 101.84 129.33 117.71 127.91ZM136.41 151.52C137.98 149.86 134.14 145.76 132.85 144.77C126.95 140.19 114.58 138.53 109 144.38C107.91 145.52 105.28 149.41 107.55 150.41C109.38 151.21 109.55 148.8 110.03 147.82C113.74 140.21 129.36 143.17 133.31 149.58C133.85 150.46 133.77 151.9 135.19 152C135.43 152.02 136.26 151.67 136.41 151.52Z" fill="#EEFDF8"/>
<path d="M217.6 160.62C217.29 160.36 217.16 159.62 216.91 159.28C212.35 153.18 201.95 149.99 195.25 154.36C194.93 154.57 193.94 155.28 193.78 155.53C193.3 156.25 193.59 157.49 192.22 157.58C190.44 157.69 190.32 155.32 191.16 154.11C196.74 146.04 216.09 150 219.83 158.54C220.71 160.56 218.91 161.73 217.61 160.64L217.6 160.62Z" fill="#050606"/>
<path d="M136.41 151.52C136.26 151.68 135.43 152.02 135.19 152C133.78 151.89 133.86 150.46 133.31 149.58C129.36 143.16 113.75 140.2 110.03 147.82C109.55 148.81 109.38 151.21 107.55 150.41C105.27 149.42 107.91 145.53 109 144.38C114.57 138.52 126.95 140.18 132.85 144.77C134.13 145.77 137.98 149.87 136.41 151.52Z" fill="#050506"/>
</svg>
