<svg width="360" height="360" viewBox="0 0 360 360" fill="none" xmlns="http://www.w3.org/2000/svg">
<path d="M228.59 90.64C232.08 90.11 235.47 89.09 239.01 88.74C251.91 87.46 263.37 89.91 273.75 97.65C289.93 109.73 296.55 122.81 291.74 143.38C287.56 161.24 270.08 173.5 251.8 170.21C250.14 169.91 248.51 169.45 246.92 168.9L244.9 171.38C244.8 171.73 245.13 171.76 245.29 171.92C246.41 173.03 249.04 174.85 250.43 175.9C251.94 177.03 255.7 178.62 255.44 180.69C255.14 183.09 250.18 182.14 250.17 182.87C254.29 188.99 257.76 195.93 260.06 202.95C260.46 204.16 261.31 208.4 261.74 209.07C261.82 209.19 263.67 210.32 264.08 210.69C268.12 214.33 273.17 223.21 268.84 228.16C268.42 228.64 267.37 229.06 267.24 229.44C267.02 230.1 267.29 231.42 267.18 232.26C266.97 233.79 265.34 236.35 263.8 236.8C260.98 237.62 259.53 235.35 257.85 233.6C257.32 236.59 253.58 240.7 250.32 238.6C249.08 237.8 248.43 234.39 247.81 232.95C247.55 232.35 245.68 228.82 245.37 228.66C245.02 228.47 245.01 228.61 244.76 228.78C243.75 229.48 242.7 231.13 241.64 231.91C244.04 237.1 246.88 242.09 248.3 247.68C252.89 250.1 258.84 250.21 263.96 249.91C276.21 249.18 292.34 236.7 289.38 223.27C288.4 218.81 283.27 211.36 285.24 207.16C287.48 202.39 292.59 205.9 294.87 208.67C303.79 219.55 300.39 236.38 292.47 246.76C284.75 256.87 275.71 261.86 262.75 261.42C258.83 261.29 255 260.57 251.12 259.98C251.31 262.66 251.51 264.99 251.01 267.67C250.17 272.17 247.71 276.33 244.64 279.64C246.67 279.87 245.85 285.18 246.08 285.4C255.83 286.55 262.48 293.23 260.88 303.44C260.26 307.38 257.86 314 254.4 316.15C249.23 319.36 239.88 319.08 233.99 318.23C228.88 317.49 223.25 315.03 218.07 314.25C216.58 314.03 213.17 314.21 212.08 313.76C210.66 313.18 210.21 310.77 209.93 309.43C209.25 306.14 208.37 298.86 209.06 295.75C209.17 295.27 209.84 293.58 209.82 293.46C209.79 293.29 208.71 292.2 208.46 291.7C207.35 289.51 208.15 287.09 209.85 285.51C204.21 282.24 199.03 277.46 193.23 274.55C186.85 271.34 181.93 272.6 175.63 275.27C172.32 276.68 169.58 279.09 166.31 280.57C166.45 282.24 166.44 285.36 165.58 286.8C165.23 287.39 163.81 288.27 163.8 288.85C165.1 292.37 166.91 296.53 166.67 300.37C166.59 301.64 165.92 305.23 165.55 306.45C164.57 309.74 161.21 309.35 158.7 309.91C154.21 310.92 149.49 313.46 145.15 315.06C138.94 317.36 133.44 318.67 126.75 318.73C122.38 318.77 110.36 318.37 110.33 312.09C110.33 311.21 110.97 310.6 111.02 309.95C111.08 309.1 110.35 306.84 110.3 305.66C110.21 303.61 110.53 300.24 111.1 298.28C112.32 294.11 117.35 289.58 121.4 288.19C123.82 287.36 126.74 286.67 129.26 287.06C127.86 284.83 127.87 282.43 128.27 279.9C121.16 276.65 117.51 268.38 115.82 261.16C113.65 262.44 111.26 262.73 108.87 261.88C109.16 264.08 109.42 266.26 109.36 268.49C109.07 278.95 107.36 288.68 99.88 296.43C94.36 302.15 82.31 308.75 74.22 308.17C62.55 307.33 53.09 304.42 45.32 295.34C31.24 278.87 31.27 250.69 45.91 234.54C55.78 223.66 70.67 222.49 83.99 227.4C92.42 230.51 97.41 236.42 102.15 243.79C102.54 244.02 103.96 243.05 104.04 242.78C104.12 242.48 103.82 241.84 103.82 241.39C103.82 240.54 103.77 238.27 103.87 237.6C104.39 234.14 108.19 224.71 109.71 221.11C110.87 218.35 113.05 215 113.9 212.35C113.94 212.23 113.97 211.96 113.79 212C112.37 213.23 107.28 213.37 108.06 210.61C113 203.83 118.79 197 122.82 189.61C124.28 186.93 125.53 183.87 126.73 181.05C127.39 179.49 130.59 172.19 130.63 171.15C130.66 170.36 130.09 168.28 129.98 167.26C129.87 166.24 130.15 165.24 129.86 164.26C123.7 160.09 118.36 154.79 113.68 149.02C110.27 144.82 107.81 141.51 105.99 136.32C105.51 134.96 105.36 133.31 104.92 132.12C104.48 130.93 103.38 130.21 103.05 128.72C101.65 122.47 107.03 118.02 112.82 117.73C117.05 117.51 118.47 118.58 122.15 119.7C122.37 119.77 122.37 120.06 122.67 119.67C122.85 116.98 124.1 114.53 125.18 112.1C122.89 110.94 123.48 108.96 125.21 107.57C126.14 106.82 127.7 106.42 128.41 105.73C129.12 105.04 129.97 103.21 130.71 102.27C131.97 100.66 133.59 99.38 134.73 97.67C133.28 95.36 131.87 93.38 131.65 90.53C130.82 79.52 141.15 74.65 150.5 73.63C157.9 63.97 163.46 54.85 176.86 54.18C196.65 53.19 209.25 59.67 220.6 75.46C223.88 80.03 226.8 85.29 228.58 90.63L228.59 90.64ZM196.91 59.96C190.73 57.44 177.82 56.3 171.44 58.11C166.93 59.39 161.29 64.74 158.44 68.37C157.18 69.97 156.34 71.95 154.71 73.27C154.61 73.81 154.95 73.6 155.3 73.63C166.59 74.46 176.95 75.48 187.56 79.87C190.89 81.25 194.87 83.34 198.12 85.02C203.21 87.66 208.28 90.43 212.43 94.45C216.93 94.87 221.24 93.2 225.43 91.84C225.94 91.13 221.86 83.31 221.18 82.11C216.43 73.78 205.84 63.6 196.92 59.97L196.91 59.96ZM137.19 95.45C137.46 95.64 140.31 93.08 140.81 92.72C154.67 82.56 170.31 82.13 186.64 85.69C192.66 87 198.13 89.67 203.85 91.74C188.44 82.43 170.52 75.78 152.17 76.75C145.43 77.11 135.59 80.12 135.01 88.13C134.78 91.29 135.39 92.93 137.18 95.45H137.19ZM272.7 100.97C260.56 91.64 247.52 89.69 232.54 93.07C225.36 94.69 216.32 99.25 208.94 97.44C208.08 97.23 207.56 96.62 206.9 96.36C195.65 91.8 185.69 87.57 173.28 86.8C157.6 85.83 143.34 91.71 133.58 103.96C135.18 104.22 138.87 103.56 138.87 106.12C138.87 109.31 130.92 111.71 128.42 112.47L126.02 119.42C130.68 116.31 135.21 114.01 140.61 117.07C141.96 117.83 142.96 118.3 142.63 119.98C142.17 122.35 139.19 119.81 138.3 119.38C134.69 117.66 130.07 119.68 127.85 122.71C127.7 123.28 128.71 123.92 129 124.6C129.31 125.33 129.13 125.92 129.73 126.51C132.17 128.94 140.1 131.07 143.53 131.18C144.82 131.22 146.38 130.85 147.38 130.91C149.09 131 149.34 133.53 147.31 134.23C145.58 134.83 140.13 134 138.14 133.57C134.74 132.84 131.71 131.09 128.68 129.48C124.89 136.06 115.23 137.45 108.65 134.65C109.58 136.56 110.15 138.88 111.24 140.7C114.78 146.62 122.45 154.41 127.84 158.76C128.93 159.64 129.76 160.32 130.96 161.16C148.19 173.25 171.99 175.03 190.92 166.2C192.17 165.62 194.26 164.32 195.54 164.57C196.17 164.69 198.35 166.14 199.06 166.58C201.12 167.87 202.91 169.28 205.08 170.52C205.32 170.66 207.16 171.82 207.24 171.72C207.17 170.27 207.35 168.72 207.24 167.29C207.01 164.4 206.03 160.82 206.02 157.93C206.01 154.41 211.55 157.37 213.48 157.93C215.7 158.58 217.92 159.28 220.19 159.73C220.91 158.96 216.87 148.21 216.16 146.62C215.94 146.13 214.76 143.59 214.56 143.42C213.36 142.35 207.86 144.71 208.2 141.26C208.95 140.26 209.97 140.14 211.19 140.05C217.17 139.63 219.61 141.16 223.56 145.21C227.92 149.68 230.82 154.49 235.78 158.65C238.62 161.03 242.12 163.53 245.62 164.76C234.6 155.22 225.81 142.56 221.57 128.49C220.91 126.31 219.4 121.22 220.06 119.17C220.76 117 224.44 119.42 225.83 119.91C230.45 121.53 234.77 121.87 239.63 121.34C240.34 121.26 241.08 121.32 241.79 121.1C241.56 120.6 240.49 120.42 240.11 120.14C238.03 118.62 234.12 114.82 232.44 112.82C231.48 111.68 230.01 109.98 230.67 108.44C231.29 107 233.38 108.35 234.29 108.56C237.66 109.35 241.39 108.64 244.66 107.67C245.18 107.51 246.09 107.63 246.34 106.95C245.77 106.83 245.15 106.53 244.66 106.23C242.6 104.97 237.87 101.47 236.64 99.5C235.64 97.91 236.65 96.44 238.49 96.93C239.56 97.21 241.77 100.72 242.62 100.71C252.21 94.17 266.05 99.2 274.64 105.26C278.39 107.9 281.95 111.33 284.67 115.02C286.05 116.89 287.14 119.07 288.55 120.85C285.7 112.08 279.83 106.41 272.72 100.94L272.7 100.97ZM276.54 110.81C269.76 104.87 258.08 99.08 248.91 101.29C248.55 101.38 245.03 102.7 245.36 103.14C247.03 103.82 248.74 105.06 250.58 105.25C251.73 105.37 252.62 104.78 253.69 105.25C254.76 105.72 254.98 107.13 254.12 107.96C253.26 108.79 244.42 111.09 242.72 111.43C240.5 111.87 238.27 112.14 236 112.03C238.39 114.57 241.56 118 245.01 118.97C246.34 119.34 248.85 119.09 248.48 121.25C248.22 122.75 243.63 123.91 242.25 124.15C236.08 125.24 229.16 124.38 223.29 122.34C225.87 135.5 232.85 147.67 242 157.36C243.93 159.4 246.35 161.65 248.6 163.35C249.72 164.19 253.41 166.86 254.48 167.3C257.19 168.43 263.53 167.15 266.4 166.29C281.49 161.79 289.65 148.13 289.96 132.78C287.33 124.45 283.2 116.66 276.53 110.82L276.54 110.81ZM117.76 121.36C113.9 120.62 107.76 120.53 106.36 125.19C105.63 127.64 106.19 128.64 107.93 130.23C111.79 133.76 119.21 133.62 123.4 130.71C124.54 129.92 126.91 127.11 126.03 125.67C125.9 125.46 123.35 123.45 122.96 123.23C121.46 122.35 119.46 121.68 117.76 121.36ZM288.77 121.6V121.12H288.54V121.6H288.77ZM219.93 145.82C219.74 145.65 219.39 145.73 219.46 146.17C219.58 147.01 220.45 147.99 220.42 148.93L222.1 148.45C222.2 148.35 220.39 146.64 220.18 146.41C220 146.22 219.97 145.85 219.94 145.82H219.93ZM229.77 161.17L229.36 156.92C227.88 155.83 226.56 153.08 225.33 152.06C224.63 151.48 222.52 151.6 221.62 151.58L223.35 158.25C224.41 158.45 225.61 158.76 226.59 159.21C227.74 159.74 228.62 160.69 229.78 161.17H229.77ZM193.07 183.48C191.18 189.54 190.16 195.29 188.39 201.23C184.25 215.15 172.46 230.13 158.93 235.81C155.28 237.34 153.51 237.29 149.65 237.45C146.95 237.56 143.83 237.73 141.14 237.45C137.58 237.07 134.83 235.09 132.19 232.85C132.46 228.88 133.99 225.01 134.3 221.02C134.52 218.09 134.19 215.07 134.79 212.16L134.54 209.63C134.54 210 134.43 210.34 134.27 210.68C129.79 220.24 123.69 227.63 120.7 238.12C117.42 249.61 116.15 257.9 121.87 268.96C127.52 279.88 140.81 282.6 152.19 281.84C167.35 280.83 178.16 263.38 194.51 271.52C201.08 274.79 210.51 284.13 217.41 284.72C222.82 285.18 231.55 284.19 236.32 281.54C248.74 274.63 250.03 265.13 246.5 252.04C244.74 245.54 242.2 239.14 238.74 233.42C235.77 233.72 234.31 231.7 234.1 228.94C234.03 228.03 234.4 226.99 234.3 226.36C234.17 225.6 232.81 223.48 232.42 222.47C231.28 219.52 230.35 216.34 229.79 213.23C229.36 210.84 228.92 208.08 228.82 205.67C228.78 204.61 229.2 203.11 229.02 202.14C228.84 201.17 226.91 197.97 226.29 196.95C225.73 196.03 222.41 191.62 222.35 191.28C222 189.2 224.07 188.79 225.47 190.09C226.53 191.09 229.02 195.3 229.83 196.76C231.32 199.45 232.58 202.42 233.63 205.31C234.55 204.72 233.63 203.63 234.89 203.09C235.7 202.74 236.4 202.84 236.95 203.54C238.47 205.45 240.48 212.39 240.82 214.9C241.48 219.76 239.94 220.26 238.31 224.26C237.69 225.78 236.7 228.29 237.51 229.84C238.18 231.12 240.15 229.09 240.58 228.33C243.83 225.01 246.07 223.39 248.97 228.09C249.98 229.72 251.15 232.5 251.85 234.33C251.94 234.58 252.04 235.72 252.09 235.77C254.66 235.37 255.28 231.62 255.44 229.41C255.55 227.93 254.76 224.14 256.78 224.02C259.81 223.83 257.93 229.44 258.67 230.5C258.81 230.7 259.44 230.79 259.77 231.08C260.95 232.13 262.16 235.11 263.51 232.92C264.93 230.61 263.6 224.52 262.17 222.27C262 222 261.56 221.96 261.33 221.61C260.09 219.66 262.25 217.03 264.18 219.48C265.39 221.02 265.84 222.86 266.44 224.65C266.55 224.96 266.51 225.38 266.95 225.46C268.13 221.21 265.34 216.23 262.27 213.47C261.54 212.81 259.13 211.39 258.79 210.89C258.49 210.45 258.25 209.06 258.08 208.42C256.27 201.44 254.03 195.38 250.45 189.07C249.51 187.42 246.4 183.58 246.19 182.05C245.84 179.5 249.93 179.81 249.92 179.28C247.29 177.2 244.7 175.04 241.99 173.06C239.96 171.58 237.86 170.22 235.77 168.84C232.86 166.92 228.61 163.7 225.78 162.16C225.39 161.95 224.38 161.47 224.01 161.74C223.38 164.59 219.09 162.76 217.06 162.24C214.56 161.6 212.09 160.71 209.63 159.96C209.22 160.53 210.28 165.88 210.36 167.03C210.46 168.66 210.31 170.43 210.34 172.09C210.36 173.24 211.18 175.65 209.02 175.79C207.06 175.92 200.94 171.38 198.99 170.31C195.34 173.5 194.47 179.01 193.08 183.48H193.07ZM232.76 160.22C233.22 161.06 232.55 162.63 232.68 163.17C232.83 163.79 237.4 166.11 238.29 166.69C239.59 167.53 240.77 168.55 242 169.48L242.48 169.46L243.92 167.99L232.77 160.22H232.76ZM153.02 234.08C167.44 232.25 181.24 213.55 185.28 200.5C187.86 192.16 189.92 177.69 194.47 170.59C195 169.76 196.65 168.88 195.42 168.3C193.98 167.62 193.04 169.13 191.88 169.68C191 170.09 189.39 170.65 188.42 171.01C183.09 172.96 177.48 174.41 171.78 174.64C171.53 174.79 169.92 179.24 169.54 179.95C168.69 181.55 166.04 184.88 164.79 186.35C161.96 189.68 157.77 193.42 154.35 196.18C153.56 196.82 151.41 198.64 150.63 198.93C148.64 199.67 147.17 196.98 149.19 196.17V195.86C148.75 195.34 148.46 194.79 148.24 194.16C147 190.68 146.08 186.44 144.95 182.82C144.23 180.5 142.99 177.98 142.36 175.82C141.88 174.16 141.84 171.94 141.29 170.23L133.13 166.46C133.03 168.6 133.91 170.59 134.26 172.64C137.15 189.27 138.74 204.06 137.44 221.02C137.2 224.13 136.04 227.24 135.79 230.17C135.62 232.09 136.23 232.08 137.76 232.94C141.21 234.89 149.06 234.6 153.03 234.1L153.02 234.08ZM149.9 187.79C150.56 189.91 150.83 192.2 151.7 194.26C155.46 191.07 159.29 187.96 162.5 184.19C164.33 182.04 167.75 177.83 168.35 175.16C168.45 174.7 168.35 174.87 168.02 174.83C166.38 174.64 164.68 175.12 162.98 175.07C159.96 174.97 155.5 174.33 152.55 173.63C151.57 173.4 145.2 171.16 144.88 171.47C146.08 176.84 147.92 182.06 149.55 187.31C149.63 187.55 149.89 187.72 149.91 187.78L149.9 187.79ZM133.11 186.36C132.67 183.46 132.34 180.52 131.9 177.61C131.85 177.29 131.79 176.85 131.43 177.25C127.78 188.85 121.01 198.78 113.68 208.31C113.61 208.64 113.7 208.76 114.03 208.66C115.12 208.33 116.63 207.01 117.76 208.29C118.71 209.37 117.35 212.39 116.83 213.62C114.21 219.89 111.27 225.28 109.11 231.92C108.72 233.13 106.35 240.47 106.95 241.03C107.73 240.71 108.58 241.43 109.03 241.47C109.53 241.51 111.08 240.13 111.81 241.82C112.33 243.03 111.5 243.26 111.15 244.15C110.35 246.22 109.93 246.96 111.08 249.02C111.52 249.82 113.95 252.52 114.76 251.35C114.9 251.15 115.58 246.97 115.56 246.65C115.54 246.27 115.12 245.95 115.08 245.23C115.03 244.31 115.5 243.4 115.59 242.47C116.03 242.19 116.51 241.82 116.73 241.33C117.75 239.07 118.17 235.06 119.19 232.4C122.58 223.55 128.81 215.88 132.42 207.14C135.82 198.92 134.36 194.66 133.1 186.35L133.11 186.36ZM249.67 251.83L250.43 255.98C250.68 256.66 252.53 256.89 253.22 257.03C268.41 260.08 279.68 257.89 289.47 245.47C295.49 237.84 298.79 227.14 295.78 217.59C294.89 214.77 292.61 210.24 290.04 208.7C288.59 207.84 287.96 207.87 288.02 209.74C288.14 213.07 291.68 218.79 292.48 222.57C295.35 236.07 281.74 249.51 269.38 252.24C263.21 253.6 255.77 253.38 249.67 251.84V251.83ZM236 222.09C236.52 220.35 237.9 218.82 237.93 216.92C237.94 216.13 236.58 209.62 236.12 209.61C235.35 211.14 234.58 212.62 232.64 212.37C233.13 214.59 233.7 216.81 234.45 218.95C234.72 219.72 235.13 221.16 235.46 221.77C235.61 222.05 235.46 222.17 235.99 222.07L236 222.09ZM107.69 244.16C105.92 245.04 101.21 249.81 99.73 246.73C92.89 232.57 80.7 226.96 65.12 228.08C51.92 229.03 44.11 240.02 40.06 251.47C35.4 264.65 38.58 282.19 47.51 292.96C54.51 301.41 63.02 304.14 73.77 304.83C83.57 305.46 96.65 297.31 101.57 288.98C106.09 281.34 107.14 267.05 104.91 258.58C104.65 257.58 103.38 256.28 104.73 255.45C105.27 255.11 106 255.29 106.23 255.15C106.43 255.02 107.43 251.22 108.91 251.34C107.19 249.09 106.96 246.85 107.71 244.15L107.69 244.16ZM114.88 254.71C112.37 254.71 109.66 251.97 109.14 256.29C108.65 260.31 113.42 259.81 115.1 257.48L114.88 254.7V254.71ZM242.67 285.6C242.95 284.2 243.37 282.54 242.36 281.34C239.87 282.77 237.54 284.86 234.8 285.78C229.38 287.6 222.12 288.44 216.45 287.81C214.87 287.64 213.05 286.35 211.76 287.93C211.02 288.83 210.78 290.02 211.76 290.83C212.21 291.2 212.71 291.19 213.07 291.44C213.38 291.65 213.49 292.1 213.72 292.23C218.38 294.98 224.91 294.67 229.69 292.41C231.29 291.65 233.05 290.63 234.2 289.49C236.85 286.87 239.08 286.39 242.67 285.61V285.6ZM147.02 292.37C152.63 291.96 157.11 290.36 161.28 286.61C162.69 285.34 163.53 284.37 162.96 282.3C159.89 283.08 156.75 284.62 153.58 284.91C151.55 285.1 149.09 284.96 147.02 284.94C144.57 284.92 142.49 285.03 140.06 284.59C137.16 284.07 134.21 282.84 131.55 281.59C130.4 283.28 132.12 285.92 133.25 287.32C136.74 291.65 141.62 292.77 147.02 292.38V292.37ZM213.46 310.59C214.94 310.79 216.63 310.7 218.07 310.9C228.6 312.37 239.38 318.18 250.34 314.5C256.18 312.54 258.91 302.41 257.41 296.98C255.14 288.76 241.79 285.58 236.25 291.77C234.98 293.18 232.29 296.8 231.4 298.43C230.88 299.38 230.73 301.65 228.71 300.26C227.13 299.17 229.27 296.42 229.05 296.2C225.03 297.42 220.88 297.91 216.77 296.85C216.05 296.66 212.77 295.27 212.51 295.49C212.3 296.69 211.9 297.7 212.02 298.96C212.18 300.61 212.33 302.32 212.5 303.99C212.73 306.2 213.2 308.38 213.46 310.59ZM139.83 313.47C146.24 311.52 152.42 307.98 158.96 306.58C159.67 306.43 161.72 306.49 162.15 305.87C162.47 305.41 163.23 301.61 163.3 300.85C163.64 297.26 162.19 294.25 161.17 290.93C161.01 290.78 158.25 292.7 157.78 292.94C155.45 294.1 150.81 295.24 148.22 295.49C144.59 295.83 139.27 295.36 135.98 293.7C133.02 292.21 132.91 290.58 128.88 290.24C120.89 289.57 114.02 295.22 113.67 303.27C113.55 305.89 114.42 307.98 114.42 310C114.42 311.42 112.97 312.36 114.55 313.45C119.7 316.99 133.95 315.27 139.82 313.48L139.83 313.47Z" fill="#020202"/>
<path d="M235.76 168.85C235.67 170.91 237.64 172.35 238.64 174C239.83 175.96 240.64 178.47 241.33 180.66C241.69 181.8 244.26 190.3 243.9 190.68C242.74 190.14 239.55 189.82 239.87 191.94C239.98 192.68 241.99 195.31 242.51 196.27C245 200.86 246.38 205.33 246.79 210.58C246.81 210.88 247.02 211.25 247.03 211.54C246.44 211.41 246.51 211.84 246.43 212.24C246.28 212.95 245.7 218.25 245.23 218.25C243.67 217.2 242.96 214.62 240.79 214.9C240.45 212.39 238.44 205.45 236.92 203.54C236.37 202.84 235.66 202.74 234.86 203.09C233.6 203.63 234.52 204.72 233.6 205.31C232.55 202.42 231.29 199.45 229.8 196.76C228.99 195.3 226.51 191.08 225.44 190.09C224.04 188.78 221.96 189.2 222.32 191.28C222.38 191.62 225.7 196.03 226.26 196.95C226.88 197.97 228.81 201.18 228.99 202.14C229.17 203.1 228.75 204.61 228.79 205.67C228.89 208.09 229.32 210.84 229.76 213.23C229.01 213.17 228.12 213.27 227.78 214.01C227.16 215.33 228.35 215.73 228.85 216.66C229.09 217.11 229.46 218.22 229.63 218.75C235.68 237.82 233.96 261.35 215.11 272.33C210.65 274.93 203.12 274.73 198.39 272.78C197.01 272.21 196.28 271.09 194.5 271.51C178.15 263.37 167.33 280.82 152.18 281.83C140.81 282.59 127.51 279.88 121.86 268.95C116.15 257.9 117.41 249.61 120.69 238.11C123.69 227.62 129.79 220.23 134.26 210.67C134.42 210.33 134.53 210 134.53 209.62L134.78 212.15C134.18 215.07 134.51 218.08 134.29 221.01C133.99 225 132.45 228.87 132.18 232.84C134.82 235.08 137.57 237.06 141.13 237.44C143.82 237.73 146.94 237.55 149.64 237.44C148.99 245.26 154.3 252.83 160.91 256.51C168.02 260.48 176.45 259 183.95 257.24C184.72 257.06 189.67 253.51 190.52 252.78C195.34 248.66 198.96 241.32 200.6 235.28C205.28 218.07 199.98 200.17 193.7 184.13C193.55 183.75 193.63 183.36 193.04 183.48C194.43 179.01 195.3 173.5 198.95 170.31C200.9 171.39 207.02 175.92 208.98 175.79C211.14 175.65 210.33 173.24 210.3 172.09C210.27 170.43 210.42 168.67 210.32 167.03C210.25 165.89 209.18 160.53 209.59 159.96C212.06 160.7 214.53 161.6 217.02 162.24C219.04 162.76 223.33 164.59 223.97 161.74C224.34 161.47 225.35 161.94 225.74 162.16C228.57 163.69 232.82 166.91 235.73 168.84L235.76 168.85Z" fill="#D9BA8C"/>
<path d="M276.54 110.81C280.52 125.07 273.73 141.76 263.11 151.47C258.59 155.6 251.71 158.7 245.48 158.06C244.23 157.93 243.26 157.18 242 157.34C232.86 147.65 225.88 135.49 223.29 122.32C229.16 124.36 236.08 125.22 242.25 124.13C243.62 123.89 248.22 122.73 248.48 121.23C248.85 119.07 246.34 119.32 245.01 118.95C241.56 117.98 238.39 114.55 236 112.01C238.27 112.12 240.5 111.85 242.72 111.41C244.42 111.07 253.27 108.77 254.12 107.94C254.97 107.11 254.78 105.7 253.69 105.23C252.6 104.76 251.73 105.35 250.58 105.23C248.73 105.04 247.02 103.8 245.36 103.12C245.02 102.69 248.55 101.36 248.91 101.27C258.09 99.0699 269.76 104.86 276.54 110.79V110.81Z" fill="#F7D5B8"/>
<path d="M138.15 133.59C138.11 134.13 138.52 134.21 138.84 134.46C147.94 141.77 158.34 141.18 169.15 138.56C179.26 136.1 184.44 133.87 192.52 127.52C192.89 127.23 193.07 126.22 193.88 126.42C194.69 126.62 195.75 130.92 195.9 131.86C196.51 135.61 196.09 139.27 195.25 142.95C195.46 143.17 198.5 141.06 198.93 140.75C199.49 140.35 201.36 138.53 201.66 138.44C204.98 137.45 204.14 141.57 203.82 143.48C203.53 145.19 202.9 146.8 202.45 148.47C199.95 148.4 200.48 150.57 200.77 152.31C200.19 152.18 200.27 152.61 200.09 152.94C198.47 155.96 196.2 160.15 194.05 162.74C193.08 163.91 191.55 164.83 190.94 166.22C172.01 175.05 148.21 173.27 130.98 161.18C131.13 159.48 129.2 158.96 127.86 158.78C122.48 154.43 114.8 146.64 111.26 140.72C110.18 138.91 109.6 136.58 108.67 134.67C115.25 137.47 124.91 136.08 128.7 129.5C131.73 131.12 134.76 132.86 138.16 133.59H138.15ZM140.28 150.88C139.68 157.24 147.87 164.07 153.64 164.74C165.54 166.13 177.65 158.49 182.48 147.82C183.12 146.41 186.35 139.53 182.69 139.86C181.88 139.93 178.31 141.77 177.12 142.22C167.86 145.69 151.84 149.56 142.1 148.21C140.87 148.04 136.77 146.54 136.21 146.63C135.16 146.79 134.84 147.58 135.02 148.57C135.31 150.1 138.99 150.47 140.27 150.88H140.28Z" fill="#E8D09C"/>
<path d="M193.07 183.48C193.66 183.36 193.58 183.76 193.73 184.13C200.01 200.18 205.31 218.07 200.63 235.28C198.99 241.32 195.37 248.67 190.55 252.78C189.7 253.51 184.74 257.06 183.98 257.24C176.48 259 168.05 260.48 160.94 256.51C154.33 252.82 149.02 245.26 149.67 237.44C153.53 237.29 155.29 237.34 158.95 235.8C172.48 230.12 184.27 215.14 188.41 201.22C190.18 195.28 191.2 189.53 193.09 183.47L193.07 183.48Z" fill="#E9D19C"/>
<path d="M107.69 244.16C106.94 246.86 107.17 249.1 108.89 251.35C107.41 251.22 106.42 255.02 106.21 255.16C105.99 255.3 105.26 255.12 104.71 255.46C103.36 256.29 104.63 257.59 104.89 258.59C107.11 267.07 106.07 281.35 101.55 288.99C96.6301 297.31 83.5501 305.47 73.7501 304.84C63.0001 304.15 54.4901 301.41 47.4901 292.97C38.5601 282.2 35.3801 264.66 40.0401 251.48C44.0901 240.03 51.9001 229.04 65.1001 228.09C80.6901 226.97 92.8701 232.58 99.7101 246.74C101.2 249.82 105.91 245.05 107.67 244.17L107.69 244.16ZM69.5101 235.59C50.5001 237.24 45.0201 261 49.8301 276.47C59.6101 307.92 97.1201 305.14 98.8201 271.37C99.6401 255.16 87.9801 233.98 69.5101 235.59Z" fill="#576271"/>
<path d="M229.77 213.22C230.33 216.33 231.26 219.51 232.4 222.46C232.79 223.48 234.16 225.59 234.28 226.35C234.38 226.98 234.02 228.02 234.08 228.93C234.28 231.69 235.74 233.71 238.72 233.41C242.19 239.13 244.73 245.53 246.48 252.03C250.02 265.12 248.72 274.62 236.3 281.53C231.53 284.18 222.8 285.17 217.39 284.71C210.49 284.12 201.06 274.78 194.49 271.51C196.27 271.09 196.99 272.21 198.38 272.78C203.11 274.73 210.64 274.93 215.1 272.33C233.95 261.35 235.67 237.82 229.62 218.75C229.45 218.21 229.08 217.1 228.84 216.66C228.34 215.73 227.15 215.34 227.77 214.01C228.12 213.27 229 213.17 229.75 213.23L229.77 213.22Z" fill="#C1955E"/>
<path d="M153.02 234.08C154.86 229.34 156.51 224.28 156.15 219.08C156.11 218.53 156.09 217.93 155.66 217.53C162.47 212.07 169.56 205.13 174.71 198.08C175.34 197.22 177.32 194.77 177.6 194.01C178.43 191.78 175.98 191 174.15 192.48C172.7 193.66 173.6 193.98 173.24 194.91C172.34 197.19 166.27 203.79 164.3 205.77C164.01 202.55 165.3 199.49 165.51 196.31C165.72 193.13 165.31 189.58 164.78 186.35C166.03 184.88 168.69 181.55 169.53 179.95C169.91 179.24 171.52 174.79 171.77 174.64C177.47 174.41 183.08 172.96 188.41 171.01C189.39 170.65 191 170.09 191.87 169.68C193.03 169.13 193.97 167.62 195.41 168.3C196.64 168.88 194.99 169.76 194.46 170.59C189.91 177.69 187.85 192.16 185.27 200.5C181.23 213.54 167.43 232.25 153.01 234.08H153.02Z" fill="#1656FD"/>
<path d="M153.02 234.08C149.04 234.59 141.2 234.87 137.75 232.92C136.22 232.06 135.62 232.07 135.78 230.15C136.03 227.23 137.19 224.11 137.43 221C138.73 204.04 137.14 189.25 134.25 172.62C133.89 170.57 133.02 168.58 133.12 166.44L141.28 170.21C141.83 171.92 141.87 174.14 142.35 175.8C142.98 177.97 144.22 180.48 144.94 182.8C146.06 186.43 146.99 190.67 148.23 194.14C148.46 194.78 148.74 195.32 149.17 195.84V196.15C147.16 196.96 148.64 199.65 150.62 198.91C151.4 198.62 153.55 196.79 154.34 196.16C157.76 193.4 161.95 189.66 164.78 186.33C165.31 189.56 165.72 193.01 165.51 196.29C165.3 199.57 164.01 202.53 164.3 205.75C161.13 208.94 157.66 211.83 154.33 214.85C154.01 214.93 153.93 214.67 153.78 214.47C153.23 213.73 152.67 211.87 152.11 210.87C151.36 209.52 150.12 206.96 148.24 207.8C146.16 208.73 148.94 211.59 149.56 212.71C150.29 214.02 150.89 215.44 151.31 216.88C151.22 217.33 149.52 218.21 149.04 218.43C148.05 218.89 146.1 219.24 145.47 219.66C144.5 220.3 144.72 221.95 145.77 222.26C148.44 223.04 153.63 219.15 155.67 217.51C156.1 217.91 156.12 218.51 156.16 219.06C156.52 224.25 154.87 229.32 153.03 234.06L153.02 234.08Z" fill="#3586FD"/>
<path d="M242 157.34C243.26 157.17 244.23 157.93 245.48 158.06C251.71 158.7 258.59 155.6 263.11 151.47C273.72 141.77 280.52 125.08 276.54 110.81C283.21 116.65 287.34 124.44 289.97 132.77C289.67 148.11 281.51 161.77 266.41 166.28C263.54 167.14 257.2 168.42 254.49 167.29C253.42 166.84 249.72 164.18 248.61 163.34C246.36 161.64 243.94 159.39 242.01 157.35L242 157.34Z" fill="#DBAA7A"/>
<path d="M213.46 310.59C213.21 308.38 212.73 306.21 212.5 303.99C212.33 302.32 212.18 300.61 212.02 298.96C211.9 297.7 212.3 296.69 212.51 295.49C212.77 295.27 216.05 296.67 216.77 296.85C220.88 297.91 225.03 297.42 229.05 296.2C229.27 296.41 227.13 299.17 228.71 300.26C230.73 301.65 230.88 299.39 231.4 298.43C232.29 296.8 234.99 293.18 236.25 291.77C241.79 285.58 255.14 288.76 257.41 296.98C258.91 302.41 256.18 312.54 250.34 314.5C239.37 318.18 228.6 312.37 218.07 310.9C216.63 310.7 214.94 310.79 213.46 310.59Z" fill="#7A461D"/>
<path d="M148.22 295.48C149.07 298.18 148.55 300.52 147.54 303.08C146.53 305.64 144.71 308.68 142.71 310.72C141.85 311.6 140.37 312.3 139.82 313.47C133.95 315.26 119.7 316.98 114.55 313.44C112.97 312.35 114.42 311.41 114.42 309.99C114.42 307.97 113.56 305.88 113.67 303.26C114.02 295.21 120.89 289.56 128.88 290.23C132.9 290.57 133.01 292.19 135.98 293.69C139.27 295.35 144.59 295.82 148.22 295.48Z" fill="#89572B"/>
<path d="M196.91 59.96C196.68 61.11 197.77 61.6 198.01 62.58C198.56 64.86 197.2 70.12 196.16 72.28C194.55 75.63 191.08 78.7 187.56 79.87C176.94 75.48 166.59 74.46 155.3 73.63C154.94 73.6 154.61 73.82 154.71 73.27C156.34 71.95 157.19 69.97 158.44 68.37C161.29 64.73 166.93 59.38 171.44 58.11C177.82 56.3 190.73 57.44 196.91 59.96Z" fill="#3586FD"/>
<path d="M196.91 59.9599C205.83 63.5899 216.42 73.7699 221.17 82.0999C221.86 83.2999 225.94 91.12 225.42 91.83C221.23 93.19 216.92 94.86 212.42 94.44C208.27 90.42 203.2 87.65 198.11 85.01C194.86 83.33 190.88 81.23 187.55 79.86C191.07 78.69 194.54 75.6299 196.15 72.2699C197.19 70.1099 198.55 64.8499 198 62.57C197.76 61.59 196.68 61.1 196.9 59.95L196.91 59.9599Z" fill="#1656FD"/>
<path d="M137.19 95.4499C135.4 92.9299 134.79 91.2899 135.02 88.1299C135.61 80.1199 145.44 77.1099 152.18 76.7499C170.53 75.7699 188.45 82.4299 203.86 91.7399C198.13 89.6699 192.66 86.9999 186.65 85.6899C170.32 82.1299 154.67 82.5599 140.82 92.7199C140.32 93.0799 137.47 95.6399 137.2 95.4499H137.19Z" fill="#254AC5"/>
<path d="M249.67 251.83C255.77 253.38 263.21 253.59 269.38 252.23C281.74 249.51 295.35 236.07 292.48 222.56C291.68 218.78 288.14 213.06 288.02 209.73C287.95 207.86 288.59 207.83 290.04 208.69C292.62 210.23 294.9 214.76 295.78 217.58C298.79 227.14 295.49 237.83 289.47 245.46C279.67 257.88 268.41 260.08 253.22 257.02C252.53 256.88 250.68 256.66 250.43 255.97L249.67 251.82V251.83Z" fill="#D9A97A"/>
<path d="M109.13 231.93C111.29 225.29 114.22 219.89 116.85 213.63C117.37 212.39 118.73 209.37 117.78 208.3C116.65 207.02 115.13 208.34 114.05 208.67C113.71 208.77 113.62 208.64 113.7 208.32C121.03 198.78 127.79 188.86 131.45 177.26C131.81 176.87 131.87 177.3 131.92 177.62C132.35 180.53 132.69 183.47 133.13 186.37C130.57 197.75 123.67 207.05 120.11 218.08C119.28 220.65 118.49 223.51 117.85 226.13C117.33 228.27 116.49 231.37 116.34 233.5C116.31 233.88 116.3 233.91 116.7 233.86L119.22 232.42C118.2 235.08 117.78 239.09 116.76 241.35C116.54 241.84 116.07 242.21 115.62 242.49C115.87 239.72 115.81 236.85 116.34 234.1L112.65 235.98C111.89 235.83 110.48 231.98 109.14 231.94L109.13 231.93Z" fill="#D8B98B"/>
<path d="M258.07 208.42C257.34 208.42 257.45 208.74 257.35 209.26C256.83 211.75 256 213.56 254.95 215.86C254.59 215.96 254.55 215.76 254.35 215.62C251.93 213.96 250.34 209.41 246.8 210.58C246.39 205.33 245.02 200.86 242.52 196.27C242 195.31 239.99 192.68 239.88 191.94C239.56 189.82 242.76 190.13 243.91 190.68C244.27 190.3 241.7 181.8 241.34 180.66C240.64 178.47 239.84 175.96 238.65 174C237.65 172.35 235.67 170.91 235.77 168.85C237.86 170.23 239.95 171.58 241.99 173.07C244.7 175.05 247.29 177.2 249.92 179.29C249.92 179.82 245.84 179.51 246.19 182.06C246.4 183.59 249.51 187.43 250.45 189.08C254.03 195.39 256.28 201.44 258.08 208.43L258.07 208.42Z" fill="#C1955E"/>
<path d="M258.07 208.42C258.24 209.06 258.48 210.44 258.78 210.89C259.12 211.39 261.53 212.81 262.26 213.47C265.33 216.23 268.12 221.2 266.94 225.46C266.5 225.39 266.54 224.97 266.43 224.65C265.83 222.86 265.38 221.02 264.17 219.48C262.24 217.03 260.08 219.67 261.32 221.61C261.54 221.96 261.98 222 262.16 222.27C263.6 224.52 264.93 230.61 263.5 232.92C262.15 235.11 260.94 232.13 259.76 231.08C259.43 230.79 258.8 230.7 258.66 230.5C257.92 229.43 259.79 223.83 256.77 224.02C254.75 224.14 255.54 227.93 255.43 229.41C255.26 231.62 254.65 235.37 252.08 235.77C252.03 235.72 251.93 234.58 251.84 234.33C253.32 232.8 254.54 229.16 251.8 228.25C251.18 228.05 249.53 227.69 248.96 228.09C246.06 223.39 243.82 225.01 240.57 228.33C241.67 226.36 242.7 225.41 243.89 223.61C245.96 220.47 247.11 215.28 247.05 211.54C247.05 211.25 246.83 210.88 246.81 210.58C250.35 209.41 251.95 213.96 254.36 215.62C254.56 215.76 254.6 215.95 254.96 215.86C256.01 213.57 256.84 211.75 257.36 209.26C257.47 208.75 257.36 208.42 258.08 208.42H258.07Z" fill="#DAAA7A"/>
<path d="M119.2 232.41L116.68 233.85C116.28 233.9 116.3 233.87 116.32 233.49C116.47 231.36 117.31 228.27 117.83 226.12C118.47 223.5 119.27 220.64 120.09 218.07C123.64 207.03 130.55 197.73 133.11 186.36C134.37 194.67 135.83 198.93 132.43 207.15C128.82 215.89 122.58 223.56 119.2 232.41Z" fill="#C1955E"/>
<path d="M148.22 295.48C150.81 295.23 155.45 294.09 157.78 292.93C158.25 292.7 161.01 290.78 161.17 290.92C162.19 294.24 163.64 297.25 163.3 300.84C163.23 301.6 162.47 305.4 162.15 305.86C161.72 306.48 159.67 306.42 158.96 306.57C152.41 307.97 146.24 311.51 139.83 313.46C140.38 312.29 141.86 311.59 142.72 310.71C144.72 308.67 146.5 305.73 147.55 303.07C148.6 300.41 149.08 298.17 148.23 295.47L148.22 295.48Z" fill="#7A461D"/>
<path d="M208.18 141.27C207.84 144.71 213.34 142.36 214.54 143.43C214.73 143.6 215.92 146.14 216.14 146.63C216.86 148.22 220.89 158.98 220.17 159.74C217.9 159.29 215.68 158.59 213.46 157.94C211.53 157.38 205.99 154.42 206 157.94C206 160.83 206.99 164.41 207.22 167.3C207.33 168.74 207.15 170.28 207.22 171.73C207.15 171.83 205.3 170.67 205.06 170.53C204.72 168.78 204.58 167.01 204.22 165.25C203.34 160.9 201.47 156.66 200.74 152.3C200.45 150.57 199.92 148.39 202.42 148.46L210.57 149.18C210.8 148.94 208.99 145.04 208.7 144.46C208.2 143.45 207.23 143.37 207.74 141.66C207.83 141.35 208.12 141.34 208.17 141.27H208.18Z" fill="#C1955E"/>
<path d="M152.54 173.64C155.49 174.34 159.96 174.98 162.97 175.08C164.67 175.13 166.37 174.65 168.01 174.84C168.34 174.88 168.44 174.71 168.34 175.17C167.74 177.84 164.32 182.05 162.49 184.2C159.28 187.97 155.46 191.08 151.69 194.27C150.83 192.2 150.55 189.92 149.89 187.8C150.58 187.94 150.33 187.46 150.44 187.04C151.39 183.39 152.35 179.72 152.53 175.93C152.57 175.14 152.31 174.33 152.53 173.65L152.54 173.64Z" fill="#E8D09C"/>
<path d="M242.67 285.6C239.08 286.39 236.85 286.86 234.2 289.48C233.05 290.62 231.29 291.65 229.69 292.4C224.91 294.66 218.38 294.97 213.72 292.22C213.49 292.08 213.38 291.64 213.07 291.43C212.71 291.18 212.21 291.19 211.76 290.82C210.79 290.01 211.03 288.82 211.76 287.92C213.05 286.35 214.87 287.63 216.45 287.8C222.12 288.42 229.38 287.58 234.8 285.77C237.54 284.85 239.87 282.77 242.36 281.33C243.37 282.54 242.95 284.19 242.67 285.59V285.6Z" fill="#7A461D"/>
<path d="M117.76 121.36C118.52 123.68 119.83 125.86 118.91 128.38C117.9 131.15 113.04 132.42 110.63 131.01C109.92 130.59 109.1 128.77 107.93 130.23C106.19 128.64 105.63 127.63 106.36 125.19C107.76 120.53 113.9 120.62 117.76 121.36Z" fill="#F3936A"/>
<path d="M147.02 284.93C146.8 287.41 146.61 289.88 147.02 292.37C141.62 292.76 136.74 291.64 133.25 287.31C132.12 285.91 130.4 283.27 131.55 281.58C134.2 282.83 137.16 284.06 140.06 284.58C142.5 285.02 144.58 284.91 147.02 284.93Z" fill="#89572B"/>
<path d="M109.13 231.93C110.47 231.98 111.88 235.83 112.64 235.97L116.33 234.09C115.81 236.85 115.87 239.72 115.61 242.48C115.52 243.41 115.06 244.33 115.1 245.24C115.14 245.96 115.56 246.28 115.58 246.66C115.6 246.98 114.91 251.16 114.78 251.36C113.97 252.53 111.54 249.83 111.1 249.03C109.96 246.97 110.37 246.23 111.17 244.16C111.52 243.26 112.35 243.04 111.83 241.83C111.11 240.14 109.56 241.53 109.05 241.48C108.6 241.44 107.75 240.72 106.97 241.04C106.37 240.47 108.74 233.13 109.13 231.93Z" fill="#F5D3B6"/>
<path d="M200.75 152.3C201.48 156.65 203.35 160.9 204.23 165.25C204.59 167 204.72 168.78 205.07 170.53C202.9 169.29 201.12 167.88 199.05 166.59C198.34 166.15 196.16 164.71 195.53 164.58C194.25 164.33 192.16 165.62 190.91 166.21C191.52 164.82 193.05 163.89 194.02 162.73C196.18 160.14 198.44 155.95 200.06 152.93C200.24 152.6 200.16 152.17 200.74 152.3H200.75Z" fill="#D9BA8C"/>
<path d="M147.02 284.93C149.1 284.95 151.55 285.09 153.58 284.9C156.75 284.61 159.89 283.07 162.96 282.29C163.53 284.36 162.69 285.33 161.28 286.6C157.11 290.35 152.63 291.95 147.02 292.36C146.61 289.87 146.8 287.41 147.02 284.92V284.93Z" fill="#7A461D"/>
<path d="M107.93 130.23C109.1 128.76 109.92 130.59 110.63 131.01C113.04 132.42 117.9 131.16 118.91 128.38C119.83 125.85 118.52 123.67 117.76 121.36C119.47 121.68 121.46 122.35 122.96 123.23C123.35 123.46 125.9 125.47 126.03 125.67C126.9 127.11 124.54 129.92 123.4 130.71C119.21 133.62 111.78 133.76 107.93 130.23Z" fill="#EB643C"/>
<path d="M152.54 173.64C152.31 174.31 152.57 175.13 152.54 175.92C152.36 179.71 151.4 183.39 150.45 187.03C150.34 187.45 150.6 187.93 149.9 187.79C149.88 187.73 149.61 187.56 149.54 187.32C147.9 182.07 146.06 176.86 144.87 171.48C145.19 171.17 151.57 173.41 152.54 173.64Z" fill="#D9BA8C"/>
<path d="M247.04 211.54C247.1 215.28 245.95 220.47 243.88 223.61C242.7 225.4 241.66 226.36 240.56 228.33C240.14 229.09 238.16 231.12 237.49 229.84C236.68 228.29 237.67 225.78 238.29 224.26C239.92 220.26 241.46 219.76 240.8 214.9C242.97 214.62 243.68 217.2 245.24 218.25C245.71 218.25 246.29 212.96 246.44 212.24C246.52 211.84 246.46 211.4 247.04 211.54Z" fill="#F7D5B8"/>
<path d="M229.77 161.17C228.61 160.68 227.73 159.73 226.58 159.21C225.6 158.76 224.4 158.46 223.34 158.25L221.61 151.58C222.52 151.6 224.62 151.48 225.32 152.06C226.55 153.08 227.87 155.83 229.35 156.92L229.76 161.17H229.77Z" fill="#1656FD"/>
<path d="M272.7 100.97C279.81 106.43 285.67 112.1 288.53 120.88C287.13 119.1 286.03 116.92 284.65 115.05C281.93 111.36 278.37 107.94 274.62 105.29L274.02 103.61C273.66 102.67 272.52 102.08 272.7 100.98V100.97Z" fill="#C1955E"/>
<path d="M232.76 160.22L243.91 167.99L242.47 169.46L241.99 169.48C240.76 168.54 239.58 167.52 238.28 166.69C237.39 166.12 232.82 163.79 232.67 163.17C232.54 162.64 233.21 161.06 232.75 160.22H232.76Z" fill="#1656FD"/>
<path d="M114.88 254.71L115.1 257.49C113.42 259.81 108.66 260.31 109.14 256.3C109.66 251.98 112.36 254.73 114.88 254.72V254.71Z" fill="#F5D3B6"/>
<path d="M248.95 228.09C249.52 227.68 251.17 228.04 251.79 228.25C254.53 229.16 253.31 232.8 251.83 234.33C251.14 232.51 249.96 229.73 248.95 228.09Z" fill="#F5D3B6"/>
<path d="M130.95 161.17C129.76 160.33 128.92 159.65 127.83 158.77C129.16 158.94 131.1 159.47 130.95 161.17Z" fill="#D8B98B"/>
<path d="M288.76 121.12H288.53V121.6H288.76V121.12Z" fill="#C1955E"/>
<path d="M272.7 100.97C272.53 102.08 273.66 102.67 274.02 103.6L274.62 105.28C266.03 99.21 252.18 94.18 242.6 100.73C241.75 100.73 239.54 97.23 238.47 96.95C236.63 96.46 235.62 97.93 236.62 99.52C237.85 101.48 242.58 104.99 244.64 106.25V107.69C241.37 108.66 237.65 109.37 234.27 108.58C233.36 108.37 231.27 107.02 230.65 108.46C229.98 110 231.46 111.69 232.42 112.84C234.1 114.84 238 118.65 240.09 120.16L239.61 121.36C234.75 121.89 230.44 121.54 225.81 119.93C224.43 119.45 220.75 117.02 220.04 119.19C219.38 121.24 220.89 126.33 221.55 128.51C225.8 142.57 234.58 155.23 245.6 164.78C242.1 163.55 238.61 161.05 235.76 158.67C230.8 154.51 227.9 149.7 223.54 145.23C219.59 141.18 217.16 139.65 211.17 140.07C209.95 140.16 208.93 140.27 208.18 141.28C208.12 141.36 207.84 141.37 207.75 141.67C207.24 143.38 208.21 143.46 208.71 144.47C209 145.06 210.81 148.96 210.58 149.19L202.43 148.47C202.88 146.81 203.51 145.19 203.8 143.48C204.12 141.58 204.96 137.45 201.64 138.44C201.35 138.53 199.47 140.35 198.91 140.75C198.49 141.05 195.44 143.16 195.23 142.95C196.07 139.28 196.49 135.61 195.88 131.86C195.73 130.92 194.65 126.62 193.86 126.42C193.07 126.22 192.87 127.23 192.5 127.52C184.42 133.87 179.24 136.11 169.13 138.56C158.32 141.19 147.92 141.78 138.82 134.46C138.5 134.21 138.1 134.13 138.13 133.59C140.12 134.02 145.57 134.84 147.3 134.25C149.33 133.55 149.08 131.02 147.37 130.93C146.36 130.88 144.81 131.25 143.52 131.2C140.1 131.08 132.16 128.96 129.72 126.53C129.13 125.94 129.31 125.34 128.99 124.62C128.69 123.94 127.69 123.3 127.84 122.73C130.06 119.7 134.68 117.68 138.29 119.4C139.18 119.82 142.16 122.37 142.62 120C142.95 118.32 141.95 117.85 140.6 117.09C135.19 114.03 130.67 116.33 126.01 119.44L128.41 112.49C130.91 111.72 138.85 109.33 138.86 106.14C138.86 103.59 135.17 104.25 133.57 103.98C143.34 91.73 157.59 85.85 173.27 86.82C185.68 87.59 195.63 91.81 206.89 96.38C207.55 96.65 208.07 97.25 208.93 97.46C216.31 99.27 225.35 94.71 232.53 93.09C247.5 89.71 260.55 91.65 272.69 100.99L272.7 100.97ZM172.87 95.52C170.15 95.86 167.4 97.45 169.57 100.37C171.74 103.29 177.12 103.35 180.24 103.61C181.9 103.75 184.93 104.8 185.98 103.11C187.42 100.78 183.59 98.68 181.96 97.81C179.25 96.36 176.01 95.13 172.87 95.52ZM167.12 112.8C163.12 112.99 156.16 115.83 153.37 118.71C151.8 120.33 152.84 121.82 154.93 121.23C162.6 114.96 173.26 113.5 180.36 121.49C181.53 122.81 182.66 125.81 184.51 125.39C187.03 124.83 184.63 121.74 183.82 120.66C180.05 115.59 173.43 112.51 167.12 112.8Z" fill="#D9BA8C"/>
<path d="M167.12 112.8C173.43 112.51 180.05 115.59 183.82 120.66C184.62 121.74 187.02 124.82 184.51 125.39C182.66 125.8 181.53 122.8 180.36 121.49C173.26 113.5 162.6 114.96 154.93 121.23C152.84 121.82 151.8 120.33 153.37 118.71C156.16 115.82 163.12 112.98 167.12 112.8Z" fill="#030202"/>
<path d="M172.87 95.52C176 95.13 179.24 96.35 181.96 97.81C183.58 98.68 187.42 100.78 185.98 103.11C184.93 104.81 181.9 103.75 180.24 103.61C177.12 103.35 171.66 103.18 169.57 100.37C167.48 97.56 170.15 95.86 172.87 95.52Z" fill="#020202"/>
<path d="M140.28 150.88C139 150.47 135.32 150.1 135.03 148.57C134.84 147.58 135.16 146.79 136.22 146.63C136.77 146.55 140.87 148.04 142.11 148.21C151.85 149.56 167.87 145.69 177.13 142.22C178.32 141.77 181.89 139.94 182.7 139.86C186.35 139.53 183.12 146.41 182.49 147.82C177.66 158.49 165.55 166.13 153.65 164.74C147.88 164.06 139.69 157.24 140.29 150.88H140.28ZM180.36 144.39C174.24 146.75 167.93 148.58 161.45 149.7L160.94 155.18C164.01 155.06 166.82 155.98 169.27 157.78C169.81 157.89 172.8 155.58 173.41 155.06C176.65 152.26 179.12 148.5 180.36 144.39ZM158.29 150.38L151.24 151.31L151.13 153.94C151.52 154.56 156.92 153.59 157.91 153.52L158.29 150.38ZM147.98 151.58L144.05 151.33C142.68 154.36 146.57 157.49 148.71 159.15H149.16L152.05 157.1C151.02 157.47 147.97 156.48 147.97 155.3V151.58H147.98ZM165.97 159.26C161.39 157.42 156.13 158.16 152.06 160.81C155.21 162.42 162.65 161.43 165.66 159.79C165.94 159.64 166.06 159.79 165.96 159.26H165.97Z" fill="#030202"/>
<path d="M69.5102 235.59C87.9802 233.98 99.6302 255.16 98.8202 271.37C97.1202 305.15 59.6102 307.93 49.8302 276.47C45.0202 261 50.5002 237.24 69.5102 235.59ZM68.7802 238.71C55.7802 240.19 50.3802 256.01 51.0802 267.31C52.0202 282.45 65.7402 301.55 82.6702 294.09C105.83 283.88 96.0602 235.61 68.7802 238.71Z" fill="#030405"/>
<path d="M155.66 217.53C153.62 219.16 148.42 223.05 145.76 222.28C144.71 221.97 144.49 220.33 145.46 219.68C146.09 219.26 148.04 218.92 149.03 218.45C149.51 218.23 151.21 217.35 151.3 216.9C150.88 215.46 150.28 214.04 149.55 212.73C148.93 211.61 146.15 208.75 148.23 207.82C150.11 206.98 151.35 209.54 152.1 210.89C152.66 211.9 153.22 213.75 153.77 214.49C153.92 214.69 154 214.96 154.32 214.87C157.65 211.84 161.12 208.95 164.29 205.77C166.26 203.79 172.34 197.18 173.23 194.91C173.59 193.98 172.69 193.66 174.14 192.48C175.97 191 178.42 191.78 177.59 194.01C177.31 194.76 175.33 197.22 174.7 198.08C169.56 205.12 162.46 212.07 155.65 217.53H155.66Z" fill="#010205"/>
<path d="M180.36 144.39C179.12 148.51 176.65 152.26 173.41 155.06C172.8 155.58 169.81 157.89 169.27 157.78C166.82 155.97 164 155.05 160.94 155.18L161.45 149.7C167.93 148.58 174.24 146.75 180.36 144.39Z" fill="#843E47"/>
<path d="M165.97 159.26C166.07 159.8 165.94 159.64 165.67 159.79C162.65 161.44 155.21 162.42 152.07 160.81C156.14 158.16 161.4 157.41 165.98 159.26H165.97Z" fill="#C17877"/>
<path d="M147.98 151.58V155.3C147.98 156.49 151.02 157.47 152.06 157.1L149.17 159.15H148.72C146.58 157.49 142.69 154.36 144.06 151.33L147.99 151.58H147.98Z" fill="#843E47"/>
<path d="M158.29 150.38L157.91 153.52C156.92 153.59 151.52 154.56 151.13 153.94L151.24 151.31L158.29 150.38Z" fill="#FAF4E8"/>
<path d="M68.78 238.71C96.06 235.61 105.83 283.88 82.67 294.09C65.74 301.56 52.02 282.45 51.08 267.31C50.38 256.01 55.78 240.18 68.78 238.71ZM67.33 242.3C65.01 242.69 61.24 246.6 59.86 248.5C57.62 251.58 55.64 257.51 55.4 261.31C55.31 262.78 54.99 266.12 57.18 265.98C59.37 265.84 58.45 263.07 58.52 261.79C58.78 257.11 62.66 246.91 67.62 245.47C68.44 245.23 70.39 245.65 70.71 244.72C71.46 242.53 68.94 242.03 67.33 242.3ZM91.32 263.38C88.93 263.82 90.52 266.18 90.66 267.54C91.51 275.86 86.7 286.46 78.32 289.01C76.85 289.46 74.24 289.15 74.59 291.27C74.87 292.92 77.09 292.48 78.2 292.25C86.87 290.49 92.67 281.08 93.75 272.79C93.99 270.95 94.64 262.77 91.32 263.38ZM56.29 269.15C54.08 269.81 56.05 274.81 57.09 275.69C57.79 276.28 58.96 276.27 59.45 275.43C60.24 274.07 58.9 273.04 58.5 271.88C58.1 270.72 58.39 268.53 56.29 269.15Z" fill="#AFE6FD"/>
<path d="M91.3202 263.38C94.6402 262.77 93.9902 270.94 93.7502 272.79C92.6702 281.08 86.8702 290.49 78.2002 292.25C77.0902 292.48 74.8702 292.92 74.5902 291.27C74.2302 289.15 76.8502 289.46 78.3202 289.01C86.7002 286.46 91.5202 275.86 90.6602 267.54C90.5202 266.18 88.9302 263.81 91.3202 263.38Z" fill="#9DE1FE"/>
<path d="M67.33 242.3C68.95 242.03 71.46 242.53 70.71 244.72C70.39 245.65 68.44 245.23 67.62 245.47C62.66 246.92 58.77 257.12 58.52 261.79C58.45 263.07 59.34 265.85 57.18 265.98C55.02 266.11 55.31 262.78 55.4 261.31C55.64 257.51 57.61 251.58 59.86 248.5C61.24 246.6 65.01 242.69 67.33 242.3Z" fill="#FDFEFE"/>
<path d="M56.2901 269.15C58.3901 268.53 58.1001 270.68 58.5001 271.88C58.9001 273.08 60.2401 274.07 59.4501 275.43C58.9601 276.27 57.7901 276.28 57.0901 275.69C56.0501 274.81 54.0801 269.81 56.2901 269.15Z" fill="#FDFEFE"/>
</svg>
